<svg xmlns="http://www.w3.org/2000/svg" width="122" height="48" fill="#181d27" xmlns:v="https://vecta.io/nano"><path d="M52.039 26.049c0 5.752-4.5 9.991-10.022 9.991s-10.022-4.239-10.022-9.991c0-5.792 4.5-9.99 10.022-9.99s10.022 4.198 10.022 9.991zm-4.387 0c0-3.594-2.608-6.054-5.635-6.054s-5.635 2.459-5.635 6.054c0 3.558 2.608 6.054 5.635 6.054s5.635-2.5 5.635-6.054zm26.008 0c0 5.752-4.5 9.991-10.022 9.991s-10.022-4.239-10.022-9.991c0-5.788 4.5-9.99 10.022-9.99S73.66 20.257 73.66 26.05zm-4.387 0c0-3.594-2.608-6.054-5.635-6.054s-5.635 2.459-5.635 6.054c0 3.558 2.608 6.054 5.635 6.054s5.635-2.5 5.635-6.054zm25.107-9.387v17.936c0 7.378-4.351 10.392-9.495 10.392-4.842 0-7.756-3.239-8.855-5.887l3.82-1.59c.68 1.626 2.347 3.545 5.031 3.545 3.293 0 5.333-2.031 5.333-5.856v-1.437h-.153c-.982 1.212-2.874 2.27-5.261 2.27-4.995 0-9.572-4.351-9.572-9.95 0-5.639 4.576-10.027 9.572-10.027 2.383 0 4.275 1.059 5.261 2.234h.153v-1.626h4.167v-.005zm-3.856 9.423c0-3.518-2.347-6.09-5.333-6.09-3.027 0-5.563 2.572-5.563 6.09 0 3.482 2.536 6.018 5.563 6.018 2.986 0 5.333-2.536 5.333-6.018zM101.25 6.149v29.278h-4.279V6.149h4.279zm16.672 23.189l3.405 2.27c-1.099 1.626-3.748 4.428-8.324 4.428-5.675 0-9.914-4.387-9.914-9.991 0-5.941 4.275-9.99 9.423-9.99 5.185 0 7.721 4.126 8.549 6.356l.455 1.135-13.355 5.531c1.022 2.005 2.612 3.027 4.842 3.027s3.784-1.099 4.919-2.766zm-10.482-3.594l8.928-3.707c-.491-1.248-1.969-2.117-3.707-2.117-2.23 0-5.333 1.968-5.221 5.824zM15.798 23.45v-4.238h14.283c.14.739.212 1.613.212 2.558 0 3.18-.869 7.112-3.671 9.914-2.725 2.838-6.207 4.351-10.819 4.351-8.549 0-15.738-6.964-15.738-15.513S7.253 5.01 15.803 5.01c4.73 0 8.099 1.856 10.63 4.275l-2.991 2.991a10.8 10.8 0 0 0-7.644-3.027c-6.243 0-11.126 5.031-11.126 11.274s4.883 11.274 11.126 11.274c4.049 0 6.356-1.626 7.833-3.104 1.198-1.198 1.986-2.91 2.297-5.247l-10.13.004z"/></svg>