<svg xmlns="http://www.w3.org/2000/svg" width="182" height="48" fill="#181d27" xmlns:v="https://vecta.io/nano"><path d="M58.149 32.717c-2.627 0-4.168-2.053-4.168-4.379 0-2.688 1.752-4.469 4.168-4.469 1.268 0 2.114.513 2.899.997l1.268-2.265c-.906-.574-2.416-1.268-4.017-1.268-4.167 0-7.157 2.96-7.157 7.006 0 4.016 3.05 7.006 7.157 7.006 1.752 0 3.02-.725 4.017-1.329l-1.268-2.265c-.785.543-1.963.966-2.899.966zm8.909-17.576h2.688v19.841h-2.688V15.141zm18.18 6.614l-.302 1.148c-.725-.785-2.265-1.57-3.896-1.57-3.322 0-6.372 2.627-6.372 6.916 0 4.439 3.05 7.127 6.372 7.127a5.79 5.79 0 0 0 3.896-1.57l.302 1.208h2.265V21.845h-2.265v-.091zm-.242 6.674c0 3.02-1.842 4.379-3.594 4.379-1.782 0-3.835-1.208-3.835-4.53 0-2.114 1.117-4.379 3.624-4.379 1.903 0 3.805 1.54 3.805 4.379v.151zm12.11 1.057c1.842.483 2.627.846 2.627 1.782 0 .725-.634 1.48-2.114 1.48-1.359 0-2.476-.483-3.533-1.057l-1.208 2.265c.936.574 3.02 1.359 4.741 1.359 2.96 0 4.681-1.993 4.681-4.017 0-3.473-3.412-4.017-4.318-4.318-1.903-.513-2.386-.906-2.386-1.691 0-.846.725-1.419 2.114-1.419 1.208 0 2.114.362 2.96.785l1.268-2.265c-1.208-.513-2.627-1.057-4.228-1.057-2.899 0-4.651 2.054-4.651 3.956 0 3.05 2.567 3.835 4.047 4.198zm14.405 0c1.842.483 2.627.846 2.627 1.782 0 .725-.634 1.48-2.114 1.48-1.359 0-2.476-.483-3.533-1.057l-1.208 2.265c.936.574 3.02 1.359 4.741 1.359 2.96 0 4.681-1.993 4.681-4.017 0-3.473-3.412-4.017-4.318-4.318-1.903-.513-2.386-.906-2.386-1.691 0-.846.725-1.419 2.114-1.419 1.208 0 2.114.362 2.96.785l1.268-2.265c-1.208-.513-2.627-1.057-4.228-1.057-2.899 0-4.651 2.054-4.651 3.956-.03 3.05 2.567 3.835 4.047 4.198zm16.851-8.154a5.79 5.79 0 0 0-3.895 1.57l-.302-1.208H121.9v18.754h2.536v-6.523l.091-.06c.725.785 2.205 1.419 3.624 1.419 3.412 0 6.583-2.205 6.583-7.127.061-4.409-2.989-6.825-6.372-6.825zm-.302 11.476c-1.751 0-3.593-1.359-3.593-4.379v-.151c0-2.899 1.902-4.379 3.805-4.379 2.536 0 3.624 2.265 3.624 4.379 0 3.322-2.054 4.53-3.836 4.53zm21.714-11.053l-.302 1.208c-.725-.785-2.265-1.57-3.896-1.57-3.322 0-6.372 2.627-6.372 6.916 0 4.439 3.05 7.127 6.372 7.127 1.631 0 3.11-.785 3.896-1.57l.302 1.208h2.265V21.905h-2.265v-.151zm-.272 6.674c0 3.02-1.842 4.379-3.594 4.379-1.782 0-3.835-1.208-3.835-4.53 0-2.114 1.117-4.379 3.624-4.379 1.902 0 3.805 1.54 3.805 4.379v.151zm12.14 1.057c1.842.483 2.627.846 2.627 1.782 0 .725-.634 1.48-2.114 1.48-1.359 0-2.476-.483-3.533-1.057l-1.208 2.265c.936.574 3.02 1.359 4.741 1.359 2.96 0 4.681-1.993 4.681-4.017 0-3.473-3.412-4.017-4.318-4.318-1.903-.513-2.386-.906-2.386-1.691 0-.846.725-1.419 2.114-1.419 1.208 0 2.114.362 2.96.785l1.268-2.265c-1.208-.513-2.627-1.057-4.228-1.057-2.899 0-4.651 2.054-4.651 3.956-.03 3.05 2.567 3.835 4.047 4.198zm14.375 0c1.842.483 2.627.846 2.627 1.782 0 .725-.634 1.48-2.114 1.48-1.359 0-2.476-.483-3.533-1.057l-1.208 2.265c.936.574 3.02 1.359 4.741 1.359 2.96 0 4.681-1.993 4.681-4.017 0-3.473-3.412-4.017-4.318-4.318-1.903-.513-2.386-.906-2.386-1.691 0-.846.725-1.419 2.114-1.419 1.208 0 2.114.362 2.959.785l1.269-2.265c-1.208-.513-2.628-1.057-4.228-1.057-2.899 0-4.651 2.054-4.651 3.956 0 3.05 2.597 3.835 4.047 4.198zM28.097 10.943h-4.862c-.845 0-1.691.634-1.782 1.48l-.725 3.473c-.091.634-.634 1.057-1.268 1.057h-5.375C6.807 17.044.072 22.54.072 30.331c0 6.946 5.798 13.288 14.133 13.288h5.496c.846 0 1.691-.634 1.782-1.48l.725-3.473c.091-.634.634-1.057 1.268-1.057h4.741c8.124 0 14.133-6.221 14.133-13.288-.121-7.791-6.765-13.378-14.254-13.378zm-.121 21.502h-5.708c-.846 0-1.57.634-1.782 1.48l-.725 3.382c-.091.634-.634 1.057-1.268 1.057h-4.228c-4.318 0-8.969-3.05-8.969-8.124 0-4.651 4.107-8.124 8.969-8.124h6.523c.846 0 1.57-.634 1.782-1.48l.725-3.382c.091-.634.634-1.057 1.268-1.057h3.382c4.53 0 8.969 3.171 8.969 8.124-.06 4.53-3.956 8.124-8.939 8.124z"/></svg>