<svg xmlns="http://www.w3.org/2000/svg" width="167" height="48" fill="#181d27" xmlns:v="https://vecta.io/nano"><path d="M72.223 31.528c-.3-.909-.449-2.057-.449-3.601s.149-2.694.449-3.601c.839-2.603 3.056-4.025 5.962-4.025 2.158 0 3.867.878 5.005 2.27.089.12.12.302-.031.422l-1.888 1.665c-.15.122-.299.092-.419-.059-.719-.817-1.468-1.272-2.668-1.272-1.287 0-2.277.636-2.695 1.907-.24.728-.299 1.574-.299 2.694s.058 1.997.299 2.724c.419 1.239 1.408 1.875 2.695 1.875 1.2 0 1.95-.454 2.668-1.269.12-.153.27-.153.419-.032l1.888 1.665c.151.121.12.272.031.424-1.138 1.363-2.847 2.239-5.005 2.239-2.906-.001-5.122-1.424-5.962-4.026zm75.671 3.692c-.18 0-.299-.12-.299-.303v-8.412c0-1.877-.93-3.179-2.729-3.179-1.737 0-2.756 1.301-2.756 3.179v8.412c0 .183-.121.303-.299.303h-2.758c-.18 0-.3-.12-.3-.303v-8.412c0-1.877-.929-3.179-2.725-3.179-1.738 0-2.758 1.301-2.758 3.179v8.412c0 .183-.12.303-.3.303h-2.757c-.181 0-.299-.12-.299-.303V20.936c0-.182.118-.303.299-.303h2.757c.18 0 .3.121.3.303v1.059h.03c.63-.908 1.888-1.695 3.805-1.695 1.709 0 3.087.695 3.955 1.936h.031c1.108-1.209 2.547-1.936 4.615-1.936 3.355 0 5.244 2.3 5.244 5.417v9.199c0 .183-.121.304-.301.304h-2.755zm7.22 5.446c-.179 0-.299-.121-.299-.304v-2.42c0-.181.12-.304.299-.304h.54c1.138 0 1.709-.512 2.158-1.724l.42-1.241-5.275-13.739c-.06-.182.06-.303.241-.303h2.966c.18 0 .3.121.358.303l3.268 9.533h.059l3.117-9.533c.06-.182.18-.303.358-.303h2.846c.182 0 .302.121.241.303l-5.513 15.192c-1.258 3.45-2.458 4.539-4.854 4.539l-.93.001zM91.218 20.301c-2.368 0-3.955.575-5.124 1.422-.118.092-.149.242-.058.393l1.106 1.998c.093.152.27.182.421.061.689-.544 1.677-.999 3.296-.999 2.361 0 3.162.716 3.203 2.291l.001.019.001.113v4.721c0 1.664-1.138 2.48-3.205 2.48-1.619 0-2.487-.604-2.487-1.813 0-1.363.96-1.969 3.116-1.969l.656.001c.18 0 .3-.121.3-.302v-1.94c0-.181-.121-.302-.3-.302h-1.195c-3.565 0-5.785 1.455-5.785 4.63 0 3.057 2.219 4.448 4.855 4.448 2.036 0 3.385-.695 4.075-1.694h.029v1.059c0 .182.121.303.3.303h2.516c.18 0 .3-.121.3-.303v-9.533c.001-3.571-1.617-5.085-6.022-5.085zm28.522 6.172c-.077 0-.13.052-.13.13v2.282c0 .078.053.131.13.131h7.421c.21 0 .33-.12.33-.3 0-2.362-.151-3.362-.479-4.39-.81-2.481-2.967-4.024-5.933-4.024-2.877 0-5.094 1.482-5.904 4.024-.299.938-.479 2.088-.479 3.601s.21 2.632.511 3.571c.808 2.541 2.965 4.054 6.021 4.054 2.666 0 4.705-1.029 5.933-2.482.119-.151.119-.302-.031-.424l-1.766-1.573c-.15-.121-.3-.089-.45.061-.718.788-1.767 1.392-3.386 1.392s-2.755-.786-3.236-2.208a3.6 3.6 0 0 1-.169-.635c-.109-.616-.174-1.216-.174-2.096a12.63 12.63 0 0 1 .188-2.034c.003-.009.004-.018.005-.026.033-.178.072-.327.12-.475.389-1.18 1.468-1.876 2.848-1.876 1.349 0 2.425.696 2.815 1.876.12.365.18.726.18 1.242 0 .121-.06.18-.18.18h-3.937l-.248-.001zm-7.689-11.83h-2.757c-.18 0-.301.121-.301.301v13.808h-.014c-.033.835-.124 1.384-.284 1.899-.39 1.21-1.321 1.876-2.697 1.876-1.347 0-2.276-.666-2.667-1.876-.209-.667-.3-1.392-.3-2.724s.09-2.059.3-2.722c.383-1.186 1.282-1.85 2.586-1.877h1.177c.18 0 .3-.121.3-.301v-2.425c0-.181-.12-.302-.3-.302h-1.923-.041-.039-.041c-2.415.025-4.183 1.204-4.924 3.509-.36 1.121-.509 2.151-.509 4.116s.149 2.997.509 4.115c.749 2.33 2.548 3.511 5.004 3.511 1.948 0 3.147-.724 3.835-1.725h.03v1.089c0 .183.12.303.301.303h2.756c.18 0 .301-.12.301-.303V14.944c-.002-.18-.123-.301-.302-.301zM71.998 39.346v2.757c0 .181.12.302.3.302h10.218c.183 0 .303-.121.303-.302v-2.757c0-.179-.121-.3-.303-.3H72.298c-.18 0-.3.121-.3.3zM6.749 31.529c-.3-.909-.449-2.057-.449-3.601s.149-2.694.449-3.602c.838-2.603 3.057-4.025 5.962-4.025 2.158 0 3.866.878 5.006 2.27.088.12.118.302-.03.422L15.8 24.659c-.15.122-.3.092-.42-.059-.72-.817-1.469-1.272-2.668-1.272-1.288 0-2.276.636-2.697 1.907-.238.728-.299 1.574-.299 2.694s.061 1.997.299 2.724c.42 1.24 1.409 1.875 2.697 1.875 1.199 0 1.948-.454 2.668-1.269.121-.153.27-.153.42-.032l1.887 1.665c.148.121.118.272.03.424-1.139 1.363-2.848 2.239-5.006 2.239-2.906-.001-5.124-1.424-5.962-4.026zm13.727 0c-.33-1.031-.479-1.998-.479-3.602s.15-2.57.479-3.597c.809-2.542 3.024-4.026 5.96-4.026 2.905 0 5.122 1.483 5.931 4.026.328 1.027.479 1.996.479 3.597s-.151 2.571-.479 3.602c-.81 2.54-3.026 4.023-5.931 4.023-2.936.001-5.151-1.482-5.96-4.023zm8.656-.908c.24-.755.3-1.453.3-2.694s-.059-1.905-.3-2.69c-.419-1.209-1.348-1.907-2.695-1.907s-2.307.698-2.725 1.907c-.239.786-.299 1.452-.299 2.69s.061 1.938.299 2.694c.418 1.211 1.379 1.905 2.725 1.905s2.277-.694 2.695-1.905zm26.287-4.148c-.078 0-.13.052-.13.13v2.282c0 .078.051.131.13.131h7.42c.21 0 .33-.12.33-.3 0-2.362-.151-3.362-.48-4.39-.81-2.481-2.967-4.024-5.934-4.024-2.876 0-5.093 1.482-5.903 4.024-.298.938-.48 2.088-.48 3.602s.21 2.632.511 3.571c.809 2.541 2.965 4.054 6.021 4.054 2.666 0 4.705-1.029 5.932-2.481.119-.15.119-.302-.03-.424l-1.766-1.573c-.151-.121-.3-.089-.451.061-.718.788-1.767 1.392-3.385 1.392s-2.756-.786-3.236-2.208a3.56 3.56 0 0 1-.17-.635c-.109-.616-.174-1.216-.174-2.096.023-.83.071-1.36.189-2.034.001-.009.003-.017.005-.026a3.48 3.48 0 0 1 .119-.475c.39-1.18 1.468-1.876 2.848-1.876 1.349 0 2.425.696 2.815 1.876.121.365.18.726.18 1.242 0 .121-.059.18-.18.18h-3.937l-.246-.001zm-7.828-11.83h-2.752c-.181 0-.301.121-.301.3v12.918.047.047.776h-.015c-.032.834-.122 1.383-.283 1.896-.389 1.207-1.318 1.872-2.693 1.872-1.346 0-2.273-.664-2.664-1.872-.209-.666-.297-1.39-.297-2.719s.089-2.055.297-2.718c.383-1.185 1.28-1.854 2.582-1.88h1.175a.12.12 0 0 0 .094-.124l.015-2.763a.12.12 0 0 0-.11-.126l-.938-.004h-1.102c-2.412.026-4.178 1.202-4.917 3.504-.359 1.119-.509 2.148-.509 4.111s.149 2.991.509 4.108c.748 2.328 2.543 3.506 4.996 3.506 1.946 0 3.143-.724 3.829-1.723h.029v1.088c0 .182.12.303.301.303h2.752c.18 0 .3-.12.3-.303V14.944a.28.28 0 0 0-.299-.3zm21.813-7.14l-.013-.015a.3.3 0 0 0-.216-.082H.301a.34.34 0 0 0-.065.006l-.058.016C.065 7.474 0 7.574 0 7.706v34.396a.29.29 0 0 0 .11.24c.005.005.01.01.017.013a.32.32 0 0 0 .174.047h68.873c.102 0 .184-.039.236-.106.041-.05.065-.116.065-.195V7.706c0-.082-.026-.152-.071-.203zM3.655 39.045c-.022 0-.043-.002-.061-.005l-.059-.017c-.112-.046-.177-.145-.177-.276V11.063a.28.28 0 0 1 .172-.275c.019-.008.058-.018.065-.019a.42.42 0 0 1 .062-.005h62.162a.4.4 0 0 1 .062.005l.058.017c.113.047.178.146.178.278v27.685c-.001.131-.066.23-.171.274a.26.26 0 0 1-.047.014.31.31 0 0 1-.079.011H3.655v-.001z"/></svg>