<svg xmlns="http://www.w3.org/2000/svg" width="135" height="48" fill="#181d27" xmlns:v="https://vecta.io/nano"><path d="M.467 11.411h9.667c6.17 0 10.078 4.936 10.078 11.723 0 3.702-1.234 6.993-3.702 9.05-1.645 1.44-3.908 2.262-6.787 2.262H.467V11.411zm8.947 19.025c4.422 0 6.067-2.674 6.067-7.199s-1.954-7.713-5.965-7.713H5.094v15.014h4.319v-.103zm11.518-4.216c0-4.936 3.497-8.741 8.638-8.741s8.638 3.805 8.638 8.741-3.496 8.741-8.638 8.741-8.638-3.908-8.638-8.741zm12.752 0c0-3.188-1.543-5.45-4.216-5.45s-4.216 2.16-4.216 5.45 1.44 5.348 4.216 5.348 4.216-2.16 4.216-5.347zm5.347 0c0-4.936 3.188-8.741 8.227-8.741 4.319 0 6.89 2.468 7.507 6.067h-4.319c-.309-1.44-1.44-2.571-2.982-2.571-2.674 0-4.011 2.057-4.011 5.245 0 3.085 1.234 5.245 3.908 5.245 1.748 0 2.982-.925 3.291-2.777h4.319c-.309 3.496-2.982 6.273-7.404 6.273-5.245-.103-8.535-3.908-8.535-8.741zm27.458 8.227v-1.954h-.103c-1.131 1.543-2.365 2.365-4.73 2.365-3.702 0-5.759-2.365-5.759-5.965V17.89h4.319v10.284c0 1.954.823 2.982 2.777 2.982 2.057 0 3.291-1.543 3.291-3.702V17.89h4.422v16.454h-4.216v.103zm25.504-22.933h4.422v4.114h-4.422v-4.113zm0 6.376h4.422v16.454h-4.422V17.89zm6.17 16.968h4.319c.308 1.028 1.337 1.851 3.291 1.851 2.468 0 3.702-1.234 3.702-3.394v-1.851h-.103c-.925 1.131-2.262 1.954-4.319 1.954-3.702 0-7.302-2.879-7.302-7.918 0-4.936 2.983-8.021 7.096-8.021 2.057 0 3.6.823 4.525 2.16h.103V17.89h4.216v15.22c0 2.365-.72 3.908-1.954 5.039-1.337 1.337-3.496 1.851-5.964 1.851-4.319 0-7.096-1.851-7.61-5.142zm11.62-9.461c0-2.365-1.337-4.422-3.907-4.422-2.263 0-3.703 1.748-3.703 4.525s1.44 4.422 3.703 4.422c2.776 0 3.907-2.057 3.907-4.525zm10.181-5.245c1.234-1.748 2.777-2.674 4.936-2.674 3.394 0 5.656 2.571 5.656 6.17v10.798h-4.422V24.369c0-1.748-1.028-2.982-2.879-2.982-1.954 0-3.394 1.543-3.394 3.805v9.358h-4.216V18.096h4.319v2.057zm-37.947.411c-3.394-.72-4.936-1.337-4.936-3.188 0-1.645 1.645-2.674 4.113-2.674 2.262 0 4.011 1.028 4.422 3.188h4.525c-.514-4.422-3.805-6.89-8.947-6.89s-8.844 2.365-8.844 6.89c0 4.833 3.805 5.862 7.918 6.787 3.496.823 5.656 1.234 5.656 3.497 0 2.16-2.057 2.982-4.422 2.982-3.291 0-4.833-1.131-5.142-3.908h-4.525c.206 4.833 3.702 7.61 9.975 7.61 5.142 0 8.947-2.571 8.947-7.301-.103-4.833-4.011-5.965-8.741-6.993zm50.39.411c-.925 0-1.748-.823-1.748-1.748s.823-1.748 1.748-1.748 1.749.823 1.749 1.748-.823 1.748-1.749 1.748zm0-3.188c-.822 0-1.439.617-1.439 1.44s.617 1.44 1.439 1.44 1.44-.617 1.44-1.44-.617-1.44-1.44-1.44z"/><path d="M131.791 18.302h.617c.206 0 .411 0 .514.103s.206.206.206.411c0 .309-.206.411-.309.514l.412.72h-.412l-.308-.617h-.411v.617h-.309v-1.748zm.309.308v.514h.308c.103 0 .309 0 .309-.309 0 0 0-.206-.103-.206h-.514z"/></svg>