<svg xmlns="http://www.w3.org/2000/svg" width="168" height="48" fill="#181d27" xmlns:v="https://vecta.io/nano"><path d="M61.431 16.065h-3.839v18.328h3.839v-7.43h8.421v7.43h3.715V16.065h-3.715v7.43h-8.421v-7.43zm29.473 10.526c0 2.972-1.486 4.582-4.21 4.582s-4.21-1.61-4.21-4.706V16.065h-3.715v10.526c0 5.201 2.848 8.173 7.926 8.173s7.926-2.972 7.926-8.297V16.065h-3.715v10.526zm35.912-10.526l-4.21 12.631-4.087-12.631h-3.963l6.44 18.328h3.096l4.21-12.012 4.087 12.012h3.22l6.315-18.328h-3.839l-4.086 12.631-4.211-12.631h-2.972zm28.606 7.059h-6.811v-3.715h9.907v-3.344h-13.622v18.328h13.994V31.05h-10.279v-4.582h6.811v-3.344zm7.926-7.059h3.715v18.328h-3.715V16.065zm-53.002 14.489l1.61 3.839h3.963l-8.05-18.328-.123-.124h-3.22l-8.049 18.451h3.838l1.61-3.591.124-.248h8.297zm-4.21-9.907l2.6 6.192.124.372h-5.696l.123-.372 2.849-6.192zM20.937 32.536s.124-.124 0-.124C15.241 20.028 7.439 10.493 7.439 10.493s-4.21 3.963-3.963 8.049c.124 3.096 2.477 4.83 2.477 4.83 3.715 3.591 12.631 8.173 14.736 9.164h.248zm-1.486 3.096c0-.124-.248-.124-.248-.124l-14.86.495c1.61 2.848 4.334 5.077 7.182 4.458 1.981-.495 6.439-3.591 7.802-4.582.248-.248.124-.248.124-.248zm.248-1.362c.124-.124 0-.248 0-.248C13.136 29.564.504 22.877.504 22.877c-1.115 3.591.372 6.439.372 6.439 1.61 3.467 4.706 4.458 4.706 4.458 1.362.619 2.848.619 2.848.619h11.145c.124 0 .124-.124.124-.124zm.991-30.216c-.619 0-2.353.495-2.353.495-3.963.991-4.83 4.582-4.83 4.582-.743 2.229 0 4.706 0 4.706 1.362 5.82 7.802 15.48 9.164 17.461l.124.124c.124 0 .124-.124.124-.124C25.148 9.626 20.69 4.054 20.69 4.054zm4.953 27.244c.124 0 .248-.124.248-.124 1.486-2.105 7.802-11.64 9.164-17.461 0 0 .743-2.848 0-4.706 0 0-.991-3.591-4.953-4.582l-2.353-.495s-4.458 5.696-2.229 27.12c0 .248.124.248.124.248zm3.467 4.21s-.124 0-.124.124v.248c1.486.991 5.697 4.087 7.802 4.582 0 0 3.839 1.362 7.182-4.458l-14.86-.495zm18.947-12.755s-12.631 6.811-19.194 11.269c0 0-.124.124-.124.248 0 0 0 .124.124.124h11.393s1.114 0 2.6-.619c0 0 3.096-.991 4.83-4.582 0-.124 1.486-2.972.372-6.439zm-20.433 9.783s.124.124.248 0c2.105-1.114 11.021-5.573 14.737-9.164 0 0 2.353-1.858 2.477-4.83.248-4.21-3.963-8.049-3.963-8.049s-7.802 9.288-13.498 21.795c0 0-.124.124 0 .248z"/></svg>