<svg xmlns="http://www.w3.org/2000/svg" width="148" height="48" fill="#181d27" xmlns:v="https://vecta.io/nano"><path d="M22.147 1.93C9.958 1.93.076 11.811.076 24s9.882 22.07 22.07 22.07S44.217 36.189 44.217 24 34.337 1.931 22.146 1.931V1.93zm10.121 31.832c-.094.154-.218.288-.364.395a1.36 1.36 0 0 1-.488.225 1.37 1.37 0 0 1-.537.021c-.179-.029-.35-.091-.504-.186-5.182-3.165-11.705-3.882-19.388-2.127-.356.081-.729.017-1.038-.177s-.528-.503-.609-.859c-.04-.176-.046-.358-.016-.537a1.37 1.37 0 0 1 .191-.502 1.36 1.36 0 0 1 .369-.39 1.39 1.39 0 0 1 .49-.219c8.407-1.921 15.619-1.094 21.436 2.462.648.398.854 1.244.456 1.892zm2.701-6.01a1.72 1.72 0 0 1-2.367.567c-5.933-3.646-14.976-4.703-21.993-2.572-.91.275-1.871-.238-2.147-1.146a1.72 1.72 0 0 1 .13-1.31c.215-.402.581-.703 1.017-.836 8.015-2.432 17.98-1.254 24.793 2.933a1.72 1.72 0 0 1 .567 2.365zm.232-6.258c-7.113-4.225-18.849-4.613-25.64-2.552-1.091.331-2.244-.285-2.574-1.376-.159-.524-.103-1.089.155-1.572s.697-.844 1.221-1.003c7.796-2.367 20.756-1.909 28.946 2.952a2.06 2.06 0 0 1 .6.538c.163.217.281.464.348.727a2.06 2.06 0 0 1 .043.805c-.039.269-.13.527-.269.759-.58.981-1.85 1.304-2.828.722h-.001zm24.922.81c-3.811-.909-4.488-1.546-4.488-2.887 0-1.266 1.191-2.118 2.965-2.118 1.718 0 3.421.647 5.208 1.979a.25.25 0 0 0 .187.046c.033-.005.065-.016.093-.034s.053-.041.073-.068l1.861-2.623a.25.25 0 0 0-.047-.34c-2.127-1.706-4.52-2.535-7.319-2.535-4.114 0-6.989 2.469-6.989 6.002 0 3.789 2.48 5.13 6.765 6.166 3.645.84 4.262 1.544 4.262 2.801 0 1.394-1.244 2.261-3.247 2.261-2.224 0-4.04-.751-6.07-2.506-.051-.043-.116-.064-.182-.061s-.129.037-.171.087l-2.087 2.483a.25.25 0 0 0 .024.348c2.361 2.108 5.266 3.221 8.402 3.221 4.433 0 7.298-2.422 7.298-6.172.008-3.164-1.887-4.917-6.528-6.046l-.008-.003zm16.567-3.758c-1.921 0-3.497.757-4.799 2.308v-1.746a.25.25 0 0 0-.248-.25H68.23a.25.25 0 0 0-.248.25v19.398a.25.25 0 0 0 .248.25h3.413a.25.25 0 0 0 .248-.25v-6.122c1.302 1.457 2.878 2.172 4.799 2.172 3.571 0 7.187-2.749 7.187-8.004s-3.611-8.006-7.184-8.006h-.003zm3.218 8.005c0 2.675-1.647 4.543-4.009 4.543-2.332 0-4.093-1.953-4.093-4.543s1.76-4.543 4.093-4.543c2.322 0 4.009 1.91 4.009 4.543zm13.233-8.005c-4.599 0-8.202 3.541-8.202 8.063 0 4.473 3.579 7.976 8.146 7.976 4.615 0 8.228-3.529 8.228-8.033 0-4.488-3.59-8.005-8.173-8.005zm0 12.575c-2.446 0-4.291-1.966-4.291-4.571 0-2.617 1.782-4.516 4.235-4.516 2.462 0 4.317 1.965 4.317 4.573 0 2.616-1.792 4.514-4.262 4.514zm17.993-12.263h-3.756v-3.839c0-.033-.006-.065-.018-.095a.26.26 0 0 0-.054-.081c-.023-.023-.05-.042-.081-.054a.26.26 0 0 0-.095-.019h-3.413a.25.25 0 0 0-.25.25v3.839h-1.639a.25.25 0 0 0-.248.25v2.933a.25.25 0 0 0 .248.25h1.639v7.589c0 3.065 1.526 4.62 4.538 4.62 1.223 0 2.238-.253 3.195-.796.079-.042.126-.127.126-.216v-2.794a.25.25 0 0 0-.119-.211.24.24 0 0 0-.119-.038c-.042-.002-.085.008-.123.027a4.31 4.31 0 0 1-2.003.482c-1.094 0-1.584-.498-1.584-1.61v-7.053h3.756c.137 0 .247-.112.247-.25V19.11a.24.24 0 0 0-.016-.096c-.012-.03-.03-.058-.053-.082s-.05-.042-.08-.054a.24.24 0 0 0-.096-.018l-.002-.002zm13.082.015v-.471c0-1.387.533-2.006 1.724-2.006.711 0 1.283.141 1.924.355.079.025.161.012.224-.035a.25.25 0 0 0 .103-.203v-2.875a.25.25 0 0 0-.049-.149c-.031-.043-.077-.075-.128-.09-.675-.201-1.539-.407-2.836-.407-3.149 0-4.818 1.775-4.818 5.131v.722h-1.639a.25.25 0 0 0-.25.25v2.947a.25.25 0 0 0 .25.25h1.639v11.703a.25.25 0 0 0 .251.25h3.41a.25.25 0 0 0 .251-.25V22.291h3.186l4.881 11.702c-.554 1.228-1.099 1.473-1.842 1.473-.601 0-1.236-.179-1.882-.535-.061-.031-.132-.037-.198-.018s-.121.071-.147.134l-1.157 2.538c-.056.121-.008.261.108.324 1.207.654 2.295.933 3.642.933 2.519 0 3.914-1.175 5.139-4.333l5.919-15.296c.016-.038.021-.079.017-.119s-.019-.079-.043-.113a.25.25 0 0 0-.088-.08c-.036-.019-.075-.029-.115-.029h-3.552a.25.25 0 0 0-.238.168l-3.639 10.393-3.985-10.4c-.018-.047-.05-.088-.091-.116a.25.25 0 0 0-.141-.044l-5.83-.001zm-7.585-.015h-3.413a.25.25 0 0 0-.25.25v14.886a.25.25 0 0 0 .25.25h3.413a.25.25 0 0 0 .251-.25V19.109a.26.26 0 0 0-.019-.096c-.012-.03-.031-.058-.055-.081s-.05-.042-.081-.054a.25.25 0 0 0-.096-.019v-.001zm-1.686-6.778a2.45 2.45 0 0 0-1.732 4.177 2.46 2.46 0 0 0 .795.531c.297.123.615.186.937.186 1.352 0 2.445-1.096 2.445-2.448s-1.096-2.446-2.445-2.446zm29.891 11.564c-1.349 0-2.401-1.084-2.401-2.401s1.065-2.414 2.414-2.414a2.39 2.39 0 0 1 2.401 2.4c0 1.317-1.064 2.415-2.414 2.415zm.013-4.576c-1.23 0-2.161.978-2.161 2.175s.925 2.161 2.148 2.161c1.231 0 2.161-.977 2.161-2.175s-.925-2.161-2.148-2.161zm.533 2.408l.68.951h-.575l-.611-.872h-.525v.872h-.479v-2.521h1.122c.588 0 .973.3.973.804.003.413-.237.666-.583.766h-.002zm-.406-1.137h-.625v.797h.625c.311 0 .498-.153.498-.399 0-.259-.187-.398-.498-.398z"/></svg>