<svg xmlns="http://www.w3.org/2000/svg" width="175" height="48" fill="#181d27" fill-rule="evenodd" xmlns:v="https://vecta.io/nano"><path d="M79.929 30.057c-1.221.282-1.852-.094-1.852-.902 0-1.108 1.145-1.551 2.781-1.551l1.398.062c0 .474-1.03 2.092-2.328 2.391zm1.242-11.089c-3.907 0-6.712 1.437-6.712 1.437v4.223s3.097-1.78 5.609-1.78c2.004 0 2.251 1.081 2.16 1.979 0 0-.579-.153-2.343-.153-4.158 0-6.257 1.89-6.257 4.92 0 2.874 2.358 4.075 4.346 4.075 2.899 0 4.175-1.949 4.566-2.873.272-.641.322-1.074.566-1.074.279 0 .185.31.171.948-.023 1.118.03 1.963.207 2.675h3.845v-6.916c0-4.318-1.528-7.461-6.159-7.461zm25.307 7.357c0-1.263 1.174-2.414 3.33-2.414 2.348 0 4.238 1.131 4.662 1.388V20.41s-1.493-1.437-5.161-1.437c-3.867 0-7.088 2.263-7.088 7.134s2.923 7.571 7.077 7.571c3.246 0 5.18-1.783 5.18-1.783v-4.643c-.612.342-2.317 1.526-4.646 1.526-2.467 0-3.354-1.135-3.354-2.452h0zm-51.392-7.032c0 .003.245 1.054-.077 2.428-.165.699-.467 1.293-.102 1.293.252 0 .252-.209.58-.958.479-1.095 1.488-3.087 3.847-3.087 2.242 0 3.299 1.363 3.649 2.638.266.969.033 1.406.358 1.406.231 0 .311-.503.595-1.139.51-1.14 1.62-2.906 3.864-2.906 3.387 0 4.68 2.446 4.68 6.114v8.266h-5.031v-7.621c0-1.271-.205-2.503-1.364-2.503-1.073 0-1.573 1.902-1.573 3.13v6.997h-5.123V25.73c0-1.626-.229-2.503-1.372-2.503-.989 0-1.566 1.75-1.566 3.13v6.994h-5.103V19.293h3.739zm33.918.019c.002.001.871.502 2.556.502s2.546-.502 2.546-.502v14.041h-5.103V19.312zm42.127 0c.002.001.871.502 2.557.502s2.546-.502 2.546-.502v14.041h-5.103V19.312zm-30.27-4.275v18.316h-5.103V15.038h5.103zm19.673 0c.001.002.212.528.212 2.094 0 2.312-.503 4.194-.741 4.91-.125.38-.35.966-.028.976.186.006.298-.274.526-.76s1.35-3.285 4.304-3.285c4.068 0 4.667 3.332 4.667 6.94v7.441h-5.103v-7.746c0-1.589-.333-2.378-1.398-2.378-1.286 0-1.74 1.991-1.74 3.13v6.994h-5.103V15.037h4.405l-.001.001zm21.163 4.256c.001.003.246 1.054-.077 2.428-.164.699-.467 1.293-.102 1.293.252 0 .253-.209.58-.958.478-1.095 1.488-3.087 3.847-3.087 2.345 0 3.275 1.369 3.649 2.638.251.851.033 1.406.358 1.406.231 0 .311-.503.595-1.139.509-1.14 1.62-2.906 3.864-2.906 3.387 0 4.68 2.446 4.68 6.114v8.266h-5.031v-7.621c0-1.271-.205-2.503-1.364-2.503-1.073 0-1.574 1.902-1.574 3.13v6.997h-5.123V25.73c0-1.626-.228-2.503-1.371-2.503-.99 0-1.567 1.75-1.567 3.13v6.994h-5.103V19.293h3.739zM91.54 14.896c-1.724 0-3.123.913-3.123 2.039s1.398 2.039 3.123 2.039 3.124-.913 3.124-2.039-1.398-2.039-3.124-2.039zm42.128 0c-1.725 0-3.124.913-3.124 2.039s1.398 2.039 3.124 2.039 3.124-.913 3.124-2.039-1.399-2.039-3.124-2.039zm34.115 15.429c-1.169 0-2.03-1.484-2.03-3.551 0-2.008.884-3.55 1.99-3.55 1.419 0 2.025 1.302 2.025 3.55 0 2.339-.559 3.551-1.985 3.551zm1.4-11.36c-2.622 0-3.824 1.966-4.347 3.086-.345.74-.326.958-.579.958-.364 0-.062-.594.102-1.293.324-1.376.078-2.427.078-2.427H160.7v17.935h5.101v-5.686c.603 1.024 1.721 2.118 3.445 2.118 3.69 0 5.546-3.121 5.546-7.338 0-4.779-2.222-7.352-5.608-7.352M33.311 23.209a3.8 3.8 0 0 1 .974 0c.175-.401.205-1.092.047-1.844-.233-1.119-.55-1.795-1.204-1.69s-.678.916-.444 2.034c.132.629.365 1.167.626 1.5zm-5.611.885c.467.205.755.341.867.222.073-.074.051-.216-.061-.398-.231-.377-.706-.759-1.209-.973-1.03-.443-2.259-.296-3.206.385-.313.229-.609.547-.567.739.014.062.061.109.17.125.258.029 1.159-.426 2.198-.49.733-.045 1.34.184 1.808.39m-.94.537c-.609.096-.945.297-1.161.484-.184.161-.298.339-.297.464.001.06.026.094.047.111.028.025.061.038.1.038.137 0 .446-.124.446-.124.848-.303 1.407-.266 1.961-.204.306.034.451.053.518-.052.02-.03.044-.096-.017-.195-.143-.231-.758-.622-1.596-.523m4.656 1.972c.414.203.869.123 1.017-.178s-.067-.711-.48-.914-.869-.123-1.017.178.067.711.48.914zm2.658-2.324c-.336-.006-.615.363-.622.824s.258.839.594.844.615-.363.623-.824-.259-.839-.594-.844zm-22.566 8.308c-.083-.105-.221-.073-.354-.042a1.26 1.26 0 0 1-.313.044c-.247-.005-.457-.11-.574-.291-.153-.235-.144-.585.025-.986l.079-.18c.27-.605.72-1.616.214-2.58-.381-.726-1.003-1.178-1.75-1.273a2.25 2.25 0 0 0-1.927.694c-.743.82-.86 1.936-.716 2.33.053.144.135.184.195.193.126.017.313-.075.43-.39l.033-.102c.052-.167.149-.477.309-.725.192-.3.491-.506.842-.582a1.35 1.35 0 0 1 1.029.192c.521.34.721.979.499 1.587-.115.315-.302.917-.261 1.412.084 1.001.699 1.403 1.252 1.446.538.02.914-.282 1.009-.502.056-.131.009-.21-.022-.244"/><path d="M16.622 14.199c1.755-2.027 3.914-3.79 5.849-4.779.067-.034.138.038.102.104-.154.278-.45.874-.543 1.326-.015.071.062.123.122.083 1.204-.82 3.297-1.7 5.134-1.813.079-.005.117.096.054.145-.279.214-.585.511-.808.81-.038.051-.002.124.062.125 1.289.009 3.107.461 4.292 1.125.08.045.023.2-.067.18-1.793-.411-4.727-.723-7.776.021-2.721.664-4.799 1.689-6.314 2.791-.077.056-.169-.045-.107-.117h0zm8.738 19.642v.001l.001.002-.002-.003zm7.235.854a.14.14 0 0 0 .082-.14c-.007-.072-.072-.125-.145-.118 0 0-3.744.554-7.281-.741.385-1.252 1.409-.8 2.958-.675 2.791.167 5.292-.241 7.141-.772 1.602-.459 3.706-1.366 5.34-2.656a10.77 10.77 0 0 1 .746 2.543s.427-.076.783.143c.337.207.584.638.415 1.753-.344 2.082-1.228 3.772-2.716 5.326-.905.974-2.004 1.822-3.262 2.438a13.71 13.71 0 0 1-2.13.899c-5.606 1.831-11.346-.182-13.195-4.505-.148-.325-.273-.665-.371-1.021-.788-2.849-.119-6.267 1.973-8.418v-.001c.129-.137.261-.298.261-.501 0-.17-.108-.349-.201-.476-.732-1.062-3.268-2.871-2.758-6.372.366-2.515 2.565-4.286 4.616-4.181l.52.03c.889.053 1.664.167 2.395.197 1.225.053 2.325-.125 3.63-1.212.44-.367.793-.685 1.39-.785.063-.011.219-.067.531-.052.319.017.621.104.894.286 1.045.696 1.194 2.381 1.248 3.613l.145 2.895c.066 1.117.36 1.275.955 1.471.334.11.644.192 1.102.321 1.384.389 2.204.783 2.722 1.289.309.316.452.653.497.973.163 1.191-.924 2.661-3.803 3.998-3.147 1.461-6.965 1.83-9.603 1.536l-.924-.104c-2.11-.284-3.314 2.442-2.047 4.311.816 1.204 3.039 1.988 5.263 1.988 5.099 0 9.019-2.177 10.477-4.058l.117-.166c.072-.108.013-.168-.077-.107-1.191.815-6.482 4.051-12.142 3.077 0 0-.688-.113-1.315-.357-.499-.194-1.543-.675-1.67-1.746 4.567 1.413 7.443.077 7.443.077v-.001zM7.508 23.84c-1.589.309-2.989 1.209-3.845 2.453-.512-.427-1.465-1.253-1.634-1.575-1.367-2.595 1.491-7.641 3.488-10.491C10.453 7.185 18.182 1.855 21.76 2.822c.582.164 2.508 2.398 2.508 2.398s-3.577 1.984-6.893 4.751c-4.469 3.441-7.844 8.442-9.867 13.87zm2.669 11.909c-.24.041-.486.057-.733.051-2.39-.064-4.972-2.216-5.228-4.767-.284-2.821 1.158-4.991 3.709-5.506a4.32 4.32 0 0 1 1.071-.076c1.43.078 3.536 1.176 4.017 4.291.426 2.758-.251 5.566-2.837 6.007h0zm32.376-4.995c-.02-.073-.154-.56-.337-1.147s-.373-1.001-.373-1.001c.735-1.1.748-2.085.65-2.642-.105-.691-.392-1.279-.972-1.888s-1.766-1.232-3.432-1.7l-.874-.243c-.004-.036-.046-2.061-.084-2.931-.028-.629-.081-1.61-.386-2.576-.363-1.308-.995-2.453-1.784-3.185 2.178-2.257 3.537-4.744 3.533-6.877-.006-4.102-5.044-5.343-11.253-2.772l-1.315.558-2.414-2.365C16.434-4.188-5.698 20.412 1.378 26.387l1.546 1.31c-.401 1.039-.559 2.23-.43 3.51.165 1.644 1.013 3.22 2.388 4.438 1.305 1.156 3.021 1.888 4.686 1.887 2.754 6.346 9.045 10.238 16.422 10.458 7.913.235 14.556-3.478 17.339-10.148.182-.468.955-2.577.955-4.439 0-1.871-1.058-2.647-1.732-2.647"/></svg>