<svg xmlns="http://www.w3.org/2000/svg" width="220" height="48" fill="none" xmlns:v="https://vecta.io/nano"><g fill="#181d27"><path d="M80.499 41H1.337c-.614 0-.967-.624-.556-1.08 1.317-1.462 3.731-3.141 5.437-3.141 2.697 0 3.082 1.919 5.394 1.919 3.853 0 8.09-13.046 14.64-13.046s6.549 7.674 13.869 7.674S50.524 8 60.926 8c9.125 0 18.249 18.942 21.15 31.05.242 1.009-.539 1.95-1.577 1.95zm12.235-6.542h2.949v-6.596c0-2.869 1.502-4.397 3.459-4.397 1.716 0 2.789 1.287 2.789 3.405v7.588h2.949v-8.071c0-3.405-2.011-5.604-5.121-5.604-1.743 0-3.271.751-4.076 2.091v-8.526h-2.949v20.109zm19.084-18.313a1.95 1.95 0 0 0-1.957-1.957c-1.073 0-1.985.885-1.985 1.957a2 2 0 0 0 1.985 1.984c1.099 0 1.957-.885 1.957-1.984zm-3.432 18.313h2.949V21.052h-2.949v13.406zm6.644 0h2.95v-6.596c0-2.815 1.314-4.397 3.217-4.397 1.609 0 2.387 1.367 2.387 3.459v7.534h2.949v-6.596c0-2.815 1.287-4.397 3.191-4.397 1.608 0 2.386 1.367 2.386 3.459v7.534h2.949v-8.017c0-3.432-1.796-5.657-4.826-5.657-1.77 0-3.486.938-4.29 2.654-.724-1.662-2.172-2.654-4.156-2.654-1.716 0-3.056.831-3.807 2.091v-1.823h-2.95v13.406z"/><use href="#B"/><path d="M155.027 34.458h2.949V14.348h-2.949v20.109z"/><use href="#B" x="23.108"/><path d="M182.425 40.062l8.607-19.01h-3.271l-4.103 9.492-4.129-9.492h-3.244l5.765 12.682-2.869 6.328h3.244zm9.114-12.307c0 3.834 2.788 6.971 6.461 6.971 1.931 0 3.54-.992 4.29-2.065v1.797h2.95V21.052h-2.95v1.796c-.75-1.072-2.359-2.064-4.29-2.064-3.673 0-6.461 3.137-6.461 6.971zm10.993 0c0 2.413-1.609 4.29-3.995 4.29s-3.995-1.877-3.995-4.29 1.608-4.29 3.995-4.29 3.995 1.877 3.995 4.29zm16.41 3.003c0-2.038-1.153-3.432-3.566-4.049l-2.253-.59c-1.126-.295-1.796-.751-1.796-1.609s.831-1.367 1.957-1.367c1.046 0 1.931.536 2.199 1.662h2.949c-.214-2.413-2.225-4.022-5.121-4.022-3.003 0-4.987 1.502-4.987 3.754 0 1.957 1.126 3.459 3.432 4.049l2.198.59c1.395.349 1.985.858 1.985 1.77s-.885 1.421-2.172 1.421c-1.314 0-2.521-.536-2.762-1.984h-3.057c.161 2.681 2.601 4.344 5.738 4.344 3.003 0 5.256-1.367 5.256-3.968z"/></g><defs ><path id="B" d="M137.598 27.755c0 3.834 2.789 6.971 6.462 6.971 1.931 0 3.539-.992 4.29-2.065v1.797h2.95V21.052h-2.95v1.796c-.751-1.072-2.359-2.064-4.29-2.064-3.673 0-6.462 3.137-6.462 6.971zm10.993 0c0 2.413-1.608 4.29-3.995 4.29s-3.995-1.877-3.995-4.29 1.609-4.29 3.995-4.29 3.995 1.877 3.995 4.29z"/></defs></svg>