<svg xmlns="http://www.w3.org/2000/svg" width="214" height="48" fill="#181d27" xmlns:v="https://vecta.io/nano"><path d="M62.048 19.047v10.924h2.724a5.2 5.2 0 0 0 3.704-1.631 5.47 5.47 0 0 0 1.493-3.84 5.38 5.38 0 0 0-.351-2.075 5.4 5.4 0 0 0-1.121-1.782 5.12 5.12 0 0 0-1.697-1.184 5.1 5.1 0 0 0-2.028-.413H62.05l-.001.001zm2.724-3.425c5.076 0 8.917 3.933 8.917 8.878s-3.84 8.9-8.917 8.9h-6.007a.45.45 0 0 1-.166-.035.43.43 0 0 1-.14-.096c-.04-.041-.072-.09-.093-.143s-.032-.11-.031-.167V16.082c0-.245.193-.443.431-.443l6.007-.017zm22.001 14.729c2.306.007 4.388-1.411 5.275-3.593a5.95 5.95 0 0 0-1.219-6.371 5.6 5.6 0 0 0-2.905-1.605 5.59 5.59 0 0 0-3.303.324c-2.13.9-3.522 3.029-3.526 5.393 0 3.222 2.539 5.836 5.681 5.851h-.001zm.001-15.132c5.343 0 9.428 4.211 9.428 9.281s-4.085 9.281-9.429 9.281-9.393-4.19-9.393-9.281 4.085-9.28 9.393-9.28h.001zm22.407 15.132c3.143-.008 5.686-2.625 5.683-5.847s-2.553-5.836-5.694-5.838-5.695 2.61-5.699 5.833c0 1.553.601 3.042 1.672 4.139a5.63 5.63 0 0 0 4.036 1.713h.002zm-.002-15.132c5.327 0 9.411 4.19 9.411 9.281s-4.101 9.281-9.411 9.281-9.427-4.19-9.427-9.281 4.084-9.28 9.427-9.28zm21.87 3.828h-3.84v4.701h3.84a2.2 2.2 0 0 0 .89-.144 2.24 2.24 0 0 0 .76-.485c.444-.431.697-1.028.703-1.656a2.38 2.38 0 0 0-.157-.933 2.37 2.37 0 0 0-.51-.797 2.25 2.25 0 0 0-.771-.52c-.29-.117-.602-.173-.915-.162v-.004zm-7.556-2.965a.44.44 0 0 1 .432-.443h7.231c3.447 0 5.941 2.59 5.941 5.843.027 2.2-1.175 4.221-3.093 5.206l3.335 6.046a.45.45 0 0 1 .017.473c-.04.071-.1.13-.173.168a.43.43 0 0 1-.236.048h-2.926a.43.43 0 0 1-.23-.063c-.07-.042-.126-.103-.162-.176l-3.214-5.983h-3.22v5.744c.001.057-.01.114-.031.168s-.053.102-.093.143a.44.44 0 0 1-.307.132h-2.819c-.058-.001-.114-.013-.167-.035a.43.43 0 0 1-.233-.24c-.021-.053-.032-.11-.031-.168l-.019-16.861-.002-.001zm23.288 3.049v10.925h2.722a5.19 5.19 0 0 0 2.017-.437 5.2 5.2 0 0 0 1.689-1.188 5.47 5.47 0 0 0 1.495-3.838 5.36 5.36 0 0 0-.348-2.079 5.37 5.37 0 0 0-1.12-1.785c-.48-.507-1.058-.911-1.7-1.185a5.12 5.12 0 0 0-2.032-.412l-2.723-.001zm2.722-3.429c5.076 0 8.917 3.938 8.917 8.892s-3.841 8.892-8.917 8.892h-5.989a.44.44 0 0 1-.307-.132c-.04-.041-.072-.09-.093-.143s-.031-.11-.03-.168V16.167c0-.246.193-.444.43-.444l5.99-.021h-.001zm20.244 4.345l-2.107 5.842h4.21l-2.103-5.842zm-3.343 9.143l-1.379 3.889c-.027.091-.085.171-.163.226a.43.43 0 0 1-.267.079h-2.992c-.076.007-.153-.007-.222-.039a.43.43 0 0 1-.171-.147c-.044-.064-.07-.139-.077-.216a.46.46 0 0 1 .039-.226l6.464-16.86a.43.43 0 0 1 .167-.218.42.42 0 0 1 .264-.073h3.347a.43.43 0 0 1 .432.292l6.464 16.86a.45.45 0 0 1 .038.226.44.44 0 0 1-.077.216c-.043.063-.102.114-.171.146s-.146.046-.222.039h-2.99a.43.43 0 0 1-.431-.306l-1.379-3.889h-6.674v.001zm15.374-8.764c0-2.792 2.353-5.206 6.068-5.206a7.58 7.58 0 0 1 5.389 2.082.45.45 0 0 1 0 .65l-1.657 1.688a.42.42 0 0 1-.14.096c-.053.022-.109.034-.166.034a.43.43 0 0 1-.166-.034.42.42 0 0 1-.139-.096 4.3 4.3 0 0 0-2.875-1.162c-1.486 0-2.585.885-2.585 1.906 0 3.3 8.782 1.396 8.782 7.746-.004 3.218-2.375 5.653-6.567 5.653a8.66 8.66 0 0 1-3.394-.654 8.7 8.7 0 0 1-2.871-1.927.45.45 0 0 1 0-.65l1.603-1.644c.04-.043.088-.077.142-.101a.43.43 0 0 1 .341 0 .42.42 0 0 1 .142.101 5.46 5.46 0 0 0 3.787 1.583c1.857 0 3.081-1.017 3.081-2.29 0-3.301-8.778-1.396-8.778-7.747l.003-.026zm28.436-4.365v6.672h-7.433V16.06c0-.057-.01-.114-.031-.167a.45.45 0 0 0-.093-.143.43.43 0 0 0-.14-.096.44.44 0 0 0-.167-.035h-2.819c-.058.001-.114.013-.167.035a.42.42 0 0 0-.14.096c-.04.041-.072.089-.093.143s-.032.11-.031.167v16.857a.44.44 0 0 0 .431.443h2.819a.44.44 0 0 0 .431-.443v-6.778h7.428v6.778c0 .244.194.443.43.443h2.82c.237 0 .43-.199.43-.443V16.06c.001-.057-.01-.114-.031-.167s-.053-.102-.093-.143a.43.43 0 0 0-.14-.096c-.053-.023-.109-.035-.166-.035h-2.82c-.115.003-.224.051-.303.134a.44.44 0 0 0-.122.308zM42.508 17.868c-1.956-3.625-5.782-5.882-9.943-5.868H1.082a1.08 1.08 0 0 0-.994.664 1.06 1.06 0 0 0 .233 1.161l6.858 6.806c.606.603 1.431.94 2.289.94h22.194c1.582-.017 2.875 1.236 2.892 2.796s-1.251 2.837-2.833 2.853H16.419c-.213 0-.421.063-.598.18s-.316.285-.399.481a1.06 1.06 0 0 0 .232 1.164l6.863 6.811a3.25 3.25 0 0 0 2.289.939h6.921c9.004 0 15.813-9.5 10.782-18.93"/></svg>