<svg width="212" height="112" viewBox="0 0 212 112" fill="none" xmlns="http://www.w3.org/2000/svg">
<path d="M57.5384 16.6097C57.7092 16.1991 58.291 16.1991 58.4618 16.6097L60.5279 21.5772C60.5999 21.7503 60.7627 21.8686 60.9496 21.8836L66.3124 22.3135C66.7557 22.3491 66.9355 22.9023 66.5977 23.1917L62.5118 26.6917C62.3694 26.8137 62.3072 27.0051 62.3507 27.1874L63.599 32.4206C63.7022 32.8532 63.2316 33.1952 62.852 32.9633L58.2607 30.159C58.1007 30.0613 57.8995 30.0613 57.7394 30.159L53.1481 32.9633C52.7686 33.1952 52.2979 32.8532 52.4011 32.4206L53.6495 27.1874C53.693 27.0051 53.6308 26.8137 53.4884 26.6917L49.4025 23.1917C49.0647 22.9023 49.2445 22.3491 49.6878 22.3135L55.0506 21.8836C55.2375 21.8686 55.4003 21.7503 55.4723 21.5772L57.5384 16.6097Z" fill="#FDB022"/>
<path d="M81.5384 16.6097C81.7092 16.1991 82.291 16.1991 82.4618 16.6097L84.5279 21.5772C84.5999 21.7503 84.7627 21.8686 84.9496 21.8836L90.3124 22.3135C90.7557 22.3491 90.9355 22.9023 90.5977 23.1917L86.5118 26.6917C86.3694 26.8137 86.3072 27.0051 86.3507 27.1874L87.599 32.4206C87.7022 32.8532 87.2316 33.1952 86.852 32.9633L82.2607 30.159C82.1007 30.0613 81.8995 30.0613 81.7395 30.159L77.1482 32.9633C76.7686 33.1952 76.298 32.8532 76.4012 32.4206L77.6495 27.1874C77.693 27.0051 77.6308 26.8137 77.4884 26.6917L73.4025 23.1917C73.0647 22.9023 73.2445 22.3491 73.6878 22.3135L79.0506 21.8836C79.2375 21.8686 79.4003 21.7503 79.4723 21.5772L81.5384 16.6097Z" fill="#FDB022"/>
<path d="M105.538 16.6097C105.709 16.1991 106.291 16.1991 106.462 16.6097L108.528 21.5772C108.6 21.7503 108.763 21.8686 108.95 21.8836L114.312 22.3135C114.756 22.3491 114.935 22.9023 114.598 23.1917L110.512 26.6917C110.369 26.8137 110.307 27.0051 110.351 27.1874L111.599 32.4206C111.702 32.8532 111.232 33.1952 110.852 32.9633L106.261 30.159C106.101 30.0613 105.899 30.0613 105.739 30.159L101.148 32.9633C100.769 33.1952 100.298 32.8532 100.401 32.4206L101.649 27.1874C101.693 27.0051 101.631 26.8137 101.488 26.6917L97.4025 23.1917C97.0647 22.9023 97.2445 22.3491 97.6878 22.3135L103.051 21.8836C103.237 21.8686 103.4 21.7503 103.472 21.5772L105.538 16.6097Z" fill="#FDB022"/>
<path d="M129.538 16.6097C129.709 16.1991 130.291 16.1991 130.462 16.6097L132.528 21.5772C132.6 21.7503 132.763 21.8686 132.95 21.8836L138.312 22.3135C138.756 22.3491 138.935 22.9023 138.598 23.1917L134.512 26.6917C134.369 26.8137 134.307 27.0051 134.351 27.1874L135.599 32.4206C135.702 32.8532 135.232 33.1952 134.852 32.9633L130.261 30.159C130.101 30.0613 129.9 30.0613 129.74 30.159L125.148 32.9633C124.769 33.1952 124.298 32.8532 124.401 32.4206L125.649 27.1874C125.693 27.0051 125.631 26.8137 125.488 26.6917L121.402 23.1917C121.065 22.9023 121.244 22.3491 121.688 22.3135L127.051 21.8836C127.237 21.8686 127.4 21.7503 127.472 21.5772L129.538 16.6097Z" fill="#FDB022"/>
<path d="M153.538 16.6097C153.709 16.1991 154.291 16.1991 154.462 16.6097L156.528 21.5772C156.6 21.7503 156.763 21.8686 156.949 21.8836L162.312 22.3135C162.756 22.3491 162.935 22.9023 162.598 23.1917L158.512 26.6917C158.369 26.8137 158.307 27.0051 158.351 27.1874L159.599 32.4206C159.702 32.8532 159.231 33.1952 158.852 32.9633L154.261 30.159C154.101 30.0613 153.899 30.0613 153.739 30.159L149.148 32.9633C148.769 33.1952 148.298 32.8532 148.401 32.4206L149.649 27.1874C149.693 27.0051 149.631 26.8137 149.488 26.6917L145.402 23.1917C145.065 22.9023 145.244 22.3491 145.688 22.3135L151.051 21.8836C151.237 21.8686 151.4 21.7503 151.472 21.5772L153.538 16.6097Z" fill="#FDB022"/>
<path fill-rule="evenodd" clip-rule="evenodd" d="M47.8632 109.9C30.6382 107.515 18.0982 93.9636 12.3772 75.4404C10.0269 67.774 9.68672 59.2713 10.5062 50.3814C12.0215 34.5065 19.3043 20.7225 29.9269 10.671C29.9733 10.6245 29.9888 10.609 30.0042 10.6555C30.0352 10.702 30.1279 10.7484 30.1743 10.7794C30.2362 10.8104 30.2516 10.7794 30.2052 10.8568C18.9332 21.1871 11.6968 37.6195 10.9082 54.2223C9.68672 77.9339 21.1907 98.9352 38.4312 106.168C41.3227 107.391 44.3533 108.321 47.5076 108.801C47.7241 109.08 47.8478 109.467 47.8632 109.9Z" fill="black"/>
<path fill-rule="evenodd" clip-rule="evenodd" d="M4.92432 70.2985C6.3314 71.9712 8.57343 73.6128 10.9856 72.9778C11.1093 73.1637 11.7432 74.093 11.836 74.2324C11.9442 74.4027 12.1452 74.5731 12.2999 74.4337C12.3926 74.3717 12.4699 74.2323 12.3772 74.0155C12.0215 73.5819 11.6814 73.1327 11.2793 72.6681C10.5681 68.9046 9.5321 66.3956 7.36737 63.8556C4.86247 60.9439 2.29572 59.643 0.703103 59.1009C0.471168 59.039 0.254696 58.977 0.0227607 58.8996C-0.131863 60.3554 0.533017 62.4772 1.05874 63.6852C2.07925 66.1633 3.19254 68.3316 4.92432 70.2985Z" fill="black"/>
<path fill-rule="evenodd" clip-rule="evenodd" d="M25.6439 17.2842C25.4429 17.3617 24.2677 17.6714 24.1286 17.4391C24.0822 17.3772 24.144 17.1448 24.2523 17.1294C24.6852 17.0829 25.1645 17.0519 25.582 16.959C26.3397 14.5739 28.4425 13.5362 30.3753 13.1335C32.6947 12.6689 35.246 13.3813 37.9828 13.7685C38.122 13.7995 38.2766 13.815 38.4003 13.815C38.3539 13.9079 38.2921 13.9699 38.2302 14.0628C37.086 15.627 35.2924 17.0674 33.5451 17.7798C32.37 18.2754 30.9629 18.5542 29.5868 18.5078C28.1333 18.4458 26.9118 18.1206 25.6439 17.2842Z" fill="black"/>
<path fill-rule="evenodd" clip-rule="evenodd" d="M30.1743 10.7639C30.2671 10.7949 30.2671 10.7639 30.4372 10.671C30.7619 10.3612 31.0402 10.1754 31.3649 9.88113C33.2204 9.89662 34.9831 9.33906 36.653 8.22395C37.3952 7.72834 38.1374 7.12432 38.7559 6.3964C40.2403 4.80118 41.4309 2.46254 41.9721 0.325242C42.003 0.20134 42.0185 0.123901 42.0339 0C41.8948 0.0619506 41.7711 0.123903 41.6319 0.185854C38.6322 1.39389 35.7253 1.95145 33.3132 4.29008C31.6742 5.85434 30.8237 7.74383 31.1639 9.57137C30.7928 9.86564 30.4063 10.1444 30.0506 10.4851C29.896 10.6245 30.0816 10.7639 30.1743 10.7639Z" fill="black"/>
<path fill-rule="evenodd" clip-rule="evenodd" d="M19.2579 27.2738C19.0569 27.3822 17.9282 27.9707 17.7581 27.7694C17.6808 27.6919 17.7117 27.4441 17.8199 27.3977C18.2374 27.2428 18.7322 27.1344 19.1497 26.9485C19.3043 25.2604 20.2475 23.6806 22.1184 22.5965C24.979 21.0787 28.2261 21.3265 31.2876 21.0632C31.4422 21.0477 31.5814 21.0477 31.7206 21.0322C31.6742 21.1252 31.6278 21.2026 31.5969 21.2955C30.5763 23.0611 28.9219 24.9661 27.2365 26.0502C26.1077 26.8091 24.7161 27.3822 23.3245 27.661C21.8556 27.9552 20.6031 27.7849 19.2579 27.2738Z" fill="black"/>
<path fill-rule="evenodd" clip-rule="evenodd" d="M4.27491 53.324C5.20265 55.4148 6.87258 57.707 9.31563 57.8619C9.39294 58.0787 9.84135 59.0854 9.9032 59.2403C9.94958 59.4571 10.1042 59.6894 10.3052 59.5965C10.398 59.5655 10.4908 59.4416 10.4753 59.2248C10.2434 58.6673 9.94958 58.2336 9.67126 57.6606C9.88773 53.8196 9.67126 51.0163 8.20234 47.8569C6.53241 44.2173 4.24398 42.1264 2.83691 41.1042C2.66682 40.9494 2.46581 40.8255 2.2648 40.7016C1.94009 42.1884 2.04833 44.496 2.24934 45.828C2.60497 48.5228 3.17708 50.8924 4.27491 53.324Z" fill="black"/>
<path fill-rule="evenodd" clip-rule="evenodd" d="M7.01174 37.8983C7.41376 40.1285 8.41881 42.3742 10.6454 43.35C10.6763 43.5823 10.9237 44.6664 10.9546 44.8368C10.9546 45.0691 11.0319 45.3324 11.2484 45.3014C11.3103 45.2859 11.4649 45.224 11.4804 44.9916C11.3876 44.4031 11.2175 43.7372 11.1093 43.1022C11.8515 40.3918 12.2535 37.9138 12.1298 35.2654C11.9288 31.5329 10.5372 28.296 8.3415 25.694C8.17141 25.5082 8.04771 25.3068 7.89309 25.1365C7.2746 26.4219 6.87258 28.6212 6.76434 29.9376C6.5324 32.6015 6.54787 35.2809 7.01174 37.8983Z" fill="black"/>
<path fill-rule="evenodd" clip-rule="evenodd" d="M12.6246 23.82C12.5627 26.1122 13.1194 28.6831 15.0367 30.17C15.0212 30.4023 14.9748 31.5174 14.9748 31.6723C14.9439 31.8891 14.9594 32.1524 15.1759 32.1988C15.2532 32.1988 15.3923 32.1834 15.4387 31.9665C15.4851 31.3935 15.5006 30.5107 15.5315 29.8757C17.1705 27.0879 18.0519 24.0523 18.0828 20.5831C18.1446 16.5718 17.155 14.0163 16.3665 12.4056C16.2582 12.1888 16.15 11.972 16.0417 11.7551C15.1759 12.8083 14.3564 14.8217 13.9853 16.0607C13.2431 18.5697 12.7019 21.1871 12.6246 23.82Z" fill="black"/>
<path fill-rule="evenodd" clip-rule="evenodd" d="M21.1289 10.9653C20.6341 13.118 20.7732 16.2775 22.3813 17.5785C22.3195 17.8573 22.1803 18.8175 22.1648 19.0343C22.103 19.2666 22.0566 19.4835 22.2421 19.5764C22.3195 19.6074 22.3813 19.6074 22.4741 19.406C22.5823 18.802 22.6132 18.3064 22.706 17.6869C24.9944 15.2399 26.2933 12.8238 27.02 9.52491C27.7467 6.07116 27.6385 3.32985 27.3293 1.39389C27.2983 1.16157 27.2365 0.929261 27.1746 0.681458C25.1645 2.29217 23.742 4.41398 22.5359 6.83006C21.8865 8.14651 21.3763 9.49394 21.1289 10.9653Z" fill="black"/>
<path fill-rule="evenodd" clip-rule="evenodd" d="M14.1244 40.4538C13.9389 40.6241 12.9184 41.5999 12.671 41.476C12.6091 41.414 12.5627 41.0888 12.671 41.0268C13.0575 40.7171 13.5523 40.4847 13.9389 40.1905C13.8152 38.332 14.2327 36.4425 15.918 34.6769C18.5157 32.1524 21.9638 31.3006 25.1027 29.9996C25.2418 29.9376 25.381 29.8602 25.5511 29.7983C25.5202 29.9067 25.5047 30.0306 25.4583 30.139C24.8398 32.3073 23.6028 34.8317 22.103 36.5354C21.1289 37.6815 19.8146 38.7811 18.4384 39.509C17.0004 40.2834 15.6397 40.5312 14.1244 40.4538Z" fill="black"/>
<path fill-rule="evenodd" clip-rule="evenodd" d="M11.9597 55.5852C11.8205 55.833 11.001 57.1649 10.7382 57.103C10.6299 57.103 10.5217 56.7778 10.599 56.6539C10.9392 56.2047 11.3721 55.8485 11.6659 55.3839C11.1402 53.6802 11.3876 51.2177 12.6555 48.8636C14.6656 45.4253 17.6034 43.7526 20.4485 41.3521C20.5722 41.2281 20.6959 41.1197 20.8351 40.9803C20.8505 41.0888 20.866 41.2127 20.8505 41.3521C20.7887 43.7062 20.1702 46.6643 19.0724 48.8945C18.3611 50.3968 17.3097 51.8991 16.1036 53.1536C14.8511 54.4081 13.5214 55.1361 11.9597 55.5852Z" fill="black"/>
<path fill-rule="evenodd" clip-rule="evenodd" d="M13.3822 70.4224C13.274 70.7167 12.7173 72.2964 12.439 72.3583C12.3462 72.3428 12.1607 72.1105 12.238 71.9402C12.4699 71.4136 12.7328 70.8096 12.9493 70.2675C11.9906 69.3537 11.6659 66.8138 12.439 64.1499C13.7224 60.247 16.5829 57.3198 18.8868 54.0829C18.9951 53.928 19.1033 53.7732 19.2115 53.6183C19.2425 53.7267 19.2579 53.8506 19.2888 53.9745C19.6909 56.2512 19.6599 59.2713 19.0414 61.7338C18.624 63.3755 17.8972 65.1876 16.954 66.7363C15.9799 68.378 14.8202 69.5086 13.3822 70.4224Z" fill="black"/>
<path fill-rule="evenodd" clip-rule="evenodd" d="M9.93412 87.7841C11.6814 88.9301 14.8048 89.7974 16.954 88.3881C17.1241 88.512 18.0209 89.054 18.1292 89.147C18.2838 89.3018 18.5003 89.4103 18.6394 89.1934C18.7167 89.1005 18.7631 88.9456 18.6085 88.7753C18.1601 88.4655 17.6653 88.2642 17.186 87.9544C15.547 84.5471 13.7842 82.2395 11.0783 80.5358C7.98587 78.5534 5.40365 78.5224 3.74918 78.5224C3.51725 78.5224 3.28531 78.5379 3.05338 78.5379C3.4554 81.8987 7.61477 86.3437 9.93412 87.7841Z" fill="black"/>
<path fill-rule="evenodd" clip-rule="evenodd" d="M18.5157 85.1512C18.5003 85.368 18.392 86.3282 18.2374 86.9167C18.191 87.0871 18.1756 87.3349 17.9436 87.242C17.8508 87.2265 17.7581 87.0252 17.7581 86.9322C17.8663 86.3592 17.9591 85.7087 18.0055 85.1357C16.9386 84.4542 16.1036 82.224 15.9335 79.4827C16.1191 75.3475 17.9745 71.5994 19.4589 67.6966C19.5053 67.5262 19.5672 67.3403 19.629 67.1545C19.6909 67.2474 19.7218 67.3403 19.7836 67.4333C20.7732 69.4776 21.5309 72.3429 21.5927 74.9293C21.6546 76.6175 21.4072 78.5844 20.9124 80.4119C20.3867 82.2859 19.6135 83.7573 18.5157 85.1512Z" fill="black"/>
<path fill-rule="evenodd" clip-rule="evenodd" d="M19.3971 101.924C21.4072 102.327 24.1286 102.234 25.8294 100.066C26.2624 100.128 26.9582 100.236 27.4066 100.267C27.5303 100.283 27.623 100.19 27.6694 100.035C27.7003 99.9264 27.6694 99.787 27.4684 99.6786C26.9582 99.5702 26.4479 99.5702 25.9067 99.4772C23.6492 96.8288 21.5154 95.342 18.4384 94.7845C14.8821 94.134 11.8669 95.0478 10.2588 95.7137C10.0424 95.7912 9.81042 95.8841 9.60941 95.9925C10.1815 97.278 11.8514 98.5944 12.9029 99.2294C14.913 100.561 16.9695 101.522 19.3971 101.924Z" fill="black"/>
<path fill-rule="evenodd" clip-rule="evenodd" d="M26.5871 96.3332C26.618 96.5656 26.6489 97.4948 26.6489 98.1143C26.6334 98.2847 26.6798 98.517 26.4479 98.5325C26.3397 98.5325 26.216 98.3931 26.216 98.2847C26.1696 97.7116 26.2005 97.0921 26.1077 96.5036C24.9171 96.1319 23.34 94.3198 22.6132 91.8263C21.7783 87.8305 22.6906 83.7108 23.1235 79.4827C23.1544 79.2968 23.139 79.111 23.1544 78.9096C23.2317 78.9871 23.3245 79.0645 23.4018 79.1419C24.8553 80.7372 26.3087 83.1997 27.0045 85.6158C27.4839 87.1955 27.7313 89.147 27.7313 91.021C27.7004 92.9879 27.2983 94.6451 26.5871 96.3332Z" fill="black"/>
<path fill-rule="evenodd" clip-rule="evenodd" d="M37.8437 104.464C37.9519 104.635 38.091 105.409 38.2457 105.998C38.2921 106.137 38.3848 106.354 38.1684 106.431C38.0601 106.478 37.921 106.385 37.89 106.292C37.689 105.796 37.689 105.27 37.4416 104.774C36.282 105.053 34.2719 103.581 32.9576 101.661C31.133 98.3466 30.932 94.4592 30.2207 90.5099C30.2052 90.324 30.1434 90.1537 30.1125 89.9678C30.2053 89.9833 30.298 90.0453 30.3908 90.0762C32.138 90.959 34.1327 92.5233 35.4161 94.4437C36.2974 95.6828 37.1169 97.4019 37.5808 99.121C38.0601 100.933 38.0756 102.652 37.8437 104.464Z" fill="black"/>
<path fill-rule="evenodd" clip-rule="evenodd" d="M31.5195 111.836C33.576 111.558 36.2356 110.613 37.4107 107.98C37.8282 107.856 38.5549 107.779 38.9879 107.655C39.1116 107.639 39.1734 107.5 39.1889 107.329C39.1889 107.237 39.127 107.097 38.9105 107.066C38.4003 107.144 37.89 107.299 37.3179 107.36C34.3337 105.595 31.9216 104.79 28.7827 105.239C25.18 105.75 22.5514 107.562 21.1443 108.723C20.9433 108.894 20.7423 109.049 20.5567 109.219C21.4226 110.288 23.3709 111 24.5306 111.31C26.8035 111.945 29.0301 112.193 31.5195 111.836Z" fill="black"/>
<path fill-rule="evenodd" clip-rule="evenodd" d="M164.137 109.9C181.362 107.515 193.902 93.9636 199.623 75.4404C201.973 67.774 202.313 59.2713 201.494 50.3814C199.978 34.5065 192.696 20.7225 182.073 10.671C182.027 10.6245 182.011 10.609 181.996 10.6555C181.965 10.702 181.872 10.7484 181.826 10.7794C181.764 10.8104 181.748 10.7794 181.795 10.8568C193.067 21.1871 200.303 37.6195 201.092 54.2223C202.313 77.9339 190.809 98.9352 173.569 106.168C170.677 107.391 167.647 108.321 164.492 108.801C164.276 109.08 164.152 109.467 164.137 109.9Z" fill="black"/>
<path fill-rule="evenodd" clip-rule="evenodd" d="M207.076 70.2985C205.669 71.9712 203.427 73.6128 201.014 72.9778C200.891 73.1637 200.257 74.093 200.164 74.2324C200.056 74.4027 199.855 74.5731 199.7 74.4337C199.607 74.3717 199.53 74.2323 199.623 74.0155C199.978 73.5819 200.319 73.1327 200.721 72.6681C201.432 68.9046 202.468 66.3956 204.633 63.8556C207.138 60.9439 209.704 59.643 211.297 59.1009C211.529 59.039 211.745 58.977 211.977 58.8996C212.132 60.3554 211.467 62.4772 210.941 63.6852C209.921 66.1633 208.807 68.3316 207.076 70.2985Z" fill="black"/>
<path fill-rule="evenodd" clip-rule="evenodd" d="M186.356 17.2842C186.557 17.3617 187.732 17.6714 187.871 17.4391C187.918 17.3772 187.856 17.1448 187.748 17.1294C187.315 17.0829 186.835 17.0519 186.418 16.959C185.66 14.5739 183.557 13.5362 181.625 13.1335C179.305 12.6689 176.754 13.3813 174.017 13.7685C173.878 13.7995 173.723 13.815 173.6 13.815C173.646 13.9079 173.708 13.9699 173.77 14.0628C174.914 15.627 176.708 17.0674 178.455 17.7798C179.63 18.2754 181.037 18.5542 182.413 18.5078C183.867 18.4458 185.088 18.1206 186.356 17.2842Z" fill="black"/>
<path fill-rule="evenodd" clip-rule="evenodd" d="M181.826 10.7639C181.733 10.7949 181.733 10.7639 181.563 10.671C181.238 10.3612 180.96 10.1754 180.635 9.88113C178.78 9.89662 177.017 9.33906 175.347 8.22395C174.605 7.72834 173.863 7.12432 173.244 6.3964C171.76 4.80118 170.569 2.46254 170.028 0.325242C169.997 0.20134 169.982 0.123901 169.966 0C170.105 0.0619506 170.229 0.123903 170.368 0.185854C173.368 1.39389 176.275 1.95145 178.687 4.29008C180.326 5.85434 181.176 7.74383 180.836 9.57137C181.207 9.86564 181.594 10.1444 181.949 10.4851C182.104 10.6245 181.918 10.7639 181.826 10.7639Z" fill="black"/>
<path fill-rule="evenodd" clip-rule="evenodd" d="M192.742 27.2738C192.943 27.3822 194.072 27.9707 194.242 27.7694C194.319 27.6919 194.288 27.4441 194.18 27.3977C193.763 27.2428 193.268 27.1344 192.85 26.9485C192.696 25.2604 191.752 23.6806 189.882 22.5965C187.021 21.0787 183.774 21.3265 180.712 21.0632C180.558 21.0477 180.419 21.0477 180.279 21.0322C180.326 21.1252 180.372 21.2026 180.403 21.2955C181.424 23.0611 183.078 24.9661 184.764 26.0502C185.892 26.8091 187.284 27.3822 188.675 27.661C190.144 27.9552 191.397 27.7849 192.742 27.2738Z" fill="black"/>
<path fill-rule="evenodd" clip-rule="evenodd" d="M207.725 53.324C206.797 55.4148 205.127 57.707 202.684 57.8619C202.607 58.0787 202.159 59.0854 202.097 59.2403C202.05 59.4571 201.896 59.6894 201.695 59.5965C201.602 59.5655 201.509 59.4416 201.525 59.2248C201.757 58.6673 202.05 58.2336 202.329 57.6606C202.112 53.8196 202.329 51.0163 203.798 47.8569C205.468 44.2173 207.756 42.1264 209.163 41.1042C209.333 40.9494 209.534 40.8255 209.735 40.7016C210.06 42.1884 209.952 44.496 209.751 45.828C209.395 48.5228 208.823 50.8924 207.725 53.324Z" fill="black"/>
<path fill-rule="evenodd" clip-rule="evenodd" d="M204.988 37.8983C204.586 40.1285 203.581 42.3742 201.355 43.35C201.324 43.5823 201.076 44.6664 201.045 44.8368C201.045 45.0691 200.968 45.3324 200.752 45.3014C200.69 45.2859 200.535 45.224 200.52 44.9916C200.612 44.4031 200.783 43.7372 200.891 43.1022C200.149 40.3918 199.747 37.9138 199.87 35.2654C200.071 31.5329 201.463 28.296 203.659 25.694C203.829 25.5082 203.952 25.3068 204.107 25.1365C204.725 26.4219 205.127 28.6212 205.236 29.9376C205.468 32.6015 205.452 35.2809 204.988 37.8983Z" fill="black"/>
<path fill-rule="evenodd" clip-rule="evenodd" d="M199.375 23.82C199.437 26.1122 198.881 28.6831 196.963 30.17C196.979 30.4023 197.025 31.5174 197.025 31.6723C197.056 31.8891 197.041 32.1524 196.824 32.1988C196.747 32.1988 196.608 32.1834 196.561 31.9665C196.515 31.3935 196.499 30.5107 196.469 29.8757C194.829 27.0879 193.948 24.0523 193.917 20.5831C193.855 16.5718 194.845 14.0163 195.634 12.4056C195.742 12.1888 195.85 11.972 195.958 11.7551C196.824 12.8083 197.644 14.8217 198.015 16.0607C198.757 18.5697 199.298 21.1871 199.375 23.82Z" fill="black"/>
<path fill-rule="evenodd" clip-rule="evenodd" d="M190.871 10.9653C191.366 13.118 191.227 16.2775 189.619 17.5785C189.681 17.8573 189.82 18.8175 189.835 19.0343C189.897 19.2666 189.943 19.4835 189.758 19.5764C189.681 19.6074 189.619 19.6074 189.526 19.406C189.418 18.802 189.387 18.3064 189.294 17.6869C187.006 15.2399 185.707 12.8238 184.98 9.52491C184.253 6.07116 184.361 3.32985 184.671 1.39389C184.702 1.16157 184.764 0.929261 184.825 0.681458C186.835 2.29217 188.258 4.41398 189.464 6.83006C190.113 8.14651 190.624 9.49394 190.871 10.9653Z" fill="black"/>
<path fill-rule="evenodd" clip-rule="evenodd" d="M197.876 40.4538C198.061 40.6241 199.082 41.5999 199.329 41.476C199.391 41.414 199.437 41.0888 199.329 41.0268C198.942 40.7171 198.448 40.4847 198.061 40.1905C198.185 38.332 197.767 36.4425 196.082 34.6769C193.484 32.1524 190.036 31.3006 186.897 29.9996C186.758 29.9376 186.619 29.8602 186.449 29.7983C186.48 29.9067 186.495 30.0306 186.542 30.139C187.16 32.3073 188.397 34.8317 189.897 36.5354C190.871 37.6815 192.185 38.7811 193.562 39.509C195 40.2834 196.36 40.5312 197.876 40.4538Z" fill="black"/>
<path fill-rule="evenodd" clip-rule="evenodd" d="M200.04 55.5852C200.179 55.833 200.999 57.1649 201.262 57.103C201.37 57.103 201.478 56.7778 201.401 56.6539C201.061 56.2047 200.628 55.8485 200.334 55.3839C200.86 53.6802 200.612 51.2177 199.345 48.8636C197.334 45.4253 194.397 43.7526 191.551 41.3521C191.428 41.2281 191.304 41.1197 191.165 40.9803C191.149 41.0888 191.134 41.2127 191.149 41.3521C191.211 43.7062 191.83 46.6643 192.928 48.8945C193.639 50.3968 194.69 51.8991 195.896 53.1536C197.149 54.4081 198.479 55.1361 200.04 55.5852Z" fill="black"/>
<path fill-rule="evenodd" clip-rule="evenodd" d="M198.618 70.4224C198.726 70.7167 199.283 72.2964 199.561 72.3583C199.654 72.3428 199.839 72.1105 199.762 71.9402C199.53 71.4136 199.267 70.8096 199.051 70.2675C200.009 69.3537 200.334 66.8138 199.561 64.1499C198.278 60.247 195.417 57.3198 193.113 54.0829C193.005 53.928 192.897 53.7732 192.788 53.6183C192.758 53.7267 192.742 53.8506 192.711 53.9745C192.309 56.2512 192.34 59.2713 192.959 61.7338C193.376 63.3755 194.103 65.1876 195.046 66.7363C196.02 68.378 197.18 69.5086 198.618 70.4224Z" fill="black"/>
<path fill-rule="evenodd" clip-rule="evenodd" d="M202.066 87.7841C200.319 88.9301 197.195 89.7974 195.046 88.3881C194.876 88.512 193.979 89.054 193.871 89.147C193.716 89.3018 193.5 89.4103 193.361 89.1934C193.283 89.1005 193.237 88.9456 193.392 88.7753C193.84 88.4655 194.335 88.2642 194.814 87.9544C196.453 84.5471 198.216 82.2395 200.922 80.5358C204.014 78.5534 206.596 78.5224 208.251 78.5224C208.483 78.5224 208.715 78.5379 208.947 78.5379C208.545 81.8987 204.385 86.3437 202.066 87.7841Z" fill="black"/>
<path fill-rule="evenodd" clip-rule="evenodd" d="M193.484 85.1512C193.5 85.368 193.608 86.3282 193.763 86.9167C193.809 87.0871 193.824 87.3349 194.056 87.242C194.149 87.2265 194.242 87.0252 194.242 86.9322C194.134 86.3592 194.041 85.7087 193.995 85.1357C195.061 84.4542 195.896 82.224 196.066 79.4827C195.881 75.3475 194.025 71.5994 192.541 67.6966C192.495 67.5262 192.433 67.3403 192.371 67.1545C192.309 67.2474 192.278 67.3403 192.216 67.4333C191.227 69.4776 190.469 72.3429 190.407 74.9293C190.345 76.6175 190.593 78.5844 191.088 80.4119C191.613 82.2859 192.386 83.7573 193.484 85.1512Z" fill="black"/>
<path fill-rule="evenodd" clip-rule="evenodd" d="M192.603 101.924C190.593 102.327 187.871 102.234 186.171 100.066C185.738 100.128 185.042 100.236 184.593 100.267C184.47 100.283 184.377 100.19 184.331 100.035C184.3 99.9264 184.331 99.787 184.532 99.6786C185.042 99.5702 185.552 99.5702 186.093 99.4772C188.351 96.8288 190.485 95.342 193.562 94.7845C197.118 94.134 200.133 95.0478 201.741 95.7137C201.958 95.7912 202.19 95.8841 202.391 95.9925C201.818 97.278 200.149 98.5944 199.097 99.2294C197.087 100.561 195.031 101.522 192.603 101.924Z" fill="black"/>
<path fill-rule="evenodd" clip-rule="evenodd" d="M185.413 96.3332C185.382 96.5656 185.351 97.4948 185.351 98.1143C185.367 98.2847 185.32 98.517 185.552 98.5325C185.66 98.5325 185.784 98.3931 185.784 98.2847C185.83 97.7116 185.799 97.0921 185.892 96.5036C187.083 96.1319 188.66 94.3198 189.387 91.8263C190.222 87.8305 189.309 83.7108 188.876 79.4827C188.846 79.2968 188.861 79.111 188.846 78.9096C188.768 78.9871 188.675 79.0645 188.598 79.1419C187.145 80.7372 185.691 83.1997 184.995 85.6158C184.516 87.1955 184.269 89.147 184.269 91.021C184.3 92.9879 184.702 94.6451 185.413 96.3332Z" fill="black"/>
<path fill-rule="evenodd" clip-rule="evenodd" d="M174.156 104.464C174.048 104.635 173.909 105.409 173.754 105.998C173.708 106.137 173.615 106.354 173.832 106.431C173.94 106.478 174.079 106.385 174.11 106.292C174.311 105.796 174.311 105.27 174.558 104.774C175.718 105.053 177.728 103.581 179.042 101.661C180.867 98.3466 181.068 94.4592 181.779 90.5099C181.795 90.324 181.857 90.1537 181.888 89.9678C181.795 89.9833 181.702 90.0453 181.609 90.0762C179.862 90.959 177.867 92.5233 176.584 94.4437C175.703 95.6828 174.883 97.4019 174.419 99.121C173.94 100.933 173.924 102.652 174.156 104.464Z" fill="black"/>
<path fill-rule="evenodd" clip-rule="evenodd" d="M180.48 111.836C178.424 111.558 175.764 110.613 174.589 107.98C174.172 107.856 173.445 107.779 173.012 107.655C172.888 107.639 172.827 107.5 172.811 107.329C172.811 107.237 172.873 107.097 173.089 107.066C173.6 107.144 174.11 107.299 174.682 107.36C177.666 105.595 180.078 104.79 183.217 105.239C186.82 105.75 189.449 107.562 190.856 108.723C191.057 108.894 191.258 109.049 191.443 109.219C190.577 110.288 188.629 111 187.469 111.31C185.196 111.945 182.97 112.193 180.48 111.836Z" fill="black"/>
<path d="M117.001 45.0186C114.587 45.0186 112.227 47.205 111.955 50.3642V45.279H108.488V60.6123H111.998V53.1904C111.998 51.1113 113.471 48.1786 117.001 48.1786V45.0186Z" fill="black"/>
<path d="M153.818 58.1575V47.6524H155.851C158.563 47.6524 160.765 49.3467 160.765 52.8202C160.765 56.2937 158.563 58.1575 155.851 58.1575H153.818ZM150.344 60.6144H156.275C159.918 60.6144 164.408 58.2422 164.408 52.8202C164.408 47.4829 159.918 45.2802 156.275 45.2802H150.344V60.6144Z" fill="black"/>
<path d="M137.054 52.9899C137.054 50.1942 138.494 47.9068 140.866 47.9068C143.153 47.9068 144.424 50.1942 144.424 52.9899C144.424 55.7857 143.153 58.0731 140.866 58.0731C138.494 58.0731 137.054 55.7857 137.054 52.9899ZM133.496 53.1594C133.496 57.7342 135.868 60.9535 139.595 60.9535C142.307 60.9535 143.916 59.1744 144.763 56.294V60.6147H148.236V45.2805H144.763V49.347C144.001 46.636 142.391 45.0264 139.849 45.0264C136.037 45.0264 133.496 48.4998 133.496 53.1594Z" fill="black"/>
<path d="M54.3981 60.9535C50.0775 60.9535 47.5359 57.4801 47.5359 53.1594C47.5359 48.6693 50.3316 45.0264 55.6689 45.0264C61.1756 45.0264 63.0395 48.754 63.1242 50.872H59.1424C59.0577 49.6859 58.041 47.9068 55.5842 47.9068C52.9579 47.9068 51.2635 50.1942 51.2635 52.9899C51.2635 55.7857 52.9579 58.0731 55.5842 58.0731C57.9563 58.0731 58.9729 56.2093 59.3965 54.3455H55.5842V52.8205H63.5838V60.6147H60.0743V55.701C59.8201 57.4801 58.7188 60.9535 54.3981 60.9535Z" fill="black"/>
<path d="M70.6991 60.9533C67.3951 60.9533 65.3618 58.7506 65.3618 54.3452V45.2803H68.9201V54.3452C68.9201 56.6326 70.0214 57.734 71.8852 57.734C75.5281 57.734 76.8836 53.2439 76.8836 50.1093V45.2803H80.4418V60.6144H76.9683V54.9383C76.2906 58.0729 74.4268 60.9533 70.6991 60.9533Z" fill="black"/>
<path d="M101.705 45.0186C98.6692 45.0186 96.7542 47.9511 96.1291 50.6626C96.0222 47.0289 94.2352 45.0186 91.3761 45.0186C88.9059 45.0186 86.6141 47.2215 86.0189 50.7064V45.2794H82.5503V60.6139H86.0634V55.1165C86.0634 53.7537 86.6316 48.1608 90.1681 48.1608C92.459 48.1608 92.6979 50.2273 92.6979 53.052V60.6139H96.2093V55.1165C96.2093 53.7537 96.8011 48.1608 100.338 48.1608C102.627 48.1608 102.863 50.2273 102.863 53.052V60.6139H106.379V51.5436C106.396 47.1922 104.859 45.0186 101.705 45.0186Z" fill="black"/>
<path d="M124.539 45.0186C119.99 45.0186 116.909 48.5846 116.909 52.9862C116.909 57.836 119.84 60.9537 124.539 60.9537C129.086 60.9537 132.223 57.3877 132.223 52.9862C132.223 48.1363 129.235 45.0186 124.539 45.0186ZM124.539 58.2394C121.891 58.2394 120.175 55.9979 120.175 52.9862C120.175 49.9744 121.897 47.7328 124.539 47.7328C127.18 47.7328 128.832 49.9744 128.832 52.9862C128.832 55.9979 127.178 58.2394 124.539 58.2394Z" fill="black"/>
<path d="M52.9551 85L54.6733 74.5273H55.9006L54.1824 85H52.9551ZM48.2148 82.1977L48.4142 80.9705H56.3506L56.1511 82.1977H48.2148ZM49.2733 85L50.9915 74.5273H52.2188L50.5006 85H49.2733ZM48.8233 78.5568L49.0227 77.3295H56.9591L56.7597 78.5568H48.8233Z" fill="black"/>
<path d="M62.0918 74.5273V85H60.5066V76.1125H60.4452L57.9396 77.7489V76.2352L60.5526 74.5273H62.0918Z" fill="black"/>
<path d="M72.154 85H68.7637V74.5273H72.2614C73.2876 74.5273 74.1688 74.7369 74.9052 75.1562C75.6415 75.5722 76.2057 76.1704 76.5978 76.9511C76.9932 77.7284 77.191 78.6608 77.191 79.7483C77.191 80.8392 76.9915 81.7767 76.5927 82.5608C76.1972 83.3449 75.6245 83.9483 74.8745 84.371C74.1245 84.7903 73.2177 85 72.154 85ZM70.3438 83.6193H72.0671C72.8648 83.6193 73.5279 83.4693 74.0563 83.1693C74.5847 82.8659 74.9802 82.4278 75.2427 81.8551C75.5052 81.279 75.6364 80.5767 75.6364 79.7483C75.6364 78.9267 75.5052 78.2295 75.2427 77.6568C74.9836 77.0841 74.5967 76.6494 74.0819 76.3528C73.5671 76.0563 72.9279 75.908 72.1643 75.908H70.3438V83.6193Z" fill="black"/>
<path d="M82.3608 85.1585C81.5869 85.1585 80.9204 84.9932 80.3614 84.6625C79.8057 84.3284 79.3761 83.8597 79.0727 83.2562C78.7727 82.6494 78.6227 81.9386 78.6227 81.1239C78.6227 80.3193 78.7727 79.6102 79.0727 78.9966C79.3761 78.3829 79.7989 77.904 80.3409 77.5597C80.8864 77.2153 81.5239 77.0432 82.2534 77.0432C82.6966 77.0432 83.1261 77.1165 83.542 77.2631C83.9579 77.4097 84.3312 77.6398 84.6619 77.9534C84.9926 78.267 85.2534 78.6744 85.4443 79.1756C85.6352 79.6733 85.7307 80.2784 85.7307 80.9909V81.533H79.4869V80.3875H84.2324C84.2324 79.9852 84.1506 79.629 83.9869 79.3187C83.8233 79.0051 83.5932 78.7579 83.2966 78.5773C83.0034 78.3966 82.6591 78.3063 82.2636 78.3063C81.8341 78.3063 81.4591 78.4119 81.1386 78.6233C80.8216 78.8313 80.5761 79.104 80.4023 79.4415C80.2318 79.7756 80.1466 80.1386 80.1466 80.5307V81.4256C80.1466 81.9506 80.2386 82.3972 80.4227 82.7653C80.6102 83.1335 80.871 83.4148 81.2051 83.6091C81.5392 83.8 81.9295 83.8955 82.3761 83.8955C82.6659 83.8955 82.9301 83.8545 83.1687 83.7727C83.4074 83.6875 83.6136 83.5614 83.7875 83.3943C83.9614 83.2273 84.0943 83.021 84.1864 82.7756L85.6335 83.0364C85.5176 83.4625 85.3097 83.8358 85.0097 84.1562C84.7131 84.4733 84.3398 84.7205 83.8898 84.8977C83.4432 85.0716 82.9335 85.1585 82.3608 85.1585Z" fill="black"/>
<path d="M93.2553 79.0631L91.8695 79.3085C91.8116 79.1313 91.7195 78.9625 91.5934 78.8023C91.4707 78.642 91.3036 78.5108 91.0923 78.4085C90.8809 78.3063 90.6167 78.2551 90.2996 78.2551C89.8667 78.2551 89.5053 78.3523 89.2156 78.5466C88.9258 78.7375 88.7809 78.9847 88.7809 79.2881C88.7809 79.5506 88.878 79.7619 89.0724 79.9222C89.2667 80.0824 89.5803 80.2136 90.0133 80.3159L91.261 80.6023C91.9837 80.7693 92.5224 81.0267 92.8769 81.3744C93.2315 81.7222 93.4087 82.1739 93.4087 82.7295C93.4087 83.2 93.2724 83.6193 92.9996 83.9875C92.7303 84.3523 92.3536 84.6386 91.8695 84.8466C91.3888 85.0545 90.8315 85.1585 90.1974 85.1585C89.3178 85.1585 88.6002 84.971 88.0445 84.596C87.4888 84.2176 87.1479 83.6807 87.0218 82.9852L88.4996 82.7602C88.5917 83.1455 88.7809 83.4369 89.0673 83.6347C89.3536 83.829 89.7269 83.9261 90.1871 83.9261C90.6883 83.9261 91.0888 83.8222 91.3888 83.6142C91.6889 83.4028 91.8388 83.1455 91.8388 82.842C91.8388 82.5966 91.7468 82.3903 91.5627 82.2233C91.382 82.0563 91.1042 81.9301 90.7292 81.8449L89.3996 81.5534C88.6667 81.3864 88.1246 81.1205 87.7735 80.7557C87.4258 80.3909 87.2519 79.929 87.2519 79.3699C87.2519 78.9062 87.3815 78.5006 87.6405 78.1528C87.8996 77.8051 88.2576 77.5341 88.7144 77.3398C89.1712 77.1421 89.6945 77.0432 90.2843 77.0432C91.1332 77.0432 91.8013 77.2273 92.2888 77.5955C92.7764 77.9602 93.0985 78.4494 93.2553 79.0631Z" fill="black"/>
<path d="M95.0322 85V77.1455H96.5612V85H95.0322ZM95.8044 75.9335C95.5385 75.9335 95.3101 75.8449 95.1192 75.6676C94.9317 75.4869 94.8379 75.2722 94.8379 75.0233C94.8379 74.771 94.9317 74.5563 95.1192 74.379C95.3101 74.1983 95.5385 74.108 95.8044 74.108C96.0703 74.108 96.297 74.1983 96.4845 74.379C96.6754 74.5563 96.7709 74.771 96.7709 75.0233C96.7709 75.2722 96.6754 75.4869 96.4845 75.6676C96.297 75.8449 96.0703 75.9335 95.8044 75.9335Z" fill="black"/>
<path d="M101.854 88.1091C101.23 88.1091 100.693 88.0273 100.243 87.8636C99.7964 87.7 99.4316 87.4835 99.1486 87.2142C98.8657 86.9449 98.6543 86.65 98.5145 86.3295L99.8288 85.7875C99.9208 85.9375 100.044 86.096 100.197 86.2631C100.354 86.4335 100.565 86.5784 100.831 86.6977C101.1 86.817 101.446 86.8767 101.869 86.8767C102.449 86.8767 102.928 86.7352 103.306 86.4523C103.684 86.1727 103.874 85.7261 103.874 85.1125V83.5682H103.776C103.684 83.7352 103.551 83.921 103.378 84.1256C103.207 84.3301 102.972 84.5074 102.672 84.6574C102.372 84.8074 101.982 84.8824 101.501 84.8824C100.88 84.8824 100.321 84.7375 99.8236 84.4477C99.3293 84.1545 98.9373 83.7233 98.6475 83.154C98.3611 82.5812 98.218 81.8773 98.218 81.042C98.218 80.2068 98.3594 79.4909 98.6424 78.8943C98.9288 78.2977 99.3208 77.8409 99.8185 77.5239C100.316 77.2034 100.88 77.0432 101.511 77.0432C101.999 77.0432 102.392 77.125 102.692 77.2886C102.992 77.4489 103.226 77.6364 103.393 77.8511C103.563 78.0659 103.695 78.2551 103.787 78.4187H103.899V77.1455H105.398V85.1739C105.398 85.8489 105.241 86.4028 104.927 86.8358C104.613 87.2687 104.189 87.5892 103.654 87.7972C103.122 88.0051 102.522 88.1091 101.854 88.1091ZM101.838 83.6142C102.278 83.6142 102.65 83.5119 102.953 83.3074C103.26 83.0994 103.492 82.8028 103.649 82.4176C103.809 82.029 103.889 81.5636 103.889 81.0216C103.889 80.4932 103.811 80.0278 103.654 79.6256C103.497 79.2233 103.267 78.9097 102.963 78.6847C102.66 78.4563 102.285 78.342 101.838 78.342C101.378 78.342 100.995 78.4614 100.688 78.7C100.381 78.9352 100.149 79.2557 99.9924 79.6614C99.839 80.067 99.7623 80.5205 99.7623 81.0216C99.7623 81.5364 99.8407 81.9881 99.9975 82.3767C100.154 82.7653 100.386 83.0687 100.693 83.2869C101.003 83.5051 101.385 83.6142 101.838 83.6142Z" fill="black"/>
<path d="M108.919 80.3364V85H107.39V77.1455H108.858V78.4239H108.955C109.136 78.008 109.419 77.6739 109.804 77.4216C110.193 77.1693 110.682 77.0432 111.272 77.0432C111.807 77.0432 112.276 77.1557 112.678 77.3807C113.08 77.6023 113.392 77.933 113.614 78.3727C113.835 78.8125 113.946 79.3562 113.946 80.004V85H112.417V80.1881C112.417 79.6187 112.269 79.1739 111.972 78.8534C111.676 78.5295 111.268 78.3676 110.75 78.3676C110.396 78.3676 110.08 78.4443 109.804 78.5977C109.531 78.7511 109.315 78.9761 109.155 79.2727C108.998 79.5659 108.919 79.9205 108.919 80.3364Z" fill="black"/>
<path d="M122.74 85.1483C122.038 85.1483 121.433 85.0205 120.925 84.7648C120.42 84.5091 120.032 84.1614 119.759 83.7216C119.486 83.2784 119.35 82.7773 119.35 82.2182C119.35 81.792 119.438 81.4136 119.616 81.083C119.793 80.7489 120.04 80.4403 120.357 80.1574C120.674 79.8744 121.041 79.5898 121.457 79.3034L123.144 78.1119C123.431 77.9244 123.654 77.7267 123.814 77.5188C123.974 77.3074 124.054 77.0466 124.054 76.7364C124.054 76.4909 123.949 76.2557 123.737 76.0307C123.526 75.8057 123.243 75.6932 122.888 75.6932C122.643 75.6932 122.427 75.7528 122.239 75.8722C122.055 75.9915 121.91 76.1449 121.804 76.3324C121.702 76.5165 121.651 76.7108 121.651 76.9153C121.651 77.154 121.716 77.3943 121.845 77.6364C121.978 77.8784 122.149 78.129 122.357 78.3881C122.565 78.6438 122.783 78.9097 123.011 79.1858L127.874 85H126.146L122.121 80.2699C121.784 79.871 121.47 79.496 121.181 79.1449C120.891 78.7903 120.656 78.4324 120.475 78.071C120.298 77.7063 120.209 77.3125 120.209 76.8898C120.209 76.4091 120.318 75.983 120.536 75.6114C120.758 75.2364 121.066 74.9432 121.462 74.7318C121.857 74.5205 122.321 74.4148 122.853 74.4148C123.391 74.4148 123.853 74.5205 124.238 74.7318C124.627 74.9398 124.925 75.2176 125.133 75.5653C125.345 75.9097 125.45 76.2864 125.45 76.6955C125.45 77.1932 125.326 77.6329 125.077 78.0148C124.832 78.3932 124.492 78.7409 124.06 79.058L121.958 80.6074C121.549 80.9074 121.264 81.204 121.104 81.4972C120.947 81.7869 120.869 82.0136 120.869 82.1773C120.869 82.4773 120.945 82.7551 121.099 83.0108C121.256 83.2665 121.474 83.471 121.753 83.6244C122.036 83.7778 122.367 83.8545 122.745 83.8545C123.134 83.8545 123.512 83.771 123.881 83.604C124.252 83.4335 124.588 83.1898 124.888 82.8727C125.191 82.5557 125.432 82.1756 125.609 81.7324C125.786 81.2892 125.875 80.7932 125.875 80.2443H127.256C127.256 80.9193 127.179 81.4903 127.025 81.9574C126.872 82.421 126.686 82.7994 126.468 83.0926C126.253 83.3824 126.05 83.6091 125.86 83.7727C125.798 83.8273 125.74 83.8818 125.686 83.9364C125.631 83.9909 125.573 84.0455 125.512 84.1C125.157 84.458 124.728 84.7222 124.223 84.8926C123.722 85.0631 123.228 85.1483 122.74 85.1483Z" fill="black"/>
<path d="M132.374 75.8875V74.5273H140.479V75.8875H137.212V85H135.637V75.8875H132.374Z" fill="black"/>
<path d="M144.336 85.1585C143.562 85.1585 142.896 84.9932 142.337 84.6625C141.781 84.3284 141.351 83.8597 141.048 83.2562C140.748 82.6494 140.598 81.9386 140.598 81.1239C140.598 80.3193 140.748 79.6102 141.048 78.9966C141.351 78.3829 141.774 77.904 142.316 77.5597C142.862 77.2153 143.499 77.0432 144.229 77.0432C144.672 77.0432 145.101 77.1165 145.517 77.2631C145.933 77.4097 146.307 77.6398 146.637 77.9534C146.968 78.267 147.229 78.6744 147.42 79.1756C147.611 79.6733 147.706 80.2784 147.706 80.9909V81.533H141.462V80.3875H146.208C146.208 79.9852 146.126 79.629 145.962 79.3187C145.799 79.0051 145.569 78.7579 145.272 78.5773C144.979 78.3966 144.634 78.3063 144.239 78.3063C143.809 78.3063 143.434 78.4119 143.114 78.6233C142.797 78.8313 142.551 79.104 142.378 79.4415C142.207 79.7756 142.122 80.1386 142.122 80.5307V81.4256C142.122 81.9506 142.214 82.3972 142.398 82.7653C142.586 83.1335 142.846 83.4148 143.18 83.6091C143.515 83.8 143.905 83.8955 144.351 83.8955C144.641 83.8955 144.905 83.8545 145.144 83.7727C145.383 83.6875 145.589 83.5614 145.763 83.3943C145.937 83.2273 146.07 83.021 146.162 82.7756L147.609 83.0364C147.493 83.4625 147.285 83.8358 146.985 84.1562C146.688 84.4733 146.315 84.7205 145.865 84.8977C145.419 85.0716 144.909 85.1585 144.336 85.1585Z" fill="black"/>
<path d="M152.653 85.1585C151.893 85.1585 151.239 84.9864 150.69 84.642C150.144 84.2943 149.725 83.8153 149.432 83.2051C149.139 82.5949 148.992 81.896 148.992 81.1085C148.992 80.3108 149.142 79.6068 149.442 78.9966C149.742 78.3829 150.165 77.904 150.71 77.5597C151.256 77.2153 151.898 77.0432 152.638 77.0432C153.235 77.0432 153.766 77.154 154.234 77.3756C154.701 77.5938 155.077 77.9006 155.364 78.296C155.653 78.6915 155.826 79.1534 155.88 79.6818H154.392C154.31 79.3136 154.123 78.9966 153.83 78.7307C153.54 78.4648 153.151 78.3318 152.664 78.3318C152.237 78.3318 151.864 78.4443 151.544 78.6693C151.227 78.8909 150.98 79.208 150.802 79.6205C150.625 80.0295 150.536 80.5136 150.536 81.0727C150.536 81.6455 150.623 82.1398 150.797 82.5557C150.971 82.9716 151.216 83.2937 151.534 83.5222C151.854 83.7506 152.231 83.8648 152.664 83.8648C152.953 83.8648 153.216 83.8119 153.451 83.7063C153.69 83.5972 153.889 83.442 154.049 83.2409C154.213 83.0398 154.327 82.7977 154.392 82.5148H155.88C155.826 83.0227 155.66 83.4761 155.384 83.875C155.108 84.2739 154.738 84.5875 154.274 84.8159C153.814 85.0443 153.274 85.1585 152.653 85.1585Z" fill="black"/>
<path d="M158.987 80.3364V85H157.458V74.5273H158.966V78.4239H159.063C159.247 78.0011 159.529 77.6653 159.907 77.4165C160.285 77.1676 160.78 77.0432 161.39 77.0432C161.929 77.0432 162.399 77.154 162.801 77.3756C163.207 77.5972 163.521 77.9278 163.742 78.3676C163.967 78.804 164.08 79.3494 164.08 80.004V85H162.551V80.1881C162.551 79.6119 162.402 79.1653 162.106 78.8483C161.809 78.5278 161.397 78.3676 160.868 78.3676C160.507 78.3676 160.183 78.4443 159.897 78.5977C159.614 78.7511 159.391 78.9761 159.227 79.2727C159.067 79.5659 158.987 79.9205 158.987 80.3364Z" fill="black"/>
</svg>
