<svg fill="none" height="53" viewBox="0 0 124 53" width="124" xmlns="http://www.w3.org/2000/svg"><path d="m2.36396 2.40206-1.33734-.81403.28508 1.53943 3.5 18.90004.33683 1.8188.95171-1.5862 4.05086-6.7513 8.1187-2.0297 1.6248-.4062-1.4306-.8708z" fill="#0fa658" stroke="#fff" stroke-width="1.4"/><path d="m20.2002 28.2h103.2v24.6h-103.2z" fill="#0fa658"/><path d="m27.1561 46h6.5625v-1.2031h-5.2063v-9.9969h-1.3562zm11.0363.1969c1.4657 0 2.2313-.7875 2.4938-1.3344h.0656v1.1375h1.2906v-5.5344c0-2.6687-2.0343-2.975-3.1062-2.975-1.2688 0-2.7125.4375-3.3688 1.9688l1.225.4375c.2844-.6125.9571-1.2688 2.1875-1.2688 1.1867 0 1.7719.6289 1.7719 1.7063v.0437c0 .6235-.6344.5688-2.1656.7657-1.5586.2023-3.2594.5468-3.2594 2.4718 0 1.6406 1.2688 2.5813 2.8656 2.5813zm.1969-1.1594c-1.0281 0-1.7719-.4594-1.7719-1.3563 0-.9843.8969-1.2906 1.9032-1.4218.5468-.0656 2.0125-.2188 2.2312-.4813v1.1813c0 1.05-.8312 2.0781-2.3625 2.0781zm7.3764-4.0906c0-1.4657.9078-2.2969 2.1438-2.2969 1.1976 0 1.925.782 1.925 2.1v5.25h1.2906v-5.3375c0-2.1438-1.143-3.1719-2.8438-3.1719-1.2687 0-2.0562.5688-2.45 1.4219h-.1093v-1.3125h-1.2469v8.4h1.2906zm10.2667 5.25c1.4656 0 2.2312-.7875 2.4937-1.3344h.0656v1.1375h1.2907v-5.5344c0-2.6687-2.0344-2.975-3.1063-2.975-1.2687 0-2.7125.4375-3.3687 1.9688l1.225.4375c.2843-.6125.957-1.2688 2.1875-1.2688 1.1867 0 1.7718.6289 1.7718 1.7063v.0437c0 .6235-.6343.5688-2.1656.7657-1.5586.2023-3.2594.5468-3.2594 2.4718 0 1.6406 1.2688 2.5813 2.8657 2.5813zm.1968-1.1594c-1.0281 0-1.7718-.4594-1.7718-1.3563 0-.9843.8968-1.2906 1.9031-1.4218.5469-.0656 2.0125-.2188 2.2312-.4813v1.1813c0 1.05-.8312 2.0781-2.3625 2.0781zm16.7941-7.4375h1.3125c-.0602-1.6898-1.6188-2.9531-3.7844-2.9531-2.1437 0-3.8281 1.2469-3.8281 3.1281 0 1.5094 1.0937 2.4063 2.8437 2.9094l1.3782.3937c1.1812.3281 2.2312.7438 2.2312 1.8594 0 1.225-1.1812 2.0344-2.7344 2.0344-1.3343 0-2.5156-.5907-2.625-1.8594h-1.4c.1313 1.8375 1.6188 3.0844 4.025 3.0844 2.5813 0 4.0469-1.4219 4.0469-3.2375 0-2.1-1.9906-2.7781-3.15-3.0844l-1.1375-.3063c-.8312-.2187-2.1656-.6562-2.1656-1.8593 0-1.0719.9844-1.8594 2.4719-1.8594 1.3562 0 2.3843.6453 2.5156 1.75zm7.2506 0h-1.7937v-2.0125h-1.2907v2.0125h-1.2687v1.0937h1.2687v5.25c0 1.4657 1.1813 2.1657 2.275 2.1657.4813 0 .7875-.0875.9625-.1532l-.2625-1.1593c-.1093.0219-.2843.0656-.5687.0656-.5688 0-1.1156-.175-1.1156-1.2687v-4.9001h1.7937zm5.4501 8.575c1.7062 0 2.9531-.8531 3.3468-2.1219l-1.2468-.35c-.3282.875-1.0883 1.3125-2.1 1.3125-1.5149 0-2.5594-.9789-2.6196-2.7781h6.0977v-.5469c0-3.1281-1.8594-4.2-3.6094-4.2-2.275 0-3.7844 1.7938-3.7844 4.375 0 2.5813 1.4875 4.3094 3.9157 4.3094zm-2.6196-5.0531c.0875-1.3071 1.0117-2.4719 2.4883-2.4719 1.4 0 2.2969 1.05 2.2969 2.4719zm8.138 4.8781h1.2906v-8.4h-1.2906zm.6562-9.8c.5031 0 .9188-.3937.9188-.875 0-.4812-.4157-.875-.9188-.875s-.9187.3938-.9187.875c0 .4813.4156.875.9187.875zm4.3659 4.7469c0-1.4657.9078-2.2969 2.1437-2.2969 1.1977 0 1.9248.782 1.9248 2.1v5.25h1.291v-5.3375c0-2.1438-1.143-3.1719-2.8439-3.1719-1.2687 0-2.0562.5688-2.45 1.4219h-.1094v-1.3125h-1.2468v8.4h1.2906zm11.3165 5.2281c1.706 0 2.953-.8531 3.347-2.1219l-1.247-.35c-.328.875-1.088 1.3125-2.1 1.3125-1.515 0-2.559-.9789-2.619-2.7781h6.097v-.5469c0-3.1281-1.859-4.2-3.609-4.2-2.275 0-3.784 1.7938-3.784 4.375 0 2.5813 1.487 4.3094 3.915 4.3094zm-2.619-5.0531c.087-1.3071 1.011-2.4719 2.488-2.4719 1.4 0 2.297 1.05 2.297 2.4719zm8.138 4.8781h1.29v-5.3156c0-1.1375.897-1.9688 2.122-1.9688.345 0 .7.0657.788.0875v-1.3125c-.148-.0109-.487-.0219-.679-.0219-1.006 0-1.881.5688-2.187 1.4001h-.088v-1.2688h-1.246z" fill="#fff"/></svg>