<svg xmlns="http://www.w3.org/2000/svg" width="165" height="48" fill="#181d27" xmlns:v="https://vecta.io/nano"><path d="M120.276 34.359h3.78V12.661h-3.78v21.697z"/><path fill-rule="evenodd" d="M99.438 34.138c.821.342 1.657.512 2.506.512 1.403 0 2.659-.342 3.766-1.025s1.966-1.625 2.576-2.825c.609-1.209.914-2.58.914-4.112s-.314-2.903-.942-4.113-1.5-2.146-2.617-2.811c-1.117-.674-2.386-1.006-3.808-.997a6.63 6.63 0 0 0-2.603.526c-.831.351-1.523.849-2.077 1.495l-.124.149v-8.263h-3.794v21.684h3.766l-.007-2.026.312.35c.6.618 1.311 1.103 2.132 1.454zm3.877-3.503c-.619.379-1.325.568-2.119.568-.784 0-1.504-.194-2.16-.582-.655-.397-1.177-.937-1.565-1.62-.378-.683-.568-1.458-.568-2.326-.009-.868.176-1.643.554-2.326.388-.692.909-1.228 1.565-1.606.655-.388 1.38-.577 2.174-.568.794-.009 1.5.176 2.119.554.628.369 1.107.9 1.44 1.592.341.683.512 1.468.512 2.354s-.171 1.671-.512 2.354a3.8 3.8 0 0 1-1.44 1.606z"/><path d="M49.373 13.978h4.32l3.864 14.113 4.111-14.113h3.6l4.459 13.83 3.711-13.83h3.96L71.555 34.36H67.83l-4.534-13.511-4.162 13.511h-3.766l-5.995-20.382z"/><path fill-rule="evenodd" d="M83.777 34.72c-1.504.009-2.862-.323-4.071-.997-1.2-.683-2.146-1.629-2.839-2.839-.683-1.209-1.025-2.589-1.025-4.14 0-1.505.351-2.866 1.052-4.085s1.652-2.169 2.852-2.852 2.538-1.025 4.015-1.025c1.662 0 3.116.369 4.362 1.108 1.255.738 2.192 1.786 2.811 3.143.628 1.348.854 2.894.678 4.639h-11.86c.033.695.207 1.327.52 1.897a3.74 3.74 0 0 0 1.468 1.468c.628.351 1.329.526 2.105.526a4.79 4.79 0 0 0 1.648-.305c.508-.203.937-.475 1.288-.817.36-.342.614-.729.761-1.163h3.96a6.44 6.44 0 0 1-1.44 2.838c-.72.822-1.625 1.463-2.714 1.925s-2.28.688-3.573.678zm-3.489-10.856a4 4 0 0 0-.46 1.246h7.862a3.52 3.52 0 0 0-.52-1.537c-.332-.545-.785-.965-1.357-1.26-.572-.305-1.218-.457-1.938-.457-.766 0-1.463.175-2.091.526s-1.126.844-1.496 1.482z"/><path d="M111.982 19.1c0-1.237.282-2.336.845-3.296.563-.969 1.352-1.721 2.367-2.257 1.025-.545 2.22-.826 3.587-.845v3.365c-.637.009-1.182.143-1.634.402-.443.249-.785.614-1.025 1.094-.221.442-.34.954-.357 1.537h2.933v3.198h-2.936v12.06h-3.78v-12.06h-2.437V19.1h2.437z"/><path fill-rule="evenodd" d="M133.666 34.692c-1.542 0-2.922-.337-4.14-1.011a7.49 7.49 0 0 1-2.853-2.825c-.683-1.209-1.024-2.58-1.024-4.112 0-1.542.341-2.917 1.024-4.126.693-1.219 1.644-2.165 2.853-2.839 1.218-.674 2.598-1.011 4.14-1.011 1.55 0 2.935.337 4.154 1.011 1.227.674 2.183 1.615 2.866 2.825s1.029 2.589 1.038 4.14c-.009 1.532-.355 2.903-1.038 4.112a7.24 7.24 0 0 1-2.852 2.825c-1.228.674-2.618 1.011-4.168 1.011zm0-3.475c.812 0 1.532-.185 2.16-.554.628-.379 1.112-.905 1.454-1.579.341-.683.512-1.463.512-2.34 0-.886-.171-1.671-.512-2.354s-.826-1.209-1.454-1.578c-.628-.378-1.348-.568-2.16-.568-.803 0-1.519.189-2.146.568-.619.369-1.099.895-1.44 1.578s-.508 1.468-.499 2.354c0 .877.171 1.657.512 2.34.351.674.831 1.2 1.44 1.579.619.369 1.33.554 2.133.554z"/><path d="M145.809 19.1h-4.21l4.556 15.259h3.683l2.996-9.746 3.235 9.746h3.628l4.569-15.259h-3.808l-2.591 9.498-2.864-9.498h-3.683l-2.851 9.707-2.66-9.707z"/><path fill-rule="evenodd" d="M43.897 10L29.89 37.382H16.733l5.862-11.348h-.263C17.496 32.311 10.281 36.444 0 37.382V26.191s6.577-.388 10.443-4.453H0V10h11.737v9.654l.264-.001L16.797 10h8.877v9.592h.263L30.913 10h12.984z"/></svg>