<svg xmlns="http://www.w3.org/2000/svg" width="146" height="48" fill="#181d27" xmlns:v="https://vecta.io/nano"><path d="M104.227 23.688a11.81 11.81 0 0 0-.741-2.753c-.791-1.961-2.292-3.075-4.406-3.284-2.195-.218-4.743.839-5.624 3.195-.091.239-.437.201-.471-.053l-.296-2.341c-.015-.123-.12-.211-.241-.211h-3.829c-.163 0-.281.156-.234.313.16.556.342 1.08.407 1.619l.249 3.343.013 14.686a15.61 15.61 0 0 1-.123 1.883c-.044.359-.141.71-.234 1.082-.038.154.078.304.236.304h4.792c.169 0 .283-.165.228-.328-.914-2.656-.631-5.327-.623-7.981 0-.224.279-.332.426-.163l.509.619c1.811 1.974 4.963 2.365 7.148.896 1.22-.822 1.904-2.062 2.333-3.423.762-2.426.842-4.911.485-7.402m-4.963 6.494c-.177.545-.414 1.099-.743 1.566-.855 1.222-2.432 1.388-3.532.378-.367-.336-.665-.78-.901-1.223-.49-.917-.654-1.934-.754-2.958-.137-1.445-.141-2.889.222-4.305.154-.602.382-1.204.697-1.737.566-.957 1.465-1.416 2.584-1.344 1.051.068 1.75.668 2.202 1.595.395.807.576 1.674.648 2.555.044.556.008 1.118.008 1.676.051 1.285-.03 2.567-.428 3.795m-36.93-1.5l-.08-4.964c-.038-.828-.194-1.665-.395-2.474-.443-1.805-1.647-2.87-3.428-3.301-.407-.097-.823-.156-1.239-.201-2.44-.254-4.843.099-7.222.433a.23.23 0 0 0-.177.123c-.536.966-1.566 3.371-1.946 4.484-.07.205.146.393.342.296l.46-.224c1.664-.792 3.359-1.505 5.193-1.809.834-.14 1.672-.173 2.495.066.838.241 1.478.748 1.678 1.616.106.448.082.925.095 1.427.002.144-.12.258-.264.247l-.232-.019c-1.442-.125-2.882-.165-4.317.099-1.608.3-3.084.881-4.33 1.978-2.664 2.35-2.037 6.815 1.003 8.275 1.55.744 3.198.856 4.832.387 1.518-.45 2.457-1.536 3.084-2.937.011-.021.019-.044.027-.066.089-.232.431-.19.471.057l.376 2.403c.019.118.123.207.241.207h3.762c.163 0 .281-.158.234-.315-.741-2.426-.595-3.163-.659-5.786m-5.172 2.031c-.543.968-1.296 1.699-2.438 1.921-1.19.228-2.267-.454-2.514-1.646-.304-1.483.068-2.787 1.231-3.785 1.25-1.076 2.732-1.439 4.406-1.372.127.004.226.108.234.235.076 1.669-.114 3.218-.918 4.645v.002zm-40.85-12.497h5.107c.171 0 .289.173.226.332-.089.226-.173.446-.211.672-.169 1.01-.393 2.022-.424 3.037l-.032 6.574a3.57 3.57 0 0 0 .093.761c.378 1.741 2.029 2.468 3.546 1.53a3.62 3.62 0 0 0 1.773-3.09l-.127-6.99c-.042-.839-.298-1.665-.492-2.517-.034-.154.08-.3.236-.3h4.965c.165 0 .285.161.232.319-.26.767-.54 2.703-.551 3.766l-.108 4.461.127 4.036c.036.623.114 1.219.272 1.826l.281.921.338.892c.065.161-.059.334-.232.334H27.03c-.123 0-.224-.091-.241-.209-.173-1.281-.251-3.882-.251-3.882l-.085-.015-.135.501-.422 1.616c-.509 1.414-1.507 2.24-2.981 2.489-1.231.207-2.457.18-3.644-.3-.984-.399-1.682-1.071-2.073-2.05-.321-.814-.422-1.667-.424-2.536l-.021-6.925c-.019-1.116-.112-2.236-.251-3.343-.067-.535-.249-1.052-.409-1.595-.047-.156.07-.315.234-.315m99.346 0h5.106c.171 0 .29.173.226.332-.088.226-.173.446-.211.672-.169 1.01-.392 2.022-.424 3.037l-.032 6.574c0 .254.038.511.093.761.378 1.741 2.029 2.468 3.547 1.53 1.129-.699 1.745-1.805 1.773-3.089l-.127-6.99c-.042-.839-.297-1.665-.492-2.517-.033-.154.081-.3.237-.3h4.965c.164 0 .285.161.232.319-.26.767-.54 2.703-.551 3.766l-.108 4.461.127 4.036c.036.623.114 1.219.272 1.826l.281.921.338.892c.065.16-.059.334-.232.334h-4.311c-.122 0-.224-.091-.241-.209-.173-1.281-.251-3.882-.251-3.882l-.084-.015-.133.501-.422 1.616c-.507 1.414-1.508 2.24-2.981 2.489-1.231.207-2.457.18-3.644-.3-.983-.399-1.682-1.071-2.073-2.05-.321-.814-.422-1.667-.424-2.536l-.021-6.925c-.019-1.116-.112-2.236-.251-3.343-.068-.535-.25-1.052-.41-1.595-.046-.156.07-.315.234-.315M14.254 21.145c-.663-1.456-1.761-2.462-3.266-2.969a10.4 10.4 0 0 0-2.246-.471c-3.618-.359-6.835 1.424-8.081 4.979-.937 2.671-.872 5.372.152 8.011a6.91 6.91 0 0 0 3.764 3.947c1.642.725 3.373.904 5.138.659 2.459-.347 4.23-1.955 4.868-4.361.061-.226-.196-.402-.384-.258-.764.592-1.351.894-1.946 1.122-1.729.661-3.481.706-5.085-.385-1.395-.947-1.961-2.377-2.28-4.017-.03-.148.089-.287.239-.287h9.489c.125 0 .232-.095.243-.22.207-1.999.236-3.913-.6-5.748l-.004-.002zm-9.312 4.357c-.131 0-.241-.106-.243-.237-.034-1.399.146-2.696.861-3.871.624-1.024 1.549-1.538 2.76-1.394.998.116 1.718.697 2.198 1.553.64 1.137.857 2.375.899 3.702.004.137-.108.252-.243.252H4.943v-.004zm138.971-7.133l.695 3.275c.044.211-.188.374-.369.256l-.235-.146c-1.8-1.12-3.753-1.743-5.881-1.762-.391-.004-.798.051-1.167.173-1.075.359-1.364 1.543-.549 2.341.376.366.854.651 1.332.873l2.641 1.105 2.975 1.532c1.65 1.052 2.421 2.603 2.212 4.583-.224 2.113-1.372 3.51-3.347 4.248-.993.37-2.027.522-3.081.543-1.847.038-3.678-.146-5.502-.423-.314-.048-.555-.112-.65-.501l-1.024-3.975c-.057-.218.186-.387.37-.264.952.636 2.938 1.929 3.918 2.312 1.009.393 2.045.666 3.134.585.492-.036 1.007-.139 1.451-.344 1.093-.505 1.237-1.955.285-2.694-.396-.306-.861-.539-1.33-.729l-3.319-1.293c-.841-.38-1.688-.814-2.421-1.373-1.655-1.264-2.25-2.969-2.043-4.939.107-1.018.855-2.318 1.712-2.88 1.025-.67 2.18-.949 3.369-1.065 2.212-.218 4.403-.032 6.624.37.098.017.175.093.196.19m-38.468-.451l4.748-3.844c.158-.129.399-.017.399.188v3.662a.25.25 0 0 0 .236.247l2.943.019c.131.002.238.112.238.247v1.483c0 .133-.109.243-.242.243H110.9c-.12 0-.219.084-.24.201-.022.125-.043.226-.043.33v9.446c0 .279.017.568.095.828.344 1.156 1.668 1.469 2.487.581.108-.116.201-.252.285-.391.114-.188.401-.135.445.082.408 1.961-.954 3.909-3.071 4.129-.46.047-.937.051-1.393-.021-1.712-.281-2.751-1.483-2.992-3.409-.067-.554-.094-1.116-.097-1.676l-.004-8.465-.004-.7c-.036-1.319-.192-1.822-.975-2.842a.24.24 0 0 1 .042-.336"/><path d="M69.525 34.782c-.504 0-1.501-.004-2.531 0h-.044c-1.03-.004-2.026 0-2.531 0-.154 0-.255-.18-.211-.33.154-.509.336-1.016.392-1.536.351-1.648.268-13.285.258-16.559 0-2.472-.69-4.319-.979-4.985-.061-.142.019-.302.171-.336l4.733-1.029c.154-.034.298.085.298.241v.585c.002 5.114-.222 19.426.266 22.083.082.642.239 1.027.393 1.536.044.148-.059.33-.211.33h-.002zm4.137 7.104l-2.586-3.871c-.116-.173.028-.406.234-.378l.872.099c2.352.207 4.205-.678 5.634-2.54.112-.146.019-.364-.165-.387H76.29c-.089 0-.156-.074-.188-.154l-.194-.528-4.205-13.186c-.255-.807-.587-1.57-1.155-2.272-.131-.161-.021-.402.186-.402h5.514c.158 0 .272.148.236.302l-.186.866c-.133.94.004 1.864.296 2.76l2.801 8.537c.074.224.393.222.462-.002l2.554-8.003c.416-1.352.541-2.722.135-4.14-.047-.159.067-.317.232-.317h4.009c.192 0 .31.211.205.376-.382.6-.952 1.743-1.186 2.474L81.76 33.624c-.771 2.324-1.621 3.808-3.323 5.623-1.528 1.631-2.107 2.162-4.074 2.667a4.37 4.37 0 0 1-.462.085c-.095.015-.19-.028-.241-.106M43.211 22.844c-.232-.581-.456-1.186-.813-1.689-1.201-1.682-3.629-1.523-4.668.268-.38.659-.574 1.382-.648 2.126-.141 1.469-.146 2.935.247 4.374.141.513.317 1.027.549 1.505 1.535 3.185 4.477 3.582 7.188 1.726l.631-.507c.188-.159.418.019.391.264-.363 3.17-2.898 4.438-5.486 4.507-1.056.03-2.092-.074-3.099-.414-2.094-.71-3.555-2.128-4.37-4.157-1.038-2.576-1.15-5.228-.302-7.872 1.009-3.146 3.247-4.843 6.5-5.224 1.858-.218 3.675-.036 5.398.742.418.19.806.448 1.243.712.112.068.154.209.093.328l-2.124 4.093c-.097.19-.374.171-.446-.03l-.281-.759"/></svg>