<svg xmlns="http://www.w3.org/2000/svg" width="250" height="54" xmlns:v="https://vecta.io/nano"><style><![CDATA[.B{fill-rule:nonzero}.C{font-family:Helvetica-Bold, Helvetica}]]></style><g fill="none" fill-rule="evenodd"><rect stroke="#ff6154" fill="#fff" x=".5" y=".5" width="249" height="53" rx="10"/><text font-size="9" font-weight="bold" fill="#ff6154" class="C"><tspan x="53" y="20">PRODUCT HUNT</tspan></text><text font-size="16" font-weight="bold" fill="#ff6154" class="C"><tspan x="52" y="40">#1 Product of the Day</tspan></text><path d="M21.33 29.364L17.328 37.9c-.125.258.007.42.428.339l3.258-.708c.064-.023.136-.017.196.015s.104.088.121.154l1.467 3.008c.14.324.302.391.428.133l4.261-8.934-6.155-2.543zm12.34 0l4.003 8.536c.133.258-.007.42-.428.339l-3.258-.708c-.064-.022-.135-.016-.195.016a.25.25 0 0 0-.122.153l-1.467 3.008c-.14.324-.295.391-.428.133l-4.261-8.934 6.155-2.543z" fill="#de7818" class="B"/><path d="M26.298 34.392c0 .007-.015 0-.029 0a10.44 10.44 0 0 1-5.971-2.742c-.007-.007-.029-.015-.022-.022l.184-.391c.007-.015.022.022.029.029 1.577 1.467 3.767 2.388 6.008 2.661.007 0 .022 0 .022.007l-.221.457z" fill="#b35454" class="B"/><circle fill="#f0cd0a" cx="27.5" cy="23.489" r="10.489" class="B"/><circle fill="#d2b309" cx="27.5" cy="23.489" r="9.045" class="B"/><circle fill="#e3c101" cx="27.75" cy="23.75" r="8.75" class="B"/><path d="M27.45 27.755h2.15V19.3h-2.15l-2.15 1.465v1.852l2.039-1.377h.111z" fill="#fff2b5"/><g class="B"><path d="M29.969 16.089c3.357.801 5.753 3.763 5.836 7.213s-2.168 6.523-5.482 7.485c2.034-1.555 3.383-4.209 3.383-7.224 0-3.184-1.504-5.963-3.737-7.475z" fill-opacity=".2" fill="#fff"/><path d="M28.702 34.392c.007.007.022 0 .029 0 2.293-.287 4.401-1.209 5.986-2.727.007-.007.029-.015.022-.022l-.184-.391c-.007-.015-.022.022-.029.029-1.577 1.467-3.774 2.374-6.022 2.646-.007 0-.022 0-.022.007l.221.457z" fill="#b35454"/></g></g></svg>