<svg xmlns="http://www.w3.org/2000/svg" width="250" height="54" fill="none" fill-rule="evenodd" xmlns:v="https://vecta.io/nano"><rect stroke="#ff6154" fill="#fff" x=".5" y=".5" width="249" height="53" rx="10"/><text font-family="Helvetica-Bold, Helvetica" font-size="9" font-weight="bold" fill="#ff6154"><tspan x="53" y="20">PRODUCT HUNT</tspan></text><text font-family="Helvetica-Bold, Helvetica" font-size="16" font-weight="bold" fill="#ff6154"><tspan x="52" y="40">#1 Product of the Week</tspan></text><g fill-rule="nonzero"><path d="M20.163 13.217h15.673a.54.54 0 0 1 .549.532v.728a.54.54 0 0 1-.549.532H20.163a.54.54 0 0 1-.549-.532v-.728a.54.54 0 0 1 .549-.532z" fill="#f0cd0a"/><path d="M20.743 15.01h14.514v9.347c0 .36-.309.493-.603.665l-6.67 3.836-6.639-3.836c-.294-.172-.603-.305-.603-.665V15.01z" fill="#c75c5c"/><path d="M20.743 15.01h3.903v11.923l-3.3-1.91c-.294-.172-.603-.305-.603-.665V15.01zm10.611 0h3.903v9.347c0 .36-.309.493-.603.665l-3.3 1.902V15.01z" fill="#4f5d73"/><ellipse fill="#f0cd0a" cx="28" cy="32.005" rx="8.88" ry="8.995"/><ellipse fill="#d2b309" cx="28" cy="32.005" rx="7.659" ry="7.758"/><ellipse fill="#e3c101" cx="28" cy="32.005" rx="7.412" ry="7.507"/><path d="M26.624 30.51l-.811.016a10.29 10.29 0 0 0-1.538.125.86.86 0 0 0-.286.125c-.091.056-.151.151-.162.258v.078a.89.89 0 0 0 .24.462l1.778 1.386-.332 1.127-.162.564c-.093.258-.135.532-.124.806a.4.4 0 0 0 .379.415 1.09 1.09 0 0 0 .641-.266l.549-.384.672-.47c.047-.034.096-.065.147-.094.356-.251.185-.251.68.078l1.507 1.041c.394.172.765.102.765-.337-.006-.362-.077-.72-.209-1.057l-.417-1.425a1.56 1.56 0 0 1 .27-.211l1.352-1.057c.237-.137.387-.389.394-.665-.02-.102-.078-.192-.162-.251-.286-.211-.726-.157-1.028-.211-.108-.023-1.515-.055-1.615-.055-.008-.078-.193-.564-.24-.697l-.51-1.378c-.402-.822-.904-.407-1.152.329l-.626 1.746z" fill="#fff2b5"/><path d="M30.087 25.656c2.843.685 4.874 3.225 4.944 6.184s-1.836 5.596-4.643 6.419c1.723-1.331 2.86-3.609 2.86-6.192 0-2.724-1.267-5.112-3.161-6.411z" fill-opacity=".2" fill="#fff"/><g fill="#1a1a1a"><path fill-opacity=".149" d="M20.743 15.01h14.514v.579H20.743z"/><path d="M28 23.01c2.229-.003 4.377.847 6.015 2.379l.338-.195a8.82 8.82 0 0 0-12.729-.016l.363.209c1.637-1.531 3.785-2.381 6.013-2.378z" fill-opacity=".102"/></g></g></svg>