<svg fill="none" height="32" viewBox="0 0 32 32" width="32" xmlns="http://www.w3.org/2000/svg"><g fill="#fff"><path d="m8 8.25v15.5c0 .6989 0 1.0484.11418 1.324.15224.3676.44425.6596.8118.8118.27565.1142.62511.1142 1.32402.1142.6989 0 1.0484 0 1.324-.1142.3676-.1522.6596-.4442.8118-.8118.1142-.2756.1142-.6251.1142-1.324v-15.5c0-.69891 0-1.04837-.1142-1.32403-.1522-.36754-.4442-.65955-.8118-.81179-.2756-.11418-.6251-.11418-1.324-.11418-.69891 0-1.04837 0-1.32403.11418-.36754.15224-.65955.44425-.81179.81179-.11418.27566-.11418.62512-.11418 1.32403z"/><path d="m19.5 8.25v15.5c0 .6989 0 1.0484.1142 1.324.1522.3676.4442.6596.8118.8118.2756.1142.6251.1142 1.324.1142s1.0484 0 1.324-.1142c.3676-.1522.6596-.4442.8118-.8118.1142-.2756.1142-.6251.1142-1.324v-15.5c0-.69891 0-1.04837-.1142-1.32403-.1522-.36754-.4442-.65955-.8118-.81179-.2756-.11418-.6251-.11418-1.324-.11418s-1.0484 0-1.324.11418c-.3676.15224-.6596.44425-.8118.81179-.1142.27566-.1142.62512-.1142 1.32403z"/></g></svg>