<svg fill="none" height="48" viewBox="0 0 185 48" width="185" xmlns="http://www.w3.org/2000/svg" xmlns:xlink="http://www.w3.org/1999/xlink"><filter id="a" color-interpolation-filters="sRGB" filterUnits="userSpaceOnUse" height="54" width="48" x="0" y="-3"><feFlood flood-opacity="0" result="BackgroundImageFix"/><feBlend in="SourceGraphic" in2="BackgroundImageFix" mode="normal" result="shape"/><feColorMatrix in="SourceAlpha" result="hardAlpha" type="matrix" values="0 0 0 0 0 0 0 0 0 0 0 0 0 0 0 0 0 0 127 0"/><feOffset dy="-3"/><feGaussianBlur stdDeviation="1.5"/><feComposite in2="hardAlpha" k2="-1" k3="1" operator="arithmetic"/><feColorMatrix type="matrix" values="0 0 0 0 0 0 0 0 0 0 0 0 0 0 0 0 0 0 0.1 0"/><feBlend in2="shape" mode="normal" result="effect1_innerShadow_3046_38781"/><feColorMatrix in="SourceAlpha" result="hardAlpha" type="matrix" values="0 0 0 0 0 0 0 0 0 0 0 0 0 0 0 0 0 0 127 0"/><feOffset dy="3"/><feGaussianBlur stdDeviation="1.5"/><feComposite in2="hardAlpha" k2="-1" k3="1" operator="arithmetic"/><feColorMatrix type="matrix" values="0 0 0 0 1 0 0 0 0 1 0 0 0 0 1 0 0 0 0.1 0"/><feBlend in2="effect1_innerShadow_3046_38781" mode="normal" result="effect2_innerShadow_3046_38781"/><feColorMatrix in="SourceAlpha" result="hardAlpha" type="matrix" values="0 0 0 0 0 0 0 0 0 0 0 0 0 0 0 0 0 0 127 0"/><feMorphology in="SourceAlpha" operator="erode" radius="1" result="effect3_innerShadow_3046_38781"/><feOffset/><feComposite in2="hardAlpha" k2="-1" k3="1" operator="arithmetic"/><feColorMatrix type="matrix" values="0 0 0 0 0.0627451 0 0 0 0 0.0941176 0 0 0 0 0.156863 0 0 0 0.24 0"/><feBlend in2="effect2_innerShadow_3046_38781" mode="normal" result="effect3_innerShadow_3046_38781"/></filter><filter id="b" color-interpolation-filters="sRGB" filterUnits="userSpaceOnUse" height="42" width="42" x="3" y="5.25"><feFlood flood-opacity="0" result="BackgroundImageFix"/><feColorMatrix in="SourceAlpha" result="hardAlpha" type="matrix" values="0 0 0 0 0 0 0 0 0 0 0 0 0 0 0 0 0 0 127 0"/><feMorphology in="SourceAlpha" operator="erode" radius="1.5" result="effect1_dropShadow_3046_38781"/><feOffset dy="2.25"/><feGaussianBlur stdDeviation="2.25"/><feComposite in2="hardAlpha" operator="out"/><feColorMatrix type="matrix" values="0 0 0 0 0.141176 0 0 0 0 0.141176 0 0 0 0 0.141176 0 0 0 0.1 0"/><feBlend in2="BackgroundImageFix" mode="normal" result="effect1_dropShadow_3046_38781"/><feBlend in="SourceGraphic" in2="effect1_dropShadow_3046_38781" mode="normal" result="shape"/></filter><linearGradient id="c" gradientUnits="userSpaceOnUse" x1="24" x2="26" y1=".000001" y2="48"><stop offset="0" stop-color="#fff" stop-opacity="0"/><stop offset="1" stop-color="#fff" stop-opacity=".12"/></linearGradient><linearGradient id="d" gradientUnits="userSpaceOnUse" x1="24" x2="24" y1="14.3" y2="32.5307"><stop offset="0" stop-color="#fff" stop-opacity=".8"/><stop offset="1" stop-color="#fff" stop-opacity=".5"/></linearGradient><linearGradient id="e" gradientUnits="userSpaceOnUse" x1="24" x2="24" y1="0" y2="48"><stop offset="0" stop-color="#fff" stop-opacity=".12"/><stop offset="1" stop-color="#fff" stop-opacity="0"/></linearGradient><clipPath id="f"><rect height="48" rx="12" width="48"/></clipPath><g filter="url(#a)"><g clip-path="url(#f)"><rect fill="#dd2590" height="48" rx="12" width="48"/><path d="m0 0h48v48h-48z" fill="url(#c)"/><g filter="url(#b)"><path clip-rule="evenodd" d="m18.131 27.5402 3.4266 3.4266c2.0852 2.0852 5.4661 2.0852 7.5514 0 .6877-.6877 1.1486-1.5164 1.3827-2.393l2.393 2.393c2.0852 2.0852 5.4661 2.0852 7.5514 0 2.0852-2.0853 2.0852-5.4662 0-7.5514l-7.5514-7.5514c-2.0853-2.0853-5.4662-2.0853-7.5514 0-.6877.6877-1.1487 1.5164-1.3828 2.393l-2.3929-2.393c-2.0853-2.0853-5.4662-2.0853-7.5514 0l-6.21418 6.2142c-2.38936 2.3893-2.38936 6.2632 0 8.6526 2.38938 2.3894 6.26328 2.3894 8.65268 0 .9045-.9045 1.4666-2.0217 1.6863-3.1906zm1.5387-9.7884c-1.0426-1.0426-2.733-1.0426-3.7757 0-1.0421 1.0422-1.0426 2.7317-.0013 3.7744l7.5527 7.5527c1.0427 1.0427 2.7331 1.0427 3.7757 0 1.0421-1.042 1.0427-2.7312.0017-3.774zm-5.1129 6.2142-2.4385-2.4385-2.43843 2.4385c-1.34673 1.3467-1.34673 3.5302 0 4.877 1.34673 1.3467 3.53023 1.3467 4.87693 0 1.3467-1.3468 1.3467-3.5303 0-4.877zm12.6621-2.4407c-1.0404-1.0428-1.0397-2.7316.0022-3.7735 1.0426-1.0426 2.7331-1.0426 3.7757 0l7.5514 7.5514c1.0426 1.0427 1.0426 2.7331 0 3.7757-1.0426 1.0427-2.7331 1.0427-3.7757 0z" fill="url(#d)" fill-rule="evenodd"/></g></g><rect height="46" rx="11" stroke="url(#e)" stroke-width="2" width="46" x="1" y="1"/></g><g fill="#fff"><path d="m64.553 32.9998h-4.553v-21.46h4.553l6.38 14.008 6.409-14.008h4.611v21.46h-4.553v-4.495c0-4.64 0-5.655.232-7.25l-4.553 9.745h-4.292l-4.524-9.745c.261 1.595.29 3.393.29 5.742z"/><path d="m90.2509 33.3768c-3.074 0-4.988-1.798-4.988-4.64 0-2.668 1.885-4.321 5.365-4.582l4.06-.319v-.232c0-1.421-.87-2.175-2.465-2.175-1.885 0-2.9.725-2.9 2.03h-3.712c0-3.277 2.697-5.423 6.844-5.423 4.205 0 6.583 2.349 6.583 6.496v8.468h-3.944l-.29-1.914c-.464 1.334-2.3781 2.291-4.553 2.291zm1.566-3.306c1.711 0 2.9-.841 2.9-2.494v-.783l-2.262.203c-1.943.174-2.639.609-2.639 1.537 0 1.044.638 1.537 2.001 1.537z"/><path d="m101.516 25.4888c0-4.408 2.871-7.482 6.96-7.482 1.972 0 3.538.754 4.321 1.943l.232-1.45h4.205v13.572c0 5.191-2.987 8.323-7.946 8.323-4.437 0-7.424-2.523-7.83-6.641h4.524c.087 1.624 1.305 2.581 3.277 2.581 2.146 0 3.509-1.276 3.509-3.335v-1.885c-.87 1.044-2.494 1.711-4.379 1.711-4.06 0-6.873-2.987-6.873-7.337zm4.495-.116c0 2.088 1.392 3.567 3.364 3.567 2.03 0 3.393-1.421 3.393-3.567 0-2.117-1.363-3.48-3.422-3.48-1.972 0-3.335 1.421-3.335 3.48z"/><path d="m125.059 32.9998h-4.466v-14.5h4.205l.29 1.508c.899-1.247 2.552-1.972 4.437-1.972 3.451 0 5.452 2.204 5.452 6.003v8.961h-4.466v-7.888c0-1.827-1.015-3.016-2.552-3.016-1.769 0-2.9 1.16-2.9 2.958z"/><path d="m137.396 25.7208c0-4.582 3.364-7.656 8.004-7.656 4.611 0 7.975 3.074 7.975 7.656s-3.364 7.627-7.975 7.627c-4.64 0-8.004-3.045-8.004-7.627zm4.495-.029c0 2.204 1.421 3.654 3.509 3.654 2.059 0 3.48-1.45 3.48-3.654 0-2.175-1.421-3.625-3.48-3.625-2.088 0-3.509 1.45-3.509 3.625z"/><path d="m160.431 32.9998h-4.466v-21.866h4.466z"/><path d="m165.985 16.2378c-1.421 0-2.552-1.131-2.552-2.552s1.131-2.523 2.552-2.523c1.392 0 2.523 1.102 2.523 2.523s-1.131 2.552-2.523 2.552zm-2.204 16.762v-14.5h4.466v14.5z"/><path d="m175.976 33.3768c-3.074 0-4.988-1.798-4.988-4.64 0-2.668 1.885-4.321 5.365-4.582l4.06-.319v-.232c0-1.421-.87-2.175-2.465-2.175-1.885 0-2.9.725-2.9 2.03h-3.712c0-3.277 2.697-5.423 6.844-5.423 4.205 0 6.583 2.349 6.583 6.496v8.468h-3.944l-.29-1.914c-.464 1.334-2.378 2.291-4.553 2.291zm1.566-3.306c1.711 0 2.9-.841 2.9-2.494v-.783l-2.262.203c-1.943.174-2.639.609-2.639 1.537 0 1.044.638 1.537 2.001 1.537z"/></g></svg>