<svg fill="none" height="48" viewBox="0 0 167 48" width="167" xmlns="http://www.w3.org/2000/svg" xmlns:xlink="http://www.w3.org/1999/xlink"><filter id="a" color-interpolation-filters="sRGB" filterUnits="userSpaceOnUse" height="54" width="48" x="0" y="-3"><feFlood flood-opacity="0" result="BackgroundImageFix"/><feBlend in="SourceGraphic" in2="BackgroundImageFix" mode="normal" result="shape"/><feColorMatrix in="SourceAlpha" result="hardAlpha" type="matrix" values="0 0 0 0 0 0 0 0 0 0 0 0 0 0 0 0 0 0 127 0"/><feOffset dy="-3"/><feGaussianBlur stdDeviation="1.5"/><feComposite in2="hardAlpha" k2="-1" k3="1" operator="arithmetic"/><feColorMatrix type="matrix" values="0 0 0 0 0 0 0 0 0 0 0 0 0 0 0 0 0 0 0.1 0"/><feBlend in2="shape" mode="normal" result="effect1_innerShadow_3046_38796"/><feColorMatrix in="SourceAlpha" result="hardAlpha" type="matrix" values="0 0 0 0 0 0 0 0 0 0 0 0 0 0 0 0 0 0 127 0"/><feOffset dy="3"/><feGaussianBlur stdDeviation="1.5"/><feComposite in2="hardAlpha" k2="-1" k3="1" operator="arithmetic"/><feColorMatrix type="matrix" values="0 0 0 0 1 0 0 0 0 1 0 0 0 0 1 0 0 0 0.1 0"/><feBlend in2="effect1_innerShadow_3046_38796" mode="normal" result="effect2_innerShadow_3046_38796"/><feColorMatrix in="SourceAlpha" result="hardAlpha" type="matrix" values="0 0 0 0 0 0 0 0 0 0 0 0 0 0 0 0 0 0 127 0"/><feMorphology in="SourceAlpha" operator="erode" radius="1" result="effect3_innerShadow_3046_38796"/><feOffset/><feComposite in2="hardAlpha" k2="-1" k3="1" operator="arithmetic"/><feColorMatrix type="matrix" values="0 0 0 0 0.0627451 0 0 0 0 0.0941176 0 0 0 0 0.156863 0 0 0 0.24 0"/><feBlend in2="effect2_innerShadow_3046_38796" mode="normal" result="effect3_innerShadow_3046_38796"/></filter><filter id="b" color-interpolation-filters="sRGB" filterUnits="userSpaceOnUse" height="42" width="36" x="6" y="5.25"><feFlood flood-opacity="0" result="BackgroundImageFix"/><feColorMatrix in="SourceAlpha" result="hardAlpha" type="matrix" values="0 0 0 0 0 0 0 0 0 0 0 0 0 0 0 0 0 0 127 0"/><feMorphology in="SourceAlpha" operator="erode" radius="1.5" result="effect1_dropShadow_3046_38796"/><feOffset dy="2.25"/><feGaussianBlur stdDeviation="2.25"/><feComposite in2="hardAlpha" operator="out"/><feColorMatrix type="matrix" values="0 0 0 0 0.141176 0 0 0 0 0.141176 0 0 0 0 0.141176 0 0 0 0.1 0"/><feBlend in2="BackgroundImageFix" mode="normal" result="effect1_dropShadow_3046_38796"/><feBlend in="SourceGraphic" in2="effect1_dropShadow_3046_38796" mode="normal" result="shape"/></filter><linearGradient id="c" gradientUnits="userSpaceOnUse" x1="24" x2="26" y1=".000001" y2="48"><stop offset="0" stop-color="#fff" stop-opacity="0"/><stop offset="1" stop-color="#fff" stop-opacity=".12"/></linearGradient><linearGradient id="d"><stop offset="0" stop-color="#fff" stop-opacity=".8"/><stop offset="1" stop-color="#fff" stop-opacity=".5"/></linearGradient><linearGradient id="e" gradientUnits="userSpaceOnUse" x1="23.9968" x2="23.9968" xlink:href="#d" y1="9" y2="38.9936"/><linearGradient id="f" gradientUnits="userSpaceOnUse" x1="33.7122" x2="28.0565" xlink:href="#d" y1="28.2131" y2="33.8688"/><linearGradient id="g" gradientUnits="userSpaceOnUse" x1="24" x2="24" y1="0" y2="48"><stop offset="0" stop-color="#fff" stop-opacity=".12"/><stop offset="1" stop-color="#fff" stop-opacity="0"/></linearGradient><clipPath id="h"><rect height="48" rx="12" width="48"/></clipPath><g filter="url(#a)"><g clip-path="url(#h)"><rect fill="#6938ef" height="48" rx="12" width="48"/><path d="m0 0h48v48h-48z" fill="url(#c)"/><g filter="url(#b)"><path clip-rule="evenodd" d="m23.9968 32.495c4.6934 0 8.4982-3.8048 8.4982-8.4982s-3.8048-8.4982-8.4982-8.4982-8.4982 3.8048-8.4982 8.4982 3.8048 8.4982 8.4982 8.4982zm0 6.4986c8.2825 0 14.9968-6.7143 14.9968-14.9968s-6.7143-14.9968-14.9968-14.9968-14.9968 6.7143-14.9968 14.9968 6.7143 14.9968 14.9968 14.9968z" fill="url(#e)" fill-rule="evenodd"/><path d="m24.1683 24.3249c1.5617-1.5618 4.0939-1.5618 5.6556 0l7.7765 7.7765c1.5618 1.5618 1.5618 4.0939 0 5.6556-1.5617 1.5618-4.0939 1.5618-5.6556 0l-7.7765-7.7765c-1.5618-1.5617-1.5618-4.0938 0-5.6556z" fill="url(#f)"/></g></g><rect height="46" rx="11" stroke="url(#g)" stroke-width="2" width="46" x="1" y="1"/></g><g fill="#fff"><path d="m123.488 13.3438c.63 0 1.152.207 1.566.621.432.396.648.9.648 1.5119 0 .6121-.216 1.1251-.648 1.5391-.414.414-.936.621-1.566.621s-1.152-.207-1.566-.621-.621-.927-.621-1.5391c0-.6119.207-1.1159.621-1.5119.414-.414.936-.621 1.566-.621z"/><path d="m117.033 32.9998c-2.646 0-3.969-1.323-3.969-3.969v-6.696h-2.295v-3.213h2.295v-3.8881h3.807v3.8881h8.534v13.878h-3.834v-10.665h-4.7v6.075c0 .486.099.837.297 1.053.216.216.567.324 1.053.324h1.971v3.213z"/><path clip-rule="evenodd" d="m76.5773 32.7028c.432.198 1.026.297 1.782.297h1.944v-3.429h-1.863c-.234 0-.441-.045-.621-.135 1.188-1.674 1.782-3.636 1.782-5.886 0-1.818-.396-3.456-1.188-4.914-.792-1.476-1.899-2.628-3.321-3.456s-3.042-1.242-4.86-1.242-3.438.414-4.86 1.242-2.529 1.98-3.321 3.456c-.792 1.458-1.188 3.096-1.188 4.914s.396 3.465 1.188 4.941c.792 1.458 1.899 2.601 3.321 3.429 1.422.8279 3.042 1.242 4.86 1.242 1.962 0 3.69-.477 5.184-1.431.36.45.747.774 1.161.972zm-10.935-5.967c-.432-.936-.648-1.998-.648-3.186s.216-2.25.648-3.186 1.044-1.665 1.836-2.187c.792-.54 1.71-.8101 2.754-.8101 1.026 0 1.935.2701 2.727.8101.792.522 1.404 1.251 1.836 2.187s.648 1.998.648 3.186c0 .972-.144 1.854-.432 2.646l-.432-.567c-.378-.486-.756-.837-1.134-1.053s-.927-.324-1.647-.324h-2.052v3.429h1.755c.288 0 .531.072.729.216.198.126.405.333.621.621l.27.324c-.846.594-1.809.891-2.889.891-1.044 0-1.962-.261-2.754-.783-.792-.54-1.404-1.278-1.836-2.214z" fill-rule="evenodd"/><path d="m90.7434 31.3258.351 1.674h3.375v-13.878h-3.807v6.831c0 1.278-.261 2.277-.783 2.997-.522.702-1.26 1.053-2.214 1.053-.918 0-1.602-.3151-2.052-.945-.432-.648-.648-1.602-.648-2.862v-7.074h-3.807v7.533c0 2.34.513 4.014 1.539 5.022 1.026.99 2.349 1.485 3.969 1.485.936 0 1.728-.162 2.376-.486s1.215-.774 1.701-1.35z"/><path clip-rule="evenodd" d="m127.817 22.3348c-.576 1.062-.864 2.3129-.864 3.753 0 1.422.297 2.673.891 3.753.612 1.062 1.476 1.881 2.592 2.457 1.134.576 2.475.864 4.023.864 1.188 0 2.241-.207 3.159-.621.918-.432 1.656-1.017 2.214-1.755s.909-1.566 1.053-2.484h-3.753c-.162.648-.504 1.1429-1.026 1.485-.504.324-1.143.486-1.917.486-.972 0-1.737-.288-2.295-.864s-.882-1.368-.972-2.376v-.108h10.071c.072-.378.108-.81.108-1.296-.018-1.35-.333-2.52-.945-3.51-.594-1.008-1.431-1.782-2.511-2.322-1.062-.558-2.295-.837-3.699-.837-1.386 0-2.61.297-3.672.891-1.044.576-1.863 1.404-2.457 2.484zm8.424.162c.576.45.927 1.098 1.053 1.944h-6.291c.108-.81.441-1.449.999-1.917.576-.486 1.278-.729 2.106-.729.864 0 1.575.234 2.133.702z" fill-rule="evenodd"/><path d="m150.607 18.9598c1.62 0 2.952.504 3.996 1.512s1.566 2.673 1.566 4.995v7.533h-3.807v-7.317c0-2.394-.936-3.591-2.808-3.591-.99 0-1.755.333-2.295.999s-.81 1.602-.81 2.808v7.101h-3.807v-13.878h3.321l.351 1.728c.486-.594 1.071-1.053 1.755-1.3771.684-.342 1.53-.5129 2.538-.5129z"/><path d="m163.023 29.4628c-.198-.216-.297-.567-.297-1.053v-6.075h3.274v-3.213h-3.274v-3.8881h-3.807v3.8881h-2.295v3.213h2.295v6.696c0 2.646 1.323 3.969 3.969 3.969h3.159v-3.213h-1.971c-.486 0-.837-.108-1.053-.324z"/><path d="m99.4931 22.6978c.7369.3805 1.5499.6354 2.4359.7645-.886.1332-1.699.396-2.4359.7885-1.098.576-1.953 1.404-2.565 2.484-.594 1.08-.891 2.322-.891 3.726 0 .9151.1262 1.7615.3786 2.539h4.1713c-.441-.6842-.6619-1.5306-.6619-2.539 0-1.188.3059-2.151.9179-2.889.63-.738 1.467-1.107 2.511-1.107 1.062 0 1.899.369 2.511 1.107.63.738.945 1.701.945 2.889 0 1.0084-.227 1.8548-.681 2.539h4.16c.255-.7752.382-1.6215.382-2.539 0-1.404-.306-2.646-.918-3.726-.594-1.08-1.449-1.908-2.565-2.484-.725-.3925-1.529-.6553-2.412-.7885.883-.1291 1.687-.384 2.412-.7645 1.116-.594 1.971-1.422 2.565-2.484.197-.3471.362-.7117.495-1.094h-4.202c-.057.0789-.117.1556-.181.23-.612.738-1.449 1.107-2.511 1.107-1.044 0-1.881-.369-2.511-1.107-.062-.0744-.12-.1511-.176-.23h-4.2112c.1281.3716.2855.7273.4723 1.067.612 1.08 1.467 1.917 2.565 2.511z"/></g></svg>