<svg fill="none" height="48" viewBox="0 0 162 48" width="162" xmlns="http://www.w3.org/2000/svg" xmlns:xlink="http://www.w3.org/1999/xlink"><filter id="a" color-interpolation-filters="sRGB" filterUnits="userSpaceOnUse" height="54" width="48" x="0" y="-3"><feFlood flood-opacity="0" result="BackgroundImageFix"/><feBlend in="SourceGraphic" in2="BackgroundImageFix" mode="normal" result="shape"/><feColorMatrix in="SourceAlpha" result="hardAlpha" type="matrix" values="0 0 0 0 0 0 0 0 0 0 0 0 0 0 0 0 0 0 127 0"/><feOffset dy="-3"/><feGaussianBlur stdDeviation="1.5"/><feComposite in2="hardAlpha" k2="-1" k3="1" operator="arithmetic"/><feColorMatrix type="matrix" values="0 0 0 0 0 0 0 0 0 0 0 0 0 0 0 0 0 0 0.1 0"/><feBlend in2="shape" mode="normal" result="effect1_innerShadow_3046_38725"/><feColorMatrix in="SourceAlpha" result="hardAlpha" type="matrix" values="0 0 0 0 0 0 0 0 0 0 0 0 0 0 0 0 0 0 127 0"/><feOffset dy="3"/><feGaussianBlur stdDeviation="1.5"/><feComposite in2="hardAlpha" k2="-1" k3="1" operator="arithmetic"/><feColorMatrix type="matrix" values="0 0 0 0 1 0 0 0 0 1 0 0 0 0 1 0 0 0 0.1 0"/><feBlend in2="effect1_innerShadow_3046_38725" mode="normal" result="effect2_innerShadow_3046_38725"/><feColorMatrix in="SourceAlpha" result="hardAlpha" type="matrix" values="0 0 0 0 0 0 0 0 0 0 0 0 0 0 0 0 0 0 127 0"/><feMorphology in="SourceAlpha" operator="erode" radius="1" result="effect3_innerShadow_3046_38725"/><feOffset/><feComposite in2="hardAlpha" k2="-1" k3="1" operator="arithmetic"/><feColorMatrix type="matrix" values="0 0 0 0 0.0627451 0 0 0 0 0.0941176 0 0 0 0 0.156863 0 0 0 0.24 0"/><feBlend in2="effect2_innerShadow_3046_38725" mode="normal" result="effect3_innerShadow_3046_38725"/></filter><filter id="b" color-interpolation-filters="sRGB" filterUnits="userSpaceOnUse" height="42" width="36" x="6" y="5.25"><feFlood flood-opacity="0" result="BackgroundImageFix"/><feColorMatrix in="SourceAlpha" result="hardAlpha" type="matrix" values="0 0 0 0 0 0 0 0 0 0 0 0 0 0 0 0 0 0 127 0"/><feMorphology in="SourceAlpha" operator="erode" radius="1.5" result="effect1_dropShadow_3046_38725"/><feOffset dy="2.25"/><feGaussianBlur stdDeviation="2.25"/><feComposite in2="hardAlpha" operator="out"/><feColorMatrix type="matrix" values="0 0 0 0 0.141176 0 0 0 0 0.141176 0 0 0 0 0.141176 0 0 0 0.1 0"/><feBlend in2="BackgroundImageFix" mode="normal" result="effect1_dropShadow_3046_38725"/><feBlend in="SourceGraphic" in2="effect1_dropShadow_3046_38725" mode="normal" result="shape"/></filter><linearGradient id="c" gradientUnits="userSpaceOnUse" x1="24" x2="26" y1=".000001" y2="48"><stop offset="0" stop-color="#fff" stop-opacity="0"/><stop offset="1" stop-color="#fff" stop-opacity=".12"/></linearGradient><linearGradient id="d"><stop offset="0" stop-color="#fff" stop-opacity=".8"/><stop offset="1" stop-color="#fff" stop-opacity=".5"/></linearGradient><linearGradient id="e" gradientUnits="userSpaceOnUse" x1="31.3081" x2="27.5474" xlink:href="#d" y1="8.50673" y2="22.5418"/><linearGradient id="f" gradientUnits="userSpaceOnUse" x1="24.6947" x2="20.4639" xlink:href="#d" y1="14.3909" y2="30.1804"/><linearGradient id="g" gradientUnits="userSpaceOnUse" x1="18.0814" x2="13.3805" xlink:href="#d" y1="20.2751" y2="37.819"/><linearGradient id="h" gradientUnits="userSpaceOnUse" x1="24" x2="24" y1="0" y2="48"><stop offset="0" stop-color="#fff" stop-opacity=".12"/><stop offset="1" stop-color="#fff" stop-opacity="0"/></linearGradient><clipPath id="i"><rect height="48" rx="12" width="48"/></clipPath><g filter="url(#a)"><g clip-path="url(#i)"><rect fill="#444ce7" height="48" rx="12" width="48"/><path d="m0 0h48v48h-48z" fill="url(#c)"/><g clip-rule="evenodd" fill-rule="evenodd" filter="url(#b)"><path d="m34.9406 12.3006-7.2651-1.9467c-.5015-.1344-.9081.1776-.9081.6968v7.5214c0 .5193.4066 1.0491.9081 1.1835l7.2651 1.9467c.5015.1344.9081-.1776.9081-.6968v-7.5214c0-.5193-.4066-1.0491-.9081-1.1835zm-7.2651-4.7672c-2.0062-.53756-3.6325.71037-3.6325 2.7873v7.5214c0 2.077 1.6263 4.1965 3.6325 4.734l7.2651 1.9467c2.0062.5376 3.6325-.7104 3.6325-2.7873v-7.5214c0-2.077-1.6263-4.1965-3.6325-4.73403z" fill="url(#e)" opacity=".5"/><path d="m29.2354 18.4281-9.0814-2.4333c-.5015-.1344-.9081.1776-.9081.6968v9.4017c0 .5193.4066 1.0491.9081 1.1835l9.0814 2.4334c.5015.1344.9081-.1776.9081-.6969v-9.4017c0-.5192-.4066-1.0491-.9081-1.1835zm-9.0814-5.2538c-2.0062-.5376-3.6325.7103-3.6325 2.7873v9.4017c0 2.077 1.6263 4.1965 3.6325 4.734l9.0814 2.4334c2.0062.5375 3.6325-.7104 3.6325-2.7874v-9.4017c0-2.0769-1.6263-4.1964-3.6325-4.734z" fill="url(#f)" opacity=".7"/><path d="m23.5302 24.5557-10.8977-2.9201c-.5015-.1343-.9081.1776-.9081.6969v11.282c0 .5193.4066 1.0491.9081 1.1835l10.8977 2.92c.5015.1344.9081-.1775.9081-.6968v-11.282c0-.5193-.4066-1.0492-.9081-1.1835zm-10.8977-5.7406c-2.0062-.5375-3.6325.7104-3.6325 2.7874v11.282c0 2.077 1.6263 4.1965 3.6325 4.7341l10.8977 2.92c2.0062.5375 3.6325-.7104 3.6325-2.7874v-11.282c0-2.077-1.6263-4.1965-3.6325-4.7341z" fill="url(#g)"/></g></g><rect height="46" rx="11" stroke="url(#h)" stroke-width="2" width="46" x="1" y="1"/></g><g fill="#fff"><path d="m63.64 32.6079c1.1387.5227 2.4453.784 3.92.784s2.7627-.252 3.864-.756c1.12-.5227 1.988-1.2507 2.604-2.184.616-.952.924-2.0627.924-3.332v-.336c0-1.176-.2707-2.128-.812-2.856-.5413-.7467-1.232-1.2973-2.072-1.652-.8213-.3547-1.6707-.532-2.548-.532h-1.036v-.448l5.908-3.136v-4.76h-13.888v3.192h9.912v.448l-6.328 3.36v3.92h3.92c.6347 0 1.204.0933 1.708.28.504.168.9053.4387 1.204.812s.448.8587.448 1.456v.28c0 .8773-.336 1.6053-1.008 2.184-.6533.5787-1.5867.868-2.8.868-1.1947 0-2.156-.308-2.884-.924-.728-.6347-1.092-1.4747-1.092-2.52v-.392h-3.584v.504c0 1.344.3173 2.5107.952 3.5.6533.9707 1.5493 1.7173 2.688 2.24z"/><path clip-rule="evenodd" d="m87.8432 14.1559c-.9334-.504-2.016-.756-3.248-.756h-8.064v19.6h3.696v-7.168h4.368c1.1946 0 2.2586-.2427 3.192-.728.952-.504 1.6986-1.204 2.24-2.1.56-.9147.84-1.9787.84-3.192v-.392c0-1.232-.2707-2.296-.812-3.192-.5227-.896-1.26-1.5867-2.212-2.072zm-1.484 7.588c-.5414.4853-1.2507.728-2.128.728h-4.004v-5.712h4.004c.8773 0 1.5866.2427 2.128.728.5413.4853.812 1.148.812 1.988v.28c0 .84-.2707 1.5027-.812 1.988z" fill-rule="evenodd"/><path clip-rule="evenodd" d="m98.4215 33.3919c-1.3814 0-2.6227-.28-3.724-.84-1.1014-.56-1.9694-1.372-2.604-2.436-.6347-1.064-.952-2.3427-.952-3.836v-.448c0-1.4933.3173-2.772.952-3.836.6346-1.064 1.5026-1.876 2.604-2.436 1.1013-.56 2.3426-.84 3.724-.84 1.3813 0 2.6225.28 3.7235.84 1.102.56 1.97 1.372 2.604 2.436.635 1.064.952 2.3427.952 3.836v.448c0 1.4933-.317 2.772-.952 3.836-.634 1.064-1.502 1.876-2.604 2.436-1.101.56-2.3422.84-3.7235.84zm0-3.136c1.0826 0 1.9785-.3453 2.6875-1.036.71-.7093 1.064-1.7173 1.064-3.024v-.28c0-1.3067-.354-2.3053-1.064-2.996-.69-.7093-1.5862-1.064-2.6875-1.064-1.0827 0-1.9787.3547-2.688 1.064-.7094.6907-1.064 1.6893-1.064 2.996v.28c0 1.3067.3546 2.3147 1.064 3.024.7093.6907 1.6053 1.036 2.688 1.036z" fill-rule="evenodd"/><path d="m112.542 19.4479c-.467.2613-.803.672-1.008 1.232h-.504v-1.568h-3.472v13.888h3.528v-7.896c0-.9893.289-1.7173.868-2.184.579-.4853 1.316-.728 2.212-.728h1.736v-.002h3.598v7.674c0 .952.28 1.7173.84 2.296.578.56 1.325.84 2.24.84h3.92v-2.912h-2.688c-.523 0-.784-.28-.784-.84v-7.058h3.808v-3.13h-3.808v-4.26h-3.528v4.26h-3.598v-.004h-1.68c-.635 0-1.195.1307-1.68.392z"/><path clip-rule="evenodd" d="m130.281 32.8879c.784.336 1.671.504 2.66.504.971 0 1.736-.14 2.296-.42s.971-.5973 1.232-.952c.261-.3733.429-.672.504-.896h.532v.028c0 .56.224 1.008.672 1.344s1.017.504 1.708.504h2.352v-2.912h-1.12c-.523 0-.784-.28-.784-.84v-5.18c0-1.736-.532-3.0613-1.596-3.976s-2.511-1.372-4.34-1.372c-1.195 0-2.212.1867-3.052.56-.821.3547-1.484.8307-1.988 1.428-.485.5787-.84 1.2227-1.064 1.932l3.248 1.092c.131-.6347.411-1.148.84-1.54.429-.4107 1.083-.616 1.96-.616.896 0 1.549.2147 1.96.644.411.4107.616.9427.616 1.596v.784h-3.808c-1.045 0-1.979.168-2.8.504-.803.3173-1.437.8027-1.904 1.456-.448.6347-.672 1.428-.672 2.38s.224 1.764.672 2.436c.467.6533 1.092 1.1573 1.876 1.512zm5.684-3.164c-.616.5413-1.419.812-2.408.812-.747 0-1.316-.1587-1.708-.476s-.588-.728-.588-1.232.187-.896.56-1.176.887-.42 1.54-.42h3.556v.28c0 .9147-.317 1.652-.952 2.212z" fill-rule="evenodd"/><path d="m150.77 32.2159c1.157.784 2.641 1.176 4.452 1.176 1.773 0 3.183-.392 4.228-1.176 1.064-.8027 1.596-1.932 1.596-3.388 0-.9707-.252-1.736-.756-2.296-.485-.5787-1.157-1.0173-2.016-1.316-.84-.3173-1.783-.5693-2.828-.756l-.784-.14c-.635-.112-1.139-.2707-1.512-.476-.373-.224-.56-.56-.56-1.008 0-.4107.177-.728.532-.952.355-.2427.868-.364 1.54-.364s1.232.1493 1.68.448c.467.2987.775.8027.924 1.512l3.276-1.008c-.317-1.12-.989-2.0253-2.016-2.716s-2.315-1.036-3.864-1.036c-1.643 0-2.968.3733-3.976 1.12-1.008.728-1.512 1.7827-1.512 3.164 0 .9147.243 1.6613.728 2.24s1.129 1.036 1.932 1.372c.803.3173 1.689.5693 2.66.756l.784.14c.821.1493 1.419.3453 1.792.588.373.224.56.5507.56.98s-.196.7933-.588 1.092c-.392.28-.999.42-1.82.42-.541 0-1.045-.0747-1.512-.224-.448-.168-.831-.4387-1.148-.812-.299-.3733-.513-.8867-.644-1.54l-3.248.84c.243 1.456.943 2.576 2.1 3.36z"/><path d="m143.417 32.9999v-19.6h3.528v19.6z"/></g></svg>