<svg fill="none" height="48" viewBox="0 0 48 48" width="48" xmlns="http://www.w3.org/2000/svg" xmlns:xlink="http://www.w3.org/1999/xlink"><filter id="a" color-interpolation-filters="sRGB" filterUnits="userSpaceOnUse" height="54" width="48" x="0" y="-3"><feFlood flood-opacity="0" result="BackgroundImageFix"/><feBlend in="SourceGraphic" in2="BackgroundImageFix" mode="normal" result="shape"/><feColorMatrix in="SourceAlpha" result="hardAlpha" type="matrix" values="0 0 0 0 0 0 0 0 0 0 0 0 0 0 0 0 0 0 127 0"/><feOffset dy="-3"/><feGaussianBlur stdDeviation="1.5"/><feComposite in2="hardAlpha" k2="-1" k3="1" operator="arithmetic"/><feColorMatrix type="matrix" values="0 0 0 0 0 0 0 0 0 0 0 0 0 0 0 0 0 0 0.1 0"/><feBlend in2="shape" mode="normal" result="effect1_innerShadow_3051_46959"/><feColorMatrix in="SourceAlpha" result="hardAlpha" type="matrix" values="0 0 0 0 0 0 0 0 0 0 0 0 0 0 0 0 0 0 127 0"/><feOffset dy="3"/><feGaussianBlur stdDeviation="1.5"/><feComposite in2="hardAlpha" k2="-1" k3="1" operator="arithmetic"/><feColorMatrix type="matrix" values="0 0 0 0 1 0 0 0 0 1 0 0 0 0 1 0 0 0 0.1 0"/><feBlend in2="effect1_innerShadow_3051_46959" mode="normal" result="effect2_innerShadow_3051_46959"/><feColorMatrix in="SourceAlpha" result="hardAlpha" type="matrix" values="0 0 0 0 0 0 0 0 0 0 0 0 0 0 0 0 0 0 127 0"/><feMorphology in="SourceAlpha" operator="erode" radius="1" result="effect3_innerShadow_3051_46959"/><feOffset/><feComposite in2="hardAlpha" k2="-1" k3="1" operator="arithmetic"/><feColorMatrix type="matrix" values="0 0 0 0 0.0627451 0 0 0 0 0.0941176 0 0 0 0 0.156863 0 0 0 0.24 0"/><feBlend in2="effect2_innerShadow_3051_46959" mode="normal" result="effect3_innerShadow_3051_46959"/></filter><filter id="b" color-interpolation-filters="sRGB" filterUnits="userSpaceOnUse" height="42" width="42" x="3" y="5.25"><feFlood flood-opacity="0" result="BackgroundImageFix"/><feColorMatrix in="SourceAlpha" result="hardAlpha" type="matrix" values="0 0 0 0 0 0 0 0 0 0 0 0 0 0 0 0 0 0 127 0"/><feMorphology in="SourceAlpha" operator="erode" radius="1.5" result="effect1_dropShadow_3051_46959"/><feOffset dy="2.25"/><feGaussianBlur stdDeviation="2.25"/><feComposite in2="hardAlpha" operator="out"/><feColorMatrix type="matrix" values="0 0 0 0 0.141176 0 0 0 0 0.141176 0 0 0 0 0.141176 0 0 0 0.1 0"/><feBlend in2="BackgroundImageFix" mode="normal" result="effect1_dropShadow_3051_46959"/><feBlend in="SourceGraphic" in2="effect1_dropShadow_3051_46959" mode="normal" result="shape"/></filter><linearGradient id="c" gradientUnits="userSpaceOnUse" x1="24" x2="26" y1=".000001" y2="48"><stop offset="0" stop-color="#fff" stop-opacity="0"/><stop offset="1" stop-color="#fff" stop-opacity=".12"/></linearGradient><linearGradient id="d" gradientUnits="userSpaceOnUse" x1="24" x2="24" y1="14.3" y2="32.5307"><stop offset="0" stop-color="#fff" stop-opacity=".8"/><stop offset="1" stop-color="#fff" stop-opacity=".5"/></linearGradient><linearGradient id="e" gradientUnits="userSpaceOnUse" x1="24" x2="24" y1="0" y2="48"><stop offset="0" stop-color="#fff" stop-opacity=".12"/><stop offset="1" stop-color="#fff" stop-opacity="0"/></linearGradient><clipPath id="f"><rect height="48" rx="12" width="48"/></clipPath><g filter="url(#a)"><g clip-path="url(#f)"><rect fill="#dd2590" height="48" rx="12" width="48"/><path d="m0 0h48v48h-48z" fill="url(#c)"/><g filter="url(#b)"><path clip-rule="evenodd" d="m18.131 27.5402 3.4266 3.4266c2.0852 2.0852 5.4661 2.0852 7.5514 0 .6877-.6877 1.1486-1.5164 1.3827-2.393l2.393 2.393c2.0852 2.0852 5.4661 2.0852 7.5514 0 2.0852-2.0853 2.0852-5.4662 0-7.5514l-7.5514-7.5514c-2.0853-2.0853-5.4662-2.0853-7.5514 0-.6877.6877-1.1487 1.5164-1.3828 2.393l-2.3929-2.393c-2.0853-2.0853-5.4662-2.0853-7.5514 0l-6.21418 6.2142c-2.38936 2.3893-2.38936 6.2632 0 8.6526 2.38938 2.3894 6.26328 2.3894 8.65268 0 .9045-.9045 1.4666-2.0217 1.6863-3.1906zm1.5387-9.7884c-1.0426-1.0426-2.733-1.0426-3.7757 0-1.0421 1.0422-1.0426 2.7317-.0013 3.7744l7.5527 7.5527c1.0427 1.0427 2.7331 1.0427 3.7757 0 1.0421-1.042 1.0427-2.7312.0017-3.774zm-5.1129 6.2142-2.4385-2.4385-2.43843 2.4385c-1.34673 1.3467-1.34673 3.5302 0 4.877 1.34673 1.3467 3.53023 1.3467 4.87693 0 1.3467-1.3468 1.3467-3.5303 0-4.877zm12.6621-2.4407c-1.0404-1.0428-1.0397-2.7316.0022-3.7735 1.0426-1.0426 2.7331-1.0426 3.7757 0l7.5514 7.5514c1.0426 1.0427 1.0426 2.7331 0 3.7757-1.0426 1.0427-2.7331 1.0427-3.7757 0z" fill="url(#d)" fill-rule="evenodd"/></g></g><rect height="46" rx="11" stroke="url(#e)" stroke-width="2" width="46" x="1" y="1"/></g></svg>