<svg fill="none" height="48" viewBox="0 0 230 48" width="230" xmlns="http://www.w3.org/2000/svg" xmlns:xlink="http://www.w3.org/1999/xlink"><filter id="a" color-interpolation-filters="sRGB" filterUnits="userSpaceOnUse" height="54" width="48" x="0" y="-3"><feFlood flood-opacity="0" result="BackgroundImageFix"/><feBlend in="SourceGraphic" in2="BackgroundImageFix" mode="normal" result="shape"/><feColorMatrix in="SourceAlpha" result="hardAlpha" type="matrix" values="0 0 0 0 0 0 0 0 0 0 0 0 0 0 0 0 0 0 127 0"/><feOffset dy="-3"/><feGaussianBlur stdDeviation="1.5"/><feComposite in2="hardAlpha" k2="-1" k3="1" operator="arithmetic"/><feColorMatrix type="matrix" values="0 0 0 0 0 0 0 0 0 0 0 0 0 0 0 0 0 0 0.1 0"/><feBlend in2="shape" mode="normal" result="effect1_innerShadow_3046_38740"/><feColorMatrix in="SourceAlpha" result="hardAlpha" type="matrix" values="0 0 0 0 0 0 0 0 0 0 0 0 0 0 0 0 0 0 127 0"/><feOffset dy="3"/><feGaussianBlur stdDeviation="1.5"/><feComposite in2="hardAlpha" k2="-1" k3="1" operator="arithmetic"/><feColorMatrix type="matrix" values="0 0 0 0 1 0 0 0 0 1 0 0 0 0 1 0 0 0 0.1 0"/><feBlend in2="effect1_innerShadow_3046_38740" mode="normal" result="effect2_innerShadow_3046_38740"/><feColorMatrix in="SourceAlpha" result="hardAlpha" type="matrix" values="0 0 0 0 0 0 0 0 0 0 0 0 0 0 0 0 0 0 127 0"/><feMorphology in="SourceAlpha" operator="erode" radius="1" result="effect3_innerShadow_3046_38740"/><feOffset/><feComposite in2="hardAlpha" k2="-1" k3="1" operator="arithmetic"/><feColorMatrix type="matrix" values="0 0 0 0 0.0627451 0 0 0 0 0.0941176 0 0 0 0 0.156863 0 0 0 0.24 0"/><feBlend in2="effect2_innerShadow_3046_38740" mode="normal" result="effect3_innerShadow_3046_38740"/></filter><filter id="b" color-interpolation-filters="sRGB" filterUnits="userSpaceOnUse" height="42" width="30" x="9" y="5.25"><feFlood flood-opacity="0" result="BackgroundImageFix"/><feColorMatrix in="SourceAlpha" result="hardAlpha" type="matrix" values="0 0 0 0 0 0 0 0 0 0 0 0 0 0 0 0 0 0 127 0"/><feMorphology in="SourceAlpha" operator="erode" radius="1.5" result="effect1_dropShadow_3046_38740"/><feOffset dy="2.25"/><feGaussianBlur stdDeviation="2.25"/><feComposite in2="hardAlpha" operator="out"/><feColorMatrix type="matrix" values="0 0 0 0 0.141176 0 0 0 0 0.141176 0 0 0 0 0.141176 0 0 0 0.1 0"/><feBlend in2="BackgroundImageFix" mode="normal" result="effect1_dropShadow_3046_38740"/><feBlend in="SourceGraphic" in2="effect1_dropShadow_3046_38740" mode="normal" result="shape"/></filter><linearGradient id="c" gradientUnits="userSpaceOnUse" x1="24" x2="26" y1=".000001" y2="48"><stop offset="0" stop-color="#fff" stop-opacity="0"/><stop offset="1" stop-color="#fff" stop-opacity=".12"/></linearGradient><linearGradient id="d"><stop offset="0" stop-color="#fff" stop-opacity=".8"/><stop offset="1" stop-color="#fff" stop-opacity=".5"/></linearGradient><linearGradient id="e" gradientUnits="userSpaceOnUse" x1="24" x2="24" xlink:href="#d" y1="9" y2="29"/><linearGradient id="f" gradientUnits="userSpaceOnUse" x1="24" x2="24" xlink:href="#d" y1="9" y2="39"/><linearGradient id="g" gradientUnits="userSpaceOnUse" x1="19.9308" x2="19.9308" xlink:href="#d" y1="9" y2="29"/><linearGradient id="h" gradientUnits="userSpaceOnUse" x1="24" x2="24" y1="0" y2="48"><stop offset="0" stop-color="#fff" stop-opacity=".12"/><stop offset="1" stop-color="#fff" stop-opacity="0"/></linearGradient><clipPath id="i"><rect height="48" rx="12" width="48"/></clipPath><g filter="url(#a)"><g clip-path="url(#i)"><rect fill="#ff692e" height="48" rx="12" width="48"/><path d="m0 0h48v48h-48z" fill="url(#c)"/><g filter="url(#b)"><path d="m26 29c5.5228 0 10-4.4772 10-10s-4.4772-10-10-10h-14v20z" fill="url(#e)"/><path d="m12 9 24 30h-16l-8-10z" fill="url(#f)"/><path d="m27.8616 28.827c-.6031.1136-1.2254.173-1.8616.173h-14v-20z" fill="url(#g)"/></g></g><rect height="46" rx="11" stroke="url(#h)" stroke-width="2" width="46" x="1" y="1"/></g><g fill="#fff"><path d="m69.612 33.27c-2.106 0-3.879-.405-5.319-1.215-1.422-.81-2.493-1.962-3.213-3.456-.72-1.512-1.08-3.303-1.08-5.373v-.081c0-2.196.396-4.041 1.188-5.535s1.908-2.619 3.348-3.375c1.44-.774 3.132-1.161 5.076-1.161 1.656 0 3.123.297 4.401.891 1.296.576 2.331 1.386 3.105 2.43.792 1.044 1.26 2.268 1.404 3.672h-4.536c-.234-1.044-.756-1.827-1.566-2.349-.81-.54-1.746-.81-2.808-.81-1.674 0-2.925.441-3.753 1.323-.81.882-1.215 2.016-1.215 3.402v3.078c0 1.512.441 2.682 1.323 3.51.882.81 2.097 1.215 3.645 1.215 1.08 0 2.025-.279 2.835-.837.828-.576 1.341-1.368 1.539-2.376h4.536c-.144 1.404-.621 2.637-1.431 3.699-.792 1.062-1.836 1.89-3.132 2.484-1.296.576-2.745.864-4.347.864z"/><path d="m87.096 33.27c-2.358 0-4.113-.675-5.265-2.025s-1.728-3.15-1.728-5.4v-.081c0-2.556.639-4.446 1.917-5.67 1.278-1.242 2.97-1.863 5.076-1.863 2.124 0 3.825.621 5.103 1.863 1.296 1.224 1.944 3.114 1.944 5.67v.081c-.018 2.25-.603 4.05-1.755 5.4s-2.916 2.025-5.292 2.025zm0-3.348c.918 0 1.611-.252 2.079-.756.486-.504.729-1.197.729-2.079v-2.592c0-.9-.252-1.602-.756-2.106-.486-.522-1.17-.783-2.052-.783-.864 0-1.548.261-2.052.783-.486.504-.729 1.206-.729 2.106v2.592c0 .882.234 1.575.702 2.079.486.504 1.179.756 2.079.756z"/><path d="m96.4074 33v-14.499h3.8876l.27 2.295h.243c.306-.792.837-1.413 1.593-1.863s1.629-.675 2.619-.675c1.152 0 2.115.27 2.889.81s1.296 1.269 1.566 2.187h.189c.306-.954.864-1.692 1.674-2.214s1.764-.783 2.862-.783c1.512 0 2.709.45 3.591 1.35.9.882 1.35 2.286 1.35 4.212v9.18h-4.158v-8.424c0-1.08-.216-1.836-.648-2.268-.432-.45-1.026-.675-1.782-.675-.882 0-1.557.297-2.025.891-.45.576-.675 1.359-.675 2.349v8.127h-4.158v-8.424c0-1.08-.216-1.836-.648-2.268-.414-.45-1.017-.675-1.809-.675-.882 0-1.548.297-1.998.891-.45.576-.675 1.359-.675 2.349v8.127z"/><path d="m122.235 33v-14.499h3.888l.27 2.295h.243c.306-.792.837-1.413 1.593-1.863s1.629-.675 2.619-.675c1.152 0 2.115.27 2.889.81s1.296 1.269 1.566 2.187h.189c.306-.954.864-1.692 1.674-2.214s1.764-.783 2.862-.783c1.512 0 2.709.45 3.591 1.35.9.882 1.35 2.286 1.35 4.212v9.18h-4.158v-8.424c0-1.08-.216-1.836-.648-2.268-.432-.45-1.026-.675-1.782-.675-.882 0-1.557.297-2.025.891-.45.576-.675 1.359-.675 2.349v8.127h-4.158v-8.424c0-1.08-.216-1.836-.648-2.268-.414-.45-1.017-.675-1.809-.675-.882 0-1.548.297-1.998.891-.45.576-.675 1.359-.675 2.349v8.127z"/><path d="m152.652 33.27c-1.926 0-3.33-.648-4.212-1.944-.882-1.314-1.323-3.06-1.323-5.238v-.621c0-2.538.495-4.374 1.485-5.508 1.008-1.152 2.367-1.728 4.077-1.728.954 0 1.809.216 2.565.648.756.414 1.314.999 1.674 1.755h.189l.216-2.133h3.915v14.499h-4.131v-2.133h-.189c-.36.756-.927 1.35-1.701 1.782-.756.414-1.611.621-2.565.621zm1.674-3.375c.846 0 1.521-.252 2.025-.756.504-.522.756-1.251.756-2.187v-2.376c0-.936-.252-1.665-.756-2.187s-1.179-.783-2.025-.783c-.882 0-1.566.261-2.052.783-.486.504-.729 1.215-.729 2.133v2.484c0 .918.243 1.629.729 2.133s1.17.756 2.052.756z"/><path d="m164.502 33v-14.499h3.861l.297 2.376h.243c.306-.792.837-1.431 1.593-1.917s1.656-.729 2.7-.729c1.548 0 2.772.477 3.672 1.431.9.936 1.35 2.421 1.35 4.455v8.883h-4.131v-8.343c0-1.17-.234-1.971-.702-2.403s-1.098-.648-1.89-.648c-.936 0-1.647.306-2.133.918-.468.612-.702 1.422-.702 2.43v8.046z"/><path d="m185.929 33.27c-1.944 0-3.357-.657-4.239-1.971s-1.323-3.069-1.323-5.265v-.594c0-2.52.495-4.347 1.485-5.481 1.008-1.152 2.358-1.728 4.05-1.728.954 0 1.809.216 2.565.648.774.414 1.341.999 1.701 1.755h.189v-7.317h4.158v19.683h-3.942l-.216-2.133h-.189c-.36.756-.918 1.35-1.674 1.782-.756.414-1.611.621-2.565.621zm1.647-3.375c.846 0 1.521-.261 2.025-.783s.756-1.251.756-2.187v-2.376c0-.918-.252-1.638-.756-2.16s-1.179-.783-2.025-.783c-.882 0-1.566.252-2.052.756s-.729 1.215-.729 2.133v2.511c0 .9.243 1.611.729 2.133.486.504 1.17.756 2.052.756z"/><path d="m201.64 31.679v-4.806h-4.752v-3.24h4.752v-4.779h3.321v4.779h4.752v3.24h-4.752v4.806z"/><path d="m212.434 33v-19.683h9.828c1.278 0 2.43.18 3.456.54 1.026.342 1.845.927 2.457 1.755.612.81.918 1.935.918 3.375 0 1.296-.333 2.358-.999 3.186-.648.81-1.53 1.314-2.646 1.512v.216c2.25.198 3.375 1.485 3.375 3.861v5.238h-4.482v-4.59c0-.954-.225-1.611-.675-1.971-.432-.378-1.053-.567-1.863-.567h-4.941v7.128zm8.856-15.957h-4.428v5.346h4.509c1.008 0 1.755-.189 2.241-.567.486-.396.729-.936.729-1.62v-.864c0-.828-.27-1.413-.81-1.755-.54-.36-1.287-.54-2.241-.54z"/></g></svg>