<svg fill="none" height="54" viewBox="0 0 223 54" width="223" xmlns="http://www.w3.org/2000/svg" xmlns:xlink="http://www.w3.org/1999/xlink"><filter id="a" color-interpolation-filters="sRGB" filterUnits="userSpaceOnUse" height="57" width="54" x="0" y="-3"><feFlood flood-opacity="0" result="BackgroundImageFix"/><feColorMatrix in="SourceAlpha" result="hardAlpha" type="matrix" values="0 0 0 0 0 0 0 0 0 0 0 0 0 0 0 0 0 0 127 0"/><feOffset dy="1"/><feGaussianBlur stdDeviation=".5"/><feComposite in2="hardAlpha" operator="out"/><feColorMatrix type="matrix" values="0 0 0 0 0.162923 0 0 0 0 0.162923 0 0 0 0 0.162923 0 0 0 0.08 0"/><feBlend in2="BackgroundImageFix" mode="normal" result="effect1_dropShadow_3046_38812"/><feColorMatrix in="SourceAlpha" result="hardAlpha" type="matrix" values="0 0 0 0 0 0 0 0 0 0 0 0 0 0 0 0 0 0 127 0"/><feMorphology in="SourceAlpha" operator="erode" radius="1" result="effect2_dropShadow_3046_38812"/><feOffset dy="3"/><feGaussianBlur stdDeviation="2"/><feComposite in2="hardAlpha" operator="out"/><feColorMatrix type="matrix" values="0 0 0 0 0.164706 0 0 0 0 0.164706 0 0 0 0 0.164706 0 0 0 0.14 0"/><feBlend in2="effect1_dropShadow_3046_38812" mode="normal" result="effect2_dropShadow_3046_38812"/><feBlend in="SourceGraphic" in2="effect2_dropShadow_3046_38812" mode="normal" result="shape"/><feColorMatrix in="SourceAlpha" result="hardAlpha" type="matrix" values="0 0 0 0 0 0 0 0 0 0 0 0 0 0 0 0 0 0 127 0"/><feOffset dy="-3"/><feGaussianBlur stdDeviation="1.5"/><feComposite in2="hardAlpha" k2="-1" k3="1" operator="arithmetic"/><feColorMatrix type="matrix" values="0 0 0 0 0 0 0 0 0 0 0 0 0 0 0 0 0 0 0.1 0"/><feBlend in2="shape" mode="normal" result="effect3_innerShadow_3046_38812"/><feColorMatrix in="SourceAlpha" result="hardAlpha" type="matrix" values="0 0 0 0 0 0 0 0 0 0 0 0 0 0 0 0 0 0 127 0"/><feOffset dy="3"/><feGaussianBlur stdDeviation="1.5"/><feComposite in2="hardAlpha" k2="-1" k3="1" operator="arithmetic"/><feColorMatrix type="matrix" values="0 0 0 0 1 0 0 0 0 1 0 0 0 0 1 0 0 0 0.1 0"/><feBlend in2="effect3_innerShadow_3046_38812" mode="normal" result="effect4_innerShadow_3046_38812"/><feColorMatrix in="SourceAlpha" result="hardAlpha" type="matrix" values="0 0 0 0 0 0 0 0 0 0 0 0 0 0 0 0 0 0 127 0"/><feMorphology in="SourceAlpha" operator="erode" radius="1" result="effect5_innerShadow_3046_38812"/><feOffset/><feComposite in2="hardAlpha" k2="-1" k3="1" operator="arithmetic"/><feColorMatrix type="matrix" values="0 0 0 0 0.0627451 0 0 0 0 0.0941176 0 0 0 0 0.156863 0 0 0 0.24 0"/><feBlend in2="effect4_innerShadow_3046_38812" mode="normal" result="effect5_innerShadow_3046_38812"/></filter><filter id="b" color-interpolation-filters="sRGB" filterUnits="userSpaceOnUse" height="46" width="39.6699" x="7.16406" y="4"><feFlood flood-opacity="0" result="BackgroundImageFix"/><feColorMatrix in="SourceAlpha" result="hardAlpha" type="matrix" values="0 0 0 0 0 0 0 0 0 0 0 0 0 0 0 0 0 0 127 0"/><feMorphology in="SourceAlpha" operator="erode" radius="2" result="effect1_dropShadow_3046_38812"/><feOffset dy="3"/><feGaussianBlur stdDeviation="3"/><feComposite in2="hardAlpha" operator="out"/><feColorMatrix type="matrix" values="0 0 0 0 0.141176 0 0 0 0 0.141176 0 0 0 0 0.141176 0 0 0 0.1 0"/><feBlend in2="BackgroundImageFix" mode="normal" result="effect1_dropShadow_3046_38812"/><feBlend in="SourceGraphic" in2="effect1_dropShadow_3046_38812" mode="normal" result="shape"/></filter><linearGradient id="c" gradientUnits="userSpaceOnUse" x1="24" x2="26" y1=".000001" y2="48"><stop offset="0" stop-color="#fff" stop-opacity="0"/><stop offset="1" stop-color="#fff" stop-opacity=".12"/></linearGradient><linearGradient id="d" gradientUnits="userSpaceOnUse" x1="26.9974" x2="26.9974" y1="8.1665" y2="39.8332"><stop offset="0" stop-color="#fff" stop-opacity=".8"/><stop offset="1" stop-color="#fff" stop-opacity=".5"/></linearGradient><linearGradient id="e" gradientUnits="userSpaceOnUse" x1="27" x2="27" y1="0" y2="48"><stop offset="0" stop-color="#fff" stop-opacity=".12"/><stop offset="1" stop-color="#fff" stop-opacity="0"/></linearGradient><clipPath id="f"><rect height="48" rx="12" width="48" x="3"/></clipPath><g filter="url(#a)"><g clip-path="url(#f)"><rect fill="#0a0d12" height="48" rx="12" width="48" x="3"/><path d="m0 0h48v48h-48z" fill="url(#c)" transform="translate(3)"/><g filter="url(#b)"><path clip-rule="evenodd" d="m26.9974 8.1665c-4.0911 0-7.8197 1.55159-10.6297 4.0984-.3937.3421-.7632.7115-1.1052 1.1053-2.5469 2.8099-4.0984 6.5386-4.0984 10.6296 0 8.7445 7.0888 15.8334 15.8333 15.8334s15.8333-7.0889 15.8333-15.8334-7.0888-15.8333-15.8333-15.8333zm0 29.2917c7.4328 0 13.4583-6.0255 13.4583-13.4584 0-6.9711-5.3001-12.7042-12.0905-13.3896 3.754 1.7752 6.3509 5.5968 6.3509 10.0251 0 2.8827-1.1005 5.5084-2.9044 7.4798-.2146.2507-.4483.4845-.699.699-1.9714 1.8039-4.5971 2.9045-7.4799 2.9045-4.4282 0-8.2499-2.597-10.0251-6.351.6854 6.7904 6.4186 12.0906 13.3897 12.0906zm3.0332-10.9149c-.1568.1696-.3201.333-.4898.4897-.6879.5774-1.575.9252-2.5434.9252-2.1861 0-3.9583-1.7722-3.9583-3.9584 0-2.1861 1.7722-3.9583 3.9583-3.9583s3.9583 1.7722 3.9583 3.9583c0 .9684-.3477 1.8556-.9251 2.5435zm2.3105-5.9444c-1.1245-1.7631-3.0975-2.9324-5.3437-2.9324-3.4978 0-6.3333 2.8355-6.3333 6.3333 0 2.2462 1.1693 4.2193 2.9324 5.3437-4.7928-.0196-8.672-3.9109-8.672-8.7082 0-2.1749.7972-4.1635 2.1155-5.6897.2866-.3151.5881-.6165.9032-.9032 1.5261-1.3182 3.5148-2.1155 5.6896-2.1155 4.7974 0 8.6887 3.8792 8.7083 8.672z" fill="url(#d)" fill-rule="evenodd"/></g></g><rect height="46" rx="11" stroke="url(#e)" stroke-width="2" width="46" x="4" y="1"/></g><g fill="#0a0d12"><path d="m68.55 32.9999-5.55-21h4.11l3.78 16.71 4.44-16.71h4.23l4.32 16.71 3.78-16.71h4.14l-5.7 21h-4.56l-4.17-15.57-4.29 15.57z"/><path d="m96.1238 33.3599c-1.28 0-2.33-.2-3.15-.6-.82-.42-1.43-.97-1.83-1.65s-.6-1.43-.6-2.25c0-1.38.54-2.5 1.62-3.36s2.7-1.29 4.86-1.29h3.7802v-.36c0-1.02-.29-1.77-.8702-2.25-.58-.48-1.3-.72-2.16-.72-.78 0-1.4601.19-2.0401.57-.58.36-.9399.9-1.0799 1.62h-3.75c.1-1.08.46-2.02 1.08-2.82.64-.8 1.46-1.41 2.46-1.83 1-.44 2.12-.66 3.36-.66 2.12 0 3.7902.53 5.0102 1.59s1.83 2.56 1.83 4.5v9.15h-3.27l-.36-2.4c-.44.8-1.0602 1.46-1.8602 1.98-.78.52-1.79.78-3.03.78zm.87-3c1.1 0 1.95-.36 2.55-1.08.6202-.72 1.0102-1.61 1.1702-2.67h-3.2702c-1.02 0-1.7501.19-2.1901.57-.44.36-.6599.81-.6599 1.35 0 .58.2199 1.03.6599 1.35s1.0201.48 1.7401.48z"/><path d="m112.933 32.9999c-1.56 0-2.81-.38-3.75-1.14s-1.41-2.11-1.41-4.05v-6.48h-2.55v-3.21h2.55l.45-3.99h3.39v3.99h4.02v3.21h-4.02v6.51c0 .72.15 1.22.45 1.5.32.26.86.39 1.62.39h1.86v3.27z"/><path d="m124.039 33.3599c-1.52 0-2.86-.33-4.02-.99s-2.08-1.58-2.76-2.76c-.66-1.18-.99-2.53-.99-4.05s.33-2.87.99-4.05c.68-1.18 1.6-2.1 2.76-2.76s2.5-.99 4.02-.99c1.9 0 3.5.5 4.8 1.5 1.3.98 2.13 2.34 2.49 4.08h-4.05c-.2-.72-.6-1.28-1.2-1.68-.58-.42-1.27-.63-2.07-.63-1.06 0-1.96.4-2.7 1.2s-1.11 1.91-1.11 3.33.37 2.53 1.11 3.33 1.64 1.2 2.7 1.2c.8 0 1.49-.2 2.07-.6.6-.4 1-.97 1.2-1.71h4.05c-.36 1.68-1.19 3.03-2.49 4.05s-2.9 1.53-4.8 1.53z"/><path d="m132.938 32.9999v-21.6h3.84v9c.5-.82 1.17-1.46 2.01-1.92.86-.48 1.84-.72 2.94-.72 1.84 0 3.26.58 4.26 1.74 1.02 1.16 1.53 2.86 1.53 5.1v8.4h-3.81v-8.04c0-1.28-.26-2.26-.78-2.94-.5-.68-1.3-1.02-2.4-1.02-1.08 0-1.98.38-2.7 1.14-.7.76-1.05 1.82-1.05 3.18v7.68z"/><path d="m156.019 32.9999c-1.56 0-2.81-.38-3.75-1.14s-1.41-2.11-1.41-4.05v-6.48h-2.55v-3.21h2.55l.45-3.99h3.39v3.99h4.02v3.21h-4.02v6.51c0 .72.15 1.22.45 1.5.32.26.86.39 1.62.39h1.86v3.27z"/><path d="m166.976 33.3599c-1.44 0-2.74-.33-3.9-.99-1.14-.66-2.05-1.57-2.73-2.73-.66-1.18-.99-2.54-.99-4.08s.34-2.89 1.02-4.05c.68-1.18 1.59-2.1 2.73-2.76 1.16-.66 2.46-.99 3.9-.99 1.42 0 2.7.33 3.84.99 1.16.66 2.07 1.58 2.73 2.76.68 1.16 1.02 2.51 1.02 4.05s-.34 2.9-1.02 4.08c-.66 1.16-1.57 2.07-2.73 2.73s-2.45.99-3.87.99zm0-3.33c1 0 1.87-.37 2.61-1.11.74-.76 1.11-1.88 1.11-3.36s-.37-2.59-1.11-3.33c-.74-.76-1.6-1.14-2.58-1.14-1.02 0-1.9.38-2.64 1.14-.72.74-1.08 1.85-1.08 3.33s.36 2.6 1.08 3.36c.74.74 1.61 1.11 2.61 1.11z"/><path d="m178.612 32.9999-4.35-14.88h3.81l2.58 10.71 3-10.71h4.26l3 10.71 2.61-10.71h3.81l-4.38 14.88h-3.99l-3.18-11.13-3.18 11.13z"/><path d="m204.657 33.3599c-1.5 0-2.83-.32-3.99-.96s-2.07-1.54-2.73-2.7-.99-2.5-.99-4.02c0-1.54.32-2.91.96-4.11.66-1.2 1.56-2.13 2.7-2.79 1.16-.68 2.52-1.02 4.08-1.02 1.46 0 2.75.32 3.87.96s1.99 1.52 2.61 2.64c.64 1.1.96 2.33.96 3.69 0 .22-.01.45-.03.69 0 .24-.01.49-.03.75h-11.31c.08 1.16.48 2.07 1.2 2.73.74.66 1.63.99 2.67.99.78 0 1.43-.17 1.95-.51.54-.36.94-.82 1.2-1.38h3.9c-.28.94-.75 1.8-1.41 2.58-.64.76-1.44 1.36-2.4 1.8-.94.44-2.01.66-3.21.66zm.03-12.48c-.94 0-1.77.27-2.49.81-.72.52-1.18 1.32-1.38 2.4h7.41c-.06-.98-.42-1.76-1.08-2.34s-1.48-.87-2.46-.87z"/><path d="m213.557 32.9999v-14.88h3.42l.36 2.79c.54-.96 1.27-1.72 2.19-2.28.94-.58 2.04-.87 3.3-.87v4.05h-1.08c-.84 0-1.59.13-2.25.39s-1.18.71-1.56 1.35c-.36.64-.54 1.53-.54 2.67v6.78z"/></g></svg>