<svg fill="none" height="48" viewBox="0 0 48 48" width="48" xmlns="http://www.w3.org/2000/svg" xmlns:xlink="http://www.w3.org/1999/xlink"><filter id="a" color-interpolation-filters="sRGB" filterUnits="userSpaceOnUse" height="54" width="48" x="0" y="-3"><feFlood flood-opacity="0" result="BackgroundImageFix"/><feBlend in="SourceGraphic" in2="BackgroundImageFix" mode="normal" result="shape"/><feColorMatrix in="SourceAlpha" result="hardAlpha" type="matrix" values="0 0 0 0 0 0 0 0 0 0 0 0 0 0 0 0 0 0 127 0"/><feOffset dy="-3"/><feGaussianBlur stdDeviation="1.5"/><feComposite in2="hardAlpha" k2="-1" k3="1" operator="arithmetic"/><feColorMatrix type="matrix" values="0 0 0 0 0 0 0 0 0 0 0 0 0 0 0 0 0 0 0.1 0"/><feBlend in2="shape" mode="normal" result="effect1_innerShadow_3051_46909"/><feColorMatrix in="SourceAlpha" result="hardAlpha" type="matrix" values="0 0 0 0 0 0 0 0 0 0 0 0 0 0 0 0 0 0 127 0"/><feOffset dy="3"/><feGaussianBlur stdDeviation="1.5"/><feComposite in2="hardAlpha" k2="-1" k3="1" operator="arithmetic"/><feColorMatrix type="matrix" values="0 0 0 0 1 0 0 0 0 1 0 0 0 0 1 0 0 0 0.1 0"/><feBlend in2="effect1_innerShadow_3051_46909" mode="normal" result="effect2_innerShadow_3051_46909"/><feColorMatrix in="SourceAlpha" result="hardAlpha" type="matrix" values="0 0 0 0 0 0 0 0 0 0 0 0 0 0 0 0 0 0 127 0"/><feMorphology in="SourceAlpha" operator="erode" radius="1" result="effect3_innerShadow_3051_46909"/><feOffset/><feComposite in2="hardAlpha" k2="-1" k3="1" operator="arithmetic"/><feColorMatrix type="matrix" values="0 0 0 0 0.0627451 0 0 0 0 0.0941176 0 0 0 0 0.156863 0 0 0 0.24 0"/><feBlend in2="effect2_innerShadow_3051_46909" mode="normal" result="effect3_innerShadow_3051_46909"/></filter><filter id="b" color-interpolation-filters="sRGB" filterUnits="userSpaceOnUse" height="44" width="41" x="3.5" y="5"><feFlood flood-opacity="0" result="BackgroundImageFix"/><feColorMatrix in="SourceAlpha" result="hardAlpha" type="matrix" values="0 0 0 0 0 0 0 0 0 0 0 0 0 0 0 0 0 0 127 0"/><feMorphology in="SourceAlpha" operator="erode" radius="2" result="effect1_dropShadow_3051_46909"/><feOffset dy="3"/><feGaussianBlur stdDeviation="3"/><feComposite in2="hardAlpha" operator="out"/><feColorMatrix type="matrix" values="0 0 0 0 0.141176 0 0 0 0 0.141176 0 0 0 0 0.141176 0 0 0 0.1 0"/><feBlend in2="BackgroundImageFix" mode="normal" result="effect1_dropShadow_3051_46909"/><feBlend in="SourceGraphic" in2="effect1_dropShadow_3051_46909" mode="normal" result="shape"/></filter><linearGradient id="c" gradientUnits="userSpaceOnUse" x1="24" x2="26" y1=".000001" y2="48"><stop offset="0" stop-color="#fff" stop-opacity="0"/><stop offset="1" stop-color="#fff" stop-opacity=".12"/></linearGradient><linearGradient id="d"><stop offset="0" stop-color="#fff" stop-opacity=".8"/><stop offset="1" stop-color="#fff" stop-opacity=".5"/></linearGradient><linearGradient id="e" gradientUnits="userSpaceOnUse" x1="26.9824" x2="26.9824" xlink:href="#d" y1="10.2662" y2="25.1446"/><linearGradient id="f" gradientUnits="userSpaceOnUse" x1="20.9853" x2="20.9853" xlink:href="#d" y1="38.1226" y2="23.2057"/><linearGradient id="g" gradientUnits="userSpaceOnUse" x1="24" x2="24" y1="0" y2="48"><stop offset="0" stop-color="#fff" stop-opacity=".12"/><stop offset="1" stop-color="#fff" stop-opacity="0"/></linearGradient><clipPath id="h"><rect height="48" rx="12" width="48"/></clipPath><g filter="url(#a)"><g clip-path="url(#h)"><rect fill="#3b7c0f" height="48" rx="12" width="48"/><path d="m0 0h48v48h-48z" fill="url(#c)"/><g filter="url(#b)"><g fill="url(#e)"><path d="m34.7301 14.5668c-.3242-.3242-.6483-.6484-.9725-.9725-.9725-1.0374-2.0098-2.0747-3.3065-2.723-1.4912-.778-3.112-.5835-4.7328-.5835-2.4637 0-8.6228 0-12.2535 0l2.4637 3.3065h14.7171c1.3615 0 2.5285.2593 3.6307.9725.1945.0648.389.0648.4538 0z"/><path d="m37.4526 19.8832c-.3242-.3241-.6484-.6483-.9725-.9725-.9725-1.0373-2.0098-2.0746-3.3065-2.723-1.4912-.7779-3.112-.5834-4.7328-.5834-2.1395 0-7.2613 0-10.892 0l2.4637 3.3064h13.4204c1.3615 0 2.5285.2594 3.6307.9725.1297.0649.2593.0649.389 0z"/><path d="m40.5 25.0697c-.3242-.3242-.6483-.6483-.9725-.9725-.9725-1.0373-2.0098-2.0747-3.3065-2.723-1.4911-.778-3.112-.5835-4.7328-.5835-2.0098 0-6.4185 0-9.9843 0l2.4637 3.3065h12.4479c1.3615 0 2.5285.2593 3.6307.9725.1945.0648.3241.1297.4538 0z"/></g><path d="m13.2055 33.822c.3241.3242.6483.6484.9724.9725.9725 1.0374 2.0099 2.0747 3.3065 2.723 1.4912.778 3.112.5835 4.7328.5835h12.2535l-2.4637-3.3065c-4.4734 0-11.4754 0-14.7171 0-1.3615 0-2.5285-.2593-3.6306-.9725-.1945-.0648-.3242-.0648-.4538 0z" fill="url(#f)"/><path d="m10.4823 28.5059c.3242.3242.6483.6484.9725.9725.9725 1.0374 2.0098 2.0747 3.3065 2.723 1.4911.778 3.112.5835 4.7328.5835h10.892l-2.4637-3.3065c-4.4086 0-10.4381 0-13.4204 0-1.3615 0-2.5285-.2593-3.6307-.9725-.1297-.0648-.2593-.0648-.389 0z" fill="url(#f)"/><path d="m7.49989 23.2543c.32416.3242.64833.6483.97249.9725.9725 1.0373 2.00982 2.0747 3.30652 2.723 1.4911.778 3.112.5835 4.7328.5835h9.9843l-2.4637-3.3065c-4.279 0-9.7249 0-12.4479 0-1.3615 0-2.52852-.2593-3.63068-.9725-.1945-.0648-.32417-.0648-.45383 0z" fill="url(#f)"/></g></g><rect height="46" rx="11" stroke="url(#g)" stroke-width="2" width="46" x="1" y="1"/></g></svg>