<svg fill="none" height="48" viewBox="0 0 40 48" width="40" xmlns="http://www.w3.org/2000/svg"><path clip-rule="evenodd" d="m19.9957 35.3266c6.2579 0 11.3309-5.073 11.3309-11.3309s-5.073-11.3309-11.3309-11.3309-11.33089 5.073-11.33089 11.3309 5.07299 11.3309 11.33089 11.3309zm0 8.6648c11.0434 0 19.9957-8.9523 19.9957-19.9957 0-11.0433-8.9523-19.9957-19.9957-19.9957-11.04331 0-19.9957 8.9524-19.9957 19.9957 0 11.0434 8.95239 19.9957 19.9957 19.9957z" fill="#6938ef" fill-rule="evenodd"/><path d="m20.2237 24.4335c2.0824-2.0823 5.4585-2.0823 7.5409 0l10.3686 10.3687c2.0824 2.0823 2.0824 5.4585 0 7.5409-2.0823 2.0823-5.4585 2.0823-7.5408 0l-10.3687-10.3687c-2.0823-2.0824-2.0823-5.4585 0-7.5409z" fill="#f670c7"/></svg>