<svg fill="none" height="48" viewBox="0 0 191 48" width="191" xmlns="http://www.w3.org/2000/svg" xmlns:xlink="http://www.w3.org/1999/xlink"><filter id="a" color-interpolation-filters="sRGB" filterUnits="userSpaceOnUse" height="54" width="48" x="0" y="-3"><feFlood flood-opacity="0" result="BackgroundImageFix"/><feBlend in="SourceGraphic" in2="BackgroundImageFix" mode="normal" result="shape"/><feColorMatrix in="SourceAlpha" result="hardAlpha" type="matrix" values="0 0 0 0 0 0 0 0 0 0 0 0 0 0 0 0 0 0 127 0"/><feOffset dy="-3"/><feGaussianBlur stdDeviation="1.5"/><feComposite in2="hardAlpha" k2="-1" k3="1" operator="arithmetic"/><feColorMatrix type="matrix" values="0 0 0 0 0 0 0 0 0 0 0 0 0 0 0 0 0 0 0.1 0"/><feBlend in2="shape" mode="normal" result="effect1_innerShadow_3046_38756"/><feColorMatrix in="SourceAlpha" result="hardAlpha" type="matrix" values="0 0 0 0 0 0 0 0 0 0 0 0 0 0 0 0 0 0 127 0"/><feOffset dy="3"/><feGaussianBlur stdDeviation="1.5"/><feComposite in2="hardAlpha" k2="-1" k3="1" operator="arithmetic"/><feColorMatrix type="matrix" values="0 0 0 0 1 0 0 0 0 1 0 0 0 0 1 0 0 0 0.1 0"/><feBlend in2="effect1_innerShadow_3046_38756" mode="normal" result="effect2_innerShadow_3046_38756"/><feColorMatrix in="SourceAlpha" result="hardAlpha" type="matrix" values="0 0 0 0 0 0 0 0 0 0 0 0 0 0 0 0 0 0 127 0"/><feMorphology in="SourceAlpha" operator="erode" radius="1" result="effect3_innerShadow_3046_38756"/><feOffset/><feComposite in2="hardAlpha" k2="-1" k3="1" operator="arithmetic"/><feColorMatrix type="matrix" values="0 0 0 0 0.0627451 0 0 0 0 0.0941176 0 0 0 0 0.156863 0 0 0 0.24 0"/><feBlend in2="effect2_innerShadow_3046_38756" mode="normal" result="effect3_innerShadow_3046_38756"/></filter><filter id="b" color-interpolation-filters="sRGB" filterUnits="userSpaceOnUse" height="44" width="41" x="3.5" y="5"><feFlood flood-opacity="0" result="BackgroundImageFix"/><feColorMatrix in="SourceAlpha" result="hardAlpha" type="matrix" values="0 0 0 0 0 0 0 0 0 0 0 0 0 0 0 0 0 0 127 0"/><feMorphology in="SourceAlpha" operator="erode" radius="2" result="effect1_dropShadow_3046_38756"/><feOffset dy="3"/><feGaussianBlur stdDeviation="3"/><feComposite in2="hardAlpha" operator="out"/><feColorMatrix type="matrix" values="0 0 0 0 0.141176 0 0 0 0 0.141176 0 0 0 0 0.141176 0 0 0 0.1 0"/><feBlend in2="BackgroundImageFix" mode="normal" result="effect1_dropShadow_3046_38756"/><feBlend in="SourceGraphic" in2="effect1_dropShadow_3046_38756" mode="normal" result="shape"/></filter><linearGradient id="c" gradientUnits="userSpaceOnUse" x1="24" x2="26" y1=".000001" y2="48"><stop offset="0" stop-color="#fff" stop-opacity="0"/><stop offset="1" stop-color="#fff" stop-opacity=".12"/></linearGradient><linearGradient id="d"><stop offset="0" stop-color="#fff" stop-opacity=".8"/><stop offset="1" stop-color="#fff" stop-opacity=".5"/></linearGradient><linearGradient id="e" gradientUnits="userSpaceOnUse" x1="26.9824" x2="26.9824" xlink:href="#d" y1="10.2662" y2="25.1446"/><linearGradient id="f" gradientUnits="userSpaceOnUse" x1="20.9853" x2="20.9853" xlink:href="#d" y1="38.1226" y2="23.2057"/><linearGradient id="g" gradientUnits="userSpaceOnUse" x1="24" x2="24" y1="0" y2="48"><stop offset="0" stop-color="#fff" stop-opacity=".12"/><stop offset="1" stop-color="#fff" stop-opacity="0"/></linearGradient><clipPath id="h"><rect height="48" rx="12" width="48"/></clipPath><g filter="url(#a)"><g clip-path="url(#h)"><rect fill="#3b7c0f" height="48" rx="12" width="48"/><path d="m0 0h48v48h-48z" fill="url(#c)"/><g filter="url(#b)"><g fill="url(#e)"><path d="m34.7301 14.5668c-.3242-.3242-.6483-.6484-.9725-.9725-.9725-1.0374-2.0098-2.0747-3.3065-2.723-1.4912-.778-3.112-.5835-4.7328-.5835-2.4637 0-8.6228 0-12.2535 0l2.4637 3.3065h14.7171c1.3615 0 2.5285.2593 3.6307.9725.1945.0648.389.0648.4538 0z"/><path d="m37.4526 19.8832c-.3242-.3241-.6484-.6483-.9725-.9725-.9725-1.0373-2.0098-2.0746-3.3065-2.723-1.4912-.7779-3.112-.5834-4.7328-.5834-2.1395 0-7.2613 0-10.892 0l2.4637 3.3064h13.4204c1.3615 0 2.5285.2594 3.6307.9725.1297.0649.2593.0649.389 0z"/><path d="m40.5 25.0697c-.3242-.3242-.6483-.6483-.9725-.9725-.9725-1.0373-2.0098-2.0747-3.3065-2.723-1.4911-.778-3.112-.5835-4.7328-.5835-2.0098 0-6.4185 0-9.9843 0l2.4637 3.3065h12.4479c1.3615 0 2.5285.2593 3.6307.9725.1945.0648.3241.1297.4538 0z"/></g><path d="m13.2055 33.822c.3241.3242.6483.6484.9724.9725.9725 1.0374 2.0099 2.0747 3.3065 2.723 1.4912.778 3.112.5835 4.7328.5835h12.2535l-2.4637-3.3065c-4.4734 0-11.4754 0-14.7171 0-1.3615 0-2.5285-.2593-3.6306-.9725-.1945-.0648-.3242-.0648-.4538 0z" fill="url(#f)"/><path d="m10.4823 28.5059c.3242.3242.6483.6484.9725.9725.9725 1.0374 2.0098 2.0747 3.3065 2.723 1.4911.778 3.112.5835 4.7328.5835h10.892l-2.4637-3.3065c-4.4086 0-10.4381 0-13.4204 0-1.3615 0-2.5285-.2593-3.6307-.9725-.1297-.0648-.2593-.0648-.389 0z" fill="url(#f)"/><path d="m7.49989 23.2543c.32416.3242.64833.6483.97249.9725.9725 1.0373 2.00982 2.0747 3.30652 2.723 1.4911.778 3.112.5835 4.7328.5835h9.9843l-2.4637-3.3065c-4.279 0-9.7249 0-12.4479 0-1.3615 0-2.52852-.2593-3.63068-.9725-.1945-.0648-.32417-.0648-.45383 0z" fill="url(#f)"/></g></g><rect height="46" rx="11" stroke="url(#g)" stroke-width="2" width="46" x="1" y="1"/></g><g fill="#fff"><path clip-rule="evenodd" d="m74.5633 32.467c1.1006.6154 2.3703.923 3.809.923 1.352 0 2.5956-.3553 3.731-1.066 1.144-.7106 1.9803-1.7073 2.509-2.99l-3.536-1.014c-.2601.572-.637 1.0097-1.131 1.313-.494.3034-1.0877.455-1.781.455-1.1007 0-1.937-.3553-2.509-1.066-.4125-.5267-.674-1.2113-.7844-2.054h9.8584c.1473-1.6986-.026-3.1763-.52-4.433-.494-1.2566-1.2567-2.2316-2.288-2.925-1.0314-.6933-2.2837-1.04-3.757-1.04-1.3867 0-2.613.3164-3.679.949-1.066.624-1.9024 1.5037-2.509 2.639-.6067 1.1354-.91 2.47-.91 4.004 0 1.404.3076 2.652.923 3.744.6239 1.0834 1.482 1.937 2.574 2.561zm6.5883-8.125c-.1033-.7594-.3061-1.3444-.6083-1.755-.4507-.6326-1.1917-.949-2.223-.949-1.2047 0-2.093.3684-2.665 1.105-.3231.4176-.5536.9506-.6914 1.599z" fill-rule="evenodd"/><path clip-rule="evenodd" d="m89.7507 33.39c-1.0053 0-1.859-.1906-2.561-.572-.6933-.39-1.222-.9056-1.586-1.547-.3553-.65-.533-1.365-.533-2.145 0-.65.0997-1.2436.299-1.781.1993-.5373.52-1.0096.962-1.417.4507-.416 1.053-.7626 1.807-1.04.52-.1906 1.1397-.3596 1.859-.507.7193-.1473 1.534-.286 2.444-.416.5356-.0816 1.1028-.1677 1.7014-.2583-.0672-.5789-.2573-1.0214-.5704-1.3277-.3987-.39-1.066-.585-2.002-.585-.52 0-1.0617.1257-1.625.377-.5633.2514-.9577.6977-1.183 1.339l-3.198-1.014c.3553-1.1613 1.0227-2.106 2.002-2.834s2.314-1.092 4.004-1.092c1.2393 0 2.34.1907 3.302.572.962.3814 1.69 1.04 2.184 1.976.2773.52.442 1.04.494 1.56s.078 1.1007.078 1.742v8.58h-3.094v-1.7234c-.5586.6581-1.1523 1.1546-1.781 1.4894-.7887.416-1.7897.624-3.003.624zm.754-2.782c.65 0 1.196-.1126 1.638-.338.4507-.234.806-.4983 1.066-.793.2687-.2946.4507-.5416.546-.741.182-.3813.286-.8233.312-1.326.0211-.3115.0358-.5909.0441-.8381-.5824.0995-1.0824.1882-1.5001.2661-.65.1127-1.1743.2167-1.573.312-.3987.0954-.7497.1994-1.053.312-.3467.1387-.6283.2904-.845.455-.208.156-.364.3294-.468.52-.0953.1907-.143.403-.143.637 0 .3207.078.598.234.832.1647.2254.3943.3987.689.52.2947.1214.6457.182 1.053.182z" fill-rule="evenodd"/><path d="m105.013 33.234c.936.026 1.889-.052 2.86-.234v-2.938c-.832.1127-1.59.1474-2.275.104-.685-.0433-1.183-.312-1.495-.806-.165-.26-.256-.6066-.273-1.04-.009-.442-.013-.936-.013-1.482v-5.148h4.056v-2.73h-4.056v-3.9h-3.536v3.9h-2.3921v2.73h2.3921v5.356c0 .8407.009 1.5947.026 2.262.017.6587.199 1.3087.546 1.95.381.6847.936 1.183 1.664 1.495.737.3034 1.569.4637 2.496.481z"/><path d="m122.546 24.004c.034.5114.052.884.052 1.118v7.878h-3.588v-6.63c0-.3206-.018-.728-.052-1.222-.035-.5026-.143-1.0053-.325-1.508-.182-.5026-.481-.923-.897-1.261-.408-.338-.988-.507-1.742-.507-.304 0-.629.0477-.975.143-.347.0954-.672.2817-.975.559-.304.2687-.555.6674-.754 1.196-.191.5287-.286 1.2307-.286 2.106v7.124h-3.588v-18.72h3.146v6.1237c.323-.3617.696-.6826 1.118-.9627.91-.598 2.054-.897 3.432-.897 1.1 0 1.997.1864 2.691.559.693.3727 1.23.845 1.612 1.417.39.572.667 1.17.832 1.794.164.6154.264 1.1787.299 1.69z"/><path clip-rule="evenodd" d="m127.128 32.467c1.101.6154 2.37.923 3.809.923 1.352 0 2.596-.3553 3.731-1.066 1.144-.7106 1.98-1.7073 2.509-2.99l-3.536-1.014c-.26.572-.637 1.0097-1.131 1.313-.494.3034-1.088.455-1.781.455-1.101 0-1.937-.3553-2.509-1.066-.413-.5267-.674-1.2113-.784-2.054h9.858c.147-1.6986-.026-3.1763-.52-4.433-.494-1.2566-1.257-2.2316-2.288-2.925-1.031-.6933-2.284-1.04-3.757-1.04-1.387 0-2.613.3164-3.679.949-1.066.624-1.902 1.5037-2.509 2.639-.607 1.1354-.91 2.47-.91 4.004 0 1.404.308 2.652.923 3.744.624 1.0834 1.482 1.937 2.574 2.561zm6.588-8.125c-.103-.7594-.306-1.3444-.608-1.755-.451-.6326-1.192-.949-2.223-.949-1.205 0-2.093.3684-2.665 1.105-.323.4176-.554.9506-.691 1.599z" fill-rule="evenodd"/><path d="m142.452 24.381c-.147.4247-.221.9057-.221 1.443v7.176h-3.562v-14.04h3.12v2.2593c.117-.2081.247-.4065.39-.5953.304-.3986.676-.728 1.118-.988.338-.208.707-.3683 1.105-.481.399-.1213.811-.195 1.235-.221.425-.0346.85-.026 1.274.026v3.302c-.39-.1213-.845-.1603-1.365-.117-.511.0347-.975.1517-1.391.351-.416.1907-.767.4464-1.053.767-.286.312-.502.6847-.65 1.118z"/><path clip-rule="evenodd" d="m154.792 14.293c-.459-.0086-.763-.013-.91-.013h-6.058v18.72h6.058c.147 0 .451-.0043.91-.013.459-.0086.901-.039 1.326-.091 1.508-.182 2.786-.7063 3.835-1.573 1.049-.8666 1.846-1.9673 2.392-3.302.546-1.3346.819-2.795.819-4.381s-.273-3.0463-.819-4.381c-.546-1.3346-1.343-2.4353-2.392-3.302-1.049-.8666-2.327-1.391-3.835-1.573-.425-.052-.867-.0823-1.326-.091zm.039 15.366c-.399.0087-.715.013-.949.013h-2.47v-12.064h2.47c.234 0 .55.0044.949.013.399.0087.758.0477 1.079.117.789.156 1.443.5244 1.963 1.105.52.5807.906 1.2914 1.157 2.132.26.8407.39 1.729.39 2.665 0 .8927-.126 1.7594-.377 2.6-.243.8407-.624 1.56-1.144 2.158-.511.598-1.174.9794-1.989 1.144-.321.0607-.68.0997-1.079.117z" fill-rule="evenodd"/><path clip-rule="evenodd" d="m171.249 33.39c-1.439 0-2.708-.3076-3.809-.923-1.092-.624-1.95-1.4776-2.574-2.561-.615-1.092-.923-2.34-.923-3.744 0-1.534.303-2.8686.91-4.004.607-1.1353 1.443-2.015 2.509-2.639 1.066-.6326 2.292-.949 3.679-.949 1.473 0 2.726.3467 3.757 1.04 1.031.6934 1.794 1.6684 2.288 2.925.494 1.2567.667 2.7344.52 4.433h-9.858c.11.8427.372 1.5273.784 2.054.572.7107 1.408 1.066 2.509 1.066.693 0 1.287-.1516 1.781-.455.494-.3033.871-.741 1.131-1.313l3.536 1.014c-.529 1.2827-1.365 2.2794-2.509 2.99-1.135.7107-2.379 1.066-3.731 1.066zm2.171-10.803c.302.4106.505.9956.609 1.755h-6.188c.138-.6484.368-1.1814.691-1.599.572-.7366 1.46-1.105 2.665-1.105 1.031 0 1.772.3164 2.223.949z" fill-rule="evenodd"/><path d="m177.174 18.96 5.096 14.04h3.536l5.096-14.04h-3.536l-3.328 9.724-3.328-9.724z"/><path d="m60 14.28v18.72h3.536v-7.592h6.344v-3.536h-6.344v-4.056h7.904v-3.536z"/></g></svg>