<svg fill="none" height="48" viewBox="0 0 117 48" width="117" xmlns="http://www.w3.org/2000/svg" xmlns:xlink="http://www.w3.org/1999/xlink"><filter id="a" color-interpolation-filters="sRGB" filterUnits="userSpaceOnUse" height="54" width="48" x="0" y="-3"><feFlood flood-opacity="0" result="BackgroundImageFix"/><feBlend in="SourceGraphic" in2="BackgroundImageFix" mode="normal" result="shape"/><feColorMatrix in="SourceAlpha" result="hardAlpha" type="matrix" values="0 0 0 0 0 0 0 0 0 0 0 0 0 0 0 0 0 0 127 0"/><feOffset dy="-3"/><feGaussianBlur stdDeviation="1.5"/><feComposite in2="hardAlpha" k2="-1" k3="1" operator="arithmetic"/><feColorMatrix type="matrix" values="0 0 0 0 0 0 0 0 0 0 0 0 0 0 0 0 0 0 0.1 0"/><feBlend in2="shape" mode="normal" result="effect1_innerShadow_3046_38786"/><feColorMatrix in="SourceAlpha" result="hardAlpha" type="matrix" values="0 0 0 0 0 0 0 0 0 0 0 0 0 0 0 0 0 0 127 0"/><feOffset dy="3"/><feGaussianBlur stdDeviation="1.5"/><feComposite in2="hardAlpha" k2="-1" k3="1" operator="arithmetic"/><feColorMatrix type="matrix" values="0 0 0 0 1 0 0 0 0 1 0 0 0 0 1 0 0 0 0.1 0"/><feBlend in2="effect1_innerShadow_3046_38786" mode="normal" result="effect2_innerShadow_3046_38786"/><feColorMatrix in="SourceAlpha" result="hardAlpha" type="matrix" values="0 0 0 0 0 0 0 0 0 0 0 0 0 0 0 0 0 0 127 0"/><feMorphology in="SourceAlpha" operator="erode" radius="1" result="effect3_innerShadow_3046_38786"/><feOffset/><feComposite in2="hardAlpha" k2="-1" k3="1" operator="arithmetic"/><feColorMatrix type="matrix" values="0 0 0 0 0.0627451 0 0 0 0 0.0941176 0 0 0 0 0.156863 0 0 0 0.24 0"/><feBlend in2="effect2_innerShadow_3046_38786" mode="normal" result="effect3_innerShadow_3046_38786"/></filter><filter id="b" color-interpolation-filters="sRGB" filterUnits="userSpaceOnUse" height="44.3333" width="37.9993" x="4.99935" y="4.95833"><feFlood flood-opacity="0" result="BackgroundImageFix"/><feColorMatrix in="SourceAlpha" result="hardAlpha" type="matrix" values="0 0 0 0 0 0 0 0 0 0 0 0 0 0 0 0 0 0 127 0"/><feMorphology in="SourceAlpha" operator="erode" radius="1.58333" result="effect1_dropShadow_3046_38786"/><feOffset dy="2.375"/><feGaussianBlur stdDeviation="2.375"/><feComposite in2="hardAlpha" operator="out"/><feColorMatrix type="matrix" values="0 0 0 0 0.141176 0 0 0 0 0.141176 0 0 0 0 0.141176 0 0 0 0.1 0"/><feBlend in2="BackgroundImageFix" mode="normal" result="effect1_dropShadow_3046_38786"/><feBlend in="SourceGraphic" in2="effect1_dropShadow_3046_38786" mode="normal" result="shape"/></filter><linearGradient id="c" gradientUnits="userSpaceOnUse" x1="24" x2="26" y1=".000001" y2="48"><stop offset="0" stop-color="#fff" stop-opacity="0"/><stop offset="1" stop-color="#fff" stop-opacity=".12"/></linearGradient><linearGradient id="d"><stop offset="0" stop-color="#fff" stop-opacity=".8"/><stop offset="1" stop-color="#fff" stop-opacity=".5"/></linearGradient><linearGradient id="e" gradientUnits="userSpaceOnUse" x1="23.9967" x2="23.9967" xlink:href="#d" y1="8.91455" y2="38.9979"/><linearGradient id="f" gradientUnits="userSpaceOnUse" x1="23.9983" x2="23.9983" xlink:href="#d" y1="13.5476" y2="34.3685"/><linearGradient id="g" gradientUnits="userSpaceOnUse" x1="24" x2="24" y1="0" y2="48"><stop offset="0" stop-color="#fff" stop-opacity=".12"/><stop offset="1" stop-color="#fff" stop-opacity="0"/></linearGradient><clipPath id="h"><rect height="48" rx="12" width="48"/></clipPath><g filter="url(#a)"><g clip-path="url(#h)"><rect fill="#875bf7" height="48" rx="12" width="48"/><path d="m0 0h48v48h-48z" fill="url(#c)"/><g filter="url(#b)"><path d="m29.5029 32.6537c-3.979 2.5242-9.3125 2.0508-12.7835-1.4202s-3.9444-8.8045-1.4201-12.7835l-3.4154-3.4153c-4.34729 5.887-3.85504 14.2258 1.4768 19.5576 5.3318 5.3318 13.6706 5.824 19.5576 1.4767z" fill="url(#e)"/><path d="m18.49 15.2591c3.9791-2.5246 9.3129-2.0514 12.784 1.4198 3.4712 3.4712 3.9445 8.805 1.4199 12.7841l3.4153 3.4153c4.3477-5.8871 3.8556-14.2262-1.4764-19.5581-5.332-5.33202-13.671-5.82414-19.5581-1.4764z" fill="url(#e)"/><path d="m31.2742 16.6789c-3.4712-3.4712-8.805-3.9444-12.7841-1.4198l-1.7114-1.7115c-.6108.4246-1.1925.9092-1.737 1.4536-.5445.5446-1.0291 1.1264-1.4538 1.7373l1.7115 1.7115c-2.5242 3.979-2.0508 9.3125 1.4202 12.7835s8.8044 3.9444 12.7835 1.4202l1.7148 1.7148c.6108-.4247 1.1926-.9093 1.7372-1.4539.5445-.5445 1.029-1.1262 1.4536-1.7369l-1.7147-1.7148c2.5246-3.9791 2.0513-9.3129-1.4198-12.784z" fill="url(#f)" opacity=".2"/></g></g><rect height="46" rx="11" stroke="url(#g)" stroke-width="2" width="46" x="1" y="1"/></g><g fill="#fff"><path d="m70.444 33.3361c-1.4933 0-2.8747-.2613-4.144-.784-1.2507-.5226-2.352-1.2506-3.304-2.184-.952-.9333-1.6893-2.016-2.212-3.248-.5227-1.2506-.784-2.5946-.784-4.032 0-1.456.2613-2.8.784-4.032s1.2507-2.3053 2.184-3.22c.9333-.9333 2.0253-1.652 3.276-2.156 1.2693-.5226 2.6507-.784 4.144-.784 1.4747 0 2.8373.2614 4.088.784 1.2693.504 2.3707 1.2227 3.304 2.156.952.9147 1.6893 1.9974 2.212 3.248.5227 1.232.784 2.576.784 4.032 0 1.4374-.2613 2.7814-.784 4.032-.5227 1.232-1.2507 2.3147-2.184 3.248-.9333.9147-2.0347 1.6334-3.304 2.156-1.2507.5227-2.604.784-4.06.784zm-.056-4.004c1.176 0 2.2027-.2613 3.08-.784.896-.5226 1.5867-1.2506 2.072-2.184.4853-.952.728-2.044.728-3.276 0-.9333-.14-1.7733-.42-2.52-.28-.7653-.6813-1.4186-1.204-1.96-.5227-.56-1.148-.98-1.876-1.26-.7093-.2986-1.5027-.448-2.38-.448-1.176 0-2.212.2614-3.108.784-.8773.504-1.5587 1.2227-2.044 2.156-.4853.9147-.728 1.9974-.728 3.248 0 .9334.14 1.7827.42 2.548.28.7654.672 1.428 1.176 1.988.5227.5414 1.148.9614 1.876 1.26.728.2987 1.5307.448 2.408.448z"/><path d="m82.6146 33.0001v-20.328h4.284v20.328z"/><path d="m89.3554 33.0001v-20.328h4.284v20.328z"/><path d="m96.0962 33.0001v-13.608h4.2838v13.608zm2.156-15.484c-.672 0-1.232-.224-1.68-.672-.4294-.4666-.644-1.0266-.644-1.68 0-.672.2146-1.232.644-1.68.448-.448 1.008-.672 1.68-.672s1.2226.224 1.652.672c.4288.448.6438 1.008.6438 1.68 0 .6534-.215 1.2134-.6438 1.68-.4294.448-.98.672-1.652.672z"/><path d="m109.389 33.3081c-1.4 0-2.669-.308-3.808-.924-1.12-.6346-2.007-1.4933-2.66-2.576-.653-1.0826-.98-2.296-.98-3.64s.327-2.548.98-3.612 1.54-1.904 2.66-2.52c1.12-.6346 2.389-.952 3.808-.952s2.688.308 3.808.924 2.007 1.4654 2.66 2.548c.653 1.064.98 2.268.98 3.612s-.327 2.5574-.98 3.64c-.653 1.0827-1.54 1.9414-2.66 2.576-1.12.616-2.389.924-3.808.924zm0-3.892c.616 0 1.157-.1306 1.624-.392.467-.28.821-.6626 1.064-1.148.261-.504.392-1.0733.392-1.708 0-.6346-.131-1.1853-.392-1.652-.261-.4853-.625-.8586-1.092-1.12-.448-.28-.98-.42-1.596-.42-.597 0-1.129.14-1.596.42-.467.2614-.831.6347-1.092 1.12-.261.4854-.392 1.0454-.392 1.68 0 .616.131 1.176.392 1.68.261.4854.625.868 1.092 1.148.467.2614.999.392 1.596.392z"/></g></svg>