<svg fill="none" height="48" viewBox="0 0 242 48" width="242" xmlns="http://www.w3.org/2000/svg" xmlns:xlink="http://www.w3.org/1999/xlink"><filter id="a" color-interpolation-filters="sRGB" filterUnits="userSpaceOnUse" height="54" width="48" x="0" y="-3"><feFlood flood-opacity="0" result="BackgroundImageFix"/><feBlend in="SourceGraphic" in2="BackgroundImageFix" mode="normal" result="shape"/><feColorMatrix in="SourceAlpha" result="hardAlpha" type="matrix" values="0 0 0 0 0 0 0 0 0 0 0 0 0 0 0 0 0 0 127 0"/><feOffset dy="-3"/><feGaussianBlur stdDeviation="1.5"/><feComposite in2="hardAlpha" k2="-1" k3="1" operator="arithmetic"/><feColorMatrix type="matrix" values="0 0 0 0 0 0 0 0 0 0 0 0 0 0 0 0 0 0 0.1 0"/><feBlend in2="shape" mode="normal" result="effect1_innerShadow_3046_38741"/><feColorMatrix in="SourceAlpha" result="hardAlpha" type="matrix" values="0 0 0 0 0 0 0 0 0 0 0 0 0 0 0 0 0 0 127 0"/><feOffset dy="3"/><feGaussianBlur stdDeviation="1.5"/><feComposite in2="hardAlpha" k2="-1" k3="1" operator="arithmetic"/><feColorMatrix type="matrix" values="0 0 0 0 1 0 0 0 0 1 0 0 0 0 1 0 0 0 0.1 0"/><feBlend in2="effect1_innerShadow_3046_38741" mode="normal" result="effect2_innerShadow_3046_38741"/><feColorMatrix in="SourceAlpha" result="hardAlpha" type="matrix" values="0 0 0 0 0 0 0 0 0 0 0 0 0 0 0 0 0 0 127 0"/><feMorphology in="SourceAlpha" operator="erode" radius="1" result="effect3_innerShadow_3046_38741"/><feOffset/><feComposite in2="hardAlpha" k2="-1" k3="1" operator="arithmetic"/><feColorMatrix type="matrix" values="0 0 0 0 0.0627451 0 0 0 0 0.0941176 0 0 0 0 0.156863 0 0 0 0.24 0"/><feBlend in2="effect2_innerShadow_3046_38741" mode="normal" result="effect3_innerShadow_3046_38741"/></filter><filter id="b" color-interpolation-filters="sRGB" filterUnits="userSpaceOnUse" height="42" width="39" x="4.5" y="5.25"><feFlood flood-opacity="0" result="BackgroundImageFix"/><feColorMatrix in="SourceAlpha" result="hardAlpha" type="matrix" values="0 0 0 0 0 0 0 0 0 0 0 0 0 0 0 0 0 0 127 0"/><feMorphology in="SourceAlpha" operator="erode" radius="1.5" result="effect1_dropShadow_3046_38741"/><feOffset dy="2.25"/><feGaussianBlur stdDeviation="2.25"/><feComposite in2="hardAlpha" operator="out"/><feColorMatrix type="matrix" values="0 0 0 0 0.141176 0 0 0 0 0.141176 0 0 0 0 0.141176 0 0 0 0.1 0"/><feBlend in2="BackgroundImageFix" mode="normal" result="effect1_dropShadow_3046_38741"/><feBlend in="SourceGraphic" in2="effect1_dropShadow_3046_38741" mode="normal" result="shape"/></filter><linearGradient id="c" gradientUnits="userSpaceOnUse" x1="24" x2="26" y1=".000001" y2="48"><stop offset="0" stop-color="#fff" stop-opacity="0"/><stop offset="1" stop-color="#fff" stop-opacity=".12"/></linearGradient><linearGradient id="d"><stop offset="0" stop-color="#fff" stop-opacity=".8"/><stop offset="1" stop-color="#fff" stop-opacity=".5"/></linearGradient><linearGradient id="e" gradientUnits="userSpaceOnUse" x1="19.5" x2="19.5" xlink:href="#d" y1="12" y2="36"/><linearGradient id="f" gradientUnits="userSpaceOnUse" x1="31.4641" x2="31.4641" xlink:href="#d" y1="12" y2="36"/><linearGradient id="g" gradientUnits="userSpaceOnUse" x1="24" x2="24" y1="0" y2="48"><stop offset="0" stop-color="#fff" stop-opacity=".12"/><stop offset="1" stop-color="#fff" stop-opacity="0"/></linearGradient><clipPath id="h"><rect height="48" rx="12" width="48"/></clipPath><g filter="url(#a)"><g clip-path="url(#h)"><rect fill="#7839ee" height="48" rx="12" width="48"/><path d="m0 0h48v48h-48z" fill="url(#c)"/><g filter="url(#b)"><path d="m19.5 12 3.8184 8.1816 8.1816 3.8184-8.1816 3.8184-3.8184 8.1816-3.8184-8.1816-8.1816-3.8184 8.1816-3.8184z" fill="url(#e)"/><path d="m22.5352 29.4964 4.7654-.8199 2.7 7.3235 2.7-7.3235 7.6923 1.3235-4.9923-6 4.9923-6-7.6923 1.3235-2.7-7.3235-2.7 7.3235-4.7654-.8199.7831 1.678 8.1816 3.8184-8.1816 3.8184z" fill="url(#f)" opacity=".5"/></g></g><rect height="46" rx="11" stroke="url(#g)" stroke-width="2" width="46" x="1" y="1"/></g><g fill="#fff"><path d="m70.469 33.348c-6.438 0-10.469-4.263-10.469-11.049 0-6.699 4.263-11.107 10.672-11.107 5.365 0 9.222 3.074 9.889 7.888h-4.959c-.638-2.146-2.465-3.364-5.046-3.364-3.48 0-5.597 2.465-5.597 6.554 0 4.031 2.146 6.554 5.597 6.554 2.639 0 4.582-1.305 5.162-3.422h4.872c-.754 4.785-4.756 7.946-10.121 7.946z"/><path d="m82.108 25.721c0-4.582 3.364-7.656 8.004-7.656 4.611 0 7.975 3.074 7.975 7.656s-3.364 7.627-7.975 7.627c-4.64 0-8.004-3.045-8.004-7.627zm4.495-.029c0 2.204 1.421 3.654 3.509 3.654 2.059 0 3.48-1.45 3.48-3.654 0-2.175-1.421-3.625-3.48-3.625-2.088 0-3.509 1.45-3.509 3.625z"/><path d="m104.852 33h-4.466v-14.5h4.205l.29 1.508c.899-1.247 2.552-1.972 4.437-1.972 3.451 0 5.452 2.204 5.452 6.003v8.961h-4.466v-7.888c0-1.827-1.015-3.016-2.552-3.016-1.769 0-2.9 1.16-2.9 2.958z"/><path d="m116.469 28.418h4.234c.058 1.015.812 1.624 2.175 1.624 1.392 0 2.03-.493 2.03-1.247 0-.435-.232-.899-1.305-1.131l-2.668-.58c-2.668-.58-3.973-1.74-3.973-4.292 0-3.016 2.581-4.756 6.061-4.756 3.364 0 5.713 1.972 5.713 4.901h-4.234c0-.986-.609-1.653-1.682-1.653-1.015 0-1.653.522-1.653 1.305 0 .667.551 1.044 1.566 1.276l2.697.58c2.378.522 3.683 1.624 3.683 3.944 0 3.103-2.639 4.988-6.409 4.988-3.828 0-6.235-2.03-6.235-4.959z"/><path d="m139.712 29.114.522 3.596c-.841.406-1.943.638-3.161.638-2.987 0-5.075-1.363-5.075-5.423v-5.713h-2.204v-3.712h2.204v-4.495h4.466v4.495h3.219v3.712h-3.219v4.785c0 1.827.725 2.378 1.769 2.378.435 0 .957-.087 1.479-.261z"/><path d="m148.385 33.377c-4.379 0-7.511-3.19-7.511-7.656 0-4.524 3.045-7.685 7.424-7.685 4.553 0 7.395 2.987 7.395 7.714v1.131l-10.527.058c.261 1.914 1.334 2.813 3.306 2.813 1.682 0 2.871-.609 3.19-1.653h4.089c-.522 3.219-3.393 5.278-7.366 5.278zm-.058-11.716c-1.769 0-2.755.783-3.103 2.523h6.032c0-1.537-1.131-2.523-2.929-2.523z"/><path d="m162.513 33h-4.466v-21.866h4.466z"/><path d="m170.04 33h-4.466v-21.866h4.466z"/><path d="m184.207 18.5h4.089v14.5h-4.205l-.232-1.856c-.841 1.102-2.436 2.262-4.727 2.262-4.321 0-6.815-3.306-6.815-7.888 0-4.669 2.813-7.482 6.844-7.482 2.059 0 4.002.899 4.814 2.233zm-.406 7.25c0-2.175-1.45-3.625-3.538-3.625-2.117 0-3.451 1.479-3.451 3.625s1.334 3.625 3.451 3.625c2.088 0 3.538-1.45 3.538-3.625z"/><path d="m199.915 29.114.522 3.596c-.841.406-1.943.638-3.161.638-2.987 0-5.075-1.363-5.075-5.423v-5.713h-2.204v-3.712h2.204v-4.495h4.466v4.495h3.219v3.712h-3.219v4.785c0 1.827.725 2.378 1.769 2.378.435 0 .957-.087 1.479-.261z"/><path d="m204.206 16.238c-1.421 0-2.552-1.131-2.552-2.552s1.131-2.523 2.552-2.523c1.392 0 2.523 1.102 2.523 2.523s-1.131 2.552-2.523 2.552zm-2.204 16.762v-14.5h4.466v14.5z"/><path d="m208.745 25.721c0-4.582 3.364-7.656 8.004-7.656 4.611 0 7.975 3.074 7.975 7.656s-3.364 7.627-7.975 7.627c-4.64 0-8.004-3.045-8.004-7.627zm4.495-.029c0 2.204 1.421 3.654 3.509 3.654 2.059 0 3.48-1.45 3.48-3.654 0-2.175-1.421-3.625-3.48-3.625-2.088 0-3.509 1.45-3.509 3.625z"/><path d="m231.489 33h-4.466v-14.5h4.205l.29 1.508c.899-1.247 2.552-1.972 4.437-1.972 3.451 0 5.452 2.204 5.452 6.003v8.961h-4.466v-7.888c0-1.827-1.015-3.016-2.552-3.016-1.769 0-2.9 1.16-2.9 2.958z"/></g></svg>