<svg fill="none" height="54" viewBox="0 0 204 54" width="204" xmlns="http://www.w3.org/2000/svg" xmlns:xlink="http://www.w3.org/1999/xlink"><filter id="a" color-interpolation-filters="sRGB" filterUnits="userSpaceOnUse" height="57" width="54" x="0" y="-3"><feFlood flood-opacity="0" result="BackgroundImageFix"/><feColorMatrix in="SourceAlpha" result="hardAlpha" type="matrix" values="0 0 0 0 0 0 0 0 0 0 0 0 0 0 0 0 0 0 127 0"/><feOffset dy="1"/><feGaussianBlur stdDeviation=".5"/><feComposite in2="hardAlpha" operator="out"/><feColorMatrix type="matrix" values="0 0 0 0 0.162923 0 0 0 0 0.162923 0 0 0 0 0.162923 0 0 0 0.08 0"/><feBlend in2="BackgroundImageFix" mode="normal" result="effect1_dropShadow_3046_38810"/><feColorMatrix in="SourceAlpha" result="hardAlpha" type="matrix" values="0 0 0 0 0 0 0 0 0 0 0 0 0 0 0 0 0 0 127 0"/><feMorphology in="SourceAlpha" operator="erode" radius="1" result="effect2_dropShadow_3046_38810"/><feOffset dy="3"/><feGaussianBlur stdDeviation="2"/><feComposite in2="hardAlpha" operator="out"/><feColorMatrix type="matrix" values="0 0 0 0 0.164706 0 0 0 0 0.164706 0 0 0 0 0.164706 0 0 0 0.14 0"/><feBlend in2="effect1_dropShadow_3046_38810" mode="normal" result="effect2_dropShadow_3046_38810"/><feBlend in="SourceGraphic" in2="effect2_dropShadow_3046_38810" mode="normal" result="shape"/><feColorMatrix in="SourceAlpha" result="hardAlpha" type="matrix" values="0 0 0 0 0 0 0 0 0 0 0 0 0 0 0 0 0 0 127 0"/><feOffset dy="-3"/><feGaussianBlur stdDeviation="1.5"/><feComposite in2="hardAlpha" k2="-1" k3="1" operator="arithmetic"/><feColorMatrix type="matrix" values="0 0 0 0 0 0 0 0 0 0 0 0 0 0 0 0 0 0 0.1 0"/><feBlend in2="shape" mode="normal" result="effect3_innerShadow_3046_38810"/><feColorMatrix in="SourceAlpha" result="hardAlpha" type="matrix" values="0 0 0 0 0 0 0 0 0 0 0 0 0 0 0 0 0 0 127 0"/><feOffset dy="3"/><feGaussianBlur stdDeviation="1.5"/><feComposite in2="hardAlpha" k2="-1" k3="1" operator="arithmetic"/><feColorMatrix type="matrix" values="0 0 0 0 1 0 0 0 0 1 0 0 0 0 1 0 0 0 0.1 0"/><feBlend in2="effect3_innerShadow_3046_38810" mode="normal" result="effect4_innerShadow_3046_38810"/><feColorMatrix in="SourceAlpha" result="hardAlpha" type="matrix" values="0 0 0 0 0 0 0 0 0 0 0 0 0 0 0 0 0 0 127 0"/><feMorphology in="SourceAlpha" operator="erode" radius="1" result="effect5_innerShadow_3046_38810"/><feOffset/><feComposite in2="hardAlpha" k2="-1" k3="1" operator="arithmetic"/><feColorMatrix type="matrix" values="0 0 0 0 0.0627451 0 0 0 0 0.0941176 0 0 0 0 0.156863 0 0 0 0.24 0"/><feBlend in2="effect4_innerShadow_3046_38810" mode="normal" result="effect5_innerShadow_3046_38810"/></filter><filter id="b" color-interpolation-filters="sRGB" filterUnits="userSpaceOnUse" height="42" width="36" x="9" y="5.25"><feFlood flood-opacity="0" result="BackgroundImageFix"/><feColorMatrix in="SourceAlpha" result="hardAlpha" type="matrix" values="0 0 0 0 0 0 0 0 0 0 0 0 0 0 0 0 0 0 127 0"/><feMorphology in="SourceAlpha" operator="erode" radius="1.5" result="effect1_dropShadow_3046_38810"/><feOffset dy="2.25"/><feGaussianBlur stdDeviation="2.25"/><feComposite in2="hardAlpha" operator="out"/><feColorMatrix type="matrix" values="0 0 0 0 0.141176 0 0 0 0 0.141176 0 0 0 0 0.141176 0 0 0 0.1 0"/><feBlend in2="BackgroundImageFix" mode="normal" result="effect1_dropShadow_3046_38810"/><feBlend in="SourceGraphic" in2="effect1_dropShadow_3046_38810" mode="normal" result="shape"/></filter><linearGradient id="c" gradientUnits="userSpaceOnUse" x1="24" x2="26" y1=".000001" y2="48"><stop offset="0" stop-color="#fff" stop-opacity="0"/><stop offset="1" stop-color="#fff" stop-opacity=".12"/></linearGradient><linearGradient id="d" gradientUnits="userSpaceOnUse" x1="27" x2="27" y1="0" y2="48"><stop offset="0" stop-color="#fff" stop-opacity=".12"/><stop offset="1" stop-color="#fff" stop-opacity="0"/></linearGradient><clipPath id="e"><rect height="48" rx="12" width="48" x="3"/></clipPath><g filter="url(#a)"><g clip-path="url(#e)"><rect fill="#0a0d12" height="48" rx="12" width="48" x="3"/><path d="m0 0h48v48h-48z" fill="url(#c)" transform="translate(3)"/><g fill="#fff" filter="url(#b)"><path d="m12 33.75h5.25v5.25h-5.25z"/><path d="m17.25 33.75h5.25v5.25h-5.25z" opacity=".6"/><path d="m22.5 33.75h5.25v5.25h-5.25z" opacity=".32"/><path d="m27.75 33.75h5.25v5.25h-5.25z" opacity=".07"/><path d="m12 28.5h5.25v5.25h-5.25z" opacity=".6"/><path d="m17.25 28.5h5.25v5.25h-5.25z" opacity=".32"/><path d="m17.25 23.25h5.25v5.25h-5.25z" opacity=".07"/><path d="m22.5 28.5h5.25v5.25h-5.25z" opacity=".07"/><path d="m12 23.25h5.25v5.25h-5.25z" opacity=".32"/><path d="m12 18h5.25v5.25h-5.25z" opacity=".07"/><path d="m36.75 9h5.25v5.25h-5.25z"/><path d="m36.75 14.25h5.25v5.25h-5.25z" opacity=".6"/><path d="m31.5 14.25h5.25v5.25h-5.25z" opacity=".32"/><path d="m26.25 14.25h5.25v5.25h-5.25z" opacity=".07"/><path d="m36.75 19.5h5.25v5.25h-5.25z" opacity=".32"/><path d="m31.5 19.5h5.25v5.25h-5.25z" opacity=".07"/><path d="m36.75 24.75h5.25v5.25h-5.25z" opacity=".07"/><path d="m31.5 9h5.25v5.25h-5.25z" opacity=".6"/><path d="m26.25 9h5.25v5.25h-5.25z" opacity=".32"/><path d="m21 9h5.25v5.25h-5.25z" opacity=".07"/></g></g><rect height="46" rx="11" stroke="url(#d)" stroke-width="2" width="46" x="4" y="1"/></g><g fill="#0a0d12"><path d="m70.14 32.9999-7.14-20.412h4.872l3.976 12.6 1.12 3.668h.196l1.092-3.668 4.004-12.6h4.872l-7.112 20.412z"/><path d="m89.4038 33.2519c-1.4934 0-2.8094-.308-3.948-.924-1.1387-.616-2.0254-1.5027-2.66-2.66-.616-1.1573-.924-2.548-.924-4.172 0-1.5493.2986-2.9027.896-4.06.5973-1.176 1.456-2.0907 2.576-2.744s2.4733-.98 4.06-.98c1.4933 0 2.8.308 3.92.924 1.1386.616 2.016 1.512 2.632 2.688.6347 1.1573.952 2.548.952 4.172 0 1.5493-.2987 2.912-.896 4.088-.5973 1.1573-1.456 2.0627-2.576 2.716-1.1014.6347-2.4454.952-4.032.952zm-.028-3.332c1.008 0 1.82-.364 2.436-1.092s.924-1.8387.924-3.332-.2987-2.604-.896-3.332c-.5974-.728-1.4094-1.092-2.436-1.092-1.0267 0-1.848.364-2.464 1.092s-.924 1.8387-.924 3.332c0 1.4747.2986 2.5853.896 3.332.616.728 1.4373 1.092 2.464 1.092z"/><path d="m96.1912 32.9999 5.6278-7.7-5.1238-7.308h4.8998l2.996 4.508h.168l2.968-4.508h4.676l-4.984 7.196 5.516 7.812h-4.844l-3.472-5.096h-.168l-3.64 5.096z"/><path d="m119.7 33.2519c-1.568 0-2.912-.3173-4.032-.952-1.101-.6347-1.95-1.5213-2.548-2.66-.597-1.1573-.896-2.5013-.896-4.032 0-1.624.299-3.024.896-4.2.616-1.176 1.475-2.0813 2.576-2.716 1.102-.6533 2.39-.98 3.864-.98 1.736 0 3.164.3827 4.284 1.148 1.12.7467 1.923 1.7827 2.408 3.108.486 1.3067.644 2.7907.476 4.452h-10.444c-.018 1.1947.29 2.1187.924 2.772.635.6347 1.466.952 2.492.952.784 0 1.447-.168 1.988-.504.56-.3547.915-.8213 1.064-1.4h3.892c-.13 1.008-.513 1.8853-1.148 2.632-.616.7467-1.418 1.3347-2.408 1.764-.989.4107-2.118.616-3.388.616zm-.14-12.432c-.933 0-1.689.2707-2.268.812-.578.5227-.905 1.2413-.98 2.156h6.384c-.056-1.008-.382-1.7547-.98-2.24-.578-.4853-1.297-.728-2.156-.728z"/><path d="m128.857 32.9999v-20.412h4.116v20.412z"/><path d="m141.802 32.9999v-20.412h4.369v16.548h9.072v3.864z"/><path d="m161.613 33.2519c-1.792 0-3.239-.644-4.34-1.932-1.101-1.3067-1.652-3.248-1.652-5.824 0-2.5947.551-4.536 1.652-5.824 1.101-1.3067 2.548-1.96 4.34-1.96 1.157 0 2.147.2613 2.968.784.84.5227 1.437 1.2227 1.792 2.1h.224l.168-2.604h3.948v15.008h-4.116v-2.632h-.224c-.355.8587-.952 1.5587-1.792 2.1-.821.5227-1.811.784-2.968.784zm1.568-3.332c.765 0 1.391-.1773 1.876-.532.504-.3547.877-.812 1.12-1.372.243-.5787.364-1.1853.364-1.82v-1.428c0-.6533-.121-1.26-.364-1.82s-.616-1.0173-1.12-1.372c-.485-.3547-1.111-.532-1.876-.532-1.008 0-1.82.364-2.436 1.092-.616.7093-.924 1.8293-.924 3.36 0 1.512.308 2.632.924 3.36.616.7093 1.428 1.064 2.436 1.064z"/><path d="m182.776 33.2799c-1.157 0-2.156-.2613-2.996-.784-.821-.5413-1.409-1.2413-1.764-2.1h-.224l-.168 2.604h-3.948v-20.412h4.116v8.008h.224c.355-.8773.943-1.5773 1.764-2.1.84-.5227 1.839-.784 2.996-.784 1.792 0 3.239.6533 4.34 1.96 1.101 1.288 1.652 3.2293 1.652 5.824 0 2.576-.551 4.5173-1.652 5.824s-2.548 1.96-4.34 1.96zm-1.568-3.332c1.008 0 1.82-.3547 2.436-1.064.616-.728.924-1.8573.924-3.388s-.308-2.6507-.924-3.36c-.616-.728-1.428-1.092-2.436-1.092-.765 0-1.4.1773-1.904.532s-.877.8213-1.12 1.4c-.243.56-.364 1.1573-.364 1.792v1.456c0 .6347.121 1.2413.364 1.82.243.56.616 1.0173 1.12 1.372s1.139.532 1.904.532z"/><path d="m196.855 33.2799c-2.184 0-3.874-.4573-5.068-1.372-1.176-.9333-1.755-2.1467-1.736-3.64h4.032c.018.8027.298 1.3813.84 1.736.56.336 1.241.504 2.044.504.84 0 1.474-.14 1.904-.42.429-.2987.644-.7.644-1.204 0-.6907-.252-1.1387-.756-1.344-.486-.2053-1.26-.3827-2.324-.532-1.102-.1493-2.11-.364-3.024-.644-.915-.2987-1.643-.7467-2.184-1.344-.523-.5973-.784-1.4467-.784-2.548 0-1.5867.597-2.772 1.792-3.556 1.213-.8027 2.8-1.204 4.76-1.204 1.922 0 3.453.42 4.592 1.26 1.138.8213 1.726 1.9787 1.764 3.472h-4.032c0-.6347-.224-1.12-.672-1.456-.43-.336-1.018-.504-1.764-.504-.766 0-1.344.1493-1.736.448-.392.28-.588.6533-.588 1.12 0 .56.252.952.756 1.176s1.306.4107 2.408.56c.784.112 1.53.252 2.24.42.709.1493 1.334.392 1.876.728.56.3173.998.7653 1.316 1.344.336.56.504 1.2973.504 2.212 0 1.6427-.607 2.856-1.82 3.64-1.214.7653-2.875 1.148-4.984 1.148z"/></g></svg>