<svg fill="none" height="48" viewBox="0 0 48 48" width="48" xmlns="http://www.w3.org/2000/svg" xmlns:xlink="http://www.w3.org/1999/xlink"><filter id="a" color-interpolation-filters="sRGB" filterUnits="userSpaceOnUse" height="54" width="48" x="0" y="-3"><feFlood flood-opacity="0" result="BackgroundImageFix"/><feBlend in="SourceGraphic" in2="BackgroundImageFix" mode="normal" result="shape"/><feColorMatrix in="SourceAlpha" result="hardAlpha" type="matrix" values="0 0 0 0 0 0 0 0 0 0 0 0 0 0 0 0 0 0 127 0"/><feOffset dy="-3"/><feGaussianBlur stdDeviation="1.5"/><feComposite in2="hardAlpha" k2="-1" k3="1" operator="arithmetic"/><feColorMatrix type="matrix" values="0 0 0 0 0 0 0 0 0 0 0 0 0 0 0 0 0 0 0.1 0"/><feBlend in2="shape" mode="normal" result="effect1_innerShadow_3051_46905"/><feColorMatrix in="SourceAlpha" result="hardAlpha" type="matrix" values="0 0 0 0 0 0 0 0 0 0 0 0 0 0 0 0 0 0 127 0"/><feOffset dy="3"/><feGaussianBlur stdDeviation="1.5"/><feComposite in2="hardAlpha" k2="-1" k3="1" operator="arithmetic"/><feColorMatrix type="matrix" values="0 0 0 0 1 0 0 0 0 1 0 0 0 0 1 0 0 0 0.1 0"/><feBlend in2="effect1_innerShadow_3051_46905" mode="normal" result="effect2_innerShadow_3051_46905"/><feColorMatrix in="SourceAlpha" result="hardAlpha" type="matrix" values="0 0 0 0 0 0 0 0 0 0 0 0 0 0 0 0 0 0 127 0"/><feMorphology in="SourceAlpha" operator="erode" radius="1" result="effect3_innerShadow_3051_46905"/><feOffset/><feComposite in2="hardAlpha" k2="-1" k3="1" operator="arithmetic"/><feColorMatrix type="matrix" values="0 0 0 0 0.0627451 0 0 0 0 0.0941176 0 0 0 0 0.156863 0 0 0 0.24 0"/><feBlend in2="effect2_innerShadow_3051_46905" mode="normal" result="effect3_innerShadow_3051_46905"/></filter><filter id="b" color-interpolation-filters="sRGB" filterUnits="userSpaceOnUse" height="42" width="36" x="6" y="5.25"><feFlood flood-opacity="0" result="BackgroundImageFix"/><feColorMatrix in="SourceAlpha" result="hardAlpha" type="matrix" values="0 0 0 0 0 0 0 0 0 0 0 0 0 0 0 0 0 0 127 0"/><feMorphology in="SourceAlpha" operator="erode" radius="1.5" result="effect1_dropShadow_3051_46905"/><feOffset dy="2.25"/><feGaussianBlur stdDeviation="2.25"/><feComposite in2="hardAlpha" operator="out"/><feColorMatrix type="matrix" values="0 0 0 0 0.141176 0 0 0 0 0.141176 0 0 0 0 0.141176 0 0 0 0.1 0"/><feBlend in2="BackgroundImageFix" mode="normal" result="effect1_dropShadow_3051_46905"/><feBlend in="SourceGraphic" in2="effect1_dropShadow_3051_46905" mode="normal" result="shape"/></filter><linearGradient id="c" gradientUnits="userSpaceOnUse" x1="24" x2="26" y1=".000001" y2="48"><stop offset="0" stop-color="#fff" stop-opacity="0"/><stop offset="1" stop-color="#fff" stop-opacity=".12"/></linearGradient><linearGradient id="d" gradientUnits="userSpaceOnUse" x1="24" x2="24" y1="9" y2="39"><stop offset="0" stop-color="#fff" stop-opacity=".8"/><stop offset="1" stop-color="#fff" stop-opacity=".5"/></linearGradient><linearGradient id="e" gradientUnits="userSpaceOnUse" x1="24" x2="24" y1="0" y2="48"><stop offset="0" stop-color="#fff" stop-opacity=".12"/><stop offset="1" stop-color="#fff" stop-opacity="0"/></linearGradient><clipPath id="f"><rect height="48" rx="12" width="48"/></clipPath><g filter="url(#a)"><g clip-path="url(#f)"><rect fill="#099250" height="48" rx="12" width="48"/><path d="m0 0h48v48h-48z" fill="url(#c)"/><g fill="url(#d)" filter="url(#b)"><path d="m22.125 18.375c0 1.0355.8395 1.875 1.875 1.875s1.875-.8395 1.875-1.875v-7.5c0-1.03553-.8395-1.875-1.875-1.875s-1.875.83947-1.875 1.875z"/><path d="m22.125 37.125c0 1.0355.8395 1.875 1.875 1.875s1.875-.8395 1.875-1.875v-7.5c0-1.0355-.8395-1.875-1.875-1.875s-1.875.8395-1.875 1.875z"/><path d="m26.6521 21.3483c-.7322-.7322-.7322-1.9194 0-2.6516l5.3033-5.3033c.7323-.7322 1.9194-.7322 2.6517 0 .7322.7322.7322 1.9194 0 2.6516l-5.3033 5.3033c-.7323.7323-1.9194.7323-2.6517 0z"/><path d="m13.3939 31.9549c-.7323.7323-.7323 1.9195 0 2.6517.7322.7322 1.9194.7322 2.6516 0l5.3033-5.3033c.7323-.7322.7323-1.9194 0-2.6517-.7322-.7322-1.9194-.7322-2.6516 0z"/><path d="m26.6518 26.6517c.7323-.7323 1.9195-.7323 2.6517 0l5.3033 5.3033c.7322.7322.7322 1.9194 0 2.6516-.7322.7323-1.9194.7322-2.6517 0l-5.3033-5.3033c-.7322-.7322-.7322-1.9194 0-2.6516z"/><path d="m16.0452 13.3934c-.7322-.7322-1.9194-.7322-2.6516 0s-.7322 1.9194 0 2.6517l5.3033 5.3033c.7322.7322 1.9194.7322 2.6516 0 .7323-.7323.7323-1.9195 0-2.6517z"/><path d="m27.75 24c0-1.0355.8395-1.875 1.875-1.875h7.5c1.0355 0 1.875.8395 1.875 1.875s-.8395 1.875-1.875 1.875h-7.5c-1.0355 0-1.875-.8395-1.875-1.875z"/><path d="m10.875 22.125c-1.03553 0-1.875.8395-1.875 1.875s.83947 1.875 1.875 1.875h7.5c1.0355 0 1.875-.8395 1.875-1.875s-.8395-1.875-1.875-1.875z"/></g></g><rect height="46" rx="11" stroke="url(#e)" stroke-width="2" width="46" x="1" y="1"/></g></svg>