<svg fill="none" height="48" viewBox="0 0 212 48" width="212" xmlns="http://www.w3.org/2000/svg" xmlns:xlink="http://www.w3.org/1999/xlink"><filter id="a" color-interpolation-filters="sRGB" filterUnits="userSpaceOnUse" height="54" width="48" x="0" y="-3"><feFlood flood-opacity="0" result="BackgroundImageFix"/><feBlend in="SourceGraphic" in2="BackgroundImageFix" mode="normal" result="shape"/><feColorMatrix in="SourceAlpha" result="hardAlpha" type="matrix" values="0 0 0 0 0 0 0 0 0 0 0 0 0 0 0 0 0 0 127 0"/><feOffset dy="-3"/><feGaussianBlur stdDeviation="1.5"/><feComposite in2="hardAlpha" k2="-1" k3="1" operator="arithmetic"/><feColorMatrix type="matrix" values="0 0 0 0 0 0 0 0 0 0 0 0 0 0 0 0 0 0 0.1 0"/><feBlend in2="shape" mode="normal" result="effect1_innerShadow_3046_38799"/><feColorMatrix in="SourceAlpha" result="hardAlpha" type="matrix" values="0 0 0 0 0 0 0 0 0 0 0 0 0 0 0 0 0 0 127 0"/><feOffset dy="3"/><feGaussianBlur stdDeviation="1.5"/><feComposite in2="hardAlpha" k2="-1" k3="1" operator="arithmetic"/><feColorMatrix type="matrix" values="0 0 0 0 1 0 0 0 0 1 0 0 0 0 1 0 0 0 0.1 0"/><feBlend in2="effect1_innerShadow_3046_38799" mode="normal" result="effect2_innerShadow_3046_38799"/><feColorMatrix in="SourceAlpha" result="hardAlpha" type="matrix" values="0 0 0 0 0 0 0 0 0 0 0 0 0 0 0 0 0 0 127 0"/><feMorphology in="SourceAlpha" operator="erode" radius="1" result="effect3_innerShadow_3046_38799"/><feOffset/><feComposite in2="hardAlpha" k2="-1" k3="1" operator="arithmetic"/><feColorMatrix type="matrix" values="0 0 0 0 0.0627451 0 0 0 0 0.0941176 0 0 0 0 0.156863 0 0 0 0.24 0"/><feBlend in2="effect2_innerShadow_3046_38799" mode="normal" result="effect3_innerShadow_3046_38799"/></filter><filter id="b" color-interpolation-filters="sRGB" filterUnits="userSpaceOnUse" height="44" width="44" x="2" y="5"><feFlood flood-opacity="0" result="BackgroundImageFix"/><feColorMatrix in="SourceAlpha" result="hardAlpha" type="matrix" values="0 0 0 0 0 0 0 0 0 0 0 0 0 0 0 0 0 0 127 0"/><feMorphology in="SourceAlpha" operator="erode" radius="2" result="effect1_dropShadow_3046_38799"/><feOffset dy="3"/><feGaussianBlur stdDeviation="3"/><feComposite in2="hardAlpha" operator="out"/><feColorMatrix type="matrix" values="0 0 0 0 0.141176 0 0 0 0 0.141176 0 0 0 0 0.141176 0 0 0 0.1 0"/><feBlend in2="BackgroundImageFix" mode="normal" result="effect1_dropShadow_3046_38799"/><feBlend in="SourceGraphic" in2="effect1_dropShadow_3046_38799" mode="normal" result="shape"/></filter><linearGradient id="c" gradientUnits="userSpaceOnUse" x1="24" x2="26" y1=".000001" y2="48"><stop offset="0" stop-color="#fff" stop-opacity="0"/><stop offset="1" stop-color="#fff" stop-opacity=".12"/></linearGradient><linearGradient id="d" gradientUnits="userSpaceOnUse" x1="24" x2="24" y1="14.25" y2="33.75"><stop offset="0" stop-color="#fff" stop-opacity=".8"/><stop offset="1" stop-color="#fff" stop-opacity=".5"/></linearGradient><linearGradient id="e" gradientUnits="userSpaceOnUse" x1="24" x2="24" y1="0" y2="48"><stop offset="0" stop-color="#fff" stop-opacity=".12"/><stop offset="1" stop-color="#fff" stop-opacity="0"/></linearGradient><clipPath id="f"><rect height="48" rx="12" width="48"/></clipPath><g filter="url(#a)"><g clip-path="url(#f)"><rect fill="#444ce7" height="48" rx="12" width="48"/><path d="m0 0h48v48h-48z" fill="url(#c)"/><g fill="url(#d)" filter="url(#b)"><path d="m42 14.25h-12.8081c-.9114 0-1.7733.4143-2.3426 1.1259l-1.1986 1.4982c-.5693.7116-1.4312 1.1259-2.3426 1.1259h-11.3081l-3 3.75h12.8081c.9114 0 1.7733-.4143 2.3426-1.1259l1.1986-1.4982c.5693-.7116 1.4312-1.1259 2.3426-1.1259h11.3081z"/><path d="m40.5 20.25h-12.8081c-.9114 0-1.7733.4143-2.3426 1.1259l-1.1986 1.4982c-.5693.7116-1.4312 1.1259-2.3426 1.1259h-11.3081l-3 3.75h12.8081c.9114 0 1.7733-.4143 2.3426-1.1259l1.1986-1.4982c.5693-.7116 1.4312-1.1259 2.3426-1.1259h11.3081z"/><path d="m39 26.25h-12.8081c-.9114 0-1.7733.4143-2.3426 1.1259l-1.1986 1.4982c-.5693.7116-1.4312 1.1259-2.3426 1.1259h-11.3081l-3 3.75h12.8081c.9114 0 1.7733-.4143 2.3426-1.1259l1.1986-1.4982c.5693-.7116 1.4312-1.1259 2.3426-1.1259h11.3081z"/></g></g><rect height="46" rx="11" stroke="url(#e)" stroke-width="2" width="46" x="1" y="1"/></g><g fill="#fff"><path d="m68.397 13.8301c3.969 0 6.912 2.052 6.912 5.751 0 2.43-1.377 4.023-3.402 4.617 1.998.27 2.916 1.269 3.105 3.321l.459 5.481h-4.158l-.351-4.833c-.135-1.62-1.026-2.16-3.267-2.16h-3.564v6.993h-4.131v-19.17zm-4.266 8.694h3.699c2.079 0 3.24-.918 3.24-2.592 0-1.701-1.161-2.619-3.24-2.619h-3.699z"/><path d="m76.3002 25.8451c0-4.536 2.916-7.479 7.344-7.479 3.942 0 7.02 2.727 6.993 7.776v.756h-10.071c.108 2.133 1.242 3.402 3.078 3.402 1.188 0 2.241-.675 2.7-1.782l4.104.297c-.864 2.781-3.537 4.509-6.804 4.509-4.428 0-7.344-2.943-7.344-7.479zm4.293-1.404h5.913c-.216-2.16-1.458-3.051-2.862-3.051-1.728 0-2.835 1.161-3.051 3.051z"/><path d="m93.4403 18.6091c0-3.132 1.539-4.779 4.968-4.779h2.9157v3.051h-2.2947c-.891 0-1.512.648-1.512 1.728v.675h3.5907v3.051h-3.5907v10.665h-4.077v-10.665h-2.106v-3.051h2.106z"/><path d="m102.923 18.6901h3.888l.081 2.862c.567-1.917 1.647-2.862 3.456-2.862h1.296v3.051h-1.35c-2.349 0-3.267 1.08-3.267 3.294v7.965h-4.104z"/><path d="m116.028 29.0851c0 .891.756 1.728 2.214 1.674 1.782-.054 3.051-1.458 3.024-3.78v-.351l-2.376.459c-1.62.324-2.862.513-2.862 1.998zm-4.185.108c0-2.673 1.944-3.645 5.076-4.239l4.293-.837v-.054c0-2.106-.891-3.024-2.484-3.024-1.377 0-2.268.837-2.538 2.295l-4.104-.216c.54-3.024 2.943-4.752 6.642-4.752 4.212 0 6.588 2.025 6.588 6.237v8.397h-3.645l-.135-1.998c-.594 1.269-2.079 2.295-4.644 2.349-2.808 0-5.049-1.62-5.049-4.158z"/><path d="m136.844 24.1711c-.243-1.728-1.377-2.673-2.808-2.673-2.025 0-3.159 1.593-3.159 4.347s1.134 4.347 3.159 4.347c1.512 0 2.619-.945 2.862-2.808l4.212.162c-.378 3.564-3.267 5.778-7.074 5.778-4.428 0-7.344-2.943-7.344-7.479s2.916-7.479 7.344-7.479c3.699 0 6.615 2.133 6.993 5.616z"/><path d="m143.491 15.4501h4.104v3.24h3.753v3.024h-3.753v6.588c0 1.08.54 1.647 1.566 1.647h2.214v3.051h-3.078c-3.132 0-4.806-1.539-4.806-4.698v-6.588h-2.322v-3.024h2.322z"/><path d="m152.867 18.6901h4.104v14.31h-4.104zm-.054-1.863v-2.997h4.212v2.997z"/><path d="m165.944 33.3241c-4.428 0-7.344-2.943-7.344-7.479s2.916-7.479 7.344-7.479 7.344 2.943 7.344 7.479-2.916 7.479-7.344 7.479zm-3.159-7.479c0 2.754 1.134 4.347 3.159 4.347s3.159-1.593 3.159-4.347-1.134-4.347-3.159-4.347-3.159 1.593-3.159 4.347z"/><path d="m174.78 18.6901h3.672l.108 2.295c.783-1.89 2.376-2.619 4.266-2.619 3.132 0 4.941 2.106 4.941 5.427v9.207h-4.077v-7.857c0-2.268-.513-3.537-2.187-3.537-1.728 0-2.619 1.269-2.619 3.537v7.857h-4.104z"/><path d="m193.554 29.0851c0 .891.756 1.728 2.214 1.674 1.782-.054 3.051-1.458 3.024-3.78v-.351l-2.376.459c-1.62.324-2.862.513-2.862 1.998zm-4.185.108c0-2.673 1.944-3.645 5.076-4.239l4.293-.837v-.054c0-2.106-.891-3.024-2.484-3.024-1.377 0-2.268.837-2.538 2.295l-4.104-.216c.54-3.024 2.943-4.752 6.642-4.752 4.212 0 6.588 2.025 6.588 6.237v8.397h-3.645l-.135-1.998c-.594 1.269-2.079 2.295-4.644 2.349-2.808 0-5.049-1.62-5.049-4.158z"/><path d="m205.025 13.8301h4.104v15.012c0 .702.378 1.107 1.08 1.107h1.026v3.051h-2.214c-2.376 0-3.996-1.431-3.996-3.996z"/></g></svg>