<svg fill="none" height="48" viewBox="0 0 181 48" width="181" xmlns="http://www.w3.org/2000/svg" xmlns:xlink="http://www.w3.org/1999/xlink"><filter id="a" color-interpolation-filters="sRGB" filterUnits="userSpaceOnUse" height="54" width="48" x="0" y="-3"><feFlood flood-opacity="0" result="BackgroundImageFix"/><feBlend in="SourceGraphic" in2="BackgroundImageFix" mode="normal" result="shape"/><feColorMatrix in="SourceAlpha" result="hardAlpha" type="matrix" values="0 0 0 0 0 0 0 0 0 0 0 0 0 0 0 0 0 0 127 0"/><feOffset dy="-3"/><feGaussianBlur stdDeviation="1.5"/><feComposite in2="hardAlpha" k2="-1" k3="1" operator="arithmetic"/><feColorMatrix type="matrix" values="0 0 0 0 0 0 0 0 0 0 0 0 0 0 0 0 0 0 0.1 0"/><feBlend in2="shape" mode="normal" result="effect1_innerShadow_3046_38774"/><feColorMatrix in="SourceAlpha" result="hardAlpha" type="matrix" values="0 0 0 0 0 0 0 0 0 0 0 0 0 0 0 0 0 0 127 0"/><feOffset dy="3"/><feGaussianBlur stdDeviation="1.5"/><feComposite in2="hardAlpha" k2="-1" k3="1" operator="arithmetic"/><feColorMatrix type="matrix" values="0 0 0 0 1 0 0 0 0 1 0 0 0 0 1 0 0 0 0.1 0"/><feBlend in2="effect1_innerShadow_3046_38774" mode="normal" result="effect2_innerShadow_3046_38774"/><feColorMatrix in="SourceAlpha" result="hardAlpha" type="matrix" values="0 0 0 0 0 0 0 0 0 0 0 0 0 0 0 0 0 0 127 0"/><feMorphology in="SourceAlpha" operator="erode" radius="1" result="effect3_innerShadow_3046_38774"/><feOffset/><feComposite in2="hardAlpha" k2="-1" k3="1" operator="arithmetic"/><feColorMatrix type="matrix" values="0 0 0 0 0.0627451 0 0 0 0 0.0941176 0 0 0 0 0.156863 0 0 0 0.24 0"/><feBlend in2="effect2_innerShadow_3046_38774" mode="normal" result="effect3_innerShadow_3046_38774"/></filter><filter id="b" color-interpolation-filters="sRGB" filterUnits="userSpaceOnUse" height="42" width="30.002" x="8.99805" y="5.25"><feFlood flood-opacity="0" result="BackgroundImageFix"/><feColorMatrix in="SourceAlpha" result="hardAlpha" type="matrix" values="0 0 0 0 0 0 0 0 0 0 0 0 0 0 0 0 0 0 127 0"/><feMorphology in="SourceAlpha" operator="erode" radius="1.5" result="effect1_dropShadow_3046_38774"/><feOffset dy="2.25"/><feGaussianBlur stdDeviation="2.25"/><feComposite in2="hardAlpha" operator="out"/><feColorMatrix type="matrix" values="0 0 0 0 0.141176 0 0 0 0 0.141176 0 0 0 0 0.141176 0 0 0 0.1 0"/><feBlend in2="BackgroundImageFix" mode="normal" result="effect1_dropShadow_3046_38774"/><feBlend in="SourceGraphic" in2="effect1_dropShadow_3046_38774" mode="normal" result="shape"/></filter><linearGradient id="c" gradientUnits="userSpaceOnUse" x1="24" x2="26" y1=".000001" y2="48"><stop offset="0" stop-color="#fff" stop-opacity="0"/><stop offset="1" stop-color="#fff" stop-opacity=".12"/></linearGradient><linearGradient id="d" gradientUnits="userSpaceOnUse" x1="23.998" x2="23.998" y1="12" y2="36.0006"><stop offset="0" stop-color="#fff" stop-opacity=".8"/><stop offset="1" stop-color="#fff" stop-opacity=".5"/></linearGradient><linearGradient id="e" gradientUnits="userSpaceOnUse" x1="24" x2="24" y1="0" y2="48"><stop offset="0" stop-color="#fff" stop-opacity=".12"/><stop offset="1" stop-color="#fff" stop-opacity="0"/></linearGradient><clipPath id="f"><rect height="48" rx="12" width="48"/></clipPath><g filter="url(#a)"><g clip-path="url(#f)"><rect fill="#eaaa08" height="48" rx="12" width="48"/><path d="m0 0h48v48h-48z" fill="url(#c)"/><g fill="url(#d)" filter="url(#b)"><path d="m27.998 20v-8h-16v8z"/><path d="m27.9977 27.9999c-4.4183 0-8 3.5817-8 8l-7.9987.0003v-.2064c.11-8.7073 7.1753-15.7386 15.8958-15.7936l8.1032.0004v16h-8z"/></g></g><rect height="46" rx="11" stroke="url(#e)" stroke-width="2" width="46" x="1" y="1"/></g><g fill="#fff"><path d="m60 32.9999v-19.683h5.076v15.201h8.883v4.482z"/><path d="m82.3611 33.2699c-1.638 0-3.006-.306-4.104-.918-1.098-.63-1.926-1.512-2.484-2.646-.54-1.134-.81-2.448-.81-3.942v-.297c0-1.584.297-2.916.891-3.996.594-1.098 1.413-1.935 2.457-2.511 1.062-.576 2.277-.864 3.645-.864 1.53 0 2.826.288 3.888.864 1.08.558 1.899 1.35 2.457 2.376.558 1.008.837 2.196.837 3.564v1.998h-9.342v.675c0 .612.225 1.116.675 1.512s1.026.594 1.728.594c.63 0 1.143-.126 1.539-.378.396-.27.63-.621.702-1.053h4.536c-.054.99-.369 1.863-.945 2.619s-1.35 1.35-2.322 1.782c-.972.414-2.088.621-3.348.621zm-2.565-9.396v.135h4.644v-.135c0-.774-.216-1.341-.648-1.701-.432-.378-.99-.567-1.674-.567s-1.242.198-1.674.594c-.432.378-.648.936-.648 1.674z"/><path d="m95.779 33.2699c-1.314 0-2.385-.297-3.213-.891-.81-.594-1.404-1.431-1.782-2.511-.378-1.098-.567-2.367-.567-3.807v-.702c0-2.574.504-4.419 1.512-5.535 1.008-1.134 2.358-1.701 4.05-1.701.918 0 1.746.198 2.484.594.756.378 1.314.936 1.674 1.674h.216l.243-2.025h4.509v14.634h-4.752v-1.998h-.216c-.36.72-.918 1.278-1.674 1.674-.738.396-1.566.594-2.484.594zm1.944-3.861c.738 0 1.323-.216 1.755-.648s.648-1.062.648-1.89v-2.376c0-.81-.216-1.431-.648-1.863-.432-.45-1.017-.675-1.755-.675-.774 0-1.377.225-1.809.675-.414.45-.621 1.071-.621 1.863v2.43c0 .774.207 1.386.621 1.836.432.432 1.035.648 1.809.648z"/><path d="m107.706 37.5089v-19.143h4.509l.27 2.025h.216c.36-.738.909-1.296 1.647-1.674.756-.396 1.593-.594 2.511-.594 1.332 0 2.403.297 3.213.891s1.404 1.44 1.782 2.538c.378 1.08.567 2.349.567 3.807v.702c0 2.556-.504 4.401-1.512 5.535-1.008 1.116-2.358 1.674-4.05 1.674-.918 0-1.755-.198-2.511-.594-.738-.396-1.287-.954-1.647-1.674h-.216v6.507zm7.209-8.1c.774 0 1.368-.216 1.782-.648.432-.45.648-1.062.648-1.836v-2.43c0-.792-.216-1.413-.648-1.863-.414-.45-1.008-.675-1.782-.675-.72 0-1.305.225-1.755.675-.432.432-.648 1.053-.648 1.863v2.376c0 .828.216 1.458.648 1.89.45.432 1.035.648 1.755.648z"/><path d="m122.944 37.5089v-3.726h5.076v-2.376l-5.751-13.041h4.968l2.592 7.398.432 1.404h.135l.432-1.404 2.7-7.398h4.941l-5.697 13.041v3.159c0 .99-.288 1.728-.864 2.214-.558.486-1.305.729-2.241.729z"/><path d="m145.539 33.2699c-1.638 0-3.006-.306-4.104-.918-1.098-.63-1.926-1.512-2.484-2.646-.54-1.134-.81-2.448-.81-3.942v-.297c0-1.584.297-2.916.891-3.996.594-1.098 1.413-1.935 2.457-2.511 1.062-.576 2.277-.864 3.645-.864 1.53 0 2.826.288 3.888.864 1.08.558 1.899 1.35 2.457 2.376.558 1.008.837 2.196.837 3.564v1.998h-9.342v.675c0 .612.225 1.116.675 1.512s1.026.594 1.728.594c.63 0 1.143-.126 1.539-.378.396-.27.63-.621.702-1.053h4.536c-.054.99-.369 1.863-.945 2.619s-1.35 1.35-2.322 1.782c-.972.414-2.088.621-3.348.621zm-2.565-9.396v.135h4.644v-.135c0-.774-.216-1.341-.648-1.701-.432-.378-.99-.567-1.674-.567s-1.242.198-1.674.594c-.432.378-.648.936-.648 1.674z"/><path d="m158.957 33.2699c-1.314 0-2.385-.297-3.213-.891-.81-.594-1.404-1.431-1.782-2.511-.378-1.098-.567-2.367-.567-3.807v-.702c0-2.574.504-4.419 1.512-5.535 1.008-1.134 2.358-1.701 4.05-1.701.918 0 1.746.198 2.484.594.756.378 1.314.936 1.674 1.674h.216l.243-2.025h4.509v14.634h-4.752v-1.998h-.216c-.36.72-.918 1.278-1.674 1.674-.738.396-1.566.594-2.484.594zm1.944-3.861c.738 0 1.323-.216 1.755-.648s.648-1.062.648-1.89v-2.376c0-.81-.216-1.431-.648-1.863-.432-.45-1.017-.675-1.755-.675-.774 0-1.377.225-1.809.675-.414.45-.621 1.071-.621 1.863v2.43c0 .774.207 1.386.621 1.836.432.432 1.035.648 1.809.648z"/><path d="m170.884 32.9999v-11.043c0-1.08.324-1.944.972-2.592.666-.666 1.53-.999 2.592-.999h5.94v3.834h-4.725v10.8z"/></g></svg>