<svg fill="none" height="48" viewBox="0 0 201 48" width="201" xmlns="http://www.w3.org/2000/svg" xmlns:xlink="http://www.w3.org/1999/xlink"><filter id="a" color-interpolation-filters="sRGB" filterUnits="userSpaceOnUse" height="54" width="48" x="0" y="-3"><feFlood flood-opacity="0" result="BackgroundImageFix"/><feBlend in="SourceGraphic" in2="BackgroundImageFix" mode="normal" result="shape"/><feColorMatrix in="SourceAlpha" result="hardAlpha" type="matrix" values="0 0 0 0 0 0 0 0 0 0 0 0 0 0 0 0 0 0 127 0"/><feOffset dy="-3"/><feGaussianBlur stdDeviation="1.5"/><feComposite in2="hardAlpha" k2="-1" k3="1" operator="arithmetic"/><feColorMatrix type="matrix" values="0 0 0 0 0 0 0 0 0 0 0 0 0 0 0 0 0 0 0.1 0"/><feBlend in2="shape" mode="normal" result="effect1_innerShadow_3046_38813"/><feColorMatrix in="SourceAlpha" result="hardAlpha" type="matrix" values="0 0 0 0 0 0 0 0 0 0 0 0 0 0 0 0 0 0 127 0"/><feOffset dy="3"/><feGaussianBlur stdDeviation="1.5"/><feComposite in2="hardAlpha" k2="-1" k3="1" operator="arithmetic"/><feColorMatrix type="matrix" values="0 0 0 0 1 0 0 0 0 1 0 0 0 0 1 0 0 0 0.1 0"/><feBlend in2="effect1_innerShadow_3046_38813" mode="normal" result="effect2_innerShadow_3046_38813"/><feColorMatrix in="SourceAlpha" result="hardAlpha" type="matrix" values="0 0 0 0 0 0 0 0 0 0 0 0 0 0 0 0 0 0 127 0"/><feMorphology in="SourceAlpha" operator="erode" radius="1" result="effect3_innerShadow_3046_38813"/><feOffset/><feComposite in2="hardAlpha" k2="-1" k3="1" operator="arithmetic"/><feColorMatrix type="matrix" values="0 0 0 0 0.0627451 0 0 0 0 0.0941176 0 0 0 0 0.156863 0 0 0 0.24 0"/><feBlend in2="effect2_innerShadow_3046_38813" mode="normal" result="effect3_innerShadow_3046_38813"/></filter><filter id="b" color-interpolation-filters="sRGB" filterUnits="userSpaceOnUse" height="42" width="42" x="3" y="5.25"><feFlood flood-opacity="0" result="BackgroundImageFix"/><feColorMatrix in="SourceAlpha" result="hardAlpha" type="matrix" values="0 0 0 0 0 0 0 0 0 0 0 0 0 0 0 0 0 0 127 0"/><feMorphology in="SourceAlpha" operator="erode" radius="1.5" result="effect1_dropShadow_3046_38813"/><feOffset dy="2.25"/><feGaussianBlur stdDeviation="2.25"/><feComposite in2="hardAlpha" operator="out"/><feColorMatrix type="matrix" values="0 0 0 0 0.141176 0 0 0 0 0.141176 0 0 0 0 0.141176 0 0 0 0.1 0"/><feBlend in2="BackgroundImageFix" mode="normal" result="effect1_dropShadow_3046_38813"/><feBlend in="SourceGraphic" in2="effect1_dropShadow_3046_38813" mode="normal" result="shape"/></filter><linearGradient id="c" gradientUnits="userSpaceOnUse" x1="24" x2="26" y1=".000001" y2="48"><stop offset="0" stop-color="#fff" stop-opacity="0"/><stop offset="1" stop-color="#fff" stop-opacity=".12"/></linearGradient><linearGradient id="d"><stop offset="0" stop-color="#fff" stop-opacity=".8"/><stop offset="1" stop-color="#fff" stop-opacity=".5"/></linearGradient><linearGradient id="e" gradientUnits="userSpaceOnUse" x1="37.5275" x2="37.5275" xlink:href="#d" y1="15.1123" y2="23.0969"/><linearGradient id="f" gradientUnits="userSpaceOnUse" x1="31.3271" x2="31.3271" xlink:href="#d" y1="15.1821" y2="28.7424"/><linearGradient id="g" gradientUnits="userSpaceOnUse" x1="20.3502" x2="20.3502" xlink:href="#d" y1="15.1934" y2="34.3892"/><linearGradient id="h" gradientUnits="userSpaceOnUse" x1="24" x2="24" y1="0" y2="48"><stop offset="0" stop-color="#fff" stop-opacity=".12"/><stop offset="1" stop-color="#fff" stop-opacity="0"/></linearGradient><clipPath id="i"><rect height="48" rx="12" width="48"/></clipPath><g filter="url(#a)"><g clip-path="url(#i)"><rect fill="#155eef" height="48" rx="12" width="48"/><path d="m0 0h48v48h-48z" fill="url(#c)"/><g filter="url(#b)"><path d="m40.3504 21.9276c-1.5591 1.5591-4.0868 1.5591-5.6459 0s-1.5591-4.0869 0-5.646 4.0868-1.5591 5.6459 0 1.5591 4.0869 0 5.646z" fill="url(#e)" opacity=".4"/><path d="m40.3456 21.9272c-1.5591 1.5591-4.0869 1.559-5.646 0l-5.5757-5.5758c-1.5591-1.559-4.0869-1.559-5.646 0-1.5591 1.5591-1.5591 4.0869 0 5.646l5.5757 5.5757c1.5591 1.5591 4.0869 1.5591 5.646 0z" fill="url(#f)" opacity=".6"/><path d="m34.7003 27.5739c-1.5591 1.5591-4.0869 1.5591-5.646 0l-10.8214-10.8215c-2.0788-2.0787-5.4491-2.0787-7.5279 0l-4.705 4.705c1.55909-1.5591 4.0869-1.5591 5.646 0l11.7624 11.7624c1.5591 1.5591 4.0869 1.5591 5.646 0z" fill="url(#g)"/></g></g><rect height="46" rx="11" stroke="url(#h)" stroke-width="2" width="46" x="1" y="1"/></g><g fill="#fff"><path d="m76.362 32.9998-3.618-13.554-3.618 13.554h-4.158l-4.968-19.386h3.996l3.132 13.149 3.564-13.149h4.185l3.456 13.203 3.159-13.203h4.023l-4.995 19.386z"/><path d="m90.7726 15.2338c0 1.269-1.026 2.214-2.511 2.214-1.458 0-2.484-.945-2.484-2.214 0-1.323 1.026-2.268 2.484-2.268 1.485 0 2.511.945 2.511 2.268zm-.594 17.766h-3.753v-14.418h3.753z"/><path d="m96.2184 32.9998h-3.78v-19.386h3.78z"/><path d="m97.5589 25.7908c0-4.266 2.5111-7.479 6.3991-7.479 1.728 0 3.186.756 4.266 2.133v-6.831h3.726v19.386h-3.429v-2.079c-1.134 1.512-2.7 2.349-4.563 2.349-3.888 0-6.3991-3.267-6.3991-7.479zm3.8611 0c0 2.7 1.539 4.131 3.375 4.131 1.863 0 3.402-1.458 3.402-4.185s-1.566-4.104-3.402-4.104-3.375 1.404-3.375 4.158z"/><path d="m120.295 33.2698c-4.158 0-7.02-3.078-7.02-7.479 0-4.32 2.97-7.479 7.02-7.479 3.753 0 6.534 2.538 6.993 6.426h-3.942c-.189-1.917-1.35-3.105-3.051-3.105-1.944 0-3.186 1.593-3.186 4.158 0 2.592 1.215 4.158 3.186 4.158 1.728 0 2.835-1.134 3.051-3.105h3.942c-.432 3.969-3.132 6.426-6.993 6.426z"/><path d="m132.37 26.0068v6.993h-3.753v-14.418h3.456v2.781c1.053-1.836 3.294-2.943 5.616-2.943v3.888c-3.186-.243-5.319.513-5.319 3.699z"/><path d="m147.145 32.9998v-1.782c-.945 1.35-2.376 2.052-4.347 2.052-2.997 0-4.995-1.755-4.995-4.455 0-2.808 2.268-4.32 6.48-4.32.81 0 1.512.054 2.403.162v-.864c0-1.62-.918-2.565-2.484-2.565-1.62 0-2.592.945-2.727 2.565h-3.375c.216-3.321 2.619-5.481 6.102-5.481 3.78 0 5.994 2.079 5.994 5.616v9.072zm-5.805-4.293c0 1.215.864 1.971 2.268 1.971 1.917 0 3.078-1.053 3.078-2.727v-1.026c-.891-.135-1.512-.189-2.16-.189-2.133 0-3.186.675-3.186 1.971z"/><path d="m157.242 32.9998h-3.726v-11.205h-2.916v-3.213h2.916v-.783c0-2.862 1.539-4.482 4.536-4.482.918 0 1.701.162 2.322.432v2.97c-.405-.162-.945-.243-1.431-.243-1.026 0-1.701.405-1.701 1.404v.702h3.753v3.213h-3.753z"/><path d="m171.572 29.3548v3.267c-.918.459-1.782.648-2.889.648-2.97 0-4.833-1.701-4.833-4.941v-6.534h-2.916v-3.213h2.916v-4.266h3.726v4.266h4.131v3.213h-4.131v5.67c0 1.674.756 2.349 2.106 2.349.702 0 1.35-.162 1.89-.459z"/><path d="m178.866 33.2428c-4.32 0-7.209-2.997-7.209-7.506 0-4.293 2.997-7.425 7.155-7.425 4.563 0 7.587 3.699 6.912 8.397h-10.233c.243 2.349 1.377 3.645 3.294 3.645 1.647 0 2.754-.81 3.186-2.241h3.726c-.81 3.267-3.321 5.13-6.831 5.13zm-.135-12.177c-1.755 0-2.862 1.134-3.186 3.267h6.21c-.108-1.998-1.242-3.267-3.024-3.267z"/><path d="m185.949 25.7908c0-4.266 2.511-7.479 6.399-7.479 1.728 0 3.186.756 4.266 2.133v-6.831h3.726v19.386h-3.429v-2.079c-1.134 1.512-2.7 2.349-4.563 2.349-3.888 0-6.399-3.267-6.399-7.479zm3.861 0c0 2.7 1.539 4.131 3.375 4.131 1.863 0 3.402-1.458 3.402-4.185s-1.566-4.104-3.402-4.104-3.375 1.404-3.375 4.158z"/></g></svg>