<svg fill="none" height="48" viewBox="0 0 231 48" width="231" xmlns="http://www.w3.org/2000/svg" xmlns:xlink="http://www.w3.org/1999/xlink"><filter id="a" color-interpolation-filters="sRGB" filterUnits="userSpaceOnUse" height="54" width="48" x="0" y="-3"><feFlood flood-opacity="0" result="BackgroundImageFix"/><feBlend in="SourceGraphic" in2="BackgroundImageFix" mode="normal" result="shape"/><feColorMatrix in="SourceAlpha" result="hardAlpha" type="matrix" values="0 0 0 0 0 0 0 0 0 0 0 0 0 0 0 0 0 0 127 0"/><feOffset dy="-3"/><feGaussianBlur stdDeviation="1.5"/><feComposite in2="hardAlpha" k2="-1" k3="1" operator="arithmetic"/><feColorMatrix type="matrix" values="0 0 0 0 0 0 0 0 0 0 0 0 0 0 0 0 0 0 0.1 0"/><feBlend in2="shape" mode="normal" result="effect1_innerShadow_3046_38803"/><feColorMatrix in="SourceAlpha" result="hardAlpha" type="matrix" values="0 0 0 0 0 0 0 0 0 0 0 0 0 0 0 0 0 0 127 0"/><feOffset dy="3"/><feGaussianBlur stdDeviation="1.5"/><feComposite in2="hardAlpha" k2="-1" k3="1" operator="arithmetic"/><feColorMatrix type="matrix" values="0 0 0 0 1 0 0 0 0 1 0 0 0 0 1 0 0 0 0.1 0"/><feBlend in2="effect1_innerShadow_3046_38803" mode="normal" result="effect2_innerShadow_3046_38803"/><feColorMatrix in="SourceAlpha" result="hardAlpha" type="matrix" values="0 0 0 0 0 0 0 0 0 0 0 0 0 0 0 0 0 0 127 0"/><feMorphology in="SourceAlpha" operator="erode" radius="1" result="effect3_innerShadow_3046_38803"/><feOffset/><feComposite in2="hardAlpha" k2="-1" k3="1" operator="arithmetic"/><feColorMatrix type="matrix" values="0 0 0 0 0.0627451 0 0 0 0 0.0941176 0 0 0 0 0.156863 0 0 0 0.24 0"/><feBlend in2="effect2_innerShadow_3046_38803" mode="normal" result="effect3_innerShadow_3046_38803"/></filter><filter id="b" color-interpolation-filters="sRGB" filterUnits="userSpaceOnUse" height="42" width="30.6738" x="8.66211" y="5.25"><feFlood flood-opacity="0" result="BackgroundImageFix"/><feColorMatrix in="SourceAlpha" result="hardAlpha" type="matrix" values="0 0 0 0 0 0 0 0 0 0 0 0 0 0 0 0 0 0 127 0"/><feMorphology in="SourceAlpha" operator="erode" radius="1.5" result="effect1_dropShadow_3046_38803"/><feOffset dy="2.25"/><feGaussianBlur stdDeviation="2.25"/><feComposite in2="hardAlpha" operator="out"/><feColorMatrix type="matrix" values="0 0 0 0 0.141176 0 0 0 0 0.141176 0 0 0 0 0.141176 0 0 0 0.1 0"/><feBlend in2="BackgroundImageFix" mode="normal" result="effect1_dropShadow_3046_38803"/><feBlend in="SourceGraphic" in2="effect1_dropShadow_3046_38803" mode="normal" result="shape"/></filter><linearGradient id="c" gradientUnits="userSpaceOnUse" x1="24" x2="26" y1=".000001" y2="48"><stop offset="0" stop-color="#fff" stop-opacity="0"/><stop offset="1" stop-color="#fff" stop-opacity=".12"/></linearGradient><linearGradient id="d"><stop offset="0" stop-color="#fff" stop-opacity=".8"/><stop offset="1" stop-color="#fff" stop-opacity=".5"/></linearGradient><linearGradient id="e" gradientUnits="userSpaceOnUse" x1="20.5698" x2="20.5698" xlink:href="#d" y1="8.625" y2="31.7676"/><linearGradient id="f" gradientUnits="userSpaceOnUse" x1="27.4272" x2="27.4272" xlink:href="#d" y1="15.4824" y2="38.625"/><linearGradient id="g" gradientUnits="userSpaceOnUse" x1="24" x2="24" y1="0" y2="48"><stop offset="0" stop-color="#fff" stop-opacity=".12"/><stop offset="1" stop-color="#fff" stop-opacity="0"/></linearGradient><clipPath id="h"><rect height="48" rx="12" width="48"/></clipPath><g filter="url(#a)"><g clip-path="url(#h)"><rect fill="#22262f" height="48" rx="12" width="48"/><path d="m0 0h48v48h-48z" fill="url(#c)"/><g filter="url(#b)"><path d="m18.3429 18.9107 11.1346-6.4286-6.6807-3.8571-11.1344 6.4285-.0003 12.8569 6.6808 3.8572z" fill="url(#e)"/><path d="m36.335 19.3396v12.8571l-11.1347 6.4283-6.6808-3.8571 11.1346-6.4286.0001-12.8569z" fill="url(#f)"/></g></g><rect height="46" rx="11" stroke="url(#g)" stroke-width="2" width="46" x="1" y="1"/></g><g fill="#fff"><path d="m68.127 33.2432c-2.664 0-4.689-.594-6.075-1.782-1.368-1.188-2.052-2.736-2.052-4.644h4.266c.036.972.36 1.755.972 2.349.63.576 1.647.864 3.051.864 1.08 0 1.944-.198 2.592-.594s.972-.981.972-1.755c0-.63-.135-1.116-.405-1.458-.27-.36-.738-.639-1.404-.837s-1.593-.396-2.781-.594c-2.268-.36-3.978-.972-5.13-1.836-1.152-.882-1.728-2.178-1.728-3.888 0-1.854.684-3.312 2.052-4.374 1.368-1.08 3.249-1.62 5.643-1.62 1.548 0 2.88.243 3.996.729s1.98 1.17 2.592 2.052c.63.882.945 1.908.945 3.078h-4.239c-.036-.954-.387-1.638-1.053-2.052-.648-.414-1.44-.621-2.376-.621-.99 0-1.773.207-2.349.621-.558.396-.837.945-.837 1.647 0 .612.162 1.071.486 1.377s.828.54 1.512.702c.702.162 1.62.342 2.754.54.828.126 1.638.297 2.43.513s1.503.54 2.133.972c.648.414 1.161.999 1.539 1.755.396.738.594 1.701.594 2.889 0 1.764-.684 3.204-2.052 4.32-1.35 1.098-3.366 1.647-6.048 1.647z"/><path d="m78.41 33.0002v-19.683h3.969v7.83h.162c.396-.954 1.008-1.674 1.836-2.16s1.755-.729 2.781-.729c.972 0 1.836.198 2.592.594.774.396 1.386 1.035 1.836 1.917.45.864.675 2.025.675 3.483v8.748h-3.969v-7.884c0-1.224-.216-2.133-.648-2.727s-1.125-.891-2.079-.891c-1.026 0-1.818.351-2.376 1.053-.54.684-.81 1.485-.81 2.403v8.046z"/><path d="m99.7406 33.2432c-1.674 0-2.952-.486-3.834-1.458s-1.323-2.385-1.323-4.239v-9.018h3.969v7.965c0 1.152.207 2.034.621 2.646.432.594 1.1434.891 2.1334.891 1.008 0 1.782-.342 2.322-1.026.558-.702.837-1.53.837-2.484v-7.992h3.969v14.472h-3.807l-.162-2.646h-.189c-.342.936-.927 1.656-1.755 2.16-.81.486-1.737.729-2.7814.729z"/><path d="m115.938 33.0002c-.972 0-1.728-.144-2.268-.432s-.918-.693-1.134-1.215c-.198-.54-.297-1.17-.297-1.89v-7.749h-2.592v-3.186h2.592v-3.942l3.942-.378v4.32h5.076v-3.942l3.942-.378v4.32h2.916v3.186h-2.916v6.993c0 .432.099.72.297.864s.486.216.864.216h1.755v3.213h-3.159c-.972 0-1.728-.144-2.268-.432s-.918-.693-1.134-1.215c-.198-.54-.297-1.17-.297-1.89v-7.749h-5.076v6.993c0 .432.099.72.297.864s.486.216.864.216h1.755v3.213z"/><path d="m136.001 33.2432c-1.512 0-2.808-.306-3.888-.918-1.062-.612-1.881-1.467-2.457-2.565-.576-1.116-.864-2.412-.864-3.888 0-1.566.288-2.916.864-4.05.594-1.134 1.422-2.007 2.484-2.619 1.062-.63 2.304-.945 3.726-.945 1.674 0 3.051.369 4.131 1.107 1.08.72 1.854 1.719 2.322 2.997.468 1.26.621 2.691.459 4.293h-10.071c-.018 1.152.279 2.043.891 2.673.612.612 1.413.918 2.403.918.756 0 1.395-.162 1.917-.486.54-.342.882-.792 1.026-1.35h3.753c-.126.972-.495 1.818-1.107 2.538-.594.72-1.368 1.287-2.322 1.701-.954.396-2.043.594-3.267.594zm-.135-11.988c-.9 0-1.629.261-2.187.783-.558.504-.873 1.197-.945 2.079h6.156c-.054-.972-.369-1.692-.945-2.16-.558-.468-1.251-.702-2.079-.702z"/><path d="m144.831 33.0002v-14.472h3.591l.162 2.322h.135c.324-.936.837-1.584 1.539-1.944.72-.378 1.539-.567 2.457-.567h.81v3.726h-.891c-1.332 0-2.295.297-2.889.891-.594.576-.909 1.404-.945 2.484v7.56z"/><path d="m156.549 33.0002v-11.286h-2.376v-3.186h2.376v-1.539c0-1.188.369-2.097 1.107-2.727s1.782-.945 3.132-.945h2.916v2.673h-1.755c-.558 0-.936.117-1.134.351s-.297.531-.297.891v1.296h2.943v3.186h-2.943v11.286z"/><path d="m165.003 33.0002v-14.472h3.591l.162 2.322h.135c.324-.936.837-1.584 1.539-1.944.72-.378 1.539-.567 2.457-.567h.81v3.726h-.891c-1.332 0-2.295.297-2.889.891-.594.576-.909 1.404-.945 2.484v7.56z"/><path d="m179.898 33.2432c-1.728 0-3.123-.621-4.185-1.863-1.062-1.26-1.593-3.132-1.593-5.616 0-2.502.531-4.374 1.593-5.616 1.062-1.26 2.457-1.89 4.185-1.89 1.116 0 2.07.252 2.862.756.81.504 1.386 1.179 1.728 2.025h.216l.162-2.511h3.807v14.472h-3.969v-2.538h-.216c-.342.828-.918 1.503-1.728 2.025-.792.504-1.746.756-2.862.756zm1.512-3.213c.738 0 1.341-.171 1.809-.513.486-.342.846-.783 1.08-1.323.234-.558.351-1.143.351-1.755v-1.377c0-.63-.117-1.215-.351-1.755s-.594-.981-1.08-1.323c-.468-.342-1.071-.513-1.809-.513-.972 0-1.755.351-2.349 1.053-.594.684-.891 1.764-.891 3.24 0 1.458.297 2.538.891 3.24.594.684 1.377 1.026 2.349 1.026z"/><path d="m191.529 33.0002v-14.472h3.834l.135 2.619h.162c.36-.954.945-1.674 1.755-2.16s1.701-.729 2.673-.729c1.008 0 1.926.243 2.754.729s1.44 1.323 1.836 2.511h.216c.342-1.08.945-1.89 1.809-2.43.882-.54 1.872-.81 2.97-.81.936 0 1.773.198 2.511.594s1.323 1.035 1.755 1.917c.45.864.675 2.025.675 3.483v8.748h-3.969v-7.884c0-1.224-.207-2.133-.621-2.727-.396-.594-1.044-.891-1.944-.891-.954 0-1.701.351-2.241 1.053-.522.684-.783 1.485-.783 2.403v8.046h-3.969v-7.884c0-1.224-.207-2.133-.621-2.727-.396-.594-1.044-.891-1.944-.891-.972 0-1.719.351-2.241 1.053-.522.684-.783 1.485-.783 2.403v8.046z"/><path d="m223.675 33.2432c-1.512 0-2.808-.306-3.888-.918-1.062-.612-1.881-1.467-2.457-2.565-.576-1.116-.864-2.412-.864-3.888 0-1.566.288-2.916.864-4.05.594-1.134 1.422-2.007 2.484-2.619 1.062-.63 2.304-.945 3.726-.945 1.674 0 3.051.369 4.131 1.107 1.08.72 1.854 1.719 2.322 2.997.468 1.26.621 2.691.459 4.293h-10.071c-.018 1.152.279 2.043.891 2.673.612.612 1.413.918 2.403.918.756 0 1.395-.162 1.917-.486.54-.342.882-.792 1.026-1.35h3.753c-.126.972-.495 1.818-1.107 2.538-.594.72-1.368 1.287-2.322 1.701-.954.396-2.043.594-3.267.594zm-.135-11.988c-.9 0-1.629.261-2.187.783-.558.504-.873 1.197-.945 2.079h6.156c-.054-.972-.369-1.692-.945-2.16-.558-.468-1.251-.702-2.079-.702z"/></g></svg>