<svg fill="none" height="48" viewBox="0 0 247 48" width="247" xmlns="http://www.w3.org/2000/svg" xmlns:xlink="http://www.w3.org/1999/xlink"><filter id="a" color-interpolation-filters="sRGB" filterUnits="userSpaceOnUse" height="54" width="48" x="0" y="-3"><feFlood flood-opacity="0" result="BackgroundImageFix"/><feBlend in="SourceGraphic" in2="BackgroundImageFix" mode="normal" result="shape"/><feColorMatrix in="SourceAlpha" result="hardAlpha" type="matrix" values="0 0 0 0 0 0 0 0 0 0 0 0 0 0 0 0 0 0 127 0"/><feOffset dy="-3"/><feGaussianBlur stdDeviation="1.5"/><feComposite in2="hardAlpha" k2="-1" k3="1" operator="arithmetic"/><feColorMatrix type="matrix" values="0 0 0 0 0 0 0 0 0 0 0 0 0 0 0 0 0 0 0.1 0"/><feBlend in2="shape" mode="normal" result="effect1_innerShadow_3046_38779"/><feColorMatrix in="SourceAlpha" result="hardAlpha" type="matrix" values="0 0 0 0 0 0 0 0 0 0 0 0 0 0 0 0 0 0 127 0"/><feOffset dy="3"/><feGaussianBlur stdDeviation="1.5"/><feComposite in2="hardAlpha" k2="-1" k3="1" operator="arithmetic"/><feColorMatrix type="matrix" values="0 0 0 0 1 0 0 0 0 1 0 0 0 0 1 0 0 0 0.1 0"/><feBlend in2="effect1_innerShadow_3046_38779" mode="normal" result="effect2_innerShadow_3046_38779"/><feColorMatrix in="SourceAlpha" result="hardAlpha" type="matrix" values="0 0 0 0 0 0 0 0 0 0 0 0 0 0 0 0 0 0 127 0"/><feMorphology in="SourceAlpha" operator="erode" radius="1" result="effect3_innerShadow_3046_38779"/><feOffset/><feComposite in2="hardAlpha" k2="-1" k3="1" operator="arithmetic"/><feColorMatrix type="matrix" values="0 0 0 0 0.0627451 0 0 0 0 0.0941176 0 0 0 0 0.156863 0 0 0 0.24 0"/><feBlend in2="effect2_innerShadow_3046_38779" mode="normal" result="effect3_innerShadow_3046_38779"/></filter><filter id="b" color-interpolation-filters="sRGB" filterUnits="userSpaceOnUse" height="42" width="36.002" x="6" y="5.25"><feFlood flood-opacity="0" result="BackgroundImageFix"/><feColorMatrix in="SourceAlpha" result="hardAlpha" type="matrix" values="0 0 0 0 0 0 0 0 0 0 0 0 0 0 0 0 0 0 127 0"/><feMorphology in="SourceAlpha" operator="erode" radius="1.5" result="effect1_dropShadow_3046_38779"/><feOffset dy="2.25"/><feGaussianBlur stdDeviation="2.25"/><feComposite in2="hardAlpha" operator="out"/><feColorMatrix type="matrix" values="0 0 0 0 0.141176 0 0 0 0 0.141176 0 0 0 0 0.141176 0 0 0 0.1 0"/><feBlend in2="BackgroundImageFix" mode="normal" result="effect1_dropShadow_3046_38779"/><feBlend in="SourceGraphic" in2="effect1_dropShadow_3046_38779" mode="normal" result="shape"/></filter><linearGradient id="c" gradientUnits="userSpaceOnUse" x1="24" x2="26" y1=".000001" y2="48"><stop offset="0" stop-color="#fff" stop-opacity="0"/><stop offset="1" stop-color="#fff" stop-opacity=".12"/></linearGradient><linearGradient id="d"><stop offset="0" stop-color="#fff" stop-opacity=".8"/><stop offset="1" stop-color="#fff" stop-opacity=".5"/></linearGradient><linearGradient id="e" gradientUnits="userSpaceOnUse" x1="21.1128" x2="21.1128" xlink:href="#d" y1="14.7742" y2="39"/><linearGradient id="f" gradientUnits="userSpaceOnUse" x1="26.8883" x2="26.8883" xlink:href="#d" y1="9" y2="33.2258"/><linearGradient id="g" gradientUnits="userSpaceOnUse" x1="24" x2="24" y1="0" y2="48"><stop offset="0" stop-color="#fff" stop-opacity=".12"/><stop offset="1" stop-color="#fff" stop-opacity="0"/></linearGradient><clipPath id="h"><rect height="48" rx="12" width="48"/></clipPath><g filter="url(#a)"><g clip-path="url(#h)"><rect fill="#7839ee" height="48" rx="12" width="48"/><path d="m0 0h48v48h-48z" fill="url(#c)"/><g filter="url(#b)"><path d="m33.2256 33.0001h-.0761c-.0196.0302-.0392.0603-.059.0903-2.0704 1.3651-4.5502 2.1596-7.2155 2.1596-7.2487 0-13.125-5.8763-13.125-13.125 0-2.6654.7945-5.1451 2.1595-7.2155.0301-.0198.0603-.0395.0905-.0591v-.0762c-.0304.0449-.0606.09-.0905.1353-3.5601 2.3474-5.9095 6.3821-5.9095 10.9655 0 7.2487 5.8763 13.125 13.125 13.125 4.5834 0 8.6181-2.3494 10.9655-5.9096.0452-.0298.0903-.0599.1351-.0903z" fill="url(#e)"/><g fill="url(#f)" opacity=".5"><path d="m39.0012 22.125c0 4.5834-2.3494 8.6181-5.9095 10.9655 1.365-2.0704 2.1595-4.5502 2.1595-7.2155 0-7.2487-5.8763-13.125-13.125-13.125-2.6653 0-5.1451.7945-7.2155 2.1595 2.3474-3.5601 6.3821-5.9095 10.9655-5.9095 7.2487 0 13.125 5.8763 13.125 13.125z"/><path d="m33.0012 33.1496c.0302-.0196.0604-.0393.0905-.0591-.0299.0453-.0601.0904-.0905.1353z"/><path d="m14.8516 15c.0196-.0302.0393-.0604.0591-.0905-.0453.0299-.0904.0601-.1353.0905z"/></g></g></g><rect height="46" rx="11" stroke="url(#g)" stroke-width="2" width="46" x="1" y="1"/></g><g fill="#fff"><path d="m60 32.9999v-19.683h4.428v15.795h9.234v3.888z"/><path d="m80.5489 33.2699c-1.602 0-2.799-.522-3.591-1.566-.792-1.062-1.188-2.457-1.188-4.185v-9.018h4.131v8.424c0 1.152.225 1.944.675 2.376.468.414 1.089.621 1.863.621.918 0 1.611-.306 2.079-.918s.702-1.413.702-2.403v-8.1h4.131v14.499h-3.861l-.297-2.376h-.216c-.324.792-.882 1.431-1.674 1.917-.774.486-1.692.729-2.754.729z"/><path d="m92.4508 32.9999v-14.499h3.888l.27 2.295h.243c.306-.792.837-1.413 1.593-1.863s1.6292-.675 2.6192-.675c1.152 0 2.115.27 2.889.81s1.296 1.269 1.566 2.187h.189c.306-.954.864-1.692 1.674-2.214s1.764-.783 2.862-.783c1.512 0 2.709.45 3.591 1.35.9.882 1.35 2.286 1.35 4.212v9.18h-4.158v-8.424c0-1.08-.216-1.836-.648-2.268-.432-.45-1.026-.675-1.782-.675-.882 0-1.557.297-2.025.891-.45.576-.675 1.359-.675 2.349v8.127h-4.158v-8.424c0-1.08-.216-1.836-.648-2.268-.414-.45-1.017-.675-1.8092-.675-.882 0-1.548.297-1.998.891-.45.576-.675 1.359-.675 2.349v8.127z"/><path d="m118.278 32.9999v-14.499h4.158v14.499zm0-16.335v-3.348h4.158v3.348z"/><path d="m125.675 32.9999v-14.499h3.861l.297 2.376h.243c.306-.792.837-1.431 1.593-1.917s1.656-.729 2.7-.729c1.548 0 2.772.477 3.672 1.431.9.936 1.35 2.421 1.35 4.455v8.883h-4.131v-8.343c0-1.17-.234-1.971-.702-2.403s-1.098-.648-1.89-.648c-.936 0-1.647.306-2.133.918-.468.612-.702 1.422-.702 2.43v8.046z"/><path d="m148.721 33.2699c-1.602 0-2.943-.306-4.023-.918-1.062-.63-1.854-1.503-2.376-2.619-.522-1.134-.783-2.448-.783-3.942v-.243c0-1.566.288-2.889.864-3.969.576-1.098 1.377-1.926 2.403-2.484 1.044-.576 2.241-.864 3.591-.864 1.476 0 2.727.279 3.753.837 1.044.558 1.836 1.341 2.376 2.349s.81 2.187.81 3.537v1.836h-9.585v.756c0 .774.261 1.395.783 1.863.54.468 1.224.702 2.052.702.738 0 1.341-.162 1.809-.486.486-.324.774-.756.864-1.296h3.915c-.054.99-.36 1.854-.918 2.592s-1.314 1.314-2.268 1.728-2.043.621-3.267.621zm-2.97-9.18v.135h5.508v-.135c0-.972-.252-1.674-.756-2.106-.504-.45-1.161-.675-1.971-.675-.864 0-1.548.243-2.052.729-.486.468-.729 1.152-.729 2.052z"/><path d="m162.925 33.2699c-2.07 0-3.654-.45-4.752-1.35-1.08-.9-1.611-2.07-1.593-3.51h3.969c.036.72.279 1.233.729 1.539.468.306 1.062.459 1.782.459s1.233-.135 1.539-.405c.324-.288.486-.63.486-1.026 0-.63-.225-1.044-.675-1.242-.45-.216-1.152-.396-2.106-.54-.864-.126-1.71-.324-2.538-.594s-1.512-.693-2.052-1.269c-.522-.594-.783-1.404-.783-2.43 0-1.008.252-1.854.756-2.538.522-.702 1.233-1.233 2.133-1.593s1.935-.54 3.105-.54c1.782 0 3.222.396 4.32 1.188 1.116.792 1.692 1.908 1.728 3.348l-3.915-.027c0-.558-.198-.981-.594-1.269-.378-.306-.891-.459-1.539-.459-.63 0-1.107.126-1.431.378s-.486.585-.486.999c0 .576.261.954.783 1.134.54.18 1.215.333 2.025.459.684.09 1.35.216 1.998.378.648.144 1.233.378 1.755.702.54.324.963.774 1.269 1.35.306.558.459 1.296.459 2.214 0 1.422-.558 2.556-1.674 3.402-1.098.828-2.664 1.242-4.698 1.242z"/><path d="m177.8 33.2699c-2.358 0-4.113-.675-5.265-2.025-1.134-1.35-1.701-3.15-1.701-5.4v-.081c0-2.538.63-4.428 1.89-5.67 1.278-1.242 2.979-1.863 5.103-1.863 2.034 0 3.636.513 4.806 1.539s1.791 2.394 1.863 4.104h-4.05c-.072-.756-.342-1.323-.81-1.701s-1.071-.567-1.809-.567c-.882 0-1.575.261-2.079.783-.486.522-.729 1.224-.729 2.106v2.592c0 .882.243 1.575.729 2.079s1.17.756 2.052.756c.828 0 1.458-.216 1.89-.648.45-.432.702-.981.756-1.647h4.077c-.018 1.134-.315 2.124-.891 2.97-.558.846-1.341 1.503-2.349 1.971s-2.169.702-3.483.702z"/><path d="m192.954 33.2699c-1.602 0-2.943-.306-4.023-.918-1.062-.63-1.854-1.503-2.376-2.619-.522-1.134-.783-2.448-.783-3.942v-.243c0-1.566.288-2.889.864-3.969.576-1.098 1.377-1.926 2.403-2.484 1.044-.576 2.241-.864 3.591-.864 1.476 0 2.727.279 3.753.837 1.044.558 1.836 1.341 2.376 2.349s.81 2.187.81 3.537v1.836h-9.585v.756c0 .774.261 1.395.783 1.863.54.468 1.224.702 2.052.702.738 0 1.341-.162 1.809-.486.486-.324.774-.756.864-1.296h3.915c-.054.99-.36 1.854-.918 2.592s-1.314 1.314-2.268 1.728-2.043.621-3.267.621zm-2.97-9.18v.135h5.508v-.135c0-.972-.252-1.674-.756-2.106-.504-.45-1.161-.675-1.971-.675-.864 0-1.548.243-2.052.729-.486.468-.729 1.152-.729 2.052z"/><path d="m201.839 32.9999v-14.499h3.861l.297 2.376h.243c.306-.792.837-1.431 1.593-1.917s1.656-.729 2.7-.729c1.548 0 2.772.477 3.672 1.431.9.936 1.35 2.421 1.35 4.455v8.883h-4.131v-8.343c0-1.17-.234-1.971-.702-2.403s-1.098-.648-1.89-.648c-.936 0-1.647.306-2.133.918-.468.612-.702 1.422-.702 2.43v8.046z"/><path d="m224.669 33.2699c-2.358 0-4.113-.675-5.265-2.025-1.134-1.35-1.701-3.15-1.701-5.4v-.081c0-2.538.63-4.428 1.89-5.67 1.278-1.242 2.979-1.863 5.103-1.863 2.034 0 3.636.513 4.806 1.539s1.791 2.394 1.863 4.104h-4.05c-.072-.756-.342-1.323-.81-1.701s-1.071-.567-1.809-.567c-.882 0-1.575.261-2.079.783-.486.522-.729 1.224-.729 2.106v2.592c0 .882.243 1.575.729 2.079s1.17.756 2.052.756c.828 0 1.458-.216 1.89-.648.45-.432.702-.981.756-1.647h4.077c-.018 1.134-.315 2.124-.891 2.97-.558.846-1.341 1.503-2.349 1.971s-2.169.702-3.483.702z"/><path d="m239.823 33.2699c-1.602 0-2.943-.306-4.023-.918-1.062-.63-1.854-1.503-2.376-2.619-.522-1.134-.783-2.448-.783-3.942v-.243c0-1.566.288-2.889.864-3.969.576-1.098 1.377-1.926 2.403-2.484 1.044-.576 2.241-.864 3.591-.864 1.476 0 2.727.279 3.753.837 1.044.558 1.836 1.341 2.376 2.349s.81 2.187.81 3.537v1.836h-9.585v.756c0 .774.261 1.395.783 1.863.54.468 1.224.702 2.052.702.738 0 1.341-.162 1.809-.486.486-.324.774-.756.864-1.296h3.915c-.054.99-.36 1.854-.918 2.592s-1.314 1.314-2.268 1.728-2.043.621-3.267.621zm-2.97-9.18v.135h5.508v-.135c0-.972-.252-1.674-.756-2.106-.504-.45-1.161-.675-1.971-.675-.864 0-1.548.243-2.052.729-.486.468-.729 1.152-.729 2.052z"/></g></svg>