<svg fill="none" height="48" viewBox="0 0 145 48" width="145" xmlns="http://www.w3.org/2000/svg" xmlns:xlink="http://www.w3.org/1999/xlink"><filter id="a" color-interpolation-filters="sRGB" filterUnits="userSpaceOnUse" height="54" width="48" x="0" y="-3"><feFlood flood-opacity="0" result="BackgroundImageFix"/><feBlend in="SourceGraphic" in2="BackgroundImageFix" mode="normal" result="shape"/><feColorMatrix in="SourceAlpha" result="hardAlpha" type="matrix" values="0 0 0 0 0 0 0 0 0 0 0 0 0 0 0 0 0 0 127 0"/><feOffset dy="-3"/><feGaussianBlur stdDeviation="1.5"/><feComposite in2="hardAlpha" k2="-1" k3="1" operator="arithmetic"/><feColorMatrix type="matrix" values="0 0 0 0 0 0 0 0 0 0 0 0 0 0 0 0 0 0 0.1 0"/><feBlend in2="shape" mode="normal" result="effect1_innerShadow_3046_38762"/><feColorMatrix in="SourceAlpha" result="hardAlpha" type="matrix" values="0 0 0 0 0 0 0 0 0 0 0 0 0 0 0 0 0 0 127 0"/><feOffset dy="3"/><feGaussianBlur stdDeviation="1.5"/><feComposite in2="hardAlpha" k2="-1" k3="1" operator="arithmetic"/><feColorMatrix type="matrix" values="0 0 0 0 1 0 0 0 0 1 0 0 0 0 1 0 0 0 0.1 0"/><feBlend in2="effect1_innerShadow_3046_38762" mode="normal" result="effect2_innerShadow_3046_38762"/><feColorMatrix in="SourceAlpha" result="hardAlpha" type="matrix" values="0 0 0 0 0 0 0 0 0 0 0 0 0 0 0 0 0 0 127 0"/><feMorphology in="SourceAlpha" operator="erode" radius="1" result="effect3_innerShadow_3046_38762"/><feOffset/><feComposite in2="hardAlpha" k2="-1" k3="1" operator="arithmetic"/><feColorMatrix type="matrix" values="0 0 0 0 0.0627451 0 0 0 0 0.0941176 0 0 0 0 0.156863 0 0 0 0.24 0"/><feBlend in2="effect2_innerShadow_3046_38762" mode="normal" result="effect3_innerShadow_3046_38762"/></filter><filter id="b" color-interpolation-filters="sRGB" filterUnits="userSpaceOnUse" height="42" width="36" x="6" y="5.25"><feFlood flood-opacity="0" result="BackgroundImageFix"/><feColorMatrix in="SourceAlpha" result="hardAlpha" type="matrix" values="0 0 0 0 0 0 0 0 0 0 0 0 0 0 0 0 0 0 127 0"/><feMorphology in="SourceAlpha" operator="erode" radius="1.5" result="effect1_dropShadow_3046_38762"/><feOffset dy="2.25"/><feGaussianBlur stdDeviation="2.25"/><feComposite in2="hardAlpha" operator="out"/><feColorMatrix type="matrix" values="0 0 0 0 0.141176 0 0 0 0 0.141176 0 0 0 0 0.141176 0 0 0 0.1 0"/><feBlend in2="BackgroundImageFix" mode="normal" result="effect1_dropShadow_3046_38762"/><feBlend in="SourceGraphic" in2="effect1_dropShadow_3046_38762" mode="normal" result="shape"/></filter><linearGradient id="c" gradientUnits="userSpaceOnUse" x1="24" x2="26" y1=".000001" y2="48"><stop offset="0" stop-color="#fff" stop-opacity="0"/><stop offset="1" stop-color="#fff" stop-opacity=".12"/></linearGradient><linearGradient id="d"><stop offset="0" stop-color="#fff" stop-opacity=".8"/><stop offset="1" stop-color="#fff" stop-opacity=".5"/></linearGradient><linearGradient id="e" gradientUnits="userSpaceOnUse" x1="35.0785" x2="35.0785" xlink:href="#d" y1="10.8132" y2="37.1866"/><linearGradient id="f" gradientUnits="userSpaceOnUse" x1="18.844" x2="18.844" xlink:href="#d" y1="9.1781" y2="38.8217"/><linearGradient id="g" gradientUnits="userSpaceOnUse" x1="24" x2="24" y1="0" y2="48"><stop offset="0" stop-color="#fff" stop-opacity=".12"/><stop offset="1" stop-color="#fff" stop-opacity="0"/></linearGradient><clipPath id="h"><rect height="48" rx="12" width="48"/></clipPath><g filter="url(#a)"><g clip-path="url(#h)"><rect fill="#444ce7" height="48" rx="12" width="48"/><path d="m0 0h48v48h-48z" fill="url(#c)"/><g filter="url(#b)"><path d="m31.1563 10.8132c2.0185 3.9577 3.1568 8.4392 3.1568 13.1866 0 4.7475-1.1383 9.2291-3.1569 13.1868 4.6728-2.5411 7.8445-7.4935 7.8445-13.1867s-3.1716-10.6456-7.8444-13.1867z" fill="url(#e)" opacity=".7"/><path d="m24.4111 10.4987c-.6785-.96112-1.8343-1.47875-2.9935-1.27759-7.0537 1.22409-12.4176 7.37509-12.4176 14.77879s5.3639 13.5547 12.4175 14.7788c1.1592.2012 2.315-.3165 2.9935-1.2776 2.6942-3.8167 4.2769-8.4741 4.2769-13.5012s-1.5826-9.6845-4.2768-13.5012z" fill="url(#f)"/></g></g><rect height="46" rx="11" stroke="url(#g)" stroke-width="2" width="46" x="1" y="1"/></g><g clip-rule="evenodd" fill="#fff" fill-rule="evenodd"><path d="m60 25.9879v-4.3171c.9338-4.9317 5.0512-8.4608 10.2378-8.4608 4.6276 0 8.8433 3.151 9.6207 6.8286l.051.2414h-4.2131l-.0488-.1295c-.7168-1.9024-3.0326-3.2345-5.4098-3.2345-3.7072 0-6.528 2.9738-6.528 6.905 0 3.9572 2.818 6.963 6.76 6.963 3.0087 0 5.317-1.9099 5.9323-4.675h-7.3063v-3.677h11.0248l.0291.1653c.0896.5076.1481 1.3318.1481 1.9487 0 5.8281-4.3573 9.944-10.06 9.944-5.211 0-9.307-3.5494-10.2378-8.5021z"/><path d="m85.0838 24.804h-3.3053l.0176-.2163c.2413-2.9556 2.8894-5.2587 6.0284-5.2587 2.0106 0 3.5808.5846 4.6491 1.6264 1.0686 1.0422 1.6119 2.5191 1.6119 4.2576v8.987h-3.445v-1.4101c-1.0079 1.107-2.3942 1.7001-4.121 1.7001-2.8485 0-4.84-1.8713-4.84-4.376 0-1.5607.6931-2.8315 1.9336-3.7051 1.2333-.8687 2.9965-1.3379 5.1394-1.3379h1.888v-.061c0-.8073-.2793-1.4629-.7603-1.9172-.4819-.4554-1.1836-.7248-2.0557-.7248-1.4877 0-2.6503.929-2.7294 2.248zm.4056 6.2497c.3665.2984.906.4843 1.5811.4843 2.1289 0 3.57-1.5987 3.57-3.251v-.409h-1.975c-1.2493 0-2.1962.1734-2.8238.5092-.3111.1665-.539.3703-.6897.6088-.1502.2378-.2305.5206-.2305.857 0 .4902.2044.9047.5679 1.2007z"/><path d="m99.8538 13.5v20.7h-3.6191v-20.7z"/><path d="m102.282 19.619h3.619v14.581h-3.619z"/><path d="m112.118 13.5v20.7h-3.619v-20.7z"/><path d="m128.1 27.878h-11.058c.171 1.0169.621 1.8553 1.277 2.4504.703.6379 1.654 1.0066 2.784 1.0066 1.776 0 3.051-.841 3.313-2.0465l.034-.1575h3.587l-.038.2323c-.513 3.1361-3.344 5.1267-6.867 5.1267-4.259 0-7.566-3.3096-7.566-7.624 0-4.2574 3.308-7.537 7.508-7.537 3.937 0 7.102 3.0755 7.102 7.131 0 .2966-.03.9117-.059 1.2361zm-10.849-2.749h7.074c-.26-1.5446-1.628-2.674-3.396-2.674-.933 0-1.744.2641-2.383.756-.581.4475-1.029 1.0909-1.295 1.918z"/><path d="m101.847 15.324c0-1.2378 1.014-2.288 2.259-2.288 1.272 0 2.288 1.0484 2.288 2.288 0 1.2125-1.018 2.259-2.288 2.259-1.244 0-2.259-1.0484-2.259-2.259z"/><path d="m136.468 19.329c4.257 0 7.566 3.2796 7.566 7.595 0 4.287-3.309 7.566-7.566 7.566-4.258 0-7.537-3.2801-7.537-7.566 0-4.3144 3.278-7.595 7.537-7.595zm-4.005 7.595c0 2.2993 1.74 4.063 4.005 4.063 2.238 0 4.034-1.7664 4.034-4.063 0-2.3282-1.798-4.121-4.034-4.121-2.263 0-4.005 1.7901-4.005 4.121z"/></g></svg>