<svg fill="none" height="48" viewBox="0 0 218 48" width="218" xmlns="http://www.w3.org/2000/svg" xmlns:xlink="http://www.w3.org/1999/xlink"><filter id="a" color-interpolation-filters="sRGB" filterUnits="userSpaceOnUse" height="54" width="48" x="0" y="-3"><feFlood flood-opacity="0" result="BackgroundImageFix"/><feBlend in="SourceGraphic" in2="BackgroundImageFix" mode="normal" result="shape"/><feColorMatrix in="SourceAlpha" result="hardAlpha" type="matrix" values="0 0 0 0 0 0 0 0 0 0 0 0 0 0 0 0 0 0 127 0"/><feOffset dy="-3"/><feGaussianBlur stdDeviation="1.5"/><feComposite in2="hardAlpha" k2="-1" k3="1" operator="arithmetic"/><feColorMatrix type="matrix" values="0 0 0 0 0 0 0 0 0 0 0 0 0 0 0 0 0 0 0.1 0"/><feBlend in2="shape" mode="normal" result="effect1_innerShadow_3046_38735"/><feColorMatrix in="SourceAlpha" result="hardAlpha" type="matrix" values="0 0 0 0 0 0 0 0 0 0 0 0 0 0 0 0 0 0 127 0"/><feOffset dy="3"/><feGaussianBlur stdDeviation="1.5"/><feComposite in2="hardAlpha" k2="-1" k3="1" operator="arithmetic"/><feColorMatrix type="matrix" values="0 0 0 0 1 0 0 0 0 1 0 0 0 0 1 0 0 0 0.1 0"/><feBlend in2="effect1_innerShadow_3046_38735" mode="normal" result="effect2_innerShadow_3046_38735"/><feColorMatrix in="SourceAlpha" result="hardAlpha" type="matrix" values="0 0 0 0 0 0 0 0 0 0 0 0 0 0 0 0 0 0 127 0"/><feMorphology in="SourceAlpha" operator="erode" radius="1" result="effect3_innerShadow_3046_38735"/><feOffset/><feComposite in2="hardAlpha" k2="-1" k3="1" operator="arithmetic"/><feColorMatrix type="matrix" values="0 0 0 0 0.0627451 0 0 0 0 0.0941176 0 0 0 0 0.156863 0 0 0 0.24 0"/><feBlend in2="effect2_innerShadow_3046_38735" mode="normal" result="effect3_innerShadow_3046_38735"/></filter><filter id="b" color-interpolation-filters="sRGB" filterUnits="userSpaceOnUse" height="42" width="36" x="6" y="5.25"><feFlood flood-opacity="0" result="BackgroundImageFix"/><feColorMatrix in="SourceAlpha" result="hardAlpha" type="matrix" values="0 0 0 0 0 0 0 0 0 0 0 0 0 0 0 0 0 0 127 0"/><feMorphology in="SourceAlpha" operator="erode" radius="1.5" result="effect1_dropShadow_3046_38735"/><feOffset dy="2.25"/><feGaussianBlur stdDeviation="2.25"/><feComposite in2="hardAlpha" operator="out"/><feColorMatrix type="matrix" values="0 0 0 0 0.141176 0 0 0 0 0.141176 0 0 0 0 0.141176 0 0 0 0.1 0"/><feBlend in2="BackgroundImageFix" mode="normal" result="effect1_dropShadow_3046_38735"/><feBlend in="SourceGraphic" in2="effect1_dropShadow_3046_38735" mode="normal" result="shape"/></filter><linearGradient id="c" gradientUnits="userSpaceOnUse" x1="24" x2="26" y1=".000001" y2="48"><stop offset="0" stop-color="#fff" stop-opacity="0"/><stop offset="1" stop-color="#fff" stop-opacity=".12"/></linearGradient><linearGradient id="d" gradientUnits="userSpaceOnUse" x1="23.9996" x2="23.9996" y1="9" y2="39"><stop offset="0" stop-color="#fff" stop-opacity=".8"/><stop offset="1" stop-color="#fff" stop-opacity=".5"/></linearGradient><linearGradient id="e" gradientUnits="userSpaceOnUse" x1="24" x2="24" y1="0" y2="48"><stop offset="0" stop-color="#fff" stop-opacity=".12"/><stop offset="1" stop-color="#fff" stop-opacity="0"/></linearGradient><clipPath id="f"><rect height="48" rx="12" width="48"/></clipPath><g filter="url(#a)"><g clip-path="url(#f)"><rect fill="#0086c9" height="48" rx="12" width="48"/><path d="m0 0h48v48h-48z" fill="url(#c)"/><g fill="url(#d)" filter="url(#b)"><path d="m38.9934 23.5632c-.2311-8.0823-6.8556-14.5632-14.9938-14.5632-2.5773 0-5.0027.64999-7.1214 1.795z"/><path d="m14.7692 12.1755c-.6208.4853-1.2024 1.0184-1.7393 1.5938l25.3181 14.6174c.2276-.7452.3987-1.5151.5083-2.3046z"/><path d="m34.9696 34.2304c-.5369.5755-1.1185 1.1086-1.7393 1.5939l-24.08728-13.9068c.10966-.7895.28076-1.5593.50834-2.3046z"/><path d="m36.3923 32.4537-25.9119-14.9602c.3275-.6792.7047-1.3299 1.1268-1.9475l25.9118 14.9602c-.3275.6792-.7046 1.33-1.1267 1.9475z"/><path d="m23.9996 39c2.5775 0 5.003-.6501 7.1218-1.7952l-22.11554-12.7684c.23092 8.0824 6.85544 14.5636 14.99374 14.5636z"/></g></g><rect height="46" rx="11" stroke="url(#e)" stroke-width="2" width="46" x="1" y="1"/></g><g fill="#fff"><path d="m84.757 24.45c0-1.45-.8-2.4-2-2.4-1.275 0-2.275.7-3.375 2.5v8.45h-10.457c-5.425 0-8.925-3.325-8.925-8.725s3.5-8.725 8.925-8.725h4.2v3.375h-4.2c-2.925 0-4.675 1.95-4.675 5.35s1.75 5.35 4.675 5.35h6.557v-15.125h3.9v6.125c1.175-1.3 2.675-1.825 4.175-1.825 3.175 0 5.1 2.15 5.1 5.4v8.8h-3.9z"/><path d="m97.6477 22.05c1.05 0 1.5.85 1.5 2.15v1.875h3.9253v-1.875c0-3.55-1.9-5.4-4.5753-5.4-1.425 0-2.625.625-3.65 1.85l-.075-1.55h-3.775v13.9h3.9v-8.675c1.025-1.5 1.875-2.275 2.75-2.275z"/><path clip-rule="evenodd" d="m111.182 33.3c-4.45 0-7.15-2.725-7.15-7.25s2.7-7.25 7.15-7.25 7.125 2.725 7.125 7.25-2.675 7.25-7.125 7.25zm-3.25-7.25c0 2.575 1.225 4.1 3.25 4.1 2 0 3.225-1.525 3.225-4.1s-1.225-4.1-3.225-4.1c-2.025 0-3.25 1.525-3.25 4.1z" fill-rule="evenodd"/><path d="m135.875 22.025c1.325 0 2.175.85 2.175 2.25v8.725h3.9v-8.725c0-3.425-2.225-5.475-4.975-5.475-2.15 0-3.775.95-4.625 2.425-.85-1.55-2.475-2.425-4.375-2.425-1.575 0-3.075.775-4.025 1.975l-.075-1.675h-3.775v13.9h3.9v-8.825c.775-1.275 1.775-2.15 2.9-2.15 1.3 0 2.175.85 2.175 2.25v8.725h3.9v-8.775c.775-1.3 1.775-2.2 2.9-2.2z"/><path clip-rule="evenodd" d="m152.582 33-.075-1.375c-.95 1.2-2.425 1.675-4.15 1.675-2.7 0-4.475-1.725-4.475-4.175 0-2.875 2.275-4.5 6.025-4.5h2.55v-.95c0-1.325-.925-2.125-2.5-2.125-1.55 0-2.55.75-2.675 1.975h-3.8c.25-2.925 2.75-4.725 6.65-4.725 3.8 0 6.225 1.85 6.225 5.125v9.075zm-4.875-4.125c0 .75.525 1.35 1.625 1.35 1.35 0 2.375-.675 3.125-1.825v-1.075l-2.625.025c-1.3 0-2.125.45-2.125 1.525z" fill-rule="evenodd"/><path d="m159.681 28c0 2.95 1.85 5 4.675 5h3.5v-3.15h-1.95c-1.7 0-2.325-.4-2.325-1.85v-5.75h2.85v-3.15h-2.85v-4.6h-3.9v4.6h-2.375v3.15h2.375z"/><path clip-rule="evenodd" d="m175.515 33.3c-4.45 0-7.15-2.725-7.15-7.25s2.7-7.25 7.15-7.25 7.125 2.725 7.125 7.25-2.675 7.25-7.125 7.25zm-3.25-7.25c0 2.575 1.225 4.1 3.25 4.1 2 0 3.225-1.525 3.225-4.1s-1.225-4.1-3.225-4.1c-2.025 0-3.25 1.525-3.25 4.1z" fill-rule="evenodd"/><path clip-rule="evenodd" d="m183.783 26.05c0 4.525 2.7 7.25 7.15 7.25s7.125-2.725 7.125-7.25-2.675-7.25-7.125-7.25-7.15 2.725-7.15 7.25zm7.15 4.1c-2.025 0-3.25-1.525-3.25-4.1s1.225-4.1 3.25-4.1c2 0 3.225 1.525 3.225 4.1s-1.225 4.1-3.225 4.1z" fill-rule="evenodd"/><path d="m205.435 28.025c.05 3.275 2.4 5.275 6.225 5.275 3.6 0 5.775-1.7 5.775-4.525 0-3.4359-2.843-3.974-5.102-4.4015-1.488-.2817-2.723-.5154-2.723-1.4985 0-.8.65-1.25 1.75-1.25 1.3 0 2.15.675 2.225 1.9h3.6c-.25-2.975-2.225-4.725-5.7-4.725-3.425 0-5.75 1.6-5.75 4.325 0 3.2625 2.805 3.918 5.056 4.4442 1.509.3528 2.769.6474 2.769 1.6308 0 .8-.725 1.275-1.9 1.275-1.7 0-2.7-.925-2.625-2.45z"/><path d="m199.876 33v-18.5h3.9v18.5z"/></g></svg>