<svg fill="none" height="48" viewBox="0 0 48 48" width="48" xmlns="http://www.w3.org/2000/svg" xmlns:xlink="http://www.w3.org/1999/xlink"><filter id="a" color-interpolation-filters="sRGB" filterUnits="userSpaceOnUse" height="54" width="48" x="0" y="-3"><feFlood flood-opacity="0" result="BackgroundImageFix"/><feBlend in="SourceGraphic" in2="BackgroundImageFix" mode="normal" result="shape"/><feColorMatrix in="SourceAlpha" result="hardAlpha" type="matrix" values="0 0 0 0 0 0 0 0 0 0 0 0 0 0 0 0 0 0 127 0"/><feOffset dy="-3"/><feGaussianBlur stdDeviation="1.5"/><feComposite in2="hardAlpha" k2="-1" k3="1" operator="arithmetic"/><feColorMatrix type="matrix" values="0 0 0 0 0 0 0 0 0 0 0 0 0 0 0 0 0 0 0.1 0"/><feBlend in2="shape" mode="normal" result="effect1_innerShadow_3051_47021"/><feColorMatrix in="SourceAlpha" result="hardAlpha" type="matrix" values="0 0 0 0 0 0 0 0 0 0 0 0 0 0 0 0 0 0 127 0"/><feOffset dy="3"/><feGaussianBlur stdDeviation="1.5"/><feComposite in2="hardAlpha" k2="-1" k3="1" operator="arithmetic"/><feColorMatrix type="matrix" values="0 0 0 0 1 0 0 0 0 1 0 0 0 0 1 0 0 0 0.1 0"/><feBlend in2="effect1_innerShadow_3051_47021" mode="normal" result="effect2_innerShadow_3051_47021"/><feColorMatrix in="SourceAlpha" result="hardAlpha" type="matrix" values="0 0 0 0 0 0 0 0 0 0 0 0 0 0 0 0 0 0 127 0"/><feMorphology in="SourceAlpha" operator="erode" radius="1" result="effect3_innerShadow_3051_47021"/><feOffset/><feComposite in2="hardAlpha" k2="-1" k3="1" operator="arithmetic"/><feColorMatrix type="matrix" values="0 0 0 0 0.0627451 0 0 0 0 0.0941176 0 0 0 0 0.156863 0 0 0 0.24 0"/><feBlend in2="effect2_innerShadow_3051_47021" mode="normal" result="effect3_innerShadow_3051_47021"/></filter><filter id="b" color-interpolation-filters="sRGB" filterUnits="userSpaceOnUse" height="46" width="39.6699" x="4.16406" y="4"><feFlood flood-opacity="0" result="BackgroundImageFix"/><feColorMatrix in="SourceAlpha" result="hardAlpha" type="matrix" values="0 0 0 0 0 0 0 0 0 0 0 0 0 0 0 0 0 0 127 0"/><feMorphology in="SourceAlpha" operator="erode" radius="2" result="effect1_dropShadow_3051_47021"/><feOffset dy="3"/><feGaussianBlur stdDeviation="3"/><feComposite in2="hardAlpha" operator="out"/><feColorMatrix type="matrix" values="0 0 0 0 0.141176 0 0 0 0 0.141176 0 0 0 0 0.141176 0 0 0 0.1 0"/><feBlend in2="BackgroundImageFix" mode="normal" result="effect1_dropShadow_3051_47021"/><feBlend in="SourceGraphic" in2="effect1_dropShadow_3051_47021" mode="normal" result="shape"/></filter><linearGradient id="c" gradientUnits="userSpaceOnUse" x1="24" x2="26" y1=".000001" y2="48"><stop offset="0" stop-color="#fff" stop-opacity="0"/><stop offset="1" stop-color="#fff" stop-opacity=".12"/></linearGradient><linearGradient id="d" gradientUnits="userSpaceOnUse" x1="23.9974" x2="23.9974" y1="8.1665" y2="39.8332"><stop offset="0" stop-color="#fff" stop-opacity=".8"/><stop offset="1" stop-color="#fff" stop-opacity=".5"/></linearGradient><linearGradient id="e" gradientUnits="userSpaceOnUse" x1="24" x2="24" y1="0" y2="48"><stop offset="0" stop-color="#fff" stop-opacity=".12"/><stop offset="1" stop-color="#fff" stop-opacity="0"/></linearGradient><clipPath id="f"><rect height="48" rx="12" width="48"/></clipPath><g filter="url(#a)"><g clip-path="url(#f)"><rect fill="#22262f" height="48" rx="12" width="48"/><path d="m0 0h48v48h-48z" fill="url(#c)"/><g filter="url(#b)"><path clip-rule="evenodd" d="m23.9974 8.1665c-4.0911 0-7.8197 1.55159-10.6297 4.0984-.3937.3421-.7632.7115-1.1052 1.1053-2.54685 2.8099-4.09844 6.5386-4.09844 10.6296 0 8.7445 7.08884 15.8334 15.83334 15.8334s15.8333-7.0889 15.8333-15.8334-7.0888-15.8333-15.8333-15.8333zm0 29.2917c7.4328 0 13.4583-6.0255 13.4583-13.4584 0-6.9711-5.3001-12.7042-12.0905-13.3896 3.754 1.7752 6.3509 5.5968 6.3509 10.0251 0 2.8827-1.1005 5.5084-2.9044 7.4798-.2146.2507-.4483.4845-.699.699-1.9714 1.8039-4.5971 2.9045-7.4799 2.9045-4.4282 0-8.2499-2.597-10.0251-6.351.6854 6.7904 6.4186 12.0906 13.3897 12.0906zm3.0332-10.9149c-.1568.1696-.3201.333-.4898.4897-.6879.5774-1.575.9252-2.5434.9252-2.1861 0-3.9583-1.7722-3.9583-3.9584 0-2.1861 1.7722-3.9583 3.9583-3.9583s3.9583 1.7722 3.9583 3.9583c0 .9684-.3477 1.8556-.9251 2.5435zm2.3105-5.9444c-1.1245-1.7631-3.0975-2.9324-5.3437-2.9324-3.4978 0-6.3333 2.8355-6.3333 6.3333 0 2.2462 1.1693 4.2193 2.9324 5.3437-4.7928-.0196-8.672-3.9109-8.672-8.7082 0-2.1749.7972-4.1635 2.1155-5.6897.2866-.3151.5881-.6165.9032-.9032 1.5261-1.3182 3.5148-2.1155 5.6896-2.1155 4.7974 0 8.6887 3.8792 8.7083 8.672z" fill="url(#d)" fill-rule="evenodd"/></g></g><rect height="46" rx="11" stroke="url(#e)" stroke-width="2" width="46" x="1" y="1"/></g></svg>