<svg fill="none" height="48" viewBox="0 0 168 48" width="168" xmlns="http://www.w3.org/2000/svg" xmlns:xlink="http://www.w3.org/1999/xlink"><filter id="a" color-interpolation-filters="sRGB" filterUnits="userSpaceOnUse" height="54" width="48" x="0" y="-3"><feFlood flood-opacity="0" result="BackgroundImageFix"/><feBlend in="SourceGraphic" in2="BackgroundImageFix" mode="normal" result="shape"/><feColorMatrix in="SourceAlpha" result="hardAlpha" type="matrix" values="0 0 0 0 0 0 0 0 0 0 0 0 0 0 0 0 0 0 127 0"/><feOffset dy="-3"/><feGaussianBlur stdDeviation="1.5"/><feComposite in2="hardAlpha" k2="-1" k3="1" operator="arithmetic"/><feColorMatrix type="matrix" values="0 0 0 0 0 0 0 0 0 0 0 0 0 0 0 0 0 0 0.1 0"/><feBlend in2="shape" mode="normal" result="effect1_innerShadow_3046_38794"/><feColorMatrix in="SourceAlpha" result="hardAlpha" type="matrix" values="0 0 0 0 0 0 0 0 0 0 0 0 0 0 0 0 0 0 127 0"/><feOffset dy="3"/><feGaussianBlur stdDeviation="1.5"/><feComposite in2="hardAlpha" k2="-1" k3="1" operator="arithmetic"/><feColorMatrix type="matrix" values="0 0 0 0 1 0 0 0 0 1 0 0 0 0 1 0 0 0 0.1 0"/><feBlend in2="effect1_innerShadow_3046_38794" mode="normal" result="effect2_innerShadow_3046_38794"/><feColorMatrix in="SourceAlpha" result="hardAlpha" type="matrix" values="0 0 0 0 0 0 0 0 0 0 0 0 0 0 0 0 0 0 127 0"/><feMorphology in="SourceAlpha" operator="erode" radius="1" result="effect3_innerShadow_3046_38794"/><feOffset/><feComposite in2="hardAlpha" k2="-1" k3="1" operator="arithmetic"/><feColorMatrix type="matrix" values="0 0 0 0 0.0627451 0 0 0 0 0.0941176 0 0 0 0 0.156863 0 0 0 0.24 0"/><feBlend in2="effect2_innerShadow_3046_38794" mode="normal" result="effect3_innerShadow_3046_38794"/></filter><filter id="b" color-interpolation-filters="sRGB" filterUnits="userSpaceOnUse" height="42" width="39" x="4.5" y="5.25"><feFlood flood-opacity="0" result="BackgroundImageFix"/><feColorMatrix in="SourceAlpha" result="hardAlpha" type="matrix" values="0 0 0 0 0 0 0 0 0 0 0 0 0 0 0 0 0 0 127 0"/><feMorphology in="SourceAlpha" operator="erode" radius="1.5" result="effect1_dropShadow_3046_38794"/><feOffset dy="2.25"/><feGaussianBlur stdDeviation="2.25"/><feComposite in2="hardAlpha" operator="out"/><feColorMatrix type="matrix" values="0 0 0 0 0.141176 0 0 0 0 0.141176 0 0 0 0 0.141176 0 0 0 0.1 0"/><feBlend in2="BackgroundImageFix" mode="normal" result="effect1_dropShadow_3046_38794"/><feBlend in="SourceGraphic" in2="effect1_dropShadow_3046_38794" mode="normal" result="shape"/></filter><linearGradient id="c" gradientUnits="userSpaceOnUse" x1="24" x2="26" y1=".000001" y2="48"><stop offset="0" stop-color="#fff" stop-opacity="0"/><stop offset="1" stop-color="#fff" stop-opacity=".12"/></linearGradient><linearGradient id="d" gradientUnits="userSpaceOnUse" x1="24.0009" x2="24.0009" y1="12" y2="35.625"><stop offset="0" stop-color="#fff" stop-opacity=".8"/><stop offset="1" stop-color="#fff" stop-opacity=".5"/></linearGradient><linearGradient id="e" gradientUnits="userSpaceOnUse" x1="24" x2="24" y1="0" y2="48"><stop offset="0" stop-color="#fff" stop-opacity=".12"/><stop offset="1" stop-color="#fff" stop-opacity="0"/></linearGradient><clipPath id="f"><rect height="48" rx="12" width="48"/></clipPath><g filter="url(#a)"><g clip-path="url(#f)"><rect fill="#6938ef" height="48" rx="12" width="48"/><path d="m0 0h48v48h-48z" fill="url(#c)"/><g filter="url(#b)"><path clip-rule="evenodd" d="m20.7207 10.875h11.1014l8.5996 13.9996-11.834 11.9617-17.0163-3.0344-3.86828-14.4075zm.3956 3.7269-5.1121 11.3288 4.8378 4.0058 6.6185-2.8482zm9.2457 11.475 6.9103-2.0305-5.3987-8.7888zm-.4623-12.9519h-7.0101l5.4982 10.8213zm5.2346 13.8947-5.0842 1.494-.4086 4.0581zm-7.8753 6.756.4368-4.3392-4.543 1.9551zm-5.1296-.3766-8.1844-1.4595 1.2356-3.7697 4.8284 3.998zm-8.7733-6.8868-2.0278-2.2929 1.2515 4.6613zm-2.6508-6.3936 3.6108 4.0828 4.1276-9.1473z" fill="url(#d)" fill-rule="evenodd"/></g></g><rect height="46" rx="11" stroke="url(#e)" stroke-width="2" width="46" x="1" y="1"/></g><g fill="#fff"><path clip-rule="evenodd" d="m80.735 22.8498c0 5.307-3.48 9.367-8.41 10.208v.841c0 1.363.58 1.856 1.972 1.856h92.883v3.161h-93.115c-3.857 0-5.539-1.392-5.539-4.785v-1.044c-5.017-.812-8.526-4.901-8.526-10.237 0-5.974 4.408-10.382 10.382-10.382 5.945 0 10.353 4.408 10.353 10.382zm-16.356 0c0 3.799 2.494 6.612 5.974 6.612s6.003-2.813 6.003-6.612-2.523-6.641-6.003-6.641-5.974 2.842-5.974 6.641z" fill-rule="evenodd"/><path d="m88.8906 29.6358c1.769 0 3.016-1.392 3.016-3.248v-8.004h4.06v14.616h-4.06v-2.03c-.812 1.392-2.436 2.262-4.437 2.262-3.277 0-5.423-2.407-5.423-5.742v-9.106h4.031v8.207c0 1.769 1.16 3.045 2.813 3.045z"/><path clip-rule="evenodd" d="m110.206 23.6038c0-3.306-2.697-5.452-6.38-5.452-4.0022 0-6.3802 2.349-6.5542 5.278h3.5962c.058-1.218.957-2.32 2.726-2.32 1.653 0 2.61.841 2.61 2.059 0 .609-.377 1.073-1.102 1.073h-2.465c-3.1902 0-5.3362 1.74-5.3362 4.611 0 2.494 1.943 4.379 4.7852 4.379 2.001 0 3.625-.899 4.118-2.262v2.03h4.002zm-4.002 3.393c0 1.856-1.131 3.306-3.103 3.306-1.131 0-1.943-.667-1.943-1.624 0-1.131.87-1.885 2.088-1.885h2.958z" fill-rule="evenodd"/><path clip-rule="evenodd" d="m127.183 32.9998c-3.364 0-5.539-1.914-5.539-5.307v-13.63h4.031v4.321h16.66v3.364l-7.569 7.859h8.004v2.9369l7.54-19.8439h4.147l7.714 20.3h-4.524l-1.595-4.437h-7.337l-1.595 4.437zm2.885-3.393 7.656-7.859h-12.049v5.771c0 1.421.754 2.088 2.059 2.088zm22.33-11.281-2.378 6.583h4.727z" fill-rule="evenodd"/><path d="m115.873 20.8198c.783-1.827 1.885-2.436 3.654-2.436h.986v3.364h-1.74c-2.001 0-2.9 1.653-2.9 4.147v7.105h-4.06v-14.616h4.06z"/><path d="m167.181 12.6998h-4.379v20.3h4.379z"/></g></svg>