<svg fill="none" height="54" viewBox="0 0 173 54" width="173" xmlns="http://www.w3.org/2000/svg" xmlns:xlink="http://www.w3.org/1999/xlink"><filter id="a" color-interpolation-filters="sRGB" filterUnits="userSpaceOnUse" height="57" width="54" x="0" y="-3"><feFlood flood-opacity="0" result="BackgroundImageFix"/><feColorMatrix in="SourceAlpha" result="hardAlpha" type="matrix" values="0 0 0 0 0 0 0 0 0 0 0 0 0 0 0 0 0 0 127 0"/><feOffset dy="1"/><feGaussianBlur stdDeviation=".5"/><feComposite in2="hardAlpha" operator="out"/><feColorMatrix type="matrix" values="0 0 0 0 0.162923 0 0 0 0 0.162923 0 0 0 0 0.162923 0 0 0 0.08 0"/><feBlend in2="BackgroundImageFix" mode="normal" result="effect1_dropShadow_3046_38751"/><feColorMatrix in="SourceAlpha" result="hardAlpha" type="matrix" values="0 0 0 0 0 0 0 0 0 0 0 0 0 0 0 0 0 0 127 0"/><feMorphology in="SourceAlpha" operator="erode" radius="1" result="effect2_dropShadow_3046_38751"/><feOffset dy="3"/><feGaussianBlur stdDeviation="2"/><feComposite in2="hardAlpha" operator="out"/><feColorMatrix type="matrix" values="0 0 0 0 0.164706 0 0 0 0 0.164706 0 0 0 0 0.164706 0 0 0 0.14 0"/><feBlend in2="effect1_dropShadow_3046_38751" mode="normal" result="effect2_dropShadow_3046_38751"/><feBlend in="SourceGraphic" in2="effect2_dropShadow_3046_38751" mode="normal" result="shape"/><feColorMatrix in="SourceAlpha" result="hardAlpha" type="matrix" values="0 0 0 0 0 0 0 0 0 0 0 0 0 0 0 0 0 0 127 0"/><feOffset dy="-3"/><feGaussianBlur stdDeviation="1.5"/><feComposite in2="hardAlpha" k2="-1" k3="1" operator="arithmetic"/><feColorMatrix type="matrix" values="0 0 0 0 0 0 0 0 0 0 0 0 0 0 0 0 0 0 0.1 0"/><feBlend in2="shape" mode="normal" result="effect3_innerShadow_3046_38751"/><feColorMatrix in="SourceAlpha" result="hardAlpha" type="matrix" values="0 0 0 0 0 0 0 0 0 0 0 0 0 0 0 0 0 0 127 0"/><feOffset dy="3"/><feGaussianBlur stdDeviation="1.5"/><feComposite in2="hardAlpha" k2="-1" k3="1" operator="arithmetic"/><feColorMatrix type="matrix" values="0 0 0 0 1 0 0 0 0 1 0 0 0 0 1 0 0 0 0.1 0"/><feBlend in2="effect3_innerShadow_3046_38751" mode="normal" result="effect4_innerShadow_3046_38751"/><feColorMatrix in="SourceAlpha" result="hardAlpha" type="matrix" values="0 0 0 0 0 0 0 0 0 0 0 0 0 0 0 0 0 0 127 0"/><feMorphology in="SourceAlpha" operator="erode" radius="1" result="effect5_innerShadow_3046_38751"/><feOffset/><feComposite in2="hardAlpha" k2="-1" k3="1" operator="arithmetic"/><feColorMatrix type="matrix" values="0 0 0 0 0.0627451 0 0 0 0 0.0941176 0 0 0 0 0.156863 0 0 0 0.24 0"/><feBlend in2="effect4_innerShadow_3046_38751" mode="normal" result="effect5_innerShadow_3046_38751"/></filter><filter id="b" color-interpolation-filters="sRGB" filterUnits="userSpaceOnUse" height="42" width="36" x="9" y="5.25"><feFlood flood-opacity="0" result="BackgroundImageFix"/><feColorMatrix in="SourceAlpha" result="hardAlpha" type="matrix" values="0 0 0 0 0 0 0 0 0 0 0 0 0 0 0 0 0 0 127 0"/><feMorphology in="SourceAlpha" operator="erode" radius="1.5" result="effect1_dropShadow_3046_38751"/><feOffset dy="2.25"/><feGaussianBlur stdDeviation="2.25"/><feComposite in2="hardAlpha" operator="out"/><feColorMatrix type="matrix" values="0 0 0 0 0.141176 0 0 0 0 0.141176 0 0 0 0 0.141176 0 0 0 0.1 0"/><feBlend in2="BackgroundImageFix" mode="normal" result="effect1_dropShadow_3046_38751"/><feBlend in="SourceGraphic" in2="effect1_dropShadow_3046_38751" mode="normal" result="shape"/></filter><linearGradient id="c" gradientUnits="userSpaceOnUse" x1="24" x2="26" y1=".000001" y2="48"><stop offset="0" stop-color="#fff" stop-opacity="0"/><stop offset="1" stop-color="#fff" stop-opacity=".12"/></linearGradient><linearGradient id="d" gradientUnits="userSpaceOnUse" x1="27" x2="27" y1="9" y2="39"><stop offset="0" stop-color="#fff" stop-opacity=".8"/><stop offset="1" stop-color="#fff" stop-opacity=".5"/></linearGradient><linearGradient id="e" gradientUnits="userSpaceOnUse" x1="27" x2="27" y1="0" y2="48"><stop offset="0" stop-color="#fff" stop-opacity=".12"/><stop offset="1" stop-color="#fff" stop-opacity="0"/></linearGradient><clipPath id="f"><rect height="48" rx="12" width="48" x="3"/></clipPath><g filter="url(#a)"><g clip-path="url(#f)"><rect fill="#0a0d12" height="48" rx="12" width="48" x="3"/><path d="m0 0h48v48h-48z" fill="url(#c)" transform="translate(3)"/><g fill="url(#d)" filter="url(#b)"><path d="m18.75 12.375c0 1.864-1.511 3.375-3.375 3.375s-3.375-1.511-3.375-3.375 1.511-3.375 3.375-3.375 3.375 1.511 3.375 3.375z"/><path d="m30.375 12.375c0 1.864-1.511 3.375-3.375 3.375s-3.375-1.511-3.375-3.375 1.511-3.375 3.375-3.375 3.375 1.511 3.375 3.375z"/><path d="m42 12.375c0 1.864-1.511 3.375-3.375 3.375s-3.375-1.511-3.375-3.375 1.511-3.375 3.375-3.375 3.375 1.511 3.375 3.375z"/><path d="m18.75 24c0 1.864-1.511 3.375-3.375 3.375s-3.375-1.511-3.375-3.375 1.511-3.375 3.375-3.375 3.375 1.511 3.375 3.375z"/><path d="m30.375 24c0 1.864-1.511 3.375-3.375 3.375s-3.375-1.511-3.375-3.375 1.511-3.375 3.375-3.375 3.375 1.511 3.375 3.375z"/><path d="m42 24c0 1.864-1.511 3.375-3.375 3.375s-3.375-1.511-3.375-3.375 1.511-3.375 3.375-3.375 3.375 1.511 3.375 3.375z"/><path d="m18.75 35.625c0 1.864-1.511 3.375-3.375 3.375s-3.375-1.511-3.375-3.375 1.511-3.375 3.375-3.375 3.375 1.511 3.375 3.375z"/><path d="m30.375 35.625c0 1.864-1.511 3.375-3.375 3.375s-3.375-1.511-3.375-3.375 1.511-3.375 3.375-3.375 3.375 1.511 3.375 3.375z"/><path d="m42 35.625c0 1.864-1.511 3.375-3.375 3.375s-3.375-1.511-3.375-3.375 1.511-3.375 3.375-3.375 3.375 1.511 3.375 3.375z"/></g></g><rect height="46" rx="11" stroke="url(#e)" stroke-width="2" width="46" x="4" y="1"/></g><g fill="#0a0d12"><path d="m68.992 33.224c-1.176 0-2.2213-.2147-3.136-.644-.896-.448-1.596-1.064-2.1-1.848-.504-.8027-.756-1.7173-.756-2.744v-3.612c0-1.1013.252-2.072.756-2.912s1.204-1.4933 2.1-1.96c.9147-.4667 1.96-.7 3.136-.7h2.24c1.792 0 3.2293.504 4.312 1.512s1.624 2.352 1.624 4.032v2.968h-10.36v.672c0 .616.196 1.1107.588 1.484s.924.56 1.596.56h2.184c.6533 0 1.176-.14 1.568-.42.4107-.2987.616-.6813.616-1.148h3.752c0 .9333-.252 1.764-.756 2.492s-1.2133 1.288-2.128 1.68c-.896.392-1.932.588-3.108.588zm4.424-8.652v-.224c0-.728-.196-1.3067-.588-1.736-.392-.448-.9147-.672-1.568-.672h-2.268c-.672 0-1.2133.2333-1.624.7s-.616 1.0827-.616 1.848v.084z"/><path d="m79.1875 19.028h3.528v1.68c.4107-.5787.9427-1.036 1.596-1.372.6533-.3547 1.3067-.532 1.96-.532h1.68c1.4933 0 2.688.4667 3.584 1.4.9147.9333 1.372 2.1653 1.372 3.696v9.1h-3.808v-8.96c0-.5787-.1587-1.0453-.476-1.4-.2987-.3547-.6907-.532-1.176-.532h-1.68c-.6533 0-1.2413.2427-1.764.728-.504.4667-.84 1.0827-1.008 1.848v8.316h-3.808z"/><path d="m95.4166 19.028h3.528v1.68c.4106-.5787.9426-1.036 1.5964-1.372.653-.3547 1.306-.532 1.96-.532h1.68c1.493 0 2.688.4667 3.584 1.4.914.9333 1.372 2.1653 1.372 3.696v9.1h-3.808v-8.96c0-.5787-.159-1.0453-.476-1.4-.299-.3547-.691-.532-1.176-.532h-1.68c-.654 0-1.242.2427-1.764.728-.5044.4667-.8404 1.0827-1.0084 1.848v8.316h-3.808z"/><path d="m114.474 33c-.822 0-1.484-.2333-1.988-.7-.486-.4853-.728-1.12-.728-1.904v-16.996h3.864v16.24h10.64v3.36z"/><path d="m131.971 33.224c-1.456 0-2.632-.364-3.528-1.092s-1.344-1.6893-1.344-2.884v-1.036c0-1.176.466-2.1187 1.4-2.828.933-.728 2.165-1.092 3.696-1.092h1.708c.485 0 1.008.0653 1.568.196s1.073.308 1.54.532v-1.456c0-.4667-.159-.84-.476-1.12-.299-.2987-.7-.448-1.204-.448h-2.408c-.523 0-.943.1213-1.26.364-.318.2427-.476.5693-.476.98h-3.696c0-1.3627.494-2.4547 1.484-3.276 1.008-.84 2.324-1.26 3.948-1.26h2.408c1.642 0 2.968.4387 3.976 1.316 1.008.8587 1.512 2.0067 1.512 3.444v9.436h-3.528v-1.68c-.448.5787-.999 1.0453-1.652 1.4-.654.336-1.298.504-1.932.504zm2.016-2.912c.69 0 1.306-.1773 1.848-.532.541-.3547.933-.8307 1.176-1.428v-.476c-.299-.224-.719-.4013-1.26-.532-.523-.1307-1.083-.196-1.68-.196h-1.764c-.448 0-.812.112-1.092.336s-.42.5227-.42.896v.728c0 .3547.149.644.448.868.317.224.728.336 1.232.336z"/><path d="m150.086 33.224c-.579 0-1.167-.1867-1.764-.56s-1.083-.8587-1.456-1.456v1.792h-3.528v-19.6h3.808v6.72c.373-.392.831-.7093 1.372-.952.56-.2427 1.092-.364 1.596-.364h1.96c1.083 0 2.035.2333 2.856.7.84.448 1.484 1.092 1.932 1.932.467.84.7 1.8107.7 2.912v3.192c0 1.12-.233 2.1093-.7 2.968s-1.12 1.5307-1.96 2.016c-.84.4667-1.801.7-2.884.7zm1.484-3.332c.653 0 1.176-.2427 1.568-.728.411-.4853.616-1.12.616-1.904v-2.632c0-.7467-.196-1.344-.588-1.792-.392-.4667-.905-.7-1.54-.7h-1.736c-.747 0-1.372.2613-1.876.784s-.793 1.2133-.868 2.072v2.408c.131.7467.429 1.3533.896 1.82.485.448 1.055.672 1.708.672z"/><path d="m164.633 33.224c-1.699 0-3.062-.448-4.088-1.344-1.027-.896-1.54-2.072-1.54-3.528h3.752c0 .504.168.9147.504 1.232.354.2987.812.448 1.372.448h2.52c1.12 0 1.68-.308 1.68-.924v-.476c0-.1867-.094-.3547-.28-.504-.187-.168-.439-.28-.756-.336l-4.844-.84c-1.139-.1867-2.044-.588-2.716-1.204-.654-.6347-.98-1.372-.98-2.212v-.924c0-1.1947.485-2.128 1.456-2.8.989-.672 2.361-1.008 4.116-1.008h2.184c1.568 0 2.828.42 3.78 1.26.97.8213 1.456 1.9133 1.456 3.276h-3.752c0-.4107-.14-.7373-.42-.98-.262-.2427-.616-.364-1.064-.364h-2.128c-1.214 0-1.82.28-1.82.84v.448c0 .2053.074.3827.224.532.168.1307.401.224.7.28l5.096.924c1.064.1867 1.922.588 2.576 1.204.653.5973.98 1.2787.98 2.044v1.008c0 1.2133-.504 2.1747-1.512 2.884-.99.7093-2.315 1.064-3.976 1.064z"/></g></svg>