<svg fill="none" height="48" viewBox="0 0 184 48" width="184" xmlns="http://www.w3.org/2000/svg" xmlns:xlink="http://www.w3.org/1999/xlink"><filter id="a" color-interpolation-filters="sRGB" filterUnits="userSpaceOnUse" height="54" width="48" x="0" y="-3"><feFlood flood-opacity="0" result="BackgroundImageFix"/><feBlend in="SourceGraphic" in2="BackgroundImageFix" mode="normal" result="shape"/><feColorMatrix in="SourceAlpha" result="hardAlpha" type="matrix" values="0 0 0 0 0 0 0 0 0 0 0 0 0 0 0 0 0 0 127 0"/><feOffset dy="-3"/><feGaussianBlur stdDeviation="1.5"/><feComposite in2="hardAlpha" k2="-1" k3="1" operator="arithmetic"/><feColorMatrix type="matrix" values="0 0 0 0 0 0 0 0 0 0 0 0 0 0 0 0 0 0 0.1 0"/><feBlend in2="shape" mode="normal" result="effect1_innerShadow_3046_38748"/><feColorMatrix in="SourceAlpha" result="hardAlpha" type="matrix" values="0 0 0 0 0 0 0 0 0 0 0 0 0 0 0 0 0 0 127 0"/><feOffset dy="3"/><feGaussianBlur stdDeviation="1.5"/><feComposite in2="hardAlpha" k2="-1" k3="1" operator="arithmetic"/><feColorMatrix type="matrix" values="0 0 0 0 1 0 0 0 0 1 0 0 0 0 1 0 0 0 0.1 0"/><feBlend in2="effect1_innerShadow_3046_38748" mode="normal" result="effect2_innerShadow_3046_38748"/><feColorMatrix in="SourceAlpha" result="hardAlpha" type="matrix" values="0 0 0 0 0 0 0 0 0 0 0 0 0 0 0 0 0 0 127 0"/><feMorphology in="SourceAlpha" operator="erode" radius="1" result="effect3_innerShadow_3046_38748"/><feOffset/><feComposite in2="hardAlpha" k2="-1" k3="1" operator="arithmetic"/><feColorMatrix type="matrix" values="0 0 0 0 0.0627451 0 0 0 0 0.0941176 0 0 0 0 0.156863 0 0 0 0.24 0"/><feBlend in2="effect2_innerShadow_3046_38748" mode="normal" result="effect3_innerShadow_3046_38748"/></filter><filter id="b" color-interpolation-filters="sRGB" filterUnits="userSpaceOnUse" height="42" width="36" x="6" y="5.25"><feFlood flood-opacity="0" result="BackgroundImageFix"/><feColorMatrix in="SourceAlpha" result="hardAlpha" type="matrix" values="0 0 0 0 0 0 0 0 0 0 0 0 0 0 0 0 0 0 127 0"/><feMorphology in="SourceAlpha" operator="erode" radius="1.5" result="effect1_dropShadow_3046_38748"/><feOffset dy="2.25"/><feGaussianBlur stdDeviation="2.25"/><feComposite in2="hardAlpha" operator="out"/><feColorMatrix type="matrix" values="0 0 0 0 0.141176 0 0 0 0 0.141176 0 0 0 0 0.141176 0 0 0 0.1 0"/><feBlend in2="BackgroundImageFix" mode="normal" result="effect1_dropShadow_3046_38748"/><feBlend in="SourceGraphic" in2="effect1_dropShadow_3046_38748" mode="normal" result="shape"/></filter><linearGradient id="c" gradientUnits="userSpaceOnUse" x1="24" x2="26" y1=".000001" y2="48"><stop offset="0" stop-color="#fff" stop-opacity="0"/><stop offset="1" stop-color="#fff" stop-opacity=".12"/></linearGradient><linearGradient id="d" gradientUnits="userSpaceOnUse" x1="24" x2="24" y1="9" y2="39"><stop offset="0" stop-color="#fff" stop-opacity=".8"/><stop offset="1" stop-color="#fff" stop-opacity=".5"/></linearGradient><linearGradient id="e" gradientUnits="userSpaceOnUse" x1="24" x2="24" y1="0" y2="48"><stop offset="0" stop-color="#fff" stop-opacity=".12"/><stop offset="1" stop-color="#fff" stop-opacity="0"/></linearGradient><clipPath id="f"><rect height="48" rx="12" width="48"/></clipPath><g filter="url(#a)"><g clip-path="url(#f)"><rect fill="#dd2590" height="48" rx="12" width="48"/><path d="m0 0h48v48h-48z" fill="url(#c)"/><g filter="url(#b)"><path clip-rule="evenodd" d="m39 24c0 8.2843-6.7157 15-15 15-7.356 0-13.4753-5.295-14.75428-12.2815-.00386-.0211-.00767-.0422-.01144-.0633-.15394-.8618-.23428-1.7491-.23428-2.6552 0-.7234.05121-1.4348.1502-2.1309.9356-6.579 6.1399-11.7833 12.7189-12.7189.011-.00157.0221-.00313.0331-.00467.6855-.09593 1.3859-.14553 2.0978-.14553.9283 0 1.8368.08432 2.7185.24572 6.9865 1.27898 12.2815 7.39828 12.2815 14.75428zm-3.75 0c0 6.2132-5.0368 11.25-11.25 11.25-4.6821 0-8.6962-2.8603-10.3902-6.9288.6959.1176 1.4109.1788 2.1402.1788 7.0416 0 12.75-5.7084 12.75-12.75 0-.7293-.0612-1.4443-.1788-2.1402 4.0685 1.694 6.9288 5.7081 6.9288 10.3902zm-11.0112-11.2475c.3311.9376.5112 1.9465.5112 2.9975 0 4.9706-4.0294 9-9 9-1.051 0-2.0599-.1801-2.9975-.5112-.0017-.0794-.0025-.159-.0025-.2388 0-6.2132 5.0368-11.25 11.25-11.25.0798 0 .1594.0008.2388.0025z" fill="url(#d)" fill-rule="evenodd"/></g></g><rect height="46" rx="11" stroke="url(#e)" stroke-width="2" width="46" x="1" y="1"/></g><g fill="#fff"><path d="m60 32.9999v-21h13.71v3.09h-9.87v5.76h8.97v3h-8.97v6.06h9.87v3.09z"/><path d="m82.7437 33.3599c-1.52 0-2.86-.33-4.02-.99s-2.08-1.58-2.76-2.76c-.6599-1.18-.9899-2.53-.9899-4.05s.33-2.87.9899-4.05c.68-1.18 1.6-2.1 2.76-2.76s2.5-.99 4.02-.99c1.9 0 3.5001.5 4.8001 1.5 1.3.98 2.13 2.34 2.49 4.08h-4.0501c-.2-.72-.5999-1.28-1.1999-1.68-.58-.42-1.27-.63-2.07-.63-1.06 0-1.9601.4-2.7 1.2-.74.8-1.1101 1.91-1.1101 3.33s.3701 2.53 1.1101 3.33c.7399.8 1.64 1.2 2.7 1.2.8 0 1.49-.2 2.07-.6.6-.4.9999-.97 1.1999-1.71h4.0501c-.36 1.68-1.19 3.03-2.49 4.05s-2.9001 1.53-4.8001 1.53z"/><path d="m91.642 32.9999v-21.6h3.84v21.6z"/><path d="m99.6757 15.8099c-.7 0-1.28-.21-1.74-.63-.44-.42-.66-.95-.66-1.59s.22-1.16.66-1.56c.46-.42 1.04-.63 1.74-.63.7003 0 1.2703.21 1.7103.63.46.4.69.92.69 1.56s-.23 1.17-.69 1.59c-.44.42-1.01.63-1.7103.63zm-1.92 17.19v-14.88h3.8403v14.88z"/><path d="m103.804 39.5999v-21.48h3.42l.42 2.13c.48-.66 1.11-1.24 1.89-1.74.8-.5 1.83-.75 3.09-.75 1.4 0 2.65.34 3.75 1.02s1.97 1.61 2.61 2.79.96 2.52.96 4.02-.32 2.84-.96 4.02c-.64 1.16-1.51 2.08-2.61 2.76-1.1.66-2.35.99-3.75.99-1.12 0-2.1-.21-2.94-.63s-1.52-1.01-2.04-1.77v8.64zm8.01-9.6c1.22 0 2.23-.41 3.03-1.23s1.2-1.88 1.2-3.18-.4-2.37-1.2-3.21-1.81-1.26-3.03-1.26c-1.24 0-2.26.42-3.06 1.26-.78.82-1.17 1.88-1.17 3.18s.39 2.37 1.17 3.21c.8.82 1.82 1.23 3.06 1.23z"/><path d="m127.724 33.3599c-1.32 0-2.48-.21-3.48-.63-1-.44-1.8-1.04-2.4-1.8s-.96-1.64-1.08-2.64h3.87c.12.58.44 1.08.96 1.5.54.4 1.23.6 2.07.6s1.45-.17 1.83-.51c.4-.34.6-.73.6-1.17 0-.64-.28-1.07-.84-1.29-.56-.24-1.34-.47-2.34-.69-.64-.14-1.29-.31-1.95-.51s-1.27-.45-1.83-.75c-.54-.32-.98-.72-1.32-1.2-.34-.5-.51-1.11-.51-1.83 0-1.32.52-2.43 1.56-3.33 1.06-.9 2.54-1.35 4.44-1.35 1.76 0 3.16.41 4.2 1.23 1.06.82 1.69 1.95 1.89 3.39h-3.63c-.22-1.1-1.05-1.65-2.49-1.65-.72 0-1.28.14-1.68.42-.38.28-.57.63-.57 1.05 0 .44.29.79.87 1.05s1.35.5 2.31.72c1.04.24 1.99.51 2.85.81.88.28 1.58.71 2.1 1.29.52.56.78 1.37.78 2.43.02.92-.22 1.75-.72 2.49s-1.22 1.32-2.16 1.74-2.05.63-3.33.63z"/><path d="m142.766 33.3599c-1.5 0-2.83-.32-3.99-.96s-2.07-1.54-2.73-2.7-.99-2.5-.99-4.02c0-1.54.32-2.91.96-4.11.66-1.2 1.56-2.13 2.7-2.79 1.16-.68 2.52-1.02 4.08-1.02 1.46 0 2.75.32 3.87.96s1.99 1.52 2.61 2.64c.64 1.1.96 2.33.96 3.69 0 .22-.01.45-.03.69 0 .24-.01.49-.03.75h-11.31c.08 1.16.48 2.07 1.2 2.73.74.66 1.63.99 2.67.99.78 0 1.43-.17 1.95-.51.54-.36.94-.82 1.2-1.38h3.9c-.28.94-.75 1.8-1.41 2.58-.64.76-1.44 1.36-2.4 1.8-.94.44-2.01.66-3.21.66zm.03-12.48c-.94 0-1.77.27-2.49.81-.72.52-1.18 1.32-1.38 2.4h7.41c-.06-.98-.42-1.76-1.08-2.34s-1.48-.87-2.46-.87z"/><path d="m151.065 32.9999 2.04-11.67h-2.04l.57-3.21h2.04l.3-1.74c.32-1.8 1-3.08 2.04-3.84 1.06-.76 2.38-1.14 3.96-1.14h1.62l-.6 3.27h-1.02c-.66 0-1.16.13-1.5.39-.32.26-.54.7-.66 1.32l-.3 1.74h3.21l-.57 3.21h-3.21l-2.04 11.67z"/><path d="m164.965 33.3599c-1.56 0-2.76-.42-3.6-1.26-.84-.86-1.26-2.09-1.26-3.69 0-.56.06-1.19.18-1.89l1.5-8.4h3.81l-1.41 8.04c-.04.24-.07.47-.09.69-.02.2-.03.39-.03.57 0 1.8.88 2.7 2.64 2.7 1.08 0 2.03-.37 2.85-1.11.82-.76 1.35-1.79 1.59-3.09l1.35-7.8h3.84l-2.61 14.88h-3.39l.12-2.46c-.62.86-1.4 1.55-2.34 2.07-.94.5-1.99.75-3.15.75z"/><path d="m175.867 32.9999 3.84-21.6h3.84l-3.84 21.6z"/></g></svg>