<svg fill="none" height="48" viewBox="0 0 48 48" width="48" xmlns="http://www.w3.org/2000/svg" xmlns:xlink="http://www.w3.org/1999/xlink"><filter id="a" color-interpolation-filters="sRGB" filterUnits="userSpaceOnUse" height="54" width="48" x="0" y="-3"><feFlood flood-opacity="0" result="BackgroundImageFix"/><feBlend in="SourceGraphic" in2="BackgroundImageFix" mode="normal" result="shape"/><feColorMatrix in="SourceAlpha" result="hardAlpha" type="matrix" values="0 0 0 0 0 0 0 0 0 0 0 0 0 0 0 0 0 0 127 0"/><feOffset dy="-3"/><feGaussianBlur stdDeviation="1.5"/><feComposite in2="hardAlpha" k2="-1" k3="1" operator="arithmetic"/><feColorMatrix type="matrix" values="0 0 0 0 0 0 0 0 0 0 0 0 0 0 0 0 0 0 0.1 0"/><feBlend in2="shape" mode="normal" result="effect1_innerShadow_3051_47013"/><feColorMatrix in="SourceAlpha" result="hardAlpha" type="matrix" values="0 0 0 0 0 0 0 0 0 0 0 0 0 0 0 0 0 0 127 0"/><feOffset dy="3"/><feGaussianBlur stdDeviation="1.5"/><feComposite in2="hardAlpha" k2="-1" k3="1" operator="arithmetic"/><feColorMatrix type="matrix" values="0 0 0 0 1 0 0 0 0 1 0 0 0 0 1 0 0 0 0.1 0"/><feBlend in2="effect1_innerShadow_3051_47013" mode="normal" result="effect2_innerShadow_3051_47013"/><feColorMatrix in="SourceAlpha" result="hardAlpha" type="matrix" values="0 0 0 0 0 0 0 0 0 0 0 0 0 0 0 0 0 0 127 0"/><feMorphology in="SourceAlpha" operator="erode" radius="1" result="effect3_innerShadow_3051_47013"/><feOffset/><feComposite in2="hardAlpha" k2="-1" k3="1" operator="arithmetic"/><feColorMatrix type="matrix" values="0 0 0 0 0.0627451 0 0 0 0 0.0941176 0 0 0 0 0.156863 0 0 0 0.24 0"/><feBlend in2="effect2_innerShadow_3051_47013" mode="normal" result="effect3_innerShadow_3051_47013"/></filter><filter id="b" color-interpolation-filters="sRGB" filterUnits="userSpaceOnUse" height="42" width="35.25" x="6.875" y="5.25"><feFlood flood-opacity="0" result="BackgroundImageFix"/><feColorMatrix in="SourceAlpha" result="hardAlpha" type="matrix" values="0 0 0 0 0 0 0 0 0 0 0 0 0 0 0 0 0 0 127 0"/><feMorphology in="SourceAlpha" operator="erode" radius="1.5" result="effect1_dropShadow_3051_47013"/><feOffset dy="2.25"/><feGaussianBlur stdDeviation="2.25"/><feComposite in2="hardAlpha" operator="out"/><feColorMatrix type="matrix" values="0 0 0 0 0.141176 0 0 0 0 0.141176 0 0 0 0 0.141176 0 0 0 0.1 0"/><feBlend in2="BackgroundImageFix" mode="normal" result="effect1_dropShadow_3051_47013"/><feBlend in="SourceGraphic" in2="effect1_dropShadow_3051_47013" mode="normal" result="shape"/></filter><linearGradient id="c" gradientUnits="userSpaceOnUse" x1="24" x2="26" y1=".000001" y2="48"><stop offset="0" stop-color="#fff" stop-opacity="0"/><stop offset="1" stop-color="#fff" stop-opacity=".12"/></linearGradient><linearGradient id="d"><stop offset="0" stop-color="#fff" stop-opacity=".8"/><stop offset="1" stop-color="#fff" stop-opacity=".5"/></linearGradient><linearGradient id="e" gradientUnits="userSpaceOnUse" x1="24.5" x2="24.5" xlink:href="#d" y1="8.50781" y2="31.2884"/><linearGradient id="f" gradientUnits="userSpaceOnUse" x1="24.5" x2="24.5" xlink:href="#d" y1="39.7266" y2="16.9459"/><linearGradient id="g" gradientUnits="userSpaceOnUse" x1="24" x2="24" y1="0" y2="48"><stop offset="0" stop-color="#fff" stop-opacity=".12"/><stop offset="1" stop-color="#fff" stop-opacity="0"/></linearGradient><clipPath id="h"><rect height="48" rx="12" width="48"/></clipPath><g filter="url(#a)"><g clip-path="url(#h)"><rect fill="#1570ef" height="48" rx="12" width="48"/><path d="m0 0h48v48h-48z" fill="url(#c)"/><g clip-rule="evenodd" fill-rule="evenodd" filter="url(#b)"><path d="m29.8847 7.51041c.3354-.17494.7361-.16971 1.0667.01394l7.5949 4.21875c.3572.1984.5787.5749.5787.9835l-.0005 8.4372c-.0001.4191-.2331.8035-.6046.9973l-19.4052 10.1247c-.3353.175-.7361.1697-1.0668-.014l-7.5928-4.2186c-.3571-.1984-.57856-.5747-.57863-.9832l-.00147-8.4373c-.00007-.4192.2329-.8037.6046-.9976zm-17.7596 11.80399.001 5.8997 17.1554-8.9509-.001-5.8997zm19.4054-8.8946.001 5.8633 5.3431 2.9687.0004-5.8633zm4.0966 10.7128-5.2372-2.9099-17.0161 8.8782 5.2373 2.9099z" fill="url(#e)"/><path d="m19.1153 40.724c-.3354.1749-.7361.1697-1.0667-.014l-7.5949-4.2187c-.3572-.1985-.57872-.575-.57869-.9836l.00052-8.4371c.00002-.4191.23307-.8035.60457-.9974l19.4052-10.1247c.3353-.1749.7361-.1697 1.0668.014l7.5928 4.2187c.3571.1984.5786.5747.5786.9832l.0015 8.4373c.0001.4192-.2329.8036-.6046.9975zm17.7596-11.804-.001-5.8997-17.1554 8.9509.001 5.8996zm-19.4054 8.8946-.001-5.8633-5.3431-2.9687-.0004 5.8632zm-4.0966-10.7128 5.2372 2.9098 17.0161-8.8781-5.2373-2.9099z" fill="url(#f)" opacity=".5"/></g></g><rect height="46" rx="11" stroke="url(#g)" stroke-width="2" width="46" x="1" y="1"/></g></svg>