<svg fill="none" height="48" viewBox="0 0 210 48" width="210" xmlns="http://www.w3.org/2000/svg" xmlns:xlink="http://www.w3.org/1999/xlink"><filter id="a" color-interpolation-filters="sRGB" filterUnits="userSpaceOnUse" height="54" width="48" x="0" y="-3"><feFlood flood-opacity="0" result="BackgroundImageFix"/><feBlend in="SourceGraphic" in2="BackgroundImageFix" mode="normal" result="shape"/><feColorMatrix in="SourceAlpha" result="hardAlpha" type="matrix" values="0 0 0 0 0 0 0 0 0 0 0 0 0 0 0 0 0 0 127 0"/><feOffset dy="-3"/><feGaussianBlur stdDeviation="1.5"/><feComposite in2="hardAlpha" k2="-1" k3="1" operator="arithmetic"/><feColorMatrix type="matrix" values="0 0 0 0 0 0 0 0 0 0 0 0 0 0 0 0 0 0 0.1 0"/><feBlend in2="shape" mode="normal" result="effect1_innerShadow_3046_38777"/><feColorMatrix in="SourceAlpha" result="hardAlpha" type="matrix" values="0 0 0 0 0 0 0 0 0 0 0 0 0 0 0 0 0 0 127 0"/><feOffset dy="3"/><feGaussianBlur stdDeviation="1.5"/><feComposite in2="hardAlpha" k2="-1" k3="1" operator="arithmetic"/><feColorMatrix type="matrix" values="0 0 0 0 1 0 0 0 0 1 0 0 0 0 1 0 0 0 0.1 0"/><feBlend in2="effect1_innerShadow_3046_38777" mode="normal" result="effect2_innerShadow_3046_38777"/><feColorMatrix in="SourceAlpha" result="hardAlpha" type="matrix" values="0 0 0 0 0 0 0 0 0 0 0 0 0 0 0 0 0 0 127 0"/><feMorphology in="SourceAlpha" operator="erode" radius="1" result="effect3_innerShadow_3046_38777"/><feOffset/><feComposite in2="hardAlpha" k2="-1" k3="1" operator="arithmetic"/><feColorMatrix type="matrix" values="0 0 0 0 0.0627451 0 0 0 0 0.0941176 0 0 0 0 0.156863 0 0 0 0.24 0"/><feBlend in2="effect2_innerShadow_3046_38777" mode="normal" result="effect3_innerShadow_3046_38777"/></filter><filter id="b" color-interpolation-filters="sRGB" filterUnits="userSpaceOnUse" height="42" width="35.25" x="6.875" y="5.25"><feFlood flood-opacity="0" result="BackgroundImageFix"/><feColorMatrix in="SourceAlpha" result="hardAlpha" type="matrix" values="0 0 0 0 0 0 0 0 0 0 0 0 0 0 0 0 0 0 127 0"/><feMorphology in="SourceAlpha" operator="erode" radius="1.5" result="effect1_dropShadow_3046_38777"/><feOffset dy="2.25"/><feGaussianBlur stdDeviation="2.25"/><feComposite in2="hardAlpha" operator="out"/><feColorMatrix type="matrix" values="0 0 0 0 0.141176 0 0 0 0 0.141176 0 0 0 0 0.141176 0 0 0 0.1 0"/><feBlend in2="BackgroundImageFix" mode="normal" result="effect1_dropShadow_3046_38777"/><feBlend in="SourceGraphic" in2="effect1_dropShadow_3046_38777" mode="normal" result="shape"/></filter><linearGradient id="c" gradientUnits="userSpaceOnUse" x1="24" x2="26" y1=".000001" y2="48"><stop offset="0" stop-color="#fff" stop-opacity="0"/><stop offset="1" stop-color="#fff" stop-opacity=".12"/></linearGradient><linearGradient id="d"><stop offset="0" stop-color="#fff" stop-opacity=".8"/><stop offset="1" stop-color="#fff" stop-opacity=".5"/></linearGradient><linearGradient id="e" gradientUnits="userSpaceOnUse" x1="32.375" x2="32.375" xlink:href="#d" y1="9.375" y2="22.875"/><linearGradient id="f" gradientUnits="userSpaceOnUse" x1="24.5" x2="24.5" xlink:href="#d" y1="9.375" y2="38.625"/><linearGradient id="g" gradientUnits="userSpaceOnUse" x1="24" x2="24" y1="0" y2="48"><stop offset="0" stop-color="#fff" stop-opacity=".12"/><stop offset="1" stop-color="#fff" stop-opacity="0"/></linearGradient><clipPath id="h"><rect height="48" rx="12" width="48"/></clipPath><g filter="url(#a)"><g clip-path="url(#h)"><rect fill="#087443" height="48" rx="12" width="48"/><path d="m0 0h48v48h-48z" fill="url(#c)"/><g filter="url(#b)"><path d="m32.375 9.375c3.7279 0 6.75 3.0221 6.75 6.75s-3.0221 6.75-6.75 6.75h-6.75v-6.75c0-3.7279 3.0221-6.75 6.75-6.75z" fill="url(#e)" opacity=".5"/><g fill="url(#f)"><path d="m9.875 16.125c0-3.7279 3.0221-6.75 6.75-6.75s6.75 3.0221 6.75 6.75v6.75h-6.75c-3.7279 0-6.75-3.0221-6.75-6.75z"/><path d="m16.625 38.625c-3.7279 0-6.75-3.0221-6.75-6.75s3.0221-6.75 6.75-6.75h6.75v6.75c0 3.7279-3.0221 6.75-6.75 6.75z"/><path d="m39.125 31.875c0 3.7279-3.0221 6.75-6.75 6.75s-6.75-3.0221-6.75-6.75v-6.75h6.75c3.7279 0 6.75 3.0221 6.75 6.75z"/></g></g></g><rect height="46" rx="11" stroke="url(#g)" stroke-width="2" width="46" x="1" y="1"/></g><g fill="#fff"><path d="m60 14.1002h3.672v15.795h9.45v3.105h-13.122z"/><path d="m74.0611 30.1652v-10.611h3.564v9.504l.918.918h2.16l2.646-2.646v-7.776h3.564v13.446h-3.294v-2.295l-2.322 2.295h-4.401z"/><path d="m89.3382 30.2462v-7.938l2.727-2.754h7.398l2.7808 2.808v2.484h-3.5638v-1.323l-.945-.945h-3.888l-.945.945v5.508l.945.945h3.888l.945-.945v-1.323h3.5638v2.484l-2.7808 2.808h-7.398z"/><path d="m104.124 13.7222h3.564v10.773h2.349l3.429-4.941h3.942l-4.482 6.48 4.752 6.966h-3.942l-3.78-5.481h-2.268v5.481h-3.564z"/><path d="m131.411 19.5542v16.524l-2.916 2.889h-7.074l-2.511-2.484v-1.836h3.564v.81l.513.54h3.942l.918-.945v-4.05l-1.998 1.998h-4.455l-2.889-2.916v-10.53h3.564v9.477l.918.945h2.349l2.511-2.673v-7.749z"/><path d="m133.834 30.2462v-7.938l2.727-2.754h7.398l2.781 2.808v2.484h-3.564v-1.323l-.945-.945h-3.888l-.945.945v5.508l.945.945h3.888l.945-.945v-1.323h3.564v2.484l-2.781 2.808h-7.398z"/><path d="m148.62 13.7222h3.564v7.911l2.079-2.079h4.293l2.997 2.997v10.449h-3.564v-9.477l-.918-.945h-2.322l-2.565 2.592v7.83h-3.564z"/><path d="m163.706 30.5162v-3.078l2.484-2.484h6.831v-1.701l-.837-.837h-4.05l-.81.837v.756h-3.51v-1.539l2.889-2.916h6.939l2.889 2.916v10.53h-3.213v-1.917l-1.998 1.917h-5.13zm7.371-.27 1.944-1.863v-.891h-5.076l-.729.729v1.35l.675.675z"/><path d="m179.102 19.5542h3.294v2.241l2.16-2.241h3.834v3.024h-3.105l-2.619 2.7v7.722h-3.564z"/><path d="m189.609 19.5542h3.294v2.214l2.187-2.214h3.402l1.836 1.863 1.836-1.863h4.698l2.889 2.916v10.53h-3.564v-9.477l-.918-.945h-2.268l-1.431 1.431v8.991h-3.456v-9.531l-.864-.891h-1.62l-2.457 2.484v7.938h-3.564z"/></g></svg>