<svg fill="none" height="48" viewBox="0 0 141 48" width="141" xmlns="http://www.w3.org/2000/svg" xmlns:xlink="http://www.w3.org/1999/xlink"><filter id="a" color-interpolation-filters="sRGB" filterUnits="userSpaceOnUse" height="54" width="48" x="0" y="-3"><feFlood flood-opacity="0" result="BackgroundImageFix"/><feBlend in="SourceGraphic" in2="BackgroundImageFix" mode="normal" result="shape"/><feColorMatrix in="SourceAlpha" result="hardAlpha" type="matrix" values="0 0 0 0 0 0 0 0 0 0 0 0 0 0 0 0 0 0 127 0"/><feOffset dy="-3"/><feGaussianBlur stdDeviation="1.5"/><feComposite in2="hardAlpha" k2="-1" k3="1" operator="arithmetic"/><feColorMatrix type="matrix" values="0 0 0 0 0 0 0 0 0 0 0 0 0 0 0 0 0 0 0.1 0"/><feBlend in2="shape" mode="normal" result="effect1_innerShadow_3046_38773"/><feColorMatrix in="SourceAlpha" result="hardAlpha" type="matrix" values="0 0 0 0 0 0 0 0 0 0 0 0 0 0 0 0 0 0 127 0"/><feOffset dy="3"/><feGaussianBlur stdDeviation="1.5"/><feComposite in2="hardAlpha" k2="-1" k3="1" operator="arithmetic"/><feColorMatrix type="matrix" values="0 0 0 0 1 0 0 0 0 1 0 0 0 0 1 0 0 0 0.1 0"/><feBlend in2="effect1_innerShadow_3046_38773" mode="normal" result="effect2_innerShadow_3046_38773"/><feColorMatrix in="SourceAlpha" result="hardAlpha" type="matrix" values="0 0 0 0 0 0 0 0 0 0 0 0 0 0 0 0 0 0 127 0"/><feMorphology in="SourceAlpha" operator="erode" radius="1" result="effect3_innerShadow_3046_38773"/><feOffset/><feComposite in2="hardAlpha" k2="-1" k3="1" operator="arithmetic"/><feColorMatrix type="matrix" values="0 0 0 0 0.0627451 0 0 0 0 0.0941176 0 0 0 0 0.156863 0 0 0 0.24 0"/><feBlend in2="effect2_innerShadow_3046_38773" mode="normal" result="effect3_innerShadow_3046_38773"/></filter><filter id="b" color-interpolation-filters="sRGB" filterUnits="userSpaceOnUse" height="42" width="36" x="6" y="5.25"><feFlood flood-opacity="0" result="BackgroundImageFix"/><feColorMatrix in="SourceAlpha" result="hardAlpha" type="matrix" values="0 0 0 0 0 0 0 0 0 0 0 0 0 0 0 0 0 0 127 0"/><feMorphology in="SourceAlpha" operator="erode" radius="1.5" result="effect1_dropShadow_3046_38773"/><feOffset dy="2.25"/><feGaussianBlur stdDeviation="2.25"/><feComposite in2="hardAlpha" operator="out"/><feColorMatrix type="matrix" values="0 0 0 0 0.141176 0 0 0 0 0.141176 0 0 0 0 0.141176 0 0 0 0.1 0"/><feBlend in2="BackgroundImageFix" mode="normal" result="effect1_dropShadow_3046_38773"/><feBlend in="SourceGraphic" in2="effect1_dropShadow_3046_38773" mode="normal" result="shape"/></filter><linearGradient id="c" gradientUnits="userSpaceOnUse" x1="24" x2="26" y1=".000001" y2="48"><stop offset="0" stop-color="#fff" stop-opacity="0"/><stop offset="1" stop-color="#fff" stop-opacity=".12"/></linearGradient><linearGradient id="d"><stop offset="0" stop-color="#fff" stop-opacity=".8"/><stop offset="1" stop-color="#fff" stop-opacity=".5"/></linearGradient><linearGradient id="e" gradientUnits="userSpaceOnUse" x1="24.1486" x2="28.9533" xlink:href="#d" y1="11.02" y2="28.9489"/><linearGradient id="f" gradientUnits="userSpaceOnUse" x1="29.3986" x2="34.2033" xlink:href="#d" y1="16.2705" y2="34.1994"/><linearGradient id="g" gradientUnits="userSpaceOnUse" x1="24" x2="24" y1="0" y2="48"><stop offset="0" stop-color="#fff" stop-opacity=".12"/><stop offset="1" stop-color="#fff" stop-opacity="0"/></linearGradient><clipPath id="h"><rect height="48" rx="12" width="48"/></clipPath><g filter="url(#a)"><g clip-path="url(#h)"><rect fill="#6938ef" height="48" rx="12" width="48"/><path d="m0 0h48v48h-48z" fill="url(#c)"/><g filter="url(#b)"><path d="m12.7776 17.5977c.5629-2.1006 2.7222-4.2599 4.8228-4.8228l13.0963-3.50969c2.1007-.56295 3.3472.68359 2.7843 2.78419l-3.5097 13.0963c-.563 2.1007-2.7222 4.2599-4.8229 4.8229l-13.0963 3.5097c-2.10061.5629-3.34715-.6836-2.7842-2.7843z" fill="url(#e)"/><path d="m18.0276 22.8482c.5629-2.1006 2.7222-4.2599 4.8228-4.8228l13.0963-3.5097c2.1006-.5629 3.3472.6836 2.7842 2.7842l-3.5096 13.0963c-.563 2.1007-2.7222 4.2599-4.8229 4.8229l-13.0963 3.5096c-2.1006.563-3.3472-.6836-2.7842-2.7842z" fill="url(#f)"/></g></g><rect height="46" rx="11" stroke="url(#g)" stroke-width="2" width="46" x="1" y="1"/></g><g fill="#fff"><path d="m64.563 13.7759v15.147h8.802v4.077h-13.365v-19.224z"/><path d="m88.1135 32.9999h-4.239c-.216-.414-.333-.936-.351-1.566-.936 1.26-2.421 1.89-4.455 1.89-1.53 0-2.763-.378-3.699-1.134-.918-.756-1.377-1.8-1.377-3.132 0-2.592 1.818-4.041 5.454-4.347l2.187-.189c1.206-.126 1.809-.585 1.809-1.377 0-.936-.711-1.404-2.133-1.404-.864 0-1.476.135-1.836.405-.342.252-.549.729-.621 1.431h-4.185c.252-3.222 2.475-4.833 6.669-4.833 4.14 0 6.21 1.431 6.21 4.293v7.398c0 1.17.189 2.025.567 2.565zm-7.776-2.511c.954 0 1.71-.243 2.268-.729.558-.504.837-1.251.837-2.241v-1.026c-.252.27-.72.45-1.404.54l-1.728.189c-1.35.144-2.025.702-2.025 1.674 0 .486.18.873.54 1.161s.864.432 1.512.432z"/><path d="m97.11 21.1469.729-2.079h4.347l-5.292 12.987-2.484 6.237h-4.05l2.349-5.778-5.346-13.446h4.536l.648 1.809c.576 1.71 1.314 4.077 2.214 7.101.99-2.79 1.773-5.067 2.349-6.831z"/><path d="m116.046 26.4389v.837h-10.314c.144.954.495 1.683 1.053 2.187s1.269.756 2.133.756c1.368 0 2.304-.522 2.808-1.566h3.996c-.378 1.44-1.179 2.583-2.403 3.429-1.224.828-2.691 1.242-4.401 1.242-2.16 0-3.906-.666-5.238-1.998s-1.998-3.096-1.998-5.292c0-2.214.657-3.978 1.971-5.292 1.296-1.332 3.033-1.998 5.211-1.998 2.16 0 3.906.693 5.238 2.079 1.296 1.404 1.944 3.276 1.944 5.616zm-7.236-4.59c-1.728 0-2.745.918-3.051 2.754h6.156c-.144-.864-.486-1.539-1.026-2.025s-1.233-.729-2.079-.729z"/><path d="m125.55 18.8519c.072 0 .378.018.918.054v3.834h-1.08c-2.466 0-3.699 1.26-3.699 3.78v6.48h-4.212v-13.932h4.104v2.592c.648-1.872 1.971-2.808 3.969-2.808z"/><path d="m133.369 33.4049c-2.196 0-3.834-.378-4.914-1.134-1.062-.774-1.656-2.007-1.782-3.699h4.104c.072.738.306 1.26.702 1.566.414.306 1.071.459 1.971.459 1.566 0 2.349-.45 2.349-1.35 0-.432-.171-.756-.513-.972-.342-.234-.972-.423-1.89-.567l-1.809-.297c-3.132-.486-4.698-1.908-4.698-4.266 0-1.404.54-2.484 1.62-3.24 1.08-.774 2.628-1.161 4.644-1.161 4.158 0 6.318 1.593 6.48 4.779h-3.915c-.018-1.314-.873-1.971-2.565-1.971-1.422 0-2.133.441-2.133 1.323 0 .396.162.702.486.918s.837.378 1.539.486l2.079.297c1.674.252 2.907.729 3.699 1.431s1.188 1.665 1.188 2.889c0 1.44-.585 2.556-1.755 3.348-1.152.774-2.781 1.161-4.887 1.161z"/></g></svg>