<svg fill="none" height="48" viewBox="0 0 190 48" width="190" xmlns="http://www.w3.org/2000/svg" xmlns:xlink="http://www.w3.org/1999/xlink"><filter id="a" color-interpolation-filters="sRGB" filterUnits="userSpaceOnUse" height="54" width="48" x="0" y="-3"><feFlood flood-opacity="0" result="BackgroundImageFix"/><feBlend in="SourceGraphic" in2="BackgroundImageFix" mode="normal" result="shape"/><feColorMatrix in="SourceAlpha" result="hardAlpha" type="matrix" values="0 0 0 0 0 0 0 0 0 0 0 0 0 0 0 0 0 0 127 0"/><feOffset dy="-3"/><feGaussianBlur stdDeviation="1.5"/><feComposite in2="hardAlpha" k2="-1" k3="1" operator="arithmetic"/><feColorMatrix type="matrix" values="0 0 0 0 0 0 0 0 0 0 0 0 0 0 0 0 0 0 0.1 0"/><feBlend in2="shape" mode="normal" result="effect1_innerShadow_3046_38767"/><feColorMatrix in="SourceAlpha" result="hardAlpha" type="matrix" values="0 0 0 0 0 0 0 0 0 0 0 0 0 0 0 0 0 0 127 0"/><feOffset dy="3"/><feGaussianBlur stdDeviation="1.5"/><feComposite in2="hardAlpha" k2="-1" k3="1" operator="arithmetic"/><feColorMatrix type="matrix" values="0 0 0 0 1 0 0 0 0 1 0 0 0 0 1 0 0 0 0.1 0"/><feBlend in2="effect1_innerShadow_3046_38767" mode="normal" result="effect2_innerShadow_3046_38767"/><feColorMatrix in="SourceAlpha" result="hardAlpha" type="matrix" values="0 0 0 0 0 0 0 0 0 0 0 0 0 0 0 0 0 0 127 0"/><feMorphology in="SourceAlpha" operator="erode" radius="1" result="effect3_innerShadow_3046_38767"/><feOffset/><feComposite in2="hardAlpha" k2="-1" k3="1" operator="arithmetic"/><feColorMatrix type="matrix" values="0 0 0 0 0.0627451 0 0 0 0 0.0941176 0 0 0 0 0.156863 0 0 0 0.24 0"/><feBlend in2="effect2_innerShadow_3046_38767" mode="normal" result="effect3_innerShadow_3046_38767"/></filter><filter id="b" color-interpolation-filters="sRGB" filterUnits="userSpaceOnUse" height="42" width="28.5" x="9.75" y="5.25"><feFlood flood-opacity="0" result="BackgroundImageFix"/><feColorMatrix in="SourceAlpha" result="hardAlpha" type="matrix" values="0 0 0 0 0 0 0 0 0 0 0 0 0 0 0 0 0 0 127 0"/><feMorphology in="SourceAlpha" operator="erode" radius="1.5" result="effect1_dropShadow_3046_38767"/><feOffset dy="2.25"/><feGaussianBlur stdDeviation="2.25"/><feComposite in2="hardAlpha" operator="out"/><feColorMatrix type="matrix" values="0 0 0 0 0.141176 0 0 0 0 0.141176 0 0 0 0 0.141176 0 0 0 0.1 0"/><feBlend in2="BackgroundImageFix" mode="normal" result="effect1_dropShadow_3046_38767"/><feBlend in="SourceGraphic" in2="effect1_dropShadow_3046_38767" mode="normal" result="shape"/></filter><linearGradient id="c" gradientUnits="userSpaceOnUse" x1="24" x2="26" y1=".000001" y2="48"><stop offset="0" stop-color="#fff" stop-opacity="0"/><stop offset="1" stop-color="#fff" stop-opacity=".12"/></linearGradient><linearGradient id="d"><stop offset="0" stop-color="#fff" stop-opacity=".8"/><stop offset="1" stop-color="#fff" stop-opacity=".5"/></linearGradient><linearGradient id="e" gradientUnits="userSpaceOnUse" x1="24" x2="24" xlink:href="#d" y1="20.25" y2="39"/><linearGradient id="f" gradientUnits="userSpaceOnUse" x1="24" x2="24" xlink:href="#d" y1="9" y2="27.75"/><linearGradient id="g" gradientUnits="userSpaceOnUse" x1="24" x2="24" y1="0" y2="48"><stop offset="0" stop-color="#fff" stop-opacity=".12"/><stop offset="1" stop-color="#fff" stop-opacity="0"/></linearGradient><clipPath id="h"><rect height="48" rx="12" width="48"/></clipPath><g filter="url(#a)"><g clip-path="url(#h)"><rect fill="#1570ef" height="48" rx="12" width="48"/><path d="m0 0h48v48h-48z" fill="url(#c)"/><g filter="url(#b)"><path d="m12.75 36.9167c0 1.1506.9327 2.0833 2.0833 2.0833h18.3334c1.1506 0 2.0833-.9327 2.0833-2.0833v-5.4167c0-6.2132-5.0368-11.25-11.25-11.25s-11.25 5.0368-11.25 11.25z" fill="url(#e)" opacity=".7"/><path d="m12.75 11.0833c0-1.15056.9327-2.0833 2.0833-2.0833h18.3334c1.1506 0 2.0833.93274 2.0833 2.0833v5.4167c0 6.2132-5.0368 11.25-11.25 11.25s-11.25-5.0368-11.25-11.25z" fill="url(#f)"/></g></g><rect height="46" rx="11" stroke="url(#g)" stroke-width="2" width="46" x="1" y="1"/></g><g fill="#fff"><path d="m60 13.4h3.864v8.092h9.128v-8.092h3.864v19.6h-3.864v-8.148h-9.128v8.148h-3.864z"/><path d="m85.0484 33.224c-1.176 0-2.2213-.224-3.136-.672-.896-.4666-1.596-1.12-2.1-1.96-.4853-.84-.728-1.8106-.728-2.912v-3.276c0-1.1013.252-2.072.756-2.912.504-.8586 1.204-1.5213 2.1-1.988.9147-.4666 1.96-.7 3.136-.7h2.52c1.176 0 2.212.2334 3.108.7.9147.4667 1.624 1.1294 2.128 1.988.504.84.756 1.8107.756 2.912v3.276c0 1.1014-.252 2.072-.756 2.912s-1.2133 1.4934-2.128 1.96c-.896.448-1.9413.672-3.136.672zm2.464-3.276c.6907 0 1.2413-.2333 1.652-.7.4107-.4853.616-1.1106.616-1.876v-2.716c0-.7653-.2053-1.3813-.616-1.848-.4107-.4853-.952-.728-1.624-.728h-2.408c-.672 0-1.2133.2427-1.624.728-.4107.4667-.616 1.0827-.616 1.848v2.716c0 .7654.2053 1.3907.616 1.876.4107.4667.9427.7 1.596.7z"/><path d="m100.441 33.224c-1.4743 0-2.6596-.4946-3.5556-1.484-.896-1.008-1.344-2.324-1.344-3.948v-8.764h3.808v8.82c0 .616.1493 1.12.448 1.512.3176.3734.7276.56 1.2316.56h1.624c.616 0 1.176-.252 1.68-.756.504-.5226.859-1.204 1.064-2.044v-8.092h3.808v13.972h-3.528v-1.792c-.429.5974-.961 1.0827-1.596 1.456-.616.3734-1.213.56-1.792.56z"/><path d="m111.884 19.028h3.528v1.792c.354-.5413.858-.98 1.512-1.316.672-.3546 1.372-.532 2.1-.532h1.904v3.304h-1.904c-.99 0-1.792.2987-2.408.896-.616.5974-.924 1.3627-.924 2.296v7.532h-3.808z"/><path d="m127.037 38.684c-1.493 0-2.735-.4293-3.724-1.288-.989-.84-1.54-1.9506-1.652-3.332h3.752c.037.4107.205.7374.504.98.299.2614.672.392 1.12.392h2.52c.579 0 1.045-.2426 1.4-.728.373-.4666.56-1.0826.56-1.848v-1.316c-.373.4107-.831.7374-1.372.98-.523.2427-1.027.364-1.512.364h-1.932c-1.699 0-3.071-.504-4.116-1.512-1.027-1.008-1.54-2.3333-1.54-3.976v-2.856c0-1.1386.243-2.1373.728-2.996.485-.8773 1.167-1.5493 2.044-2.016.877-.4853 1.885-.728 3.024-.728h1.624c.635 0 1.251.1494 1.848.448.616.2987 1.111.6907 1.484 1.176v-1.4h3.528v13.832c0 1.1574-.243 2.1747-.728 3.052-.467.8774-1.139 1.5587-2.016 2.044-.877.4854-1.885.728-3.024.728zm1.848-9.016c.709 0 1.307-.2893 1.792-.868.485-.5973.765-1.372.84-2.324v-1.932c-.075-.7466-.327-1.344-.756-1.792s-.971-.672-1.624-.672h-1.96c-.691 0-1.251.252-1.68.756s-.644 1.1667-.644 1.988v2.296c0 .7654.196 1.3814.588 1.848.392.4667.896.7 1.512.7z"/><path d="m142.841 33c-1.661 0-2.884-.3453-3.667-1.036-.766-.7093-1.149-1.8013-1.149-3.276v-15.288h3.808v15.064c0 .448.103.7747.308.98.206.2054.533.308.98.308h1.512v3.248z"/><path d="m150.175 33.224c-1.456 0-2.632-.364-3.528-1.092s-1.344-1.6893-1.344-2.884v-1.036c0-1.176.466-2.1186 1.4-2.828.933-.728 2.165-1.092 3.696-1.092h1.708c.485 0 1.008.0654 1.568.196.56.1307 1.073.308 1.54.532v-1.456c0-.4666-.159-.84-.476-1.12-.299-.2986-.7-.448-1.204-.448h-2.408c-.523 0-.943.1214-1.26.364-.318.2427-.476.5694-.476.98h-3.696c0-1.3626.494-2.4546 1.484-3.276 1.008-.84 2.324-1.26 3.948-1.26h2.408c1.642 0 2.968.4387 3.976 1.316 1.008.8587 1.512 2.0067 1.512 3.444v9.436h-3.528v-1.68c-.448.5787-.999 1.0454-1.652 1.4-.654.336-1.298.504-1.932.504zm2.016-2.912c.69 0 1.306-.1773 1.848-.532.541-.3546.933-.8306 1.176-1.428v-.476c-.299-.224-.719-.4013-1.26-.532-.523-.1306-1.083-.196-1.68-.196h-1.764c-.448 0-.812.112-1.092.336s-.42.5227-.42.896v.728c0 .3547.149.644.448.868.317.224.728.336 1.232.336z"/><path d="m166.498 33.224c-1.698 0-3.061-.448-4.088-1.344-1.026-.896-1.54-2.072-1.54-3.528h3.752c0 .504.168.9147.504 1.232.355.2987.812.448 1.372.448h2.52c1.12 0 1.68-.308 1.68-.924v-.476c0-.1866-.093-.3546-.28-.504-.186-.168-.438-.28-.756-.336l-4.844-.84c-1.138-.1866-2.044-.588-2.716-1.204-.653-.6346-.98-1.372-.98-2.212v-.924c0-1.1946.486-2.128 1.456-2.8.99-.672 2.362-1.008 4.116-1.008h2.184c1.568 0 2.828.42 3.78 1.26.971.8214 1.456 1.9134 1.456 3.276h-3.752c0-.4106-.14-.7373-.42-.98-.261-.2426-.616-.364-1.064-.364h-2.128c-1.213 0-1.82.28-1.82.84v.448c0 .2054.075.3827.224.532.168.1307.402.224.7.28l5.096.924c1.064.1867 1.923.588 2.576 1.204.654.5974.98 1.2787.98 2.044v1.008c0 1.2134-.504 2.1747-1.512 2.884-.989.7094-2.314 1.064-3.976 1.064z"/><path d="m181.305 33.224c-1.698 0-3.061-.448-4.088-1.344-1.026-.896-1.54-2.072-1.54-3.528h3.752c0 .504.168.9147.504 1.232.355.2987.812.448 1.372.448h2.52c1.12 0 1.68-.308 1.68-.924v-.476c0-.1866-.093-.3546-.28-.504-.186-.168-.438-.28-.756-.336l-4.844-.84c-1.138-.1866-2.044-.588-2.716-1.204-.653-.6346-.98-1.372-.98-2.212v-.924c0-1.1946.486-2.128 1.456-2.8.99-.672 2.362-1.008 4.116-1.008h2.184c1.568 0 2.828.42 3.78 1.26.971.8214 1.456 1.9134 1.456 3.276h-3.752c0-.4106-.14-.7373-.42-.98-.261-.2426-.616-.364-1.064-.364h-2.128c-1.213 0-1.82.28-1.82.84v.448c0 .2054.075.3827.224.532.168.1307.402.224.7.28l5.096.924c1.064.1867 1.923.588 2.576 1.204.654.5974.98 1.2787.98 2.044v1.008c0 1.2134-.504 2.1747-1.512 2.884-.989.7094-2.314 1.064-3.976 1.064z"/></g></svg>