<svg fill="none" height="48" viewBox="0 0 48 48" width="48" xmlns="http://www.w3.org/2000/svg" xmlns:xlink="http://www.w3.org/1999/xlink"><filter id="a" color-interpolation-filters="sRGB" filterUnits="userSpaceOnUse" height="54" width="48" x="0" y="-3"><feFlood flood-opacity="0" result="BackgroundImageFix"/><feBlend in="SourceGraphic" in2="BackgroundImageFix" mode="normal" result="shape"/><feColorMatrix in="SourceAlpha" result="hardAlpha" type="matrix" values="0 0 0 0 0 0 0 0 0 0 0 0 0 0 0 0 0 0 127 0"/><feOffset dy="-3"/><feGaussianBlur stdDeviation="1.5"/><feComposite in2="hardAlpha" k2="-1" k3="1" operator="arithmetic"/><feColorMatrix type="matrix" values="0 0 0 0 0 0 0 0 0 0 0 0 0 0 0 0 0 0 0.1 0"/><feBlend in2="shape" mode="normal" result="effect1_innerShadow_3051_47001"/><feColorMatrix in="SourceAlpha" result="hardAlpha" type="matrix" values="0 0 0 0 0 0 0 0 0 0 0 0 0 0 0 0 0 0 127 0"/><feOffset dy="3"/><feGaussianBlur stdDeviation="1.5"/><feComposite in2="hardAlpha" k2="-1" k3="1" operator="arithmetic"/><feColorMatrix type="matrix" values="0 0 0 0 1 0 0 0 0 1 0 0 0 0 1 0 0 0 0.1 0"/><feBlend in2="effect1_innerShadow_3051_47001" mode="normal" result="effect2_innerShadow_3051_47001"/><feColorMatrix in="SourceAlpha" result="hardAlpha" type="matrix" values="0 0 0 0 0 0 0 0 0 0 0 0 0 0 0 0 0 0 127 0"/><feMorphology in="SourceAlpha" operator="erode" radius="1" result="effect3_innerShadow_3051_47001"/><feOffset/><feComposite in2="hardAlpha" k2="-1" k3="1" operator="arithmetic"/><feColorMatrix type="matrix" values="0 0 0 0 0.0627451 0 0 0 0 0.0941176 0 0 0 0 0.156863 0 0 0 0.24 0"/><feBlend in2="effect2_innerShadow_3051_47001" mode="normal" result="effect3_innerShadow_3051_47001"/></filter><filter id="b" color-interpolation-filters="sRGB" filterUnits="userSpaceOnUse" height="42" width="36" x="6" y="5.25"><feFlood flood-opacity="0" result="BackgroundImageFix"/><feColorMatrix in="SourceAlpha" result="hardAlpha" type="matrix" values="0 0 0 0 0 0 0 0 0 0 0 0 0 0 0 0 0 0 127 0"/><feMorphology in="SourceAlpha" operator="erode" radius="1.5" result="effect1_dropShadow_3051_47001"/><feOffset dy="2.25"/><feGaussianBlur stdDeviation="2.25"/><feComposite in2="hardAlpha" operator="out"/><feColorMatrix type="matrix" values="0 0 0 0 0.141176 0 0 0 0 0.141176 0 0 0 0 0.141176 0 0 0 0.1 0"/><feBlend in2="BackgroundImageFix" mode="normal" result="effect1_dropShadow_3051_47001"/><feBlend in="SourceGraphic" in2="effect1_dropShadow_3051_47001" mode="normal" result="shape"/></filter><linearGradient id="c" gradientUnits="userSpaceOnUse" x1="24" x2="26" y1=".000001" y2="48"><stop offset="0" stop-color="#fff" stop-opacity="0"/><stop offset="1" stop-color="#fff" stop-opacity=".12"/></linearGradient><linearGradient id="d"><stop offset="0" stop-color="#fff" stop-opacity=".8"/><stop offset="1" stop-color="#fff" stop-opacity=".5"/></linearGradient><linearGradient id="e" gradientUnits="userSpaceOnUse" x1="16.5" x2="16.5" xlink:href="#d" y1="9" y2="24"/><linearGradient id="f" gradientUnits="userSpaceOnUse" x1="24" x2="24" xlink:href="#d" y1="24" y2="39"/><linearGradient id="g" gradientUnits="userSpaceOnUse" x1="23.9993" x2="23.9993" xlink:href="#d" y1="19.2271" y2="23.9998"/><linearGradient id="h" gradientUnits="userSpaceOnUse" x1="23.9993" x2="23.9993" xlink:href="#d" y1="28.7729" y2="24.0002"/><linearGradient id="i" gradientUnits="userSpaceOnUse" x1="24" x2="24" y1="0" y2="48"><stop offset="0" stop-color="#fff" stop-opacity=".12"/><stop offset="1" stop-color="#fff" stop-opacity="0"/></linearGradient><clipPath id="j"><rect height="48" rx="12" width="48"/></clipPath><g filter="url(#a)"><g clip-path="url(#j)"><rect fill="#155eef" height="48" rx="12" width="48"/><path d="m0 0h48v48h-48z" fill="url(#c)"/><g filter="url(#b)"><path d="m18.2597 10.1418c1.8199-.75377 3.7705-1.1418 5.7403-1.1418v7.5c-.9849 0-1.9602.194-2.8701.5709-.91.3769-1.7368.9294-2.4332 1.6258s-1.2489 1.5232-1.6258 2.4332c-.3769.9099-.5709 1.8852-.5709 2.8701h-7.5c0-1.9698.38803-3.9204 1.1418-5.7403.7539-1.8199 1.8587-3.4734 3.2516-4.8663s3.0464-2.4977 4.8663-3.2516z" fill="url(#e)"/><path d="m9 24c0 1.9698.38803 3.9204 1.1418 5.7403.7539 1.8199 1.8587 3.4734 3.2516 4.8663s3.0464 2.4977 4.8663 3.2516c1.8199.7538 3.7705 1.1418 5.7403 1.1418s3.9204-.388 5.7403-1.1418c1.8199-.7539 3.4734-1.8587 4.8663-3.2516s2.4977-3.0464 3.2516-4.8663c.7538-1.8199 1.1418-3.7705 1.1418-5.7403h-7.5c0 .9849-.194 1.9602-.5709 2.8701-.3769.91-.9294 1.7368-1.6258 2.4332s-1.5232 1.2489-2.4332 1.6258c-.9099.3769-1.8852.5709-2.8701.5709s-1.9602-.194-2.8701-.5709c-.91-.3769-1.7368-.9294-2.4332-1.6258s-1.2489-1.5232-1.6258-2.4332c-.3769-.9099-.5709-1.8852-.5709-2.8701z" fill="url(#f)" opacity=".5"/><path d="m23.9993 19.2271c-2.6359 0-4.7727 2.1368-4.7727 4.7727h9.5454c0-2.6359-2.1368-4.7727-4.7727-4.7727z" fill="url(#g)" opacity=".5"/><path d="m23.9993 28.7729c-2.6359 0-4.7727-2.1368-4.7727-4.7727h9.5454c0 2.6359-2.1368 4.7727-4.7727 4.7727z" fill="url(#h)"/></g></g><rect height="46" rx="11" stroke="url(#i)" stroke-width="2" width="46" x="1" y="1"/></g></svg>