<svg fill="none" height="48" viewBox="0 0 157 48" width="157" xmlns="http://www.w3.org/2000/svg"><g fill="#099250"><path d="m17.5 16.5c0 1.3807 1.1193 2.5 2.5 2.5s2.5-1.1193 2.5-2.5v-10c0-1.38071-1.1193-2.5-2.5-2.5s-2.5 1.11929-2.5 2.5z"/><path d="m17.5 41.5c0 1.3807 1.1193 2.5 2.5 2.5s2.5-1.1193 2.5-2.5v-10c0-1.3807-1.1193-2.5-2.5-2.5s-2.5 1.1193-2.5 2.5z"/><path d="m23.5362 20.4645c-.9763-.9764-.9763-2.5593 0-3.5356l7.071-7.07105c.9763-.97631 2.5593-.97631 3.5356.00001.9763.97634.9763 2.55924 0 3.53554l-7.0711 7.0711c-.9763.9763-2.5592.9763-3.5355 0z"/><path d="m5.8585 34.6066c-.97631.9763-.97631 2.5592 0 3.5355s2.55922.9763 3.53553 0l7.07107-7.071c.9763-.9764.9763-2.5593 0-3.5356s-2.5592-.9763-3.5355 0z"/><path d="m23.5358 27.5356c.9763-.9764 2.5592-.9764 3.5355 0l7.0711 7.071c.9763.9763.9763 2.5592 0 3.5356-.9763.9763-2.5592.9763-3.5355 0l-7.0711-7.0711c-.9763-.9763-.9763-2.5592 0-3.5355z"/><path d="m9.39365 9.85789c-.97631-.97631-2.55922-.97631-3.53553 0s-.97631 2.55921 0 3.53551l7.07108 7.0711c.9763.9763 2.5592.9763 3.5355 0s.9763-2.5592 0-3.5355z"/><path d="m25 24c0-1.3807 1.1193-2.5 2.5-2.5h10c1.3807 0 2.5 1.1193 2.5 2.5s-1.1193 2.5-2.5 2.5h-10c-1.3807 0-2.5-1.1193-2.5-2.5z"/><path d="m2.5 21.5c-1.38071 0-2.5 1.1193-2.5 2.5s1.11929 2.5 2.5 2.5h10c1.3807 0 2.5-1.1193 2.5-2.5s-1.1193-2.5-2.5-2.5z"/></g><path d="m50 33.0001v-18.36h13.176v3.429h-8.856v3.861h7.803v3.348h-7.803v4.293h8.856v3.429z" fill="#0a0d12"/><path d="m73.9737 26.8171v-8.343h4.131v14.526h-4.131v-1.944c-.945 1.62-2.376 2.376-4.131 2.376-2.754 0-4.779-1.674-4.779-5.292v-9.666h4.131v8.829c0 1.863.702 2.781 2.16 2.781 1.593 0 2.619-1.404 2.619-3.267z" fill="#0a0d12"/><path d="m84.5014 38.9671h-4.131v-20.493h4.131v1.512c.891-1.269 2.133-1.971 3.645-1.971 3.753 0 6.102 2.943 6.102 7.695 0 4.941-2.403 7.722-6.102 7.722-1.539 0-2.781-.648-3.645-1.89zm2.781-17.604c-1.836 0-2.781 1.539-2.781 4.347s.972 4.374 2.781 4.374c1.782 0 2.727-1.539 2.727-4.374 0-2.808-.972-4.347-2.727-4.347z" fill="#0a0d12"/><path d="m95.888 33.0001v-19.44h4.131v6.831c.945-1.62 2.43-2.376 4.212-2.376 2.781 0 4.86 1.701 4.86 5.292v9.693h-4.131v-8.856c0-1.836-.729-2.781-2.241-2.781-1.647 0-2.7 1.431-2.7 3.294v8.343z" fill="#0a0d12"/><path d="m117.86 33.4321c-4.401 0-7.128-2.916-7.128-7.695 0-4.941 2.808-7.722 7.128-7.722 4.401 0 7.155 2.97 7.155 7.722 0 4.914-2.835 7.695-7.155 7.695zm0-3.348c1.917 0 2.916-1.512 2.916-4.347 0-2.808-1.026-4.374-2.916-4.374s-2.889 1.539-2.889 4.374c0 2.808 1.026 4.347 2.889 4.347z" fill="#0a0d12"/><path d="m126.66 33.0001v-14.526h4.131v2.025c.918-1.728 2.322-2.484 3.807-2.484.594 0 1.134.162 1.431.459v3.483c-.486-.108-.999-.162-1.647-.162-2.484 0-3.591 1.404-3.591 3.699v7.506z" fill="#0a0d12"/><path d="m137.141 17.0161v-3.456h4.131v3.456zm0 15.984v-14.526h4.131v14.526z" fill="#0a0d12"/><path d="m147.559 23.2801h-4.131c.432-3.267 2.943-5.265 6.669-5.265 4.158 0 6.318 2.43 6.318 5.805v5.562c0 1.89.162 2.862.405 3.618h-4.266c-.135-.486-.216-1.107-.243-1.809-1.134 1.566-2.862 2.241-4.59 2.241-2.754 0-4.806-1.404-4.806-4.185 0-1.971 1.134-3.483 3.429-4.293 1.89-.621 3.699-.81 5.94-.837v-.324c0-1.593-.783-2.43-2.376-2.43-1.404 0-2.16.783-2.349 1.917zm-.513 5.697c0 .972.729 1.593 1.944 1.593 1.836 0 3.294-1.485 3.294-3.483v-.567c-4.185.081-5.238 1.107-5.238 2.457z" fill="#0a0d12"/></svg>