<svg fill="none" height="48" viewBox="0 0 203 48" width="203" xmlns="http://www.w3.org/2000/svg" xmlns:xlink="http://www.w3.org/1999/xlink"><filter id="a" color-interpolation-filters="sRGB" filterUnits="userSpaceOnUse" height="54" width="48" x="0" y="-3"><feFlood flood-opacity="0" result="BackgroundImageFix"/><feBlend in="SourceGraphic" in2="BackgroundImageFix" mode="normal" result="shape"/><feColorMatrix in="SourceAlpha" result="hardAlpha" type="matrix" values="0 0 0 0 0 0 0 0 0 0 0 0 0 0 0 0 0 0 127 0"/><feOffset dy="-3"/><feGaussianBlur stdDeviation="1.5"/><feComposite in2="hardAlpha" k2="-1" k3="1" operator="arithmetic"/><feColorMatrix type="matrix" values="0 0 0 0 0 0 0 0 0 0 0 0 0 0 0 0 0 0 0.1 0"/><feBlend in2="shape" mode="normal" result="effect1_innerShadow_3046_38763"/><feColorMatrix in="SourceAlpha" result="hardAlpha" type="matrix" values="0 0 0 0 0 0 0 0 0 0 0 0 0 0 0 0 0 0 127 0"/><feOffset dy="3"/><feGaussianBlur stdDeviation="1.5"/><feComposite in2="hardAlpha" k2="-1" k3="1" operator="arithmetic"/><feColorMatrix type="matrix" values="0 0 0 0 1 0 0 0 0 1 0 0 0 0 1 0 0 0 0.1 0"/><feBlend in2="effect1_innerShadow_3046_38763" mode="normal" result="effect2_innerShadow_3046_38763"/><feColorMatrix in="SourceAlpha" result="hardAlpha" type="matrix" values="0 0 0 0 0 0 0 0 0 0 0 0 0 0 0 0 0 0 127 0"/><feMorphology in="SourceAlpha" operator="erode" radius="1" result="effect3_innerShadow_3046_38763"/><feOffset/><feComposite in2="hardAlpha" k2="-1" k3="1" operator="arithmetic"/><feColorMatrix type="matrix" values="0 0 0 0 0.0627451 0 0 0 0 0.0941176 0 0 0 0 0.156863 0 0 0 0.24 0"/><feBlend in2="effect2_innerShadow_3046_38763" mode="normal" result="effect3_innerShadow_3046_38763"/></filter><filter id="b" color-interpolation-filters="sRGB" filterUnits="userSpaceOnUse" height="42" width="36" x="6" y="5.25"><feFlood flood-opacity="0" result="BackgroundImageFix"/><feColorMatrix in="SourceAlpha" result="hardAlpha" type="matrix" values="0 0 0 0 0 0 0 0 0 0 0 0 0 0 0 0 0 0 127 0"/><feMorphology in="SourceAlpha" operator="erode" radius="1.5" result="effect1_dropShadow_3046_38763"/><feOffset dy="2.25"/><feGaussianBlur stdDeviation="2.25"/><feComposite in2="hardAlpha" operator="out"/><feColorMatrix type="matrix" values="0 0 0 0 0.141176 0 0 0 0 0.141176 0 0 0 0 0.141176 0 0 0 0.1 0"/><feBlend in2="BackgroundImageFix" mode="normal" result="effect1_dropShadow_3046_38763"/><feBlend in="SourceGraphic" in2="effect1_dropShadow_3046_38763" mode="normal" result="shape"/></filter><linearGradient id="c" gradientUnits="userSpaceOnUse" x1="24" x2="26" y1=".000001" y2="48"><stop offset="0" stop-color="#fff" stop-opacity="0"/><stop offset="1" stop-color="#fff" stop-opacity=".12"/></linearGradient><linearGradient id="d" gradientUnits="userSpaceOnUse" x1="24" x2="24" y1="9" y2="39"><stop offset="0" stop-color="#fff" stop-opacity=".8"/><stop offset="1" stop-color="#fff" stop-opacity=".5"/></linearGradient><linearGradient id="e" gradientUnits="userSpaceOnUse" x1="24" x2="24" y1="0" y2="48"><stop offset="0" stop-color="#fff" stop-opacity=".12"/><stop offset="1" stop-color="#fff" stop-opacity="0"/></linearGradient><clipPath id="f"><rect height="48" rx="12" width="48"/></clipPath><g filter="url(#a)"><g clip-path="url(#f)"><rect fill="#444ce7" height="48" rx="12" width="48"/><path d="m0 0h48v48h-48z" fill="url(#c)"/><g filter="url(#b)"><path d="m29.747 9h-11.494l-9.253 9.253v11.494l9.253 9.253h11.494l9.253-9.253v-11.494zm-9.9036 20.8916-5.9277-5.9278 5.9277-5.9277c2.2409-2.2409 5.9277-2.2409 8.1687 0l5.9277 5.9277-5.9277 5.9278c-2.241 2.2409-5.8555 2.2409-8.1687 0z" fill="url(#d)"/></g></g><rect height="46" rx="11" stroke="url(#e)" stroke-width="2" width="46" x="1" y="1"/></g><g fill="#fff"><path clip-rule="evenodd" d="m108.342 31.405c.812 1.131 2.32 1.827 4.002 1.827 4.321 0 6.902-2.987 6.902-7.54s-2.581-7.54-6.844-7.54c-1.827 0-3.248.696-4.06 1.769v-7.888h-4.031v20.967h4.031zm6.931-5.713c0 2.436-1.45 4.06-3.567 4.06-2.175 0-3.596-1.624-3.596-4.06 0-2.465 1.421-4.089 3.596-4.089 2.117 0 3.567 1.624 3.567 4.089z" fill-rule="evenodd"/><path clip-rule="evenodd" d="m126.283 18.152c3.683 0 6.38 2.146 6.38 5.452v9.396h-4.002v-2.03c-.493 1.363-2.117 2.262-4.118 2.262-2.842 0-4.785-1.885-4.785-4.379 0-2.871 2.146-4.611 5.336-4.611h2.465c.725 0 1.102-.464 1.102-1.073 0-1.218-.957-2.059-2.61-2.059-1.769 0-2.668 1.102-2.726 2.32h-3.596c.174-2.929 2.552-5.278 6.554-5.278zm-.725 12.151c1.972 0 3.103-1.45 3.103-3.306v-.203h-2.958c-1.218 0-2.088.754-2.088 1.885 0 .957.812 1.624 1.943 1.624z" fill-rule="evenodd"/><path d="m134.502 12.033v20.967h4.031v-20.967z"/><path clip-rule="evenodd" d="m140.965 12.7h8.062c3.683 0 6.438 1.827 6.438 5.22 0 1.914-1.189 3.364-2.378 4.002 1.856.725 3.422 2.349 3.422 5.017 0 3.857-2.958 6.061-7.25 6.061h-8.294zm4.292 7.743h3.451c1.856 0 2.726-.783 2.726-2.146s-.87-2.146-2.813-2.146h-3.364zm0 8.787h3.625c2.407 0 3.48-.87 3.48-2.523s-1.073-2.581-3.48-2.581h-3.625z" fill-rule="evenodd"/><path clip-rule="evenodd" d="m170.191 23.604c0-3.306-2.697-5.452-6.38-5.452-4.002 0-6.38 2.349-6.554 5.278h3.596c.058-1.218.957-2.32 2.726-2.32 1.653 0 2.61.841 2.61 2.059 0 .609-.377 1.073-1.102 1.073h-2.465c-3.19 0-5.336 1.74-5.336 4.611 0 2.494 1.943 4.379 4.785 4.379 2.001 0 3.625-.899 4.118-2.262v2.03h4.002zm-4.002 3.393c0 1.856-1.131 3.306-3.103 3.306-1.131 0-1.943-.667-1.943-1.624 0-1.131.87-1.885 2.088-1.885h2.958z" fill-rule="evenodd"/><path d="m171.798 33v-14.37h4.06v1.784c.812-1.421 2.436-2.262 4.437-2.262 3.306 0 5.452 2.378 5.452 5.742v9.106h-4.06v-8.207c0-1.769-1.131-3.045-2.813-3.045-1.769 0-3.016 1.363-3.016 3.248v8.004z"/><path d="m193.461 26.823 4.147 6.177h4.872l-6.293-8.874 5.58-5.496h-5.105l-4.825 4.742v-11.339h-4.06v20.967h4.06v-4.582z"/><path clip-rule="evenodd" d="m102.31 22.5652-4.6446-4.6452h-5.7898l-4.6451 4.6452v5.7897l4.6451 4.6451h5.7898l4.6446-4.6451zm-12.2021 2.8771 2.7638 2.7638c1.0585 1.0243 2.7059 1.0209 3.7256.0011l2.7649-2.7649-2.7649-2.7649c-1.0212-1.0212-2.7032-1.0212-3.7245 0z" fill-rule="evenodd"/><path d="m81.2017 12.033v20.967h4.031v-20.967z"/><path d="m60 22.85c0 6.931 4.785 10.382 9.976 10.382 2.61 0 4.756-1.334 5.423-3.335v3.103h3.857v-7.83c0-.7918-.2789-1.5313-.756-2.1067-.5889-.7102-1.4797-1.1703-2.521-1.1703h-5.51v3.277h3.915c.493 0 .812.319.812.812 0 1.885-2.494 3.712-5.017 3.712-3.364 0-6.032-2.639-6.032-6.844s2.668-6.641 6.119-6.641c2.61 0 4.408 1.421 4.727 3.596h4.321c-.261-4.35-3.915-7.337-9.019-7.337-5.365 0-10.295 3.451-10.295 10.382z"/></g></svg>