<svg fill="none" height="48" viewBox="0 0 167 48" width="167" xmlns="http://www.w3.org/2000/svg" xmlns:xlink="http://www.w3.org/1999/xlink"><filter id="a" color-interpolation-filters="sRGB" filterUnits="userSpaceOnUse" height="54" width="48" x="0" y="-3"><feFlood flood-opacity="0" result="BackgroundImageFix"/><feBlend in="SourceGraphic" in2="BackgroundImageFix" mode="normal" result="shape"/><feColorMatrix in="SourceAlpha" result="hardAlpha" type="matrix" values="0 0 0 0 0 0 0 0 0 0 0 0 0 0 0 0 0 0 127 0"/><feOffset dy="-3"/><feGaussianBlur stdDeviation="1.5"/><feComposite in2="hardAlpha" k2="-1" k3="1" operator="arithmetic"/><feColorMatrix type="matrix" values="0 0 0 0 0 0 0 0 0 0 0 0 0 0 0 0 0 0 0.1 0"/><feBlend in2="shape" mode="normal" result="effect1_innerShadow_3046_38754"/><feColorMatrix in="SourceAlpha" result="hardAlpha" type="matrix" values="0 0 0 0 0 0 0 0 0 0 0 0 0 0 0 0 0 0 127 0"/><feOffset dy="3"/><feGaussianBlur stdDeviation="1.5"/><feComposite in2="hardAlpha" k2="-1" k3="1" operator="arithmetic"/><feColorMatrix type="matrix" values="0 0 0 0 1 0 0 0 0 1 0 0 0 0 1 0 0 0 0.1 0"/><feBlend in2="effect1_innerShadow_3046_38754" mode="normal" result="effect2_innerShadow_3046_38754"/><feColorMatrix in="SourceAlpha" result="hardAlpha" type="matrix" values="0 0 0 0 0 0 0 0 0 0 0 0 0 0 0 0 0 0 127 0"/><feMorphology in="SourceAlpha" operator="erode" radius="1" result="effect3_innerShadow_3046_38754"/><feOffset/><feComposite in2="hardAlpha" k2="-1" k3="1" operator="arithmetic"/><feColorMatrix type="matrix" values="0 0 0 0 0.0627451 0 0 0 0 0.0941176 0 0 0 0 0.156863 0 0 0 0.24 0"/><feBlend in2="effect2_innerShadow_3046_38754" mode="normal" result="effect3_innerShadow_3046_38754"/></filter><filter id="b" color-interpolation-filters="sRGB" filterUnits="userSpaceOnUse" height="42" width="36" x="6" y="5.25"><feFlood flood-opacity="0" result="BackgroundImageFix"/><feColorMatrix in="SourceAlpha" result="hardAlpha" type="matrix" values="0 0 0 0 0 0 0 0 0 0 0 0 0 0 0 0 0 0 127 0"/><feMorphology in="SourceAlpha" operator="erode" radius="1.5" result="effect1_dropShadow_3046_38754"/><feOffset dy="2.25"/><feGaussianBlur stdDeviation="2.25"/><feComposite in2="hardAlpha" operator="out"/><feColorMatrix type="matrix" values="0 0 0 0 0.141176 0 0 0 0 0.141176 0 0 0 0 0.141176 0 0 0 0.1 0"/><feBlend in2="BackgroundImageFix" mode="normal" result="effect1_dropShadow_3046_38754"/><feBlend in="SourceGraphic" in2="effect1_dropShadow_3046_38754" mode="normal" result="shape"/></filter><linearGradient id="c" gradientUnits="userSpaceOnUse" x1="24" x2="26" y1=".000001" y2="48"><stop offset="0" stop-color="#fff" stop-opacity="0"/><stop offset="1" stop-color="#fff" stop-opacity=".12"/></linearGradient><linearGradient id="d" gradientUnits="userSpaceOnUse" x1="24" x2="24" y1="9" y2="39"><stop offset="0" stop-color="#fff" stop-opacity=".8"/><stop offset="1" stop-color="#fff" stop-opacity=".5"/></linearGradient><linearGradient id="e" gradientUnits="userSpaceOnUse" x1="24" x2="24" y1="0" y2="48"><stop offset="0" stop-color="#fff" stop-opacity=".12"/><stop offset="1" stop-color="#fff" stop-opacity="0"/></linearGradient><clipPath id="f"><rect height="48" rx="12" width="48"/></clipPath><g filter="url(#a)"><g clip-path="url(#f)"><rect fill="#099250" height="48" rx="12" width="48"/><path d="m0 0h48v48h-48z" fill="url(#c)"/><g fill="url(#d)" filter="url(#b)"><path d="m22.125 18.375c0 1.0355.8395 1.875 1.875 1.875s1.875-.8395 1.875-1.875v-7.5c0-1.03553-.8395-1.875-1.875-1.875s-1.875.83947-1.875 1.875z"/><path d="m22.125 37.125c0 1.0355.8395 1.875 1.875 1.875s1.875-.8395 1.875-1.875v-7.5c0-1.0355-.8395-1.875-1.875-1.875s-1.875.8395-1.875 1.875z"/><path d="m26.6521 21.3483c-.7322-.7322-.7322-1.9194 0-2.6516l5.3033-5.3033c.7323-.7322 1.9194-.7322 2.6517 0 .7322.7322.7322 1.9194 0 2.6516l-5.3033 5.3033c-.7323.7323-1.9194.7323-2.6517 0z"/><path d="m13.3939 31.9549c-.7323.7323-.7323 1.9195 0 2.6517.7322.7322 1.9194.7322 2.6516 0l5.3033-5.3033c.7323-.7322.7323-1.9194 0-2.6517-.7322-.7322-1.9194-.7322-2.6516 0z"/><path d="m26.6518 26.6517c.7323-.7323 1.9195-.7323 2.6517 0l5.3033 5.3033c.7322.7322.7322 1.9194 0 2.6516-.7322.7323-1.9194.7322-2.6517 0l-5.3033-5.3033c-.7322-.7322-.7322-1.9194 0-2.6516z"/><path d="m16.0452 13.3934c-.7322-.7322-1.9194-.7322-2.6516 0s-.7322 1.9194 0 2.6517l5.3033 5.3033c.7322.7322 1.9194.7322 2.6516 0 .7323-.7323.7323-1.9195 0-2.6517z"/><path d="m27.75 24c0-1.0355.8395-1.875 1.875-1.875h7.5c1.0355 0 1.875.8395 1.875 1.875s-.8395 1.875-1.875 1.875h-7.5c-1.0355 0-1.875-.8395-1.875-1.875z"/><path d="m10.875 22.125c-1.03553 0-1.875.8395-1.875 1.875s.83947 1.875 1.875 1.875h7.5c1.0355 0 1.875-.8395 1.875-1.875s-.8395-1.875-1.875-1.875z"/></g></g><rect height="46" rx="11" stroke="url(#e)" stroke-width="2" width="46" x="1" y="1"/></g><g fill="#fff"><path d="m60 33.0001v-18.36h13.176v3.429h-8.856v3.861h7.803v3.348h-7.803v4.293h8.856v3.429z"/><path d="m83.9737 26.8171v-8.343h4.131v14.526h-4.131v-1.944c-.945 1.62-2.376 2.376-4.131 2.376-2.754 0-4.779-1.674-4.779-5.292v-9.666h4.131v8.829c0 1.863.702 2.781 2.16 2.781 1.593 0 2.619-1.404 2.619-3.267z"/><path d="m94.5014 38.9671h-4.131v-20.493h4.131v1.512c.891-1.269 2.133-1.971 3.645-1.971 3.7526 0 6.1016 2.943 6.1016 7.695 0 4.941-2.403 7.722-6.1016 7.722-1.539 0-2.781-.648-3.645-1.89zm2.781-17.604c-1.836 0-2.781 1.539-2.781 4.347s.972 4.374 2.781 4.374c1.782 0 2.7266-1.539 2.7266-4.374 0-2.808-.9716-4.347-2.7266-4.347z"/><path d="m105.888 33.0001v-19.44h4.131v6.831c.945-1.62 2.43-2.376 4.212-2.376 2.781 0 4.86 1.701 4.86 5.292v9.693h-4.131v-8.856c0-1.836-.729-2.781-2.241-2.781-1.647 0-2.7 1.431-2.7 3.294v8.343z"/><path d="m127.86 33.4321c-4.401 0-7.128-2.916-7.128-7.695 0-4.941 2.808-7.722 7.128-7.722 4.401 0 7.155 2.97 7.155 7.722 0 4.914-2.835 7.695-7.155 7.695zm0-3.348c1.917 0 2.916-1.512 2.916-4.347 0-2.808-1.026-4.374-2.916-4.374s-2.889 1.539-2.889 4.374c0 2.808 1.026 4.347 2.889 4.347z"/><path d="m136.66 33.0001v-14.526h4.131v2.025c.918-1.728 2.322-2.484 3.807-2.484.594 0 1.134.162 1.431.459v3.483c-.486-.108-.999-.162-1.647-.162-2.484 0-3.591 1.404-3.591 3.699v7.506z"/><path d="m147.141 17.0161v-3.456h4.131v3.456zm0 15.984v-14.526h4.131v14.526z"/><path d="m157.559 23.2801h-4.131c.432-3.267 2.943-5.265 6.669-5.265 4.158 0 6.318 2.43 6.318 5.805v5.562c0 1.89.162 2.862.405 3.618h-4.266c-.135-.486-.216-1.107-.243-1.809-1.134 1.566-2.862 2.241-4.59 2.241-2.754 0-4.806-1.404-4.806-4.185 0-1.971 1.134-3.483 3.429-4.293 1.89-.621 3.699-.81 5.94-.837v-.324c0-1.593-.783-2.43-2.376-2.43-1.404 0-2.16.783-2.349 1.917zm-.513 5.697c0 .972.729 1.593 1.944 1.593 1.836 0 3.294-1.485 3.294-3.483v-.567c-4.185.081-5.238 1.107-5.238 2.457z"/></g></svg>