<svg fill="none" height="48" viewBox="0 0 44 48" width="44" xmlns="http://www.w3.org/2000/svg"><path clip-rule="evenodd" d="m17.6264 6.5h14.8017l11.4661 18.6661-15.7786 15.9489-22.68835-4.0459-5.157719-19.2098zm.5273 4.9692-6.816 15.105 6.4504 5.3411 8.8246-3.7975zm12.3276 15.3 9.2139-2.7073-7.1983-11.7184zm-.6163-17.2692h-9.3468l7.3309 14.4284zm6.9795 18.5263-6.779 1.9919-.5448 5.4109zm-10.5005 9.008.5824-5.7856-6.0573 2.6067zm-6.8394-.5022-10.91261-1.9459 1.64741-5.0264 6.438 5.3308zm-11.69782-9.1824-2.7037-3.0571 1.66868 6.215zm-3.53432-8.5248 4.81433 5.4437 5.50351-12.1963z" fill="#6938ef" fill-rule="evenodd"/></svg>