<svg fill="none" height="48" viewBox="0 0 48 48" width="48" xmlns="http://www.w3.org/2000/svg" xmlns:xlink="http://www.w3.org/1999/xlink"><filter id="a" color-interpolation-filters="sRGB" filterUnits="userSpaceOnUse" height="54" width="48" x="0" y="-3"><feFlood flood-opacity="0" result="BackgroundImageFix"/><feBlend in="SourceGraphic" in2="BackgroundImageFix" mode="normal" result="shape"/><feColorMatrix in="SourceAlpha" result="hardAlpha" type="matrix" values="0 0 0 0 0 0 0 0 0 0 0 0 0 0 0 0 0 0 127 0"/><feOffset dy="-3"/><feGaussianBlur stdDeviation="1.5"/><feComposite in2="hardAlpha" k2="-1" k3="1" operator="arithmetic"/><feColorMatrix type="matrix" values="0 0 0 0 0 0 0 0 0 0 0 0 0 0 0 0 0 0 0.1 0"/><feBlend in2="shape" mode="normal" result="effect1_innerShadow_3051_46901"/><feColorMatrix in="SourceAlpha" result="hardAlpha" type="matrix" values="0 0 0 0 0 0 0 0 0 0 0 0 0 0 0 0 0 0 127 0"/><feOffset dy="3"/><feGaussianBlur stdDeviation="1.5"/><feComposite in2="hardAlpha" k2="-1" k3="1" operator="arithmetic"/><feColorMatrix type="matrix" values="0 0 0 0 1 0 0 0 0 1 0 0 0 0 1 0 0 0 0.1 0"/><feBlend in2="effect1_innerShadow_3051_46901" mode="normal" result="effect2_innerShadow_3051_46901"/><feColorMatrix in="SourceAlpha" result="hardAlpha" type="matrix" values="0 0 0 0 0 0 0 0 0 0 0 0 0 0 0 0 0 0 127 0"/><feMorphology in="SourceAlpha" operator="erode" radius="1" result="effect3_innerShadow_3051_46901"/><feOffset/><feComposite in2="hardAlpha" k2="-1" k3="1" operator="arithmetic"/><feColorMatrix type="matrix" values="0 0 0 0 0.0627451 0 0 0 0 0.0941176 0 0 0 0 0.156863 0 0 0 0.24 0"/><feBlend in2="effect2_innerShadow_3051_46901" mode="normal" result="effect3_innerShadow_3051_46901"/></filter><filter id="b" color-interpolation-filters="sRGB" filterUnits="userSpaceOnUse" height="42" width="42" x="3" y="5.25"><feFlood flood-opacity="0" result="BackgroundImageFix"/><feColorMatrix in="SourceAlpha" result="hardAlpha" type="matrix" values="0 0 0 0 0 0 0 0 0 0 0 0 0 0 0 0 0 0 127 0"/><feMorphology in="SourceAlpha" operator="erode" radius="1.5" result="effect1_dropShadow_3051_46901"/><feOffset dy="2.25"/><feGaussianBlur stdDeviation="2.25"/><feComposite in2="hardAlpha" operator="out"/><feColorMatrix type="matrix" values="0 0 0 0 0.141176 0 0 0 0 0.141176 0 0 0 0 0.141176 0 0 0 0.1 0"/><feBlend in2="BackgroundImageFix" mode="normal" result="effect1_dropShadow_3051_46901"/><feBlend in="SourceGraphic" in2="effect1_dropShadow_3051_46901" mode="normal" result="shape"/></filter><linearGradient id="c" gradientUnits="userSpaceOnUse" x1="24" x2="26" y1=".000001" y2="48"><stop offset="0" stop-color="#fff" stop-opacity="0"/><stop offset="1" stop-color="#fff" stop-opacity=".12"/></linearGradient><linearGradient id="d" gradientUnits="userSpaceOnUse" x1="24" x2="24" y1="12" y2="36"><stop offset="0" stop-color="#fff" stop-opacity=".8"/><stop offset="1" stop-color="#fff" stop-opacity=".5"/></linearGradient><linearGradient id="e" gradientUnits="userSpaceOnUse" x1="24" x2="24" y1="0" y2="48"><stop offset="0" stop-color="#fff" stop-opacity=".12"/><stop offset="1" stop-color="#fff" stop-opacity="0"/></linearGradient><clipPath id="f"><rect height="48" rx="12" width="48"/></clipPath><g filter="url(#a)"><g clip-path="url(#f)"><rect fill="#444ce7" height="48" rx="12" width="48"/><path d="m0 0h48v48h-48z" fill="url(#c)"/><g clip-rule="evenodd" fill="url(#d)" fill-rule="evenodd" filter="url(#b)"><path d="m31.5 27h-4.7574c-.7956 0-1.5587.3161-2.1213.8787l-1.2426 1.2426c-.5626.5626-1.3257.8787-2.1213.8787h-4.7574c-2.4853 0-4.5-2.0147-4.5-4.5s2.0147-4.5 4.5-4.5h4.7574c.7956 0 1.5587-.3161 2.1213-.8787l1.2426-1.2426c.5626-.5626 1.3257-.8787 2.1213-.8787h4.7574c2.4853 0 4.5 2.0147 4.5 4.5s-2.0147 4.5-4.5 4.5zm-4.7574-6c-.7956 0-1.5587.3161-2.1213.8787l-1.2426 1.2426c-.5626.5626-1.3257.8787-2.1213.8787h-4.7574c-.8284 0-1.5.6716-1.5 1.5s.6716 1.5 1.5 1.5h4.7574c.7956 0 1.5587-.3161 2.1213-.8787l1.2426-1.2426c.5626-.5626 1.3257-.8787 2.1213-.8787h4.7574c.8284 0 1.5-.6716 1.5-1.5s-.6716-1.5-1.5-1.5z"/><path d="m31.5 33h-4.7574c-.7956 0-1.5587.3161-2.1213.8787l-1.2426 1.2426c-.5626.5626-1.3257.8787-2.1213.8787h-4.7574c-5.799 0-10.5-4.701-10.5-10.5s4.701-10.5 10.5-10.5h4.7574c.7956 0 1.5587-.3161 2.1213-.8787l1.2426-1.2426c.5626-.5626 1.3257-.8787 2.1213-.8787h4.7574c5.799 0 10.5 4.701 10.5 10.5s-4.701 10.5-10.5 10.5zm-4.7574-18c-.7956 0-1.5587.3161-2.1213.8787l-1.2426 1.2426c-.5626.5626-1.3257.8787-2.1213.8787h-4.7574c-4.1421 0-7.5 3.3579-7.5 7.5s3.3579 7.5 7.5 7.5h4.7574c.7956 0 1.5587-.3161 2.1213-.8787l1.2426-1.2426c.5626-.5626 1.3257-.8787 2.1213-.8787h4.7574c4.1421 0 7.5-3.3579 7.5-7.5s-3.3579-7.5-7.5-7.5z"/></g></g><rect height="46" rx="11" stroke="url(#e)" stroke-width="2" width="46" x="1" y="1"/></g></svg>