<svg fill="none" height="54" viewBox="0 0 197 54" width="197" xmlns="http://www.w3.org/2000/svg" xmlns:xlink="http://www.w3.org/1999/xlink"><filter id="a" color-interpolation-filters="sRGB" filterUnits="userSpaceOnUse" height="57" width="54" x="0" y="-3"><feFlood flood-opacity="0" result="BackgroundImageFix"/><feColorMatrix in="SourceAlpha" result="hardAlpha" type="matrix" values="0 0 0 0 0 0 0 0 0 0 0 0 0 0 0 0 0 0 127 0"/><feOffset dy="1"/><feGaussianBlur stdDeviation=".5"/><feComposite in2="hardAlpha" operator="out"/><feColorMatrix type="matrix" values="0 0 0 0 0.162923 0 0 0 0 0.162923 0 0 0 0 0.162923 0 0 0 0.08 0"/><feBlend in2="BackgroundImageFix" mode="normal" result="effect1_dropShadow_3046_38782"/><feColorMatrix in="SourceAlpha" result="hardAlpha" type="matrix" values="0 0 0 0 0 0 0 0 0 0 0 0 0 0 0 0 0 0 127 0"/><feMorphology in="SourceAlpha" operator="erode" radius="1" result="effect2_dropShadow_3046_38782"/><feOffset dy="3"/><feGaussianBlur stdDeviation="2"/><feComposite in2="hardAlpha" operator="out"/><feColorMatrix type="matrix" values="0 0 0 0 0.164706 0 0 0 0 0.164706 0 0 0 0 0.164706 0 0 0 0.14 0"/><feBlend in2="effect1_dropShadow_3046_38782" mode="normal" result="effect2_dropShadow_3046_38782"/><feBlend in="SourceGraphic" in2="effect2_dropShadow_3046_38782" mode="normal" result="shape"/><feColorMatrix in="SourceAlpha" result="hardAlpha" type="matrix" values="0 0 0 0 0 0 0 0 0 0 0 0 0 0 0 0 0 0 127 0"/><feOffset dy="-3"/><feGaussianBlur stdDeviation="1.5"/><feComposite in2="hardAlpha" k2="-1" k3="1" operator="arithmetic"/><feColorMatrix type="matrix" values="0 0 0 0 0 0 0 0 0 0 0 0 0 0 0 0 0 0 0.1 0"/><feBlend in2="shape" mode="normal" result="effect3_innerShadow_3046_38782"/><feColorMatrix in="SourceAlpha" result="hardAlpha" type="matrix" values="0 0 0 0 0 0 0 0 0 0 0 0 0 0 0 0 0 0 127 0"/><feOffset dy="3"/><feGaussianBlur stdDeviation="1.5"/><feComposite in2="hardAlpha" k2="-1" k3="1" operator="arithmetic"/><feColorMatrix type="matrix" values="0 0 0 0 1 0 0 0 0 1 0 0 0 0 1 0 0 0 0.1 0"/><feBlend in2="effect3_innerShadow_3046_38782" mode="normal" result="effect4_innerShadow_3046_38782"/><feColorMatrix in="SourceAlpha" result="hardAlpha" type="matrix" values="0 0 0 0 0 0 0 0 0 0 0 0 0 0 0 0 0 0 127 0"/><feMorphology in="SourceAlpha" operator="erode" radius="1" result="effect5_innerShadow_3046_38782"/><feOffset/><feComposite in2="hardAlpha" k2="-1" k3="1" operator="arithmetic"/><feColorMatrix type="matrix" values="0 0 0 0 0.0627451 0 0 0 0 0.0941176 0 0 0 0 0.156863 0 0 0 0.24 0"/><feBlend in2="effect4_innerShadow_3046_38782" mode="normal" result="effect5_innerShadow_3046_38782"/></filter><filter id="b" color-interpolation-filters="sRGB" filterUnits="userSpaceOnUse" height="42" width="36" x="9" y="5.25"><feFlood flood-opacity="0" result="BackgroundImageFix"/><feColorMatrix in="SourceAlpha" result="hardAlpha" type="matrix" values="0 0 0 0 0 0 0 0 0 0 0 0 0 0 0 0 0 0 127 0"/><feMorphology in="SourceAlpha" operator="erode" radius="1.5" result="effect1_dropShadow_3046_38782"/><feOffset dy="2.25"/><feGaussianBlur stdDeviation="2.25"/><feComposite in2="hardAlpha" operator="out"/><feColorMatrix type="matrix" values="0 0 0 0 0.141176 0 0 0 0 0.141176 0 0 0 0 0.141176 0 0 0 0.1 0"/><feBlend in2="BackgroundImageFix" mode="normal" result="effect1_dropShadow_3046_38782"/><feBlend in="SourceGraphic" in2="effect1_dropShadow_3046_38782" mode="normal" result="shape"/></filter><linearGradient id="c" gradientUnits="userSpaceOnUse" x1="24" x2="26" y1=".000001" y2="48"><stop offset="0" stop-color="#fff" stop-opacity="0"/><stop offset="1" stop-color="#fff" stop-opacity=".12"/></linearGradient><linearGradient id="d" gradientUnits="userSpaceOnUse" x1="27" x2="27" y1="9" y2="39"><stop offset="0" stop-color="#fff" stop-opacity=".8"/><stop offset="1" stop-color="#fff" stop-opacity=".5"/></linearGradient><linearGradient id="e" gradientUnits="userSpaceOnUse" x1="27" x2="27" y1="0" y2="48"><stop offset="0" stop-color="#fff" stop-opacity=".12"/><stop offset="1" stop-color="#fff" stop-opacity="0"/></linearGradient><clipPath id="f"><rect height="48" rx="12" width="48" x="3"/></clipPath><g filter="url(#a)"><g clip-path="url(#f)"><rect fill="#0a0d12" height="48" rx="12" width="48" x="3"/><path d="m0 0h48v48h-48z" fill="url(#c)" transform="translate(3)"/><g fill="url(#d)" filter="url(#b)"><path d="m25.2173 9.73842c.9846-.98456 2.5808-.98456 3.5654 0l3.5654 3.56538c.9846.9846.9846 2.5809 0 3.5654l-3.5654 3.5654c-.9846.9846-2.5808.9846-3.5654 0l-3.5654-3.5654c-.9846-.9845-.9846-2.5808 0-3.5654z"/><path d="m34.1308 18.6519c.9845-.9846 2.5808-.9846 3.5654 0l3.5654 3.5654c.9845.9846.9845 2.5808 0 3.5654l-3.5654 3.5654c-.9846.9846-2.5809.9846-3.5654 0l-3.5654-3.5654c-.9846-.9846-.9846-2.5808 0-3.5654z"/><path d="m16.3038 18.6519c.9846-.9846 2.5809-.9846 3.5654 0l3.5654 3.5654c.9846.9846.9846 2.5808 0 3.5654l-3.5654 3.5654c-.9845.9846-2.5808.9846-3.5654 0l-3.5654-3.5654c-.9845-.9846-.9845-2.5808 0-3.5654z"/><path d="m25.2173 27.5654c.9846-.9846 2.5808-.9846 3.5654 0l3.5654 3.5654c.9846.9845.9846 2.5808 0 3.5654l-3.5654 3.5654c-.9846.9845-2.5808.9845-3.5654 0l-3.5654-3.5654c-.9846-.9846-.9846-2.5809 0-3.5654z"/></g></g><rect height="46" rx="11" stroke="url(#e)" stroke-width="2" width="46" x="4" y="1"/></g><g fill="#0a0d12"><path d="m63 33v-19.6436h5.9194l3.2432 9.1495c.3691 1.1601.9888 3.2299 1.4634 4.9174.4746-1.6875 1.0942-3.7573 1.4502-4.9174l3.2036-9.1495h5.9194v19.6436h-3.9682v-9.334c0-1.3711.0791-3.7046.1318-5.8667-.6724 2.294-1.3579 4.6143-1.7798 5.8667l-3.3223 9.334h-3.2959l-3.3618-9.334c-.4087-1.2129-1.0678-3.3882-1.7402-5.5898.0527 2.083.1186 4.2846.1186 5.5898v9.334z"/><path d="m90.7784 33.2373c-2.7818 0-4.7857-1.3843-4.7857-4.166 0-3.1377 2.5313-4.0342 5.4317-4.2979 2.5444-.2505 3.4409-.3691 3.4409-1.2656v-.0923c0-1.0283-.857-1.7402-2.2808-1.7402-1.4502 0-2.3994.7383-2.4917 1.8061h-3.6518c.1713-2.874 2.4389-4.6933 6.2622-4.6933 3.81 0 5.9985 1.793 5.9985 4.7724v9.4395h-3.7969v-1.9644h-.0527c-.7383 1.358-1.938 2.2017-4.0737 2.2017zm1.081-2.7026c1.8721 0 3.0322-1.1206 3.0322-2.6236v-1.3974c-.4482.2505-1.5424.435-2.7949.6328-1.3315.1977-2.3862.7119-2.3862 1.8193 0 .9888.8437 1.5689 2.1489 1.5689z"/><path d="m106.691 33.3428c-3.612 0-6.209-1.7271-6.446-4.7198h3.823c.145 1.2129 1.041 1.938 2.558 1.938 1.437 0 2.32-.6064 2.32-1.4633 0-.7383-.672-1.1734-1.806-1.3975l-2.439-.4746c-2.703-.5274-4.14-1.8985-4.14-4.0606 0-2.6367 2.281-4.3769 5.906-4.3769 3.599 0 5.973 1.8061 6.052 4.7065h-3.599c-.027-1.1206-.976-1.9511-2.347-1.9511-1.332 0-2.136.646-2.136 1.4765 0 .7119.62 1.1734 1.688 1.3975l2.636.5141c2.808.5538 4.1 1.7666 4.1 3.8101 0 2.7817-2.531 4.6011-6.17 4.6011z"/><path d="m122.684 19.0781v3.0454h-2.848v6.5786c0 .9493.303 1.2525 1.358 1.2525h1.49v3.0454h-2.268c-3.058 0-4.469-1.1602-4.469-3.6914v-7.1851h-2.4v-3.0454h2.4v-3.7969h3.889v3.7969z"/><path d="m130.252 33.3164c-4.219 0-6.961-3.0322-6.961-7.2642 0-4.2451 2.834-7.2905 6.829-7.2905 4.1 0 6.855 2.9663 6.855 7.2114v1.0415h-9.901c.066 2.0567 1.253 3.3882 3.296 3.3882 1.516 0 2.558-.6987 2.914-1.7798h3.546c-.514 2.7686-3.203 4.6934-6.578 4.6934zm-3.151-8.7803h6.209c-.198-1.7402-1.358-2.8213-3.111-2.8213-1.74 0-2.887 1.0811-3.098 2.8213z"/><path d="m138.518 33v-13.9219h3.744v2.3731h.04c.514-1.6743 1.569-2.4654 3.401-2.4654.449 0 .831.0132 1.147.0264v3.3091c-.29-.0132-1.015-.0659-1.674-.0659-1.595 0-2.769 1.1074-2.769 3.2036v7.541z"/><path d="m148.261 33v-13.9219h3.745v2.5049c.83-1.8852 2.452-2.7949 4.218-2.7949 1.872 0 3.441 1.0151 4.021 2.7158.725-1.7007 2.439-2.7158 4.456-2.7158 2.677 0 4.667 1.793 4.667 4.9834v9.2285h-3.876v-8.5166c0-1.6743-1.028-2.4917-2.359-2.4917-1.503 0-2.439 1.0679-2.439 2.6235v8.3848h-3.745v-8.6221c0-1.4502-.949-2.3862-2.307-2.3862-1.384 0-2.491 1.002-2.491 2.7949v8.2134z"/><path d="m175.842 33.2373c-2.782 0-4.786-1.3843-4.786-4.166 0-3.1377 2.532-4.0342 5.432-4.2979 2.545-.2505 3.441-.3691 3.441-1.2656v-.0923c0-1.0283-.857-1.7402-2.281-1.7402-1.45 0-2.399.7383-2.491 1.8061h-3.652c.171-2.874 2.439-4.6933 6.262-4.6933 3.81 0 5.998 1.793 5.998 4.7724v9.4395h-3.796v-1.9644h-.053c-.738 1.358-1.938 2.2017-4.074 2.2017zm1.081-2.7026c1.872 0 3.032-1.1206 3.032-2.6236v-1.3974c-.448.2505-1.542.435-2.795.6328-1.331.1977-2.386.7119-2.386 1.8193 0 .9888.844 1.5689 2.149 1.5689z"/><path d="m185.968 33v-13.9219h3.889v13.9219zm1.938-15.6753c-1.279 0-2.215-.8833-2.215-2.0698s.936-2.0698 2.215-2.0698c1.278 0 2.214.8833 2.214 2.0698s-.936 2.0698-2.214 2.0698z"/><path d="m195.961 13.3564v19.6436h-3.889v-19.6436z"/></g></svg>