<svg fill="none" height="48" viewBox="0 0 190 48" width="190" xmlns="http://www.w3.org/2000/svg" xmlns:xlink="http://www.w3.org/1999/xlink"><filter id="a" color-interpolation-filters="sRGB" filterUnits="userSpaceOnUse" height="54" width="48" x="0" y="-3"><feFlood flood-opacity="0" result="BackgroundImageFix"/><feBlend in="SourceGraphic" in2="BackgroundImageFix" mode="normal" result="shape"/><feColorMatrix in="SourceAlpha" result="hardAlpha" type="matrix" values="0 0 0 0 0 0 0 0 0 0 0 0 0 0 0 0 0 0 127 0"/><feOffset dy="-3"/><feGaussianBlur stdDeviation="1.5"/><feComposite in2="hardAlpha" k2="-1" k3="1" operator="arithmetic"/><feColorMatrix type="matrix" values="0 0 0 0 0 0 0 0 0 0 0 0 0 0 0 0 0 0 0.1 0"/><feBlend in2="shape" mode="normal" result="effect1_innerShadow_3046_38760"/><feColorMatrix in="SourceAlpha" result="hardAlpha" type="matrix" values="0 0 0 0 0 0 0 0 0 0 0 0 0 0 0 0 0 0 127 0"/><feOffset dy="3"/><feGaussianBlur stdDeviation="1.5"/><feComposite in2="hardAlpha" k2="-1" k3="1" operator="arithmetic"/><feColorMatrix type="matrix" values="0 0 0 0 1 0 0 0 0 1 0 0 0 0 1 0 0 0 0.1 0"/><feBlend in2="effect1_innerShadow_3046_38760" mode="normal" result="effect2_innerShadow_3046_38760"/><feColorMatrix in="SourceAlpha" result="hardAlpha" type="matrix" values="0 0 0 0 0 0 0 0 0 0 0 0 0 0 0 0 0 0 127 0"/><feMorphology in="SourceAlpha" operator="erode" radius="1" result="effect3_innerShadow_3046_38760"/><feOffset/><feComposite in2="hardAlpha" k2="-1" k3="1" operator="arithmetic"/><feColorMatrix type="matrix" values="0 0 0 0 0.0627451 0 0 0 0 0.0941176 0 0 0 0 0.156863 0 0 0 0.24 0"/><feBlend in2="effect2_innerShadow_3046_38760" mode="normal" result="effect3_innerShadow_3046_38760"/></filter><filter id="b" color-interpolation-filters="sRGB" filterUnits="userSpaceOnUse" height="46.6667" width="30.0007" x="9.00065" y="3.16667"><feFlood flood-opacity="0" result="BackgroundImageFix"/><feColorMatrix in="SourceAlpha" result="hardAlpha" type="matrix" values="0 0 0 0 0 0 0 0 0 0 0 0 0 0 0 0 0 0 127 0"/><feMorphology in="SourceAlpha" operator="erode" radius="1.66667" result="effect1_dropShadow_3046_38760"/><feOffset dy="2.5"/><feGaussianBlur stdDeviation="2.5"/><feComposite in2="hardAlpha" operator="out"/><feColorMatrix type="matrix" values="0 0 0 0 0.141176 0 0 0 0 0.141176 0 0 0 0 0.141176 0 0 0 0.1 0"/><feBlend in2="BackgroundImageFix" mode="normal" result="effect1_dropShadow_3046_38760"/><feBlend in="SourceGraphic" in2="effect1_dropShadow_3046_38760" mode="normal" result="shape"/></filter><linearGradient id="c" gradientUnits="userSpaceOnUse" x1="24" x2="26" y1=".000001" y2="48"><stop offset="0" stop-color="#fff" stop-opacity="0"/><stop offset="1" stop-color="#fff" stop-opacity=".12"/></linearGradient><linearGradient id="d" gradientUnits="userSpaceOnUse" x1="24.0007" x2="24.0007" y1="12.3333" y2="35.6666"><stop offset="0" stop-color="#fff" stop-opacity=".8"/><stop offset="1" stop-color="#fff" stop-opacity=".5"/></linearGradient><linearGradient id="e" gradientUnits="userSpaceOnUse" x1="24" x2="24" y1="0" y2="48"><stop offset="0" stop-color="#fff" stop-opacity=".12"/><stop offset="1" stop-color="#fff" stop-opacity="0"/></linearGradient><clipPath id="f"><rect height="48" rx="12" width="48"/></clipPath><g filter="url(#a)"><g clip-path="url(#f)"><rect fill="#22262f" height="48" rx="12" width="48"/><path d="m0 0h48v48h-48z" fill="url(#c)"/><g fill="url(#d)" filter="url(#b)"><path d="m20.6673 16.5c0 2.3012-1.8655 4.1666-4.1666 4.1666-2.3012 0-4.1667-1.8654-4.1667-4.1666s1.8655-4.1667 4.1667-4.1667c2.3011 0 4.1666 1.8655 4.1666 4.1667z"/><path d="m20.6673 31.5c0 2.3012-1.8655 4.1666-4.1666 4.1666-2.3012 0-4.1667-1.8654-4.1667-4.1666s1.8655-4.1667 4.1667-4.1667c2.3011 0 4.1666 1.8655 4.1666 4.1667z"/><path d="m35.6673 16.5c0 2.3012-1.8655 4.1666-4.1666 4.1666-2.3012 0-4.1667-1.8654-4.1667-4.1666s1.8655-4.1667 4.1667-4.1667c2.3011 0 4.1666 1.8655 4.1666 4.1667z"/><path d="m35.6673 31.5c0 2.3012-1.8655 4.1666-4.1666 4.1666-2.3012 0-4.1667-1.8654-4.1667-4.1666s1.8655-4.1667 4.1667-4.1667c2.3011 0 4.1666 1.8655 4.1666 4.1667z"/></g></g><rect height="46" rx="11" stroke="url(#e)" stroke-width="2" width="46" x="1" y="1"/></g><g fill="#fff"><path d="m74.121 13.776v4.077h-9.558v3.483h8.829v3.861h-8.829v7.803h-4.563v-19.224z"/><path d="m87.1327 31.326c-1.332 1.332-3.105 1.998-5.319 1.998s-3.987-.666-5.319-1.998-1.998-3.096-1.998-5.292c0-2.214.666-3.987 1.998-5.319 1.314-1.314 3.087-1.971 5.319-1.971s4.005.657 5.319 1.971 1.971 3.087 1.971 5.319c0 2.214-.657 3.978-1.971 5.292zm-5.319-1.377c.972 0 1.719-.333 2.241-.999s.783-1.638.783-2.916-.261-2.25-.783-2.916-1.269-.999-2.241-.999c-.99 0-1.746.333-2.268.999s-.783 1.638-.783 2.916.261 2.25.783 2.916 1.278.999 2.268.999z"/><path d="m96.8021 33.324c-2.052 0-3.681-.558-4.887-1.674-1.188-1.134-1.782-2.673-1.782-4.617v-7.965h4.239v8.019c0 .846.225 1.503.675 1.971.45.45 1.035.675 1.755.675s1.305-.225 1.755-.675c.45-.468.675-1.125.675-1.971v-8.019h4.2389v7.965c0 1.962-.603 3.492-1.809 4.59-1.224 1.134-2.8439 1.701-4.8599 1.701z"/><path d="m113.46 18.852c.072 0 .378.018.918.054v3.834h-1.08c-2.466 0-3.699 1.26-3.699 3.78v6.48h-4.212v-13.932h4.104v2.592c.648-1.872 1.971-2.808 3.969-2.808z"/><path d="m123.868 18.744c1.872 0 3.357.657 4.455 1.971 1.08 1.314 1.62 3.087 1.62 5.319s-.54 4.005-1.62 5.319c-1.098 1.314-2.583 1.971-4.455 1.971-1.782 0-3.15-.675-4.104-2.025v6.993h-4.212v-19.224h4.104v1.863c.954-1.458 2.358-2.187 4.212-2.187zm-1.161 11.205c.936 0 1.665-.342 2.187-1.026.522-.702.783-1.701.783-2.997 0-2.538-.99-3.807-2.97-3.807-1.998 0-2.997 1.305-2.997 3.915s.999 3.915 2.997 3.915z"/><path d="m143.323 31.326c-1.332 1.332-3.105 1.998-5.319 1.998s-3.987-.666-5.319-1.998-1.998-3.096-1.998-5.292c0-2.214.666-3.987 1.998-5.319 1.314-1.314 3.087-1.971 5.319-1.971s4.005.657 5.319 1.971 1.971 3.087 1.971 5.319c0 2.214-.657 3.978-1.971 5.292zm-5.319-1.377c.972 0 1.719-.333 2.241-.999s.783-1.638.783-2.916-.261-2.25-.783-2.916-1.269-.999-2.241-.999c-.99 0-1.746.333-2.268.999s-.783 1.638-.783 2.916.261 2.25.783 2.916 1.278.999 2.268.999z"/><path d="m148.72 17.61c-.612 0-1.134-.207-1.566-.621-.414-.432-.621-.945-.621-1.539 0-.612.207-1.125.621-1.539.432-.432.954-.648 1.566-.648.594 0 1.098.216 1.512.648.432.414.648.927.648 1.539 0 .594-.216 1.107-.648 1.539-.414.414-.918.621-1.512.621zm2.106 15.39h-4.212v-13.932h4.212z"/><path d="m175.57 19.068v3.078h-2.673v6.507c0 .468.117.792.351.972.234.162.648.243 1.242.243h1.08v3.132c-.504.072-1.152.108-1.944.108-1.746 0-3.006-.306-3.78-.918-.774-.63-1.161-1.656-1.161-3.078v-6.966h-2.079v-3.078h2.079v-4.131h4.212v4.131z"/><path d="m182.731 33.405c-2.196 0-3.834-.378-4.914-1.134-1.062-.774-1.656-2.007-1.782-3.699h4.104c.072.738.306 1.26.702 1.566.414.306 1.071.459 1.971.459 1.566 0 2.349-.45 2.349-1.35 0-.432-.171-.756-.513-.972-.342-.234-.972-.423-1.89-.567l-1.809-.297c-3.132-.486-4.698-1.908-4.698-4.266 0-1.404.54-2.484 1.62-3.24 1.08-.774 2.628-1.161 4.644-1.161 4.158 0 6.318 1.593 6.48 4.779h-3.915c-.018-1.314-.873-1.971-2.565-1.971-1.422 0-2.133.441-2.133 1.323 0 .396.162.702.486.918s.837.378 1.539.486l2.079.297c1.674.252 2.907.729 3.699 1.431s1.188 1.665 1.188 2.889c0 1.44-.585 2.556-1.755 3.348-1.152.774-2.781 1.161-4.887 1.161z"/><path d="m159.409 18.744c-2.052 0-3.681.558-4.887 1.674-1.188 1.134-1.782 2.673-1.782 4.617v7.965h4.239v-8.019c0-.846.225-1.503.675-1.971.45-.45 1.035-.675 1.755-.675s1.305.225 1.755.675c.45.468.675 1.125.675 1.971v8.019h4.239v-7.965c0-1.962-.603-3.492-1.809-4.59-1.224-1.134-2.844-1.701-4.86-1.701z"/></g></svg>