<svg fill="none" height="48" viewBox="0 0 162 48" width="162" xmlns="http://www.w3.org/2000/svg" xmlns:xlink="http://www.w3.org/1999/xlink"><filter id="a" color-interpolation-filters="sRGB" filterUnits="userSpaceOnUse" height="54" width="48" x="0" y="-3"><feFlood flood-opacity="0" result="BackgroundImageFix"/><feBlend in="SourceGraphic" in2="BackgroundImageFix" mode="normal" result="shape"/><feColorMatrix in="SourceAlpha" result="hardAlpha" type="matrix" values="0 0 0 0 0 0 0 0 0 0 0 0 0 0 0 0 0 0 127 0"/><feOffset dy="-3"/><feGaussianBlur stdDeviation="1.5"/><feComposite in2="hardAlpha" k2="-1" k3="1" operator="arithmetic"/><feColorMatrix type="matrix" values="0 0 0 0 0 0 0 0 0 0 0 0 0 0 0 0 0 0 0.1 0"/><feBlend in2="shape" mode="normal" result="effect1_innerShadow_3046_38734"/><feColorMatrix in="SourceAlpha" result="hardAlpha" type="matrix" values="0 0 0 0 0 0 0 0 0 0 0 0 0 0 0 0 0 0 127 0"/><feOffset dy="3"/><feGaussianBlur stdDeviation="1.5"/><feComposite in2="hardAlpha" k2="-1" k3="1" operator="arithmetic"/><feColorMatrix type="matrix" values="0 0 0 0 1 0 0 0 0 1 0 0 0 0 1 0 0 0 0.1 0"/><feBlend in2="effect1_innerShadow_3046_38734" mode="normal" result="effect2_innerShadow_3046_38734"/><feColorMatrix in="SourceAlpha" result="hardAlpha" type="matrix" values="0 0 0 0 0 0 0 0 0 0 0 0 0 0 0 0 0 0 127 0"/><feMorphology in="SourceAlpha" operator="erode" radius="1" result="effect3_innerShadow_3046_38734"/><feOffset/><feComposite in2="hardAlpha" k2="-1" k3="1" operator="arithmetic"/><feColorMatrix type="matrix" values="0 0 0 0 0.0627451 0 0 0 0 0.0941176 0 0 0 0 0.156863 0 0 0 0.24 0"/><feBlend in2="effect2_innerShadow_3046_38734" mode="normal" result="effect3_innerShadow_3046_38734"/></filter><filter id="b" color-interpolation-filters="sRGB" filterUnits="userSpaceOnUse" height="42" width="36" x="6" y="5.25"><feFlood flood-opacity="0" result="BackgroundImageFix"/><feColorMatrix in="SourceAlpha" result="hardAlpha" type="matrix" values="0 0 0 0 0 0 0 0 0 0 0 0 0 0 0 0 0 0 127 0"/><feMorphology in="SourceAlpha" operator="erode" radius="1.5" result="effect1_dropShadow_3046_38734"/><feOffset dy="2.25"/><feGaussianBlur stdDeviation="2.25"/><feComposite in2="hardAlpha" operator="out"/><feColorMatrix type="matrix" values="0 0 0 0 0.141176 0 0 0 0 0.141176 0 0 0 0 0.141176 0 0 0 0.1 0"/><feBlend in2="BackgroundImageFix" mode="normal" result="effect1_dropShadow_3046_38734"/><feBlend in="SourceGraphic" in2="effect1_dropShadow_3046_38734" mode="normal" result="shape"/></filter><linearGradient id="c" gradientUnits="userSpaceOnUse" x1="24" x2="26" y1=".000001" y2="48"><stop offset="0" stop-color="#fff" stop-opacity="0"/><stop offset="1" stop-color="#fff" stop-opacity=".12"/></linearGradient><linearGradient id="d"><stop offset="0" stop-color="#fff" stop-opacity=".8"/><stop offset="1" stop-color="#fff" stop-opacity=".5"/></linearGradient><linearGradient id="e" gradientUnits="userSpaceOnUse" x1="23.8964" x2="23.8964" xlink:href="#d" y1="9" y2="39.0001"/><linearGradient id="f" gradientUnits="userSpaceOnUse" x1="23.8964" x2="23.8964" xlink:href="#d" y1="9" y2="24.0001"/><linearGradient id="g" gradientUnits="userSpaceOnUse" x1="23.8964" x2="23.8964" xlink:href="#d" y1="39.0002" y2="24.0002"/><linearGradient id="h" gradientUnits="userSpaceOnUse" x1="24" x2="24" y1="0" y2="48"><stop offset="0" stop-color="#fff" stop-opacity=".12"/><stop offset="1" stop-color="#fff" stop-opacity="0"/></linearGradient><clipPath id="i"><rect height="48" rx="12" width="48"/></clipPath><g filter="url(#a)"><g clip-path="url(#i)"><rect fill="#3538cd" height="48" rx="12" width="48"/><path d="m0 0h48v48h-48z" fill="url(#c)"/><g filter="url(#b)"><path d="m24.0001 9c-8.2844 0-15.0001 6.7158-15.0001 15.0001s6.7157 15 15.0001 15c7.4325 0 13.6024-5.4057 14.7926-12.5h-.1076c-1.1101 4.3131-5.0254 7.5-9.685 7.5-5.5229 0-10.0001-4.4772-10.0001-10 0-5.5229 4.4772-10.0001 10.0001-10.0001 4.6596 0 8.5749 3.187 9.685 7.5h.1076c-1.1902-7.0943-7.3601-12.5-14.7926-12.5z" fill="url(#e)" opacity=".5"/><path d="m9 24.0001c0-8.2843 6.7158-15.0001 15.0001-15.0001 7.4325 0 13.6024 5.4057 14.7926 12.5h-10.1077c-1.1101-4.313-5.0253-7.5-9.685-7.5-5.5228 0-10 4.4772-10 10.0001z" fill="url(#f)"/><path d="m9 24.0002c0 8.2843 6.7158 15 15.0001 15 7.4325 0 13.6024-5.4057 14.7926-12.5h-10.1077c-1.1101 4.3131-5.0253 7.5-9.685 7.5-5.5228 0-10-4.4771-10-10z" fill="url(#g)"/></g></g><rect height="46" rx="11" stroke="url(#h)" stroke-width="2" width="46" x="1" y="1"/></g><g clip-rule="evenodd" fill="#fff" fill-rule="evenodd"><path d="m75.8174 20.7018h3.9324l-.0176-.1151c-.647-4.2355-4.817-7.2769-9.5238-7.2769-5.8571 0-10.308 4.5416-10.308 10.511 0 5.9978 4.4504 10.569 10.308 10.569 4.8282 0 8.7597-3.0746 9.5813-7.5349l.0218-.1181h-3.9684l-.0188.076c-.5964 2.4142-2.9003 4.071-5.6159 4.071-3.7376 0-6.599-3.0518-6.599-7.063 0-3.9814 2.8607-7.005 6.599-7.005 2.6887 0 4.9353 1.5721 5.588 3.814z"/><path d="m96.3746 34.0998v-14.381h-3.448v2.2924c-1.0537-1.6396-2.755-2.5824-4.946-2.5824-3.8621 0-6.886 3.33-6.886 7.466 0 4.1355 3.0235 7.495 6.886 7.495 2.191 0 3.8923-.9427 4.946-2.5824v2.2924zm-7.698-2.984c-2.3509 0-4.192-1.8683-4.192-4.221 0-2.3232 1.8407-4.192 4.192-4.192 2.4102 0 4.221 1.8117 4.221 4.192 0 2.4098-1.8112 4.221-4.221 4.221z"/><path d="m103.778 28.6058v-5.613h3.712v-3.274h-3.712v-3.799h-3.448v3.799h-2.6965v3.274h2.6965v5.671c0 1.8173.528 3.2225 1.465 4.1737.936.9512 2.269 1.4363 3.855 1.4363.527 0 1.26-.0583 1.763-.1766l.077-.0182v-3.1971l-.126.0344c-.307.0837-.674.1125-1.018.1125-.769 0-1.409-.1783-1.856-.563-.443-.3824-.712-.9822-.712-1.86z"/><path d="m123.053 34.0998v-14.381h-3.448v2.2924c-1.053-1.6396-2.755-2.5824-4.946-2.5824-3.862 0-6.886 3.33-6.886 7.466 0 4.1355 3.024 7.495 6.886 7.495 2.191 0 3.893-.9427 4.946-2.5824v2.2924zm-7.698-2.984c-2.35 0-4.192-1.8683-4.192-4.221 0-2.3232 1.841-4.192 4.192-4.192 2.411 0 4.221 1.8117 4.221 4.192 0 2.4098-1.811 4.221-4.221 4.221z"/><path d="m129.094 34.0998v-20.5h-3.419v20.5z"/><path d="m150.727 34.6538h-3.418l.004.1044c.089 2.0274 1.18 3.3461 2.603 4.1535 1.419.8049 3.17 1.1041 4.602 1.1041 2.079 0 3.908-.6221 5.22-1.7534 1.314-1.1325 2.101-2.77 2.101-4.7846v-.799h.029v-12.96h-3.448v2.2152c-1.054-1.5888-2.756-2.5052-4.946-2.5052-3.859 0-6.886 3.2403-6.886 7.263 0 4.0222 3.026 7.292 6.886 7.292 2.19 0 3.892-.9163 4.946-2.5294l-.029 2.1394c0 2.1064-1.768 3.525-3.96 3.525-1.002 0-1.91-.222-2.576-.6305-.663-.4072-1.082-.9965-1.123-1.74zm3.443-3.857c-2.353 0-4.192-1.8415-4.192-4.105 0-2.2625 1.838-4.076 4.192-4.076 2.413 0 4.221 1.7564 4.221 4.076 0 2.3206-1.809 4.105-4.221 4.105z"/><path d="m145.22 19.5639.048-.1341h-3.738l-.03.0396c-.753.9918-1.943 1.6172-3.291 1.6172-1.366 0-2.543-.6254-3.282-1.6165l-.03-.0403h-3.722l.048.1338c1.029 2.8665 3.715 4.826 6.986 4.826 3.27 0 5.973-1.9592 7.011-4.8257z"/><path d="m142.09 34.3898h3.45l.015-.0826c.079-.4466.12-.9089.12-1.3836 0-4.2602-3.264-7.495-7.466-7.495-4.203 0-7.437 3.2353-7.437 7.495 0 .4746.04.9369.119 1.3835l.014.0827h3.444l-.041-.1303c-.133-.4165-.204-.8652-.204-1.3359 0-2.3834 1.785-4.221 4.105-4.221 2.292 0 4.134 1.8389 4.134 4.221 0 .4704-.074.9188-.21 1.3352z"/></g></svg>