<svg fill="none" height="48" viewBox="0 0 48 48" width="48" xmlns="http://www.w3.org/2000/svg"><path d="m48 11h-17.0775c-1.2151 0-2.3644.5524-3.1235 1.5012l-1.598 1.9976c-.7591.9488-1.9084 1.5012-3.1235 1.5012h-15.0775l-4 5h17.0775c1.2151 0 2.3644-.5524 3.1235-1.5012l1.598-1.9976c.7591-.9488 1.9084-1.5012 3.1235-1.5012h15.0775z" fill="#444ce7"/><path d="m46 19h-17.0775c-1.2151 0-2.3644.5524-3.1235 1.5012l-1.598 1.9976c-.7591.9488-1.9084 1.5012-3.1235 1.5012h-15.0775l-4 5h17.0775c1.2151 0 2.3644-.5524 3.1235-1.5012l1.598-1.9976c.7591-.9488 1.9084-1.5012 3.1235-1.5012h15.0775z" fill="#6938ef"/><path d="m44 27h-17.0775c-1.2151 0-2.3644.5524-3.1235 1.5012l-1.598 1.9976c-.7591.9488-1.9084 1.5012-3.1235 1.5012h-15.0775l-4 5h17.0775c1.2151 0 2.3644-.5524 3.1235-1.5012l1.598-1.9976c.7591-.9488 1.9084-1.5012 3.1235-1.5012h15.0775z" fill="#8098f9"/></svg>