<svg fill="none" height="48" viewBox="0 0 48 48" width="48" xmlns="http://www.w3.org/2000/svg" xmlns:xlink="http://www.w3.org/1999/xlink"><filter id="a" color-interpolation-filters="sRGB" filterUnits="userSpaceOnUse" height="54" width="48" x="0" y="-3"><feFlood flood-opacity="0" result="BackgroundImageFix"/><feBlend in="SourceGraphic" in2="BackgroundImageFix" mode="normal" result="shape"/><feColorMatrix in="SourceAlpha" result="hardAlpha" type="matrix" values="0 0 0 0 0 0 0 0 0 0 0 0 0 0 0 0 0 0 127 0"/><feOffset dy="-3"/><feGaussianBlur stdDeviation="1.5"/><feComposite in2="hardAlpha" k2="-1" k3="1" operator="arithmetic"/><feColorMatrix type="matrix" values="0 0 0 0 0 0 0 0 0 0 0 0 0 0 0 0 0 0 0.1 0"/><feBlend in2="shape" mode="normal" result="effect1_innerShadow_3051_46925"/><feColorMatrix in="SourceAlpha" result="hardAlpha" type="matrix" values="0 0 0 0 0 0 0 0 0 0 0 0 0 0 0 0 0 0 127 0"/><feOffset dy="3"/><feGaussianBlur stdDeviation="1.5"/><feComposite in2="hardAlpha" k2="-1" k3="1" operator="arithmetic"/><feColorMatrix type="matrix" values="0 0 0 0 1 0 0 0 0 1 0 0 0 0 1 0 0 0 0.1 0"/><feBlend in2="effect1_innerShadow_3051_46925" mode="normal" result="effect2_innerShadow_3051_46925"/><feColorMatrix in="SourceAlpha" result="hardAlpha" type="matrix" values="0 0 0 0 0 0 0 0 0 0 0 0 0 0 0 0 0 0 127 0"/><feMorphology in="SourceAlpha" operator="erode" radius="1" result="effect3_innerShadow_3051_46925"/><feOffset/><feComposite in2="hardAlpha" k2="-1" k3="1" operator="arithmetic"/><feColorMatrix type="matrix" values="0 0 0 0 0.0627451 0 0 0 0 0.0941176 0 0 0 0 0.156863 0 0 0 0.24 0"/><feBlend in2="effect2_innerShadow_3051_46925" mode="normal" result="effect3_innerShadow_3051_46925"/></filter><filter id="b" color-interpolation-filters="sRGB" filterUnits="userSpaceOnUse" height="44.3333" width="26.9388" x="12.0618" y="4.20833"><feFlood flood-opacity="0" result="BackgroundImageFix"/><feColorMatrix in="SourceAlpha" result="hardAlpha" type="matrix" values="0 0 0 0 0 0 0 0 0 0 0 0 0 0 0 0 0 0 127 0"/><feMorphology in="SourceAlpha" operator="erode" radius="1.58333" result="effect1_dropShadow_3051_46925"/><feOffset dy="2.375"/><feGaussianBlur stdDeviation="2.375"/><feComposite in2="hardAlpha" operator="out"/><feColorMatrix type="matrix" values="0 0 0 0 0.141176 0 0 0 0 0.141176 0 0 0 0 0.141176 0 0 0 0.1 0"/><feBlend in2="BackgroundImageFix" mode="normal" result="effect1_dropShadow_3051_46925"/><feBlend in="SourceGraphic" in2="effect1_dropShadow_3051_46925" mode="normal" result="shape"/></filter><linearGradient id="c" gradientUnits="userSpaceOnUse" x1="24" x2="26" y1=".000001" y2="48"><stop offset="0" stop-color="#fff" stop-opacity="0"/><stop offset="1" stop-color="#fff" stop-opacity=".12"/></linearGradient><linearGradient id="d"><stop offset="0" stop-color="#fff" stop-opacity=".8"/><stop offset="1" stop-color="#fff" stop-opacity=".5"/></linearGradient><linearGradient id="e" gradientUnits="userSpaceOnUse" x1="25.531" x2="25.531" xlink:href="#d" y1="8.95837" y2="26.4261"/><linearGradient id="f" gradientUnits="userSpaceOnUse" x1="23.9624" x2="23.9624" xlink:href="#d" y1="27.3962" y2="39.0414"/><linearGradient id="g" gradientUnits="userSpaceOnUse" x1="24" x2="24" y1="0" y2="48"><stop offset="0" stop-color="#fff" stop-opacity=".12"/><stop offset="1" stop-color="#fff" stop-opacity="0"/></linearGradient><clipPath id="h"><rect height="48" rx="12" width="48"/></clipPath><g filter="url(#a)"><g clip-path="url(#h)"><rect fill="#079455" height="48" rx="12" width="48"/><path d="m0 0h48v48h-48z" fill="url(#c)"/><g filter="url(#b)"><path clip-rule="evenodd" d="m23.9616 8.95837h11.8719v4.56103h-4.1967c.6756 1.2398 1.0595 2.6615 1.0595 4.1728 0 4.8236-3.9103 8.7339-8.7339 8.7339s-8.7339-3.9103-8.7339-8.7339c0-4.8233 3.9099-8.73339 8.7331-8.73383zm.0008 12.90673c2.3046 0 4.1728-1.8683 4.1728-4.1729s-1.8682-4.1728-4.1728-4.1728h-.0008c-2.3042.0004-4.1721 1.8685-4.1721 4.1728 0 2.3046 1.8683 4.1729 4.1729 4.1729z" fill="url(#e)" fill-rule="evenodd"/><path d="m23.9619 39.0414c-1.6271 0-3.1018-.3044-4.4239-.9133-1.3221-.5836-2.3772-1.4081-3.1654-2.4737-.7627-1.0656-1.1441-2.2834-1.1441-3.6534 0-1.0655.1526-1.9408.4577-2.6258.3051-.6851.7627-1.3447 1.3729-1.979l3.7756 2.4356c-.2543.2284-.4449.4948-.5721.7992-.1271.3045-.1907.685-.1907 1.1417 0 .8372.3433 1.4969 1.0297 1.9789.7046.5022 1.6582.7559 2.8608.761 1.2026-.0051 2.1562-.2588 2.8607-.761.6865-.482 1.0297-1.1417 1.0297-1.9789 0-.4567-.0635-.8372-.1907-1.1417-.1271-.3044-.3178-.5708-.572-.7992l3.7756-2.4356c.6102.6343 1.0678 1.2939 1.3729 1.979.3051.685.4577 1.5603.4577 2.6258 0 1.37-.3814 2.5878-1.1442 3.6534-.7881 1.0656-1.8433 1.8901-3.1653 2.4737-1.3221.6089-2.7977.9133-4.4249.9133z" fill="url(#f)" opacity=".7"/></g></g><rect height="46" rx="11" stroke="url(#g)" stroke-width="2" width="46" x="1" y="1"/></g></svg>