<svg fill="none" height="48" viewBox="0 0 40 48" width="40" xmlns="http://www.w3.org/2000/svg"><path d="m12.3463 5.5224c2.4265-1.00503 5.0273-1.5224 7.6537-1.5224v10c-1.3133 0-2.6136.2586-3.8269.7613-1.2132.5025-2.3156 1.239-3.2442 2.1676s-1.6651 2.031-2.1676 3.2442c-.5027 1.2133-.7613 2.5136-.7613 3.8269h-10c0-2.6264.517371-5.2272 1.5224-7.6537 1.00514-2.4265 2.47829-4.6312 4.33543-6.48847 1.85726-1.85714 4.06194-3.33029 6.48847-4.33543z" fill="#155eef"/><path d="m0 24c0 2.6264.517371 5.2272 1.5224 7.6537 1.00514 2.4265 2.47829 4.6312 4.33543 6.4885 1.85726 1.8571 4.06194 3.3303 6.48847 4.3354 2.4265 1.005 5.0273 1.5224 7.6537 1.5224s5.2272-.5174 7.6537-1.5224c2.4265-1.0051 4.6312-2.4783 6.4885-4.3354 1.8571-1.8573 3.3303-4.062 4.3354-6.4885 1.005-2.4265 1.5224-5.0273 1.5224-7.6537h-10c0 1.3133-.2586 2.6136-.7613 3.8269-.5025 1.2132-1.239 2.3156-2.1676 3.2442s-2.031 1.6651-3.2442 2.1676c-1.2133.5027-2.5136.7613-3.8269.7613s-2.6136-.2586-3.8269-.7613c-1.2132-.5025-2.3156-1.239-3.2442-2.1676s-1.6651-2.031-2.1676-3.2442c-.5027-1.2133-.7613-2.5136-.7613-3.8269z" fill="#84adff"/><path d="m20.0004 17.6362c-3.5146 0-6.3637 2.8491-6.3637 6.3637h12.7273c0-3.5146-2.8491-6.3637-6.3636-6.3637z" fill="#84adff"/><path d="m20.0004 30.3638c-3.5146 0-6.3637-2.8491-6.3637-6.3637h12.7273c0 3.5146-2.8491 6.3637-6.3636 6.3637z" fill="#155eef"/></svg>