<svg fill="none" height="54" viewBox="0 0 190 54" width="190" xmlns="http://www.w3.org/2000/svg" xmlns:xlink="http://www.w3.org/1999/xlink"><filter id="a" color-interpolation-filters="sRGB" filterUnits="userSpaceOnUse" height="57" width="54" x="0" y="-3"><feFlood flood-opacity="0" result="BackgroundImageFix"/><feColorMatrix in="SourceAlpha" result="hardAlpha" type="matrix" values="0 0 0 0 0 0 0 0 0 0 0 0 0 0 0 0 0 0 127 0"/><feOffset dy="1"/><feGaussianBlur stdDeviation=".5"/><feComposite in2="hardAlpha" operator="out"/><feColorMatrix type="matrix" values="0 0 0 0 0.162923 0 0 0 0 0.162923 0 0 0 0 0.162923 0 0 0 0.08 0"/><feBlend in2="BackgroundImageFix" mode="normal" result="effect1_dropShadow_3046_38761"/><feColorMatrix in="SourceAlpha" result="hardAlpha" type="matrix" values="0 0 0 0 0 0 0 0 0 0 0 0 0 0 0 0 0 0 127 0"/><feMorphology in="SourceAlpha" operator="erode" radius="1" result="effect2_dropShadow_3046_38761"/><feOffset dy="3"/><feGaussianBlur stdDeviation="2"/><feComposite in2="hardAlpha" operator="out"/><feColorMatrix type="matrix" values="0 0 0 0 0.164706 0 0 0 0 0.164706 0 0 0 0 0.164706 0 0 0 0.14 0"/><feBlend in2="effect1_dropShadow_3046_38761" mode="normal" result="effect2_dropShadow_3046_38761"/><feBlend in="SourceGraphic" in2="effect2_dropShadow_3046_38761" mode="normal" result="shape"/><feColorMatrix in="SourceAlpha" result="hardAlpha" type="matrix" values="0 0 0 0 0 0 0 0 0 0 0 0 0 0 0 0 0 0 127 0"/><feOffset dy="-3"/><feGaussianBlur stdDeviation="1.5"/><feComposite in2="hardAlpha" k2="-1" k3="1" operator="arithmetic"/><feColorMatrix type="matrix" values="0 0 0 0 0 0 0 0 0 0 0 0 0 0 0 0 0 0 0.1 0"/><feBlend in2="shape" mode="normal" result="effect3_innerShadow_3046_38761"/><feColorMatrix in="SourceAlpha" result="hardAlpha" type="matrix" values="0 0 0 0 0 0 0 0 0 0 0 0 0 0 0 0 0 0 127 0"/><feOffset dy="3"/><feGaussianBlur stdDeviation="1.5"/><feComposite in2="hardAlpha" k2="-1" k3="1" operator="arithmetic"/><feColorMatrix type="matrix" values="0 0 0 0 1 0 0 0 0 1 0 0 0 0 1 0 0 0 0.1 0"/><feBlend in2="effect3_innerShadow_3046_38761" mode="normal" result="effect4_innerShadow_3046_38761"/><feColorMatrix in="SourceAlpha" result="hardAlpha" type="matrix" values="0 0 0 0 0 0 0 0 0 0 0 0 0 0 0 0 0 0 127 0"/><feMorphology in="SourceAlpha" operator="erode" radius="1" result="effect5_innerShadow_3046_38761"/><feOffset/><feComposite in2="hardAlpha" k2="-1" k3="1" operator="arithmetic"/><feColorMatrix type="matrix" values="0 0 0 0 0.0627451 0 0 0 0 0.0941176 0 0 0 0 0.156863 0 0 0 0.24 0"/><feBlend in2="effect4_innerShadow_3046_38761" mode="normal" result="effect5_innerShadow_3046_38761"/></filter><filter id="b" color-interpolation-filters="sRGB" filterUnits="userSpaceOnUse" height="44.3333" width="37.9993" x="7.99935" y="4.20833"><feFlood flood-opacity="0" result="BackgroundImageFix"/><feColorMatrix in="SourceAlpha" result="hardAlpha" type="matrix" values="0 0 0 0 0 0 0 0 0 0 0 0 0 0 0 0 0 0 127 0"/><feMorphology in="SourceAlpha" operator="erode" radius="1.58333" result="effect1_dropShadow_3046_38761"/><feOffset dy="2.375"/><feGaussianBlur stdDeviation="2.375"/><feComposite in2="hardAlpha" operator="out"/><feColorMatrix type="matrix" values="0 0 0 0 0.141176 0 0 0 0 0.141176 0 0 0 0 0.141176 0 0 0 0.1 0"/><feBlend in2="BackgroundImageFix" mode="normal" result="effect1_dropShadow_3046_38761"/><feBlend in="SourceGraphic" in2="effect1_dropShadow_3046_38761" mode="normal" result="shape"/></filter><linearGradient id="c" gradientUnits="userSpaceOnUse" x1="24" x2="26" y1=".000001" y2="48"><stop offset="0" stop-color="#fff" stop-opacity="0"/><stop offset="1" stop-color="#fff" stop-opacity=".12"/></linearGradient><linearGradient id="d"><stop offset="0" stop-color="#fff" stop-opacity=".8"/><stop offset="1" stop-color="#fff" stop-opacity=".5"/></linearGradient><linearGradient id="e" gradientUnits="userSpaceOnUse" x1="22.1575" x2="22.1575" xlink:href="#d" y1="8.16614" y2="30.1492"/><linearGradient id="f" gradientUnits="userSpaceOnUse" x1="26.9993" x2="26.9993" xlink:href="#d" y1="13.0076" y2="34.9906"/><linearGradient id="g" gradientUnits="userSpaceOnUse" x1="31.8411" x2="31.8411" xlink:href="#d" y1="17.8495" y2="39.8326"/><linearGradient id="h" gradientUnits="userSpaceOnUse" x1="27" x2="27" y1="0" y2="48"><stop offset="0" stop-color="#fff" stop-opacity=".12"/><stop offset="1" stop-color="#fff" stop-opacity="0"/></linearGradient><clipPath id="i"><rect height="48" rx="12" width="48" x="3"/></clipPath><g filter="url(#a)"><g clip-path="url(#i)"><rect fill="#0a0d12" height="48" rx="12" width="48" x="3"/><path d="m0 0h48v48h-48z" fill="url(#c)" transform="translate(3)"/><g filter="url(#b)"><path d="m32.3786 8.93657c2.2283 2.22823-.5414 8.61083-6.1864 14.25573-5.645 5.645-12.0275 8.4147-14.2558 6.1865-2.22822-2.2283.5415-8.6108 6.1865-14.2558 5.645-5.64493 12.0275-8.4147 14.2557-6.18643z" fill="url(#e)" opacity=".7"/><path d="m37.2204 13.778c2.2283 2.2283-.5415 8.6108-6.1864 14.2557-5.645 5.645-12.0275 8.4148-14.2558 6.1865-2.2282-2.2283.5415-8.6108 6.1865-14.2557 5.645-5.645 12.0275-8.4148 14.2557-6.1865z" fill="url(#f)" opacity=".5"/><path d="m42.0622 18.6199c2.2283 2.2283-.5415 8.6108-6.1864 14.2558-5.645 5.6449-12.0275 8.4147-14.2558 6.1864-2.2282-2.2283.5415-8.6108 6.1865-14.2557 5.645-5.645 12.0275-8.4148 14.2557-6.1865z" fill="url(#g)" opacity=".3"/></g></g><rect height="46" rx="11" stroke="url(#h)" stroke-width="2" width="46" x="4" y="1"/></g><g fill="#0a0d12"><path d="m63 33.0001v-18.36h13.176v3.429h-8.856v4.482h7.803v3.429h-7.803v7.02z"/><path d="m77.51 33.0001v-14.526h4.131v2.025c.918-1.728 2.322-2.484 3.807-2.484.594 0 1.134.162 1.431.459v3.483c-.486-.108-.999-.162-1.647-.162-2.484 0-3.591 1.404-3.591 3.699v7.506z"/><path d="m101.417 28.2211c-.756 3.348-3.4562 5.211-7.0202 5.211-4.509 0-7.29-2.916-7.29-7.695 0-4.941 2.808-7.722 7.128-7.722 4.347 0 7.0742 2.889 7.0742 7.641v.918h-9.9902c.216 2.322 1.296 3.564 3.078 3.564 1.35 0 2.268-.594 2.7-1.917zm-7.1822-6.912c-1.539 0-2.511.999-2.835 2.889h5.643c-.324-1.89-1.296-2.889-2.808-2.889z"/><path d="m108.488 33.4321c-3.726 0-6.075-2.916-6.075-7.695 0-4.941 2.403-7.722 6.075-7.722 1.539 0 2.781.648 3.672 1.89v-1.431h4.131v20.493h-4.131v-7.506c-.891 1.269-2.16 1.971-3.672 1.971zm.891-3.348c1.836 0 2.781-1.512 2.781-4.347 0-2.808-.972-4.374-2.781-4.374-1.782 0-2.727 1.539-2.727 4.374 0 2.808.972 4.347 2.727 4.347z"/><path d="m127.462 26.8171v-8.343h4.131v14.526h-4.131v-1.944c-.945 1.62-2.376 2.376-4.131 2.376-2.754 0-4.779-1.674-4.779-5.292v-9.666h4.131v8.829c0 1.863.702 2.781 2.16 2.781 1.593 0 2.619-1.404 2.619-3.267z"/><path d="m147.548 28.2211c-.756 3.348-3.456 5.211-7.02 5.211-4.509 0-7.29-2.916-7.29-7.695 0-4.941 2.808-7.722 7.128-7.722 4.347 0 7.074 2.889 7.074 7.641v.918h-9.99c.216 2.322 1.296 3.564 3.078 3.564 1.35 0 2.268-.594 2.7-1.917zm-7.182-6.912c-1.539 0-2.511.999-2.835 2.889h5.643c-.324-1.89-1.296-2.889-2.808-2.889z"/><path d="m149.165 33.0001v-14.526h4.131v1.917c.945-1.62 2.43-2.376 4.212-2.376 2.781 0 4.86 1.701 4.86 5.292v9.693h-4.131v-8.856c0-1.836-.729-2.781-2.241-2.781-1.647 0-2.7 1.431-2.7 3.294v8.343z"/><path d="m177.59 23.7121h-4.131c-.27-1.701-1.242-2.349-2.43-2.349-1.836 0-2.781 1.539-2.781 4.374 0 2.808.999 4.347 2.889 4.347 1.242 0 2.106-.702 2.403-2.052h4.131c-.621 3.645-3.24 5.4-6.615 5.4-4.347 0-7.047-2.943-7.047-7.695 0-4.941 2.754-7.722 7.02-7.722 3.375 0 6.048 1.89 6.561 5.697z"/><path d="m179.225 17.0161v-3.456h4.131v3.456zm0 15.984v-14.526h4.131v14.526z"/><path d="m185.593 17.0161v-3.456h4.131v3.456zm0 15.984v-14.526h4.131v14.526z"/></g></svg>