<svg fill="none" height="48" viewBox="0 0 175 48" width="175" xmlns="http://www.w3.org/2000/svg" xmlns:xlink="http://www.w3.org/1999/xlink"><filter id="a" color-interpolation-filters="sRGB" filterUnits="userSpaceOnUse" height="54" width="48" x="0" y="-3"><feFlood flood-opacity="0" result="BackgroundImageFix"/><feBlend in="SourceGraphic" in2="BackgroundImageFix" mode="normal" result="shape"/><feColorMatrix in="SourceAlpha" result="hardAlpha" type="matrix" values="0 0 0 0 0 0 0 0 0 0 0 0 0 0 0 0 0 0 127 0"/><feOffset dy="-3"/><feGaussianBlur stdDeviation="1.5"/><feComposite in2="hardAlpha" k2="-1" k3="1" operator="arithmetic"/><feColorMatrix type="matrix" values="0 0 0 0 0 0 0 0 0 0 0 0 0 0 0 0 0 0 0.1 0"/><feBlend in2="shape" mode="normal" result="effect1_innerShadow_3046_38775"/><feColorMatrix in="SourceAlpha" result="hardAlpha" type="matrix" values="0 0 0 0 0 0 0 0 0 0 0 0 0 0 0 0 0 0 127 0"/><feOffset dy="3"/><feGaussianBlur stdDeviation="1.5"/><feComposite in2="hardAlpha" k2="-1" k3="1" operator="arithmetic"/><feColorMatrix type="matrix" values="0 0 0 0 1 0 0 0 0 1 0 0 0 0 1 0 0 0 0.1 0"/><feBlend in2="effect1_innerShadow_3046_38775" mode="normal" result="effect2_innerShadow_3046_38775"/><feColorMatrix in="SourceAlpha" result="hardAlpha" type="matrix" values="0 0 0 0 0 0 0 0 0 0 0 0 0 0 0 0 0 0 127 0"/><feMorphology in="SourceAlpha" operator="erode" radius="1" result="effect3_innerShadow_3046_38775"/><feOffset/><feComposite in2="hardAlpha" k2="-1" k3="1" operator="arithmetic"/><feColorMatrix type="matrix" values="0 0 0 0 0.0627451 0 0 0 0 0.0941176 0 0 0 0 0.156863 0 0 0 0.24 0"/><feBlend in2="effect2_innerShadow_3046_38775" mode="normal" result="effect3_innerShadow_3046_38775"/></filter><filter id="b" color-interpolation-filters="sRGB" filterUnits="userSpaceOnUse" height="42" width="34.5" x="6.75" y="5.25"><feFlood flood-opacity="0" result="BackgroundImageFix"/><feColorMatrix in="SourceAlpha" result="hardAlpha" type="matrix" values="0 0 0 0 0 0 0 0 0 0 0 0 0 0 0 0 0 0 127 0"/><feMorphology in="SourceAlpha" operator="erode" radius="1.5" result="effect1_dropShadow_3046_38775"/><feOffset dy="2.25"/><feGaussianBlur stdDeviation="2.25"/><feComposite in2="hardAlpha" operator="out"/><feColorMatrix type="matrix" values="0 0 0 0 0.141176 0 0 0 0 0.141176 0 0 0 0 0.141176 0 0 0 0.1 0"/><feBlend in2="BackgroundImageFix" mode="normal" result="effect1_dropShadow_3046_38775"/><feBlend in="SourceGraphic" in2="effect1_dropShadow_3046_38775" mode="normal" result="shape"/></filter><linearGradient id="c" gradientUnits="userSpaceOnUse" x1="24" x2="26" y1=".000001" y2="48"><stop offset="0" stop-color="#fff" stop-opacity="0"/><stop offset="1" stop-color="#fff" stop-opacity=".12"/></linearGradient><linearGradient id="d" gradientUnits="userSpaceOnUse" x1="23.9993" x2="23.9993" y1="9" y2="39"><stop offset="0" stop-color="#fff" stop-opacity=".8"/><stop offset="1" stop-color="#fff" stop-opacity=".5"/></linearGradient><linearGradient id="e" gradientUnits="userSpaceOnUse" x1="24" x2="24" y1="0" y2="48"><stop offset="0" stop-color="#fff" stop-opacity=".12"/><stop offset="1" stop-color="#fff" stop-opacity="0"/></linearGradient><clipPath id="f"><rect height="48" rx="12" width="48"/></clipPath><g filter="url(#a)"><g clip-path="url(#f)"><rect fill="#22262f" height="48" rx="12" width="48"/><path d="m0 0h48v48h-48z" fill="url(#c)"/><g filter="url(#b)"><path clip-rule="evenodd" d="m24.556 9.05665c-.3672-.07553-.7461-.07553-1.1134 0-.4245.08732-.804.29987-1.1057.46885l-.0822.04593-10.2247 5.68037c-.0283.0157-.0574.0318-.0873.0482-.3193.1759-.7209.3971-1.0293.7317-.2666.2893-.4683.6322-.5917 1.0058-.1428.432-.1411.8905-.1398 1.2551.0001.034.0003.0673.0003.0996v11.2156c0 .0323-.0002.0656-.0003.0996-.0013.3646-.003.8231.1398 1.2551.1234.3736.3251.7165.5917 1.0058.3084.3346.71.5558 1.0293.7317.0299.0164.059.0325.0873.0482l10.2247 5.6804.0822.0459c.3017.169.6812.3815 1.1057.4688.3673.0756.7462.0756 1.1134 0 .4246-.0873.8041-.2998 1.1058-.4688l.0822-.0459 10.2247-5.6804c.0125-.007.0252-.014.038-.0211.0162-.0089.0326-.0179.0493-.0271.3193-.1759.7209-.3971 1.0292-.7317.2666-.2893.4684-.6322.5918-1.0058.1428-.432.1411-.8905.1398-1.2551-.0001-.034-.0003-.0673-.0003-.0996v-11.2156c0-.0323.0002-.0656.0003-.0996.0013-.3646.003-.8231-.1398-1.2551-.1234-.3736-.3252-.7165-.5918-1.0058-.3083-.3346-.7099-.5558-1.0292-.7317l-.0012-.0006c-.0294-.0162-.0582-.0321-.0861-.0476l-10.2247-5.68037-.0822-.04594c-.3017-.16897-.6812-.38152-1.1058-.46884zm-.9593 2.93045c.2094-.1163.3163-.1751.396-.2135l.0066-.0032.0066.0032c.0798.0384.1867.0972.3961.2135l9.1876 5.1043-9.5903 5.3279-9.5903-5.3279zm-10.6511 7.4525 9.672 5.3734v10.6559l-9.2456-5.1364c-.221-.1228-.3338-.1861-.413-.2366l-.0067-.0043-.0005-.0079c-.0056-.0937-.0062-.2231-.0062-.4759z" fill="url(#d)" fill-rule="evenodd"/></g></g><rect height="46" rx="11" stroke="url(#e)" stroke-width="2" width="46" x="1" y="1"/></g><g fill="#fff"><path d="m74.64 32.9999h-14.64v-3.42h2.1v-12.66h-2.1v-3.42h8.85v3.42h-2.73v12.66h5.1l.6-3.78 3.42.3z"/><path d="m77.5685 17.0699v-4.02h3.87v4.02zm5.82 15.93h-7.47v-2.91h1.8v-7.68h-1.95v-2.94h5.82v10.62h1.8z"/><path d="m99.9734 22.4099h-1.8v9.9c0 2.16-.61 3.92-1.83 5.28-1.22 1.38-3.1 2.07-5.64 2.07-1.4 0-2.74-.29-4.02-.87-1.28-.56-2.21-1.62-2.79-3.18l2.97-1.68c.96 1.78 2.25 2.67 3.87 2.67 1.04 0 1.89-.38 2.55-1.14.68-.74 1.02-1.79 1.02-3.15v-1.77c-.36.68-.89 1.26-1.59 1.74s-1.65.72-2.85.72c-1.58 0-2.96-.55-4.14-1.65s-1.77-2.72-1.77-4.86c0-2.02.54-3.74 1.62-5.16s2.57-2.13 4.47-2.13c1.06 0 1.94.22 2.64.66s1.24 1.01 1.62 1.71v-2.1h5.67zm-5.67 3.75v-.33c0-1.12-.29-1.99-.87-2.61-.56-.64-1.28-.96-2.16-.96-.86 0-1.58.32-2.16.96-.56.64-.84 1.65-.84 3.03 0 1.3.25 2.24.75 2.82.52.58 1.19.87 2.01.87 1.06 0 1.87-.38 2.43-1.14s.84-1.64.84-2.64z"/><path d="m116.814 32.9999h-7.47v-2.91h1.8v-4.71c0-1.16-.21-1.99-.63-2.49-.4-.5-.98-.75-1.74-.75-.88 0-1.57.27-2.07.81-.48.54-.74 1.25-.78 2.13v5.01h1.8v2.91h-7.47v-2.91h1.8v-14.79h-1.8v-2.94h5.67v9.18c.9-1.56 2.35-2.34 4.35-2.34 1.28 0 2.39.38 3.33 1.14s1.41 1.94 1.41 3.54v6.21h1.8z"/><path d="m128.786 28.7999c-.2 1.56-.74 2.7-1.62 3.42s-2.02 1.08-3.42 1.08c-1.5 0-2.72-.37-3.66-1.11-.92-.76-1.38-1.84-1.38-3.24v-6.72h-1.92v-2.76h1.92v-4.11h3.87v4.11h4.86v2.76h-4.86v6.06c0 1.18.54 1.77 1.62 1.77.24 0 .56-.1.96-.3.42-.22.69-.83.81-1.83z"/><path d="m143.859 25.9199c0 2-.53 3.73-1.59 5.19-1.04 1.46-2.58 2.19-4.62 2.19-2.06 0-3.51-.78-4.35-2.34-.04.34-.09.68-.15 1.02-.04.34-.09.68-.15 1.02h-3.87c.14-.7.26-1.4.36-2.1s.15-1.39.15-2.07v-13.53h-1.8v-2.94h5.67v9.69c.36-.78.9-1.45 1.62-2.01.74-.56 1.72-.84 2.94-.84 1.7 0 3.09.59 4.17 1.77s1.62 2.83 1.62 4.95zm-4.02.33c0-1.3-.28-2.29-.84-2.97s-1.3-1.02-2.22-1.02c-1.04 0-1.85.38-2.43 1.14-.56.76-.84 1.64-.84 2.64v.33c0 1.1.27 2.03.81 2.79.56.74 1.35 1.11 2.37 1.11.88 0 1.62-.32 2.22-.96.62-.66.93-1.68.93-3.06z"/><path d="m158.972 26.2499c0 2.14-.7 3.85-2.1 5.13s-3.18 1.92-5.34 1.92c-2.08 0-3.78-.6-5.1-1.8-1.3-1.22-1.95-2.92-1.95-5.1 0-1.98.6-3.68 1.8-5.1s3.02-2.13 5.46-2.13 4.25.71 5.43 2.13c1.2 1.4 1.8 3.05 1.8 4.95zm-3.99-.12c0-1.38-.32-2.39-.96-3.03s-1.42-.96-2.34-.96c-1 0-1.79.36-2.37 1.08-.56.7-.84 1.69-.84 2.97 0 1.16.26 2.14.78 2.94.54.8 1.34 1.2 2.4 1.2 1 0 1.8-.37 2.4-1.11.62-.76.93-1.79.93-3.09z"/><path d="m174.353 32.9999h-6.81v-2.91h.99l-1.98-2.13-1.95 2.13h.87v2.91h-6.33v-2.91h1.86l3.72-3.75-4.08-3.96h-1.35v-2.91h6.84v2.91h-.93l1.83 2.01 1.95-2.01h-.9v-2.91h5.88v2.91h-1.35l-3.69 3.54 4.11 4.17h1.32z"/></g></svg>