<svg fill="none" height="48" viewBox="0 0 48 48" width="48" xmlns="http://www.w3.org/2000/svg" xmlns:xlink="http://www.w3.org/1999/xlink"><filter id="a" color-interpolation-filters="sRGB" filterUnits="userSpaceOnUse" height="54" width="48" x="0" y="-3"><feFlood flood-opacity="0" result="BackgroundImageFix"/><feBlend in="SourceGraphic" in2="BackgroundImageFix" mode="normal" result="shape"/><feColorMatrix in="SourceAlpha" result="hardAlpha" type="matrix" values="0 0 0 0 0 0 0 0 0 0 0 0 0 0 0 0 0 0 127 0"/><feOffset dy="-3"/><feGaussianBlur stdDeviation="1.5"/><feComposite in2="hardAlpha" k2="-1" k3="1" operator="arithmetic"/><feColorMatrix type="matrix" values="0 0 0 0 0 0 0 0 0 0 0 0 0 0 0 0 0 0 0.1 0"/><feBlend in2="shape" mode="normal" result="effect1_innerShadow_3051_46913"/><feColorMatrix in="SourceAlpha" result="hardAlpha" type="matrix" values="0 0 0 0 0 0 0 0 0 0 0 0 0 0 0 0 0 0 127 0"/><feOffset dy="3"/><feGaussianBlur stdDeviation="1.5"/><feComposite in2="hardAlpha" k2="-1" k3="1" operator="arithmetic"/><feColorMatrix type="matrix" values="0 0 0 0 1 0 0 0 0 1 0 0 0 0 1 0 0 0 0.1 0"/><feBlend in2="effect1_innerShadow_3051_46913" mode="normal" result="effect2_innerShadow_3051_46913"/><feColorMatrix in="SourceAlpha" result="hardAlpha" type="matrix" values="0 0 0 0 0 0 0 0 0 0 0 0 0 0 0 0 0 0 127 0"/><feMorphology in="SourceAlpha" operator="erode" radius="1" result="effect3_innerShadow_3051_46913"/><feOffset/><feComposite in2="hardAlpha" k2="-1" k3="1" operator="arithmetic"/><feColorMatrix type="matrix" values="0 0 0 0 0.0627451 0 0 0 0 0.0941176 0 0 0 0 0.156863 0 0 0 0.24 0"/><feBlend in2="effect2_innerShadow_3051_46913" mode="normal" result="effect3_innerShadow_3051_46913"/></filter><filter id="b" color-interpolation-filters="sRGB" filterUnits="userSpaceOnUse" height="42" width="36" x="6" y="5.25"><feFlood flood-opacity="0" result="BackgroundImageFix"/><feColorMatrix in="SourceAlpha" result="hardAlpha" type="matrix" values="0 0 0 0 0 0 0 0 0 0 0 0 0 0 0 0 0 0 127 0"/><feMorphology in="SourceAlpha" operator="erode" radius="1.5" result="effect1_dropShadow_3051_46913"/><feOffset dy="2.25"/><feGaussianBlur stdDeviation="2.25"/><feComposite in2="hardAlpha" operator="out"/><feColorMatrix type="matrix" values="0 0 0 0 0.141176 0 0 0 0 0.141176 0 0 0 0 0.141176 0 0 0 0.1 0"/><feBlend in2="BackgroundImageFix" mode="normal" result="effect1_dropShadow_3051_46913"/><feBlend in="SourceGraphic" in2="effect1_dropShadow_3051_46913" mode="normal" result="shape"/></filter><linearGradient id="c" gradientUnits="userSpaceOnUse" x1="24" x2="26" y1=".000001" y2="48"><stop offset="0" stop-color="#fff" stop-opacity="0"/><stop offset="1" stop-color="#fff" stop-opacity=".12"/></linearGradient><linearGradient id="d" gradientUnits="userSpaceOnUse" x1="24" x2="24" y1="9" y2="39"><stop offset="0" stop-color="#fff" stop-opacity=".8"/><stop offset="1" stop-color="#fff" stop-opacity=".5"/></linearGradient><linearGradient id="e" gradientUnits="userSpaceOnUse" x1="24" x2="24" y1="0" y2="48"><stop offset="0" stop-color="#fff" stop-opacity=".12"/><stop offset="1" stop-color="#fff" stop-opacity="0"/></linearGradient><clipPath id="f"><rect height="48" rx="12" width="48"/></clipPath><g filter="url(#a)"><g clip-path="url(#f)"><rect fill="#6927da" height="48" rx="12" width="48"/><path d="m0 0h48v48h-48z" fill="url(#c)"/><g filter="url(#b)"><path d="m17.0841 10.6363 3.5176 13.1277v-14.43289c.2789-.06509.5608-.12241.8455-.17173v14.60602l3.9563-14.7654c.2851.02581.568.05958.8482.1011l-3.9882 14.8843 7.9276-13.731c.2582.1162.5126.2395.7629.3696l-7.9571 13.7822 11.3598-11.3599c.2048.1937.4042.3931.5978.5979l-11.3615 11.3615 13.7838-7.9581c.1301.2503.2533.5047.3695.763l-13.7276 7.9256 14.8803-3.9871c.0414.2803.0752.5631.101.8482l-14.7651 3.9563h14.6055c-.0493.2847-.1067.5666-.1718.8455h-14.436l13.1303 3.5183c-.1349.2582-.277.512-.4262.7611l-12.9192-3.4617 10.7905 6.2299c-.2042.2101-.4146.4142-.6308.6121l-10.5815-6.1093 8.0069 8.0069c-.2533.148-.5113.2888-.7737.4221l-7.8319-7.832 5.1315 8.8882c-.2809.0794-.5652.1509-.8526.2141l-5.0119-8.6808 2.4165 9.0182c-.2154.0092-.432.0138-.6496.0138-.0743 0-.1485-.0005-.2225-.0016l-2.3612-8.8123v8.5927c-.2847-.0493-.5666-.1067-.8455-.1717v-8.4196l-2.082 7.77c-.2655-.1047-.5274-.2167-.7853-.3359l2.0503-7.6518-3.8488 6.6664c-.2383-.1526-.472-.3117-.7008-.4772l3.8185-6.6139-5.3476 5.3476c-.2048-.1936-.4042-.393-.5979-.5978l5.346-5.3459-6.612 3.8174c-.1655-.2288-.3246-.4625-.4773-.7007l6.6695-3.8506-7.6556 2.0513c-.1191-.2579-.2312-.5198-.3359-.7853l7.77-2.082h-8.41967c-.0651-.2789-.12244-.5608-.17177-.8455h8.58914l-8.80886-2.3603c-.00109-.0746-.00164-.1494-.00164-.2242 0-.2171.0046-.4331.01371-.6479l9.01939 2.4167-8.68218-5.0126c.06322-.2874.13466-.5717.21407-.8527l8.89171 5.1337-7.8352-7.8353c.1333-.2624.2741-.5204.4221-.7736l8.0101 8.0102-6.1117-10.5858c.1979-.2162.4021-.4265.6122-.6308l6.231 10.7925-3.4622-12.9212c.2491-.1491.5029-.2912.7611-.426z" fill="url(#d)"/></g></g><rect height="46" rx="11" stroke="url(#e)" stroke-width="2" width="46" x="1" y="1"/></g></svg>