<svg fill="none" height="48" viewBox="0 0 210 48" width="210" xmlns="http://www.w3.org/2000/svg" xmlns:xlink="http://www.w3.org/1999/xlink"><filter id="a" color-interpolation-filters="sRGB" filterUnits="userSpaceOnUse" height="54" width="48" x="0" y="-3"><feFlood flood-opacity="0" result="BackgroundImageFix"/><feBlend in="SourceGraphic" in2="BackgroundImageFix" mode="normal" result="shape"/><feColorMatrix in="SourceAlpha" result="hardAlpha" type="matrix" values="0 0 0 0 0 0 0 0 0 0 0 0 0 0 0 0 0 0 127 0"/><feOffset dy="-3"/><feGaussianBlur stdDeviation="1.5"/><feComposite in2="hardAlpha" k2="-1" k3="1" operator="arithmetic"/><feColorMatrix type="matrix" values="0 0 0 0 0 0 0 0 0 0 0 0 0 0 0 0 0 0 0.1 0"/><feBlend in2="shape" mode="normal" result="effect1_innerShadow_3046_38801"/><feColorMatrix in="SourceAlpha" result="hardAlpha" type="matrix" values="0 0 0 0 0 0 0 0 0 0 0 0 0 0 0 0 0 0 127 0"/><feOffset dy="3"/><feGaussianBlur stdDeviation="1.5"/><feComposite in2="hardAlpha" k2="-1" k3="1" operator="arithmetic"/><feColorMatrix type="matrix" values="0 0 0 0 1 0 0 0 0 1 0 0 0 0 1 0 0 0 0.1 0"/><feBlend in2="effect1_innerShadow_3046_38801" mode="normal" result="effect2_innerShadow_3046_38801"/><feColorMatrix in="SourceAlpha" result="hardAlpha" type="matrix" values="0 0 0 0 0 0 0 0 0 0 0 0 0 0 0 0 0 0 127 0"/><feMorphology in="SourceAlpha" operator="erode" radius="1" result="effect3_innerShadow_3046_38801"/><feOffset/><feComposite in2="hardAlpha" k2="-1" k3="1" operator="arithmetic"/><feColorMatrix type="matrix" values="0 0 0 0 0.0627451 0 0 0 0 0.0941176 0 0 0 0 0.156863 0 0 0 0.24 0"/><feBlend in2="effect2_innerShadow_3046_38801" mode="normal" result="effect3_innerShadow_3046_38801"/></filter><filter id="b" color-interpolation-filters="sRGB" filterUnits="userSpaceOnUse" height="42" width="39" x="4.5" y="5.25"><feFlood flood-opacity="0" result="BackgroundImageFix"/><feColorMatrix in="SourceAlpha" result="hardAlpha" type="matrix" values="0 0 0 0 0 0 0 0 0 0 0 0 0 0 0 0 0 0 127 0"/><feMorphology in="SourceAlpha" operator="erode" radius="1.5" result="effect1_dropShadow_3046_38801"/><feOffset dy="2.25"/><feGaussianBlur stdDeviation="2.25"/><feComposite in2="hardAlpha" operator="out"/><feColorMatrix type="matrix" values="0 0 0 0 0.141176 0 0 0 0 0.141176 0 0 0 0 0.141176 0 0 0 0.1 0"/><feBlend in2="BackgroundImageFix" mode="normal" result="effect1_dropShadow_3046_38801"/><feBlend in="SourceGraphic" in2="effect1_dropShadow_3046_38801" mode="normal" result="shape"/></filter><linearGradient id="c" gradientUnits="userSpaceOnUse" x1="24" x2="26" y1=".000001" y2="48"><stop offset="0" stop-color="#fff" stop-opacity="0"/><stop offset="1" stop-color="#fff" stop-opacity=".12"/></linearGradient><linearGradient id="d" gradientUnits="userSpaceOnUse" x1="24" x2="24" y1="7.5" y2="40.5"><stop offset="0" stop-color="#fff" stop-opacity=".8"/><stop offset="1" stop-color="#fff" stop-opacity=".5"/></linearGradient><linearGradient id="e" gradientUnits="userSpaceOnUse" x1="24" x2="24" y1="0" y2="48"><stop offset="0" stop-color="#fff" stop-opacity=".12"/><stop offset="1" stop-color="#fff" stop-opacity="0"/></linearGradient><clipPath id="f"><rect height="48" rx="12" width="48"/></clipPath><g filter="url(#a)"><g clip-path="url(#f)"><rect fill="#175cd3" height="48" rx="12" width="48"/><path d="m0 0h48v48h-48z" fill="url(#c)"/><g filter="url(#b)"><path clip-rule="evenodd" d="m25.5 12.75c0-2.8995-2.3505-5.25-5.25-5.25h-6.75c-3.3137 0-6 2.6863-6 6v21c0 3.3137 2.6863 6 6 6h6.75c2.8995 0 5.25-2.3505 5.25-5.25 7.28 0 13.3818-4.7978 15-11.25-1.6182-6.4522-7.7199-11.25-15-11.25zm0 6.75v-6.75c-7.28 0-13.3818 4.7978-15 11.25 1.6182 6.4522 7.72 11.25 15 11.25v-6.75c2.4853 0 4.5-2.0147 4.5-4.5s-2.0147-4.5-4.5-4.5zm0 0v9c-2.4853 0-4.5-2.0147-4.5-4.5s2.0147-4.5 4.5-4.5z" fill="url(#d)" fill-rule="evenodd"/></g></g><rect height="46" rx="11" stroke="url(#e)" stroke-width="2" width="46" x="1" y="1"/></g><g fill="#fff"><path d="m68.154 33.2702c-2.664 0-4.689-.585-6.075-1.755-1.386-1.188-2.079-2.736-2.079-4.644h4.482c.036 1.026.387 1.782 1.053 2.268.666.468 1.575.702 2.727.702 2.268 0 3.402-.783 3.402-2.349 0-.648-.207-1.134-.621-1.458s-.981-.567-1.701-.729c-.72-.18-1.548-.36-2.484-.54-1.998-.396-3.573-1.026-4.725-1.89-1.134-.864-1.701-2.142-1.701-3.834 0-1.314.315-2.412.945-3.294.648-.882 1.548-1.548 2.7-1.998 1.17-.45 2.52-.675 4.05-.675 2.502 0 4.419.513 5.751 1.539 1.35 1.026 2.034 2.475 2.052 4.347h-4.455c-.018-.81-.315-1.431-.891-1.863-.576-.45-1.395-.675-2.457-.675-.936 0-1.674.189-2.214.567-.522.36-.783.864-.783 1.512 0 .576.171 1.017.513 1.323.36.306.873.54 1.539.702.666.144 1.467.297 2.403.459 1.278.216 2.43.54 3.456.972 1.026.414 1.836 1.026 2.43 1.836s.891 1.917.891 3.321c0 1.386-.342 2.538-1.026 3.456s-1.647 1.602-2.889 2.052c-1.224.432-2.655.648-4.293.648z"/><path d="m84.8548 33.2702c-2.358 0-4.113-.675-5.265-2.025-1.134-1.35-1.701-3.15-1.701-5.4v-.081c0-2.538.63-4.428 1.89-5.67 1.278-1.242 2.979-1.863 5.103-1.863 2.034 0 3.636.513 4.806 1.539s1.791 2.394 1.863 4.104h-4.05c-.072-.756-.342-1.323-.81-1.701s-1.071-.567-1.809-.567c-.882 0-1.575.261-2.079.783-.486.522-.729 1.224-.729 2.106v2.592c0 .882.243 1.575.729 2.079s1.17.756 2.052.756c.828 0 1.458-.216 1.89-.648.45-.432.702-.981.756-1.647h4.077c-.018 1.134-.315 2.124-.891 2.97-.558.846-1.341 1.503-2.349 1.971s-2.169.702-3.483.702z"/><path d="m93.7713 33.0002v-11.286c0-.99.297-1.773.891-2.349s1.368-.864 2.322-.864h5.9127v3.348h-4.9677v11.151z"/><path d="m111.044 33.2702c-1.602 0-2.943-.306-4.023-.918-1.063-.63-1.854-1.503-2.376-2.619-.522-1.134-.784-2.448-.784-3.942v-.243c0-1.566.289-2.889.865-3.969.576-1.098 1.377-1.926 2.403-2.484 1.044-.576 2.241-.864 3.591-.864 1.476 0 2.727.279 3.753.837 1.044.558 1.836 1.341 2.376 2.349s.81 2.187.81 3.537v1.836h-9.585v.756c0 .774.261 1.395.783 1.863.54.468 1.224.702 2.052.702.737 0 1.341-.162 1.809-.486.486-.324.774-.756.864-1.296h3.915c-.054.99-.36 1.854-.918 2.592s-1.315 1.314-2.268 1.728c-.954.414-2.043.621-3.267.621zm-2.97-9.18v.135h5.508v-.135c0-.972-.252-1.674-.756-2.106-.505-.45-1.161-.675-1.972-.675-.863 0-1.547.243-2.051.729-.486.468-.729 1.152-.729 2.052z"/><path d="m126.166 33.2702c-1.602 0-2.943-.306-4.023-.918-1.062-.63-1.854-1.503-2.376-2.619-.522-1.134-.783-2.448-.783-3.942v-.243c0-1.566.288-2.889.864-3.969.576-1.098 1.377-1.926 2.403-2.484 1.044-.576 2.241-.864 3.591-.864 1.476 0 2.727.279 3.753.837 1.044.558 1.836 1.341 2.376 2.349s.81 2.187.81 3.537v1.836h-9.585v.756c0 .774.261 1.395.783 1.863.54.468 1.224.702 2.052.702.738 0 1.341-.162 1.809-.486.486-.324.774-.756.864-1.296h3.915c-.054.99-.36 1.854-.918 2.592s-1.314 1.314-2.268 1.728-2.043.621-3.267.621zm-2.97-9.18v.135h5.508v-.135c0-.972-.252-1.674-.756-2.106-.504-.45-1.161-.675-1.971-.675-.864 0-1.548.243-2.052.729-.486.468-.729 1.152-.729 2.052z"/><path d="m135.051 33.0002v-14.499h3.861l.297 2.376h.243c.306-.792.837-1.431 1.593-1.917s1.656-.729 2.7-.729c1.548 0 2.772.477 3.672 1.431.9.936 1.35 2.421 1.35 4.455v8.883h-4.131v-8.343c0-1.17-.234-1.971-.702-2.403s-1.098-.648-1.89-.648c-.936 0-1.647.306-2.133.918-.468.612-.702 1.422-.702 2.43v8.046z"/><path d="m163.797 16.6652v-3.348h4.131v3.348zm0 5.184h-6.048v7.911h3.402v3.24h-4.347c-1.152 0-1.98-.297-2.484-.891-.486-.594-.729-1.368-.729-2.322v-7.938h-3.132v-3.348h3.132v-4.536h4.158v4.536h10.179v14.499h-4.131z"/><path d="m171.201 33.0002v-14.499h3.888l.27 2.295h.243c.306-.792.837-1.413 1.593-1.863s1.629-.675 2.619-.675c1.152 0 2.115.27 2.889.81s1.296 1.269 1.566 2.187h.189c.306-.954.864-1.692 1.674-2.214s1.764-.783 2.862-.783c1.512 0 2.709.45 3.591 1.35.9.882 1.35 2.286 1.35 4.212v9.18h-4.158v-8.424c0-1.08-.216-1.836-.648-2.268-.432-.45-1.026-.675-1.782-.675-.882 0-1.557.297-2.025.891-.45.576-.675 1.359-.675 2.349v8.127h-4.158v-8.424c0-1.08-.216-1.836-.648-2.268-.414-.45-1.017-.675-1.809-.675-.882 0-1.548.297-1.998.891-.45.576-.675 1.359-.675 2.349v8.127z"/><path d="m203.265 33.2702c-1.602 0-2.943-.306-4.023-.918-1.062-.63-1.854-1.503-2.376-2.619-.522-1.134-.783-2.448-.783-3.942v-.243c0-1.566.288-2.889.864-3.969.576-1.098 1.377-1.926 2.403-2.484 1.044-.576 2.241-.864 3.591-.864 1.476 0 2.727.279 3.753.837 1.044.558 1.836 1.341 2.376 2.349s.81 2.187.81 3.537v1.836h-9.585v.756c0 .774.261 1.395.783 1.863.54.468 1.224.702 2.052.702.738 0 1.341-.162 1.809-.486.486-.324.774-.756.864-1.296h3.915c-.054.99-.36 1.854-.918 2.592s-1.314 1.314-2.268 1.728-2.043.621-3.267.621zm-2.97-9.18v.135h5.508v-.135c0-.972-.252-1.674-.756-2.106-.504-.45-1.161-.675-1.971-.675-.864 0-1.548.243-2.052.729-.486.468-.729 1.152-.729 2.052z"/></g></svg>