<svg fill="none" height="48" viewBox="0 0 48 48" width="48" xmlns="http://www.w3.org/2000/svg"><path clip-rule="evenodd" d="m18.3279 33.2066c.8291-.9948 2.0572-1.5701 3.3523-1.5701h17.5925c4.82 0 8.7273-3.9073 8.7273-8.7272v-4.3637c0-4.8199-3.9073-8.72724-8.7273-8.72724h-3.4107c-1.295 0-2.5232.57524-3.3522 1.57014l-2.8377 3.4052c-.8291.9949-2.0572 1.5701-3.3523 1.5701h-17.59253c-4.81994 0-8.72727 3.9073-8.72727 8.7273v4.3636c0 4.82 3.90733 8.7273 8.72727 8.7273h3.41073c1.295 0 2.5232-.5752 3.3522-1.5701zm23.1266-14.661c0-1.205-.9768-2.1818-2.1818-2.1818h-6.6834c-1.2951 0-2.5232.5752-3.3523 1.5701l-2.8377 3.4053c-.829.9948-2.0572 1.5701-3.3522 1.5701h-14.31983c-1.20498 0-2.18182.9768-2.18182 2.1818v4.3636c0 1.205.97684 2.1818 2.18182 2.1818h6.68343c1.2951 0 2.5232-.5752 3.3523-1.5701l2.8377-3.4052c.829-.9949 2.0572-1.5701 3.3522-1.5701h14.3198c1.205 0 2.1818-.9768 2.1818-2.1818z" fill="#fff" fill-rule="evenodd"/></svg>