<svg fill="none" height="48" viewBox="0 0 206 48" width="206" xmlns="http://www.w3.org/2000/svg" xmlns:xlink="http://www.w3.org/1999/xlink"><filter id="a" color-interpolation-filters="sRGB" filterUnits="userSpaceOnUse" height="54" width="48" x="0" y="-3"><feFlood flood-opacity="0" result="BackgroundImageFix"/><feBlend in="SourceGraphic" in2="BackgroundImageFix" mode="normal" result="shape"/><feColorMatrix in="SourceAlpha" result="hardAlpha" type="matrix" values="0 0 0 0 0 0 0 0 0 0 0 0 0 0 0 0 0 0 127 0"/><feOffset dy="-3"/><feGaussianBlur stdDeviation="1.5"/><feComposite in2="hardAlpha" k2="-1" k3="1" operator="arithmetic"/><feColorMatrix type="matrix" values="0 0 0 0 0 0 0 0 0 0 0 0 0 0 0 0 0 0 0.1 0"/><feBlend in2="shape" mode="normal" result="effect1_innerShadow_3046_38765"/><feColorMatrix in="SourceAlpha" result="hardAlpha" type="matrix" values="0 0 0 0 0 0 0 0 0 0 0 0 0 0 0 0 0 0 127 0"/><feOffset dy="3"/><feGaussianBlur stdDeviation="1.5"/><feComposite in2="hardAlpha" k2="-1" k3="1" operator="arithmetic"/><feColorMatrix type="matrix" values="0 0 0 0 1 0 0 0 0 1 0 0 0 0 1 0 0 0 0.1 0"/><feBlend in2="effect1_innerShadow_3046_38765" mode="normal" result="effect2_innerShadow_3046_38765"/><feColorMatrix in="SourceAlpha" result="hardAlpha" type="matrix" values="0 0 0 0 0 0 0 0 0 0 0 0 0 0 0 0 0 0 127 0"/><feMorphology in="SourceAlpha" operator="erode" radius="1" result="effect3_innerShadow_3046_38765"/><feOffset/><feComposite in2="hardAlpha" k2="-1" k3="1" operator="arithmetic"/><feColorMatrix type="matrix" values="0 0 0 0 0.0627451 0 0 0 0 0.0941176 0 0 0 0 0.156863 0 0 0 0.24 0"/><feBlend in2="effect2_innerShadow_3046_38765" mode="normal" result="effect3_innerShadow_3046_38765"/></filter><filter id="b" color-interpolation-filters="sRGB" filterUnits="userSpaceOnUse" height="42" width="33.752" x="7.625" y="5.25"><feFlood flood-opacity="0" result="BackgroundImageFix"/><feColorMatrix in="SourceAlpha" result="hardAlpha" type="matrix" values="0 0 0 0 0 0 0 0 0 0 0 0 0 0 0 0 0 0 127 0"/><feMorphology in="SourceAlpha" operator="erode" radius="1.5" result="effect1_dropShadow_3046_38765"/><feOffset dy="2.25"/><feGaussianBlur stdDeviation="2.25"/><feComposite in2="hardAlpha" operator="out"/><feColorMatrix type="matrix" values="0 0 0 0 0.141176 0 0 0 0 0.141176 0 0 0 0 0.141176 0 0 0 0.1 0"/><feBlend in2="BackgroundImageFix" mode="normal" result="effect1_dropShadow_3046_38765"/><feBlend in="SourceGraphic" in2="effect1_dropShadow_3046_38765" mode="normal" result="shape"/></filter><linearGradient id="c" gradientUnits="userSpaceOnUse" x1="24" x2="26" y1=".000001" y2="48"><stop offset="0" stop-color="#fff" stop-opacity="0"/><stop offset="1" stop-color="#fff" stop-opacity=".12"/></linearGradient><linearGradient id="d"><stop offset="0" stop-color="#fff" stop-opacity=".8"/><stop offset="1" stop-color="#fff" stop-opacity=".5"/></linearGradient><linearGradient id="e" gradientUnits="userSpaceOnUse" x1="24.0369" x2="24.0369" xlink:href="#d" y1="8.25" y2="39.75"/><linearGradient id="f" gradientUnits="userSpaceOnUse" x1="31.902" x2="31.902" xlink:href="#d" y1="17.3281" y2="39.7499"/><linearGradient id="g" gradientUnits="userSpaceOnUse" x1="24" x2="24" y1="0" y2="48"><stop offset="0" stop-color="#fff" stop-opacity=".12"/><stop offset="1" stop-color="#fff" stop-opacity="0"/></linearGradient><clipPath id="h"><rect height="48" rx="12" width="48"/></clipPath><g filter="url(#a)"><g clip-path="url(#h)"><rect fill="#1570ef" height="48" rx="12" width="48"/><path d="m0 0h48v48h-48z" fill="url(#c)"/><g filter="url(#b)"><path d="m24.5001 23.1948 12.9486-7.4707-12.9486-7.4741-12.9488 7.4741z" fill="url(#e)"/><path d="m23.5738 24.7989-12.9488-7.4707v14.9477l12.9488 7.4741z" fill="url(#e)"/><path d="m25.4277 24.7989v14.951l12.9485-7.474v-14.9478z" fill="url(#f)" opacity=".5"/></g></g><rect height="46" rx="11" stroke="url(#g)" stroke-width="2" width="46" x="1" y="1"/></g><g fill="#fff"><path d="m72.285 19.07v-5.2941h4.563v19.224h-4.563v-9.776h-7.722v9.776h-4.563v-19.224h4.563v5.2941z"/><path clip-rule="evenodd" d="m92.6839 26.4389v.837h-10.314c.144.954.495 1.683 1.053 2.187s1.269.756 2.133.756c1.2069 0 2.0776-.4063 2.612-1.2189h4.0909c-.4106 1.2777-1.1779 2.305-2.3019 3.0819-1.224.828-2.691 1.242-4.401 1.242-2.16 0-3.906-.666-5.238-1.998s-1.998-3.096-1.998-5.292c0-2.214.657-3.978 1.971-5.292 1.296-1.332 3.033-1.998 5.211-1.998 2.16 0 3.906.693 5.238 2.079 1.296 1.404 1.944 3.276 1.944 5.616zm-7.236-4.59c-1.728 0-2.745.918-3.051 2.754h6.156c-.144-.864-.486-1.539-1.026-2.025s-1.233-.729-2.079-.729z" fill-rule="evenodd"/><path d="m101.435 25.8179 4.806-6.75h-4.671l-.513.729c-.594.864-1.2241 1.836-1.8901 2.916-.27-.432-.909-1.404-1.917-2.916l-.513-.729h-4.806l4.86 6.804-5.13 7.128h4.698l.351-.513c.864-1.296 1.647-2.466 2.349-3.51 1.2601 1.926 2.0341 3.096 2.3221 3.51l.351.513h4.779z"/><path clip-rule="evenodd" d="m119.399 32.9999h-4.023v-1.566c-.936 1.26-2.421 1.89-4.455 1.89-1.53 0-2.763-.378-3.699-1.134-.918-.756-1.377-1.8-1.377-3.132 0-2.592 1.818-4.041 5.454-4.347l2.187-.189c1.206-.126 1.809-.585 1.809-1.377 0-.936-.711-1.404-2.133-1.404-.864 0-1.476.135-1.836.405-.342.252-.549.729-.621 1.431h-4.185c.252-3.222 2.475-4.833 6.669-4.833 4.14 0 6.21 1.431 6.21 4.293zm-7.209-2.511c.954 0 1.71-.243 2.268-.729.558-.504.837-1.251.837-2.241v-1.026c-.252.27-.72.45-1.404.54l-1.728.189c-1.35.144-2.025.702-2.025 1.674 0 .486.18.873.54 1.161s.864.432 1.512.432z" fill-rule="evenodd"/><path d="m133.051 20.0939c-.864-.9-2.034-1.35-3.51-1.35-1.782 0-3.204.72-4.266 2.16v-7.128h-4.212v19.224h4.212v-7.776c0-.918.252-1.629.756-2.133s1.134-.756 1.89-.756c1.494 0 2.241.792 2.241 2.376v8.289h4.212v-9.126c0-1.638-.441-2.898-1.323-3.78z"/><path clip-rule="evenodd" d="m150.061 26.4389v.837h-10.314c.144.954.495 1.683 1.053 2.187s1.269.756 2.133.756c1.207 0 2.078-.4063 2.612-1.2189h4.091c-.411 1.2777-1.178 2.305-2.302 3.0819-1.224.828-2.691 1.242-4.401 1.242-2.16 0-3.906-.666-5.238-1.998s-1.998-3.096-1.998-5.292c0-2.214.657-3.978 1.971-5.292 1.296-1.332 3.033-1.998 5.211-1.998 2.16 0 3.906.693 5.238 2.079 1.296 1.404 1.944 3.276 1.944 5.616zm-7.236-4.59c-1.728 0-2.745.918-3.051 2.754h6.156c-.144-.864-.486-1.539-1.026-2.025s-1.233-.729-2.079-.729z" fill-rule="evenodd"/><path clip-rule="evenodd" d="m161.077 13.7759v6.966c-.954-1.332-2.313-1.998-4.077-1.998-1.872 0-3.348.657-4.428 1.971-1.098 1.314-1.647 3.087-1.647 5.319s.549 4.005 1.647 5.319c1.08 1.314 2.556 1.971 4.428 1.971 1.854 0 3.249-.711 4.185-2.133v1.809h4.104v-19.224zm.081 12.258c0 2.61-.999 3.915-2.997 3.915-1.98 0-2.97-1.269-2.97-3.807 0-1.296.261-2.286.783-2.97.522-.702 1.251-1.053 2.187-1.053 1.998 0 2.997 1.305 2.997 3.915z" fill-rule="evenodd"/><path d="m175.24 18.8519c.072 0 .378.018.918.054v3.834h-1.08c-2.466 0-3.699 1.26-3.699 3.78v6.48h-4.212v-13.932h4.104v2.592c.648-1.872 1.971-2.808 3.969-2.808z"/><path clip-rule="evenodd" d="m183.555 33.3239c2.214 0 3.987-.666 5.319-1.998 1.314-1.314 1.971-3.078 1.971-5.292 0-2.232-.657-4.005-1.971-5.319s-3.087-1.971-5.319-1.971-4.005.657-5.319 1.971c-1.332 1.332-1.998 3.105-1.998 5.319 0 2.196.666 3.96 1.998 5.292s3.105 1.998 5.319 1.998zm2.241-4.374c-.522.666-1.269.999-2.241.999-.99 0-1.746-.333-2.268-.999s-.783-1.638-.783-2.916.261-2.25.783-2.916 1.278-.999 2.268-.999c.972 0 1.719.333 2.241.999s.783 1.638.783 2.916-.261 2.25-.783 2.916z" fill-rule="evenodd"/><path d="m200.643 18.7439c1.476 0 2.646.45 3.51 1.35.882.882 1.323 2.142 1.323 3.78v9.126h-4.212v-8.289c0-1.584-.747-2.376-2.241-2.376-.756 0-1.386.252-1.89.756s-.756 1.215-.756 2.133v7.776h-4.212v-13.932h4.104v1.971c1.08-1.53 2.538-2.295 4.374-2.295z"/></g></svg>