<svg fill="none" height="48" viewBox="0 0 171 48" width="171" xmlns="http://www.w3.org/2000/svg" xmlns:xlink="http://www.w3.org/1999/xlink"><filter id="a" color-interpolation-filters="sRGB" filterUnits="userSpaceOnUse" height="54" width="48" x="0" y="-3"><feFlood flood-opacity="0" result="BackgroundImageFix"/><feBlend in="SourceGraphic" in2="BackgroundImageFix" mode="normal" result="shape"/><feColorMatrix in="SourceAlpha" result="hardAlpha" type="matrix" values="0 0 0 0 0 0 0 0 0 0 0 0 0 0 0 0 0 0 127 0"/><feOffset dy="-3"/><feGaussianBlur stdDeviation="1.5"/><feComposite in2="hardAlpha" k2="-1" k3="1" operator="arithmetic"/><feColorMatrix type="matrix" values="0 0 0 0 0 0 0 0 0 0 0 0 0 0 0 0 0 0 0.1 0"/><feBlend in2="shape" mode="normal" result="effect1_innerShadow_3046_38788"/><feColorMatrix in="SourceAlpha" result="hardAlpha" type="matrix" values="0 0 0 0 0 0 0 0 0 0 0 0 0 0 0 0 0 0 127 0"/><feOffset dy="3"/><feGaussianBlur stdDeviation="1.5"/><feComposite in2="hardAlpha" k2="-1" k3="1" operator="arithmetic"/><feColorMatrix type="matrix" values="0 0 0 0 1 0 0 0 0 1 0 0 0 0 1 0 0 0 0.1 0"/><feBlend in2="effect1_innerShadow_3046_38788" mode="normal" result="effect2_innerShadow_3046_38788"/><feColorMatrix in="SourceAlpha" result="hardAlpha" type="matrix" values="0 0 0 0 0 0 0 0 0 0 0 0 0 0 0 0 0 0 127 0"/><feMorphology in="SourceAlpha" operator="erode" radius="1" result="effect3_innerShadow_3046_38788"/><feOffset/><feComposite in2="hardAlpha" k2="-1" k3="1" operator="arithmetic"/><feColorMatrix type="matrix" values="0 0 0 0 0.0627451 0 0 0 0 0.0941176 0 0 0 0 0.156863 0 0 0 0.24 0"/><feBlend in2="effect2_innerShadow_3046_38788" mode="normal" result="effect3_innerShadow_3046_38788"/></filter><filter id="b" color-interpolation-filters="sRGB" filterUnits="userSpaceOnUse" height="42" width="39" x="4.5" y="5.25"><feFlood flood-opacity="0" result="BackgroundImageFix"/><feColorMatrix in="SourceAlpha" result="hardAlpha" type="matrix" values="0 0 0 0 0 0 0 0 0 0 0 0 0 0 0 0 0 0 127 0"/><feMorphology in="SourceAlpha" operator="erode" radius="1.5" result="effect1_dropShadow_3046_38788"/><feOffset dy="2.25"/><feGaussianBlur stdDeviation="2.25"/><feComposite in2="hardAlpha" operator="out"/><feColorMatrix type="matrix" values="0 0 0 0 0.141176 0 0 0 0 0.141176 0 0 0 0 0.141176 0 0 0 0.1 0"/><feBlend in2="BackgroundImageFix" mode="normal" result="effect1_dropShadow_3046_38788"/><feBlend in="SourceGraphic" in2="effect1_dropShadow_3046_38788" mode="normal" result="shape"/></filter><linearGradient id="c" gradientUnits="userSpaceOnUse" x1="24" x2="26" y1=".000001" y2="48"><stop offset="0" stop-color="#fff" stop-opacity="0"/><stop offset="1" stop-color="#fff" stop-opacity=".12"/></linearGradient><linearGradient id="d"><stop offset="0" stop-color="#fff" stop-opacity=".8"/><stop offset="1" stop-color="#fff" stop-opacity=".5"/></linearGradient><linearGradient id="e" gradientUnits="userSpaceOnUse" x1="24" x2="24" xlink:href="#d" y1="14.0999" y2="33.8997"/><linearGradient id="f" gradientUnits="userSpaceOnUse" x1="27.2992" x2="27.2992" xlink:href="#d" y1="27.2998" y2="33.8998"/><linearGradient id="g" gradientUnits="userSpaceOnUse" x1="25.6516" x2="25.6516" xlink:href="#d" y1="20.7002" y2="33.9001"/><linearGradient id="h" gradientUnits="userSpaceOnUse" x1="24" x2="24" y1="0" y2="48"><stop offset="0" stop-color="#fff" stop-opacity=".12"/><stop offset="1" stop-color="#fff" stop-opacity="0"/></linearGradient><clipPath id="i"><rect height="48" rx="12" width="48"/></clipPath><g filter="url(#a)"><g clip-path="url(#i)"><rect fill="#099250" height="48" rx="12" width="48"/><path d="m0 0h48v48h-48z" fill="url(#c)"/><g filter="url(#b)"><path d="m30.6 14.0999h-23.1l3.3 6.5999h19.8c3.6451 0 6.6 2.9549 6.6 6.6 0 3.645-2.9549 6.5999-6.6 6.5999 5.4676 0 9.9-4.4323 9.9-9.8999s-4.4324-9.8999-9.9-9.8999z" fill="url(#e)"/><path d="m23.0871 32.0756c-1.0971-2.1942.4985-4.7758 2.9516-4.7758h4.5605c1.8226 0 3.3 1.4775 3.3 3.3s-1.4774 3.3-3.3 3.3h-4.5605c-1.2499 0-2.3926-.7062-2.9516-1.8242z" fill="url(#f)" opacity=".3"/><path d="m30.6016 20.7002h-16.5l3.3 6.6h13.2c1.8225 0 3.3 1.4774 3.3 3.2999 0 1.8226-1.4775 3.3-3.3 3.3 3.645 0 6.6-2.9549 6.6-6.5999 0-3.6451-2.955-6.6-6.6-6.6z" fill="url(#g)" opacity=".6"/></g></g><rect height="46" rx="11" stroke="url(#h)" stroke-width="2" width="46" x="1" y="1"/></g><g fill="#fff"><path d="m149.18 17.376c-.971 0-1.68-.1773-2.128-.532-.43-.3733-.644-.952-.644-1.736 0-.8027.214-1.3813.644-1.736.448-.3733 1.157-.56 2.128-.56.952 0 1.652.1867 2.1.56.448.3547.672.9333.672 1.736 0 .784-.224 1.3627-.672 1.736-.448.3547-1.148.532-2.1.532z"/><path clip-rule="evenodd" d="m72.348 15.248c-1.064-.4853-2.352-.728-3.864-.728h-8.484v18.48h4.816v-6.16h3.668c1.512 0 2.8-.2427 3.864-.728s1.876-1.1853 2.436-2.1.84-2.0253.84-3.332-.28-2.4173-.84-3.332-1.372-1.6147-2.436-2.1zm-2.352 7.364c-.504.4107-1.26.616-2.268.616h-2.912v-5.096h2.912c1.008 0 1.764.2147 2.268.644.5227.4107.784 1.0453.784 1.904s-.2613 1.5027-.784 1.932z" fill-rule="evenodd"/><path clip-rule="evenodd" d="m79.8896 32.412c1.1387.5787 2.4827.868 4.032.868.9707 0 1.8947-.14 2.772-.42.896-.28 1.6614-.6907 2.296-1.232.6534-.56 1.1107-1.2413 1.372-2.044l-3.808-1.26c-.2053.504-.5226.896-.952 1.176-.4106.28-.9706.42-1.68.42-.6346 0-1.176-.1213-1.624-.364-.448-.2613-.7933-.672-1.036-1.232-.1348-.3215-.2322-.6948-.2921-1.12h9.5601c.0374-.224.0654-.504.084-.84.0187-.336.028-.672.028-1.008 0-1.288-.2706-2.4267-.812-3.416-.5413-1.008-1.3346-1.792-2.38-2.352-1.0266-.5787-2.2773-.868-3.752-.868-1.4373 0-2.716.2893-3.836.868-1.1013.5787-1.96 1.4093-2.576 2.492s-.924 2.3893-.924 3.92.308 2.8373.924 3.92 1.484 1.9133 2.604 2.492zm1.1074-7.756c.0504-.3207.1199-.61.2086-.868.224-.5973.5414-1.036.952-1.316.4294-.28.9427-.42 1.54-.42.84 0 1.456.2987 1.848.896.2973.4324.487 1.0017.5691 1.708z" fill-rule="evenodd"/><path d="m97.6445 24.152c-.28.4667-.42 1.064-.42 1.792v7.056h-4.76v-14h4.2l.196 3.024c.3546-1.0453.8773-1.8573 1.568-2.436.7093-.5787 1.6055-.868 2.6875-.868.355 0 .654.028.896.084.262.056.467.1307.616.224l-.476 3.92c-.186-.0747-.429-.1307-.728-.168-.28-.056-.625-.084-1.036-.084-.5595 0-1.0822.1213-1.5675.364-.4854.2427-.8774.6067-1.176 1.092z"/><path clip-rule="evenodd" d="m106.292 32.412c1.138.5787 2.482.868 4.032.868.97 0 1.894-.14 2.772-.42.896-.28 1.661-.6907 2.296-1.232.653-.56 1.11-1.2413 1.372-2.044l-3.808-1.26c-.206.504-.523.896-.952 1.176-.411.28-.971.42-1.68.42-.635 0-1.176-.1213-1.624-.364-.448-.2613-.794-.672-1.036-1.232-.135-.3215-.233-.6948-.292-1.12h9.56c.037-.224.065-.504.084-.84.018-.336.028-.672.028-1.008 0-1.288-.271-2.4267-.812-3.416-.542-1.008-1.335-1.792-2.38-2.352-1.027-.5787-2.278-.868-3.752-.868-1.438 0-2.716.2893-3.836.868-1.102.5787-1.96 1.4093-2.576 2.492s-.924 2.3893-.924 3.92.308 2.8373.924 3.92 1.484 1.9133 2.604 2.492zm1.107-7.756c.05-.3207.12-.61.209-.868.224-.5973.541-1.036.952-1.316.429-.28.942-.42 1.54-.42.84 0 1.456.2987 1.848.896.297.4324.487 1.0017.569 1.708z" fill-rule="evenodd"/><path clip-rule="evenodd" d="m125.447 39.02c-1.214 0-2.325-.1493-3.333-.448-1.008-.28-1.848-.784-2.52-1.512-.653-.7093-1.073-1.708-1.26-2.996l4.592-.588c.075.8213.336 1.4467.784 1.876.467.448 1.139.672 2.017.672.821 0 1.446-.2613 1.876-.784.447-.5227.671-1.26.671-2.212v-2.716c-.41.6907-.98 1.2507-1.708 1.68-.709.4107-1.549.616-2.519.616-1.176 0-2.203-.2707-3.081-.812-.858-.5413-1.521-1.3253-1.987-2.352-.467-1.0453-.701-2.2867-.701-3.724 0-1.4747.252-2.7347.757-3.78.504-1.0453 1.185-1.8387 2.043-2.38.878-.56 1.867-.84 2.969-.84 1.232 0 2.23.308 2.996.924.765.5973 1.306 1.3813 1.623 2.352l.113-2.996h4.283v12.88c0 1.736-.308 3.1173-.924 4.144-.616 1.0453-1.493 1.8013-2.631 2.268-1.139.4853-2.492.728-4.06.728zm.252-9.884c.783 0 1.409-.2893 1.876-.868.466-.5787.699-1.4467.699-2.604 0-1.12-.224-1.9693-.671-2.548-.448-.5973-1.083-.896-1.904-.896-.542 0-1.009.1307-1.4.392-.393.2613-.701.644-.924 1.148-.206.504-.309 1.1387-.309 1.904 0 1.1947.234 2.072.7 2.632.467.56 1.111.84 1.933.84z" fill-rule="evenodd"/><path d="m140.005 22.024-.196-3.024h-4.2v14h4.76v-7.056c0-.728.14-1.3253.42-1.792.298-.4853.69-.8493 1.176-1.092.485-.2427 1.008-.364 1.568-.364.41 0 .756.028 1.036.084.298.0373.541.0933.728.168l.476-3.92c-.15-.0933-.355-.168-.616-.224-.243-.056-.542-.084-.896-.084-1.083 0-1.979.2893-2.688.868-.691.5787-1.214 1.3907-1.568 2.436z"/><path d="m165.812 19.28c-.709-.3733-1.549-.56-2.52-.56-1.082 0-2.034.252-2.856.756-.821.4853-1.465 1.2227-1.932 2.212l-.008.0184-.132-2.7064h-4.256v14h4.76v-7.392c0-.7653.112-1.3907.336-1.876s.532-.8307.924-1.036c.392-.224.812-.336 1.26-.336.598 0 1.074.1867 1.428.56.374.3733.56 1.064.56 2.072v6.972c0 .8587.178 1.5773.532 2.156.355.5787.84 1.008 1.456 1.288.635.2987 1.354.448 2.156.448.654 0 1.167-.056 1.54-.168.392-.0933.822-.252 1.288-.476l.336-2.856c-.224.112-.438.1867-.644.224-.186.0373-.42.056-.7.056-.336 0-.625-.0933-.868-.28-.224-.2053-.336-.5413-.336-1.008v-7.672c0-1.1013-.205-2.016-.616-2.744-.41-.728-.98-1.2787-1.708-1.652z"/><path d="m151.56 19v14h-4.76v-14z"/></g></svg>