<svg fill="none" height="54" viewBox="0 0 145 54" width="145" xmlns="http://www.w3.org/2000/svg" xmlns:xlink="http://www.w3.org/1999/xlink"><filter id="a" color-interpolation-filters="sRGB" filterUnits="userSpaceOnUse" height="57" width="54" x="0" y="-3"><feFlood flood-opacity="0" result="BackgroundImageFix"/><feColorMatrix in="SourceAlpha" result="hardAlpha" type="matrix" values="0 0 0 0 0 0 0 0 0 0 0 0 0 0 0 0 0 0 127 0"/><feOffset dy="1"/><feGaussianBlur stdDeviation=".5"/><feComposite in2="hardAlpha" operator="out"/><feColorMatrix type="matrix" values="0 0 0 0 0.162923 0 0 0 0 0.162923 0 0 0 0 0.162923 0 0 0 0.08 0"/><feBlend in2="BackgroundImageFix" mode="normal" result="effect1_dropShadow_3046_38797"/><feColorMatrix in="SourceAlpha" result="hardAlpha" type="matrix" values="0 0 0 0 0 0 0 0 0 0 0 0 0 0 0 0 0 0 127 0"/><feMorphology in="SourceAlpha" operator="erode" radius="1" result="effect2_dropShadow_3046_38797"/><feOffset dy="3"/><feGaussianBlur stdDeviation="2"/><feComposite in2="hardAlpha" operator="out"/><feColorMatrix type="matrix" values="0 0 0 0 0.164706 0 0 0 0 0.164706 0 0 0 0 0.164706 0 0 0 0.14 0"/><feBlend in2="effect1_dropShadow_3046_38797" mode="normal" result="effect2_dropShadow_3046_38797"/><feBlend in="SourceGraphic" in2="effect2_dropShadow_3046_38797" mode="normal" result="shape"/><feColorMatrix in="SourceAlpha" result="hardAlpha" type="matrix" values="0 0 0 0 0 0 0 0 0 0 0 0 0 0 0 0 0 0 127 0"/><feOffset dy="-3"/><feGaussianBlur stdDeviation="1.5"/><feComposite in2="hardAlpha" k2="-1" k3="1" operator="arithmetic"/><feColorMatrix type="matrix" values="0 0 0 0 0 0 0 0 0 0 0 0 0 0 0 0 0 0 0.1 0"/><feBlend in2="shape" mode="normal" result="effect3_innerShadow_3046_38797"/><feColorMatrix in="SourceAlpha" result="hardAlpha" type="matrix" values="0 0 0 0 0 0 0 0 0 0 0 0 0 0 0 0 0 0 127 0"/><feOffset dy="3"/><feGaussianBlur stdDeviation="1.5"/><feComposite in2="hardAlpha" k2="-1" k3="1" operator="arithmetic"/><feColorMatrix type="matrix" values="0 0 0 0 1 0 0 0 0 1 0 0 0 0 1 0 0 0 0.1 0"/><feBlend in2="effect3_innerShadow_3046_38797" mode="normal" result="effect4_innerShadow_3046_38797"/><feColorMatrix in="SourceAlpha" result="hardAlpha" type="matrix" values="0 0 0 0 0 0 0 0 0 0 0 0 0 0 0 0 0 0 127 0"/><feMorphology in="SourceAlpha" operator="erode" radius="1" result="effect5_innerShadow_3046_38797"/><feOffset/><feComposite in2="hardAlpha" k2="-1" k3="1" operator="arithmetic"/><feColorMatrix type="matrix" values="0 0 0 0 0.0627451 0 0 0 0 0.0941176 0 0 0 0 0.156863 0 0 0 0.24 0"/><feBlend in2="effect4_innerShadow_3046_38797" mode="normal" result="effect5_innerShadow_3046_38797"/></filter><filter id="b" color-interpolation-filters="sRGB" filterUnits="userSpaceOnUse" height="42" width="36" x="9" y="5.25"><feFlood flood-opacity="0" result="BackgroundImageFix"/><feColorMatrix in="SourceAlpha" result="hardAlpha" type="matrix" values="0 0 0 0 0 0 0 0 0 0 0 0 0 0 0 0 0 0 127 0"/><feMorphology in="SourceAlpha" operator="erode" radius="1.5" result="effect1_dropShadow_3046_38797"/><feOffset dy="2.25"/><feGaussianBlur stdDeviation="2.25"/><feComposite in2="hardAlpha" operator="out"/><feColorMatrix type="matrix" values="0 0 0 0 0.141176 0 0 0 0 0.141176 0 0 0 0 0.141176 0 0 0 0.1 0"/><feBlend in2="BackgroundImageFix" mode="normal" result="effect1_dropShadow_3046_38797"/><feBlend in="SourceGraphic" in2="effect1_dropShadow_3046_38797" mode="normal" result="shape"/></filter><linearGradient id="c" gradientUnits="userSpaceOnUse" x1="24" x2="26" y1=".000001" y2="48"><stop offset="0" stop-color="#fff" stop-opacity="0"/><stop offset="1" stop-color="#fff" stop-opacity=".12"/></linearGradient><linearGradient id="d" gradientUnits="userSpaceOnUse" x1="27" x2="27" y1="9" y2="39"><stop offset="0" stop-color="#fff" stop-opacity=".8"/><stop offset="1" stop-color="#fff" stop-opacity=".5"/></linearGradient><linearGradient id="e" gradientUnits="userSpaceOnUse" x1="27" x2="27" y1="0" y2="48"><stop offset="0" stop-color="#fff" stop-opacity=".12"/><stop offset="1" stop-color="#fff" stop-opacity="0"/></linearGradient><clipPath id="f"><rect height="48" rx="12" width="48" x="3"/></clipPath><g filter="url(#a)"><g clip-path="url(#f)"><rect fill="#0a0d12" height="48" rx="12" width="48" x="3"/><path d="m0 0h48v48h-48z" fill="url(#c)" transform="translate(3)"/><g clip-rule="evenodd" fill="url(#d)" fill-rule="evenodd" filter="url(#b)"><path d="m25.875 20.25v-11.25h2.25v11.25z"/><path d="m25.875 39v-11.25h2.25v11.25z"/><path d="m28.8566 20.553 7.9549-7.955 1.591 1.591-6.3639 6.364z"/><path d="m15.5983 33.8112 7.955-7.9549 1.591 1.591-7.955 7.9549z"/><path d="m32.0384 27.4472 6.3639 6.364-1.5909 1.5909-7.955-7.9549z"/><path d="m17.1891 12.598 7.955 7.9549-1.591 1.591-7.9549-7.955z"/><path d="m25.875 22.875h16.125v2.25h-16.125z"/><path d="m12 22.875h11.25v2.25h-11.25z"/></g></g><rect height="46" rx="11" stroke="url(#e)" stroke-width="2" width="46" x="4" y="1"/></g><g fill="#0a0d12"><path d="m78.93 32.8111v.189h-4.644c-.243-1.269-.459-2.727-.675-4.482-.243-2.187-.918-2.835-3.483-2.835h-3.159v7.317h-3.969v-19.71h7.29c1.107 0 1.917.027 2.889.135 2.781.324 5.184 1.728 5.184 5.427 0 2.484-1.323 4.104-3.456 4.968 1.593.621 2.511 1.809 2.727 3.807.216 2.025.405 3.132.729 4.482zm-11.961-10.503h3.402c2.322 0 3.942-.621 3.942-2.808 0-1.998-1.08-2.808-3.807-2.808h-3.537z"/><path d="m86.5299 18.3661c4.212 0 5.778 1.809 5.967 4.32.054.729.081 1.404.081 2.214v8.1h-3.483l-.216-1.89c-.648 1.917-2.349 2.268-4.455 2.268-2.619 0-4.671-1.485-4.671-4.266 0-3.564 2.727-4.86 8.235-4.86h.783v-.513c0-1.404-.459-2.295-2.403-2.295-1.701 0-2.457.594-2.619 1.917h-3.537c.108-3.078 1.998-4.995 6.318-4.995zm-3.024 10.287c0 1.053.837 1.647 2.16 1.647 1.512 0 3.105-.864 3.105-2.268v-1.134c-3.402-.162-5.265.189-5.265 1.755z"/><path d="m108.793 13.2901v19.71h-3.537l-.243-2.295c-.675 2.133-2.484 2.673-4.644 2.673-4.3204 0-6.2104-2.889-6.2104-7.452 0-4.968 2.349-7.56 6.4264-7.56 1.809 0 3.537.432 4.347 2.133v-7.209zm-10.4224 12.663c0 2.511.972 4.293 3.2944 4.293 1.917 0 3.267-1.08 3.267-4.239v-.513c0-3.105-1.62-4.023-3.186-4.023-2.2954 0-3.3754 1.647-3.3754 4.482z"/><path d="m115.129 18.7441v14.256h-3.861v-14.256zm-4.05-4.455c0-1.161.945-2.106 2.106-2.106 1.188 0 2.133.945 2.133 2.106 0 1.188-.945 2.106-2.133 2.106-1.161 0-2.106-.918-2.106-2.106z"/><path d="m122.355 33.3781c-2.889 0-4.59-1.215-4.914-3.834-.108-.729-.135-1.404-.135-2.565v-8.235h3.861v8.424c0 1.863.567 3.078 2.592 3.078 1.755 0 2.97-1.188 2.97-3.834v-7.668h3.861v14.256h-3.537l-.135-2.187c-.621 1.998-2.214 2.565-4.563 2.565z"/><path d="m138.356 18.3661c4.05 0 5.778 1.566 5.967 4.563h-3.726c-.189-1.323-1.08-1.647-2.322-1.647-1.134 0-1.998.432-1.998 1.242 0 .864.702 1.35 2.916 1.701 3.753.567 5.562 1.863 5.562 4.671 0 3.024-2.754 4.482-6.183 4.482-4.05 0-6.129-1.431-6.507-4.671h3.78c.243 1.296 1.053 1.728 2.835 1.728 1.404 0 2.241-.459 2.241-1.215 0-.945-.972-1.485-3.078-1.809-3.78-.621-5.4-1.755-5.4-4.644 0-2.619 2.322-4.401 5.913-4.401z"/></g></svg>