<svg fill="none" height="48" viewBox="0 0 190 48" width="190" xmlns="http://www.w3.org/2000/svg" xmlns:xlink="http://www.w3.org/1999/xlink"><filter id="a" color-interpolation-filters="sRGB" filterUnits="userSpaceOnUse" height="54" width="48" x="0" y="-3"><feFlood flood-opacity="0" result="BackgroundImageFix"/><feBlend in="SourceGraphic" in2="BackgroundImageFix" mode="normal" result="shape"/><feColorMatrix in="SourceAlpha" result="hardAlpha" type="matrix" values="0 0 0 0 0 0 0 0 0 0 0 0 0 0 0 0 0 0 127 0"/><feOffset dy="-3"/><feGaussianBlur stdDeviation="1.5"/><feComposite in2="hardAlpha" k2="-1" k3="1" operator="arithmetic"/><feColorMatrix type="matrix" values="0 0 0 0 0 0 0 0 0 0 0 0 0 0 0 0 0 0 0.1 0"/><feBlend in2="shape" mode="normal" result="effect1_innerShadow_3046_38758"/><feColorMatrix in="SourceAlpha" result="hardAlpha" type="matrix" values="0 0 0 0 0 0 0 0 0 0 0 0 0 0 0 0 0 0 127 0"/><feOffset dy="3"/><feGaussianBlur stdDeviation="1.5"/><feComposite in2="hardAlpha" k2="-1" k3="1" operator="arithmetic"/><feColorMatrix type="matrix" values="0 0 0 0 1 0 0 0 0 1 0 0 0 0 1 0 0 0 0.1 0"/><feBlend in2="effect1_innerShadow_3046_38758" mode="normal" result="effect2_innerShadow_3046_38758"/><feColorMatrix in="SourceAlpha" result="hardAlpha" type="matrix" values="0 0 0 0 0 0 0 0 0 0 0 0 0 0 0 0 0 0 127 0"/><feMorphology in="SourceAlpha" operator="erode" radius="1" result="effect3_innerShadow_3046_38758"/><feOffset/><feComposite in2="hardAlpha" k2="-1" k3="1" operator="arithmetic"/><feColorMatrix type="matrix" values="0 0 0 0 0.0627451 0 0 0 0 0.0941176 0 0 0 0 0.156863 0 0 0 0.24 0"/><feBlend in2="effect2_innerShadow_3046_38758" mode="normal" result="effect3_innerShadow_3046_38758"/></filter><filter id="b" color-interpolation-filters="sRGB" filterUnits="userSpaceOnUse" height="42" width="36" x="6" y="5.25"><feFlood flood-opacity="0" result="BackgroundImageFix"/><feColorMatrix in="SourceAlpha" result="hardAlpha" type="matrix" values="0 0 0 0 0 0 0 0 0 0 0 0 0 0 0 0 0 0 127 0"/><feMorphology in="SourceAlpha" operator="erode" radius="1.5" result="effect1_dropShadow_3046_38758"/><feOffset dy="2.25"/><feGaussianBlur stdDeviation="2.25"/><feComposite in2="hardAlpha" operator="out"/><feColorMatrix type="matrix" values="0 0 0 0 0.141176 0 0 0 0 0.141176 0 0 0 0 0.141176 0 0 0 0.1 0"/><feBlend in2="BackgroundImageFix" mode="normal" result="effect1_dropShadow_3046_38758"/><feBlend in="SourceGraphic" in2="effect1_dropShadow_3046_38758" mode="normal" result="shape"/></filter><linearGradient id="c" gradientUnits="userSpaceOnUse" x1="24" x2="26" y1=".000001" y2="48"><stop offset="0" stop-color="#fff" stop-opacity="0"/><stop offset="1" stop-color="#fff" stop-opacity=".12"/></linearGradient><linearGradient id="d" gradientUnits="userSpaceOnUse" x1="24" x2="24" y1="9" y2="39"><stop offset="0" stop-color="#fff" stop-opacity=".8"/><stop offset="1" stop-color="#fff" stop-opacity=".5"/></linearGradient><linearGradient id="e" gradientUnits="userSpaceOnUse" x1="24" x2="24" y1="0" y2="48"><stop offset="0" stop-color="#fff" stop-opacity=".12"/><stop offset="1" stop-color="#fff" stop-opacity="0"/></linearGradient><clipPath id="f"><rect height="48" rx="12" width="48"/></clipPath><g filter="url(#a)"><g clip-path="url(#f)"><rect fill="#6927da" height="48" rx="12" width="48"/><path d="m0 0h48v48h-48z" fill="url(#c)"/><g filter="url(#b)"><path d="m17.0841 10.6363 3.5176 13.1277v-14.43289c.2789-.06509.5608-.12241.8455-.17173v14.60602l3.9563-14.7654c.2851.02581.568.05958.8482.1011l-3.9882 14.8843 7.9276-13.731c.2582.1162.5126.2395.7629.3696l-7.9571 13.7822 11.3598-11.3599c.2048.1937.4042.3931.5978.5979l-11.3615 11.3615 13.7838-7.9581c.1301.2503.2533.5047.3695.763l-13.7276 7.9256 14.8803-3.9871c.0414.2803.0752.5631.101.8482l-14.7651 3.9563h14.6055c-.0493.2847-.1067.5666-.1718.8455h-14.436l13.1303 3.5183c-.1349.2582-.277.512-.4262.7611l-12.9192-3.4617 10.7905 6.2299c-.2042.2101-.4146.4142-.6308.6121l-10.5815-6.1093 8.0069 8.0069c-.2533.148-.5113.2888-.7737.4221l-7.8319-7.832 5.1315 8.8882c-.2809.0794-.5652.1509-.8526.2141l-5.0119-8.6808 2.4165 9.0182c-.2154.0092-.432.0138-.6496.0138-.0743 0-.1485-.0005-.2225-.0016l-2.3612-8.8123v8.5927c-.2847-.0493-.5666-.1067-.8455-.1717v-8.4196l-2.082 7.77c-.2655-.1047-.5274-.2167-.7853-.3359l2.0503-7.6518-3.8488 6.6664c-.2383-.1526-.472-.3117-.7008-.4772l3.8185-6.6139-5.3476 5.3476c-.2048-.1936-.4042-.393-.5979-.5978l5.346-5.3459-6.612 3.8174c-.1655-.2288-.3246-.4625-.4773-.7007l6.6695-3.8506-7.6556 2.0513c-.1191-.2579-.2312-.5198-.3359-.7853l7.77-2.082h-8.41967c-.0651-.2789-.12244-.5608-.17177-.8455h8.58914l-8.80886-2.3603c-.00109-.0746-.00164-.1494-.00164-.2242 0-.2171.0046-.4331.01371-.6479l9.01939 2.4167-8.68218-5.0126c.06322-.2874.13466-.5717.21407-.8527l8.89171 5.1337-7.8352-7.8353c.1333-.2624.2741-.5204.4221-.7736l8.0101 8.0102-6.1117-10.5858c.1979-.2162.4021-.4265.6122-.6308l6.231 10.7925-3.4622-12.9212c.2491-.1491.5029-.2912.7611-.426z" fill="url(#d)"/></g></g><rect height="46" rx="11" stroke="url(#e)" stroke-width="2" width="46" x="1" y="1"/></g><g fill="#fff"><path d="m74.121 13.7759v4.077h-9.558v3.483h8.437v3.861h-8.437v7.803h-4.563v-16.724c0-1.3807 1.1193-2.5 2.5-2.5z"/><path d="m87.1327 31.3259c-1.332 1.332-3.105 1.998-5.319 1.998s-3.987-.666-5.319-1.998-1.998-3.096-1.998-5.292c0-2.214.666-3.987 1.998-5.319 1.314-1.314 3.087-1.971 5.319-1.971s4.005.657 5.319 1.971 1.971 3.087 1.971 5.319c0 2.214-.657 3.978-1.971 5.292zm-5.319-1.377c.972 0 1.719-.333 2.241-.999s.783-1.638.783-2.916-.261-2.25-.783-2.916-1.269-.999-2.241-.999c-.99 0-1.746.333-2.268.999s-.783 1.638-.783 2.916.261 2.25.783 2.916 1.278.999 2.268.999z"/><path d="m97.0111 33.3239c-2.178 0-3.915-.666-5.211-1.998s-1.944-3.096-1.944-5.292c0-2.232.648-4.005 1.944-5.319s3.033-1.971 5.211-1.971c1.908 0 3.4649.504 4.6709 1.512 1.224.99 1.935 2.34 2.133 4.05h-4.1849c-.234-1.422-1.107-2.133-2.619-2.133-1.926 0-2.889 1.287-2.889 3.861 0 2.556.963 3.834 2.889 3.834 1.62 0 2.52-.783 2.7-2.349h4.1849c-.126 1.764-.819 3.177-2.079 4.239-1.26 1.044-2.8619 1.566-4.8059 1.566z"/><path d="m114.413 20.6879v-1.62h4.239v13.932h-4.104v-1.809c-.864 1.422-2.196 2.133-3.996 2.133-1.926 0-3.42-.648-4.482-1.944s-1.593-3.078-1.593-5.346.531-4.05 1.593-5.346 2.556-1.944 4.482-1.944c1.692 0 2.979.648 3.861 1.944zm-2.808 9.261c1.926 0 2.889-1.305 2.889-3.915s-.963-3.915-2.889-3.915c-1.908 0-2.862 1.341-2.862 4.023 0 2.538.954 3.807 2.862 3.807z"/><path d="m125.206 33.1079c-1.638 0-2.826-.315-3.564-.945s-1.107-1.647-1.107-3.051v-15.336h4.212v14.877c0 .468.099.792.297.972.198.162.549.243 1.053.243h.945v3.132c-.504.072-1.116.108-1.836.108z"/><path d="m128.228 16.2759c0-1.3807 1.119-2.5 2.5-2.5h6.248c2.214 0 3.951.585 5.211 1.755 1.26 1.152 1.89 2.727 1.89 4.725s-.63 3.582-1.89 4.752c-1.26 1.152-2.997 1.728-5.211 1.728h-4.185v6.264h-4.563zm4.563 6.599h3.888c.9 0 1.593-.225 2.079-.675.504-.45.756-1.098.756-1.944s-.252-1.494-.756-1.944-1.197-.675-2.079-.675h-3.888z"/><path d="m156.784 31.3259c-1.332 1.332-3.105 1.998-5.319 1.998s-3.987-.666-5.319-1.998-1.998-3.096-1.998-5.292c0-2.214.666-3.987 1.998-5.319 1.314-1.314 3.087-1.971 5.319-1.971s4.005.657 5.319 1.971 1.971 3.087 1.971 5.319c0 2.214-.657 3.978-1.971 5.292zm-5.319-1.377c.972 0 1.719-.333 2.241-.999s.783-1.638.783-2.916-.261-2.25-.783-2.916-1.269-.999-2.241-.999c-.99 0-1.746.333-2.268.999s-.783 1.638-.783 2.916.261 2.25.783 2.916 1.278.999 2.268.999z"/><path d="m162.181 17.6099c-.612 0-1.134-.207-1.566-.621-.414-.432-.621-.945-.621-1.539 0-.612.207-1.125.621-1.539.432-.432.954-.648 1.566-.648.594 0 1.098.216 1.512.648.432.414.648.927.648 1.539 0 .594-.216 1.107-.648 1.539-.414.414-.918.621-1.512.621zm2.106 15.39h-4.212v-13.932h4.212z"/><path d="m174.684 18.7439c1.476 0 2.646.45 3.51 1.35.882.882 1.323 2.142 1.323 3.78v9.126h-4.212v-8.289c0-1.584-.747-2.376-2.241-2.376-.756 0-1.386.252-1.89.756s-.756 1.215-.756 2.133v7.776h-4.212v-13.932h4.104v1.971c1.08-1.53 2.538-2.295 4.374-2.295z"/><path d="m189.031 19.0679v3.078h-2.673v6.507c0 .468.117.792.351.972.234.162.648.243 1.242.243h1.08v3.132c-.504.072-1.152.108-1.944.108-1.746 0-3.006-.306-3.78-.918-.774-.63-1.161-1.656-1.161-3.078v-6.966h-2.079v-3.078h2.079v-4.131h4.212v4.131z"/></g></svg>