<svg fill="none" height="48" viewBox="0 0 163 48" width="163" xmlns="http://www.w3.org/2000/svg" xmlns:xlink="http://www.w3.org/1999/xlink"><filter id="a" color-interpolation-filters="sRGB" filterUnits="userSpaceOnUse" height="54" width="48" x="0" y="-3"><feFlood flood-opacity="0" result="BackgroundImageFix"/><feBlend in="SourceGraphic" in2="BackgroundImageFix" mode="normal" result="shape"/><feColorMatrix in="SourceAlpha" result="hardAlpha" type="matrix" values="0 0 0 0 0 0 0 0 0 0 0 0 0 0 0 0 0 0 127 0"/><feOffset dy="-3"/><feGaussianBlur stdDeviation="1.5"/><feComposite in2="hardAlpha" k2="-1" k3="1" operator="arithmetic"/><feColorMatrix type="matrix" values="0 0 0 0 0 0 0 0 0 0 0 0 0 0 0 0 0 0 0.1 0"/><feBlend in2="shape" mode="normal" result="effect1_innerShadow_3046_38790"/><feColorMatrix in="SourceAlpha" result="hardAlpha" type="matrix" values="0 0 0 0 0 0 0 0 0 0 0 0 0 0 0 0 0 0 127 0"/><feOffset dy="3"/><feGaussianBlur stdDeviation="1.5"/><feComposite in2="hardAlpha" k2="-1" k3="1" operator="arithmetic"/><feColorMatrix type="matrix" values="0 0 0 0 1 0 0 0 0 1 0 0 0 0 1 0 0 0 0.1 0"/><feBlend in2="effect1_innerShadow_3046_38790" mode="normal" result="effect2_innerShadow_3046_38790"/><feColorMatrix in="SourceAlpha" result="hardAlpha" type="matrix" values="0 0 0 0 0 0 0 0 0 0 0 0 0 0 0 0 0 0 127 0"/><feMorphology in="SourceAlpha" operator="erode" radius="1" result="effect3_innerShadow_3046_38790"/><feOffset/><feComposite in2="hardAlpha" k2="-1" k3="1" operator="arithmetic"/><feColorMatrix type="matrix" values="0 0 0 0 0.0627451 0 0 0 0 0.0941176 0 0 0 0 0.156863 0 0 0 0.24 0"/><feBlend in2="effect2_innerShadow_3046_38790" mode="normal" result="effect3_innerShadow_3046_38790"/></filter><filter id="b" color-interpolation-filters="sRGB" filterUnits="userSpaceOnUse" height="42" width="34.5" x="6.75" y="5.25"><feFlood flood-opacity="0" result="BackgroundImageFix"/><feColorMatrix in="SourceAlpha" result="hardAlpha" type="matrix" values="0 0 0 0 0 0 0 0 0 0 0 0 0 0 0 0 0 0 127 0"/><feMorphology in="SourceAlpha" operator="erode" radius="1.5" result="effect1_dropShadow_3046_38790"/><feOffset dy="2.25"/><feGaussianBlur stdDeviation="2.25"/><feComposite in2="hardAlpha" operator="out"/><feColorMatrix type="matrix" values="0 0 0 0 0.141176 0 0 0 0 0.141176 0 0 0 0 0.141176 0 0 0 0.1 0"/><feBlend in2="BackgroundImageFix" mode="normal" result="effect1_dropShadow_3046_38790"/><feBlend in="SourceGraphic" in2="effect1_dropShadow_3046_38790" mode="normal" result="shape"/></filter><linearGradient id="c" gradientUnits="userSpaceOnUse" x1="24" x2="26" y1=".000001" y2="48"><stop offset="0" stop-color="#fff" stop-opacity="0"/><stop offset="1" stop-color="#fff" stop-opacity=".12"/></linearGradient><linearGradient id="d" gradientUnits="userSpaceOnUse" x1="24.0007" x2="24.0007" y1="9" y2="39"><stop offset="0" stop-color="#fff" stop-opacity=".8"/><stop offset="1" stop-color="#fff" stop-opacity=".5"/></linearGradient><linearGradient id="e" gradientUnits="userSpaceOnUse" x1="24" x2="24" y1="0" y2="48"><stop offset="0" stop-color="#fff" stop-opacity=".12"/><stop offset="1" stop-color="#fff" stop-opacity="0"/></linearGradient><clipPath id="f"><rect height="48" rx="12" width="48"/></clipPath><g filter="url(#a)"><g clip-path="url(#f)"><rect fill="#ff4405" height="48" rx="12" width="48"/><path d="m0 0h48v48h-48z" fill="url(#c)"/><g fill="url(#d)" filter="url(#b)"><path d="m28.5006 24c0 2.4853-2.0147 4.5-4.5 4.5s-4.5-2.0147-4.5-4.5 2.0147-4.5 4.5-4.5 4.5 2.0147 4.5 4.5z"/><path d="m28.5006 13.5c0 2.4853-2.0147 4.5-4.5 4.5s-4.5-2.0147-4.5-4.5 2.0147-4.5 4.5-4.5 4.5 2.0147 4.5 4.5z"/><path d="m37.5938 29.25c0 2.4853-2.0148 4.5-4.5001 4.5-2.4852 0-4.5-2.0147-4.5-4.5s2.0148-4.5 4.5-4.5c2.4853 0 4.5001 2.0147 4.5001 4.5z"/><path d="m37.5952 18.7502c0 2.4853-2.0147 4.5-4.5 4.5s-4.5-2.0147-4.5-4.5 2.0147-4.5 4.5-4.5 4.5 2.0147 4.5 4.5z"/><path d="m28.5006 34.5c0 2.4853-2.0147 4.5-4.5 4.5s-4.5-2.0147-4.5-4.5 2.0147-4.5 4.5-4.5 4.5 2.0147 4.5 4.5z"/><path d="m19.4077 18.75c0 2.4853-2.0147 4.5-4.5 4.5s-4.5-2.0147-4.5-4.5 2.0147-4.5 4.5-4.5 4.5 2.0147 4.5 4.5z"/><path d="m19.4062 29.2498c0 2.4853-2.0147 4.5-4.5 4.5-2.4852 0-4.5-2.0147-4.5-4.5s2.0148-4.5 4.5-4.5c2.4853 0 4.5 2.0147 4.5 4.5z"/></g></g><rect height="46" rx="11" stroke="url(#e)" stroke-width="2" width="46" x="1" y="1"/></g><g fill="#fff"><path d="m60 33v-19.6436h7.752c4.4165 0 7.185 2.4917 7.185 6.4468s-2.8213 6.4468-7.2378 6.4468h-3.6387v6.75zm4.0605-10.1514h3.4278c2.1489 0 3.4805-1.1733 3.4805-3.0454 0-1.872-1.3316-3.0454-3.4805-3.0454h-3.4278z"/><path d="m82.149 33.3164c-4.2188 0-7.0664-2.9004-7.0664-7.2642 0-4.3637 2.8476-7.2905 7.0664-7.2905 4.2319 0 7.0796 2.9268 7.0796 7.2905 0 4.3638-2.8477 7.2642-7.0796 7.2642zm0-3.1509c1.8984 0 3.164-1.5293 3.164-4.1133 0-2.5971-1.2788-4.1396-3.164-4.1396-1.8721 0-3.1509 1.5425-3.1509 4.1396 0 2.584 1.2656 4.1133 3.1509 4.1133z"/><path d="m95.3463 33c-3.1773 0-4.5088-1.0811-4.5088-3.7705v-15.8731h3.8891v15.504c0 .8701.3033 1.1601 1.1734 1.1601h.5669v2.9795z"/><path d="m102.189 33c-3.1772 0-4.5087-1.0811-4.5087-3.7705v-15.8731h3.8887v15.504c0 .8701.304 1.1601 1.174 1.1601h.567v2.9795z"/><path d="m104.523 33v-13.9219h3.889v13.9219zm1.938-15.6753c-1.279 0-2.215-.8833-2.215-2.0698s.936-2.0698 2.215-2.0698 2.215.8833 2.215 2.0698-.936 2.0698-2.215 2.0698z"/><path d="m114.517 25.2612v7.7388h-3.889v-13.9219h3.823v2.1885c.936-1.582 2.347-2.4785 4.35-2.4785 2.967 0 4.878 1.9775 4.878 5.4975v8.7144h-3.876v-8.0024c0-1.8721-.936-2.8609-2.557-2.8609-1.609 0-2.729.9624-2.729 3.1245z"/><path d="m130.166 33.2373c-2.781 0-4.785-1.3843-4.785-4.166 0-3.1377 2.531-4.0342 5.431-4.2979 2.545-.2505 3.441-.3691 3.441-1.2656v-.0923c0-1.0283-.857-1.7402-2.281-1.7402-1.45 0-2.399.7383-2.491 1.8061h-3.652c.171-2.874 2.439-4.6933 6.262-4.6933 3.81 0 5.999 1.793 5.999 4.7724v9.4395h-3.797v-1.9644h-.053c-.738 1.358-1.938 2.2017-4.074 2.2017zm1.081-2.7026c1.872 0 3.033-1.1206 3.033-2.6236v-1.3974c-.449.2505-1.543.435-2.795.6328-1.332.1977-2.387.7119-2.387 1.8193 0 .9888.844 1.5689 2.149 1.5689z"/><path d="m148.294 19.0781v3.0454h-2.847v6.5786c0 .9493.303 1.2525 1.357 1.2525h1.49v3.0454h-2.267c-3.059 0-4.47-1.1602-4.47-3.6914v-7.1851h-2.399v-3.0454h2.399v-3.7969h3.89v3.7969z"/><path d="m155.862 33.3164c-4.219 0-6.961-3.0322-6.961-7.2642 0-4.2451 2.835-7.2905 6.829-7.2905 4.1 0 6.856 2.9663 6.856 7.2114v1.0415h-9.901c.066 2.0567 1.252 3.3882 3.296 3.3882 1.516 0 2.557-.6987 2.913-1.7798h3.547c-.514 2.7686-3.204 4.6934-6.579 4.6934zm-3.151-8.7803h6.21c-.198-1.7402-1.358-2.8213-3.112-2.8213-1.74 0-2.887 1.0811-3.098 2.8213z"/></g></svg>