<svg fill="none" height="48" viewBox="0 0 181 48" width="181" xmlns="http://www.w3.org/2000/svg" xmlns:xlink="http://www.w3.org/1999/xlink"><filter id="a" color-interpolation-filters="sRGB" filterUnits="userSpaceOnUse" height="54" width="48" x="0" y="-3"><feFlood flood-opacity="0" result="BackgroundImageFix"/><feBlend in="SourceGraphic" in2="BackgroundImageFix" mode="normal" result="shape"/><feColorMatrix in="SourceAlpha" result="hardAlpha" type="matrix" values="0 0 0 0 0 0 0 0 0 0 0 0 0 0 0 0 0 0 127 0"/><feOffset dy="-3"/><feGaussianBlur stdDeviation="1.5"/><feComposite in2="hardAlpha" k2="-1" k3="1" operator="arithmetic"/><feColorMatrix type="matrix" values="0 0 0 0 0 0 0 0 0 0 0 0 0 0 0 0 0 0 0.1 0"/><feBlend in2="shape" mode="normal" result="effect1_innerShadow_3046_38802"/><feColorMatrix in="SourceAlpha" result="hardAlpha" type="matrix" values="0 0 0 0 0 0 0 0 0 0 0 0 0 0 0 0 0 0 127 0"/><feOffset dy="3"/><feGaussianBlur stdDeviation="1.5"/><feComposite in2="hardAlpha" k2="-1" k3="1" operator="arithmetic"/><feColorMatrix type="matrix" values="0 0 0 0 1 0 0 0 0 1 0 0 0 0 1 0 0 0 0.1 0"/><feBlend in2="effect1_innerShadow_3046_38802" mode="normal" result="effect2_innerShadow_3046_38802"/><feColorMatrix in="SourceAlpha" result="hardAlpha" type="matrix" values="0 0 0 0 0 0 0 0 0 0 0 0 0 0 0 0 0 0 127 0"/><feMorphology in="SourceAlpha" operator="erode" radius="1" result="effect3_innerShadow_3046_38802"/><feOffset/><feComposite in2="hardAlpha" k2="-1" k3="1" operator="arithmetic"/><feColorMatrix type="matrix" values="0 0 0 0 0.0627451 0 0 0 0 0.0941176 0 0 0 0 0.156863 0 0 0 0.24 0"/><feBlend in2="effect2_innerShadow_3046_38802" mode="normal" result="effect3_innerShadow_3046_38802"/></filter><filter id="b" color-interpolation-filters="sRGB" filterUnits="userSpaceOnUse" height="42" width="36" x="6" y="5.25"><feFlood flood-opacity="0" result="BackgroundImageFix"/><feColorMatrix in="SourceAlpha" result="hardAlpha" type="matrix" values="0 0 0 0 0 0 0 0 0 0 0 0 0 0 0 0 0 0 127 0"/><feMorphology in="SourceAlpha" operator="erode" radius="1.5" result="effect1_dropShadow_3046_38802"/><feOffset dy="2.25"/><feGaussianBlur stdDeviation="2.25"/><feComposite in2="hardAlpha" operator="out"/><feColorMatrix type="matrix" values="0 0 0 0 0.141176 0 0 0 0 0.141176 0 0 0 0 0.141176 0 0 0 0.1 0"/><feBlend in2="BackgroundImageFix" mode="normal" result="effect1_dropShadow_3046_38802"/><feBlend in="SourceGraphic" in2="effect1_dropShadow_3046_38802" mode="normal" result="shape"/></filter><linearGradient id="c" gradientUnits="userSpaceOnUse" x1="24" x2="26" y1=".000001" y2="48"><stop offset="0" stop-color="#fff" stop-opacity="0"/><stop offset="1" stop-color="#fff" stop-opacity=".12"/></linearGradient><linearGradient id="d"><stop offset="0" stop-color="#fff" stop-opacity=".8"/><stop offset="1" stop-color="#fff" stop-opacity=".5"/></linearGradient><linearGradient id="e" gradientUnits="userSpaceOnUse" x1="16.5" x2="16.5" xlink:href="#d" y1="9" y2="24"/><linearGradient id="f" gradientUnits="userSpaceOnUse" x1="24" x2="24" xlink:href="#d" y1="24" y2="39"/><linearGradient id="g" gradientUnits="userSpaceOnUse" x1="23.9993" x2="23.9993" xlink:href="#d" y1="19.2271" y2="23.9998"/><linearGradient id="h" gradientUnits="userSpaceOnUse" x1="23.9993" x2="23.9993" xlink:href="#d" y1="28.7729" y2="24.0002"/><linearGradient id="i" gradientUnits="userSpaceOnUse" x1="24" x2="24" y1="0" y2="48"><stop offset="0" stop-color="#fff" stop-opacity=".12"/><stop offset="1" stop-color="#fff" stop-opacity="0"/></linearGradient><clipPath id="j"><rect height="48" rx="12" width="48"/></clipPath><g filter="url(#a)"><g clip-path="url(#j)"><rect fill="#155eef" height="48" rx="12" width="48"/><path d="m0 0h48v48h-48z" fill="url(#c)"/><g filter="url(#b)"><path d="m18.2597 10.1418c1.8199-.75377 3.7705-1.1418 5.7403-1.1418v7.5c-.9849 0-1.9602.194-2.8701.5709-.91.3769-1.7368.9294-2.4332 1.6258s-1.2489 1.5232-1.6258 2.4332c-.3769.9099-.5709 1.8852-.5709 2.8701h-7.5c0-1.9698.38803-3.9204 1.1418-5.7403.7539-1.8199 1.8587-3.4734 3.2516-4.8663s3.0464-2.4977 4.8663-3.2516z" fill="url(#e)"/><path d="m9 24c0 1.9698.38803 3.9204 1.1418 5.7403.7539 1.8199 1.8587 3.4734 3.2516 4.8663s3.0464 2.4977 4.8663 3.2516c1.8199.7538 3.7705 1.1418 5.7403 1.1418s3.9204-.388 5.7403-1.1418c1.8199-.7539 3.4734-1.8587 4.8663-3.2516s2.4977-3.0464 3.2516-4.8663c.7538-1.8199 1.1418-3.7705 1.1418-5.7403h-7.5c0 .9849-.194 1.9602-.5709 2.8701-.3769.91-.9294 1.7368-1.6258 2.4332s-1.5232 1.2489-2.4332 1.6258c-.9099.3769-1.8852.5709-2.8701.5709s-1.9602-.194-2.8701-.5709c-.91-.3769-1.7368-.9294-2.4332-1.6258s-1.2489-1.5232-1.6258-2.4332c-.3769-.9099-.5709-1.8852-.5709-2.8701z" fill="url(#f)" opacity=".5"/><path d="m23.9993 19.2271c-2.6359 0-4.7727 2.1368-4.7727 4.7727h9.5454c0-2.6359-2.1368-4.7727-4.7727-4.7727z" fill="url(#g)" opacity=".5"/><path d="m23.9993 28.7729c-2.6359 0-4.7727-2.1368-4.7727-4.7727h9.5454c0 2.6359-2.1368 4.7727-4.7727 4.7727z" fill="url(#h)"/></g></g><rect height="46" rx="11" stroke="url(#i)" stroke-width="2" width="46" x="1" y="1"/></g><g fill="#fff"><path d="m65.8857 32.5138c-1.404-.594-2.484-1.485-3.24-2.646-.756-1.134-1.134-2.511-1.134-4.104h4.725c.027 1.188.432 2.133 1.242 2.781.783.675 1.89.999 3.294.999 1.35 0 2.43-.243 3.186-.756s1.134-1.215 1.134-2.106c0-.621-.216-1.107-.648-1.458-.432-.324-.945-.567-1.593-.729-.648-.135-1.539-.297-2.727-.459-1.674-.216-3.051-.459-4.104-.783-1.08-.297-1.998-.864-2.754-1.728s-1.134-2.079-1.134-3.699c0-1.323.324-2.484 1.026-3.483.675-.999 1.647-1.755 2.916-2.295 1.242-.54 2.727-.81 4.455-.81 1.674 0 3.186.297 4.509.864 1.296.594 2.322 1.404 3.078 2.457.729 1.053 1.107 2.295 1.107 3.699h-4.644c-.108-.972-.513-1.755-1.215-2.295s-1.674-.837-2.916-.837c-1.296 0-2.268.243-2.943.702-.702.459-1.026 1.107-1.026 1.944 0 .648.216 1.161.648 1.485.432.351.972.594 1.62.729.648.162 1.539.297 2.727.432 1.674.216 3.051.486 4.104.783s1.971.864 2.727 1.728 1.161 2.079 1.161 3.699c0 1.35-.351 2.511-1.053 3.537s-1.728 1.836-3.051 2.403c-1.323.594-2.889.864-4.698.864s-3.402-.297-4.779-.918z"/><path d="m84.417 32.4868c-1.134-.648-1.998-1.539-2.619-2.673s-.918-2.403-.918-3.861c0-1.431.297-2.7.918-3.834s1.485-1.998 2.619-2.646c1.107-.621 2.376-.945 3.807-.945 1.242 0 2.349.324 3.348.918s1.782 1.458 2.376 2.565c.567 1.134.864 2.403.864 3.861v1.296h-9.855c.081.945.405 1.674.945 2.214s1.323.783 2.349.783c.675 0 1.242-.162 1.674-.486s.702-.729.81-1.242h3.996c-.216 1.512-.945 2.727-2.133 3.645s-2.646 1.35-4.374 1.35c-1.431 0-2.7-.297-3.807-.945zm6.372-7.776c-.054-.81-.297-1.458-.783-1.971-.486-.486-1.134-.756-1.944-.756-.918 0-1.62.243-2.133.729s-.837 1.161-.945 1.998z"/><path d="m98.5758 37.6438c-1.188-.81-1.836-2.025-1.971-3.645h4.0232c.054.621.378 1.08.918 1.377s1.242.432 2.133.432c1.08 0 1.89-.297 2.43-.918.54-.594.783-1.539.783-2.835v-.999c-.999 1.35-2.565 2.025-4.698 2.025-1.215 0-2.2682-.27-3.1862-.864-.918-.567-1.62-1.377-2.106-2.457-.513-1.08-.756-2.322-.756-3.753 0-1.458.243-2.754.756-3.888.486-1.134 1.215-1.998 2.133-2.646.918-.621 1.9712-.945 3.1592-.945 2.133 0 3.699.756 4.698 2.214v-1.542h4.023v12.855c0 4.536-2.484 6.777-7.425 6.777-2.106 0-3.7532-.378-4.9142-1.188zm7.3982-8.937c.621-.729.945-1.674.945-2.862 0-1.161-.324-2.133-.945-2.889-.648-.756-1.458-1.134-2.43-1.134-.999 0-1.809.378-2.457 1.134s-.945 1.728-.945 2.889.297 2.106.945 2.835c.621.756 1.431 1.107 2.457 1.107.972 0 1.782-.351 2.43-1.08z"/><path d="m113.103 19.1998h3.996v1.785c.486-.756 1.107-1.377 1.917-1.809s1.755-.648 2.835-.648c2.214 0 3.726.891 4.509 2.673 1.269-1.782 3.078-2.673 5.454-2.673 3.483 0 5.238 2.187 5.238 6.534v7.938h-4.077v-7.722c0-1.026-.243-1.809-.729-2.403s-1.161-.891-2.025-.891c-.972 0-1.755.351-2.322 1.053s-.837 1.62-.837 2.781v7.182h-4.05v-7.722c0-1.026-.243-1.809-.729-2.403s-1.161-.891-2.025-.891c-.972 0-1.755.351-2.322 1.053s-.837 1.62-.837 2.781v7.182h-3.996z"/><path d="m142.066 32.4868c-1.134-.648-1.998-1.539-2.619-2.673s-.918-2.403-.918-3.861c0-1.431.297-2.7.918-3.834s1.485-1.998 2.619-2.646c1.107-.621 2.376-.945 3.807-.945 1.242 0 2.349.324 3.348.918s1.782 1.458 2.376 2.565c.567 1.134.864 2.403.864 3.861v1.296h-9.855c.081.945.405 1.674.945 2.214s1.323.783 2.349.783c.675 0 1.242-.162 1.674-.486s.702-.729.81-1.242h3.996c-.216 1.512-.945 2.727-2.133 3.645s-2.646 1.35-4.374 1.35c-1.431 0-2.7-.297-3.807-.945zm6.372-7.776c-.054-.81-.297-1.458-.783-1.971-.486-.486-1.134-.756-1.944-.756-.918 0-1.62.243-2.133.729s-.837 1.161-.945 1.998z"/><path d="m154.146 19.1998h3.996v1.785c.486-.756 1.107-1.377 1.917-1.809s1.755-.648 2.835-.648c3.456 0 5.211 2.187 5.211 6.534v7.938h-4.05v-7.722c0-1.026-.243-1.809-.729-2.403s-1.161-.891-2.025-.891c-.972 0-1.755.351-2.322 1.053s-.837 1.62-.837 2.781v7.182h-3.996z"/><path d="m176.065 33.1078c-1.08 0-1.917-.108-2.511-.324-.621-.216-1.08-.594-1.35-1.161-.297-.567-.432-1.377-.405-2.403v-6.615h-2.997v-3.645h2.997v-3.78h3.996v3.78h3.672v3.645h-3.672v4.563c0 .702.027 1.188.081 1.485.054.324.216.54.432.675s.567.189 1.08.189c.378 0 1.461-.027 2.082-.081v3.537c-1.215.108-2.73.135-3.405.135z"/></g></svg>