<svg fill="none" height="48" viewBox="0 0 184 48" width="184" xmlns="http://www.w3.org/2000/svg" xmlns:xlink="http://www.w3.org/1999/xlink"><filter id="a" color-interpolation-filters="sRGB" filterUnits="userSpaceOnUse" height="54" width="48" x="0" y="-3"><feFlood flood-opacity="0" result="BackgroundImageFix"/><feBlend in="SourceGraphic" in2="BackgroundImageFix" mode="normal" result="shape"/><feColorMatrix in="SourceAlpha" result="hardAlpha" type="matrix" values="0 0 0 0 0 0 0 0 0 0 0 0 0 0 0 0 0 0 127 0"/><feOffset dy="-3"/><feGaussianBlur stdDeviation="1.5"/><feComposite in2="hardAlpha" k2="-1" k3="1" operator="arithmetic"/><feColorMatrix type="matrix" values="0 0 0 0 0 0 0 0 0 0 0 0 0 0 0 0 0 0 0.1 0"/><feBlend in2="shape" mode="normal" result="effect1_innerShadow_3046_38798"/><feColorMatrix in="SourceAlpha" result="hardAlpha" type="matrix" values="0 0 0 0 0 0 0 0 0 0 0 0 0 0 0 0 0 0 127 0"/><feOffset dy="3"/><feGaussianBlur stdDeviation="1.5"/><feComposite in2="hardAlpha" k2="-1" k3="1" operator="arithmetic"/><feColorMatrix type="matrix" values="0 0 0 0 1 0 0 0 0 1 0 0 0 0 1 0 0 0 0.1 0"/><feBlend in2="effect1_innerShadow_3046_38798" mode="normal" result="effect2_innerShadow_3046_38798"/><feColorMatrix in="SourceAlpha" result="hardAlpha" type="matrix" values="0 0 0 0 0 0 0 0 0 0 0 0 0 0 0 0 0 0 127 0"/><feMorphology in="SourceAlpha" operator="erode" radius="1" result="effect3_innerShadow_3046_38798"/><feOffset/><feComposite in2="hardAlpha" k2="-1" k3="1" operator="arithmetic"/><feColorMatrix type="matrix" values="0 0 0 0 0.0627451 0 0 0 0 0.0941176 0 0 0 0 0.156863 0 0 0 0.24 0"/><feBlend in2="effect2_innerShadow_3046_38798" mode="normal" result="effect3_innerShadow_3046_38798"/></filter><filter id="b" color-interpolation-filters="sRGB" filterUnits="userSpaceOnUse" height="42" width="33" x="7.5" y="5.25"><feFlood flood-opacity="0" result="BackgroundImageFix"/><feColorMatrix in="SourceAlpha" result="hardAlpha" type="matrix" values="0 0 0 0 0 0 0 0 0 0 0 0 0 0 0 0 0 0 127 0"/><feMorphology in="SourceAlpha" operator="erode" radius="1.5" result="effect1_dropShadow_3046_38798"/><feOffset dy="2.25"/><feGaussianBlur stdDeviation="2.25"/><feComposite in2="hardAlpha" operator="out"/><feColorMatrix type="matrix" values="0 0 0 0 0.141176 0 0 0 0 0.141176 0 0 0 0 0.141176 0 0 0 0.1 0"/><feBlend in2="BackgroundImageFix" mode="normal" result="effect1_dropShadow_3046_38798"/><feBlend in="SourceGraphic" in2="effect1_dropShadow_3046_38798" mode="normal" result="shape"/></filter><linearGradient id="c" gradientUnits="userSpaceOnUse" x1="24" x2="26" y1=".000001" y2="48"><stop offset="0" stop-color="#fff" stop-opacity="0"/><stop offset="1" stop-color="#fff" stop-opacity=".12"/></linearGradient><linearGradient id="d" gradientUnits="userSpaceOnUse" x1="24" x2="24" y1="11.625" y2="36.375"><stop offset="0" stop-color="#fff" stop-opacity=".8"/><stop offset="1" stop-color="#fff" stop-opacity=".5"/></linearGradient><linearGradient id="e" gradientUnits="userSpaceOnUse" x1="24" x2="24" y1="0" y2="48"><stop offset="0" stop-color="#fff" stop-opacity=".12"/><stop offset="1" stop-color="#fff" stop-opacity="0"/></linearGradient><clipPath id="f"><rect height="48" rx="12" width="48"/></clipPath><g filter="url(#a)"><g clip-path="url(#f)"><rect fill="#d92d20" height="48" rx="12" width="48"/><path d="m0 0h48v48h-48z" fill="url(#c)"/><g fill="url(#d)" filter="url(#b)"><path d="m10.5 11.625h21.6c1.8902 0 2.8353 0 3.5572.3679.6351.3235 1.1514.8398 1.4749 1.4749.3679.7219.3679 1.667.3679 3.5572v1.35h-21.6c-1.8902 0-2.8353 0-3.5572-.3679-.6351-.3235-1.1514-.8398-1.4749-1.4749-.3679-.7219-.3679-1.667-.3679-3.5572z"/><path d="m10.5 27.375h21.6c1.8902 0 2.8353 0 3.5572-.3679.6351-.3235 1.1514-.8398 1.4749-1.4749.3679-.7219.3679-1.667.3679-3.5572v-1.35h-21.6c-1.8902 0-2.8353 0-3.5572.3679-.6351.3235-1.1514.8398-1.4749 1.4749-.3679.7219-.3679 1.667-.3679 3.5572z"/><path d="m21 29.625h11.1c1.8902 0 2.8353 0 3.5572.3679.6351.3235 1.1514.8398 1.4749 1.4749.3679.7219.3679 1.667.3679 3.5572v1.35h-11.1c-1.8902 0-2.8353 0-3.5572-.3679-.6351-.3235-1.1514-.8398-1.4749-1.4749-.3679-.7219-.3679-1.667-.3679-3.5572z"/></g></g><rect height="46" rx="11" stroke="url(#e)" stroke-width="2" width="46" x="1" y="1"/></g><g fill="#fff"><path d="m60 32.9999v-19.683h9.828c1.278 0 2.43.18 3.456.54 1.026.342 1.845.927 2.457 1.755.612.81.918 1.935.918 3.375 0 1.296-.333 2.358-.999 3.186-.648.81-1.53 1.314-2.646 1.512v.216c2.25.198 3.375 1.485 3.375 3.861v5.238h-4.482v-4.59c0-.954-.225-1.611-.675-1.971-.432-.378-1.053-.567-1.863-.567h-4.941v7.128zm8.856-15.957h-4.428v5.346h4.509c1.008 0 1.755-.189 2.241-.567.486-.396.729-.936.729-1.62v-.864c0-.828-.27-1.413-.81-1.755-.54-.36-1.287-.54-2.241-.54z"/><path d="m82.6851 33.2699c-1.332 0-2.412-.351-3.24-1.053-.828-.72-1.242-1.674-1.242-2.862v-.054c0-1.386.441-2.457 1.323-3.213s2.07-1.224 3.564-1.404l4.05-.54v-.567c0-1.368-.828-2.052-2.484-2.052-.792 0-1.422.153-1.89.459-.45.306-.675.747-.675 1.323h-3.753c0-1.602.585-2.844 1.755-3.726 1.17-.9 2.817-1.35 4.941-1.35 1.944 0 3.465.414 4.563 1.242 1.116.828 1.674 2.142 1.674 3.942v6.669h1.89v2.916h-4.968l-.324-2.241h-.297c-.36.792-.963 1.413-1.809 1.863-.828.432-1.854.648-3.078.648zm1.782-2.97c.72 0 1.323-.171 1.809-.513.504-.36.792-.819.864-1.377v-1.944l-2.727.405c-.612.072-1.107.234-1.485.486-.378.234-.567.594-.567 1.08v.351c0 .45.18.819.54 1.107.378.27.9.405 1.566.405z"/><path d="m95.0348 32.9999v-14.499h4.158v14.499zm0-16.335v-3.348h4.158v3.348z"/><path d="m102.431 32.9999v-19.683h4.158v19.683z"/><path d="m115.147 33.2699c-2.07 0-3.654-.45-4.752-1.35-1.08-.9-1.611-2.07-1.593-3.51h3.969c.036.72.279 1.233.729 1.539.468.306 1.062.459 1.782.459s1.233-.135 1.539-.405c.324-.288.486-.63.486-1.026 0-.63-.225-1.044-.675-1.242-.45-.216-1.152-.396-2.106-.54-.864-.126-1.71-.324-2.538-.594s-1.512-.693-2.052-1.269c-.522-.594-.783-1.404-.783-2.43 0-1.008.252-1.854.756-2.538.522-.702 1.233-1.233 2.133-1.593s1.935-.54 3.105-.54c1.782 0 3.222.396 4.32 1.188 1.116.792 1.692 1.908 1.728 3.348l-3.915-.027c0-.558-.198-.981-.594-1.269-.378-.306-.891-.459-1.539-.459-.63 0-1.107.126-1.431.378s-.486.585-.486.999c0 .576.261.954.783 1.134.54.18 1.215.333 2.025.459.684.09 1.35.216 1.998.378.648.144 1.233.378 1.755.702.54.324.963.774 1.269 1.35.306.558.459 1.296.459 2.214 0 1.422-.558 2.556-1.674 3.402-1.098.828-2.664 1.242-4.698 1.242z"/><path d="m123.922 37.5089v-19.008h3.942l.216 2.133h.189c.36-.756.918-1.341 1.674-1.755.774-.432 1.638-.648 2.592-.648 1.944 0 3.357.657 4.239 1.971s1.323 3.069 1.323 5.265v.621c0 2.502-.504 4.329-1.512 5.481-.99 1.134-2.34 1.701-4.05 1.701-.936 0-1.791-.207-2.565-.621-.774-.432-1.341-1.026-1.701-1.782h-.189v6.642zm6.939-7.614c.9 0 1.593-.252 2.079-.756s.729-1.215.729-2.133v-2.484c0-.918-.243-1.629-.729-2.133-.486-.522-1.179-.783-2.079-.783-.846 0-1.521.261-2.025.783-.486.522-.729 1.251-.729 2.187v2.376c0 .936.243 1.665.729 2.187.504.504 1.179.756 2.025.756z"/><path d="m146.599 33.2699c-1.602 0-2.943-.306-4.023-.918-1.062-.63-1.854-1.503-2.376-2.619-.522-1.134-.783-2.448-.783-3.942v-.243c0-1.566.288-2.889.864-3.969.576-1.098 1.377-1.926 2.403-2.484 1.044-.576 2.241-.864 3.591-.864 1.476 0 2.727.279 3.753.837 1.044.558 1.836 1.341 2.376 2.349s.81 2.187.81 3.537v1.836h-9.585v.756c0 .774.261 1.395.783 1.863.54.468 1.224.702 2.052.702.738 0 1.341-.162 1.809-.486.486-.324.774-.756.864-1.296h3.915c-.054.99-.36 1.854-.918 2.592s-1.314 1.314-2.268 1.728-2.043.621-3.267.621zm-2.97-9.18v.135h5.508v-.135c0-.972-.252-1.674-.756-2.106-.504-.45-1.161-.675-1.971-.675-.864 0-1.548.243-2.052.729-.486.468-.729 1.152-.729 2.052z"/><path d="m161.721 33.2699c-1.602 0-2.943-.306-4.023-.918-1.062-.63-1.854-1.503-2.376-2.619-.522-1.134-.783-2.448-.783-3.942v-.243c0-1.566.288-2.889.864-3.969.576-1.098 1.377-1.926 2.403-2.484 1.044-.576 2.241-.864 3.591-.864 1.476 0 2.727.279 3.753.837 1.044.558 1.836 1.341 2.376 2.349s.81 2.187.81 3.537v1.836h-9.585v.756c0 .774.261 1.395.783 1.863.54.468 1.224.702 2.052.702.738 0 1.341-.162 1.809-.486.486-.324.774-.756.864-1.296h3.915c-.054.99-.36 1.854-.918 2.592s-1.314 1.314-2.268 1.728-2.043.621-3.267.621zm-2.97-9.18v.135h5.508v-.135c0-.972-.252-1.674-.756-2.106-.504-.45-1.161-.675-1.971-.675-.864 0-1.548.243-2.052.729-.486.468-.729 1.152-.729 2.052z"/><path d="m175.223 33.2699c-1.944 0-3.357-.657-4.239-1.971s-1.323-3.069-1.323-5.265v-.594c0-2.52.495-4.347 1.485-5.481 1.008-1.152 2.358-1.728 4.05-1.728.954 0 1.809.216 2.565.648.774.414 1.341.999 1.701 1.755h.189v-7.317h4.158v19.683h-3.942l-.216-2.133h-.189c-.36.756-.918 1.35-1.674 1.782-.756.414-1.611.621-2.565.621zm1.647-3.375c.846 0 1.521-.261 2.025-.783s.756-1.251.756-2.187v-2.376c0-.918-.252-1.638-.756-2.16s-1.179-.783-2.025-.783c-.882 0-1.566.252-2.052.756s-.729 1.215-.729 2.133v2.511c0 .9.243 1.611.729 2.133.486.504 1.17.756 2.052.756z"/></g></svg>