<svg fill="none" height="48" viewBox="0 0 48 48" width="48" xmlns="http://www.w3.org/2000/svg" xmlns:xlink="http://www.w3.org/1999/xlink"><filter id="a" color-interpolation-filters="sRGB" filterUnits="userSpaceOnUse" height="54" width="48" x="0" y="-3"><feFlood flood-opacity="0" result="BackgroundImageFix"/><feBlend in="SourceGraphic" in2="BackgroundImageFix" mode="normal" result="shape"/><feColorMatrix in="SourceAlpha" result="hardAlpha" type="matrix" values="0 0 0 0 0 0 0 0 0 0 0 0 0 0 0 0 0 0 127 0"/><feOffset dy="-3"/><feGaussianBlur stdDeviation="1.5"/><feComposite in2="hardAlpha" k2="-1" k3="1" operator="arithmetic"/><feColorMatrix type="matrix" values="0 0 0 0 0 0 0 0 0 0 0 0 0 0 0 0 0 0 0.1 0"/><feBlend in2="shape" mode="normal" result="effect1_innerShadow_3051_46935"/><feColorMatrix in="SourceAlpha" result="hardAlpha" type="matrix" values="0 0 0 0 0 0 0 0 0 0 0 0 0 0 0 0 0 0 127 0"/><feOffset dy="3"/><feGaussianBlur stdDeviation="1.5"/><feComposite in2="hardAlpha" k2="-1" k3="1" operator="arithmetic"/><feColorMatrix type="matrix" values="0 0 0 0 1 0 0 0 0 1 0 0 0 0 1 0 0 0 0.1 0"/><feBlend in2="effect1_innerShadow_3051_46935" mode="normal" result="effect2_innerShadow_3051_46935"/><feColorMatrix in="SourceAlpha" result="hardAlpha" type="matrix" values="0 0 0 0 0 0 0 0 0 0 0 0 0 0 0 0 0 0 127 0"/><feMorphology in="SourceAlpha" operator="erode" radius="1" result="effect3_innerShadow_3051_46935"/><feOffset/><feComposite in2="hardAlpha" k2="-1" k3="1" operator="arithmetic"/><feColorMatrix type="matrix" values="0 0 0 0 0.0627451 0 0 0 0 0.0941176 0 0 0 0 0.156863 0 0 0 0.24 0"/><feBlend in2="effect2_innerShadow_3051_46935" mode="normal" result="effect3_innerShadow_3051_46935"/></filter><filter id="b" color-interpolation-filters="sRGB" filterUnits="userSpaceOnUse" height="42" width="36" x="6" y="5.25"><feFlood flood-opacity="0" result="BackgroundImageFix"/><feColorMatrix in="SourceAlpha" result="hardAlpha" type="matrix" values="0 0 0 0 0 0 0 0 0 0 0 0 0 0 0 0 0 0 127 0"/><feMorphology in="SourceAlpha" operator="erode" radius="1.5" result="effect1_dropShadow_3051_46935"/><feOffset dy="2.25"/><feGaussianBlur stdDeviation="2.25"/><feComposite in2="hardAlpha" operator="out"/><feColorMatrix type="matrix" values="0 0 0 0 0.141176 0 0 0 0 0.141176 0 0 0 0 0.141176 0 0 0 0.1 0"/><feBlend in2="BackgroundImageFix" mode="normal" result="effect1_dropShadow_3051_46935"/><feBlend in="SourceGraphic" in2="effect1_dropShadow_3051_46935" mode="normal" result="shape"/></filter><linearGradient id="c" gradientUnits="userSpaceOnUse" x1="24" x2="26" y1=".000001" y2="48"><stop offset="0" stop-color="#fff" stop-opacity="0"/><stop offset="1" stop-color="#fff" stop-opacity=".12"/></linearGradient><linearGradient id="d"><stop offset="0" stop-color="#fff" stop-opacity=".8"/><stop offset="1" stop-color="#fff" stop-opacity=".5"/></linearGradient><linearGradient id="e" gradientUnits="userSpaceOnUse" x1="18" x2="18" xlink:href="#d" y1="9" y2="24"/><linearGradient id="f" gradientUnits="userSpaceOnUse" x1="31.5" x2="31.5" xlink:href="#d" y1="9" y2="27"/><linearGradient id="g" gradientUnits="userSpaceOnUse" x1="30" x2="30" xlink:href="#d" y1="24" y2="39"/><linearGradient id="h" gradientUnits="userSpaceOnUse" x1="16.5" x2="16.5" xlink:href="#d" y1="21" y2="39"/><linearGradient id="i" gradientUnits="userSpaceOnUse" x1="24" x2="24" y1="0" y2="48"><stop offset="0" stop-color="#fff" stop-opacity=".12"/><stop offset="1" stop-color="#fff" stop-opacity="0"/></linearGradient><clipPath id="j"><rect height="48" rx="12" width="48"/></clipPath><g filter="url(#a)"><g clip-path="url(#j)"><rect fill="#1570ef" height="48" rx="12" width="48"/><path d="m0 0h48v48h-48z" fill="url(#c)"/><g filter="url(#b)"><path d="m21 9c0 6.6274-5.3726 12-12 12 3.6802 0 7.1025 1.1045 9.9534 3 4.8501-3.2248 8.0466-8.7391 8.0466-15z" fill="url(#e)"/><path d="m39 21c-6.6274 0-12-5.3726-12-12 0 3.6802-1.1045 7.1025-3 9.9534 3.2248 4.8501 8.7391 8.0466 15 8.0466z" fill="url(#f)" opacity=".8"/><path d="m27 39c0-6.6274 5.3726-12 12-12-3.6802 0-7.1025-1.1045-9.9534-3-4.8501 3.2248-8.0466 8.7391-8.0466 15z" fill="url(#g)" opacity=".6"/><path d="m9 27c6.6274 0 12 5.3726 12 12 0-3.6802 1.1045-7.1025 3-9.9534-3.2248-4.8501-8.7391-8.0466-15-8.0466z" fill="url(#h)" opacity=".4"/></g></g><rect height="46" rx="11" stroke="url(#i)" stroke-width="2" width="46" x="1" y="1"/></g></svg>