<svg fill="none" height="48" viewBox="0 0 221 48" width="221" xmlns="http://www.w3.org/2000/svg"><g fill="#0a0d12"><path clip-rule="evenodd" d="m8 4c-4.41828 0-8 3.58172-8 8v24c0 4.4183 3.58172 8 8 8h24c4.4183 0 8-3.5817 8-8v-24c0-4.41828-3.5817-8-8-8zm3 15.5h9.9645l-11.73227 11.7322 3.53557 3.5356 11.7322-11.7323v9.9645h5v-16c0-1.3807-1.1193-2.5-2.5-2.5h-16z" fill-rule="evenodd"/><path d="m50 33v-18.9h4.05v15.417h7.506v3.483z"/><path d="m76.3564 19.122v13.878h-4.1264l.4274-1.944c-1.098 1.386-2.538 2.079-4.32 2.079-1.224 0-2.322-.288-3.294-.864s-1.737-1.404-2.295-2.484c-.54-1.08-.81-2.331-.81-3.753 0-1.404.27-2.646.81-3.726.558-1.08 1.323-1.908 2.295-2.484.99-.594 2.097-.891 3.321-.891.936 0 1.764.18 2.484.54s1.314.855 1.782 1.485l-.3704-1.836zm-7.128 10.935c1.026 0 1.845-.36 2.457-1.08.612-.738.918-1.701.918-2.889 0-1.206-.306-2.178-.918-2.916s-1.431-1.107-2.457-1.107-1.854.369-2.484 1.107c-.612.738-.918 1.71-.918 2.916 0 1.188.306 2.151.918 2.889.63.72 1.458 1.08 2.484 1.08z"/><path d="m91.5387 19.122v13.878h-4.1287l.4027-1.674c-.486.576-1.053 1.026-1.701 1.35s-1.44.486-2.376.486c-1.62 0-2.943-.495-3.969-1.485-1.026-1.008-1.539-2.682-1.539-5.022v-7.533h3.807v7.074c0 1.26.216 2.214.648 2.862.45.63 1.134.945 2.052.945.954 0 1.692-.351 2.214-1.053.522-.72.783-1.719.783-2.997v-6.831z"/><path d="m101.611 18.96c1.619 0 2.952.504 3.996 1.512s1.566 2.673 1.566 4.995v7.533h-3.807v-7.317c0-2.394-.936-3.591-2.808-3.591-.9905 0-1.7555.333-2.2955.999s-.81 1.602-.81 2.808v7.101h-3.807v-13.878h4.0745l-.4025 1.728c.486-.594 1.071-1.053 1.755-1.377.684-.342 1.5305-.513 2.5385-.513z"/><path d="m122.369 27.735c-.252 1.692-.972 3.024-2.16 3.996-1.17.954-2.691 1.431-4.563 1.431-1.44 0-2.7-.288-3.78-.864-1.08-.594-1.917-1.431-2.511-2.511-.576-1.08-.864-2.322-.864-3.726 0-1.422.288-2.664.864-3.726.594-1.08 1.431-1.908 2.511-2.484 1.098-.594 2.367-.891 3.807-.891 1.854 0 3.366.477 4.536 1.431 1.17.936 1.89 2.241 2.16 3.915h-3.942c-.162-.684-.486-1.224-.972-1.62-.486-.414-1.089-.621-1.809-.621-.99 0-1.782.369-2.376 1.107s-.891 1.701-.891 2.889.297 2.151.891 2.889 1.386 1.107 2.376 1.107c.738 0 1.35-.207 1.836-.621.504-.414.828-.981.972-1.701z"/><path d="m131.801 18.96c1.638 0 2.979.504 4.023 1.512 1.062 1.008 1.593 2.673 1.593 4.995v7.533h-3.807v-7.371c0-1.152-.234-2.025-.702-2.619-.468-.612-1.17-.918-2.106-.918-.972 0-1.737.333-2.295.999-.54.666-.81 1.593-.81 2.781v7.128h-3.807v-18.9h3.807v6.723c1.026-1.242 2.394-1.863 4.104-1.863z"/><path d="m142.785 26.844c.072.936.451 1.692 1.135 2.268.702.558 1.629.837 2.781.837.954 0 1.727-.198 2.321-.594.612-.414.919-.981.919-1.701 0-.504-.171-.9-.513-1.188-.324-.306-.792-.54-1.404-.702-.594-.18-1.521-.396-2.781-.648-1.242-.234-2.286-.531-3.132-.891-.846-.378-1.539-.927-2.079-1.647-.523-.738-.783-1.71-.783-2.916 0-1.098.297-2.079.891-2.943.612-.864 1.449-1.539 2.511-2.025 1.08-.504 2.295-.756 3.645-.756 1.386 0 2.628.261 3.725.783 1.116.504 1.99 1.206 2.62 2.106.648.9.981 1.917.999 3.051h-3.969c-.09-.81-.432-1.458-1.026-1.944-.595-.504-1.377-.756-2.349-.756-.9 0-1.62.189-2.16.567s-.81.918-.81 1.62c0 .504.162.9.486 1.188.323.27.782.495 1.376.675.595.162 1.513.36 2.755.594 1.26.234 2.322.531 3.186.891.864.342 1.557.873 2.079 1.593.54.702.81 1.647.81 2.835 0 1.152-.316 2.187-.945 3.105-.63.9-1.512 1.611-2.646 2.133-1.116.522-2.377.783-3.781.783-1.512 0-2.861-.27-4.049-.81-1.17-.558-2.089-1.323-2.755-2.295s-1.007-2.061-1.025-3.267z"/><path d="m157.528 13.344c.63 0 1.151.207 1.565.621.414.396.622.9.622 1.512s-.208 1.125-.622 1.539-.935.621-1.565.621-1.161-.207-1.593-.621c-.414-.414-.622-.927-.622-1.539s.208-1.116.622-1.512c.432-.414.963-.621 1.593-.621zm-1.917 5.778h3.807v13.878h-3.807z"/><path d="m178.216 18.96c1.494 0 2.709.495 3.645 1.485s1.404 2.637 1.404 4.941v7.641h-3.807v-7.776c0-2.106-.801-3.159-2.403-3.159-.828 0-1.494.297-1.998.891-.504.576-.756 1.386-.756 2.43v7.614h-3.807v-7.776c0-2.106-.81-3.159-2.43-3.159-.828 0-1.494.306-1.998.918-.486.594-.729 1.404-.729 2.43v7.587h-3.807v-13.905h4.07l-.398 1.728c.468-.594 1.026-1.053 1.674-1.377s1.458-.495 2.43-.513c1.98 0 3.357.783 4.131 2.349.504-.756 1.161-1.332 1.971-1.728.828-.414 1.764-.621 2.808-.621z"/><path d="m193.135 18.96c1.242 0 2.34.297 3.294.891.972.576 1.728 1.404 2.268 2.484.558 1.08.837 2.331.837 3.753s-.279 2.664-.837 3.726c-.54 1.062-1.296 1.89-2.268 2.484-.972.576-2.079.864-3.321.864-1.782 0-3.177-.639-4.185-1.917v7.155h-3.807v-19.278h4.074l-.375 1.917c.468-.63 1.062-1.134 1.782-1.512.738-.378 1.584-.567 2.538-.567zm-.891 11.097c1.026 0 1.854-.369 2.484-1.107.63-.756.945-1.728.945-2.916s-.315-2.142-.945-2.862c-.63-.738-1.458-1.107-2.484-1.107s-1.845.369-2.457 1.107c-.612.72-.918 1.674-.918 2.862 0 1.206.306 2.178.918 2.916s1.431 1.107 2.457 1.107z"/><path d="m201.109 14.1h3.807v18.9h-3.807z"/><path d="m206.489 26.088c0-1.44.288-2.691.864-3.753.594-1.08 1.413-1.908 2.457-2.484 1.062-.594 2.286-.891 3.672-.891 1.404 0 2.637.279 3.699.837 1.08.54 1.917 1.314 2.511 2.322.612.99.927 2.16.945 3.51 0 .486-.036.918-.108 1.296h-10.071v.108c.09 1.008.414 1.8.972 2.376s1.323.864 2.295.864c.774 0 1.413-.162 1.917-.486.522-.342.864-.837 1.026-1.485h3.753c-.144.918-.495 1.746-1.053 2.484s-1.296 1.323-2.214 1.755c-.918.414-1.971.621-3.159.621-1.548 0-2.889-.288-4.023-.864-1.116-.576-1.98-1.395-2.592-2.457-.594-1.08-.891-2.331-.891-3.753zm10.341-1.647c-.126-.846-.477-1.494-1.053-1.944-.558-.468-1.269-.702-2.133-.702-.828 0-1.53.243-2.106.729-.558.468-.891 1.107-.999 1.917z"/></g></svg>