<svg fill="none" height="48" viewBox="0 0 176 48" width="176" xmlns="http://www.w3.org/2000/svg" xmlns:xlink="http://www.w3.org/1999/xlink"><filter id="a" color-interpolation-filters="sRGB" filterUnits="userSpaceOnUse" height="54" width="48" x="0" y="-3"><feFlood flood-opacity="0" result="BackgroundImageFix"/><feBlend in="SourceGraphic" in2="BackgroundImageFix" mode="normal" result="shape"/><feColorMatrix in="SourceAlpha" result="hardAlpha" type="matrix" values="0 0 0 0 0 0 0 0 0 0 0 0 0 0 0 0 0 0 127 0"/><feOffset dy="-3"/><feGaussianBlur stdDeviation="1.5"/><feComposite in2="hardAlpha" k2="-1" k3="1" operator="arithmetic"/><feColorMatrix type="matrix" values="0 0 0 0 0 0 0 0 0 0 0 0 0 0 0 0 0 0 0.1 0"/><feBlend in2="shape" mode="normal" result="effect1_innerShadow_3046_38764"/><feColorMatrix in="SourceAlpha" result="hardAlpha" type="matrix" values="0 0 0 0 0 0 0 0 0 0 0 0 0 0 0 0 0 0 127 0"/><feOffset dy="3"/><feGaussianBlur stdDeviation="1.5"/><feComposite in2="hardAlpha" k2="-1" k3="1" operator="arithmetic"/><feColorMatrix type="matrix" values="0 0 0 0 1 0 0 0 0 1 0 0 0 0 1 0 0 0 0.1 0"/><feBlend in2="effect1_innerShadow_3046_38764" mode="normal" result="effect2_innerShadow_3046_38764"/><feColorMatrix in="SourceAlpha" result="hardAlpha" type="matrix" values="0 0 0 0 0 0 0 0 0 0 0 0 0 0 0 0 0 0 127 0"/><feMorphology in="SourceAlpha" operator="erode" radius="1" result="effect3_innerShadow_3046_38764"/><feOffset/><feComposite in2="hardAlpha" k2="-1" k3="1" operator="arithmetic"/><feColorMatrix type="matrix" values="0 0 0 0 0.0627451 0 0 0 0 0.0941176 0 0 0 0 0.156863 0 0 0 0.24 0"/><feBlend in2="effect2_innerShadow_3046_38764" mode="normal" result="effect3_innerShadow_3046_38764"/></filter><filter id="b" color-interpolation-filters="sRGB" filterUnits="userSpaceOnUse" height="44.3333" width="26.9388" x="12.0618" y="4.20833"><feFlood flood-opacity="0" result="BackgroundImageFix"/><feColorMatrix in="SourceAlpha" result="hardAlpha" type="matrix" values="0 0 0 0 0 0 0 0 0 0 0 0 0 0 0 0 0 0 127 0"/><feMorphology in="SourceAlpha" operator="erode" radius="1.58333" result="effect1_dropShadow_3046_38764"/><feOffset dy="2.375"/><feGaussianBlur stdDeviation="2.375"/><feComposite in2="hardAlpha" operator="out"/><feColorMatrix type="matrix" values="0 0 0 0 0.141176 0 0 0 0 0.141176 0 0 0 0 0.141176 0 0 0 0.1 0"/><feBlend in2="BackgroundImageFix" mode="normal" result="effect1_dropShadow_3046_38764"/><feBlend in="SourceGraphic" in2="effect1_dropShadow_3046_38764" mode="normal" result="shape"/></filter><linearGradient id="c" gradientUnits="userSpaceOnUse" x1="24" x2="26" y1=".000001" y2="48"><stop offset="0" stop-color="#fff" stop-opacity="0"/><stop offset="1" stop-color="#fff" stop-opacity=".12"/></linearGradient><linearGradient id="d"><stop offset="0" stop-color="#fff" stop-opacity=".8"/><stop offset="1" stop-color="#fff" stop-opacity=".5"/></linearGradient><linearGradient id="e" gradientUnits="userSpaceOnUse" x1="25.531" x2="25.531" xlink:href="#d" y1="8.95837" y2="26.4261"/><linearGradient id="f" gradientUnits="userSpaceOnUse" x1="23.9624" x2="23.9624" xlink:href="#d" y1="27.3962" y2="39.0414"/><linearGradient id="g" gradientUnits="userSpaceOnUse" x1="24" x2="24" y1="0" y2="48"><stop offset="0" stop-color="#fff" stop-opacity=".12"/><stop offset="1" stop-color="#fff" stop-opacity="0"/></linearGradient><clipPath id="h"><rect height="48" rx="12" width="48"/></clipPath><g filter="url(#a)"><g clip-path="url(#h)"><rect fill="#079455" height="48" rx="12" width="48"/><path d="m0 0h48v48h-48z" fill="url(#c)"/><g filter="url(#b)"><path clip-rule="evenodd" d="m23.9616 8.95837h11.8719v4.56103h-4.1967c.6756 1.2398 1.0595 2.6615 1.0595 4.1728 0 4.8236-3.9103 8.7339-8.7339 8.7339s-8.7339-3.9103-8.7339-8.7339c0-4.8233 3.9099-8.73339 8.7331-8.73383zm.0008 12.90673c2.3046 0 4.1728-1.8683 4.1728-4.1729s-1.8682-4.1728-4.1728-4.1728h-.0008c-2.3042.0004-4.1721 1.8685-4.1721 4.1728 0 2.3046 1.8683 4.1729 4.1729 4.1729z" fill="url(#e)" fill-rule="evenodd"/><path d="m23.9619 39.0414c-1.6271 0-3.1018-.3044-4.4239-.9133-1.3221-.5836-2.3772-1.4081-3.1654-2.4737-.7627-1.0656-1.1441-2.2834-1.1441-3.6534 0-1.0655.1526-1.9408.4577-2.6258.3051-.6851.7627-1.3447 1.3729-1.979l3.7756 2.4356c-.2543.2284-.4449.4948-.5721.7992-.1271.3045-.1907.685-.1907 1.1417 0 .8372.3433 1.4969 1.0297 1.9789.7046.5022 1.6582.7559 2.8608.761 1.2026-.0051 2.1562-.2588 2.8607-.761.6865-.482 1.0297-1.1417 1.0297-1.9789 0-.4567-.0635-.8372-.1907-1.1417-.1271-.3044-.3178-.5708-.572-.7992l3.7756-2.4356c.6102.6343 1.0678 1.2939 1.3729 1.979.3051.685.4577 1.5603.4577 2.6258 0 1.37-.3814 2.5878-1.1442 3.6534-.7881 1.0656-1.8433 1.8901-3.1653 2.4737-1.3221.6089-2.7977.9133-4.4249.9133z" fill="url(#f)" opacity=".7"/></g></g><rect height="46" rx="11" stroke="url(#g)" stroke-width="2" width="46" x="1" y="1"/></g><g fill="#fff"><path clip-rule="evenodd" d="m115.538 32.3559c1.008.616 2.156.924 3.444.924.933 0 1.783-.1867 2.548-.56.403-.2063.767-.4462 1.092-.7197v.9997h4.2v-20.328h-4.284v7.6034c-.311-.2449-.656-.4554-1.036-.6314-.747-.3547-1.587-.532-2.52-.532-1.288 0-2.436.308-3.444.924-.989.616-1.773 1.456-2.352 2.52-.56 1.064-.84 2.2773-.84 3.64 0 1.3626.28 2.576.84 3.64.579 1.064 1.363 1.904 2.352 2.52zm5.796-3.332c-.448.2613-.98.392-1.596.392-.579 0-1.101-.14-1.568-.42s-.831-.6627-1.092-1.148c-.261-.4854-.392-1.036-.392-1.652s.131-1.1667.392-1.652c.28-.4854.644-.868 1.092-1.148.467-.28.999-.42 1.596-.42s1.12.14 1.568.42c.467.28.821.6626 1.064 1.148.261.4666.392 1.0173.392 1.652 0 .6346-.131 1.1946-.392 1.68-.261.4853-.616.868-1.064 1.148z" fill-rule="evenodd"/><path d="m66.272 32.5239c1.2693.5226 2.6227.784 4.06.784 1.96 0 3.6867-.4107 5.18-1.232 1.512-.8214 2.688-2.0347 3.528-3.64.8587-1.624 1.288-3.6214 1.288-5.992v-.644h-10.388v3.724l5.6792.0901c-.1089.4114-.2566.792-.4432 1.1419-.4293.8213-1.0547 1.456-1.876 1.904-.8027.4293-1.7827.644-2.94.644-1.1387 0-2.1467-.2614-3.024-.784-.8773-.5227-1.568-1.2507-2.072-2.184-.504-.9334-.756-2.016-.756-3.248s.252-2.3054.756-3.22c.5227-.9334 1.2413-1.652 2.156-2.156.9147-.5227 1.9507-.784 3.108-.784 1.0827 0 2.0533.2053 2.912.616.8587.4106 1.6053 1.0266 2.24 1.848l2.996-2.996c-.9147-1.0827-2.072-1.932-3.472-2.548-1.3813-.616-2.9213-.924-4.62-.924-1.4747 0-2.856.2613-4.144.784-1.288.504-2.4173 1.2226-3.388 2.156-.952.9146-1.6987 1.988-2.24 3.22s-.812 2.5666-.812 4.004c0 1.4373.2613 2.7813.784 4.032.5413 1.232 1.2787 2.3146 2.212 3.248.9333.9146 2.0253 1.6333 3.276 2.156z"/><path clip-rule="evenodd" d="m84.7844 32.3839c1.1386.616 2.408.924 3.808.924 1.4186 0 2.688-.308 3.808-.924 1.12-.6347 2.0066-1.4934 2.66-2.576.6533-1.0827.98-2.296.98-3.64s-.3267-2.548-.98-3.612c-.6534-1.0827-1.54-1.932-2.66-2.548s-2.3894-.924-3.808-.924c-1.4187 0-2.688.3173-3.808.952-1.12.616-2.0067 1.456-2.66 2.52-.6534 1.064-.98 2.268-.98 3.612s.3266 2.5573.98 3.64c.6533 1.0826 1.54 1.9413 2.66 2.576zm5.432-3.36c-.4667.2613-1.008.392-1.624.392-.5974 0-1.1294-.1307-1.596-.392-.4667-.28-.8307-.6627-1.092-1.148-.2614-.504-.392-1.064-.392-1.68 0-.6347.1306-1.1947.392-1.68.2613-.4854.6253-.8587 1.092-1.12.4666-.28.9986-.42 1.596-.42.616 0 1.148.14 1.596.42.4666.2613.8306.6346 1.092 1.12.2613.4666.392 1.0173.392 1.652 0 .6346-.1307 1.204-.392 1.708-.2427.4853-.5974.868-1.064 1.148z" fill-rule="evenodd"/><path clip-rule="evenodd" d="m104.165 33.3079c-1.4 0-2.669-.308-3.808-.924-1.1198-.6347-2.0065-1.4934-2.6598-2.576-.6533-1.0827-.98-2.296-.98-3.64s.3267-2.548.98-3.612 1.54-1.904 2.6598-2.52c1.12-.6347 2.39-.952 3.808-.952 1.419 0 2.688.308 3.808.924s2.007 1.4653 2.66 2.548c.654 1.064.98 2.268.98 3.612s-.326 2.5573-.98 3.64c-.653 1.0826-1.54 1.9413-2.66 2.576-1.12.616-2.389.924-3.808.924zm0-3.892c.616 0 1.158-.1307 1.624-.392.467-.28.822-.6627 1.064-1.148.262-.504.392-1.0734.392-1.708 0-.6347-.13-1.1854-.392-1.652-.261-.4854-.625-.8587-1.092-1.12-.448-.28-.98-.42-1.596-.42-.597 0-1.129.14-1.596.42-.466.2613-.83.6346-1.092 1.12-.261.4853-.392 1.0453-.392 1.68 0 .616.131 1.176.392 1.68.262.4853.626.868 1.092 1.148.467.2613.999.392 1.596.392z" fill-rule="evenodd"/><path d="m138.766 25.1599-2.684 7.84h-3.472l-4.704-13.608h4.2l2.331 7.9099 2.569-7.9099h3.472l2.584 7.8831 2.344-7.8831h4.2l-4.704 13.608h-3.5z"/><path clip-rule="evenodd" d="m153.285 32.3839c1.158.616 2.492.924 4.004.924 1.176 0 2.24-.196 3.192-.588.971-.4107 1.82-1.0174 2.548-1.82l-2.352-2.352c-.429.4853-.914.8493-1.456 1.092-.522.224-1.12.336-1.792.336-.443 0-.857-.0563-1.244-.1688l7.012-6.7752c-.541-1.2694-1.334-2.24-2.38-2.912-1.045-.6907-2.314-1.036-3.808-1.036-1.418 0-2.697.3173-3.836.952-1.12.616-2.006 1.456-2.66 2.52-.634 1.064-.952 2.268-.952 3.612s.327 2.5573.98 3.64c.672 1.0826 1.587 1.9413 2.744 2.576zm5.548-9.4354-4.985 4.7981c-.207-.5119-.311-1.0848-.311-1.7187 0-.7094.14-1.3254.42-1.848.28-.5414.682-.952 1.204-1.232.523-.2987 1.148-.448 1.876-.448.74 0 1.338.1495 1.796.4486z" fill-rule="evenodd"/><path d="m164.58 32.9999v-20.328h4.284v20.328z"/><path d="m171.321 12.6719v20.328h4.284v-20.328z"/></g></svg>