<svg fill="none" height="54" viewBox="0 0 164 54" width="164" xmlns="http://www.w3.org/2000/svg" xmlns:xlink="http://www.w3.org/1999/xlink"><filter id="a" color-interpolation-filters="sRGB" filterUnits="userSpaceOnUse" height="57" width="54" x="0" y="-3"><feFlood flood-opacity="0" result="BackgroundImageFix"/><feColorMatrix in="SourceAlpha" result="hardAlpha" type="matrix" values="0 0 0 0 0 0 0 0 0 0 0 0 0 0 0 0 0 0 127 0"/><feOffset dy="1"/><feGaussianBlur stdDeviation=".5"/><feComposite in2="hardAlpha" operator="out"/><feColorMatrix type="matrix" values="0 0 0 0 0.162923 0 0 0 0 0.162923 0 0 0 0 0.162923 0 0 0 0.08 0"/><feBlend in2="BackgroundImageFix" mode="normal" result="effect1_dropShadow_3046_38749"/><feColorMatrix in="SourceAlpha" result="hardAlpha" type="matrix" values="0 0 0 0 0 0 0 0 0 0 0 0 0 0 0 0 0 0 127 0"/><feMorphology in="SourceAlpha" operator="erode" radius="1" result="effect2_dropShadow_3046_38749"/><feOffset dy="3"/><feGaussianBlur stdDeviation="2"/><feComposite in2="hardAlpha" operator="out"/><feColorMatrix type="matrix" values="0 0 0 0 0.164706 0 0 0 0 0.164706 0 0 0 0 0.164706 0 0 0 0.14 0"/><feBlend in2="effect1_dropShadow_3046_38749" mode="normal" result="effect2_dropShadow_3046_38749"/><feBlend in="SourceGraphic" in2="effect2_dropShadow_3046_38749" mode="normal" result="shape"/><feColorMatrix in="SourceAlpha" result="hardAlpha" type="matrix" values="0 0 0 0 0 0 0 0 0 0 0 0 0 0 0 0 0 0 127 0"/><feOffset dy="-3"/><feGaussianBlur stdDeviation="1.5"/><feComposite in2="hardAlpha" k2="-1" k3="1" operator="arithmetic"/><feColorMatrix type="matrix" values="0 0 0 0 0 0 0 0 0 0 0 0 0 0 0 0 0 0 0.1 0"/><feBlend in2="shape" mode="normal" result="effect3_innerShadow_3046_38749"/><feColorMatrix in="SourceAlpha" result="hardAlpha" type="matrix" values="0 0 0 0 0 0 0 0 0 0 0 0 0 0 0 0 0 0 127 0"/><feOffset dy="3"/><feGaussianBlur stdDeviation="1.5"/><feComposite in2="hardAlpha" k2="-1" k3="1" operator="arithmetic"/><feColorMatrix type="matrix" values="0 0 0 0 1 0 0 0 0 1 0 0 0 0 1 0 0 0 0.1 0"/><feBlend in2="effect3_innerShadow_3046_38749" mode="normal" result="effect4_innerShadow_3046_38749"/><feColorMatrix in="SourceAlpha" result="hardAlpha" type="matrix" values="0 0 0 0 0 0 0 0 0 0 0 0 0 0 0 0 0 0 127 0"/><feMorphology in="SourceAlpha" operator="erode" radius="1" result="effect5_innerShadow_3046_38749"/><feOffset/><feComposite in2="hardAlpha" k2="-1" k3="1" operator="arithmetic"/><feColorMatrix type="matrix" values="0 0 0 0 0.0627451 0 0 0 0 0.0941176 0 0 0 0 0.156863 0 0 0 0.24 0"/><feBlend in2="effect4_innerShadow_3046_38749" mode="normal" result="effect5_innerShadow_3046_38749"/></filter><filter id="b" color-interpolation-filters="sRGB" filterUnits="userSpaceOnUse" height="42" width="36" x="9" y="5.25"><feFlood flood-opacity="0" result="BackgroundImageFix"/><feColorMatrix in="SourceAlpha" result="hardAlpha" type="matrix" values="0 0 0 0 0 0 0 0 0 0 0 0 0 0 0 0 0 0 127 0"/><feMorphology in="SourceAlpha" operator="erode" radius="1.5" result="effect1_dropShadow_3046_38749"/><feOffset dy="2.25"/><feGaussianBlur stdDeviation="2.25"/><feComposite in2="hardAlpha" operator="out"/><feColorMatrix type="matrix" values="0 0 0 0 0.141176 0 0 0 0 0.141176 0 0 0 0 0.141176 0 0 0 0.1 0"/><feBlend in2="BackgroundImageFix" mode="normal" result="effect1_dropShadow_3046_38749"/><feBlend in="SourceGraphic" in2="effect1_dropShadow_3046_38749" mode="normal" result="shape"/></filter><linearGradient id="c" gradientUnits="userSpaceOnUse" x1="24" x2="26" y1=".000001" y2="48"><stop offset="0" stop-color="#fff" stop-opacity="0"/><stop offset="1" stop-color="#fff" stop-opacity=".12"/></linearGradient><linearGradient id="d" gradientUnits="userSpaceOnUse" x1="27" x2="27" y1="9" y2="39"><stop offset="0" stop-color="#fff" stop-opacity=".8"/><stop offset="1" stop-color="#fff" stop-opacity=".5"/></linearGradient><linearGradient id="e" gradientUnits="userSpaceOnUse" x1="27" x2="27" y1="0" y2="48"><stop offset="0" stop-color="#fff" stop-opacity=".12"/><stop offset="1" stop-color="#fff" stop-opacity="0"/></linearGradient><clipPath id="f"><rect height="48" rx="12" width="48" x="3"/></clipPath><g filter="url(#a)"><g clip-path="url(#f)"><rect fill="#0a0d12" height="48" rx="12" width="48" x="3"/><path d="m0 0h48v48h-48z" fill="url(#c)" transform="translate(3)"/><g filter="url(#b)"><path clip-rule="evenodd" d="m27 39c8.2843 0 15-6.7157 15-15s-6.7157-15-15-15-15 6.7157-15 15 6.7157 15 15 15zm3.75-12c3.7279 0 6.75-3.0221 6.75-6.75s-3.0221-6.75-6.75-6.75-6.75 3.0221-6.75 6.75 3.0221 6.75 6.75 6.75z" fill="url(#d)" fill-rule="evenodd"/></g></g><rect height="46" rx="11" stroke="url(#e)" stroke-width="2" width="46" x="4" y="1"/></g><g fill="#0a0d12"><path d="m76.041 29.4359v3.564h-13.041v-19.386h12.852v3.564h-8.748v4.077h7.938v3.537h-7.938v4.644z"/><path d="m82.1588 15.2339c0 1.269-1.026 2.214-2.511 2.214-1.458 0-2.484-.945-2.484-2.214 0-1.323 1.026-2.268 2.484-2.268 1.485 0 2.511.945 2.511 2.268zm-.594 17.766h-3.753v-14.418h3.753z"/><path d="m89.9536 38.4809c-3.888 0-6.48-2.106-6.642-5.427h3.618c.162 1.647 1.215 2.511 2.997 2.511 2.079 0 3.159-1.107 3.159-3.186v-2.106c-.783 1.377-2.268 2.187-4.023 2.187-3.537 0-6.183-2.997-6.183-7.074 0-4.185 2.484-7.074 6.048-7.074 1.944 0 3.402.756 4.455 2.241v-1.971h3.429v13.743c0 3.834-2.592 6.156-6.858 6.156zm-3.321-13.095c0 2.349 1.215 3.834 3.159 3.834 1.971 0 3.267-1.539 3.267-3.807 0-2.349-1.296-3.861-3.267-3.861-1.917 0-3.159 1.485-3.159 3.834z"/><path d="m102.872 25.1429v7.857h-3.7534v-19.386h3.7534v6.858c.999-1.323 2.241-2.16 4.131-2.16 2.889 0 4.887 1.89 4.887 5.373v9.315h-3.726v-8.046c0-2.133-.837-3.321-2.538-3.321-1.485 0-2.754 1.188-2.754 3.51z"/><path d="m122.902 29.3549v3.267c-.918.459-1.782.648-2.889.648-2.97 0-4.833-1.701-4.833-4.941v-6.534h-2.916v-3.213h2.916v-4.266h3.726v4.266h4.131v3.213h-4.131v5.67c0 1.674.756 2.349 2.106 2.349.702 0 1.35-.162 1.89-.459z"/><path d="m138.64 25.7909c0 4.212-2.511 7.479-6.399 7.479-1.863 0-3.429-.837-4.536-2.349v2.079h-3.456v-19.386h3.753v6.831c1.053-1.404 2.511-2.133 4.239-2.133 3.888 0 6.399 3.213 6.399 7.479zm-3.861 0c0-2.754-1.539-4.158-3.375-4.158-1.809 0-3.375 1.377-3.375 4.104s1.512 4.185 3.375 4.185c1.836 0 3.375-1.431 3.375-4.131z"/><path d="m148.551 32.9999v-1.782c-.945 1.35-2.376 2.052-4.347 2.052-2.997 0-4.995-1.755-4.995-4.455 0-2.808 2.268-4.32 6.48-4.32.81 0 1.512.054 2.403.162v-.864c0-1.62-.918-2.565-2.484-2.565-1.62 0-2.592.945-2.727 2.565h-3.375c.216-3.321 2.619-5.481 6.102-5.481 3.78 0 5.994 2.079 5.994 5.616v9.072zm-5.805-4.293c0 1.215.864 1.971 2.268 1.971 1.917 0 3.078-1.053 3.078-2.727v-1.026c-.891-.135-1.512-.189-2.16-.189-2.133 0-3.186.675-3.186 1.971z"/><path d="m157.536 32.9999h-3.78v-19.386h3.78z"/><path d="m163.601 32.9999h-3.78v-19.386h3.78z"/></g></svg>