<svg fill="none" height="48" viewBox="0 0 203 48" width="203" xmlns="http://www.w3.org/2000/svg" xmlns:xlink="http://www.w3.org/1999/xlink"><filter id="a" color-interpolation-filters="sRGB" filterUnits="userSpaceOnUse" height="54" width="48" x="0" y="-3"><feFlood flood-opacity="0" result="BackgroundImageFix"/><feBlend in="SourceGraphic" in2="BackgroundImageFix" mode="normal" result="shape"/><feColorMatrix in="SourceAlpha" result="hardAlpha" type="matrix" values="0 0 0 0 0 0 0 0 0 0 0 0 0 0 0 0 0 0 127 0"/><feOffset dy="-3"/><feGaussianBlur stdDeviation="1.5"/><feComposite in2="hardAlpha" k2="-1" k3="1" operator="arithmetic"/><feColorMatrix type="matrix" values="0 0 0 0 0 0 0 0 0 0 0 0 0 0 0 0 0 0 0.1 0"/><feBlend in2="shape" mode="normal" result="effect1_innerShadow_3046_38811"/><feColorMatrix in="SourceAlpha" result="hardAlpha" type="matrix" values="0 0 0 0 0 0 0 0 0 0 0 0 0 0 0 0 0 0 127 0"/><feOffset dy="3"/><feGaussianBlur stdDeviation="1.5"/><feComposite in2="hardAlpha" k2="-1" k3="1" operator="arithmetic"/><feColorMatrix type="matrix" values="0 0 0 0 1 0 0 0 0 1 0 0 0 0 1 0 0 0 0.1 0"/><feBlend in2="effect1_innerShadow_3046_38811" mode="normal" result="effect2_innerShadow_3046_38811"/><feColorMatrix in="SourceAlpha" result="hardAlpha" type="matrix" values="0 0 0 0 0 0 0 0 0 0 0 0 0 0 0 0 0 0 127 0"/><feMorphology in="SourceAlpha" operator="erode" radius="1" result="effect3_innerShadow_3046_38811"/><feOffset/><feComposite in2="hardAlpha" k2="-1" k3="1" operator="arithmetic"/><feColorMatrix type="matrix" values="0 0 0 0 0.0627451 0 0 0 0 0.0941176 0 0 0 0 0.156863 0 0 0 0.24 0"/><feBlend in2="effect2_innerShadow_3046_38811" mode="normal" result="effect3_innerShadow_3046_38811"/></filter><filter id="b" color-interpolation-filters="sRGB" filterUnits="userSpaceOnUse" height="42" width="42" x="3" y="5.25"><feFlood flood-opacity="0" result="BackgroundImageFix"/><feColorMatrix in="SourceAlpha" result="hardAlpha" type="matrix" values="0 0 0 0 0 0 0 0 0 0 0 0 0 0 0 0 0 0 127 0"/><feMorphology in="SourceAlpha" operator="erode" radius="1.5" result="effect1_dropShadow_3046_38811"/><feOffset dy="2.25"/><feGaussianBlur stdDeviation="2.25"/><feComposite in2="hardAlpha" operator="out"/><feColorMatrix type="matrix" values="0 0 0 0 0.141176 0 0 0 0 0.141176 0 0 0 0 0.141176 0 0 0 0.1 0"/><feBlend in2="BackgroundImageFix" mode="normal" result="effect1_dropShadow_3046_38811"/><feBlend in="SourceGraphic" in2="effect1_dropShadow_3046_38811" mode="normal" result="shape"/></filter><linearGradient id="c" gradientUnits="userSpaceOnUse" x1="24" x2="26" y1=".000001" y2="48"><stop offset="0" stop-color="#fff" stop-opacity="0"/><stop offset="1" stop-color="#fff" stop-opacity=".12"/></linearGradient><linearGradient id="d" gradientUnits="userSpaceOnUse" x1="24" x2="24" y1="13.3638" y2="34.6365"><stop offset="0" stop-color="#fff" stop-opacity=".8"/><stop offset="1" stop-color="#fff" stop-opacity=".5"/></linearGradient><linearGradient id="e" gradientUnits="userSpaceOnUse" x1="24" x2="24" y1="0" y2="48"><stop offset="0" stop-color="#fff" stop-opacity=".12"/><stop offset="1" stop-color="#fff" stop-opacity="0"/></linearGradient><clipPath id="f"><rect height="48" rx="12" width="48"/></clipPath><g filter="url(#a)"><g clip-path="url(#f)"><rect fill="#22262f" height="48" rx="12" width="48"/><path d="m0 0h48v48h-48z" fill="url(#c)"/><g filter="url(#b)"><path clip-rule="evenodd" d="m19.746 30.905c.6218-.7462 1.5429-1.1776 2.5141-1.1776h13.1944c3.615 0 6.5455-2.9305 6.5455-6.5454v-3.2728c0-3.6149-2.9305-6.5454-6.5455-6.5454h-2.558c-.9713 0-1.8924.4314-2.5142 1.1775l-2.1283 2.554c-.6218.7461-1.5429 1.1776-2.5141 1.1776h-13.1944c-3.615 0-6.5455 2.9305-6.5455 6.5454v3.2727c0 3.615 2.9305 6.5455 6.5455 6.5455h2.558c.9713 0 1.8924-.4314 2.5142-1.1776zm17.3449-10.9958c0-.9037-.7326-1.6363-1.6364-1.6363h-5.0125c-.9713 0-1.8924.4314-2.5142 1.1775l-2.1283 2.554c-.6218.7461-1.5429 1.1776-2.5142 1.1776h-10.7398c-.9038 0-1.6364.7326-1.6364 1.6363v3.2727c0 .9038.7326 1.6364 1.6364 1.6364h5.0125c.9713 0 1.8924-.4314 2.5142-1.1776l2.1283-2.5539c.6218-.7462 1.5429-1.1776 2.5142-1.1776h10.7398c.9038 0 1.6364-.7326 1.6364-1.6363z" fill="url(#d)" fill-rule="evenodd"/></g></g><rect height="46" rx="11" stroke="url(#e)" stroke-width="2" width="46" x="1" y="1"/></g><g fill="#fff"><path d="m77.145 33.0001-2.997-10.557-.432-1.944-.459 1.944-2.97 10.557h-4.86l-5.427-18.36h4.617l2.943 12.042.486 2.187.486-2.187 3.402-12.042h3.78l3.375 12.042.486 2.187.486-2.187 2.943-12.042h4.374l-5.427 18.36z"/><path d="m91.6634 23.2801h-4.131c.432-3.267 2.943-5.265 6.669-5.265 4.158 0 6.3176 2.43 6.3176 5.805v5.562c0 1.89.162 2.862.405 3.618h-4.2656c-.135-.486-.216-1.107-.243-1.809-1.134 1.566-2.862 2.241-4.59 2.241-2.754 0-4.806-1.404-4.806-4.185 0-1.971 1.134-3.483 3.429-4.293 1.89-.621 3.699-.81 5.94-.837v-.324c0-1.593-.783-2.43-2.376-2.43-1.404 0-2.16.783-2.349 1.917zm-.513 5.697c0 .972.729 1.593 1.944 1.593 1.836 0 3.294-1.485 3.294-3.483v-.567c-4.185.081-5.238 1.107-5.238 2.457z"/><path d="m102.92 33.0001v-14.526h4.131v2.025c.918-1.728 2.322-2.484 3.807-2.484.594 0 1.134.162 1.431.459v3.483c-.486-.108-.999-.162-1.647-.162-2.484 0-3.591 1.404-3.591 3.699v7.506z"/><path d="m117.533 38.9671h-4.131v-20.493h4.131v1.512c.891-1.269 2.133-1.971 3.645-1.971 3.753 0 6.102 2.943 6.102 7.695 0 4.941-2.403 7.722-6.102 7.722-1.539 0-2.781-.648-3.645-1.89zm2.781-17.604c-1.836 0-2.781 1.539-2.781 4.347s.972 4.374 2.781 4.374c1.782 0 2.727-1.539 2.727-4.374 0-2.808-.972-4.347-2.727-4.347z"/><path d="m132.51 22.4971c0 2.862 8.991.351 8.991 6.102 0 2.862-2.646 4.833-6.426 4.833-3.672 0-6.318-1.62-6.858-5.211h4.131c.189 1.35 1.296 2.079 2.835 2.079 1.458 0 2.187-.567 2.187-1.458 0-2.808-8.802-.297-8.802-6.129 0-2.43 1.971-4.698 5.859-4.698 3.483 0 6.129 1.593 6.534 5.265h-4.104c-.243-1.485-1.107-2.106-2.565-2.106-1.08 0-1.782.54-1.782 1.323z"/><path d="m147.17 38.9671h-4.131v-20.493h4.131v1.512c.891-1.269 2.133-1.971 3.645-1.971 3.753 0 6.102 2.943 6.102 7.695 0 4.941-2.403 7.722-6.102 7.722-1.539 0-2.781-.648-3.645-1.89zm2.781-17.604c-1.836 0-2.781 1.539-2.781 4.347s.972 4.374 2.781 4.374c1.782 0 2.727-1.539 2.727-4.374 0-2.808-.972-4.347-2.727-4.347z"/><path d="m172.246 28.2211c-.756 3.348-3.456 5.211-7.02 5.211-4.509 0-7.29-2.916-7.29-7.695 0-4.941 2.808-7.722 7.128-7.722 4.347 0 7.074 2.889 7.074 7.641v.918h-9.99c.216 2.322 1.296 3.564 3.078 3.564 1.35 0 2.268-.594 2.7-1.917zm-7.182-6.912c-1.539 0-2.511.999-2.835 2.889h5.643c-.324-1.89-1.296-2.889-2.808-2.889z"/><path d="m187.553 28.2211c-.756 3.348-3.456 5.211-7.02 5.211-4.509 0-7.29-2.916-7.29-7.695 0-4.941 2.808-7.722 7.128-7.722 4.347 0 7.074 2.889 7.074 7.641v.918h-9.99c.216 2.322 1.296 3.564 3.078 3.564 1.35 0 2.268-.594 2.7-1.917zm-7.182-6.912c-1.539 0-2.511.999-2.835 2.889h5.643c-.324-1.89-1.296-2.889-2.808-2.889z"/><path d="m194.624 33.4321c-3.726 0-6.075-2.916-6.075-7.695 0-4.941 2.403-7.722 6.075-7.722 1.539 0 2.781.648 3.672 1.89v-6.345h4.131v19.44h-4.131v-1.539c-.891 1.269-2.16 1.971-3.672 1.971zm.891-3.348c1.836 0 2.781-1.512 2.781-4.347 0-2.808-.972-4.374-2.781-4.374-1.782 0-2.727 1.539-2.727 4.374 0 2.808.972 4.347 2.727 4.347z"/></g></svg>