<svg fill="none" height="48" viewBox="0 0 48 48" width="48" xmlns="http://www.w3.org/2000/svg" xmlns:xlink="http://www.w3.org/1999/xlink"><filter id="a" color-interpolation-filters="sRGB" filterUnits="userSpaceOnUse" height="54" width="48" x="0" y="-3"><feFlood flood-opacity="0" result="BackgroundImageFix"/><feBlend in="SourceGraphic" in2="BackgroundImageFix" mode="normal" result="shape"/><feColorMatrix in="SourceAlpha" result="hardAlpha" type="matrix" values="0 0 0 0 0 0 0 0 0 0 0 0 0 0 0 0 0 0 127 0"/><feOffset dy="-3"/><feGaussianBlur stdDeviation="1.5"/><feComposite in2="hardAlpha" k2="-1" k3="1" operator="arithmetic"/><feColorMatrix type="matrix" values="0 0 0 0 0 0 0 0 0 0 0 0 0 0 0 0 0 0 0.1 0"/><feBlend in2="shape" mode="normal" result="effect1_innerShadow_3051_46977"/><feColorMatrix in="SourceAlpha" result="hardAlpha" type="matrix" values="0 0 0 0 0 0 0 0 0 0 0 0 0 0 0 0 0 0 127 0"/><feOffset dy="3"/><feGaussianBlur stdDeviation="1.5"/><feComposite in2="hardAlpha" k2="-1" k3="1" operator="arithmetic"/><feColorMatrix type="matrix" values="0 0 0 0 1 0 0 0 0 1 0 0 0 0 1 0 0 0 0.1 0"/><feBlend in2="effect1_innerShadow_3051_46977" mode="normal" result="effect2_innerShadow_3051_46977"/><feColorMatrix in="SourceAlpha" result="hardAlpha" type="matrix" values="0 0 0 0 0 0 0 0 0 0 0 0 0 0 0 0 0 0 127 0"/><feMorphology in="SourceAlpha" operator="erode" radius="1" result="effect3_innerShadow_3051_46977"/><feOffset/><feComposite in2="hardAlpha" k2="-1" k3="1" operator="arithmetic"/><feColorMatrix type="matrix" values="0 0 0 0 0.0627451 0 0 0 0 0.0941176 0 0 0 0 0.156863 0 0 0 0.24 0"/><feBlend in2="effect2_innerShadow_3051_46977" mode="normal" result="effect3_innerShadow_3051_46977"/></filter><filter id="b" color-interpolation-filters="sRGB" filterUnits="userSpaceOnUse" height="42" width="34.5" x="6.75" y="5.25"><feFlood flood-opacity="0" result="BackgroundImageFix"/><feColorMatrix in="SourceAlpha" result="hardAlpha" type="matrix" values="0 0 0 0 0 0 0 0 0 0 0 0 0 0 0 0 0 0 127 0"/><feMorphology in="SourceAlpha" operator="erode" radius="1.5" result="effect1_dropShadow_3051_46977"/><feOffset dy="2.25"/><feGaussianBlur stdDeviation="2.25"/><feComposite in2="hardAlpha" operator="out"/><feColorMatrix type="matrix" values="0 0 0 0 0.141176 0 0 0 0 0.141176 0 0 0 0 0.141176 0 0 0 0.1 0"/><feBlend in2="BackgroundImageFix" mode="normal" result="effect1_dropShadow_3051_46977"/><feBlend in="SourceGraphic" in2="effect1_dropShadow_3051_46977" mode="normal" result="shape"/></filter><linearGradient id="c" gradientUnits="userSpaceOnUse" x1="24" x2="26" y1=".000001" y2="48"><stop offset="0" stop-color="#fff" stop-opacity="0"/><stop offset="1" stop-color="#fff" stop-opacity=".12"/></linearGradient><linearGradient id="d" gradientUnits="userSpaceOnUse" x1="24.0007" x2="24.0007" y1="9" y2="39"><stop offset="0" stop-color="#fff" stop-opacity=".8"/><stop offset="1" stop-color="#fff" stop-opacity=".5"/></linearGradient><linearGradient id="e" gradientUnits="userSpaceOnUse" x1="24" x2="24" y1="0" y2="48"><stop offset="0" stop-color="#fff" stop-opacity=".12"/><stop offset="1" stop-color="#fff" stop-opacity="0"/></linearGradient><clipPath id="f"><rect height="48" rx="12" width="48"/></clipPath><g filter="url(#a)"><g clip-path="url(#f)"><rect fill="#ff4405" height="48" rx="12" width="48"/><path d="m0 0h48v48h-48z" fill="url(#c)"/><g fill="url(#d)" filter="url(#b)"><path d="m28.5006 24c0 2.4853-2.0147 4.5-4.5 4.5s-4.5-2.0147-4.5-4.5 2.0147-4.5 4.5-4.5 4.5 2.0147 4.5 4.5z"/><path d="m28.5006 13.5c0 2.4853-2.0147 4.5-4.5 4.5s-4.5-2.0147-4.5-4.5 2.0147-4.5 4.5-4.5 4.5 2.0147 4.5 4.5z"/><path d="m37.5938 29.25c0 2.4853-2.0148 4.5-4.5001 4.5-2.4852 0-4.5-2.0147-4.5-4.5s2.0148-4.5 4.5-4.5c2.4853 0 4.5001 2.0147 4.5001 4.5z"/><path d="m37.5952 18.7502c0 2.4853-2.0147 4.5-4.5 4.5s-4.5-2.0147-4.5-4.5 2.0147-4.5 4.5-4.5 4.5 2.0147 4.5 4.5z"/><path d="m28.5006 34.5c0 2.4853-2.0147 4.5-4.5 4.5s-4.5-2.0147-4.5-4.5 2.0147-4.5 4.5-4.5 4.5 2.0147 4.5 4.5z"/><path d="m19.4077 18.75c0 2.4853-2.0147 4.5-4.5 4.5s-4.5-2.0147-4.5-4.5 2.0147-4.5 4.5-4.5 4.5 2.0147 4.5 4.5z"/><path d="m19.4062 29.2498c0 2.4853-2.0147 4.5-4.5 4.5-2.4852 0-4.5-2.0147-4.5-4.5s2.0148-4.5 4.5-4.5c2.4853 0 4.5 2.0147 4.5 4.5z"/></g></g><rect height="46" rx="11" stroke="url(#e)" stroke-width="2" width="46" x="1" y="1"/></g></svg>