<svg fill="none" height="54" viewBox="0 0 192 54" width="192" xmlns="http://www.w3.org/2000/svg" xmlns:xlink="http://www.w3.org/1999/xlink"><filter id="a" color-interpolation-filters="sRGB" filterUnits="userSpaceOnUse" height="57" width="54" x="0" y="-3"><feFlood flood-opacity="0" result="BackgroundImageFix"/><feColorMatrix in="SourceAlpha" result="hardAlpha" type="matrix" values="0 0 0 0 0 0 0 0 0 0 0 0 0 0 0 0 0 0 127 0"/><feOffset dy="1"/><feGaussianBlur stdDeviation=".5"/><feComposite in2="hardAlpha" operator="out"/><feColorMatrix type="matrix" values="0 0 0 0 0.162923 0 0 0 0 0.162923 0 0 0 0 0.162923 0 0 0 0.08 0"/><feBlend in2="BackgroundImageFix" mode="normal" result="effect1_dropShadow_3046_38784"/><feColorMatrix in="SourceAlpha" result="hardAlpha" type="matrix" values="0 0 0 0 0 0 0 0 0 0 0 0 0 0 0 0 0 0 127 0"/><feMorphology in="SourceAlpha" operator="erode" radius="1" result="effect2_dropShadow_3046_38784"/><feOffset dy="3"/><feGaussianBlur stdDeviation="2"/><feComposite in2="hardAlpha" operator="out"/><feColorMatrix type="matrix" values="0 0 0 0 0.164706 0 0 0 0 0.164706 0 0 0 0 0.164706 0 0 0 0.14 0"/><feBlend in2="effect1_dropShadow_3046_38784" mode="normal" result="effect2_dropShadow_3046_38784"/><feBlend in="SourceGraphic" in2="effect2_dropShadow_3046_38784" mode="normal" result="shape"/><feColorMatrix in="SourceAlpha" result="hardAlpha" type="matrix" values="0 0 0 0 0 0 0 0 0 0 0 0 0 0 0 0 0 0 127 0"/><feOffset dy="-3"/><feGaussianBlur stdDeviation="1.5"/><feComposite in2="hardAlpha" k2="-1" k3="1" operator="arithmetic"/><feColorMatrix type="matrix" values="0 0 0 0 0 0 0 0 0 0 0 0 0 0 0 0 0 0 0.1 0"/><feBlend in2="shape" mode="normal" result="effect3_innerShadow_3046_38784"/><feColorMatrix in="SourceAlpha" result="hardAlpha" type="matrix" values="0 0 0 0 0 0 0 0 0 0 0 0 0 0 0 0 0 0 127 0"/><feOffset dy="3"/><feGaussianBlur stdDeviation="1.5"/><feComposite in2="hardAlpha" k2="-1" k3="1" operator="arithmetic"/><feColorMatrix type="matrix" values="0 0 0 0 1 0 0 0 0 1 0 0 0 0 1 0 0 0 0.1 0"/><feBlend in2="effect3_innerShadow_3046_38784" mode="normal" result="effect4_innerShadow_3046_38784"/><feColorMatrix in="SourceAlpha" result="hardAlpha" type="matrix" values="0 0 0 0 0 0 0 0 0 0 0 0 0 0 0 0 0 0 127 0"/><feMorphology in="SourceAlpha" operator="erode" radius="1" result="effect5_innerShadow_3046_38784"/><feOffset/><feComposite in2="hardAlpha" k2="-1" k3="1" operator="arithmetic"/><feColorMatrix type="matrix" values="0 0 0 0 0.0627451 0 0 0 0 0.0941176 0 0 0 0 0.156863 0 0 0 0.24 0"/><feBlend in2="effect4_innerShadow_3046_38784" mode="normal" result="effect5_innerShadow_3046_38784"/></filter><filter id="b" color-interpolation-filters="sRGB" filterUnits="userSpaceOnUse" height="42" width="34.502" x="9.74805" y="5.25"><feFlood flood-opacity="0" result="BackgroundImageFix"/><feColorMatrix in="SourceAlpha" result="hardAlpha" type="matrix" values="0 0 0 0 0 0 0 0 0 0 0 0 0 0 0 0 0 0 127 0"/><feMorphology in="SourceAlpha" operator="erode" radius="1.5" result="effect1_dropShadow_3046_38784"/><feOffset dy="2.25"/><feGaussianBlur stdDeviation="2.25"/><feComposite in2="hardAlpha" operator="out"/><feColorMatrix type="matrix" values="0 0 0 0 0.141176 0 0 0 0 0.141176 0 0 0 0 0.141176 0 0 0 0.1 0"/><feBlend in2="BackgroundImageFix" mode="normal" result="effect1_dropShadow_3046_38784"/><feBlend in="SourceGraphic" in2="effect1_dropShadow_3046_38784" mode="normal" result="shape"/></filter><linearGradient id="c" gradientUnits="userSpaceOnUse" x1="24" x2="26" y1=".000001" y2="48"><stop offset="0" stop-color="#fff" stop-opacity="0"/><stop offset="1" stop-color="#fff" stop-opacity=".12"/></linearGradient><linearGradient id="d" gradientUnits="userSpaceOnUse" x1="26.998" x2="26.998" y1="9.75" y2="38.25"><stop offset="0" stop-color="#fff" stop-opacity=".8"/><stop offset="1" stop-color="#fff" stop-opacity=".5"/></linearGradient><linearGradient id="e" gradientUnits="userSpaceOnUse" x1="27" x2="27" y1="0" y2="48"><stop offset="0" stop-color="#fff" stop-opacity=".12"/><stop offset="1" stop-color="#fff" stop-opacity="0"/></linearGradient><clipPath id="f"><rect height="48" rx="12" width="48" x="3"/></clipPath><g filter="url(#a)"><g clip-path="url(#f)"><rect fill="#0a0d12" height="48" rx="12" width="48" x="3"/><path d="m0 0h48v48h-48z" fill="url(#c)" transform="translate(3)"/><g filter="url(#b)"><path d="m25.5744 27.4391v10.8109h2.85v-10.8088l7.6427 7.6427 2.0153-2.0153-7.6437-7.6436h10.8093v-2.85h-10.8095l7.6437-7.6436-2.0153-2.0153-7.6425 7.6425v-10.8086h-2.85v10.8107l-7.6446-7.6446-2.0152 2.0152 7.6436 7.6437h-10.8102v2.85h10.81l-7.6436 7.6437 2.0152 2.0152z" fill="url(#d)"/></g></g><rect height="46" rx="11" stroke="url(#e)" stroke-width="2" width="46" x="4" y="1"/></g><g fill="#0a0d12"><path d="m63 33.0001v-19.6h7.028l3.892 17.08h.504v-17.08h3.64v19.6h-7.028l-3.892-17.08h-.504v17.08z"/><path d="m87.0778 33.3921c-1.3813 0-2.6227-.28-3.724-.84s-1.9693-1.372-2.604-2.436-.952-2.3427-.952-3.836v-.448c0-1.4934.3173-2.772.952-3.836s1.5027-1.876 2.604-2.436 2.3427-.84 3.724-.84 2.6227.28 3.724.84 1.9693 1.372 2.604 2.436.952 2.3426.952 3.836v.448c0 1.4933-.3173 2.772-.952 3.836s-1.5027 1.876-2.604 2.436-2.3427.84-3.724.84zm0-3.136c1.0827 0 1.9787-.3454 2.688-1.036.7093-.7094 1.064-1.7174 1.064-3.024v-.28c0-1.3067-.3547-2.3054-1.064-2.996-.6907-.7094-1.5867-1.064-2.688-1.064-1.0827 0-1.9787.3546-2.688 1.064-.7093.6906-1.064 1.6893-1.064 2.996v.28c0 1.3066.3547 2.3146 1.064 3.024.7093.6906 1.6053 1.036 2.688 1.036z"/><path d="m96.2143 33.0001v-13.888h3.472v1.568h.5037c.206-.56.542-.9707 1.008-1.232.486-.2614 1.046-.392 1.68-.392h1.68v3.136h-1.736c-.896 0-1.633.2426-2.212.728-.578.4666-.8677 1.1946-.8677 2.184v7.896z"/><path d="m111.356 33.3921c-1.811 0-3.295-.392-4.452-1.176-1.158-.784-1.858-1.904-2.1-3.36l3.248-.84c.13.6533.345 1.1666.644 1.54.317.3733.7.644 1.148.812.466.1493.97.224 1.512.224.821 0 1.428-.14 1.82-.42.392-.2987.588-.6627.588-1.092 0-.4294-.187-.756-.56-.98-.374-.2427-.971-.4387-1.792-.588l-.784-.14c-.971-.1867-1.858-.4387-2.66-.756-.803-.336-1.447-.7934-1.932-1.372-.486-.5787-.728-1.3254-.728-2.24 0-1.3814.504-2.436 1.512-3.164 1.008-.7467 2.333-1.12 3.976-1.12 1.549 0 2.837.3453 3.864 1.036 1.026.6906 1.698 1.596 2.016 2.716l-3.276 1.008c-.15-.7094-.458-1.2134-.924-1.512-.448-.2987-1.008-.448-1.68-.448s-1.186.1213-1.54.364c-.355.224-.532.5413-.532.952 0 .448.186.784.56 1.008.373.2053.877.364 1.512.476l.784.14c1.045.1866 1.988.4386 2.828.756.858.2986 1.53.7373 2.016 1.316.504.56.756 1.3253.756 2.296 0 1.456-.532 2.5853-1.596 3.388-1.046.784-2.455 1.176-4.228 1.176z"/><path d="m125.199 33.3921c-1.381 0-2.604-.2894-3.668-.868-1.045-.5974-1.866-1.428-2.464-2.492-.578-1.0827-.868-2.352-.868-3.808v-.336c0-1.456.29-2.716.868-3.78.579-1.0827 1.391-1.9134 2.436-2.492 1.046-.5974 2.259-.896 3.64-.896 1.363 0 2.548.308 3.556.924 1.008.5973 1.792 1.4373 2.352 2.52.56 1.064.84 2.3053.84 3.724v1.204h-10.108c.038.952.392 1.7266 1.064 2.324.672.5973 1.494.896 2.464.896.99 0 1.718-.2147 2.184-.644.467-.4294.822-.9054 1.064-1.428l2.884 1.512c-.261.4853-.644 1.0173-1.148 1.596-.485.56-1.138 1.0453-1.96 1.456-.821.392-1.866.588-3.136.588zm-3.388-8.932h6.496c-.074-.8027-.401-1.4467-.98-1.932-.56-.4854-1.297-.728-2.212-.728-.952 0-1.708.2426-2.268.728-.56.4853-.905 1.1293-1.036 1.932z"/><path d="m146.033 33.3921c-1.512 0-2.847-.2707-4.004-.812-1.157-.5414-2.063-1.316-2.716-2.324s-.98-2.2214-.98-3.64v-.784h3.64v.784c0 1.176.364 2.0626 1.092 2.66.728.5786 1.717.868 2.968.868 1.269 0 2.212-.252 2.828-.756.635-.504.952-1.148.952-1.932 0-.5414-.159-.98-.476-1.316-.299-.336-.747-.6067-1.344-.812-.579-.224-1.288-.4294-2.128-.616l-.644-.14c-1.344-.2987-2.501-.672-3.472-1.12-.952-.4667-1.689-1.0734-2.212-1.82-.504-.7467-.756-1.7174-.756-2.912 0-1.1947.28-2.212.84-3.052.579-.8587 1.381-1.512 2.408-1.96 1.045-.4667 2.268-.7 3.668-.7s2.641.2426 3.724.728c1.101.4666 1.96 1.176 2.576 2.128.635.9333.952 2.1093.952 3.528v.84h-3.64v-.84c0-.7467-.149-1.344-.448-1.792-.28-.4667-.691-.8027-1.232-1.008-.541-.224-1.185-.336-1.932-.336-1.12 0-1.951.2146-2.492.644-.523.4106-.784.98-.784 1.708 0 .4853.121.896.364 1.232.261.336.644.616 1.148.84s1.148.42 1.932.588l.644.14c1.4.2986 2.613.6813 3.64 1.148 1.045.4666 1.857 1.0826 2.436 1.848.579.7653.868 1.7453.868 2.94 0 1.1946-.308 2.2493-.924 3.164-.597.896-1.456 1.6053-2.576 2.128-1.101.504-2.408.756-3.92.756z"/><path d="m160.241 33.0001c-.914 0-1.661-.28-2.24-.84-.56-.5787-.84-1.344-.84-2.296v-7.84h-3.472v-2.912h3.472v-4.312h3.528v4.312h3.808v2.912h-3.808v7.224c0 .56.262.84.784.84h2.688v2.912z"/><path d="m171.399 33.3921c-1.12 0-2.156-.2707-3.108-.812-.952-.56-1.718-1.372-2.296-2.436-.579-1.064-.868-2.352-.868-3.864v-.448c0-1.512.289-2.8.868-3.864.578-1.064 1.344-1.8667 2.296-2.408.97-.56 2.006-.84 3.108-.84 1.269 0 2.23.2146 2.884.644.672.4106 1.166.8866 1.484 1.428h.504v-1.68h3.472v10.136c0 .56.261.84.784.84h1.12v2.912h-2.8c-.672 0-1.232-.1867-1.68-.56-.43-.3734-.644-.8867-.644-1.54v-.028h-.504c-.318.6906-.831 1.288-1.54 1.792-.691.4853-1.718.728-3.08.728zm1.064-3.08c1.101 0 2.006-.3454 2.716-1.036.728-.7094 1.092-1.736 1.092-3.08v-.28c0-1.344-.364-2.3614-1.092-3.052-.728-.7094-1.634-1.064-2.716-1.064-1.083 0-1.988.3546-2.716 1.064-.728.6906-1.092 1.708-1.092 3.052v.28c0 1.344.364 2.3706 1.092 3.08.728.6906 1.633 1.036 2.716 1.036z"/><path d="m182.883 33.0001v-13.888h3.472v1.568h.504c.205-.56.541-.9707 1.008-1.232.485-.2614 1.045-.392 1.68-.392h1.68v3.136h-1.736c-.896 0-1.633.2426-2.212.728-.579.4666-.868 1.1946-.868 2.184v7.896z"/></g></svg>