<svg fill="none" height="48" viewBox="0 0 178 48" width="178" xmlns="http://www.w3.org/2000/svg" xmlns:xlink="http://www.w3.org/1999/xlink"><filter id="a" color-interpolation-filters="sRGB" filterUnits="userSpaceOnUse" height="54" width="48" x="0" y="-3"><feFlood flood-opacity="0" result="BackgroundImageFix"/><feBlend in="SourceGraphic" in2="BackgroundImageFix" mode="normal" result="shape"/><feColorMatrix in="SourceAlpha" result="hardAlpha" type="matrix" values="0 0 0 0 0 0 0 0 0 0 0 0 0 0 0 0 0 0 127 0"/><feOffset dy="-3"/><feGaussianBlur stdDeviation="1.5"/><feComposite in2="hardAlpha" k2="-1" k3="1" operator="arithmetic"/><feColorMatrix type="matrix" values="0 0 0 0 0 0 0 0 0 0 0 0 0 0 0 0 0 0 0.1 0"/><feBlend in2="shape" mode="normal" result="effect1_innerShadow_3046_38783"/><feColorMatrix in="SourceAlpha" result="hardAlpha" type="matrix" values="0 0 0 0 0 0 0 0 0 0 0 0 0 0 0 0 0 0 127 0"/><feOffset dy="3"/><feGaussianBlur stdDeviation="1.5"/><feComposite in2="hardAlpha" k2="-1" k3="1" operator="arithmetic"/><feColorMatrix type="matrix" values="0 0 0 0 1 0 0 0 0 1 0 0 0 0 1 0 0 0 0.1 0"/><feBlend in2="effect1_innerShadow_3046_38783" mode="normal" result="effect2_innerShadow_3046_38783"/><feColorMatrix in="SourceAlpha" result="hardAlpha" type="matrix" values="0 0 0 0 0 0 0 0 0 0 0 0 0 0 0 0 0 0 127 0"/><feMorphology in="SourceAlpha" operator="erode" radius="1" result="effect3_innerShadow_3046_38783"/><feOffset/><feComposite in2="hardAlpha" k2="-1" k3="1" operator="arithmetic"/><feColorMatrix type="matrix" values="0 0 0 0 0.0627451 0 0 0 0 0.0941176 0 0 0 0 0.156863 0 0 0 0.24 0"/><feBlend in2="effect2_innerShadow_3046_38783" mode="normal" result="effect3_innerShadow_3046_38783"/></filter><filter id="b" color-interpolation-filters="sRGB" filterUnits="userSpaceOnUse" height="42" width="36" x="6" y="5.25"><feFlood flood-opacity="0" result="BackgroundImageFix"/><feColorMatrix in="SourceAlpha" result="hardAlpha" type="matrix" values="0 0 0 0 0 0 0 0 0 0 0 0 0 0 0 0 0 0 127 0"/><feMorphology in="SourceAlpha" operator="erode" radius="1.5" result="effect1_dropShadow_3046_38783"/><feOffset dy="2.25"/><feGaussianBlur stdDeviation="2.25"/><feComposite in2="hardAlpha" operator="out"/><feColorMatrix type="matrix" values="0 0 0 0 0.141176 0 0 0 0 0.141176 0 0 0 0 0.141176 0 0 0 0.1 0"/><feBlend in2="BackgroundImageFix" mode="normal" result="effect1_dropShadow_3046_38783"/><feBlend in="SourceGraphic" in2="effect1_dropShadow_3046_38783" mode="normal" result="shape"/></filter><linearGradient id="c" gradientUnits="userSpaceOnUse" x1="24" x2="26" y1=".000001" y2="48"><stop offset="0" stop-color="#fff" stop-opacity="0"/><stop offset="1" stop-color="#fff" stop-opacity=".12"/></linearGradient><linearGradient id="d" gradientUnits="userSpaceOnUse" x1="23.9452" x2="23.9452" y1="9" y2="39"><stop offset="0" stop-color="#fff" stop-opacity=".8"/><stop offset="1" stop-color="#fff" stop-opacity=".5"/></linearGradient><linearGradient id="e" gradientUnits="userSpaceOnUse" x1="24" x2="24" y1="0" y2="48"><stop offset="0" stop-color="#fff" stop-opacity=".12"/><stop offset="1" stop-color="#fff" stop-opacity="0"/></linearGradient><clipPath id="f"><rect height="48" rx="12" width="48"/></clipPath><clipPath id="g"><path d="m9 6h30v36h-30z"/></clipPath><g filter="url(#a)"><g clip-path="url(#f)"><rect fill="#ff4405" height="48" rx="12" width="48"/><path d="m0 0h48v48h-48z" fill="url(#c)"/><g clip-path="url(#g)" fill="url(#d)" filter="url(#b)"><path d="m27.8155 9.7904-2.9497-.7904-2.4858 9.2772-2.2443-8.37552-2.9498.79042 2.4248 9.0491-6.0395-6.0395-2.1594 2.1594 6.6245 6.6247-8.24981-2.2106-.7904 2.9498 9.01401 2.4153c-.1032-.4452-.1578-.909-.1578-1.3855 0-3.3732 2.7345-6.1077 6.1077-6.1077s6.1077 2.7345 6.1077 6.1077c0 .4735-.0539.9344-.1558 1.3769l8.192 2.195.7903-2.9497-9.0498-2.4249 8.2504-2.2107-.7904-2.9498-9.0495 2.4248 6.0395-6.0395-2.1594-2.1593-6.5327 6.5326z"/><path d="m29.9032 25.6661c-.2529 1.0692-.7868 2.0297-1.5194 2.7993l5.9348 5.9348 2.1594-2.1594z"/><path d="m28.3239 28.5274c-.7415.7573-1.6784 1.3224-2.7292 1.6136l2.1596 8.0596 2.9497-.7905z"/><path d="m25.4845 30.1705c-.4875.1254-.9984.192-1.525.192-.5642 0-1.1105-.0765-1.6291-.2197l-2.1615 8.0669 2.9497.7903z"/><path d="m22.2261 30.113c-1.0347-.3057-1.955-.878-2.6813-1.6374l-5.9494 5.9494 2.1594 2.1594z"/><path d="m19.4957 28.423c-.7138-.7643-1.2338-1.712-1.4813-2.7647l-8.21877 2.2022.79037 2.9498z"/></g></g><rect height="46" rx="11" stroke="url(#e)" stroke-width="2" width="46" x="1" y="1"/></g><g fill="#fff"><path d="m60 33v-18.522h3.699l7.452 9.99c.108.126.243.306.405.54.162.216.315.432.459.648s.243.387.297.513h.135c0-.306 0-.603 0-.891 0-.306 0-.576 0-.81v-9.99h3.807v18.522h-3.699l-7.614-10.233c-.18-.252-.369-.531-.567-.837s-.342-.54-.432-.702h-.135v.81.729 10.233z"/><path d="m78.9515 16.719v-3.24h3.753v3.24zm0 16.281v-14.202h3.753v14.202z"/><path d="m91.5227 33.324c-1.566 0-2.88-.261-3.942-.783-1.062-.54-1.863-1.359-2.403-2.457s-.81-2.493-.81-4.185c0-1.71.27-3.105.81-4.185.54-1.098 1.332-1.908 2.376-2.43 1.062-.54 2.358-.81 3.888-.81 1.44 0 2.655.261 3.645.783.99.504 1.737 1.296 2.241 2.376.504 1.062.756 2.439.756 4.131v.972h-9.909c.036.828.162 1.53.378 2.106.234.576.585 1.008 1.053 1.296.486.27 1.125.405 1.917.405.432 0 .819-.054 1.161-.162.36-.108.666-.27.918-.486s.45-.486.594-.81.216-.693.216-1.107h3.672c0 .9-.162 1.683-.486 2.349s-.774 1.224-1.35 1.674c-.576.432-1.269.765-2.079.999-.792.216-1.674.324-2.646.324zm-3.294-8.964h5.994c0-.54-.072-1.008-.216-1.404-.126-.396-.306-.72-.54-.972s-.522-.432-.864-.54c-.324-.126-.693-.189-1.107-.189-.684 0-1.26.117-1.728.351-.45.216-.801.558-1.053 1.026-.234.45-.396 1.026-.486 1.728z"/><path d="m103.996 33.324c-.9 0-1.629-.162-2.187-.486s-.963-.756-1.215-1.296c-.252-.558-.378-1.17-.378-1.836v-8.019h-1.7547v-2.889h1.8897l.702-4.05h2.916v4.05h2.592v2.889h-2.592v7.398c0 .432.099.765.297.999.198.216.522.324.972.324h1.323v2.484c-.216.072-.468.135-.756.189-.288.072-.594.126-.918.162-.324.054-.621.081-.891.081z"/><path d="m106.799 33v-1.593l6.939-9.72h-6.507v-2.889h11.934v1.539l-6.966 9.747h7.236v2.916z"/><path d="m126.578 33.324c-.99 0-1.881-.108-2.673-.324s-1.467-.513-2.025-.891c-.558-.396-.99-.864-1.296-1.404-.288-.54-.432-1.152-.432-1.836 0-.072 0-.144 0-.216s.009-.126.027-.162h3.618v.108.108c.018.45.162.819.432 1.107.27.27.621.468 1.053.594.45.126.918.189 1.404.189.432 0 .846-.036 1.242-.108.414-.09.756-.243 1.026-.459.288-.216.432-.495.432-.837 0-.432-.18-.765-.54-.999-.342-.234-.801-.423-1.377-.567-.558-.144-1.17-.306-1.836-.486-.612-.144-1.224-.306-1.836-.486-.612-.198-1.17-.45-1.674-.756-.486-.306-.882-.702-1.188-1.188-.306-.504-.459-1.134-.459-1.89 0-.738.162-1.377.486-1.917.324-.558.765-1.017 1.323-1.377.576-.36 1.242-.621 1.998-.783.774-.18 1.602-.27 2.484-.27.828 0 1.602.09 2.322.27.72.162 1.35.414 1.89.756.54.324.963.738 1.269 1.242.306.486.459 1.035.459 1.647v.351c0 .108-.009.18-.027.216h-3.591v-.216c0-.324-.099-.594-.297-.81-.198-.234-.486-.414-.864-.54-.36-.126-.801-.189-1.323-.189-.36 0-.693.027-.999.081-.288.054-.54.135-.756.243s-.387.243-.513.405c-.108.144-.162.324-.162.54 0 .306.126.558.378.756.27.18.621.333 1.053.459s.909.261 1.431.405c.648.18 1.323.36 2.025.54.72.162 1.386.387 1.998.675s1.107.702 1.485 1.242c.378.522.567 1.233.567 2.133 0 .864-.171 1.593-.513 2.187-.324.594-.783 1.071-1.377 1.431s-1.287.621-2.079.783-1.647.243-2.565.243z"/><path d="m140.987 33.324c-1.512 0-2.781-.261-3.807-.783-1.026-.54-1.809-1.359-2.349-2.457-.522-1.116-.783-2.511-.783-4.185 0-1.71.261-3.105.783-4.185.54-1.098 1.323-1.917 2.349-2.457 1.044-.54 2.313-.81 3.807-.81.972 0 1.845.117 2.619.351.792.234 1.476.594 2.052 1.08s1.008 1.089 1.296 1.809c.306.702.459 1.539.459 2.511h-3.753c0-.648-.099-1.179-.297-1.593s-.504-.729-.918-.945c-.396-.216-.9-.324-1.512-.324-.72 0-1.305.162-1.755.486s-.783.801-.999 1.431-.324 1.413-.324 2.349v.621c0 .918.108 1.692.324 2.322.234.63.585 1.107 1.053 1.431.468.306 1.08.459 1.836.459.612 0 1.116-.108 1.512-.324.414-.216.729-.54.945-.972s.324-.954.324-1.566h3.564c0 .918-.153 1.737-.459 2.457-.288.72-.72 1.323-1.296 1.809-.558.486-1.233.855-2.025 1.107s-1.674.378-2.646.378z"/><path d="m149.147 33v-19.521h3.753v6.885h.189c.306-.378.666-.702 1.08-.972.432-.288.909-.513 1.431-.675.54-.162 1.125-.243 1.755-.243.936 0 1.755.171 2.457.513s1.242.882 1.62 1.62c.396.738.594 1.701.594 2.889v9.504h-3.753v-8.91c0-.45-.054-.828-.162-1.134-.108-.324-.27-.585-.486-.783-.198-.216-.45-.369-.756-.459s-.648-.135-1.026-.135c-.558 0-1.062.135-1.512.405s-.801.639-1.053 1.107-.378 1.008-.378 1.62v8.289z"/><path d="m170.762 33.324c-1.566 0-2.88-.261-3.942-.783-1.062-.54-1.863-1.359-2.403-2.457s-.81-2.493-.81-4.185c0-1.71.27-3.105.81-4.185.54-1.098 1.332-1.908 2.376-2.43 1.062-.54 2.358-.81 3.888-.81 1.44 0 2.655.261 3.645.783.99.504 1.737 1.296 2.241 2.376.504 1.062.756 2.439.756 4.131v.972h-9.909c.036.828.162 1.53.378 2.106.234.576.585 1.008 1.053 1.296.486.27 1.125.405 1.917.405.432 0 .819-.054 1.161-.162.36-.108.666-.27.918-.486s.45-.486.594-.81.216-.693.216-1.107h3.672c0 .9-.162 1.683-.486 2.349s-.774 1.224-1.35 1.674c-.576.432-1.269.765-2.079.999-.792.216-1.674.324-2.646.324zm-3.294-8.964h5.994c0-.54-.072-1.008-.216-1.404-.126-.396-.306-.72-.54-.972s-.522-.432-.864-.54c-.324-.126-.693-.189-1.107-.189-.684 0-1.26.117-1.728.351-.45.216-.801.558-1.053 1.026-.234.45-.396 1.026-.486 1.728z"/></g></svg>