<svg fill="none" height="48" viewBox="0 0 48 48" width="48" xmlns="http://www.w3.org/2000/svg" xmlns:xlink="http://www.w3.org/1999/xlink"><filter id="a" color-interpolation-filters="sRGB" filterUnits="userSpaceOnUse" height="54" width="48" x="0" y="-3"><feFlood flood-opacity="0" result="BackgroundImageFix"/><feBlend in="SourceGraphic" in2="BackgroundImageFix" mode="normal" result="shape"/><feColorMatrix in="SourceAlpha" result="hardAlpha" type="matrix" values="0 0 0 0 0 0 0 0 0 0 0 0 0 0 0 0 0 0 127 0"/><feOffset dy="-3"/><feGaussianBlur stdDeviation="1.5"/><feComposite in2="hardAlpha" k2="-1" k3="1" operator="arithmetic"/><feColorMatrix type="matrix" values="0 0 0 0 0 0 0 0 0 0 0 0 0 0 0 0 0 0 0.1 0"/><feBlend in2="shape" mode="normal" result="effect1_innerShadow_3051_47011"/><feColorMatrix in="SourceAlpha" result="hardAlpha" type="matrix" values="0 0 0 0 0 0 0 0 0 0 0 0 0 0 0 0 0 0 127 0"/><feOffset dy="3"/><feGaussianBlur stdDeviation="1.5"/><feComposite in2="hardAlpha" k2="-1" k3="1" operator="arithmetic"/><feColorMatrix type="matrix" values="0 0 0 0 1 0 0 0 0 1 0 0 0 0 1 0 0 0 0.1 0"/><feBlend in2="effect1_innerShadow_3051_47011" mode="normal" result="effect2_innerShadow_3051_47011"/><feColorMatrix in="SourceAlpha" result="hardAlpha" type="matrix" values="0 0 0 0 0 0 0 0 0 0 0 0 0 0 0 0 0 0 127 0"/><feMorphology in="SourceAlpha" operator="erode" radius="1" result="effect3_innerShadow_3051_47011"/><feOffset/><feComposite in2="hardAlpha" k2="-1" k3="1" operator="arithmetic"/><feColorMatrix type="matrix" values="0 0 0 0 0.0627451 0 0 0 0 0.0941176 0 0 0 0 0.156863 0 0 0 0.24 0"/><feBlend in2="effect2_innerShadow_3051_47011" mode="normal" result="effect3_innerShadow_3051_47011"/></filter><filter id="b" color-interpolation-filters="sRGB" filterUnits="userSpaceOnUse" height="42" width="36" x="6" y="5.25"><feFlood flood-opacity="0" result="BackgroundImageFix"/><feColorMatrix in="SourceAlpha" result="hardAlpha" type="matrix" values="0 0 0 0 0 0 0 0 0 0 0 0 0 0 0 0 0 0 127 0"/><feMorphology in="SourceAlpha" operator="erode" radius="1.5" result="effect1_dropShadow_3051_47011"/><feOffset dy="2.25"/><feGaussianBlur stdDeviation="2.25"/><feComposite in2="hardAlpha" operator="out"/><feColorMatrix type="matrix" values="0 0 0 0 0.141176 0 0 0 0 0.141176 0 0 0 0 0.141176 0 0 0 0.1 0"/><feBlend in2="BackgroundImageFix" mode="normal" result="effect1_dropShadow_3051_47011"/><feBlend in="SourceGraphic" in2="effect1_dropShadow_3051_47011" mode="normal" result="shape"/></filter><linearGradient id="c" gradientUnits="userSpaceOnUse" x1="24" x2="26" y1=".000001" y2="48"><stop offset="0" stop-color="#fff" stop-opacity="0"/><stop offset="1" stop-color="#fff" stop-opacity=".12"/></linearGradient><linearGradient id="d" gradientUnits="userSpaceOnUse" x1="24" x2="24" y1="9" y2="39"><stop offset="0" stop-color="#fff" stop-opacity=".8"/><stop offset="1" stop-color="#fff" stop-opacity=".5"/></linearGradient><linearGradient id="e" gradientUnits="userSpaceOnUse" x1="24" x2="24" y1="0" y2="48"><stop offset="0" stop-color="#fff" stop-opacity=".12"/><stop offset="1" stop-color="#fff" stop-opacity="0"/></linearGradient><clipPath id="f"><rect height="48" rx="12" width="48"/></clipPath><g filter="url(#a)"><g clip-path="url(#f)"><rect fill="#7839ee" height="48" rx="12" width="48"/><path d="m0 0h48v48h-48z" fill="url(#c)"/><g filter="url(#b)"><path clip-rule="evenodd" d="m24 36.8523c1.402 0 2.7516-.2245 4.0148-.6395-1.2881-.2168-2.6452-.6538-4.0137-1.2965-1.3688.6429-2.7263 1.0801-4.0147 1.2969 1.2629.4147 2.612.6391 4.0136.6391zm-12.2117-8.8344c.2166-1.2887.6537-2.6467 1.2967-4.016-.6434-1.3694-1.0809-2.7275-1.2979-4.0164-.4149 1.2631-.6394 2.6126-.6394 4.0145 0 1.4032.2249 2.7538.6406 4.0179zm2.703-1.5074c-.1199.3509-.2222.6966-.307 1.0356-.6658 2.6632-.1774 4.4909.8016 5.4699.9789.9789 2.8067 1.4673 5.4699.8015.3392-.0848.6851-.1872 1.0363-.3072-1.3261-.8662-2.6293-1.9195-3.8562-3.1464-1.2261-1.226-2.2787-2.5283-3.1446-3.8534zm9.5097 5.8829c-1.6073-.8794-3.2434-2.0898-4.7741-3.6205-1.5298-1.5297-2.7397-3.1649-3.6189-4.7712.8794-1.6074 2.0898-3.2436 3.6205-4.7743 1.5302-1.5302 3.1658-2.7403 4.7725-3.6196 1.6066.8793 3.2419 2.0893 4.7718 3.6192 1.5309 1.5308 2.7414 3.1672 3.6208 4.7747-.8793 1.6065-2.0892 3.2417-3.6191 4.7716-1.5305 1.5305-3.1664 2.7407-4.7735 3.6201zm9.5092-5.8828c-.8659 1.3252-1.9186 2.6276-3.1447 3.8537-1.2267 1.2267-2.5297 2.2797-3.8555 3.1459.3509.1199.6967.2222 1.0356.3069 2.6632.6658 4.4909.1774 5.4699-.8015.9789-.979 1.4673-2.8067.8015-5.4699-.0847-.3388-.187-.6844-.3068-1.0351zm1.4063-2.5087c.643-1.3684 1.0802-2.7255 1.2973-4.0135.4143 1.2622.6385 2.6107.6385 4.0116 0 1.4021-.2246 2.7518-.6396 4.015-.2168-1.2878-.6536-2.6448-1.2962-4.0131zm-6.9005-12.2143c-1.2885.2169-2.6461.6541-4.0149 1.2972-1.3692-.6433-2.7271-1.0807-4.0159-1.2976 1.2632-.415 2.6128-.6395 4.0148-.6395 1.4025 0 2.7525.2247 4.016.6399zm6.5076 1.5235c-2.7076-2.6661-6.4235-4.3111-10.5236-4.3111-4.1255 0-7.862 1.6655-10.5738 4.3607l-.0329.0327-.0328.033c-2.6951 2.7118-4.3605 6.4482-4.3605 10.5736 0 8.2843 6.7157 15 15 15s15-6.7157 15-15c0-4.0986-1.6438-7.8133-4.3082-10.5207-.0275-.0288-.0554-.0573-.0837-.0856-.0279-.0279-.0561-.0554-.0845-.0826zm-13.031 1.1796c-.3519-.1203-.6986-.223-1.0384-.3079-2.6633-.6658-4.491-.1774-5.47.8016-.9789.9789-1.4673 2.8066-.8015 5.4699.085.34.1877.6868.3081 1.0388.8663-1.3262 1.9197-2.6296 3.1467-3.8567 1.2266-1.2266 2.5294-2.2796 3.8551-3.1457zm12.0181 7.0023c-.8663-1.3263-1.9197-2.6298-3.1469-3.857-1.2263-1.2263-2.5289-2.2791-3.8543-3.1451.3517-.1202.6981-.2228 1.0377-.3077 2.6632-.6658 4.491-.1774 5.4699.8015.979.979 1.4674 2.8067.8016 5.4699-.085.3399-.1877.6865-.308 1.0384z" fill="url(#d)" fill-rule="evenodd"/></g></g><rect height="46" rx="11" stroke="url(#e)" stroke-width="2" width="46" x="1" y="1"/></g></svg>