<svg fill="none" height="48" viewBox="0 0 165 48" width="165" xmlns="http://www.w3.org/2000/svg" xmlns:xlink="http://www.w3.org/1999/xlink"><filter id="a" color-interpolation-filters="sRGB" filterUnits="userSpaceOnUse" height="54" width="48" x="0" y="-3"><feFlood flood-opacity="0" result="BackgroundImageFix"/><feBlend in="SourceGraphic" in2="BackgroundImageFix" mode="normal" result="shape"/><feColorMatrix in="SourceAlpha" result="hardAlpha" type="matrix" values="0 0 0 0 0 0 0 0 0 0 0 0 0 0 0 0 0 0 127 0"/><feOffset dy="-3"/><feGaussianBlur stdDeviation="1.5"/><feComposite in2="hardAlpha" k2="-1" k3="1" operator="arithmetic"/><feColorMatrix type="matrix" values="0 0 0 0 0 0 0 0 0 0 0 0 0 0 0 0 0 0 0.1 0"/><feBlend in2="shape" mode="normal" result="effect1_innerShadow_3046_38770"/><feColorMatrix in="SourceAlpha" result="hardAlpha" type="matrix" values="0 0 0 0 0 0 0 0 0 0 0 0 0 0 0 0 0 0 127 0"/><feOffset dy="3"/><feGaussianBlur stdDeviation="1.5"/><feComposite in2="hardAlpha" k2="-1" k3="1" operator="arithmetic"/><feColorMatrix type="matrix" values="0 0 0 0 1 0 0 0 0 1 0 0 0 0 1 0 0 0 0.1 0"/><feBlend in2="effect1_innerShadow_3046_38770" mode="normal" result="effect2_innerShadow_3046_38770"/><feColorMatrix in="SourceAlpha" result="hardAlpha" type="matrix" values="0 0 0 0 0 0 0 0 0 0 0 0 0 0 0 0 0 0 127 0"/><feMorphology in="SourceAlpha" operator="erode" radius="1" result="effect3_innerShadow_3046_38770"/><feOffset/><feComposite in2="hardAlpha" k2="-1" k3="1" operator="arithmetic"/><feColorMatrix type="matrix" values="0 0 0 0 0.0627451 0 0 0 0 0.0941176 0 0 0 0 0.156863 0 0 0 0.24 0"/><feBlend in2="effect2_innerShadow_3046_38770" mode="normal" result="effect3_innerShadow_3046_38770"/></filter><filter id="b" color-interpolation-filters="sRGB" filterUnits="userSpaceOnUse" height="44.3333" width="34.9779" x="6.58333" y="4.20833"><feFlood flood-opacity="0" result="BackgroundImageFix"/><feColorMatrix in="SourceAlpha" result="hardAlpha" type="matrix" values="0 0 0 0 0 0 0 0 0 0 0 0 0 0 0 0 0 0 127 0"/><feMorphology in="SourceAlpha" operator="erode" radius="1.58333" result="effect1_dropShadow_3046_38770"/><feOffset dy="2.375"/><feGaussianBlur stdDeviation="2.375"/><feComposite in2="hardAlpha" operator="out"/><feColorMatrix type="matrix" values="0 0 0 0 0.141176 0 0 0 0 0.141176 0 0 0 0 0.141176 0 0 0 0.1 0"/><feBlend in2="BackgroundImageFix" mode="normal" result="effect1_dropShadow_3046_38770"/><feBlend in="SourceGraphic" in2="effect1_dropShadow_3046_38770" mode="normal" result="shape"/></filter><linearGradient id="c" gradientUnits="userSpaceOnUse" x1="24" x2="26" y1=".000001" y2="48"><stop offset="0" stop-color="#fff" stop-opacity="0"/><stop offset="1" stop-color="#fff" stop-opacity=".12"/></linearGradient><linearGradient id="d" gradientUnits="userSpaceOnUse" x1="24.0719" x2="24.0719" y1="8.16675" y2="39.8334"><stop offset="0" stop-color="#fff" stop-opacity=".8"/><stop offset="1" stop-color="#fff" stop-opacity=".5"/></linearGradient><linearGradient id="e" gradientUnits="userSpaceOnUse" x1="24" x2="24" y1="0" y2="48"><stop offset="0" stop-color="#fff" stop-opacity=".12"/><stop offset="1" stop-color="#fff" stop-opacity="0"/></linearGradient><clipPath id="f"><rect height="48" rx="12" width="48"/></clipPath><g filter="url(#a)"><g clip-path="url(#f)"><rect fill="#7839ee" height="48" rx="12" width="48"/><path d="m0 0h48v48h-48z" fill="url(#c)"/><g filter="url(#b)"><path clip-rule="evenodd" d="m29.503 20.4526c-.4056 4.2123-3.9551 7.5058-8.2738 7.5058-.9038 0-1.7738-.1442-2.5884-.4109.4056-4.2123 3.9551-7.5058 8.2738-7.5058.9038 0 1.7738.1442 2.5884.4109zm-.3614-3.3617c-.7204-.1417-1.465-.2159-2.227-.2159-5.483 0-10.0682 3.8442-11.2073 8.9845-1.7121-1.5226-2.7906-3.7422-2.7906-6.2136 0-4.5909 3.7216-8.3125 8.3125-8.3125 3.6994 0 6.8344 2.4167 7.9124 5.7575zm3.5003 1.3127c-.6194-5.7555-5.4927-10.23685-11.4127-10.23685-6.3398 0-11.4792 5.13935-11.4792 11.47915 0 4.254 2.314 7.9676 5.7519 9.9506.6194 5.7555 5.4927 10.2368 11.4127 10.2368 6.3398 0 11.4792-5.1394 11.4792-11.4791 0-4.254-2.314-7.9676-5.7519-9.9506zm-.2054 3.737c-1.1391 5.1403-5.7243 8.9845-11.2073 8.9845-.762 0-1.5066-.0743-2.227-.2159 1.078 3.3408 4.213 5.7575 7.9124 5.7575 4.5909 0 8.3125-3.7217 8.3125-8.3125 0-2.4715-1.0785-4.691-2.7906-6.2136z" fill="url(#d)" fill-rule="evenodd"/></g></g><rect height="46" rx="11" stroke="url(#e)" stroke-width="2" width="46" x="1" y="1"/></g><g fill="#fff"><path d="m117.548 33v-20.967h4.031v20.967z"/><path d="m60 33v-20.3h4.379v20.3z"/><path d="m66.5903 33v-14.616h4.06v2.03c.812-1.421 2.436-2.262 4.437-2.262 3.306 0 5.4519 2.378 5.4519 5.742v9.106h-4.06v-8.207c0-1.769-1.1309-3.045-2.8129-3.045-1.769 0-3.016 1.363-3.016 3.248v8.004z"/><path d="m87.8004 14.063h-4.031v4.321h-2.813v3.364h2.813v5.945c0 3.393 2.175 5.307 5.539 5.307h2.407v-3.393h-1.856c-1.305 0-2.059-.667-2.059-2.088v-5.771h3.915v-3.364h-3.915z"/><path clip-rule="evenodd" d="m102.25 28.041h3.944c-.58 3.161-3.364 5.191-6.9597 5.191-4.959 0-7.511-3.886-7.511-7.569 0-3.712 2.262-7.511 7.221-7.511 5.1617 0 7.2207 3.799 7.2207 7.134 0 .551-.029.986-.058 1.305h-10.4977c.29 2.059 1.595 3.335 3.625 3.335 1.6237 0 2.6967-.638 3.0157-1.885zm-3.3057-6.931c-1.827 0-2.929.899-3.277 2.929h6.4667c-.116-1.624-1.247-2.929-3.1897-2.929z" fill-rule="evenodd"/><path d="m114.193 21.748h2.407v-3.364h-1.653c-1.769 0-2.871.609-3.654 2.436v-2.436h-4.06v14.616h4.06v-7.105c0-2.494.899-4.147 2.9-4.147z"/><path clip-rule="evenodd" d="m122.851 25.692c0 4.35 3.219 7.54 7.714 7.54 2.307 0 4.278-.8406 5.65-2.2473 1.323 1.3973 3.236 2.2473 5.54 2.2473 3.799 0 6.815-2.436 7.25-5.684h-4.118c-.29 1.305-1.479 2.204-2.958 2.204-2.204 0-3.509-1.682-3.509-4.06s1.276-4.089 3.451-4.089c1.479 0 2.726.957 2.958 2.262h4.06c-.261-3.393-3.306-5.713-7.134-5.713-2.304 0-4.217.8499-5.54 2.2472-1.372-1.4066-3.343-2.2472-5.65-2.2472-4.495 0-7.714 3.19-7.714 7.54zm11.365-.1663c-.065-2.3447-1.526-3.9227-3.651-3.9227-2.175 0-3.654 1.653-3.654 4.089 0 2.407 1.479 4.06 3.654 4.06 2.125 0 3.585-1.5778 3.651-3.8949-.001-.0549-.001-.1099-.001-.1651 0-.0556 0-.1111.001-.1663z" fill-rule="evenodd"/><path d="m155.811 26.823 4.147 6.177h4.872l-6.293-8.874 5.829-5.742h-5.104l-5.075 4.988v-11.339h-4.06v20.967h4.06v-4.582z"/></g></svg>