<svg fill="none" height="48" viewBox="0 0 157 48" width="157" xmlns="http://www.w3.org/2000/svg" xmlns:xlink="http://www.w3.org/1999/xlink"><filter id="a" color-interpolation-filters="sRGB" filterUnits="userSpaceOnUse" height="54" width="48" x="0" y="-3"><feFlood flood-opacity="0" result="BackgroundImageFix"/><feBlend in="SourceGraphic" in2="BackgroundImageFix" mode="normal" result="shape"/><feColorMatrix in="SourceAlpha" result="hardAlpha" type="matrix" values="0 0 0 0 0 0 0 0 0 0 0 0 0 0 0 0 0 0 127 0"/><feOffset dy="-3"/><feGaussianBlur stdDeviation="1.5"/><feComposite in2="hardAlpha" k2="-1" k3="1" operator="arithmetic"/><feColorMatrix type="matrix" values="0 0 0 0 0 0 0 0 0 0 0 0 0 0 0 0 0 0 0.1 0"/><feBlend in2="shape" mode="normal" result="effect1_innerShadow_3046_38746"/><feColorMatrix in="SourceAlpha" result="hardAlpha" type="matrix" values="0 0 0 0 0 0 0 0 0 0 0 0 0 0 0 0 0 0 127 0"/><feOffset dy="3"/><feGaussianBlur stdDeviation="1.5"/><feComposite in2="hardAlpha" k2="-1" k3="1" operator="arithmetic"/><feColorMatrix type="matrix" values="0 0 0 0 1 0 0 0 0 1 0 0 0 0 1 0 0 0 0.1 0"/><feBlend in2="effect1_innerShadow_3046_38746" mode="normal" result="effect2_innerShadow_3046_38746"/><feColorMatrix in="SourceAlpha" result="hardAlpha" type="matrix" values="0 0 0 0 0 0 0 0 0 0 0 0 0 0 0 0 0 0 127 0"/><feMorphology in="SourceAlpha" operator="erode" radius="1" result="effect3_innerShadow_3046_38746"/><feOffset/><feComposite in2="hardAlpha" k2="-1" k3="1" operator="arithmetic"/><feColorMatrix type="matrix" values="0 0 0 0 0.0627451 0 0 0 0 0.0941176 0 0 0 0 0.156863 0 0 0 0.24 0"/><feBlend in2="effect2_innerShadow_3046_38746" mode="normal" result="effect3_innerShadow_3046_38746"/></filter><filter id="b" color-interpolation-filters="sRGB" filterUnits="userSpaceOnUse" height="42" width="36" x="6" y="5.25"><feFlood flood-opacity="0" result="BackgroundImageFix"/><feColorMatrix in="SourceAlpha" result="hardAlpha" type="matrix" values="0 0 0 0 0 0 0 0 0 0 0 0 0 0 0 0 0 0 127 0"/><feMorphology in="SourceAlpha" operator="erode" radius="1.5" result="effect1_dropShadow_3046_38746"/><feOffset dy="2.25"/><feGaussianBlur stdDeviation="2.25"/><feComposite in2="hardAlpha" operator="out"/><feColorMatrix type="matrix" values="0 0 0 0 0.141176 0 0 0 0 0.141176 0 0 0 0 0.141176 0 0 0 0.1 0"/><feBlend in2="BackgroundImageFix" mode="normal" result="effect1_dropShadow_3046_38746"/><feBlend in="SourceGraphic" in2="effect1_dropShadow_3046_38746" mode="normal" result="shape"/></filter><linearGradient id="c" gradientUnits="userSpaceOnUse" x1="24" x2="26" y1=".000001" y2="48"><stop offset="0" stop-color="#fff" stop-opacity="0"/><stop offset="1" stop-color="#fff" stop-opacity=".12"/></linearGradient><linearGradient id="d"><stop offset="0" stop-color="#fff" stop-opacity=".8"/><stop offset="1" stop-color="#fff" stop-opacity=".5"/></linearGradient><linearGradient id="e" gradientUnits="userSpaceOnUse" x1="15.7105" x2="15.7105" xlink:href="#d" y1="7.71191" y2="31.1053"/><linearGradient id="f" gradientUnits="userSpaceOnUse" x1="15.7105" x2="15.7105" xlink:href="#d" y1="40.2881" y2="16.8947"/><linearGradient id="g" gradientUnits="userSpaceOnUse" x1="32.2895" x2="32.2895" xlink:href="#d" y1="7.71191" y2="31.1053"/><linearGradient id="h" gradientUnits="userSpaceOnUse" x1="32.2895" x2="32.2895" xlink:href="#d" y1="40.2881" y2="16.8947"/><linearGradient id="i" gradientUnits="userSpaceOnUse" x1="24" x2="24" y1="0" y2="48"><stop offset="0" stop-color="#fff" stop-opacity=".12"/><stop offset="1" stop-color="#fff" stop-opacity="0"/></linearGradient><clipPath id="j"><rect height="48" rx="12" width="48"/></clipPath><g filter="url(#a)"><g clip-path="url(#j)"><rect fill="#7839ee" height="48" rx="12" width="48"/><path d="m0 0h48v48h-48z" fill="url(#c)"/><g filter="url(#b)"><path d="m9 16.8947v14.2106l13.4211-9.1829v-14.21049z" fill="url(#e)" opacity=".7"/><path d="m9 31.1053v-14.2106l13.4211 9.1829v14.2105z" fill="url(#f)" opacity=".7"/><path d="m39 16.8947v14.2106l-13.4211-9.1829v-14.21049z" fill="url(#g)" opacity=".7"/><path d="m39 31.1053v-14.2106l-13.4211 9.1829v14.2105z" fill="url(#h)" opacity=".7"/></g></g><rect height="46" rx="11" stroke="url(#i)" stroke-width="2" width="46" x="1" y="1"/></g><g fill="#fff"><path d="m60 24.2c0-1.7334.375-3.275 1.125-4.625.75-1.3667 1.7917-2.425 3.125-3.175 1.35-.7667 2.875-1.15 4.575-1.15 2.0833 0 3.8667.55 5.35 1.65s2.475 2.6 2.975 4.5h-4.7c-.35-.7334-.85-1.2917-1.5-1.675-.6333-.3834-1.3583-.575-2.175-.575-1.3167 0-2.3833.4583-3.2 1.375-.8167.9166-1.225 2.1416-1.225 3.675 0 1.5333.4083 2.7583 1.225 3.675.8167.9166 1.8833 1.375 3.2 1.375.8167 0 1.5417-.1917 2.175-.575.65-.3834 1.15-.9417 1.5-1.675h4.7c-.5 1.9-1.4917 3.4-2.975 4.5-1.4833 1.0833-3.2667 1.625-5.35 1.625-1.7 0-3.225-.375-4.575-1.125-1.3333-.7667-2.375-1.825-3.125-3.175s-1.125-2.8917-1.125-4.625z"/><path d="m93.043 19.05v13.95h-4.275v-1.9c-.4334.6166-1.025 1.1166-1.775 1.5-.7334.3666-1.55.55-2.45.55-1.0667 0-2.0084-.2334-2.825-.7-.8167-.4834-1.45-1.175-1.9-2.075s-.675-1.9584-.675-3.175v-8.15h4.25v7.575c0 .9333.2416 1.6583.725 2.175.4833.5166 1.1333.775 1.95.775.8333 0 1.4916-.2584 1.975-.775.4833-.5167.725-1.2417.725-2.175v-7.575z"/><path d="m99.8887 21.025c.4003-.65.9753-1.175 1.7253-1.575s1.608-.6 2.575-.6c1.15 0 2.191.2916 3.125.875.933.5833 1.666 1.4166 2.2 2.5.55 1.0833.825 2.3416.825 3.775 0 1.4333-.275 2.7-.825 3.8-.534 1.0833-1.267 1.925-2.2 2.525-.934.5833-1.975.875-3.125.875-.984 0-1.842-.1917-2.575-.575-.734-.4-1.309-.925-1.7253-1.575v1.95h-4.275v-18.5h4.275zm6.1003 4.975c0-1.0667-.3-1.9-.9-2.5-.584-.6167-1.309-.925-2.175-.925-.85 0-1.575.3083-2.175.925-.584.6166-.8753 1.4583-.8753 2.525 0 1.0666.2913 1.9083.8753 2.525.6.6166 1.325.925 2.175.925s1.575-.3084 2.175-.925c.6-.6334.9-1.4834.9-2.55z"/><path d="m125.231 25.8c0 .4-.025.8166-.075 1.25h-9.675c.067.8666.342 1.5333.825 2 .5.45 1.109.675 1.825.675 1.067 0 1.809-.45 2.225-1.35h4.55c-.233.9166-.658 1.7416-1.275 2.475-.6.7333-1.358 1.3083-2.275 1.725-.916.4166-1.941.625-3.075.625-1.366 0-2.583-.2917-3.65-.875-1.066-.5834-1.9-1.4167-2.5-2.5-.6-1.0834-.9-2.35-.9-3.8s.292-2.7167.875-3.8c.6-1.0834 1.434-1.9167 2.5-2.5 1.067-.5834 2.292-.875 3.675-.875 1.35 0 2.55.2833 3.6.85 1.05.5666 1.867 1.375 2.45 2.425.6 1.05.9 2.275.9 3.675zm-4.375-1.125c0-.7334-.25-1.3167-.75-1.75-.5-.4334-1.125-.65-1.875-.65-.716 0-1.325.2083-1.825.625-.483.4166-.783 1.0083-.9 1.775z"/><path d="m135.512 33-4.25-5.85v5.85h-4.275v-18.5h4.275v10.225l4.225-5.675h5.275l-5.8 7 5.85 6.95z"/><path d="m144.091 17.6c-.75 0-1.367-.2167-1.85-.65-.467-.45-.7-1-.7-1.65 0-.6667.233-1.2167.7-1.65.483-.45 1.1-.675 1.85-.675.733 0 1.333.225 1.8.675.483.4333.725.9833.725 1.65 0 .65-.242 1.2-.725 1.65-.467.4333-1.067.65-1.8.65zm2.125 1.45v13.95h-4.275v-13.95z"/><path d="m156.589 29.375v3.625h-2.175c-1.55 0-2.758-.375-3.625-1.125-.867-.7667-1.3-2.0084-1.3-3.725v-5.55h-1.7v-3.55h1.7v-3.4h4.275v3.4h2.8v3.55h-2.8v5.6c0 .4166.1.7166.3.9.2.1833.533.275 1 .275z"/></g></svg>