<svg fill="none" height="48" viewBox="0 0 159 48" width="159" xmlns="http://www.w3.org/2000/svg" xmlns:xlink="http://www.w3.org/1999/xlink"><filter id="a" color-interpolation-filters="sRGB" filterUnits="userSpaceOnUse" height="54" width="48" x="0" y="-3"><feFlood flood-opacity="0" result="BackgroundImageFix"/><feBlend in="SourceGraphic" in2="BackgroundImageFix" mode="normal" result="shape"/><feColorMatrix in="SourceAlpha" result="hardAlpha" type="matrix" values="0 0 0 0 0 0 0 0 0 0 0 0 0 0 0 0 0 0 127 0"/><feOffset dy="-3"/><feGaussianBlur stdDeviation="1.5"/><feComposite in2="hardAlpha" k2="-1" k3="1" operator="arithmetic"/><feColorMatrix type="matrix" values="0 0 0 0 0 0 0 0 0 0 0 0 0 0 0 0 0 0 0.1 0"/><feBlend in2="shape" mode="normal" result="effect1_innerShadow_3046_38771"/><feColorMatrix in="SourceAlpha" result="hardAlpha" type="matrix" values="0 0 0 0 0 0 0 0 0 0 0 0 0 0 0 0 0 0 127 0"/><feOffset dy="3"/><feGaussianBlur stdDeviation="1.5"/><feComposite in2="hardAlpha" k2="-1" k3="1" operator="arithmetic"/><feColorMatrix type="matrix" values="0 0 0 0 1 0 0 0 0 1 0 0 0 0 1 0 0 0 0.1 0"/><feBlend in2="effect1_innerShadow_3046_38771" mode="normal" result="effect2_innerShadow_3046_38771"/><feColorMatrix in="SourceAlpha" result="hardAlpha" type="matrix" values="0 0 0 0 0 0 0 0 0 0 0 0 0 0 0 0 0 0 127 0"/><feMorphology in="SourceAlpha" operator="erode" radius="1" result="effect3_innerShadow_3046_38771"/><feOffset/><feComposite in2="hardAlpha" k2="-1" k3="1" operator="arithmetic"/><feColorMatrix type="matrix" values="0 0 0 0 0.0627451 0 0 0 0 0.0941176 0 0 0 0 0.156863 0 0 0 0.24 0"/><feBlend in2="effect2_innerShadow_3046_38771" mode="normal" result="effect3_innerShadow_3046_38771"/></filter><filter id="b" color-interpolation-filters="sRGB" filterUnits="userSpaceOnUse" height="42" width="36" x="6" y="5.25"><feFlood flood-opacity="0" result="BackgroundImageFix"/><feColorMatrix in="SourceAlpha" result="hardAlpha" type="matrix" values="0 0 0 0 0 0 0 0 0 0 0 0 0 0 0 0 0 0 127 0"/><feMorphology in="SourceAlpha" operator="erode" radius="1.5" result="effect1_dropShadow_3046_38771"/><feOffset dy="2.25"/><feGaussianBlur stdDeviation="2.25"/><feComposite in2="hardAlpha" operator="out"/><feColorMatrix type="matrix" values="0 0 0 0 0.141176 0 0 0 0 0.141176 0 0 0 0 0.141176 0 0 0 0.1 0"/><feBlend in2="BackgroundImageFix" mode="normal" result="effect1_dropShadow_3046_38771"/><feBlend in="SourceGraphic" in2="effect1_dropShadow_3046_38771" mode="normal" result="shape"/></filter><linearGradient id="c" gradientUnits="userSpaceOnUse" x1="24" x2="26" y1=".000001" y2="48"><stop offset="0" stop-color="#fff" stop-opacity="0"/><stop offset="1" stop-color="#fff" stop-opacity=".12"/></linearGradient><linearGradient id="d" gradientUnits="userSpaceOnUse" x1="24" x2="24" y1="9" y2="39"><stop offset="0" stop-color="#fff" stop-opacity=".8"/><stop offset="1" stop-color="#fff" stop-opacity=".5"/></linearGradient><linearGradient id="e" gradientUnits="userSpaceOnUse" x1="24" x2="24" y1="0" y2="48"><stop offset="0" stop-color="#fff" stop-opacity=".12"/><stop offset="1" stop-color="#fff" stop-opacity="0"/></linearGradient><clipPath id="f"><rect height="48" rx="12" width="48"/></clipPath><g filter="url(#a)"><g clip-path="url(#f)"><rect fill="#22262f" height="48" rx="12" width="48"/><path d="m0 0h48v48h-48z" fill="url(#c)"/><g filter="url(#b)"><path d="m24 9 3.2145 7.2394 7.3921-2.846-2.846 7.3921 7.2394 3.2145-7.2394 3.2145 2.846 7.3921-7.3921-2.846-3.2145 7.2394-3.2145-7.2394-7.3921 2.846 2.846-7.3921-7.2394-3.2145 7.2394-3.2145-2.846-7.3921 7.3921 2.846z" fill="url(#d)"/></g></g><rect height="46" rx="11" stroke="url(#e)" stroke-width="2" width="46" x="1" y="1"/></g><g fill="#fff"><path d="m79.2662 16.844c.448.448 1.008.672 1.68.672s1.2227-.224 1.652-.672c.4293-.4667.644-1.0267.644-1.68 0-.672-.2147-1.232-.644-1.68s-.98-.672-1.652-.672-1.232.224-1.68.672c-.4293.448-.644 1.008-.644 1.68 0 .6533.2147 1.2133.644 1.68z"/><path d="m64.396 23.2725 7.56 9.7275h5.46l-8.2779-10.3602 7.9979-9.4078h-5.432l-7.308 8.9174v-8.9174h-4.396v19.768h4.396z"/><path d="m90.039 23.592c-.3734.448-.56 1.064-.56 1.848v7.56h-4.284v-7.644c0-1.2507.2706-2.3427.812-3.276.56-.952 1.3253-1.6893 2.296-2.212.9893-.5227 2.128-.784 3.416-.784 1.3066 0 2.4453.2613 3.416.784.9706.5227 1.7266 1.2507 2.268 2.184.5413.9333.812 2.0347.812 3.304v7.644h-4.284v-7.56c0-.784-.196-1.4-.588-1.848-.3734-.4667-.9147-.7-1.624-.7-.728 0-1.288.2333-1.68.7z"/><path d="m104.654 32.664c.821.4293 1.773.644 2.856.644 1.045 0 1.895-.1587 2.548-.476s1.241-.7747 1.764-1.372l-2.604-2.632c-.187.2053-.401.364-.644.476-.224.0933-.495.14-.812.14-.373 0-.7-.1213-.98-.364-.261-.2427-.392-.6067-.392-1.092v-4.928h4.452v-3.668h-4.452v-5.628h-4.284v5.628h-3.0239v3.668h3.0239v4.9c0 1.1013.224 2.0533.672 2.856s1.073 1.4187 1.876 1.848z"/><path d="m118.023 33.336c-.802 0-1.596-.1027-2.38-.308-.765-.2053-1.484-.4947-2.156-.868-.653-.392-1.213-.84-1.68-1.344l2.436-2.464c.448.4853.98.868 1.596 1.148.616.2613 1.288.392 2.016.392.504 0 .887-.0747 1.148-.224.28-.1493.42-.3547.42-.616 0-.336-.168-.588-.504-.756-.317-.1867-.728-.3453-1.232-.476-.504-.1493-1.036-.308-1.596-.476s-1.092-.4013-1.596-.7-.914-.7093-1.232-1.232c-.317-.5413-.476-1.2227-.476-2.044 0-.8773.224-1.6333.672-2.268.448-.6533 1.083-1.1667 1.904-1.54.822-.3733 1.783-.56 2.884-.56 1.158 0 2.222.2053 3.192.616.99.392 1.792.98 2.408 1.764l-2.436 2.464c-.429-.504-.914-.8587-1.456-1.064-.522-.2053-1.036-.308-1.54-.308-.485 0-.849.0747-1.092.224-.242.1307-.364.3267-.364.588 0 .28.159.504.476.672.318.168.728.3173 1.232.448s1.036.2893 1.596.476 1.092.4387 1.596.756.915.7467 1.232 1.288c.318.5227.476 1.2133.476 2.072 0 1.3253-.504 2.38-1.512 3.164-.989.784-2.333 1.176-4.032 1.176z"/><path d="m128.047 32.552c.971.504 2.082.756 3.332.756 1.251 0 2.352-.252 3.304-.756.952-.5227 1.699-1.232 2.24-2.128.542-.9147.812-1.9693.812-3.164v-7.868h-4.284v7.84c0 .7093-.186 1.2693-.56 1.68-.373.392-.877.588-1.512.588-.448 0-.83-.0933-1.148-.28-.317-.1867-.56-.448-.728-.784-.149-.336-.224-.7373-.224-1.204v-7.84h-4.284v7.896c0 1.176.271 2.2213.812 3.136.542.896 1.288 1.6053 2.24 2.128z"/><path clip-rule="evenodd" d="m145.241 39.048c-1.25 0-2.38-.224-3.388-.672-.989-.448-1.773-1.0733-2.352-1.876-.56-.784-.84-1.6893-.84-2.716 0-.8213.112-1.4933.336-2.016.243-.5227.607-1.036 1.092-1.54l3.052 1.96c-.168.1867-.298.3827-.392.588-.093.2053-.14.448-.14.728 0 .56.234 1.008.7 1.344.467.336 1.12.504 1.96.504.896 0 1.587-.2147 2.072-.644.486-.4107.728-.9987.728-1.764 0-.504-.121-.9427-.364-1.316-.242-.392-.588-.6907-1.036-.896-.429-.224-.924-.336-1.484-.336-1.064 0-2.025-.2427-2.884-.728-.84-.504-1.512-1.176-2.016-2.016-.485-.8587-.728-1.82-.728-2.884 0-1.1013.252-2.072.756-2.912.523-.8587 1.223-1.5307 2.1-2.016.896-.4853 1.895-.728 2.996-.728.945 0 1.808.1787 2.588.536l2.256-2.216 2.464 2.464-2.091 2.0915c.423.7427.635 1.5762.635 2.5005 0 1.0267-.252 1.932-.756 2.716-.314.5079-.707.9453-1.178 1.3122.729.4678 1.318 1.057 1.766 1.7678.542.8587.812 1.8387.812 2.94 0 1.1387-.28 2.1467-.84 3.024s-1.334 1.5587-2.324 2.044c-.989.504-2.156.756-3.5.756zm.168-12.18c.43 0 .803-.084 1.12-.252.318-.1867.57-.4387.756-.756.187-.3173.28-.6813.28-1.092s-.093-.7747-.28-1.092c-.168-.3173-.42-.56-.756-.728-.317-.1867-.69-.28-1.12-.28-.429 0-.802.0933-1.12.28-.317.168-.569.4107-.756.728-.186.3173-.28.6813-.28 1.092s.094.7747.28 1.092c.187.3173.439.5693.756.756.336.168.71.252 1.12.252z" fill-rule="evenodd"/><path d="m154.328 16.844c.448.448 1.008.672 1.68.672s1.223-.224 1.652-.672c.429-.4667.644-1.0267.644-1.68 0-.672-.215-1.232-.644-1.68s-.98-.672-1.652-.672-1.232.224-1.68.672c-.429.448-.644 1.008-.644 1.68 0 .6533.215 1.2133.644 1.68z"/><path d="m78.7902 19.392v13.608h4.284v-13.608z"/><path d="m153.852 19.392v13.608h4.284v-13.608z"/></g></svg>