<svg fill="none" height="54" viewBox="0 0 192 54" width="192" xmlns="http://www.w3.org/2000/svg" xmlns:xlink="http://www.w3.org/1999/xlink"><filter id="a" color-interpolation-filters="sRGB" filterUnits="userSpaceOnUse" height="57" width="54" x="0" y="-3"><feFlood flood-opacity="0" result="BackgroundImageFix"/><feColorMatrix in="SourceAlpha" result="hardAlpha" type="matrix" values="0 0 0 0 0 0 0 0 0 0 0 0 0 0 0 0 0 0 127 0"/><feOffset dy="1"/><feGaussianBlur stdDeviation=".5"/><feComposite in2="hardAlpha" operator="out"/><feColorMatrix type="matrix" values="0 0 0 0 0.162923 0 0 0 0 0.162923 0 0 0 0 0.162923 0 0 0 0.08 0"/><feBlend in2="BackgroundImageFix" mode="normal" result="effect1_dropShadow_3046_38778"/><feColorMatrix in="SourceAlpha" result="hardAlpha" type="matrix" values="0 0 0 0 0 0 0 0 0 0 0 0 0 0 0 0 0 0 127 0"/><feMorphology in="SourceAlpha" operator="erode" radius="1" result="effect2_dropShadow_3046_38778"/><feOffset dy="3"/><feGaussianBlur stdDeviation="2"/><feComposite in2="hardAlpha" operator="out"/><feColorMatrix type="matrix" values="0 0 0 0 0.164706 0 0 0 0 0.164706 0 0 0 0 0.164706 0 0 0 0.14 0"/><feBlend in2="effect1_dropShadow_3046_38778" mode="normal" result="effect2_dropShadow_3046_38778"/><feBlend in="SourceGraphic" in2="effect2_dropShadow_3046_38778" mode="normal" result="shape"/><feColorMatrix in="SourceAlpha" result="hardAlpha" type="matrix" values="0 0 0 0 0 0 0 0 0 0 0 0 0 0 0 0 0 0 127 0"/><feOffset dy="-3"/><feGaussianBlur stdDeviation="1.5"/><feComposite in2="hardAlpha" k2="-1" k3="1" operator="arithmetic"/><feColorMatrix type="matrix" values="0 0 0 0 0 0 0 0 0 0 0 0 0 0 0 0 0 0 0.1 0"/><feBlend in2="shape" mode="normal" result="effect3_innerShadow_3046_38778"/><feColorMatrix in="SourceAlpha" result="hardAlpha" type="matrix" values="0 0 0 0 0 0 0 0 0 0 0 0 0 0 0 0 0 0 127 0"/><feOffset dy="3"/><feGaussianBlur stdDeviation="1.5"/><feComposite in2="hardAlpha" k2="-1" k3="1" operator="arithmetic"/><feColorMatrix type="matrix" values="0 0 0 0 1 0 0 0 0 1 0 0 0 0 1 0 0 0 0.1 0"/><feBlend in2="effect3_innerShadow_3046_38778" mode="normal" result="effect4_innerShadow_3046_38778"/><feColorMatrix in="SourceAlpha" result="hardAlpha" type="matrix" values="0 0 0 0 0 0 0 0 0 0 0 0 0 0 0 0 0 0 127 0"/><feMorphology in="SourceAlpha" operator="erode" radius="1" result="effect5_innerShadow_3046_38778"/><feOffset/><feComposite in2="hardAlpha" k2="-1" k3="1" operator="arithmetic"/><feColorMatrix type="matrix" values="0 0 0 0 0.0627451 0 0 0 0 0.0941176 0 0 0 0 0.156863 0 0 0 0.24 0"/><feBlend in2="effect4_innerShadow_3046_38778" mode="normal" result="effect5_innerShadow_3046_38778"/></filter><filter id="b" color-interpolation-filters="sRGB" filterUnits="userSpaceOnUse" height="44.3333" width="36.4173" x="8.79427" y="4.20833"><feFlood flood-opacity="0" result="BackgroundImageFix"/><feColorMatrix in="SourceAlpha" result="hardAlpha" type="matrix" values="0 0 0 0 0 0 0 0 0 0 0 0 0 0 0 0 0 0 127 0"/><feMorphology in="SourceAlpha" operator="erode" radius="1.58333" result="effect1_dropShadow_3046_38778"/><feOffset dy="2.375"/><feGaussianBlur stdDeviation="2.375"/><feComposite in2="hardAlpha" operator="out"/><feColorMatrix type="matrix" values="0 0 0 0 0.141176 0 0 0 0 0.141176 0 0 0 0 0.141176 0 0 0 0.1 0"/><feBlend in2="BackgroundImageFix" mode="normal" result="effect1_dropShadow_3046_38778"/><feBlend in="SourceGraphic" in2="effect1_dropShadow_3046_38778" mode="normal" result="shape"/></filter><linearGradient id="c" gradientUnits="userSpaceOnUse" x1="24" x2="26" y1=".000001" y2="48"><stop offset="0" stop-color="#fff" stop-opacity="0"/><stop offset="1" stop-color="#fff" stop-opacity=".12"/></linearGradient><linearGradient id="d" gradientUnits="userSpaceOnUse" x1="27.0026" x2="27.0026" y1="8.95825" y2="39.0416"><stop offset="0" stop-color="#fff" stop-opacity=".8"/><stop offset="1" stop-color="#fff" stop-opacity=".5"/></linearGradient><linearGradient id="e" gradientUnits="userSpaceOnUse" x1="27" x2="27" y1="0" y2="48"><stop offset="0" stop-color="#fff" stop-opacity=".12"/><stop offset="1" stop-color="#fff" stop-opacity="0"/></linearGradient><clipPath id="f"><rect height="48" rx="12" width="48" x="3"/></clipPath><g filter="url(#a)"><g clip-path="url(#f)"><rect fill="#0a0d12" height="48" rx="12" width="48" x="3"/><path d="m0 0h48v48h-48z" fill="url(#c)" transform="translate(3)"/><g fill="url(#d)" filter="url(#b)"><path d="m11.9609 23.9999c0-3.2454 1.0279-6.2508 2.7758-8.7083h7.5159v1.4083c-2.3831 1.5538-3.9583 4.243-3.9583 7.3 0 4.8095 3.8988 8.7084 8.7083 8.7084v6.3333c-8.3073 0-15.0417-6.7344-15.0417-15.0417z"/><path d="m39.2685 32.7083c1.7479-2.4576 2.7758-5.463 2.7758-8.7084 0-8.3073-6.7344-15.04165-15.0417-15.04165v6.33335c4.8095 0 8.7083 3.8988 8.7083 8.7083 0 3.0571-1.5752 5.7462-3.9583 7.3v1.4084z"/></g></g><rect height="46" rx="11" stroke="url(#e)" stroke-width="2" width="46" x="4" y="1"/></g><g fill="#0a0d12"><path d="m67.698 11.5401v17.11h8.468v4.35h-13.166v-21.46z"/><path d="m88.1913 18.5001h4.466v14.5h-4.205l-.29-1.624c-.899 1.189-2.697 2.001-4.437 2.001-3.306 0-5.336-2.204-5.336-5.771v-9.106h4.466v7.482c0 2.378.812 3.422 2.639 3.422 1.914 0 2.697-.986 2.697-3.364z"/><path d="m100.475 33.0001h-4.4664v-14.5h4.1764l.29 1.508c.725-1.015 2.146-1.972 4.234-1.972 2.175 0 3.567 1.015 4.408 2.552.754-1.537 2.465-2.552 4.553-2.552 3.741 0 5.597 2.175 5.597 5.481v9.483h-4.466v-8.236c0-1.827-.957-2.697-2.378-2.697-1.276 0-2.552.696-2.552 3.161v7.772h-4.466v-8.236c0-1.798-.928-2.668-2.349-2.668-1.276 0-2.581.696-2.581 3.132z"/><path d="m124.664 16.2381c-1.421 0-2.552-1.131-2.552-2.552s1.131-2.523 2.552-2.523c1.392 0 2.523 1.102 2.523 2.523s-1.131 2.552-2.523 2.552zm-2.204 16.762v-14.5h4.466v14.5z"/><path d="m134.742 33.0001h-4.466v-14.5h4.205l.29 1.508c.899-1.247 2.552-1.972 4.437-1.972 3.451 0 5.452 2.204 5.452 6.003v8.961h-4.466v-7.888c0-1.827-1.015-3.016-2.552-3.016-1.769 0-2.9 1.16-2.9 2.958z"/><path d="m152.242 33.3771c-3.074 0-4.988-1.798-4.988-4.64 0-2.668 1.885-4.321 5.365-4.582l4.06-.319v-.232c0-1.421-.87-2.175-2.465-2.175-1.885 0-2.9.725-2.9 2.03h-3.712c0-3.277 2.697-5.423 6.844-5.423 4.205 0 6.583 2.349 6.583 6.496v8.468h-3.944l-.29-1.914c-.464 1.334-2.378 2.291-4.553 2.291zm1.566-3.306c1.711 0 2.9-.841 2.9-2.494v-.783l-2.262.203c-1.943.174-2.639.609-2.639 1.537 0 1.044.638 1.537 2.001 1.537z"/><path d="m174.208 18.5001v4.205h-1.421c-2.552 0-4.089 1.131-4.089 4.002v6.293h-4.466v-14.471h4.205l.232 2.146c.609-1.421 1.885-2.378 3.828-2.378.522 0 1.102.058 1.711.203z"/><path d="m175.731 39.9601v-3.741h2.465c1.508 0 2.146-.464 2.726-2.03l.261-.696-5.829-14.993h4.785l3.161 9.309 3.509-9.309h4.64l-7.366 17.661c-1.218 2.958-2.842 4.205-5.394 4.205-1.073 0-2.088-.145-2.958-.406z"/></g></svg>