<svg fill="none" height="48" viewBox="0 0 209 48" width="209" xmlns="http://www.w3.org/2000/svg" xmlns:xlink="http://www.w3.org/1999/xlink"><filter id="a" color-interpolation-filters="sRGB" filterUnits="userSpaceOnUse" height="54" width="48" x="0" y="-3"><feFlood flood-opacity="0" result="BackgroundImageFix"/><feBlend in="SourceGraphic" in2="BackgroundImageFix" mode="normal" result="shape"/><feColorMatrix in="SourceAlpha" result="hardAlpha" type="matrix" values="0 0 0 0 0 0 0 0 0 0 0 0 0 0 0 0 0 0 127 0"/><feOffset dy="-3"/><feGaussianBlur stdDeviation="1.5"/><feComposite in2="hardAlpha" k2="-1" k3="1" operator="arithmetic"/><feColorMatrix type="matrix" values="0 0 0 0 0 0 0 0 0 0 0 0 0 0 0 0 0 0 0.1 0"/><feBlend in2="shape" mode="normal" result="effect1_innerShadow_3046_38808"/><feColorMatrix in="SourceAlpha" result="hardAlpha" type="matrix" values="0 0 0 0 0 0 0 0 0 0 0 0 0 0 0 0 0 0 127 0"/><feOffset dy="3"/><feGaussianBlur stdDeviation="1.5"/><feComposite in2="hardAlpha" k2="-1" k3="1" operator="arithmetic"/><feColorMatrix type="matrix" values="0 0 0 0 1 0 0 0 0 1 0 0 0 0 1 0 0 0 0.1 0"/><feBlend in2="effect1_innerShadow_3046_38808" mode="normal" result="effect2_innerShadow_3046_38808"/><feColorMatrix in="SourceAlpha" result="hardAlpha" type="matrix" values="0 0 0 0 0 0 0 0 0 0 0 0 0 0 0 0 0 0 127 0"/><feMorphology in="SourceAlpha" operator="erode" radius="1" result="effect3_innerShadow_3046_38808"/><feOffset/><feComposite in2="hardAlpha" k2="-1" k3="1" operator="arithmetic"/><feColorMatrix type="matrix" values="0 0 0 0 0.0627451 0 0 0 0 0.0941176 0 0 0 0 0.156863 0 0 0 0.24 0"/><feBlend in2="effect2_innerShadow_3046_38808" mode="normal" result="effect3_innerShadow_3046_38808"/></filter><filter id="b" color-interpolation-filters="sRGB" filterUnits="userSpaceOnUse" height="42" width="35.25" x="6.875" y="5.25"><feFlood flood-opacity="0" result="BackgroundImageFix"/><feColorMatrix in="SourceAlpha" result="hardAlpha" type="matrix" values="0 0 0 0 0 0 0 0 0 0 0 0 0 0 0 0 0 0 127 0"/><feMorphology in="SourceAlpha" operator="erode" radius="1.5" result="effect1_dropShadow_3046_38808"/><feOffset dy="2.25"/><feGaussianBlur stdDeviation="2.25"/><feComposite in2="hardAlpha" operator="out"/><feColorMatrix type="matrix" values="0 0 0 0 0.141176 0 0 0 0 0.141176 0 0 0 0 0.141176 0 0 0 0.1 0"/><feBlend in2="BackgroundImageFix" mode="normal" result="effect1_dropShadow_3046_38808"/><feBlend in="SourceGraphic" in2="effect1_dropShadow_3046_38808" mode="normal" result="shape"/></filter><linearGradient id="c" gradientUnits="userSpaceOnUse" x1="24" x2="26" y1=".000001" y2="48"><stop offset="0" stop-color="#fff" stop-opacity="0"/><stop offset="1" stop-color="#fff" stop-opacity=".12"/></linearGradient><linearGradient id="d"><stop offset="0" stop-color="#fff" stop-opacity=".8"/><stop offset="1" stop-color="#fff" stop-opacity=".5"/></linearGradient><linearGradient id="e" gradientUnits="userSpaceOnUse" x1="24.5" x2="24.5" xlink:href="#d" y1="8.50781" y2="31.2884"/><linearGradient id="f" gradientUnits="userSpaceOnUse" x1="24.5" x2="24.5" xlink:href="#d" y1="39.7266" y2="16.9459"/><linearGradient id="g" gradientUnits="userSpaceOnUse" x1="24" x2="24" y1="0" y2="48"><stop offset="0" stop-color="#fff" stop-opacity=".12"/><stop offset="1" stop-color="#fff" stop-opacity="0"/></linearGradient><clipPath id="h"><rect height="48" rx="12" width="48"/></clipPath><g filter="url(#a)"><g clip-path="url(#h)"><rect fill="#1570ef" height="48" rx="12" width="48"/><path d="m0 0h48v48h-48z" fill="url(#c)"/><g clip-rule="evenodd" fill-rule="evenodd" filter="url(#b)"><path d="m29.8847 7.51041c.3354-.17494.7361-.16971 1.0667.01394l7.5949 4.21875c.3572.1984.5787.5749.5787.9835l-.0005 8.4372c-.0001.4191-.2331.8035-.6046.9973l-19.4052 10.1247c-.3353.175-.7361.1697-1.0668-.014l-7.5928-4.2186c-.3571-.1984-.57856-.5747-.57863-.9832l-.00147-8.4373c-.00007-.4192.2329-.8037.6046-.9976zm-17.7596 11.80399.001 5.8997 17.1554-8.9509-.001-5.8997zm19.4054-8.8946.001 5.8633 5.3431 2.9687.0004-5.8633zm4.0966 10.7128-5.2372-2.9099-17.0161 8.8782 5.2373 2.9099z" fill="url(#e)"/><path d="m19.1153 40.724c-.3354.1749-.7361.1697-1.0667-.014l-7.5949-4.2187c-.3572-.1985-.57872-.575-.57869-.9836l.00052-8.4371c.00002-.4191.23307-.8035.60457-.9974l19.4052-10.1247c.3353-.1749.7361-.1697 1.0668.014l7.5928 4.2187c.3571.1984.5786.5747.5786.9832l.0015 8.4373c.0001.4192-.2329.8036-.6046.9975zm17.7596-11.804-.001-5.8997-17.1554 8.9509.001 5.8996zm-19.4054 8.8946-.001-5.8633-5.3431-2.9687-.0004 5.8632zm-4.0966-10.7128 5.2372 2.9098 17.0161-8.8781-5.2373-2.9099z" fill="url(#f)" opacity=".5"/></g></g><rect height="46" rx="11" stroke="url(#g)" stroke-width="2" width="46" x="1" y="1"/></g><g fill="#fff"><path d="m76.065 26.9791c0 3.699-2.97 6.291-7.83 6.291-4.887 0-7.938-2.619-8.235-6.723h4.158c.108 2.133 1.485 3.51 3.996 3.51 2.079 0 3.564-.918 3.564-2.484 0-1.215-.945-1.944-2.592-2.268l-3.186-.621c-2.943-.567-5.211-2.16-5.211-5.373 0-3.456 3.051-5.94 7.236-5.94 4.347 0 7.533 2.538 7.803 6.588h-4.158c-.135-2.025-1.539-3.402-3.591-3.402-1.998 0-3.132 1.134-3.132 2.484 0 1.323 1.215 1.89 2.619 2.16l3.321.675c3.402.675 5.238 2.241 5.238 5.103z"/><path d="m86.7568 29.3551v3.267c-.918.459-1.782.648-2.889.648-2.97 0-4.833-1.701-4.833-4.941v-6.534h-2.916v-3.213h2.916v-4.266h3.726v4.266h4.131v3.213h-4.131v5.67c0 1.674.756 2.349 2.106 2.349.702 0 1.35-.162 1.89-.459z"/><path d="m96.6894 33.0001v-1.782c-.945 1.35-2.376 2.052-4.347 2.052-2.997 0-4.995-1.755-4.995-4.455 0-2.808 2.268-4.32 6.48-4.32.81 0 1.512.054 2.403.162v-.864c0-1.62-.918-2.565-2.484-2.565-1.62 0-2.592.945-2.727 2.565h-3.375c.216-3.321 2.619-5.481 6.102-5.481 3.78 0 5.994 2.079 5.994 5.616v9.072zm-5.805-4.293c0 1.215.864 1.971 2.268 1.971 1.917 0 3.078-1.053 3.078-2.727v-1.026c-.891-.135-1.512-.189-2.16-.189-2.133 0-3.186.675-3.186 1.971z"/><path d="m107.97 33.2701c-4.158 0-7.02-3.078-7.02-7.479 0-4.32 2.97-7.479 7.02-7.479 3.753 0 6.534 2.538 6.993 6.426h-3.942c-.189-1.917-1.35-3.105-3.051-3.105-1.944 0-3.186 1.593-3.186 4.158 0 2.592 1.215 4.158 3.186 4.158 1.728 0 2.835-1.134 3.051-3.105h3.942c-.432 3.969-3.132 6.426-6.993 6.426z"/><path d="m120.045 33.0001h-3.753v-19.386h3.753v11.07l5.265-6.102h4.32l-5.967 6.912 6.669 7.506h-4.779l-5.508-6.696z"/><path d="m144.538 25.7911c0-4.266 2.511-7.479 6.399-7.479 1.728 0 3.186.756 4.266 2.133v-6.831h3.726v19.386h-3.429v-2.079c-1.134 1.512-2.7 2.349-4.563 2.349-3.888 0-6.399-3.267-6.399-7.479zm3.861 0c0 2.7 1.539 4.131 3.375 4.131 1.863 0 3.402-1.458 3.402-4.185s-1.566-4.104-3.402-4.104-3.375 1.404-3.375 4.158z"/><path d="m178.613 33.0001h-12.528v-19.386h4.104v15.687h8.424z"/><path d="m188.613 33.0001v-1.782c-.945 1.35-2.376 2.052-4.347 2.052-2.997 0-4.995-1.755-4.995-4.455 0-2.808 2.268-4.32 6.48-4.32.81 0 1.512.054 2.403.162v-.864c0-1.62-.918-2.565-2.484-2.565-1.62 0-2.592.945-2.727 2.565h-3.375c.216-3.321 2.619-5.481 6.102-5.481 3.78 0 5.994 2.079 5.994 5.616v9.072zm-5.805-4.293c0 1.215.864 1.971 2.268 1.971 1.917 0 3.078-1.053 3.078-2.727v-1.026c-.891-.135-1.512-.189-2.16-.189-2.133 0-3.186.675-3.186 1.971z"/><path d="m208.209 25.7911c0 4.212-2.511 7.479-6.399 7.479-1.863 0-3.429-.837-4.536-2.349v2.079h-3.456v-19.386h3.753v6.831c1.053-1.404 2.511-2.133 4.239-2.133 3.888 0 6.399 3.213 6.399 7.479zm-3.861 0c0-2.754-1.539-4.158-3.375-4.158-1.809 0-3.375 1.377-3.375 4.104s1.512 4.185 3.375 4.185c1.836 0 3.375-1.431 3.375-4.131z"/><path d="m137.19 33.2431c3.942 0 6.723-2.322 6.75-5.616h-3.645c-.108 1.647-1.296 2.646-3.159 2.646-1.944 0-3.078-.972-3.078-2.592 0-1.593 1.323-2.538 3.564-2.538h1.971v-2.97h-1.755c-1.836 0-2.943-.918-2.943-2.403 0-1.431.945-2.322 2.511-2.322 1.539 0 2.511.972 2.538 2.565h3.645c-.027-3.159-2.781-5.535-6.372-5.535-3.834 0-6.183 2.079-6.183 5.022 0 1.674.972 2.997 2.727 3.915-2.268.729-3.564 2.187-3.564 4.158 0 3.375 2.808 5.67 6.993 5.67z"/></g></svg>