<svg fill="none" height="48" viewBox="0 0 235 48" width="235" xmlns="http://www.w3.org/2000/svg" xmlns:xlink="http://www.w3.org/1999/xlink"><filter id="a" color-interpolation-filters="sRGB" filterUnits="userSpaceOnUse" height="54" width="48" x="0" y="-3"><feFlood flood-opacity="0" result="BackgroundImageFix"/><feBlend in="SourceGraphic" in2="BackgroundImageFix" mode="normal" result="shape"/><feColorMatrix in="SourceAlpha" result="hardAlpha" type="matrix" values="0 0 0 0 0 0 0 0 0 0 0 0 0 0 0 0 0 0 127 0"/><feOffset dy="-3"/><feGaussianBlur stdDeviation="1.5"/><feComposite in2="hardAlpha" k2="-1" k3="1" operator="arithmetic"/><feColorMatrix type="matrix" values="0 0 0 0 0 0 0 0 0 0 0 0 0 0 0 0 0 0 0.1 0"/><feBlend in2="shape" mode="normal" result="effect1_innerShadow_3046_38750"/><feColorMatrix in="SourceAlpha" result="hardAlpha" type="matrix" values="0 0 0 0 0 0 0 0 0 0 0 0 0 0 0 0 0 0 127 0"/><feOffset dy="3"/><feGaussianBlur stdDeviation="1.5"/><feComposite in2="hardAlpha" k2="-1" k3="1" operator="arithmetic"/><feColorMatrix type="matrix" values="0 0 0 0 1 0 0 0 0 1 0 0 0 0 1 0 0 0 0.1 0"/><feBlend in2="effect1_innerShadow_3046_38750" mode="normal" result="effect2_innerShadow_3046_38750"/><feColorMatrix in="SourceAlpha" result="hardAlpha" type="matrix" values="0 0 0 0 0 0 0 0 0 0 0 0 0 0 0 0 0 0 127 0"/><feMorphology in="SourceAlpha" operator="erode" radius="1" result="effect3_innerShadow_3046_38750"/><feOffset/><feComposite in2="hardAlpha" k2="-1" k3="1" operator="arithmetic"/><feColorMatrix type="matrix" values="0 0 0 0 0.0627451 0 0 0 0 0.0941176 0 0 0 0 0.156863 0 0 0 0.24 0"/><feBlend in2="effect2_innerShadow_3046_38750" mode="normal" result="effect3_innerShadow_3046_38750"/></filter><filter id="b" color-interpolation-filters="sRGB" filterUnits="userSpaceOnUse" height="42" width="33" x="7.5" y="5.25"><feFlood flood-opacity="0" result="BackgroundImageFix"/><feColorMatrix in="SourceAlpha" result="hardAlpha" type="matrix" values="0 0 0 0 0 0 0 0 0 0 0 0 0 0 0 0 0 0 127 0"/><feMorphology in="SourceAlpha" operator="erode" radius="1.5" result="effect1_dropShadow_3046_38750"/><feOffset dy="2.25"/><feGaussianBlur stdDeviation="2.25"/><feComposite in2="hardAlpha" operator="out"/><feColorMatrix type="matrix" values="0 0 0 0 0.141176 0 0 0 0 0.141176 0 0 0 0 0.141176 0 0 0 0.1 0"/><feBlend in2="BackgroundImageFix" mode="normal" result="effect1_dropShadow_3046_38750"/><feBlend in="SourceGraphic" in2="effect1_dropShadow_3046_38750" mode="normal" result="shape"/></filter><linearGradient id="c" gradientUnits="userSpaceOnUse" x1="24" x2="26" y1=".000001" y2="48"><stop offset="0" stop-color="#fff" stop-opacity="0"/><stop offset="1" stop-color="#fff" stop-opacity=".12"/></linearGradient><linearGradient id="d" gradientUnits="userSpaceOnUse" x1="24" x2="24" y1="10.5" y2="37.5"><stop offset="0" stop-color="#fff" stop-opacity=".8"/><stop offset="1" stop-color="#fff" stop-opacity=".5"/></linearGradient><linearGradient id="e" gradientUnits="userSpaceOnUse" x1="24" x2="24" y1="0" y2="48"><stop offset="0" stop-color="#fff" stop-opacity=".12"/><stop offset="1" stop-color="#fff" stop-opacity="0"/></linearGradient><clipPath id="f"><rect height="48" rx="12" width="48"/></clipPath><g filter="url(#a)"><g clip-path="url(#f)"><rect fill="#444ce7" height="48" rx="12" width="48"/><path d="m0 0h48v48h-48z" fill="url(#c)"/><g filter="url(#b)"><path d="m10.5 10.5c7.6075 7.0803 19.3925 7.0803 27 0-7.0803 7.6075-7.0803 19.3925 0 27-7.6075-7.0803-19.3925-7.0803-27 0 7.0803-7.6075 7.0803-19.3925 0-27z" fill="url(#d)"/></g></g><rect height="46" rx="11" stroke="url(#e)" stroke-width="2" width="46" x="1" y="1"/></g><g fill="#fff"><path d="m60 33v-17.862h18.304v3.536h-13.806v3.51h12.194v3.484h-12.194v3.77h14.014v3.562z"/><path d="m81.3781 33v-18.824h4.056v18.824z"/><path d="m93.7267 33.312c-.832 0-1.6034-.0693-2.314-.208-.7107-.1213-1.3347-.3293-1.872-.624-.5374-.312-.962-.728-1.274-1.248-.2947-.52-.442-1.1786-.442-1.976 0-1.092.3033-1.95.91-2.574.6066-.6413 1.456-1.1006 2.548-1.378 1.1093-.2773 2.4006-.4506 3.874-.52 1.4906-.0866 3.1113-.13 4.8623-.13v-.494c0-.572-.139-1.0226-.4163-1.352-.2774-.3293-.702-.5633-1.274-.702-.5547-.156-1.2827-.234-2.184-.234-.676 0-1.3.052-1.872.156-.5547.0867-.9967.234-1.326.442-.3294.1907-.494.442-.494.754v.26h-4.082c-.0174-.0693-.0347-.13-.052-.182 0-.0693 0-.1473 0-.234 0-.8146.3033-1.5253.91-2.132.6066-.624 1.508-1.1006 2.704-1.43 1.2133-.3466 2.7126-.52 4.498-.52 1.664 0 3.0593.1474 4.1863.442 1.144.2947 2.01.78 2.6 1.456.589.676.884 1.5774.884 2.704v5.746c0 .312.06.5634.182.754.138.1734.364.26.676.26h1.352v2.496c-.208.0867-.555.182-1.04.286-.486.1214-1.023.182-1.612.182-.798 0-1.43-.0953-1.898-.286-.451-.1733-.78-.416-.988-.728-.208-.3293-.356-.6846-.442-1.066h-.208c-.4857.4334-1.0663.806-1.7423 1.118-.6587.312-1.378.546-2.158.702-.78.1734-1.612.26-2.496.26zm1.066-2.886c.4853 0 1.0226-.052 1.612-.156.6066-.1213 1.1873-.286 1.742-.494.5546-.2253 1.0053-.5026 1.352-.832.3466-.3293.5203-.728.5203-1.196v-.728c-1.855 0-3.3803.0694-4.5763.208-1.196.1387-2.0887.3554-2.678.65-.5894.2947-.884.7107-.884 1.248 0 .364.1386.6414.416.832.2946.1734.6673.2947 1.118.364.4506.0694.91.104 1.378.104z"/><path d="m114.628 33.312c-1.022 0-2.002-.0866-2.938-.26-.936-.156-1.776-.3986-2.522-.728-.728-.3293-1.308-.7626-1.742-1.3-.433-.5373-.65-1.17-.65-1.898 0-.0866 0-.1646 0-.234.018-.0693.035-.1386.052-.208h4.16c0 .0347-.008.078-.026.13v.13c0 .3987.174.7194.52.962.347.2427.798.4247 1.352.546.572.104 1.179.156 1.82.156.607 0 1.196-.0346 1.768-.104.59-.0693 1.075-.1993 1.456-.39.382-.208.572-.52.572-.936s-.225-.7193-.676-.91c-.45-.1906-1.083-.3293-1.898-.416-.797-.104-1.733-.234-2.808-.39-.814-.1213-1.577-.2773-2.288-.468-.693-.1906-1.308-.4333-1.846-.728-.52-.312-.927-.7106-1.222-1.196-.294-.4853-.442-1.0833-.442-1.794 0-.7626.182-1.4126.546-1.95.364-.5546.876-1.0053 1.534-1.352.676-.3466 1.482-.598 2.418-.754s1.968-.234 3.094-.234c.988 0 1.916.078 2.782.234.884.156 1.656.3987 2.314.728.659.3294 1.179.7367 1.56 1.222.382.4854.572 1.0487.572 1.69v.208c0 .0694-.008.13-.026.182h-4.16v-.13c0-.3466-.147-.624-.442-.832-.294-.208-.676-.3553-1.144-.442-.468-.104-.97-.156-1.508-.156-.19 0-.476.0087-.858.026-.381.0174-.78.0607-1.196.13-.398.0694-.736.182-1.014.338-.277.156-.416.3814-.416.676 0 .364.217.6327.65.806.434.1734.997.3034 1.69.39.711.0867 1.474.182 2.288.286.867.104 1.69.234 2.47.39.798.156 1.5.39 2.106.702.624.2947 1.11.702 1.456 1.222.347.52.52 1.196.52 2.028 0 .8667-.182 1.6034-.546 2.21-.364.5894-.892 1.066-1.586 1.43-.676.3467-1.508.598-2.496.754-.97.156-2.054.234-3.25.234z"/><path d="m130.946 33.312c-1.058 0-1.933-.13-2.626-.39-.676-.2773-1.179-.7366-1.508-1.378-.33-.6586-.494-1.5513-.494-2.678v-6.604h-2.652v-2.964h2.782l.806-4.056h3.12v4.056h3.77v2.964h-3.77v6.084c0 .6587.121 1.1614.364 1.508.26.3294.806.494 1.638.494h1.768v2.522c-.243.0867-.564.1647-.962.234-.382.0694-.78.1214-1.196.156-.399.0347-.746.052-1.04.052z"/><path d="m136.529 17.192v-3.016h4.056v3.016zm0 15.808v-13.702h4.056v13.702z"/><path d="m151.763 33.312c-1.803 0-3.354-.26-4.654-.78-1.283-.5373-2.271-1.3346-2.964-2.392-.693-1.0746-1.04-2.4093-1.04-4.004 0-1.5946.347-2.9206 1.04-3.978.693-1.0573 1.681-1.846 2.964-2.366 1.3-.5373 2.851-.806 4.654-.806 1.127 0 2.184.1214 3.172.364 1.005.2254 1.881.5807 2.626 1.066.745.468 1.326 1.0574 1.742 1.768.416.7107.624 1.5427.624 2.496h-4.108c0-.5893-.182-1.0833-.546-1.482-.364-.3986-.858-.702-1.482-.91-.607-.2253-1.283-.338-2.028-.338-.953 0-1.759.156-2.418.468s-1.161.7627-1.508 1.352c-.347.572-.52 1.274-.52 2.106v.52c0 .8147.173 1.5167.52 2.106.364.5894.884 1.0487 1.56 1.378.693.312 1.534.468 2.522.468.728 0 1.395-.1126 2.002-.338.624-.2426 1.118-.572 1.482-.988.381-.416.572-.8926.572-1.43h3.952c0 .9707-.217 1.82-.65 2.548-.416.7107-.997 1.3-1.742 1.768-.728.468-1.595.8234-2.6 1.066-.988.2254-2.045.338-3.172.338z"/><path d="m166.483 33-5.72-13.702h4.368l2.418 6.526c.139.3814.269.754.39 1.118.122.364.226.702.312 1.014.104.2947.174.5374.208.728h.208c.052-.1906.122-.4333.208-.728.104-.2946.217-.624.338-.988.122-.364.243-.7366.364-1.118l2.184-6.552h4.524l2.184 6.552c.052.1387.122.3814.208.728.104.3294.208.6847.312 1.066.122.364.234.7107.338 1.04h.208c.07-.2773.156-.5893.26-.936.122-.364.243-.7106.364-1.04.122-.3466.217-.6326.286-.858l2.392-6.552h4.082l-5.72 13.702h-4.03l-2.132-6.24c-.121-.3986-.251-.7973-.39-1.196-.138-.416-.268-.806-.39-1.17-.121-.364-.216-.6586-.286-.884h-.182c-.086.26-.199.5807-.338.962-.121.364-.242.754-.364 1.17-.121.3987-.242.78-.364 1.144l-2.08 6.214z"/><path d="m193.388 33.312c-.832 0-1.603-.0693-2.314-.208-.711-.1213-1.335-.3293-1.872-.624-.537-.312-.962-.728-1.274-1.248-.295-.52-.442-1.1786-.442-1.976 0-1.092.303-1.95.91-2.574.607-.6413 1.456-1.1006 2.548-1.378 1.109-.2773 2.401-.4506 3.874-.52 1.491-.0866 3.111-.13 4.862-.13v-.494c0-.572-.139-1.0226-.416-1.352-.277-.3293-.702-.5633-1.274-.702-.555-.156-1.283-.234-2.184-.234-.676 0-1.3.052-1.872.156-.555.0867-.997.234-1.326.442-.329.1907-.494.442-.494.754v.26h-4.082c-.017-.0693-.035-.13-.052-.182 0-.0693 0-.1473 0-.234 0-.8146.303-1.5253.91-2.132.607-.624 1.508-1.1006 2.704-1.43 1.213-.3466 2.713-.52 4.498-.52 1.664 0 3.059.1474 4.186.442 1.144.2947 2.011.78 2.6 1.456s.884 1.5774.884 2.704v5.746c0 .312.061.5634.182.754.139.1734.364.26.676.26h1.352v2.496c-.208.0867-.555.182-1.04.286-.485.1214-1.023.182-1.612.182-.797 0-1.43-.0953-1.898-.286-.451-.1733-.78-.416-.988-.728-.208-.3293-.355-.6846-.442-1.066h-.208c-.485.4334-1.066.806-1.742 1.118-.659.312-1.378.546-2.158.702-.78.1734-1.612.26-2.496.26zm1.066-2.886c.485 0 1.023-.052 1.612-.156.607-.1213 1.187-.286 1.742-.494.555-.2253 1.005-.5026 1.352-.832.347-.3293.52-.728.52-1.196v-.728c-1.855 0-3.38.0694-4.576.208-1.196.1387-2.089.3554-2.678.65-.589.2947-.884.7107-.884 1.248 0 .364.139.6414.416.832.295.1734.667.2947 1.118.364.451.0694.91.104 1.378.104z"/><path d="m207.243 33v-13.702h3.276l.286 2.366h.208c.226-.5026.529-.9533.91-1.352.399-.416.867-.7366 1.404-.962.538-.2426 1.144-.364 1.82-.364.312 0 .624.026.936.078.312.0347.599.0954.858.182v3.406h-2.002c-.658 0-1.222.1127-1.69.338-.45.208-.823.5027-1.118.884-.277.364-.485.78-.624 1.248-.138.4507-.208.9274-.208 1.43v6.448z"/><path d="m226.443 33.312c-1.82 0-3.389-.2513-4.706-.754-1.318-.52-2.34-1.3086-3.068-2.366-.711-1.0573-1.066-2.4006-1.066-4.03 0-1.5946.346-2.9206 1.04-3.978.71-1.0746 1.716-1.872 3.016-2.392 1.317-.5373 2.86-.806 4.628-.806 1.854 0 3.423.26 4.706.78 1.282.52 2.253 1.2914 2.912 2.314.658 1.0227.988 2.288.988 3.796v1.196h-13.026c.052.7974.268 1.4474.65 1.95.381.4854.91.8407 1.586 1.066.693.2254 1.499.338 2.418.338.416 0 .849-.0433 1.3-.13.468-.104.901-.2426 1.3-.416.416-.1733.762-.39 1.04-.65.277-.2773.433-.6066.468-.988h4.16c0 .728-.191 1.404-.572 2.028-.382.624-.936 1.1614-1.664 1.612-.728.4507-1.612.806-2.652 1.066-1.023.2427-2.176.364-3.458.364zm-4.55-8.71h8.658c0-.4506-.104-.8406-.312-1.17-.208-.3466-.512-.6326-.91-.858-.382-.2426-.824-.416-1.326-.52-.503-.1213-1.049-.182-1.638-.182-.85 0-1.604.1127-2.262.338-.642.208-1.153.52-1.534.936-.364.3987-.59.884-.676 1.456z"/></g></svg>