<svg fill="none" height="48" viewBox="0 0 39 48" width="39" xmlns="http://www.w3.org/2000/svg"><g clip-rule="evenodd" fill="#1570ef" fill-rule="evenodd"><path d="m26.6797 2.01388c.447-.23326.9814-.22628 1.4222.01859l10.1265 5.62501c.4762.26456.7716.76655.7716 1.31137l-.0007 11.24955c0 .5588-.3107 1.0713-.8061 1.3298l-25.8736 13.4996c-.4471.2333-.9815.2263-1.4223-.0187l-10.123855-5.6248c-.476086-.2646-.77138742-.7663-.77148243-1.311l-.00196255-11.2497c-.00009751-.5589.31058898-1.0715.80613498-1.3301zm-23.67954 15.73872.00137 7.8662 22.87377-11.9346-.0013-7.86615zm25.87384-11.85951.0013 7.81771 7.1242 3.9582.0004-7.81761zm5.4621 14.28371-6.983-3.8798-22.68798 11.8376 6.98298 3.8798z"/><path d="m12.3203 46.2986c-.447.2333-.9814.2263-1.4222-.0186l-10.126474-5.625c-.476273-.2645-.77165213-.7665-.77161775-1.3114l.00069908-11.2495c.00003438-.5588.31069967-1.0713.80613367-1.3298l25.873559-13.4996c.4471-.2333.9815-.2263 1.4224.0187l10.1238 5.6248c.476.2646.7713.7663.7714 1.311l.002 11.2497c.0001.5589-.3106 1.0715-.8061 1.3301zm23.6795-15.7387-.0013-7.8662-22.8738 11.9345.0013 7.8662zm-25.8738 11.8595-.0013-7.8177-7.12415-3.9582-.00049 7.8176zm-5.46213-14.2837 6.98303 3.8798 22.688-11.8376-6.983-3.8798z" opacity=".5"/></g></svg>