<svg fill="none" height="48" viewBox="0 0 237 48" width="237" xmlns="http://www.w3.org/2000/svg" xmlns:xlink="http://www.w3.org/1999/xlink"><filter id="a" color-interpolation-filters="sRGB" filterUnits="userSpaceOnUse" height="54" width="48" x="0" y="-3"><feFlood flood-opacity="0" result="BackgroundImageFix"/><feBlend in="SourceGraphic" in2="BackgroundImageFix" mode="normal" result="shape"/><feColorMatrix in="SourceAlpha" result="hardAlpha" type="matrix" values="0 0 0 0 0 0 0 0 0 0 0 0 0 0 0 0 0 0 127 0"/><feOffset dy="-3"/><feGaussianBlur stdDeviation="1.5"/><feComposite in2="hardAlpha" k2="-1" k3="1" operator="arithmetic"/><feColorMatrix type="matrix" values="0 0 0 0 0 0 0 0 0 0 0 0 0 0 0 0 0 0 0.1 0"/><feBlend in2="shape" mode="normal" result="effect1_innerShadow_3046_38805"/><feColorMatrix in="SourceAlpha" result="hardAlpha" type="matrix" values="0 0 0 0 0 0 0 0 0 0 0 0 0 0 0 0 0 0 127 0"/><feOffset dy="3"/><feGaussianBlur stdDeviation="1.5"/><feComposite in2="hardAlpha" k2="-1" k3="1" operator="arithmetic"/><feColorMatrix type="matrix" values="0 0 0 0 1 0 0 0 0 1 0 0 0 0 1 0 0 0 0.1 0"/><feBlend in2="effect1_innerShadow_3046_38805" mode="normal" result="effect2_innerShadow_3046_38805"/><feColorMatrix in="SourceAlpha" result="hardAlpha" type="matrix" values="0 0 0 0 0 0 0 0 0 0 0 0 0 0 0 0 0 0 127 0"/><feMorphology in="SourceAlpha" operator="erode" radius="1" result="effect3_innerShadow_3046_38805"/><feOffset/><feComposite in2="hardAlpha" k2="-1" k3="1" operator="arithmetic"/><feColorMatrix type="matrix" values="0 0 0 0 0.0627451 0 0 0 0 0.0941176 0 0 0 0 0.156863 0 0 0 0.24 0"/><feBlend in2="effect2_innerShadow_3046_38805" mode="normal" result="effect3_innerShadow_3046_38805"/></filter><filter id="b" color-interpolation-filters="sRGB" filterUnits="userSpaceOnUse" height="42" width="36" x="6" y="5.25"><feFlood flood-opacity="0" result="BackgroundImageFix"/><feColorMatrix in="SourceAlpha" result="hardAlpha" type="matrix" values="0 0 0 0 0 0 0 0 0 0 0 0 0 0 0 0 0 0 127 0"/><feMorphology in="SourceAlpha" operator="erode" radius="1.5" result="effect1_dropShadow_3046_38805"/><feOffset dy="2.25"/><feGaussianBlur stdDeviation="2.25"/><feComposite in2="hardAlpha" operator="out"/><feColorMatrix type="matrix" values="0 0 0 0 0.141176 0 0 0 0 0.141176 0 0 0 0 0.141176 0 0 0 0.1 0"/><feBlend in2="BackgroundImageFix" mode="normal" result="effect1_dropShadow_3046_38805"/><feBlend in="SourceGraphic" in2="effect1_dropShadow_3046_38805" mode="normal" result="shape"/></filter><linearGradient id="c" gradientUnits="userSpaceOnUse" x1="24" x2="26" y1=".000001" y2="48"><stop offset="0" stop-color="#fff" stop-opacity="0"/><stop offset="1" stop-color="#fff" stop-opacity=".12"/></linearGradient><linearGradient id="d" gradientUnits="userSpaceOnUse" x1="24" x2="24" y1="9" y2="39"><stop offset="0" stop-color="#fff" stop-opacity=".8"/><stop offset="1" stop-color="#fff" stop-opacity=".5"/></linearGradient><linearGradient id="e" gradientUnits="userSpaceOnUse" x1="24" x2="24" y1="0" y2="48"><stop offset="0" stop-color="#fff" stop-opacity=".12"/><stop offset="1" stop-color="#fff" stop-opacity="0"/></linearGradient><clipPath id="f"><rect height="48" rx="12" width="48"/></clipPath><g filter="url(#a)"><g clip-path="url(#f)"><rect fill="#175cd3" height="48" rx="12" width="48"/><path d="m0 0h48v48h-48z" fill="url(#c)"/><g filter="url(#b)"><path d="m24 9v9.2703c0 2.0449-2.5073 3.0295-3.8988 1.531l-5.8512-6.3013m24.75 10.5h-9.2703c-2.0449 0-3.0295-2.5073-1.531-3.8988l6.3013-5.8512m-10.5 24.75v-9.2703c0-2.0449 2.5073-3.0295 3.8988-1.531l5.8512 6.3013m-24.75-10.5h9.2703c2.0449 0 3.0295 2.5073 1.531 3.8988l-6.3013 5.8512" stroke="url(#d)" stroke-width="3"/></g></g><rect height="46" rx="11" stroke="url(#e)" stroke-width="2" width="46" x="1" y="1"/></g><g fill="#fff"><path d="m68.613 33.4594c-5.13 0-8.505-2.268-8.613-6.534h4.806c.216 1.944 1.485 2.754 3.78 2.754 1.566 0 3.105-.567 3.105-2.025 0-1.539-1.566-1.863-4.212-2.511-3.348-.783-6.885-1.809-6.885-5.859 0-4.131 3.348-5.94 7.668-5.94 4.185 0 7.425 1.89 7.614 5.94h-4.671c-.189-1.485-1.323-2.322-3.105-2.322-1.674 0-2.781.729-2.781 1.809 0 1.35 1.485 1.674 4.374 2.322 3.591.837 6.831 1.944 6.831 6.075 0 4.05-3.456 6.291-7.911 6.291z"/><path d="m85.0904 30.3004c1.917 0 2.943-1.674 2.943-4.185s-1.026-4.212-2.943-4.212-2.916 1.701-2.916 4.212.999 4.185 2.916 4.185zm.027 3.132c-4.428 0-7.398-3.159-7.398-7.317s2.97-7.317 7.398-7.317c4.455 0 7.371 3.159 7.371 7.317s-2.916 7.317-7.371 7.317z"/><path d="m94.0031 33.0004v-19.305h4.455v19.305z"/><path d="m104.644 33.3514c-2.754 0-4.6977-1.458-4.6977-4.185 0-3.051 2.4297-3.996 5.2917-4.374 2.592-.324 3.51-.594 3.51-1.539 0-.891-.594-1.485-1.944-1.485-1.431 0-2.106.621-2.214 1.782h-4.05c.081-2.565 2.025-4.752 6.237-4.752 2.106 0 3.726.459 4.752 1.296 1.053.891 1.539 2.052 1.539 3.78v5.427c0 .891.243 1.107.918.999h.081v2.565c-.351.162-1.026.378-1.917.378-1.89 0-2.862-.567-3.186-1.863h-.027c-.81 1.134-2.052 1.971-4.293 1.971zm1.431-2.808c1.647 0 2.781-.999 2.781-2.484v-1.647c-.567.324-1.377.54-2.268.729-1.701.378-2.403.81-2.403 1.863 0 1.08.81 1.539 1.89 1.539z"/><path d="m115.202 33.0004v-13.824h4.458l-.246 2.16h.081c.972-1.647 2.106-2.376 3.78-2.376.405 0 .675.027.864.108v3.78h-.108c-2.7-.378-4.428.945-4.428 3.942v6.21z"/><path d="m125.538 33.0004v-13.824h4.401v13.824z"/><path d="m137.936 33.4324c-4.05 0-6.588-1.863-6.723-4.914h4.158c.162 1.377 1.08 2.052 2.538 2.052 1.323 0 2.16-.486 2.16-1.377 0-1.242-1.674-1.377-3.51-1.701-2.403-.405-4.968-1.053-4.968-4.293 0-2.916 2.7-4.428 5.967-4.428 3.915 0 6.021 1.701 6.237 4.428h-4.05c-.162-1.242-.999-1.62-2.214-1.62-1.08 0-1.917.405-1.917 1.269 0 .972 1.566 1.107 3.321 1.431 2.43.405 5.292 1.026 5.292 4.563 0 3.024-2.673 4.59-6.291 4.59z"/><path d="m150.118 33.0004v-19.305h14.634v3.942h-9.855v3.456h8.451v3.726h-8.451v4.131h10.017v4.05z"/><path d="m166.802 33.0004v-13.824h4.488l-.249 1.89h.081c1.026-1.485 2.349-2.295 4.266-2.295 3.024 0 4.806 2.16 4.806 5.238v8.991h-4.401v-8.1c0-1.458-.729-2.457-2.16-2.457-1.458 0-2.43 1.215-2.43 2.916v7.641z"/><path d="m188.951 33.4054c-4.563 0-7.371-3.159-7.371-7.344 0-4.131 2.889-7.29 7.101-7.29 1.971 0 3.537.648 4.725 1.728 1.647 1.512 2.457 3.915 2.43 6.723h-9.936c.27 1.863 1.296 3.024 3.105 3.024 1.161 0 1.917-.513 2.295-1.377h4.293c-.297 1.242-1.107 2.43-2.322 3.267-1.161.81-2.565 1.269-4.32 1.269zm-3.024-8.802h5.454c-.162-1.647-1.188-2.7-2.619-2.7-1.674 0-2.538 1.053-2.835 2.7z"/><path d="m197.309 33.0004v-13.824h4.461l-.249 2.16h.081c.972-1.647 2.106-2.376 3.78-2.376.405 0 .675.027.864.108v3.78h-.108c-2.7-.378-4.428.945-4.428 3.942v6.21z"/><path d="m213.807 37.7794c-3.807 0-6.318-1.566-6.75-4.455h4.266c.243.729.972 1.35 2.43 1.35 1.863 0 2.646-.972 2.646-2.646v-1.377h-.108c-.81.918-1.863 1.593-3.537 1.593-3.105 0-5.994-2.322-5.994-6.561 0-4.05 2.376-6.912 5.805-6.912 1.836 0 3.078.729 3.888 1.89h.054l-.247-1.485h4.459v12.474c0 2.079-.729 3.591-1.836 4.59-1.215 1.08-3.024 1.539-5.076 1.539zm-.027-8.802c1.917 0 2.808-1.512 2.808-3.456 0-1.863-.972-3.429-2.808-3.429-1.647 0-2.727 1.35-2.727 3.456 0 2.079 1.08 3.429 2.727 3.429z"/><path d="m223.292 37.5634v-3.429h1.512c1.296 0 1.809-.513 1.809-1.458 0-.594-.27-1.404-.837-2.862l-4.077-10.638h4.644l1.863 5.886c.432 1.35.864 3.186.864 3.186h.054s.378-1.836.81-3.186l1.809-5.886h4.401l-4.779 14.013c-1.107 3.24-2.43 4.374-5.211 4.374z"/><path d="m127.738 17.2593c-1.381 0-2.5-1.1188-2.5-2.499s1.119-2.4991 2.5-2.4991c1.38 0 2.5 1.1189 2.5 2.4991s-1.12 2.499-2.5 2.499z"/></g></svg>