<svg fill="none" height="48" viewBox="0 0 229 48" width="229" xmlns="http://www.w3.org/2000/svg" xmlns:xlink="http://www.w3.org/1999/xlink"><filter id="a" color-interpolation-filters="sRGB" filterUnits="userSpaceOnUse" height="54" width="48" x="0" y="-3"><feFlood flood-opacity="0" result="BackgroundImageFix"/><feBlend in="SourceGraphic" in2="BackgroundImageFix" mode="normal" result="shape"/><feColorMatrix in="SourceAlpha" result="hardAlpha" type="matrix" values="0 0 0 0 0 0 0 0 0 0 0 0 0 0 0 0 0 0 127 0"/><feOffset dy="-3"/><feGaussianBlur stdDeviation="1.5"/><feComposite in2="hardAlpha" k2="-1" k3="1" operator="arithmetic"/><feColorMatrix type="matrix" values="0 0 0 0 0 0 0 0 0 0 0 0 0 0 0 0 0 0 0.1 0"/><feBlend in2="shape" mode="normal" result="effect1_innerShadow_3046_38738"/><feColorMatrix in="SourceAlpha" result="hardAlpha" type="matrix" values="0 0 0 0 0 0 0 0 0 0 0 0 0 0 0 0 0 0 127 0"/><feOffset dy="3"/><feGaussianBlur stdDeviation="1.5"/><feComposite in2="hardAlpha" k2="-1" k3="1" operator="arithmetic"/><feColorMatrix type="matrix" values="0 0 0 0 1 0 0 0 0 1 0 0 0 0 1 0 0 0 0.1 0"/><feBlend in2="effect1_innerShadow_3046_38738" mode="normal" result="effect2_innerShadow_3046_38738"/><feColorMatrix in="SourceAlpha" result="hardAlpha" type="matrix" values="0 0 0 0 0 0 0 0 0 0 0 0 0 0 0 0 0 0 127 0"/><feMorphology in="SourceAlpha" operator="erode" radius="1" result="effect3_innerShadow_3046_38738"/><feOffset/><feComposite in2="hardAlpha" k2="-1" k3="1" operator="arithmetic"/><feColorMatrix type="matrix" values="0 0 0 0 0.0627451 0 0 0 0 0.0941176 0 0 0 0 0.156863 0 0 0 0.24 0"/><feBlend in2="effect2_innerShadow_3046_38738" mode="normal" result="effect3_innerShadow_3046_38738"/></filter><filter id="b" color-interpolation-filters="sRGB" filterUnits="userSpaceOnUse" height="42" width="37.5" x="5.25" y="5.25"><feFlood flood-opacity="0" result="BackgroundImageFix"/><feColorMatrix in="SourceAlpha" result="hardAlpha" type="matrix" values="0 0 0 0 0 0 0 0 0 0 0 0 0 0 0 0 0 0 127 0"/><feMorphology in="SourceAlpha" operator="erode" radius="1.5" result="effect1_dropShadow_3046_38738"/><feOffset dy="2.25"/><feGaussianBlur stdDeviation="2.25"/><feComposite in2="hardAlpha" operator="out"/><feColorMatrix type="matrix" values="0 0 0 0 0.141176 0 0 0 0 0.141176 0 0 0 0 0.141176 0 0 0 0.1 0"/><feBlend in2="BackgroundImageFix" mode="normal" result="effect1_dropShadow_3046_38738"/><feBlend in="SourceGraphic" in2="effect1_dropShadow_3046_38738" mode="normal" result="shape"/></filter><linearGradient id="c" gradientUnits="userSpaceOnUse" x1="24" x2="26" y1=".000001" y2="48"><stop offset="0" stop-color="#fff" stop-opacity="0"/><stop offset="1" stop-color="#fff" stop-opacity=".12"/></linearGradient><linearGradient id="d"><stop offset="0" stop-color="#fff" stop-opacity=".8"/><stop offset="1" stop-color="#fff" stop-opacity=".5"/></linearGradient><linearGradient id="e" gradientUnits="userSpaceOnUse" x1="28.875" x2="28.875" xlink:href="#d" y1="12.75" y2="34.5"/><linearGradient id="f" gradientUnits="userSpaceOnUse" x1="18.5625" x2="18.5625" xlink:href="#d" y1="18" y2="34.5"/><linearGradient id="g" gradientUnits="userSpaceOnUse" x1="24" x2="24" y1="0" y2="48"><stop offset="0" stop-color="#fff" stop-opacity=".12"/><stop offset="1" stop-color="#fff" stop-opacity="0"/></linearGradient><clipPath id="h"><rect height="48" rx="12" width="48"/></clipPath><g filter="url(#a)"><g clip-path="url(#h)"><rect fill="#2e90fa" height="48" rx="12" width="48"/><path d="m0 0h48v48h-48z" fill="url(#c)"/><g filter="url(#b)"><circle cx="28.875" cy="23.625" fill="url(#e)" r="10.875"/><path d="m19.2897 18.4836c-.8713-.313-1.8106-.4836-2.7897-.4836-4.5563 0-8.25 3.6937-8.25 8.25 0 4.5564 3.6937 8.25 8.25 8.25h12.375c-6.0061 0-10.875-4.8689-10.875-10.875 0-1.8598.4668-3.6105 1.2897-5.1414z" fill="url(#f)" opacity=".5"/></g></g><rect height="46" rx="11" stroke="url(#g)" stroke-width="2" width="46" x="1" y="1"/></g><g fill="#fff"><path d="m70.295 34.2899c-5.887 0-10.295-4.495-10.295-10.44s4.408-10.44 10.295-10.44c4.785 0 9.077 3.161 9.657 7.424h-4.785c-.551-1.885-2.523-3.248-4.872-3.248-3.335 0-5.887 2.697-5.887 6.264s2.552 6.264 5.887 6.264c2.378 0 4.379-1.479 4.901-3.509h4.814c-.783 4.524-4.756 7.685-9.715 7.685z"/><path d="m85.9212 13.6999v20.3h-4.089v-20.3z"/><path d="m122.197 33.9999v-1.856c-.899 1.363-2.233 2.146-3.857 2.146-3.654 0-5.858-2.436-5.858-6.467v-8.062h4.089v7.54c0 1.856 1.131 3.074 2.813 3.074 1.711 0 2.813-1.218 2.813-3.074v-7.54h4.089v14.239z"/><path d="m135.572 30.3749c2.001 0 3.567-1.508 3.567-3.509 0-1.972-1.566-3.509-3.567-3.509-1.972 0-3.567 1.566-3.567 3.509 0 1.972 1.595 3.509 3.567 3.509zm-7.569-3.509c0-4.089 2.929-7.395 6.641-7.395 2.001 0 3.509.841 4.495 2.32v-8.091h4.089v20.3h-4.089v-2.03c-.986 1.479-2.494 2.32-4.495 2.32-3.712 0-6.641-3.335-6.641-7.424z"/><path d="m168.735 13.6709h4.495l-6.728 20.329h-3.451l-4.263-13.05-4.234 13.05h-3.48l-6.786-20.329h4.582l4.031 13.079 4.205-13.079h3.451l4.205 13.079z"/><path d="m186.503 19.7609v14.239h-4.089v-2.03c-.986 1.479-2.494 2.32-4.495 2.32-3.712 0-6.641-3.335-6.641-7.424s2.929-7.395 6.641-7.395c2.001 0 3.509.841 4.495 2.32v-2.03zm-11.223 7.105c0 1.972 1.595 3.509 3.567 3.509 2.001 0 3.567-1.508 3.567-3.509 0-1.972-1.566-3.509-3.567-3.509-1.972 0-3.567 1.566-3.567 3.509z"/><path d="m195.885 34.2029c-3.364 0-5.626-2.175-5.626-6.003v-4.553h-2.639v-3.886h2.639v-3.741h4.089v3.741h3.509v3.886h-3.509v4.495c0 1.537 1.044 2.204 2.465 2.204.348 0 .725-.029 1.044-.116v3.77c-.551.145-1.392.203-1.972.203z"/><path d="m205.691 34.2899c-4.205 0-7.395-3.161-7.395-7.395s3.19-7.424 7.395-7.424c3.567 0 6.583 2.436 6.96 5.713h-4.147c-.29-1.044-1.45-1.798-2.813-1.798-1.943 0-3.393 1.479-3.393 3.509 0 1.972 1.45 3.48 3.393 3.48 1.363 0 2.552-.812 2.842-1.914h4.147c-.319 3.393-3.364 5.829-6.989 5.829z"/><path d="m214.213 13.6999h4.089v7.917c.899-1.363 2.233-2.146 3.857-2.146 3.654 0 5.858 2.436 5.858 6.467v8.062h-4.089v-7.54c0-1.856-1.131-3.074-2.813-3.074-1.711 0-2.813 1.218-2.813 3.074v7.54h-4.089z"/><path clip-rule="evenodd" d="m94.875 34.2899c-4.197-.0081-7.3789-3.1664-7.3789-7.395s3.1819-7.4159 7.379-7.424h8.5209c4.176 0 7.395 3.19 7.395 7.424s-3.219 7.395-7.395 7.395zm.0161-3.915h8.5049c1.914 0 3.422-1.508 3.422-3.48 0-2.001-1.508-3.509-3.422-3.509h-8.5049c-1.943 0-3.422 1.508-3.422 3.509 0 1.972 1.479 3.48 3.422 3.48z" fill-rule="evenodd"/></g></svg>