<svg fill="none" height="48" viewBox="0 0 177 48" width="177" xmlns="http://www.w3.org/2000/svg" xmlns:xlink="http://www.w3.org/1999/xlink"><filter id="a" color-interpolation-filters="sRGB" filterUnits="userSpaceOnUse" height="54" width="48" x="0" y="-3"><feFlood flood-opacity="0" result="BackgroundImageFix"/><feBlend in="SourceGraphic" in2="BackgroundImageFix" mode="normal" result="shape"/><feColorMatrix in="SourceAlpha" result="hardAlpha" type="matrix" values="0 0 0 0 0 0 0 0 0 0 0 0 0 0 0 0 0 0 127 0"/><feOffset dy="-3"/><feGaussianBlur stdDeviation="1.5"/><feComposite in2="hardAlpha" k2="-1" k3="1" operator="arithmetic"/><feColorMatrix type="matrix" values="0 0 0 0 0 0 0 0 0 0 0 0 0 0 0 0 0 0 0.1 0"/><feBlend in2="shape" mode="normal" result="effect1_innerShadow_3046_38780"/><feColorMatrix in="SourceAlpha" result="hardAlpha" type="matrix" values="0 0 0 0 0 0 0 0 0 0 0 0 0 0 0 0 0 0 127 0"/><feOffset dy="3"/><feGaussianBlur stdDeviation="1.5"/><feComposite in2="hardAlpha" k2="-1" k3="1" operator="arithmetic"/><feColorMatrix type="matrix" values="0 0 0 0 1 0 0 0 0 1 0 0 0 0 1 0 0 0 0.1 0"/><feBlend in2="effect1_innerShadow_3046_38780" mode="normal" result="effect2_innerShadow_3046_38780"/><feColorMatrix in="SourceAlpha" result="hardAlpha" type="matrix" values="0 0 0 0 0 0 0 0 0 0 0 0 0 0 0 0 0 0 127 0"/><feMorphology in="SourceAlpha" operator="erode" radius="1" result="effect3_innerShadow_3046_38780"/><feOffset/><feComposite in2="hardAlpha" k2="-1" k3="1" operator="arithmetic"/><feColorMatrix type="matrix" values="0 0 0 0 0.0627451 0 0 0 0 0.0941176 0 0 0 0 0.156863 0 0 0 0.24 0"/><feBlend in2="effect2_innerShadow_3046_38780" mode="normal" result="effect3_innerShadow_3046_38780"/></filter><filter id="b" color-interpolation-filters="sRGB" filterUnits="userSpaceOnUse" height="42" width="37.5" x="5.25" y="5.25"><feFlood flood-opacity="0" result="BackgroundImageFix"/><feColorMatrix in="SourceAlpha" result="hardAlpha" type="matrix" values="0 0 0 0 0 0 0 0 0 0 0 0 0 0 0 0 0 0 127 0"/><feMorphology in="SourceAlpha" operator="erode" radius="1.5" result="effect1_dropShadow_3046_38780"/><feOffset dy="2.25"/><feGaussianBlur stdDeviation="2.25"/><feComposite in2="hardAlpha" operator="out"/><feColorMatrix type="matrix" values="0 0 0 0 0.141176 0 0 0 0 0.141176 0 0 0 0 0.141176 0 0 0 0.1 0"/><feBlend in2="BackgroundImageFix" mode="normal" result="effect1_dropShadow_3046_38780"/><feBlend in="SourceGraphic" in2="effect1_dropShadow_3046_38780" mode="normal" result="shape"/></filter><linearGradient id="c" gradientUnits="userSpaceOnUse" x1="24" x2="26" y1=".000001" y2="48"><stop offset="0" stop-color="#fff" stop-opacity="0"/><stop offset="1" stop-color="#fff" stop-opacity=".12"/></linearGradient><linearGradient id="d"><stop offset="0" stop-color="#fff" stop-opacity=".8"/><stop offset="1" stop-color="#fff" stop-opacity=".5"/></linearGradient><linearGradient id="e" gradientUnits="userSpaceOnUse" x1="18.1422" x2="18.1422" xlink:href="#d" y1="8.25" y2="27.0783"/><linearGradient id="f" gradientUnits="userSpaceOnUse" x1="30.0658" x2="30.0658" xlink:href="#d" y1="20.9814" y2="39.75"/><linearGradient id="g" gradientUnits="userSpaceOnUse" x1="24.0884" x2="24.0884" xlink:href="#d" y1="14.4062" y2="34.0713"/><linearGradient id="h" gradientUnits="userSpaceOnUse" x1="24" x2="24" y1="0" y2="48"><stop offset="0" stop-color="#fff" stop-opacity=".12"/><stop offset="1" stop-color="#fff" stop-opacity="0"/></linearGradient><clipPath id="i"><rect height="48" rx="12" width="48"/></clipPath><g filter="url(#a)"><g clip-path="url(#i)"><rect fill="#087443" height="48" rx="12" width="48"/><path d="m0 0h48v48h-48z" fill="url(#c)"/><g filter="url(#b)"><path d="m18.8296 20.7424c4.1242-1.9725 7.3519-5.3197 9.2048-9.5038-1.1955-1.2552-2.7495-2.15179-4.4231-2.68974l-.8966-.29886c-.0598.11954-.1195.29887-.1195.41841-1.4346 4.06449-4.3634 7.35199-8.3083 9.20489-2.7495 1.315-4.7817 3.7059-5.73804 6.575l-.29886.8966c.11954.0597.29886.1195.4184.1195 1.13566.4184 2.2713.9564 3.3472 1.6139 1.4943-2.6898 3.8852-4.9611 6.814-6.3359z" fill="url(#e)"/><path d="m36.1625 20.9814c-2.2116 3.3473-5.2599 6.037-9.0255 7.8302-3.0484 1.4346-5.3794 4.1243-6.4553 7.352l-.2989 1.0161c1.1357 1.0162 2.5104 1.7932 4.0047 2.2714l.8966.2989c.0597-.1196.1195-.2989.1195-.4185 1.4345-4.0645 4.3633-7.3519 8.3083-9.2049 2.7495-1.315 4.8415-3.7059 5.738-6.5749l.2989-.8966c-1.2552-.3587-2.4507-.9564-3.5863-1.6737z" fill="url(#f)"/><path d="m17.9917 34.0713c1.4943-3.5863 4.2438-6.5151 7.7703-8.1888 3.2277-1.554 5.9174-3.9449 7.7703-6.8738-1.3747-1.315-2.5104-2.8093-3.3472-4.6025-2.2115 4.0646-5.6783 7.352-9.922 9.3843-2.4507 1.1357-4.4231 3.1082-5.6186 5.4991 1.315 1.2552 2.3909 2.8092 3.2277 4.5426 0 0 .0598.1196.1195.2391z" fill="url(#g)"/></g></g><rect height="46" rx="11" stroke="url(#h)" stroke-width="2" width="46" x="1" y="1"/></g><g fill="#fff"><path d="m60 33v-19.6436h4.0605v16.1631h8.9253v3.4805z"/><path d="m80.9229 33.29c-4.0474 0-6.5259-2.2675-6.5259-5.893v-8.3189h3.8892v8.0816c0 1.8193.936 2.9004 2.6367 2.9004s2.6499-1.0811 2.6499-2.9004v-8.0816h3.876v8.3189c0 3.6255-2.4785 5.893-6.5259 5.893z"/><path d="m89.6773 33v-13.9219h3.7442v2.5049c.8305-1.8852 2.4521-2.7949 4.2187-2.7949 1.8721 0 3.4408 1.0151 4.0208 2.7158.725-1.7007 2.439-2.7158 4.456-2.7158 2.677 0 4.667 1.793 4.667 4.9834v9.2285h-3.876v-8.5166c0-1.6743-1.028-2.4917-2.36-2.4917-1.503 0-2.439 1.0679-2.439 2.6235v8.3848h-3.7437v-8.6221c0-1.4502-.9492-2.3862-2.3071-2.3862-1.3843 0-2.4917 1.002-2.4917 2.7949v8.2134z"/><path d="m113 33v-13.9219h3.889v13.9219zm1.938-15.6753c-1.279 0-2.215-.8833-2.215-2.0698s.936-2.0698 2.215-2.0698c1.278 0 2.214.8833 2.214 2.0698s-.936 2.0698-2.214 2.0698z"/><path d="m122.993 25.2612v7.7388h-3.889v-13.9219h3.823v2.1885c.936-1.582 2.347-2.4785 4.351-2.4785 2.966 0 4.878 1.9775 4.878 5.4975v8.7144h-3.876v-8.0024c0-1.8721-.936-2.8609-2.558-2.8609-1.608 0-2.729.9624-2.729 3.1245z"/><path d="m140.844 33.3164c-4.218 0-7.066-2.9004-7.066-7.2642 0-4.3637 2.848-7.2905 7.066-7.2905 4.232 0 7.08 2.9268 7.08 7.2905 0 4.3638-2.848 7.2642-7.08 7.2642zm0-3.1509c1.899 0 3.164-1.5293 3.164-4.1133 0-2.5971-1.278-4.1396-3.164-4.1396-1.872 0-3.15 1.5425-3.15 4.1396 0 2.584 1.265 4.1133 3.15 4.1133z"/><path d="m156.059 33.29c-4.048 0-6.526-2.2675-6.526-5.893v-8.3189h3.889v8.0816c0 1.8193.936 2.9004 2.637 2.9004s2.65-1.0811 2.65-2.9004v-8.0816h3.876v8.3189c0 3.6255-2.479 5.893-6.526 5.893z"/><path d="m170.601 33.3428c-3.612 0-6.21-1.7271-6.447-4.7198h3.823c.145 1.2129 1.042 1.938 2.558 1.938 1.437 0 2.32-.6064 2.32-1.4633 0-.7383-.672-1.1734-1.806-1.3975l-2.439-.4746c-2.702-.5274-4.14-1.8985-4.14-4.0606 0-2.6367 2.281-4.3769 5.907-4.3769 3.599 0 5.972 1.8061 6.051 4.7065h-3.599c-.026-1.1206-.976-1.9511-2.347-1.9511-1.331 0-2.136.646-2.136 1.4765 0 .7119.62 1.1734 1.688 1.3975l2.637.5141c2.808.5538 4.1 1.7666 4.1 3.8101 0 2.7817-2.531 4.6011-6.17 4.6011z"/></g></svg>