<svg fill="none" height="54" viewBox="0 0 216 54" width="216" xmlns="http://www.w3.org/2000/svg" xmlns:xlink="http://www.w3.org/1999/xlink"><filter id="a" color-interpolation-filters="sRGB" filterUnits="userSpaceOnUse" height="57" width="54" x="0" y="-3"><feFlood flood-opacity="0" result="BackgroundImageFix"/><feColorMatrix in="SourceAlpha" result="hardAlpha" type="matrix" values="0 0 0 0 0 0 0 0 0 0 0 0 0 0 0 0 0 0 127 0"/><feOffset dy="1"/><feGaussianBlur stdDeviation=".5"/><feComposite in2="hardAlpha" operator="out"/><feColorMatrix type="matrix" values="0 0 0 0 0.162923 0 0 0 0 0.162923 0 0 0 0 0.162923 0 0 0 0.08 0"/><feBlend in2="BackgroundImageFix" mode="normal" result="effect1_dropShadow_3046_38800"/><feColorMatrix in="SourceAlpha" result="hardAlpha" type="matrix" values="0 0 0 0 0 0 0 0 0 0 0 0 0 0 0 0 0 0 127 0"/><feMorphology in="SourceAlpha" operator="erode" radius="1" result="effect2_dropShadow_3046_38800"/><feOffset dy="3"/><feGaussianBlur stdDeviation="2"/><feComposite in2="hardAlpha" operator="out"/><feColorMatrix type="matrix" values="0 0 0 0 0.164706 0 0 0 0 0.164706 0 0 0 0 0.164706 0 0 0 0.14 0"/><feBlend in2="effect1_dropShadow_3046_38800" mode="normal" result="effect2_dropShadow_3046_38800"/><feBlend in="SourceGraphic" in2="effect2_dropShadow_3046_38800" mode="normal" result="shape"/><feColorMatrix in="SourceAlpha" result="hardAlpha" type="matrix" values="0 0 0 0 0 0 0 0 0 0 0 0 0 0 0 0 0 0 127 0"/><feOffset dy="-3"/><feGaussianBlur stdDeviation="1.5"/><feComposite in2="hardAlpha" k2="-1" k3="1" operator="arithmetic"/><feColorMatrix type="matrix" values="0 0 0 0 0 0 0 0 0 0 0 0 0 0 0 0 0 0 0.1 0"/><feBlend in2="shape" mode="normal" result="effect3_innerShadow_3046_38800"/><feColorMatrix in="SourceAlpha" result="hardAlpha" type="matrix" values="0 0 0 0 0 0 0 0 0 0 0 0 0 0 0 0 0 0 127 0"/><feOffset dy="3"/><feGaussianBlur stdDeviation="1.5"/><feComposite in2="hardAlpha" k2="-1" k3="1" operator="arithmetic"/><feColorMatrix type="matrix" values="0 0 0 0 1 0 0 0 0 1 0 0 0 0 1 0 0 0 0.1 0"/><feBlend in2="effect3_innerShadow_3046_38800" mode="normal" result="effect4_innerShadow_3046_38800"/><feColorMatrix in="SourceAlpha" result="hardAlpha" type="matrix" values="0 0 0 0 0 0 0 0 0 0 0 0 0 0 0 0 0 0 127 0"/><feMorphology in="SourceAlpha" operator="erode" radius="1" result="effect5_innerShadow_3046_38800"/><feOffset/><feComposite in2="hardAlpha" k2="-1" k3="1" operator="arithmetic"/><feColorMatrix type="matrix" values="0 0 0 0 0.0627451 0 0 0 0 0.0941176 0 0 0 0 0.156863 0 0 0 0.24 0"/><feBlend in2="effect4_innerShadow_3046_38800" mode="normal" result="effect5_innerShadow_3046_38800"/></filter><filter id="b" color-interpolation-filters="sRGB" filterUnits="userSpaceOnUse" height="42" width="32.25" x="11" y="5.25"><feFlood flood-opacity="0" result="BackgroundImageFix"/><feColorMatrix in="SourceAlpha" result="hardAlpha" type="matrix" values="0 0 0 0 0 0 0 0 0 0 0 0 0 0 0 0 0 0 127 0"/><feMorphology in="SourceAlpha" operator="erode" radius="1.5" result="effect1_dropShadow_3046_38800"/><feOffset dy="2.25"/><feGaussianBlur stdDeviation="2.25"/><feComposite in2="hardAlpha" operator="out"/><feColorMatrix type="matrix" values="0 0 0 0 0.141176 0 0 0 0 0.141176 0 0 0 0 0.141176 0 0 0 0.1 0"/><feBlend in2="BackgroundImageFix" mode="normal" result="effect1_dropShadow_3046_38800"/><feBlend in="SourceGraphic" in2="effect1_dropShadow_3046_38800" mode="normal" result="shape"/></filter><linearGradient id="c" gradientUnits="userSpaceOnUse" x1="24" x2="26" y1=".000001" y2="48"><stop offset="0" stop-color="#fff" stop-opacity="0"/><stop offset="1" stop-color="#fff" stop-opacity=".12"/></linearGradient><linearGradient id="d" gradientUnits="userSpaceOnUse" x1="27.1854" x2="27.1854" y1="9.75" y2="38.25"><stop offset="0" stop-color="#fff" stop-opacity=".8"/><stop offset="1" stop-color="#fff" stop-opacity=".5"/></linearGradient><linearGradient id="e" gradientUnits="userSpaceOnUse" x1="27" x2="27" y1="0" y2="48"><stop offset="0" stop-color="#fff" stop-opacity=".12"/><stop offset="1" stop-color="#fff" stop-opacity="0"/></linearGradient><clipPath id="f"><rect height="48" rx="12" width="48" x="3"/></clipPath><g filter="url(#a)"><g clip-path="url(#f)"><rect fill="#1849a9" height="48" rx="12" width="48" x="3"/><path d="m0 0h48v48h-48z" fill="url(#c)" transform="translate(3)"/><g filter="url(#b)"><path clip-rule="evenodd" d="m23.5263 9.75c1.3808 0 2.5629.9898 2.8057 2.349l.3485 1.952c.2428 1.3592 1.4249 2.349 2.8057 2.349h2.3638c3.6727 0 6.65 2.9773 6.65 6.65 0 2.1999-1.0682 4.1504-2.7143 5.3609.69.2345 1.2349.6068 1.6349 1.0957.4118.5394.7059 1.3059.8823 2.271.0295.2555.0662.5039.103.7523s.0735.4968.1029.7523c.0306.2653.0532.4924.072.6812.0174.1748.0315.3167.0457.4259.0588.7948.147 1.4478.2647 1.9303.124.6786.3745 1.3401.7295 1.9304h-5.0236c-.2353-.4542-.3824-.9936-.5-1.5897-.1012-.5127-.1806-1.1514-.2757-1.9161-.0155-.1244-.0314-.2522-.0479-.3833l-.1764-1.3058c-.1471-.9936-.3236-1.7033-.5-2.1575-.2059-.4258-.5295-.7381-.9706-.9084-.4706-.1703-1.1765-.2892-2.1765-.2892h-.2263c-1.3808 0-2.5629-.9898-2.8057-2.349l-.3485-1.952c-.2428-1.3592-1.4249-2.349-2.8057-2.349h-4.2638v7.6h-4.75v-20.9zm10.2237 13.3c0 1.0493-.8507 1.9-1.9 1.9h-2.3638c-1.3808 0-2.5629-.9898-2.8057-2.349l-.3485-1.952c-.2428-1.3592-1.4249-2.349-2.8057-2.349h-4.0263v-3.8h4.2638c1.3808 0 2.5629.9898 2.8057 2.349l.3485 1.952c.2428 1.3592 1.4249 2.349 2.8057 2.349h2.1263c1.0493 0 1.9.8507 1.9 1.9z" fill="url(#d)" fill-rule="evenodd"/></g></g><rect height="46" rx="11" stroke="url(#e)" stroke-width="2" width="46" x="4" y="1"/></g><g fill="#0a0d12"><path d="m78.93 32.8111v.189h-4.644c-.243-1.269-.459-2.727-.675-4.482-.243-2.187-.918-2.835-3.483-2.835h-3.159v7.317h-3.969v-19.71h7.29c1.107 0 1.917.027 2.889.135 2.781.324 5.184 1.728 5.184 5.427 0 2.484-1.323 4.104-3.456 4.968 1.593.621 2.511 1.809 2.727 3.807.216 2.025.405 3.132.729 4.482zm-11.961-10.503h3.402c2.322 0 3.942-.621 3.942-2.808 0-1.998-1.08-2.808-3.807-2.808h-3.537z"/><path d="m86.8821 18.3661c4.671 0 6.642 3.051 6.642 7.263 0 .405-.027.945-.054 1.404h-9.747c.243 2.403 1.323 3.24 3.105 3.24 1.485 0 2.322-.567 2.7-1.62h3.753c-.513 2.997-2.835 4.725-6.534 4.725-4.59 0-6.966-2.511-6.966-7.425 0-4.644 2.241-7.587 7.101-7.587zm-3.132 5.967h5.886c-.216-2.079-1.296-2.889-2.916-2.889-1.701 0-2.727.756-2.97 2.889z"/><path d="m103.384 18.3661c2.997 0 4.725 1.188 5.076 3.807.081.729.108 1.404.108 2.565v8.262h-3.861v-8.316c0-1.89-.513-3.105-2.646-3.105-1.755-.054-2.9972 1.161-2.9972 3.861v7.56h-3.861v-14.256h3.537l.162 2.322c.459-2.106 2.1332-2.7 4.4822-2.7z"/><path d="m116.788 18.3661c4.212 0 5.778 1.809 5.967 4.32.054.729.081 1.404.081 2.214v8.1h-3.483l-.216-1.89c-.648 1.917-2.349 2.268-4.455 2.268-2.619 0-4.671-1.485-4.671-4.266 0-3.564 2.727-4.86 8.235-4.86h.783v-.513c0-1.404-.459-2.295-2.403-2.295-1.701 0-2.457.594-2.619 1.917h-3.537c.108-3.078 1.998-4.995 6.318-4.995zm-3.024 10.287c0 1.053.837 1.647 2.16 1.647 1.512 0 3.105-.864 3.105-2.268v-1.134c-3.402-.162-5.265.189-5.265 1.755z"/><path d="m128.979 18.7441v14.256h-3.861v-14.256zm-4.05-4.455c0-1.161.945-2.106 2.106-2.106 1.188 0 2.133.945 2.133 2.106 0 1.188-.945 2.106-2.133 2.106-1.161 0-2.106-.918-2.106-2.106z"/><path d="m136.722 18.3661c4.05 0 5.778 1.566 5.967 4.563h-3.726c-.189-1.323-1.08-1.647-2.322-1.647-1.134 0-1.998.432-1.998 1.242 0 .864.702 1.35 2.916 1.701 3.753.567 5.562 1.863 5.562 4.671 0 3.024-2.754 4.482-6.183 4.482-4.05 0-6.129-1.431-6.507-4.671h3.78c.243 1.296 1.053 1.728 2.835 1.728 1.404 0 2.241-.459 2.241-1.215 0-.945-.972-1.485-3.078-1.809-3.78-.621-5.4-1.755-5.4-4.644 0-2.619 2.322-4.401 5.913-4.401z"/><path d="m150.229 18.3661c4.05 0 5.778 1.566 5.967 4.563h-3.726c-.189-1.323-1.08-1.647-2.322-1.647-1.134 0-1.998.432-1.998 1.242 0 .864.702 1.35 2.916 1.701 3.753.567 5.562 1.863 5.562 4.671 0 3.024-2.754 4.482-6.183 4.482-4.05 0-6.129-1.431-6.507-4.671h3.78c.243 1.296 1.053 1.728 2.835 1.728 1.404 0 2.241-.459 2.241-1.215 0-.945-.972-1.485-3.078-1.809-3.78-.621-5.4-1.755-5.4-4.644 0-2.619 2.322-4.401 5.913-4.401z"/><path d="m164.252 18.3661c4.212 0 5.778 1.809 5.967 4.32.054.729.081 1.404.081 2.214v8.1h-3.483l-.216-1.89c-.648 1.917-2.349 2.268-4.455 2.268-2.619 0-4.671-1.485-4.671-4.266 0-3.564 2.727-4.86 8.235-4.86h.783v-.513c0-1.404-.459-2.295-2.403-2.295-1.701 0-2.457.594-2.619 1.917h-3.537c.108-3.078 1.998-4.995 6.318-4.995zm-3.024 10.287c0 1.053.837 1.647 2.16 1.647 1.512 0 3.105-.864 3.105-2.268v-1.134c-3.402-.162-5.265.189-5.265 1.755z"/><path d="m180.763 18.3661c2.997 0 4.725 1.188 5.076 3.807.081.729.108 1.404.108 2.565v8.262h-3.861v-8.316c0-1.89-.513-3.105-2.646-3.105-1.755-.054-2.997 1.161-2.997 3.861v7.56h-3.861v-14.256h3.537l.162 2.322c.459-2.106 2.133-2.7 4.482-2.7z"/><path d="m194.652 18.3661c4.536 0 6.21 2.187 6.48 5.346h-3.834c-.135-1.485-1.161-2.241-2.7-2.241-1.971 0-3.051 1.377-3.051 4.347 0 2.997.972 4.428 3.024 4.428 1.458 0 2.538-.891 2.727-2.214h3.834c-.378 3.24-2.511 5.346-6.723 5.346-4.752 0-6.885-2.727-6.885-7.479 0-4.698 2.133-7.533 7.128-7.533z"/><path d="m209.16 18.3661c4.671 0 6.642 3.051 6.642 7.263 0 .405-.027.945-.054 1.404h-9.747c.243 2.403 1.323 3.24 3.105 3.24 1.485 0 2.322-.567 2.7-1.62h3.753c-.513 2.997-2.835 4.725-6.534 4.725-4.59 0-6.966-2.511-6.966-7.425 0-4.644 2.241-7.587 7.101-7.587zm-3.132 5.967h5.886c-.216-2.079-1.296-2.889-2.916-2.889-1.701 0-2.727.756-2.97 2.889z"/></g></svg>