<svg fill="none" height="48" viewBox="0 0 232 48" width="232" xmlns="http://www.w3.org/2000/svg" xmlns:xlink="http://www.w3.org/1999/xlink"><filter id="a" color-interpolation-filters="sRGB" filterUnits="userSpaceOnUse" height="54" width="48" x="0" y="-3"><feFlood flood-opacity="0" result="BackgroundImageFix"/><feBlend in="SourceGraphic" in2="BackgroundImageFix" mode="normal" result="shape"/><feColorMatrix in="SourceAlpha" result="hardAlpha" type="matrix" values="0 0 0 0 0 0 0 0 0 0 0 0 0 0 0 0 0 0 127 0"/><feOffset dy="-3"/><feGaussianBlur stdDeviation="1.5"/><feComposite in2="hardAlpha" k2="-1" k3="1" operator="arithmetic"/><feColorMatrix type="matrix" values="0 0 0 0 0 0 0 0 0 0 0 0 0 0 0 0 0 0 0.1 0"/><feBlend in2="shape" mode="normal" result="effect1_innerShadow_3046_38769"/><feColorMatrix in="SourceAlpha" result="hardAlpha" type="matrix" values="0 0 0 0 0 0 0 0 0 0 0 0 0 0 0 0 0 0 127 0"/><feOffset dy="3"/><feGaussianBlur stdDeviation="1.5"/><feComposite in2="hardAlpha" k2="-1" k3="1" operator="arithmetic"/><feColorMatrix type="matrix" values="0 0 0 0 1 0 0 0 0 1 0 0 0 0 1 0 0 0 0.1 0"/><feBlend in2="effect1_innerShadow_3046_38769" mode="normal" result="effect2_innerShadow_3046_38769"/><feColorMatrix in="SourceAlpha" result="hardAlpha" type="matrix" values="0 0 0 0 0 0 0 0 0 0 0 0 0 0 0 0 0 0 127 0"/><feMorphology in="SourceAlpha" operator="erode" radius="1" result="effect3_innerShadow_3046_38769"/><feOffset/><feComposite in2="hardAlpha" k2="-1" k3="1" operator="arithmetic"/><feColorMatrix type="matrix" values="0 0 0 0 0.0627451 0 0 0 0 0.0941176 0 0 0 0 0.156863 0 0 0 0.24 0"/><feBlend in2="effect2_innerShadow_3046_38769" mode="normal" result="effect3_innerShadow_3046_38769"/></filter><filter id="b" color-interpolation-filters="sRGB" filterUnits="userSpaceOnUse" height="42" width="36" x="6" y="5.25"><feFlood flood-opacity="0" result="BackgroundImageFix"/><feColorMatrix in="SourceAlpha" result="hardAlpha" type="matrix" values="0 0 0 0 0 0 0 0 0 0 0 0 0 0 0 0 0 0 127 0"/><feMorphology in="SourceAlpha" operator="erode" radius="1.5" result="effect1_dropShadow_3046_38769"/><feOffset dy="2.25"/><feGaussianBlur stdDeviation="2.25"/><feComposite in2="hardAlpha" operator="out"/><feColorMatrix type="matrix" values="0 0 0 0 0.141176 0 0 0 0 0.141176 0 0 0 0 0.141176 0 0 0 0.1 0"/><feBlend in2="BackgroundImageFix" mode="normal" result="effect1_dropShadow_3046_38769"/><feBlend in="SourceGraphic" in2="effect1_dropShadow_3046_38769" mode="normal" result="shape"/></filter><linearGradient id="c" gradientUnits="userSpaceOnUse" x1="24" x2="26" y1=".000001" y2="48"><stop offset="0" stop-color="#fff" stop-opacity="0"/><stop offset="1" stop-color="#fff" stop-opacity=".12"/></linearGradient><linearGradient id="d"><stop offset="0" stop-color="#fff" stop-opacity=".8"/><stop offset="1" stop-color="#fff" stop-opacity=".5"/></linearGradient><linearGradient id="e" gradientUnits="userSpaceOnUse" x1="18" x2="18" xlink:href="#d" y1="9" y2="24"/><linearGradient id="f" gradientUnits="userSpaceOnUse" x1="31.5" x2="31.5" xlink:href="#d" y1="9" y2="27"/><linearGradient id="g" gradientUnits="userSpaceOnUse" x1="30" x2="30" xlink:href="#d" y1="24" y2="39"/><linearGradient id="h" gradientUnits="userSpaceOnUse" x1="16.5" x2="16.5" xlink:href="#d" y1="21" y2="39"/><linearGradient id="i" gradientUnits="userSpaceOnUse" x1="24" x2="24" y1="0" y2="48"><stop offset="0" stop-color="#fff" stop-opacity=".12"/><stop offset="1" stop-color="#fff" stop-opacity="0"/></linearGradient><clipPath id="j"><rect height="48" rx="12" width="48"/></clipPath><g filter="url(#a)"><g clip-path="url(#j)"><rect fill="#1570ef" height="48" rx="12" width="48"/><path d="m0 0h48v48h-48z" fill="url(#c)"/><g filter="url(#b)"><path d="m21 9c0 6.6274-5.3726 12-12 12 3.6802 0 7.1025 1.1045 9.9534 3 4.8501-3.2248 8.0466-8.7391 8.0466-15z" fill="url(#e)"/><path d="m39 21c-6.6274 0-12-5.3726-12-12 0 3.6802-1.1045 7.1025-3 9.9534 3.2248 4.8501 8.7391 8.0466 15 8.0466z" fill="url(#f)" opacity=".8"/><path d="m27 39c0-6.6274 5.3726-12 12-12-3.6802 0-7.1025-1.1045-9.9534-3-4.8501 3.2248-8.0466 8.7391-8.0466 15z" fill="url(#g)" opacity=".6"/><path d="m9 27c6.6274 0 12 5.3726 12 12 0-3.6802 1.1045-7.1025 3-9.9534-3.2248-4.8501-8.7391-8.0466-15-8.0466z" fill="url(#h)" opacity=".4"/></g></g><rect height="46" rx="11" stroke="url(#i)" stroke-width="2" width="46" x="1" y="1"/></g><g fill="#fff"><path d="m64.563 33.0002h-4.563v-19.224h4.563z"/><path d="m83.4453 18.7442c1.53 0 2.727.459 3.591 1.377.864.9 1.296 2.178 1.296 3.834v9.045h-4.212v-8.316c0-1.566-.693-2.349-2.079-2.349-.738 0-1.323.252-1.755.756s-.648 1.242-.648 2.214v7.695h-4.212v-8.316c0-1.566-.693-2.349-2.079-2.349-.738 0-1.332.252-1.782.756-.432.504-.648 1.242-.648 2.214v7.695h-4.212v-13.932h4.3547l-.2507 1.971c1.026-1.53 2.349-2.295 3.969-2.295 2.088 0 3.528.837 4.32 2.511 1.134-1.674 2.583-2.511 4.347-2.511z"/><path d="m99.9052 20.9042-.2452-1.836h4.349v13.5c0 1.89-.63 3.366-1.89 4.428-1.242 1.08-2.9878 1.62-5.2378 1.62-2.07 0-3.69-.459-4.86-1.377-1.17-.9-1.8-2.142-1.89-3.726h4.158c.108 1.296.999 1.944 2.673 1.944.918 0 1.62-.243 2.106-.729.486-.468.729-1.134.729-1.998v-1.998c-.882 1.314-2.214 1.971-3.996 1.971-1.836 0-3.321-.648-4.455-1.944s-1.701-2.979-1.701-5.049c0-2.052.558-3.735 1.674-5.049 1.116-1.278 2.583-1.917 4.401-1.917 1.872 0 3.267.72 4.185 2.16zm-3.024 8.424c.954 0 1.692-.306 2.214-.918.522-.63.783-1.53.783-2.7s-.261-2.061-.783-2.673c-.504-.612-1.242-.918-2.214-.918-.936 0-1.665.324-2.187.972-.522.63-.783 1.521-.783 2.673 0 1.134.261 2.016.783 2.646.522.612 1.251.918 2.187.918z"/><path d="m114.906 33.4322c-2.862 0-5.175-.909-6.939-2.727s-2.646-4.257-2.646-7.317c0-3.096.864-5.544 2.592-7.344s4.059-2.7 6.993-2.7c2.376 0 4.392.63 6.048 1.89 1.692 1.278 2.709 3.087 3.051 5.427h-4.617c-.288-1.08-.828-1.908-1.62-2.484-.774-.594-1.728-.891-2.862-.891-1.548 0-2.745.531-3.591 1.593-.828 1.062-1.242 2.565-1.242 4.509s.414 3.447 1.242 4.509c.846 1.062 2.043 1.593 3.591 1.593 1.188 0 2.196-.342 3.024-1.026s1.35-1.638 1.566-2.862h4.563c-.288 2.484-1.269 4.41-2.943 5.778-1.692 1.368-3.762 2.052-6.21 2.052z"/><path d="m137.43 31.3262c-1.332 1.332-3.105 1.998-5.319 1.998s-3.987-.666-5.319-1.998-1.998-3.096-1.998-5.292c0-2.214.666-3.987 1.998-5.319 1.314-1.314 3.087-1.971 5.319-1.971s4.005.657 5.319 1.971 1.971 3.087 1.971 5.319c0 2.214-.657 3.978-1.971 5.292zm-5.319-1.377c.972 0 1.719-.333 2.241-.999s.783-1.638.783-2.916-.261-2.25-.783-2.916-1.269-.999-2.241-.999c-.99 0-1.746.333-2.268.999s-.783 1.638-.783 2.916.261 2.25.783 2.916 1.278.999 2.268.999z"/><path d="m157.46 18.7442c1.53 0 2.727.459 3.591 1.377.864.9 1.296 2.178 1.296 3.834v9.045h-4.212v-8.316c0-1.566-.693-2.349-2.079-2.349-.738 0-1.323.252-1.755.756s-.648 1.242-.648 2.214v7.695h-4.212v-8.316c0-1.566-.693-2.349-2.079-2.349-.738 0-1.332.252-1.782.756-.432.504-.648 1.242-.648 2.214v7.695h-4.212v-13.932h4.35l-.246 1.971c1.026-1.53 2.349-2.295 3.969-2.295 2.088 0 3.528.837 4.32 2.511 1.134-1.674 2.583-2.511 4.347-2.511z"/><path d="m172.543 18.7442c1.872 0 3.357.657 4.455 1.971 1.08 1.314 1.62 3.087 1.62 5.319s-.54 4.005-1.62 5.319c-1.098 1.314-2.583 1.971-4.455 1.971-1.782 0-3.15-.675-4.104-2.025v6.993h-4.212v-19.224h4.353l-.249 1.863c.954-1.458 2.358-2.187 4.212-2.187zm-1.161 11.205c.936 0 1.665-.342 2.187-1.026.522-.702.783-1.701.783-2.997 0-2.538-.99-3.807-2.97-3.807-1.998 0-2.997 1.305-2.997 3.915s.999 3.915 2.997 3.915z"/><path d="m188.002 18.8522c.072 0 .378.018.918.054v3.834h-1.08c-2.466 0-3.699 1.26-3.699 3.78v6.48h-4.212v-13.932h4.351l-.247 2.592c.648-1.872 1.971-2.808 3.969-2.808z"/><path d="m203.364 26.4392v.837h-10.314c.144.954.495 1.683 1.053 2.187s1.269.756 2.133.756c1.368 0 2.304-.522 2.808-1.566h3.996c-.378 1.44-1.179 2.583-2.403 3.429-1.224.828-2.691 1.242-4.401 1.242-2.16 0-3.906-.666-5.238-1.998s-1.998-3.096-1.998-5.292c0-2.214.657-3.978 1.971-5.292 1.296-1.332 3.033-1.998 5.211-1.998 2.16 0 3.906.693 5.238 2.079 1.296 1.404 1.944 3.276 1.944 5.616zm-7.236-4.59c-1.728 0-2.745.918-3.051 2.754h6.156c-.144-.864-.486-1.539-1.026-2.025s-1.233-.729-2.079-.729z"/><path d="m210.706 33.4052c-2.196 0-3.834-.378-4.914-1.134-1.062-.774-1.656-2.007-1.782-3.699h4.104c.072.738.306 1.26.702 1.566.414.306 1.071.459 1.971.459 1.566 0 2.349-.45 2.349-1.35 0-.432-.171-.756-.513-.972-.342-.234-.972-.423-1.89-.567l-1.809-.297c-3.132-.486-4.698-1.908-4.698-4.266 0-1.404.54-2.484 1.62-3.24 1.08-.774 2.628-1.161 4.644-1.161 4.158 0 6.318 1.593 6.48 4.779h-3.915c-.018-1.314-.873-1.971-2.565-1.971-1.422 0-2.133.441-2.133 1.323 0 .396.162.702.486.918s.837.378 1.539.486l2.079.297c1.674.252 2.907.729 3.699 1.431s1.188 1.665 1.188 2.889c0 1.44-.585 2.556-1.755 3.348-1.152.774-2.781 1.161-4.887 1.161z"/><path d="m224.642 33.4052c-2.196 0-3.834-.378-4.914-1.134-1.062-.774-1.656-2.007-1.782-3.699h4.104c.072.738.306 1.26.702 1.566.414.306 1.071.459 1.971.459 1.566 0 2.349-.45 2.349-1.35 0-.432-.171-.756-.513-.972-.342-.234-.972-.423-1.89-.567l-1.809-.297c-3.132-.486-4.698-1.908-4.698-4.266 0-1.404.54-2.484 1.62-3.24 1.08-.774 2.628-1.161 4.644-1.161 4.158 0 6.318 1.593 6.48 4.779h-3.915c-.018-1.314-.873-1.971-2.565-1.971-1.422 0-2.133.441-2.133 1.323 0 .396.162.702.486.918s.837.378 1.539.486l2.079.297c1.674.252 2.907.729 3.699 1.431s1.188 1.665 1.188 2.889c0 1.44-.585 2.556-1.755 3.348-1.152.774-2.781 1.161-4.887 1.161z"/></g></svg>