<svg fill="none" height="48" viewBox="0 0 160 48" width="160" xmlns="http://www.w3.org/2000/svg"><path clip-rule="evenodd" d="m20 41.1364c1.8693 0 3.6688-.2994 5.353-.8527-1.7175-.2891-3.5271-.8718-5.3517-1.7289-1.8251.8573-3.6351 1.4402-5.3529 1.7294 1.6838.553 3.4828.8522 5.3516.8522zm-16.28276-11.7805c.28897-1.7183.87187-3.529 1.72942-5.3547-.8578-1.8258-1.44092-3.6366-1.73007-5.3551-.55352 1.6844-.85295 3.4842-.85295 5.3539 0 1.8704.29966 3.6709.8536 5.3559zm3.60425-2.0098c-.16001.4683-.29664.9297-.40971 1.382-.88774 3.5509-.23652 5.9879 1.06875 7.2932 1.30527 1.3052 3.74227 1.9565 7.29317 1.0687.4525-.1131.914-.2498 1.3824-.4098-1.7678-1.1549-3.5052-2.5591-5.1409-4.1948-1.63517-1.6352-3.03901-3.372-4.19371-5.1393zm12.67971 7.8448c-2.1428-1.1725-4.3241-2.7862-6.3647-4.8268-2.0401-2.0401-3.6535-4.2207-4.82586-6.363 1.17244-2.1428 2.78616-4.324 4.82676-6.3646 2.0404-2.0404 4.2213-3.6539 6.3638-4.8263 2.1424 1.1723 4.3231 2.7858 6.3632 4.826 2.0407 2.0407 3.6545 4.222 4.827 6.3649-1.1724 2.1424-2.7859 4.3231-4.8261 6.3633-2.0404 2.0405-4.2215 3.6541-6.3641 4.8265zm12.6793-7.8447c-1.1548 1.7674-2.5586 3.5043-4.1939 5.1395-1.6354 1.6355-3.3726 3.0395-5.1402 4.1944.4682.1599.9295.2965 1.3817.4096 3.5509.8877 5.9879.2365 7.2932-1.0688 1.3052-1.3052 1.9565-3.7422 1.0687-7.2932-.113-.4521-.2496-.9133-.4095-1.3815zm1.8748-3.345c.8572-1.8245 1.44-3.634 1.7293-5.3514.5528 1.6834.8518 3.4819.8518 5.3502 0 1.869-.2993 3.6682-.8524 5.3521-.2891-1.7172-.8718-3.5265-1.7287-5.3509zm-9.2009-16.28444c-1.7179.28914-3.528.87204-5.3531 1.72941-1.8256-.85764-3.6361-1.44069-5.3544-1.72984 1.6842-.55336 3.4837-.85269 5.3531-.85269 1.8699 0 3.6698.29949 5.3544.85312zm8.7037 2.05754c-3.6125-3.57015-8.5779-5.7743-14.0581-5.7743-11.0457 0-20 8.9543-20 20s8.9543 20 20 20c5.488 0 10.4598-2.2104 14.0735-5.7896.0232-.0225.0462-.0453.0691-.0681.023-.023.0458-.0461.0684-.0693 3.5788-3.6137 5.789-8.5853 5.789-14.073 0-5.4788-2.203-10.443-5.7715-14.0552-.028-.02903-.0564-.05785-.085-.08647-.0283-.02828-.0568-.05629-.0854-.08403zm-17.4017 1.5465c-.4688-.1602-.9307-.2971-1.3835-.4103-3.551-.8877-5.98798-.2365-7.29325 1.0688s-1.9565 3.7423-1.06876 7.2932c.11322.4529.25005.9148.41032 1.3838 1.15492-1.7679 2.55915-3.5054 4.19489-5.1411 1.6354-1.6355 3.3727-3.0396 5.1403-4.1944zm16.0244 9.3353c-1.155-1.7679-2.5593-3.5055-4.1951-5.1413-1.6352-1.6352-3.3722-3.0391-5.1396-4.1939.4686-.1601.9303-.2969 1.3829-.41 3.5509-.8877 5.9879-.2365 7.2932 1.0687 1.3052 1.3053 1.9565 3.7423 1.0687 7.2933-.1132.4527-.2499.9145-.4101 1.3832z" fill="#6927da" fill-rule="evenodd"/><g fill="#0a0d12"><path d="m54.725 19.3651c0 3.915 10.8.594 10.8 8.1 0 3.78-3.132 5.967-7.425 5.967-4.347 0-7.452-1.998-8.1-6.183h4.563c.351 1.809 1.62 2.808 3.564 2.808s2.97-.783 2.97-2.052c0-4.104-10.827-.972-10.827-8.235 0-3.078 2.565-5.562 7.074-5.562 3.807 0 7.101 1.809 7.668 6.048h-4.617c-.378-1.809-1.431-2.673-3.213-2.673-1.512 0-2.457.702-2.457 1.782z"/><path d="m71.2465 38.9671h-4.131v-20.493h4.131v1.512c.891-1.269 2.133-1.971 3.645-1.971 3.753 0 6.102 2.943 6.102 7.695 0 4.941-2.403 7.722-6.102 7.722-1.539 0-2.781-.648-3.645-1.89zm2.781-17.604c-1.836 0-2.781 1.539-2.781 4.347s.972 4.374 2.781 4.374c1.782 0 2.727-1.539 2.727-4.374 0-2.808-.972-4.347-2.727-4.347z"/><path d="m82.6331 33.0001v-19.44h4.131v6.831c.945-1.62 2.43-2.376 4.212-2.376 2.781 0 4.86 1.701 4.86 5.292v9.693h-4.131v-8.856c0-1.836-.729-2.781-2.241-2.781-1.647 0-2.7 1.431-2.7 3.294v8.343z"/><path d="m111.787 28.2211c-.756 3.348-3.456 5.211-7.02 5.211-4.509 0-7.29-2.916-7.29-7.695 0-4.941 2.808-7.722 7.128-7.722 4.347 0 7.074 2.889 7.074 7.641v.918h-9.99c.216 2.322 1.296 3.564 3.078 3.564 1.35 0 2.268-.594 2.7-1.917zm-7.182-6.912c-1.539 0-2.511.999-2.835 2.889h5.643c-.324-1.89-1.296-2.889-2.808-2.889z"/><path d="m113.405 33.0001v-14.526h4.131v2.025c.918-1.728 2.322-2.484 3.807-2.484.594 0 1.134.162 1.431.459v3.483c-.486-.108-.999-.162-1.647-.162-2.484 0-3.591 1.404-3.591 3.699v7.506z"/><path d="m132.796 26.8171v-8.343h4.131v14.526h-4.131v-1.944c-.945 1.62-2.376 2.376-4.131 2.376-2.754 0-4.779-1.674-4.779-5.292v-9.666h4.131v8.829c0 1.863.702 2.781 2.16 2.781 1.593 0 2.619-1.404 2.619-3.267z"/><path d="m139.193 33.0001v-19.44h4.131v19.44z"/><path d="m159.25 28.2211c-.756 3.348-3.456 5.211-7.02 5.211-4.509 0-7.29-2.916-7.29-7.695 0-4.941 2.808-7.722 7.128-7.722 4.347 0 7.074 2.889 7.074 7.641v.918h-9.99c.216 2.322 1.296 3.564 3.078 3.564 1.35 0 2.268-.594 2.7-1.917zm-7.182-6.912c-1.539 0-2.511.999-2.835 2.889h5.643c-.324-1.89-1.296-2.889-2.808-2.889z"/></g></svg>