<svg fill="none" height="48" viewBox="0 0 48 48" width="48" xmlns="http://www.w3.org/2000/svg" xmlns:xlink="http://www.w3.org/1999/xlink"><filter id="a" color-interpolation-filters="sRGB" filterUnits="userSpaceOnUse" height="54" width="48" x="0" y="-3"><feFlood flood-opacity="0" result="BackgroundImageFix"/><feBlend in="SourceGraphic" in2="BackgroundImageFix" mode="normal" result="shape"/><feColorMatrix in="SourceAlpha" result="hardAlpha" type="matrix" values="0 0 0 0 0 0 0 0 0 0 0 0 0 0 0 0 0 0 127 0"/><feOffset dy="-3"/><feGaussianBlur stdDeviation="1.5"/><feComposite in2="hardAlpha" k2="-1" k3="1" operator="arithmetic"/><feColorMatrix type="matrix" values="0 0 0 0 0 0 0 0 0 0 0 0 0 0 0 0 0 0 0.1 0"/><feBlend in2="shape" mode="normal" result="effect1_innerShadow_3051_46997"/><feColorMatrix in="SourceAlpha" result="hardAlpha" type="matrix" values="0 0 0 0 0 0 0 0 0 0 0 0 0 0 0 0 0 0 127 0"/><feOffset dy="3"/><feGaussianBlur stdDeviation="1.5"/><feComposite in2="hardAlpha" k2="-1" k3="1" operator="arithmetic"/><feColorMatrix type="matrix" values="0 0 0 0 1 0 0 0 0 1 0 0 0 0 1 0 0 0 0.1 0"/><feBlend in2="effect1_innerShadow_3051_46997" mode="normal" result="effect2_innerShadow_3051_46997"/><feColorMatrix in="SourceAlpha" result="hardAlpha" type="matrix" values="0 0 0 0 0 0 0 0 0 0 0 0 0 0 0 0 0 0 127 0"/><feMorphology in="SourceAlpha" operator="erode" radius="1" result="effect3_innerShadow_3051_46997"/><feOffset/><feComposite in2="hardAlpha" k2="-1" k3="1" operator="arithmetic"/><feColorMatrix type="matrix" values="0 0 0 0 0.0627451 0 0 0 0 0.0941176 0 0 0 0 0.156863 0 0 0 0.24 0"/><feBlend in2="effect2_innerShadow_3051_46997" mode="normal" result="effect3_innerShadow_3051_46997"/></filter><filter id="b" color-interpolation-filters="sRGB" filterUnits="userSpaceOnUse" height="42" width="32.25" x="8" y="5.25"><feFlood flood-opacity="0" result="BackgroundImageFix"/><feColorMatrix in="SourceAlpha" result="hardAlpha" type="matrix" values="0 0 0 0 0 0 0 0 0 0 0 0 0 0 0 0 0 0 127 0"/><feMorphology in="SourceAlpha" operator="erode" radius="1.5" result="effect1_dropShadow_3051_46997"/><feOffset dy="2.25"/><feGaussianBlur stdDeviation="2.25"/><feComposite in2="hardAlpha" operator="out"/><feColorMatrix type="matrix" values="0 0 0 0 0.141176 0 0 0 0 0.141176 0 0 0 0 0.141176 0 0 0 0.1 0"/><feBlend in2="BackgroundImageFix" mode="normal" result="effect1_dropShadow_3051_46997"/><feBlend in="SourceGraphic" in2="effect1_dropShadow_3051_46997" mode="normal" result="shape"/></filter><linearGradient id="c" gradientUnits="userSpaceOnUse" x1="24" x2="26" y1=".000001" y2="48"><stop offset="0" stop-color="#fff" stop-opacity="0"/><stop offset="1" stop-color="#fff" stop-opacity=".12"/></linearGradient><linearGradient id="d" gradientUnits="userSpaceOnUse" x1="24.1854" x2="24.1854" y1="9.75" y2="38.25"><stop offset="0" stop-color="#fff" stop-opacity=".8"/><stop offset="1" stop-color="#fff" stop-opacity=".5"/></linearGradient><linearGradient id="e" gradientUnits="userSpaceOnUse" x1="24" x2="24" y1="0" y2="48"><stop offset="0" stop-color="#fff" stop-opacity=".12"/><stop offset="1" stop-color="#fff" stop-opacity="0"/></linearGradient><clipPath id="f"><rect height="48" rx="12" width="48"/></clipPath><g filter="url(#a)"><g clip-path="url(#f)"><rect fill="#1849a9" height="48" rx="12" width="48"/><path d="m0 0h48v48h-48z" fill="url(#c)"/><g filter="url(#b)"><path clip-rule="evenodd" d="m20.5263 9.75c1.3808 0 2.5629.9898 2.8057 2.349l.3485 1.952c.2428 1.3592 1.4249 2.349 2.8057 2.349h2.3638c3.6727 0 6.65 2.9773 6.65 6.65 0 2.1999-1.0682 4.1504-2.7143 5.3609.69.2345 1.2349.6068 1.6349 1.0957.4118.5394.7059 1.3059.8823 2.271.0295.2555.0662.5039.103.7523.0367.2484.0735.4968.1029.7523.0306.2653.0532.4924.072.6812.0174.1748.0315.3167.0457.4259.0588.7948.147 1.4478.2647 1.9303.124.6786.3745 1.3401.7295 1.9304h-5.0236c-.2353-.4542-.3824-.9936-.5-1.5897-.1012-.5127-.1806-1.1514-.2757-1.9161-.0155-.1244-.0314-.2522-.0479-.3833l-.1764-1.3058c-.1471-.9936-.3236-1.7033-.5-2.1575-.2059-.4258-.5295-.7381-.9706-.9084-.4706-.1703-1.1765-.2892-2.1765-.2892h-.2263c-1.3808 0-2.5629-.9898-2.8057-2.349l-.3485-1.952c-.2428-1.3592-1.4249-2.349-2.8057-2.349h-4.2638v7.6h-4.75v-20.9zm10.2237 13.3c0 1.0493-.8507 1.9-1.9 1.9h-2.3638c-1.3808 0-2.5629-.9898-2.8057-2.349l-.3485-1.952c-.2428-1.3592-1.4249-2.349-2.8057-2.349h-4.0263v-3.8h4.2638c1.3808 0 2.5629.9898 2.8057 2.349l.3485 1.952c.2428 1.3592 1.4249 2.349 2.8057 2.349h2.1263c1.0493 0 1.9.8507 1.9 1.9z" fill="url(#d)" fill-rule="evenodd"/></g></g><rect height="46" rx="11" stroke="url(#e)" stroke-width="2" width="46" x="1" y="1"/></g></svg>