<svg fill="none" height="54" viewBox="0 0 155 54" width="155" xmlns="http://www.w3.org/2000/svg" xmlns:xlink="http://www.w3.org/1999/xlink"><filter id="a" color-interpolation-filters="sRGB" filterUnits="userSpaceOnUse" height="57" width="54" x="0" y="-3"><feFlood flood-opacity="0" result="BackgroundImageFix"/><feColorMatrix in="SourceAlpha" result="hardAlpha" type="matrix" values="0 0 0 0 0 0 0 0 0 0 0 0 0 0 0 0 0 0 127 0"/><feOffset dy="1"/><feGaussianBlur stdDeviation=".5"/><feComposite in2="hardAlpha" operator="out"/><feColorMatrix type="matrix" values="0 0 0 0 0.162923 0 0 0 0 0.162923 0 0 0 0 0.162923 0 0 0 0.08 0"/><feBlend in2="BackgroundImageFix" mode="normal" result="effect1_dropShadow_3046_38755"/><feColorMatrix in="SourceAlpha" result="hardAlpha" type="matrix" values="0 0 0 0 0 0 0 0 0 0 0 0 0 0 0 0 0 0 127 0"/><feMorphology in="SourceAlpha" operator="erode" radius="1" result="effect2_dropShadow_3046_38755"/><feOffset dy="3"/><feGaussianBlur stdDeviation="2"/><feComposite in2="hardAlpha" operator="out"/><feColorMatrix type="matrix" values="0 0 0 0 0.164706 0 0 0 0 0.164706 0 0 0 0 0.164706 0 0 0 0.14 0"/><feBlend in2="effect1_dropShadow_3046_38755" mode="normal" result="effect2_dropShadow_3046_38755"/><feBlend in="SourceGraphic" in2="effect2_dropShadow_3046_38755" mode="normal" result="shape"/><feColorMatrix in="SourceAlpha" result="hardAlpha" type="matrix" values="0 0 0 0 0 0 0 0 0 0 0 0 0 0 0 0 0 0 127 0"/><feOffset dy="-3"/><feGaussianBlur stdDeviation="1.5"/><feComposite in2="hardAlpha" k2="-1" k3="1" operator="arithmetic"/><feColorMatrix type="matrix" values="0 0 0 0 0 0 0 0 0 0 0 0 0 0 0 0 0 0 0.1 0"/><feBlend in2="shape" mode="normal" result="effect3_innerShadow_3046_38755"/><feColorMatrix in="SourceAlpha" result="hardAlpha" type="matrix" values="0 0 0 0 0 0 0 0 0 0 0 0 0 0 0 0 0 0 127 0"/><feOffset dy="3"/><feGaussianBlur stdDeviation="1.5"/><feComposite in2="hardAlpha" k2="-1" k3="1" operator="arithmetic"/><feColorMatrix type="matrix" values="0 0 0 0 1 0 0 0 0 1 0 0 0 0 1 0 0 0 0.1 0"/><feBlend in2="effect3_innerShadow_3046_38755" mode="normal" result="effect4_innerShadow_3046_38755"/><feColorMatrix in="SourceAlpha" result="hardAlpha" type="matrix" values="0 0 0 0 0 0 0 0 0 0 0 0 0 0 0 0 0 0 127 0"/><feMorphology in="SourceAlpha" operator="erode" radius="1" result="effect5_innerShadow_3046_38755"/><feOffset/><feComposite in2="hardAlpha" k2="-1" k3="1" operator="arithmetic"/><feColorMatrix type="matrix" values="0 0 0 0 0.0627451 0 0 0 0 0.0941176 0 0 0 0 0.156863 0 0 0 0.24 0"/><feBlend in2="effect4_innerShadow_3046_38755" mode="normal" result="effect5_innerShadow_3046_38755"/></filter><filter id="b" color-interpolation-filters="sRGB" filterUnits="userSpaceOnUse" height="42" width="36" x="9" y="5.25"><feFlood flood-opacity="0" result="BackgroundImageFix"/><feColorMatrix in="SourceAlpha" result="hardAlpha" type="matrix" values="0 0 0 0 0 0 0 0 0 0 0 0 0 0 0 0 0 0 127 0"/><feMorphology in="SourceAlpha" operator="erode" radius="1.5" result="effect1_dropShadow_3046_38755"/><feOffset dy="2.25"/><feGaussianBlur stdDeviation="2.25"/><feComposite in2="hardAlpha" operator="out"/><feColorMatrix type="matrix" values="0 0 0 0 0.141176 0 0 0 0 0.141176 0 0 0 0 0.141176 0 0 0 0.1 0"/><feBlend in2="BackgroundImageFix" mode="normal" result="effect1_dropShadow_3046_38755"/><feBlend in="SourceGraphic" in2="effect1_dropShadow_3046_38755" mode="normal" result="shape"/></filter><linearGradient id="c" gradientUnits="userSpaceOnUse" x1="24" x2="26" y1=".000001" y2="48"><stop offset="0" stop-color="#fff" stop-opacity="0"/><stop offset="1" stop-color="#fff" stop-opacity=".12"/></linearGradient><linearGradient id="d" gradientUnits="userSpaceOnUse" x1="27.0011" x2="27.0011" y1="9" y2="39"><stop offset="0" stop-color="#fff" stop-opacity=".8"/><stop offset="1" stop-color="#fff" stop-opacity=".5"/></linearGradient><linearGradient id="e" gradientUnits="userSpaceOnUse" x1="27" x2="27" y1="0" y2="48"><stop offset="0" stop-color="#fff" stop-opacity=".12"/><stop offset="1" stop-color="#fff" stop-opacity="0"/></linearGradient><clipPath id="f"><rect height="48" rx="12" width="48" x="3"/></clipPath><g filter="url(#a)"><g clip-path="url(#f)"><rect fill="#5925dc" height="48" rx="12" width="48" x="3"/><path d="m0 0h48v48h-48z" fill="url(#c)" transform="translate(3)"/><g fill="url(#d)" filter="url(#b)"><path d="m33.4839 35.376c-.4523 1.0053-1.0147 1.9898-1.6889 2.8416 5.5936-1.8853 9.7113-6.979 10.1646-13.0926h-1.9912c-2.4299 0-4.3818 1.9396-4.7768 4.3372-.3641 2.2101-.9466 4.2226-1.7077 5.9138z"/><path d="m29.0798 25.125c2.5441 0 4.6252 2.1224 4.1579 4.6232-1.0149 5.4318-3.425 9.2518-6.2366 9.2518-3.5576 0-6.4724-6.1162-6.7313-13.875z"/><path d="m35.2433 18.8626c.3721 2.42 2.333 4.3874 4.7814 4.3874h1.958c-.3092-6.2796-4.4801-11.5439-10.1877-13.46762.6742.85182 1.2366 1.83632 1.6889 2.84162.7982 1.7737 1.4 3.9008 1.7594 6.2386z"/><path d="m33.3129 18.6718c.4255 2.4882-1.6466 4.5782-4.1709 4.5782h-8.8826c.1758-7.9358 3.127-14.25 6.7417-14.25 2.8835 0 5.3447 4.0179 6.3118 9.6718z"/><path d="m18.384 23.25c.0852-4.0562.859-7.7921 2.1343-10.626.4524-1.0053 1.0147-1.9898 1.6889-2.84162-5.7075 1.92372-9.8784 7.18792-10.1877 13.46762z"/><path d="m12.0427 25.125c.4533 6.1136 4.5709 11.2073 10.1645 13.0926-.6742-.8518-1.2365-1.8363-1.6889-2.8416-1.2359-2.7464-2.0008-6.3398-2.1245-10.251z"/></g></g><rect height="46" rx="11" stroke="url(#e)" stroke-width="2" width="46" x="4" y="1"/></g><g fill="#0a0d12"><path d="m63 32.9999v-19.683h14.985v3.753h-10.557v4.185h9.18v3.51h-9.18v4.482h10.557v3.753z"/><path d="m85.3946 33.2699c-1.602 0-2.799-.522-3.591-1.566-.792-1.062-1.188-2.457-1.188-4.185v-9.018h4.131v8.424c0 1.152.225 1.944.675 2.376.468.414 1.089.621 1.863.621.918 0 1.611-.306 2.079-.918s.702-1.413.702-2.403v-8.1h4.131v14.499h-3.861l-.297-2.376h-.216c-.324.792-.882 1.431-1.674 1.917-.774.486-1.692.729-2.754.729z"/><path d="m97.2965 32.9999v-14.499h3.8615l.297 2.403h.243c.324-.9.756-1.557 1.296-1.971.54-.432 1.314-.648 2.322-.648h1.296v4.212h-1.863c-1.188 0-2.034.306-2.538.918-.504.594-.756 1.395-.756 2.403v7.182z"/><path d="m114.564 33.2699c-2.358 0-4.113-.675-5.265-2.025s-1.728-3.15-1.728-5.4v-.081c0-2.556.639-4.446 1.917-5.67 1.278-1.242 2.97-1.863 5.076-1.863 2.124 0 3.825.621 5.103 1.863 1.296 1.224 1.944 3.114 1.944 5.67v.081c-.018 2.25-.603 4.05-1.755 5.4s-2.916 2.025-5.292 2.025zm0-3.348c.918 0 1.611-.252 2.079-.756.486-.504.729-1.197.729-2.079v-2.592c0-.9-.252-1.602-.756-2.106-.486-.522-1.17-.783-2.052-.783-.864 0-1.548.261-2.052.783-.486.504-.729 1.206-.729 2.106v2.592c0 .882.234 1.575.702 2.079.486.504 1.179.756 2.079.756z"/><path d="m123.876 37.5089v-19.008h3.942l.216 2.133h.189c.36-.756.918-1.341 1.674-1.755.774-.432 1.638-.648 2.592-.648 1.944 0 3.357.657 4.239 1.971s1.323 3.069 1.323 5.265v.621c0 2.502-.504 4.329-1.512 5.481-.99 1.134-2.34 1.701-4.05 1.701-.936 0-1.791-.207-2.565-.621-.774-.432-1.341-1.026-1.701-1.782h-.189v6.642zm6.939-7.614c.9 0 1.593-.252 2.079-.756s.729-1.215.729-2.133v-2.484c0-.918-.243-1.629-.729-2.133-.486-.522-1.179-.783-2.079-.783-.846 0-1.521.261-2.025.783-.486.522-.729 1.251-.729 2.187v2.376c0 .936.243 1.665.729 2.187.504.504 1.179.756 2.025.756z"/><path d="m143.853 33.2699c-1.332 0-2.412-.351-3.24-1.053-.828-.72-1.242-1.674-1.242-2.862v-.054c0-1.386.441-2.457 1.323-3.213s2.07-1.224 3.564-1.404l4.05-.54v-.567c0-1.368-.828-2.052-2.484-2.052-.792 0-1.422.153-1.89.459-.45.306-.675.747-.675 1.323h-3.753c0-1.602.585-2.844 1.755-3.726 1.17-.9 2.817-1.35 4.941-1.35 1.944 0 3.465.414 4.563 1.242 1.116.828 1.674 2.142 1.674 3.942v6.669h1.89v2.916h-4.968l-.324-2.241h-.297c-.36.792-.963 1.413-1.809 1.863-.828.432-1.854.648-3.078.648zm1.782-2.97c.72 0 1.323-.171 1.809-.513.504-.36.792-.819.864-1.377v-1.944l-2.727.405c-.612.072-1.107.234-1.485.486-.378.234-.567.594-.567 1.08v.351c0 .45.18.819.54 1.107.378.27.9.405 1.566.405z"/></g></svg>