<svg fill="none" height="48" viewBox="0 0 163 48" width="163" xmlns="http://www.w3.org/2000/svg" xmlns:xlink="http://www.w3.org/1999/xlink"><filter id="a" color-interpolation-filters="sRGB" filterUnits="userSpaceOnUse" height="54" width="48" x="0" y="-3"><feFlood flood-opacity="0" result="BackgroundImageFix"/><feBlend in="SourceGraphic" in2="BackgroundImageFix" mode="normal" result="shape"/><feColorMatrix in="SourceAlpha" result="hardAlpha" type="matrix" values="0 0 0 0 0 0 0 0 0 0 0 0 0 0 0 0 0 0 127 0"/><feOffset dy="-3"/><feGaussianBlur stdDeviation="1.5"/><feComposite in2="hardAlpha" k2="-1" k3="1" operator="arithmetic"/><feColorMatrix type="matrix" values="0 0 0 0 0 0 0 0 0 0 0 0 0 0 0 0 0 0 0.1 0"/><feBlend in2="shape" mode="normal" result="effect1_innerShadow_3046_38729"/><feColorMatrix in="SourceAlpha" result="hardAlpha" type="matrix" values="0 0 0 0 0 0 0 0 0 0 0 0 0 0 0 0 0 0 127 0"/><feOffset dy="3"/><feGaussianBlur stdDeviation="1.5"/><feComposite in2="hardAlpha" k2="-1" k3="1" operator="arithmetic"/><feColorMatrix type="matrix" values="0 0 0 0 1 0 0 0 0 1 0 0 0 0 1 0 0 0 0.1 0"/><feBlend in2="effect1_innerShadow_3046_38729" mode="normal" result="effect2_innerShadow_3046_38729"/><feColorMatrix in="SourceAlpha" result="hardAlpha" type="matrix" values="0 0 0 0 0 0 0 0 0 0 0 0 0 0 0 0 0 0 127 0"/><feMorphology in="SourceAlpha" operator="erode" radius="1" result="effect3_innerShadow_3046_38729"/><feOffset/><feComposite in2="hardAlpha" k2="-1" k3="1" operator="arithmetic"/><feColorMatrix type="matrix" values="0 0 0 0 0.0627451 0 0 0 0 0.0941176 0 0 0 0 0.156863 0 0 0 0.24 0"/><feBlend in2="effect2_innerShadow_3046_38729" mode="normal" result="effect3_innerShadow_3046_38729"/></filter><filter id="b" color-interpolation-filters="sRGB" filterUnits="userSpaceOnUse" height="42" width="36" x="6" y="5.25"><feFlood flood-opacity="0" result="BackgroundImageFix"/><feColorMatrix in="SourceAlpha" result="hardAlpha" type="matrix" values="0 0 0 0 0 0 0 0 0 0 0 0 0 0 0 0 0 0 127 0"/><feMorphology in="SourceAlpha" operator="erode" radius="1.5" result="effect1_dropShadow_3046_38729"/><feOffset dy="2.25"/><feGaussianBlur stdDeviation="2.25"/><feComposite in2="hardAlpha" operator="out"/><feColorMatrix type="matrix" values="0 0 0 0 0.141176 0 0 0 0 0.141176 0 0 0 0 0.141176 0 0 0 0.1 0"/><feBlend in2="BackgroundImageFix" mode="normal" result="effect1_dropShadow_3046_38729"/><feBlend in="SourceGraphic" in2="effect1_dropShadow_3046_38729" mode="normal" result="shape"/></filter><linearGradient id="c" gradientUnits="userSpaceOnUse" x1="24" x2="26" y1=".000001" y2="48"><stop offset="0" stop-color="#fff" stop-opacity="0"/><stop offset="1" stop-color="#fff" stop-opacity=".12"/></linearGradient><linearGradient id="d" gradientUnits="userSpaceOnUse" x1="24" x2="24" y1="9.47144" y2="38.5845"><stop offset="0" stop-color="#fff" stop-opacity=".8"/><stop offset="1" stop-color="#fff" stop-opacity=".5"/></linearGradient><linearGradient id="e" gradientUnits="userSpaceOnUse" x1="24" x2="24" y1="0" y2="48"><stop offset="0" stop-color="#fff" stop-opacity=".12"/><stop offset="1" stop-color="#fff" stop-opacity="0"/></linearGradient><clipPath id="f"><rect height="48" rx="12" width="48"/></clipPath><g filter="url(#a)"><g clip-path="url(#f)"><rect fill="#155eef" height="48" rx="12" width="48"/><path d="m0 0h48v48h-48z" fill="url(#c)"/><g fill="url(#d)" filter="url(#b)"><path d="m26.5903 32.0391c-2.3863-.8864-4.8408-1.0227-7.0907-.4091-1.5682.4091-3.0682 1.2273-4.4318 2.25l-.9545.8181-.2727.2728.6136.5454c.0682 0 .0682.0682.1363.1364.1364.1363.2728.2045.4773.3409l.4091.2727.4091-.3409c.0682-.0682.2045-.2045.3409-.2727 1.2272-1.0227 2.5908-1.7045 4.0226-2.0454 1.8409-.4773 3.8181-.4091 5.7954.3409 1.6363.6136 4.9772 1.3636 8.9998-.3409l.1364-.0682.2045-.2046c0-.0681.0682-.0682.1364-.1363.3409-.4091.6818-.8182.9545-1.2955l1.3637-2.1136-2.1818 1.2273c-3.2045 1.7727-6.1363 2.1136-9.0681 1.0227z"/><path d="m17.2499 24.6758c1.8408-.4773 3.8181-.4091 5.7953.3409 2.1818.8182 7.7726 1.9772 14.0452-3.6818l1.3636-1.3636-.1363-.3409c-.0682-.2727-.2046-.6136-.3409-.9545l-.3409-.9545-.6818.6818c-.0682.1363-.2046.2045-.3409.3409-3 3.0681-7.6363 6.2044-12.9544 4.2954-2.3863-.8864-4.8408-1.0227-7.0907-.4091-2.1818.6136-4.0909 1.7727-5.8636 3.409v-.0682l-1.02269 1.0909c0 .0682-.06817.0682-.13635.1364l-.20456.2045.06819.2727c.06818.3409.20454.6818.27272 1.0227l.40909 1.0909.6818-.8863c.0682-.1364.2045-.2045.2727-.3409 1.4318-1.2954 3.4091-3.1363 6.2045-3.8863z"/><path d="m10.6364 23.4484c1.5681-1.6364 3.3408-2.6591 5.2498-3.2045 1.8409-.4773 3.8182-.4091 5.7954.3409 6.1363 2.2499 11.4544-1.4318 13.7725-3.409l.8863-.8864.3409-.2727-.2727-.4091c-.2045-.2045-.3409-.4773-.5454-.75l-.4091-.5454-.4773.4772c-.0682.0682-.2045.2046-.2727.2728-2.8636 2.7272-7.2953 5.5226-12.3407 3.6135-2.3863-.8863-4.8408-1.0227-7.0908-.409-1.4318.409-2.7954 1.0908-4.159 1.9772l-1.43179 1.1591c-.13636.1363-.20455.2045-.34091.3409l-.13635.1363v.2046c-.06818.4772-.06818.9545-.13637 1.3636l-.06818 1.7045 1.1591-1.2273c.1363-.1363.2727-.3409.4773-.4772z"/><path d="m28.5681 36.6754c-.2045-.0681-.3409-.1363-.5454-.2045-2.3864-.8864-4.8409-1.0227-7.0908-.4091-.4773.1364-.9546.2727-1.4318.4773l-1.6364.75-.409.2045 1.3636.4773c.4091.1363.8181.2727 1.2272.4091l.2046.0682.2045-.0682c.2046-.0682.4091-.2046.6136-.2046.1364 0 .2728-.0682.4091-.1363 1.6364-.4091 3.409-.4091 5.3181.2045.2045.0682.3409.1364.5455.2046l.3409.1363.2045-.0682c.4773-.1363 1.0227-.2727 1.4318-.4772l1.909-.6818-1.9772-.4773c-.2045-.0682-.4773-.1364-.6818-.2046z"/><path d="m39 22.5621-1.0227 1.0227c-.1364.1364-.2727.2727-.4091.4091-2.7954 2.659-7.2953 5.5226-12.3407 3.6135-2.3863-.8863-4.8408-1.0226-7.0908-.409-2.1136.6136-4.0226 1.7045-5.7271 3.3408l-.8864.9546-.2727.3409.2727.409c.2046.2728.3409.4773.4773.75l.4091.6137.4772-.6137c.0682-.0681.2046-.2045.2727-.2727 1.6364-1.7727 3.4091-2.8636 5.4545-3.409 1.8409-.4773 3.8181-.4091 5.7953.3409 1.7046.6136 3.4773.8182 5.25.6136 3.1363-.3409 6.2726-2.1136 8.5907-4.0908.1364-.1364.2727-.2046.4091-.3409l.2045-.2046v-.2045c0-.4091.0682-.8864.0682-1.2954z"/><path d="m13.0903 16.2896c.4091-.2045.8864-.3409 1.2954-.4773 1.8409-.4772 3.8182-.4091 5.7954.3409 1.2954.4773 2.5909.6818 4.0227.6818 2.8635 0 5.7271-1.0227 8.3862-2.9999l1.3636-1.0909-.6136-.4773c-.2046-.2045-.4773-.409-.75-.5454l-.4091-.2727-.3409.2727c-.1364.0682-.2046.2045-.3409.2727-3.6136 2.7272-7.2272 3.4772-10.6362 2.1818-2.4545-.8863-4.909-1.0909-7.3635-.3409-.2046.0682-.4091.1363-.6818.2045l-.1364.0682-.2045.2045c0 .0682-.0682.0682-.1364.1364-.2727.4091-.6136.75-.8863 1.1591l-1.2955 1.9772 2.1136-1.0909c.3409 0 .6137-.1363.8182-.2045z"/><path d="m18.6817 11.6532.2045.0682c.8863.3409 2.25.6818 3.9545.6818 1.7727 0 3.4772-.4091 5.1817-1.0909l2.1136-1.0227-1.4318-.47726c-.4091-.13636-.8182-.27272-1.2954-.3409h-.2046l-.2045.06816c-.2045.06818-.4091.20456-.6136.27274-2.0455.74996-4.0909.88636-6.0681.34086-.2046-.0681-.4091-.1363-.6136-.20451l-.2046-.06819-.2045.06819c-.4091.13631-.8182.27271-1.2273.47731l-1.5681.6818 1.6363.4772c.1364-.0682.3409 0 .5455.0682z"/></g></g><rect height="46" rx="11" stroke="url(#e)" stroke-width="2" width="46" x="1" y="1"/></g><g fill="#fff"><path d="m142.748 13.965c-.414-.414-.936-.621-1.566-.621s-1.161.207-1.593.621c-.414.396-.621.9-.621 1.512s.207 1.125.621 1.539c.432.414.963.621 1.593.621s1.152-.207 1.566-.621.621-.927.621-1.539-.207-1.116-.621-1.512z"/><path d="m112.188 29.112c-.684-.576-1.062-1.332-1.134-2.268l-3.969-.054c.018 1.206.36 2.295 1.026 3.267s1.584 1.737 2.754 2.295c1.188.54 2.538.81 4.05.81 1.404 0 2.664-.261 3.78-.783 1.134-.522 2.016-1.233 2.646-2.133.63-.918.945-1.953.945-3.105 0-1.188-.27-2.133-.81-2.835-.522-.72-1.215-1.251-2.079-1.593-.864-.36-1.926-.657-3.186-.891-1.242-.234-2.16-.432-2.754-.594-.594-.18-1.053-.405-1.377-.675-.324-.288-.486-.684-.486-1.188 0-.702.27-1.242.81-1.62s1.26-.567 2.16-.567c.972 0 1.755.252 2.349.756.594.486.936 1.134 1.026 1.944h3.969c-.018-1.134-.351-2.151-.999-3.051-.63-.9-1.503-1.602-2.619-2.106-1.098-.522-2.34-.783-3.726-.783-1.35 0-2.565.252-3.645.756-1.062.486-1.899 1.161-2.511 2.025-.594.864-.891 1.845-.891 2.943 0 1.206.261 2.178.783 2.916.54.72 1.233 1.269 2.079 1.647.846.36 1.89.657 3.132.891 1.26.252 2.187.468 2.781.648.612.162 1.08.396 1.404.702.342.288.513.684.513 1.188 0 .72-.306 1.287-.918 1.701-.594.396-1.368.594-2.322.594-1.152 0-2.079-.279-2.781-.837z"/><path clip-rule="evenodd" d="m66.912 14.1-6.912 18.9h4.185l1.458-4.131h7.182l1.458 4.131h4.347l-6.858-18.9zm-.189 11.502 2.484-7.182 2.511 7.182z" fill-rule="evenodd"/><path d="m131.79 18.96c1.638 0 2.979.504 4.023 1.512 1.062 1.008 1.593 2.673 1.593 4.995v7.533h-3.807v-7.371c0-1.152-.234-2.025-.702-2.619-.468-.612-1.17-.918-2.106-.918-.972 0-1.737.333-2.295.999-.54.666-.81 1.593-.81 2.781v7.128h-3.807v-18.9h3.807v6.723c1.026-1.242 2.394-1.863 4.104-1.863z"/><path d="m149.883 18.474c0-.396.09-.684.27-.864s.468-.27.864-.27h2.349v-3.24h-3.105c-1.386 0-2.43.333-3.132.999-.702.648-1.053 1.584-1.053 2.808v1.215h-2.295v3.213h2.295v10.665h3.807v-10.665h6.015v10.665h3.807v-10.665h2.997v-3.213h-2.997v-5.022h-3.807v5.022h-6.015z"/><path d="m143.072 19.122h-3.807v13.878h3.807z"/><path d="m83.3345 14.1h-3.807v18.9h3.807z"/><path d="m86.3385 19.122h-2.295v3.213h2.295v10.665h3.807v-10.665h2.997v-3.213h-2.997v-5.022h-3.807z"/><path d="m98.0768 31.272h3.4562v-4.212h4.21v-3.456h-4.21v-4.212h-.002-3.4557v4.212h-4.212v3.456h4.212v4.212z"/></g></svg>