<svg fill="none" height="48" viewBox="0 0 48 48" width="48" xmlns="http://www.w3.org/2000/svg" xmlns:xlink="http://www.w3.org/1999/xlink"><filter id="a" color-interpolation-filters="sRGB" filterUnits="userSpaceOnUse" height="54" width="48" x="0" y="-3"><feFlood flood-opacity="0" result="BackgroundImageFix"/><feBlend in="SourceGraphic" in2="BackgroundImageFix" mode="normal" result="shape"/><feColorMatrix in="SourceAlpha" result="hardAlpha" type="matrix" values="0 0 0 0 0 0 0 0 0 0 0 0 0 0 0 0 0 0 127 0"/><feOffset dy="-3"/><feGaussianBlur stdDeviation="1.5"/><feComposite in2="hardAlpha" k2="-1" k3="1" operator="arithmetic"/><feColorMatrix type="matrix" values="0 0 0 0 0 0 0 0 0 0 0 0 0 0 0 0 0 0 0.1 0"/><feBlend in2="shape" mode="normal" result="effect1_innerShadow_3051_46947"/><feColorMatrix in="SourceAlpha" result="hardAlpha" type="matrix" values="0 0 0 0 0 0 0 0 0 0 0 0 0 0 0 0 0 0 127 0"/><feOffset dy="3"/><feGaussianBlur stdDeviation="1.5"/><feComposite in2="hardAlpha" k2="-1" k3="1" operator="arithmetic"/><feColorMatrix type="matrix" values="0 0 0 0 1 0 0 0 0 1 0 0 0 0 1 0 0 0 0.1 0"/><feBlend in2="effect1_innerShadow_3051_46947" mode="normal" result="effect2_innerShadow_3051_46947"/><feColorMatrix in="SourceAlpha" result="hardAlpha" type="matrix" values="0 0 0 0 0 0 0 0 0 0 0 0 0 0 0 0 0 0 127 0"/><feMorphology in="SourceAlpha" operator="erode" radius="1" result="effect3_innerShadow_3051_46947"/><feOffset/><feComposite in2="hardAlpha" k2="-1" k3="1" operator="arithmetic"/><feColorMatrix type="matrix" values="0 0 0 0 0.0627451 0 0 0 0 0.0941176 0 0 0 0 0.156863 0 0 0 0.24 0"/><feBlend in2="effect2_innerShadow_3051_46947" mode="normal" result="effect3_innerShadow_3051_46947"/></filter><filter id="b" color-interpolation-filters="sRGB" filterUnits="userSpaceOnUse" height="42" width="34.5" x="6.75" y="5.25"><feFlood flood-opacity="0" result="BackgroundImageFix"/><feColorMatrix in="SourceAlpha" result="hardAlpha" type="matrix" values="0 0 0 0 0 0 0 0 0 0 0 0 0 0 0 0 0 0 127 0"/><feMorphology in="SourceAlpha" operator="erode" radius="1.5" result="effect1_dropShadow_3051_46947"/><feOffset dy="2.25"/><feGaussianBlur stdDeviation="2.25"/><feComposite in2="hardAlpha" operator="out"/><feColorMatrix type="matrix" values="0 0 0 0 0.141176 0 0 0 0 0.141176 0 0 0 0 0.141176 0 0 0 0.1 0"/><feBlend in2="BackgroundImageFix" mode="normal" result="effect1_dropShadow_3051_46947"/><feBlend in="SourceGraphic" in2="effect1_dropShadow_3051_46947" mode="normal" result="shape"/></filter><linearGradient id="c" gradientUnits="userSpaceOnUse" x1="24" x2="26" y1=".000001" y2="48"><stop offset="0" stop-color="#fff" stop-opacity="0"/><stop offset="1" stop-color="#fff" stop-opacity=".12"/></linearGradient><linearGradient id="d" gradientUnits="userSpaceOnUse" x1="23.9993" x2="23.9993" y1="9" y2="39"><stop offset="0" stop-color="#fff" stop-opacity=".8"/><stop offset="1" stop-color="#fff" stop-opacity=".5"/></linearGradient><linearGradient id="e" gradientUnits="userSpaceOnUse" x1="24" x2="24" y1="0" y2="48"><stop offset="0" stop-color="#fff" stop-opacity=".12"/><stop offset="1" stop-color="#fff" stop-opacity="0"/></linearGradient><clipPath id="f"><rect height="48" rx="12" width="48"/></clipPath><g filter="url(#a)"><g clip-path="url(#f)"><rect fill="#22262f" height="48" rx="12" width="48"/><path d="m0 0h48v48h-48z" fill="url(#c)"/><g filter="url(#b)"><path clip-rule="evenodd" d="m24.556 9.05665c-.3672-.07553-.7461-.07553-1.1134 0-.4245.08732-.804.29987-1.1057.46885l-.0822.04593-10.2247 5.68037c-.0283.0157-.0574.0318-.0873.0482-.3193.1759-.7209.3971-1.0293.7317-.2666.2893-.4683.6322-.5917 1.0058-.1428.432-.1411.8905-.1398 1.2551.0001.034.0003.0673.0003.0996v11.2156c0 .0323-.0002.0656-.0003.0996-.0013.3646-.003.8231.1398 1.2551.1234.3736.3251.7165.5917 1.0058.3084.3346.71.5558 1.0293.7317.0299.0164.059.0325.0873.0482l10.2247 5.6804.0822.0459c.3017.169.6812.3815 1.1057.4688.3673.0756.7462.0756 1.1134 0 .4246-.0873.8041-.2998 1.1058-.4688l.0822-.0459 10.2247-5.6804c.0125-.007.0252-.014.038-.0211.0162-.0089.0326-.0179.0493-.0271.3193-.1759.7209-.3971 1.0292-.7317.2666-.2893.4684-.6322.5918-1.0058.1428-.432.1411-.8905.1398-1.2551-.0001-.034-.0003-.0673-.0003-.0996v-11.2156c0-.0323.0002-.0656.0003-.0996.0013-.3646.003-.8231-.1398-1.2551-.1234-.3736-.3252-.7165-.5918-1.0058-.3083-.3346-.7099-.5558-1.0292-.7317l-.0012-.0006c-.0294-.0162-.0582-.0321-.0861-.0476l-10.2247-5.68037-.0822-.04594c-.3017-.16897-.6812-.38152-1.1058-.46884zm-.9593 2.93045c.2094-.1163.3163-.1751.396-.2135l.0066-.0032.0066.0032c.0798.0384.1867.0972.3961.2135l9.1876 5.1043-9.5903 5.3279-9.5903-5.3279zm-10.6511 7.4525 9.672 5.3734v10.6559l-9.2456-5.1364c-.221-.1228-.3338-.1861-.413-.2366l-.0067-.0043-.0005-.0079c-.0056-.0937-.0062-.2231-.0062-.4759z" fill="url(#d)" fill-rule="evenodd"/></g></g><rect height="46" rx="11" stroke="url(#e)" stroke-width="2" width="46" x="1" y="1"/></g></svg>