<svg fill="none" height="48" viewBox="0 0 175 48" width="175" xmlns="http://www.w3.org/2000/svg" xmlns:xlink="http://www.w3.org/1999/xlink"><filter id="a" color-interpolation-filters="sRGB" filterUnits="userSpaceOnUse" height="54" width="48" x="0" y="-3"><feFlood flood-opacity="0" result="BackgroundImageFix"/><feBlend in="SourceGraphic" in2="BackgroundImageFix" mode="normal" result="shape"/><feColorMatrix in="SourceAlpha" result="hardAlpha" type="matrix" values="0 0 0 0 0 0 0 0 0 0 0 0 0 0 0 0 0 0 127 0"/><feOffset dy="-3"/><feGaussianBlur stdDeviation="1.5"/><feComposite in2="hardAlpha" k2="-1" k3="1" operator="arithmetic"/><feColorMatrix type="matrix" values="0 0 0 0 0 0 0 0 0 0 0 0 0 0 0 0 0 0 0.1 0"/><feBlend in2="shape" mode="normal" result="effect1_innerShadow_3046_38804"/><feColorMatrix in="SourceAlpha" result="hardAlpha" type="matrix" values="0 0 0 0 0 0 0 0 0 0 0 0 0 0 0 0 0 0 127 0"/><feOffset dy="3"/><feGaussianBlur stdDeviation="1.5"/><feComposite in2="hardAlpha" k2="-1" k3="1" operator="arithmetic"/><feColorMatrix type="matrix" values="0 0 0 0 1 0 0 0 0 1 0 0 0 0 1 0 0 0 0.1 0"/><feBlend in2="effect1_innerShadow_3046_38804" mode="normal" result="effect2_innerShadow_3046_38804"/><feColorMatrix in="SourceAlpha" result="hardAlpha" type="matrix" values="0 0 0 0 0 0 0 0 0 0 0 0 0 0 0 0 0 0 127 0"/><feMorphology in="SourceAlpha" operator="erode" radius="1" result="effect3_innerShadow_3046_38804"/><feOffset/><feComposite in2="hardAlpha" k2="-1" k3="1" operator="arithmetic"/><feColorMatrix type="matrix" values="0 0 0 0 0.0627451 0 0 0 0 0.0941176 0 0 0 0 0.156863 0 0 0 0.24 0"/><feBlend in2="effect2_innerShadow_3046_38804" mode="normal" result="effect3_innerShadow_3046_38804"/></filter><filter id="b" color-interpolation-filters="sRGB" filterUnits="userSpaceOnUse" height="42" width="30" x="9" y="5.25"><feFlood flood-opacity="0" result="BackgroundImageFix"/><feColorMatrix in="SourceAlpha" result="hardAlpha" type="matrix" values="0 0 0 0 0 0 0 0 0 0 0 0 0 0 0 0 0 0 127 0"/><feMorphology in="SourceAlpha" operator="erode" radius="1.5" result="effect1_dropShadow_3046_38804"/><feOffset dy="2.25"/><feGaussianBlur stdDeviation="2.25"/><feComposite in2="hardAlpha" operator="out"/><feColorMatrix type="matrix" values="0 0 0 0 0.141176 0 0 0 0 0.141176 0 0 0 0 0.141176 0 0 0 0.1 0"/><feBlend in2="BackgroundImageFix" mode="normal" result="effect1_dropShadow_3046_38804"/><feBlend in="SourceGraphic" in2="effect1_dropShadow_3046_38804" mode="normal" result="shape"/></filter><linearGradient id="c" gradientUnits="userSpaceOnUse" x1="24" x2="26" y1=".000001" y2="48"><stop offset="0" stop-color="#fff" stop-opacity="0"/><stop offset="1" stop-color="#fff" stop-opacity=".12"/></linearGradient><linearGradient id="d"><stop offset="0" stop-color="#fff" stop-opacity=".8"/><stop offset="1" stop-color="#fff" stop-opacity=".5"/></linearGradient><linearGradient id="e" gradientUnits="userSpaceOnUse" x1="16.0492" x2="16.0492" xlink:href="#d" y1="20.4004" y2="27.6004"/><linearGradient id="f" gradientUnits="userSpaceOnUse" x1="39.1508" x2="39.1508" xlink:href="#d" y1="27.5996" y2="34.7996"/><linearGradient id="g" gradientUnits="userSpaceOnUse" x1="23.9984" x2="23.9984" xlink:href="#d" y1="13.2002" y2="27.6002"/><linearGradient id="h" gradientUnits="userSpaceOnUse" x1="23.9996" x2="23.9996" xlink:href="#d" y1="34.7998" y2="20.3998"/><linearGradient id="i" gradientUnits="userSpaceOnUse" x1="20.3992" x2="20.3992" xlink:href="#d" y1="6" y2="20.4"/><linearGradient id="j" gradientUnits="userSpaceOnUse" x1="27.6008" x2="27.6008" xlink:href="#d" y1="42" y2="27.6"/><linearGradient id="k" gradientUnits="userSpaceOnUse" x1="24" x2="24" y1="0" y2="48"><stop offset="0" stop-color="#fff" stop-opacity=".12"/><stop offset="1" stop-color="#fff" stop-opacity="0"/></linearGradient><clipPath id="l"><rect height="48" rx="12" width="48"/></clipPath><g filter="url(#a)"><g clip-path="url(#l)"><rect fill="#099250" height="48" rx="12" width="48"/><path d="m0 0h48v48h-48z" fill="url(#c)"/><g filter="url(#b)"><path d="m12.4492 20.4004h7.19999v7.19999h-7.19999z" fill="url(#e)" opacity=".8"/><path d="m35.5508 27.5996h7.2v7.19999h-7.2z" fill="url(#f)" opacity=".8" transform="matrix(-1 0 -0 -1 71.1016 55.1992)"/><path d="m19.6484 20.4002 8.7-7.2v7.2l-8.7 7.2z" fill="url(#g)" opacity=".2"/><path d="m28.3496 27.5998-8.7 7.2v-7.2l8.7-7.2z" fill="url(#h)" opacity=".4"/><path d="m12.4492 20.4 15.9-14.4v7.2l-8.7 7.2z" fill="url(#i)" opacity=".6"/><path d="m35.5508 27.6-15.9 14.4v-7.2l8.7-7.2z" fill="url(#j)" opacity=".7"/></g></g><rect height="46" rx="11" stroke="url(#k)" stroke-width="2" width="46" x="1" y="1"/></g><g fill="#fff"><path d="m68.127 33.2432c-2.664 0-4.689-.594-6.075-1.782-1.368-1.188-2.052-2.736-2.052-4.644h4.266c.036.972.36 1.755.972 2.349.63.576 1.647.864 3.051.864 1.08 0 1.944-.198 2.592-.594s.972-.981.972-1.755c0-.63-.135-1.116-.405-1.458-.27-.36-.738-.639-1.404-.837s-1.593-.396-2.781-.594c-2.268-.36-3.978-.972-5.13-1.836-1.152-.882-1.728-2.178-1.728-3.888 0-1.854.684-3.312 2.052-4.374 1.368-1.08 3.249-1.62 5.643-1.62 1.548 0 2.88.243 3.996.729s1.98 1.17 2.592 2.052c.63.882.945 1.908.945 3.078h-4.239c-.036-.954-.387-1.638-1.053-2.052-.648-.414-1.44-.621-2.376-.621-.99 0-1.773.207-2.349.621-.558.396-.837.945-.837 1.647 0 .612.162 1.071.486 1.377s.828.54 1.512.702c.702.162 1.62.342 2.754.54.828.126 1.638.297 2.43.513s1.503.54 2.133.972c.648.414 1.161.999 1.539 1.755.396.738.594 1.701.594 2.889 0 1.764-.684 3.204-2.052 4.32-1.35 1.098-3.366 1.647-6.048 1.647z"/><path d="m78.41 16.6652v-3.348h3.969v3.348zm0 16.335v-14.472h3.969v14.472z"/><path d="m90.9523 33.2702c-2.106 0-3.735-.441-4.887-1.323-1.134-.9-1.692-2.07-1.674-3.51h3.888c.018.774.288 1.332.81 1.674.54.324 1.197.486 1.971.486.81 0 1.422-.135 1.836-.405.414-.288.621-.675.621-1.161 0-.666-.243-1.098-.729-1.296-.468-.198-1.215-.369-2.241-.513-1.062-.144-2.034-.351-2.916-.621-.882-.288-1.584-.72-2.106-1.296-.504-.576-.756-1.395-.756-2.457 0-1.53.576-2.673 1.728-3.429 1.17-.774 2.7-1.161 4.59-1.161 1.854 0 3.33.405 4.428 1.215 1.098.792 1.665 1.908 1.701 3.348h-3.888c0-.612-.216-1.08-.648-1.404-.414-.324-.981-.486-1.701-.486-.738 0-1.296.144-1.674.432-.378.27-.567.63-.567 1.08 0 .54.243.918.729 1.134s1.26.396 2.322.54c.756.108 1.476.243 2.16.405.684.144 1.287.378 1.809.702.54.306.963.738 1.269 1.296.324.54.486 1.251.486 2.133 0 1.584-.585 2.754-1.755 3.51-1.17.738-2.772 1.107-4.806 1.107z"/><path d="m98.5718 37.5092v-3.267h1.6742c.594 0 1.062-.126 1.404-.378.36-.234.63-.603.81-1.107l.351-.891-5.5352-13.338h4.3472l2.646 7.749.459 1.539h.135l.432-1.539 2.484-7.749h4.239l-5.643 15.147c-.558 1.512-1.287 2.529-2.187 3.051-.882.522-1.944.783-3.186.783z"/><path d="m113.124 37.5092v-18.981h3.834l.135 2.511h.216c.342-.846.909-1.521 1.701-2.025.81-.504 1.773-.756 2.889-.756 1.728 0 3.123.63 4.185 1.89 1.08 1.242 1.62 3.114 1.62 5.616 0 2.484-.54 4.356-1.62 5.616-1.062 1.26-2.457 1.89-4.185 1.89-1.116 0-2.079-.252-2.889-.756-.792-.522-1.359-1.197-1.701-2.025h-.216v7.02zm7.29-7.452c.972 0 1.746-.342 2.322-1.026.594-.702.891-1.791.891-3.267s-.297-2.556-.891-3.24c-.576-.702-1.35-1.053-2.322-1.053-.738 0-1.35.171-1.836.513s-.846.792-1.08 1.35c-.234.54-.351 1.116-.351 1.728v1.404c0 .612.117 1.197.351 1.755.234.54.594.981 1.08 1.323s1.098.513 1.836.513z"/><path d="m129.67 33.0002v-19.683h3.969v7.83h.162c.396-.954 1.008-1.674 1.836-2.16s1.755-.729 2.781-.729c.972 0 1.836.198 2.592.594.774.396 1.386 1.035 1.836 1.917.45.864.675 2.025.675 3.483v8.748h-3.969v-7.884c0-1.224-.216-2.133-.648-2.727s-1.125-.891-2.079-.891c-1.026 0-1.818.351-2.376 1.053-.54.684-.81 1.485-.81 2.403v8.046z"/><path d="m151.001 33.2432c-1.674 0-2.952-.486-3.834-1.458s-1.323-2.385-1.323-4.239v-9.018h3.969v7.965c0 1.152.207 2.034.621 2.646.432.594 1.143.891 2.133.891 1.008 0 1.782-.342 2.322-1.026.558-.702.837-1.53.837-2.484v-7.992h3.969v14.472h-3.807l-.162-2.646h-.189c-.342.936-.927 1.656-1.755 2.16-.81.486-1.737.729-2.781.729z"/><path d="m168.224 33.2702c-2.106 0-3.735-.441-4.887-1.323-1.134-.9-1.692-2.07-1.674-3.51h3.888c.018.774.288 1.332.81 1.674.54.324 1.197.486 1.971.486.81 0 1.422-.135 1.836-.405.414-.288.621-.675.621-1.161 0-.666-.243-1.098-.729-1.296-.468-.198-1.215-.369-2.241-.513-1.062-.144-2.034-.351-2.916-.621-.882-.288-1.584-.72-2.106-1.296-.504-.576-.756-1.395-.756-2.457 0-1.53.576-2.673 1.728-3.429 1.17-.774 2.7-1.161 4.59-1.161 1.854 0 3.33.405 4.428 1.215 1.098.792 1.665 1.908 1.701 3.348h-3.888c0-.612-.216-1.08-.648-1.404-.414-.324-.981-.486-1.701-.486-.738 0-1.296.144-1.674.432-.378.27-.567.63-.567 1.08 0 .54.243.918.729 1.134s1.26.396 2.322.54c.756.108 1.476.243 2.16.405.684.144 1.287.378 1.809.702.54.306.963.738 1.269 1.296.324.54.486 1.251.486 2.133 0 1.584-.585 2.754-1.755 3.51-1.17.738-2.772 1.107-4.806 1.107z"/></g></svg>