<svg fill="none" height="48" viewBox="0 0 35 48" width="35" xmlns="http://www.w3.org/2000/svg"><path clip-rule="evenodd" d="m12.7018 5c1.841 0 3.4172 1.31967 3.7408 3.13199l.4648 2.60271c.3236 1.8123 1.8998 3.132 3.7408 3.132h3.1518c4.8969 0 8.8667 3.9697 8.8667 8.8666 0 2.9333-1.4244 5.5339-3.6191 7.1479.92.3126 1.6466.809 2.1799 1.461.549.7191.9411 1.7411 1.1764 3.028.0392.3406.0883.6718.1373 1.003s.098.6624.1372 1.003c.0408.3538.0709.6566.096.9083.0232.233.042.4223.0609.5679.0784 1.0598.1961 1.9303.3529 2.5738.1655.9048.4994 1.7867.9727 2.5738h-6.6982c-.3137-.6056-.5098-1.3248-.6666-2.1196-.1349-.6836-.2408-1.5352-.3676-2.5548-.0207-.1659-.0418-.3362-.0638-.5111l-.2353-1.7411c-.1961-1.3247-.4314-2.271-.6667-2.8766-.2745-.5677-.7058-.9841-1.2941-1.2112-.6274-.2271-1.5686-.3856-2.9019-.3856h-.3018c-1.841 0-3.4172-1.3197-3.7408-3.132l-.4648-2.6027c-.3236-1.8123-1.8998-3.132-3.7408-3.132h-5.68517v10.1334h-6.33333v-27.8667zm13.6315 17.7333c0 1.3992-1.1342 2.5334-2.5333 2.5334h-3.1518c-1.841 0-3.4172-1.3197-3.7408-3.132l-.4648-2.6027c-.3236-1.8123-1.8998-3.132-3.7408-3.132h-5.36847v-5.0667h5.68517c1.841 0 3.4172 1.3197 3.7408 3.132l.4647 2.6027c.3237 1.8123 1.8999 3.132 3.7409 3.132h2.8351c1.3991 0 2.5333 1.1342 2.5333 2.5333z" fill="#1849a9" fill-rule="evenodd"/></svg>