<svg fill="none" height="54" viewBox="0 0 188 54" width="188" xmlns="http://www.w3.org/2000/svg" xmlns:xlink="http://www.w3.org/1999/xlink"><filter id="a" color-interpolation-filters="sRGB" filterUnits="userSpaceOnUse" height="57" width="54" x="0" y="-3"><feFlood flood-opacity="0" result="BackgroundImageFix"/><feColorMatrix in="SourceAlpha" result="hardAlpha" type="matrix" values="0 0 0 0 0 0 0 0 0 0 0 0 0 0 0 0 0 0 127 0"/><feOffset dy="1"/><feGaussianBlur stdDeviation=".5"/><feComposite in2="hardAlpha" operator="out"/><feColorMatrix type="matrix" values="0 0 0 0 0.162923 0 0 0 0 0.162923 0 0 0 0 0.162923 0 0 0 0.08 0"/><feBlend in2="BackgroundImageFix" mode="normal" result="effect1_dropShadow_3046_38806"/><feColorMatrix in="SourceAlpha" result="hardAlpha" type="matrix" values="0 0 0 0 0 0 0 0 0 0 0 0 0 0 0 0 0 0 127 0"/><feMorphology in="SourceAlpha" operator="erode" radius="1" result="effect2_dropShadow_3046_38806"/><feOffset dy="3"/><feGaussianBlur stdDeviation="2"/><feComposite in2="hardAlpha" operator="out"/><feColorMatrix type="matrix" values="0 0 0 0 0.164706 0 0 0 0 0.164706 0 0 0 0 0.164706 0 0 0 0.14 0"/><feBlend in2="effect1_dropShadow_3046_38806" mode="normal" result="effect2_dropShadow_3046_38806"/><feBlend in="SourceGraphic" in2="effect2_dropShadow_3046_38806" mode="normal" result="shape"/><feColorMatrix in="SourceAlpha" result="hardAlpha" type="matrix" values="0 0 0 0 0 0 0 0 0 0 0 0 0 0 0 0 0 0 127 0"/><feOffset dy="-3"/><feGaussianBlur stdDeviation="1.5"/><feComposite in2="hardAlpha" k2="-1" k3="1" operator="arithmetic"/><feColorMatrix type="matrix" values="0 0 0 0 0 0 0 0 0 0 0 0 0 0 0 0 0 0 0.1 0"/><feBlend in2="shape" mode="normal" result="effect3_innerShadow_3046_38806"/><feColorMatrix in="SourceAlpha" result="hardAlpha" type="matrix" values="0 0 0 0 0 0 0 0 0 0 0 0 0 0 0 0 0 0 127 0"/><feOffset dy="3"/><feGaussianBlur stdDeviation="1.5"/><feComposite in2="hardAlpha" k2="-1" k3="1" operator="arithmetic"/><feColorMatrix type="matrix" values="0 0 0 0 1 0 0 0 0 1 0 0 0 0 1 0 0 0 0.1 0"/><feBlend in2="effect3_innerShadow_3046_38806" mode="normal" result="effect4_innerShadow_3046_38806"/><feColorMatrix in="SourceAlpha" result="hardAlpha" type="matrix" values="0 0 0 0 0 0 0 0 0 0 0 0 0 0 0 0 0 0 127 0"/><feMorphology in="SourceAlpha" operator="erode" radius="1" result="effect5_innerShadow_3046_38806"/><feOffset/><feComposite in2="hardAlpha" k2="-1" k3="1" operator="arithmetic"/><feColorMatrix type="matrix" values="0 0 0 0 0.0627451 0 0 0 0 0.0941176 0 0 0 0 0.156863 0 0 0 0.24 0"/><feBlend in2="effect4_innerShadow_3046_38806" mode="normal" result="effect5_innerShadow_3046_38806"/></filter><filter id="b" color-interpolation-filters="sRGB" filterUnits="userSpaceOnUse" height="44.3333" width="39.5833" x="7.20833" y="4.20833"><feFlood flood-opacity="0" result="BackgroundImageFix"/><feColorMatrix in="SourceAlpha" result="hardAlpha" type="matrix" values="0 0 0 0 0 0 0 0 0 0 0 0 0 0 0 0 0 0 127 0"/><feMorphology in="SourceAlpha" operator="erode" radius="1.58333" result="effect1_dropShadow_3046_38806"/><feOffset dy="2.375"/><feGaussianBlur stdDeviation="2.375"/><feComposite in2="hardAlpha" operator="out"/><feColorMatrix type="matrix" values="0 0 0 0 0.141176 0 0 0 0 0.141176 0 0 0 0 0.141176 0 0 0 0.1 0"/><feBlend in2="BackgroundImageFix" mode="normal" result="effect1_dropShadow_3046_38806"/><feBlend in="SourceGraphic" in2="effect1_dropShadow_3046_38806" mode="normal" result="shape"/></filter><linearGradient id="c" gradientUnits="userSpaceOnUse" x1="24" x2="26" y1=".000001" y2="48"><stop offset="0" stop-color="#fff" stop-opacity="0"/><stop offset="1" stop-color="#fff" stop-opacity=".12"/></linearGradient><linearGradient id="d"><stop offset="0" stop-color="#fff" stop-opacity=".8"/><stop offset="1" stop-color="#fff" stop-opacity=".5"/></linearGradient><linearGradient id="e" gradientUnits="userSpaceOnUse" x1="18.0433" x2="28.6794" xlink:href="#d" y1="36.3153" y2="25.6792"/><linearGradient id="f" gradientUnits="userSpaceOnUse" x1="20.7023" x2="26.0203" xlink:href="#d" y1="28.3385" y2="23.0205"/><linearGradient id="g" gradientUnits="userSpaceOnUse" x1="35.9567" x2="25.3206" xlink:href="#d" y1="11.6847" y2="22.3208"/><linearGradient id="h" gradientUnits="userSpaceOnUse" x1="33.2977" x2="27.9797" xlink:href="#d" y1="19.6615" y2="24.9795"/><linearGradient id="i" gradientUnits="userSpaceOnUse" x1="27" x2="27" y1="0" y2="48"><stop offset="0" stop-color="#fff" stop-opacity=".12"/><stop offset="1" stop-color="#fff" stop-opacity="0"/></linearGradient><clipPath id="j"><rect height="48" rx="12" width="48" x="3"/></clipPath><g filter="url(#a)"><g clip-path="url(#j)"><rect fill="#175cd3" height="48" rx="12" width="48" x="3"/><path d="m0 0h48v48h-48z" fill="url(#c)" transform="translate(3)"/><g filter="url(#b)" stroke-width="4.75"><path d="m33.9974 30.9972c-5.8741 5.8742-15.398 5.8742-21.2721 0" stroke="url(#e)"/><path d="m28.6794 25.6795c-2.9371 2.9371-7.699 2.9371-10.6361 0" opacity=".5" stroke="url(#f)"/><path d="m20.0026 17.0028c5.8741-5.8742 15.398-5.8742 21.2721 0" opacity=".5" stroke="url(#g)"/><path d="m25.3206 22.3205c2.9371-2.9371 7.699-2.9371 10.6361 0" stroke="url(#h)"/></g></g><rect height="46" rx="11" stroke="url(#i)" stroke-width="2" width="46" x="4" y="1"/></g><g fill="#0a0d12"><path d="m71.154 33.2702c-2.664 0-4.689-.585-6.075-1.755-1.386-1.188-2.079-2.736-2.079-4.644h4.482c.036 1.026.387 1.782 1.053 2.268.666.468 1.575.702 2.727.702 2.268 0 3.402-.783 3.402-2.349 0-.648-.207-1.134-.621-1.458s-.981-.567-1.701-.729c-.72-.18-1.548-.36-2.484-.54-1.998-.396-3.573-1.026-4.725-1.89-1.134-.864-1.701-2.142-1.701-3.834 0-1.314.315-2.412.945-3.294.648-.882 1.548-1.548 2.7-1.998 1.17-.45 2.52-.675 4.05-.675 2.502 0 4.419.513 5.751 1.539 1.35 1.026 2.034 2.475 2.052 4.347h-4.455c-.018-.81-.315-1.431-.891-1.863-.576-.45-1.395-.675-2.457-.675-.936 0-1.674.189-2.214.567-.522.36-.783.864-.783 1.512 0 .576.171 1.017.513 1.323.36.306.873.54 1.539.702.666.144 1.467.297 2.403.459 1.278.216 2.43.54 3.456.972 1.026.414 1.836 1.026 2.43 1.836s.891 1.917.891 3.321c0 1.386-.342 2.538-1.026 3.456s-1.647 1.602-2.889 2.052c-1.224.432-2.655.648-4.293.648z"/><path d="m87.8818 33.2702c-2.358 0-4.113-.675-5.265-2.025s-1.728-3.15-1.728-5.4v-.081c0-2.556.639-4.446 1.917-5.67 1.278-1.242 2.97-1.863 5.076-1.863 2.124 0 3.825.621 5.103 1.863 1.296 1.224 1.944 3.114 1.944 5.67v.081c-.018 2.25-.603 4.05-1.755 5.4s-2.916 2.025-5.292 2.025zm0-3.348c.918 0 1.611-.252 2.079-.756.486-.504.729-1.197.729-2.079v-2.592c0-.9-.252-1.602-.756-2.106-.486-.522-1.17-.783-2.052-.783-.864 0-1.548.261-2.052.783-.486.504-.729 1.206-.729 2.106v2.592c0 .882.234 1.575.702 2.079.486.504 1.179.756 2.079.756z"/><path d="m97.1932 33.0002v-14.499h3.8608l.297 2.376h.243c.306-.792.837-1.431 1.593-1.917s1.656-.729 2.7-.729c1.548 0 2.772.477 3.672 1.431.9.936 1.35 2.421 1.35 4.455v8.883h-4.131v-8.343c0-1.17-.234-1.971-.702-2.403s-1.098-.648-1.89-.648c-.936 0-1.647.306-2.133.918-.468.612-.702 1.422-.702 2.43v8.046z"/><path d="m114.786 31.2452c1.152 1.35 2.907 2.025 5.265 2.025v-3.348c-.9 0-1.593-.252-2.079-.756-.468-.504-.702-1.197-.702-2.079v-2.592c0-.9.243-1.602.729-2.106.504-.522 1.188-.783 2.052-.783v-3.375c-2.106 0-3.798.621-5.076 1.863-1.278 1.224-1.917 3.114-1.917 5.67v.081c0 2.25.576 4.05 1.728 5.4z"/><path d="m132.361 33.0004v-14.499h3.861l.297 2.403h.243c.324-.9.756-1.557 1.296-1.971.54-.432 1.314-.648 2.322-.648h1.296v4.212h-1.863c-1.188 0-2.034.306-2.538.918-.504.594-.756 1.395-.756 2.403v7.182z"/><path d="m149.629 33.2704c-2.358 0-4.113-.675-5.265-2.025s-1.728-3.15-1.728-5.4v-.081c0-2.556.639-4.446 1.917-5.67 1.278-1.242 2.97-1.863 5.076-1.863 2.124 0 3.825.621 5.103 1.863 1.296 1.224 1.944 3.114 1.944 5.67v.081c-.018 2.25-.603 4.05-1.755 5.4s-2.916 2.025-5.292 2.025zm0-3.348c.918 0 1.611-.252 2.079-.756.486-.504.729-1.197.729-2.079v-2.592c0-.9-.252-1.602-.756-2.106-.486-.522-1.17-.783-2.052-.783-.864 0-1.548.261-2.052.783-.486.504-.729 1.206-.729 2.106v2.592c0 .882.234 1.575.702 2.079.486.504 1.179.756 2.079.756z"/><path d="m163.585 33.2704c-1.602 0-2.799-.522-3.591-1.566-.792-1.062-1.188-2.457-1.188-4.185v-9.018h4.131v8.424c0 1.152.225 1.944.675 2.376.468.414 1.089.621 1.863.621.918 0 1.611-.306 2.079-.918s.702-1.413.702-2.403v-8.1h4.131v14.499h-3.861l-.297-2.376h-.216c-.324.792-.882 1.431-1.674 1.917-.774.486-1.692.729-2.754.729z"/><path d="m180.806 33.2704c-2.07 0-3.654-.45-4.752-1.35-1.08-.9-1.611-2.07-1.593-3.51h3.969c.036.72.279 1.233.729 1.539.468.306 1.062.459 1.782.459s1.233-.135 1.539-.405c.324-.288.486-.63.486-1.026 0-.63-.225-1.044-.675-1.242-.45-.216-1.152-.396-2.106-.54-.864-.126-1.71-.324-2.538-.594s-1.512-.693-2.052-1.269c-.522-.594-.783-1.404-.783-2.43 0-1.008.252-1.854.756-2.538.522-.702 1.233-1.233 2.133-1.593s1.935-.54 3.105-.54c1.782 0 3.222.396 4.32 1.188 1.116.792 1.692 1.908 1.728 3.348l-3.915-.027c0-.558-.198-.981-.594-1.269-.378-.306-.891-.459-1.539-.459-.63 0-1.107.126-1.431.378s-.486.585-.486.999c0 .576.261.954.783 1.134.54.18 1.215.333 2.025.459.684.09 1.35.216 1.998.378.648.144 1.233.378 1.755.702.54.324.963.774 1.269 1.35.306.558.459 1.296.459 2.214 0 1.422-.558 2.556-1.674 3.402-1.098.828-2.664 1.242-4.698 1.242z"/><path d="m128.154 20.0947c-1.278-1.242-2.979-1.863-5.103-1.863v3.375c.882 0 1.566.261 2.052.783.504.504.756 1.206.756 2.106v2.592c0 .882-.243 1.575-.729 2.079-.468.504-1.161.756-2.079.756v3.348c2.376 0 4.14-.675 5.292-2.025s1.737-3.15 1.755-5.4v-.081c0-2.556-.648-4.446-1.944-5.67z"/></g></svg>