<svg fill="none" height="48" viewBox="0 0 48 48" width="48" xmlns="http://www.w3.org/2000/svg" xmlns:xlink="http://www.w3.org/1999/xlink"><filter id="a" color-interpolation-filters="sRGB" filterUnits="userSpaceOnUse" height="54" width="48" x="0" y="-3"><feFlood flood-opacity="0" result="BackgroundImageFix"/><feBlend in="SourceGraphic" in2="BackgroundImageFix" mode="normal" result="shape"/><feColorMatrix in="SourceAlpha" result="hardAlpha" type="matrix" values="0 0 0 0 0 0 0 0 0 0 0 0 0 0 0 0 0 0 127 0"/><feOffset dy="-3"/><feGaussianBlur stdDeviation="1.5"/><feComposite in2="hardAlpha" k2="-1" k3="1" operator="arithmetic"/><feColorMatrix type="matrix" values="0 0 0 0 0 0 0 0 0 0 0 0 0 0 0 0 0 0 0.1 0"/><feBlend in2="shape" mode="normal" result="effect1_innerShadow_3051_47017"/><feColorMatrix in="SourceAlpha" result="hardAlpha" type="matrix" values="0 0 0 0 0 0 0 0 0 0 0 0 0 0 0 0 0 0 127 0"/><feOffset dy="3"/><feGaussianBlur stdDeviation="1.5"/><feComposite in2="hardAlpha" k2="-1" k3="1" operator="arithmetic"/><feColorMatrix type="matrix" values="0 0 0 0 1 0 0 0 0 1 0 0 0 0 1 0 0 0 0.1 0"/><feBlend in2="effect1_innerShadow_3051_47017" mode="normal" result="effect2_innerShadow_3051_47017"/><feColorMatrix in="SourceAlpha" result="hardAlpha" type="matrix" values="0 0 0 0 0 0 0 0 0 0 0 0 0 0 0 0 0 0 127 0"/><feMorphology in="SourceAlpha" operator="erode" radius="1" result="effect3_innerShadow_3051_47017"/><feOffset/><feComposite in2="hardAlpha" k2="-1" k3="1" operator="arithmetic"/><feColorMatrix type="matrix" values="0 0 0 0 0.0627451 0 0 0 0 0.0941176 0 0 0 0 0.156863 0 0 0 0.24 0"/><feBlend in2="effect2_innerShadow_3051_47017" mode="normal" result="effect3_innerShadow_3051_47017"/></filter><filter id="b" color-interpolation-filters="sRGB" filterUnits="userSpaceOnUse" height="42" width="36" x="6" y="5.25"><feFlood flood-opacity="0" result="BackgroundImageFix"/><feColorMatrix in="SourceAlpha" result="hardAlpha" type="matrix" values="0 0 0 0 0 0 0 0 0 0 0 0 0 0 0 0 0 0 127 0"/><feMorphology in="SourceAlpha" operator="erode" radius="1.5" result="effect1_dropShadow_3051_47017"/><feOffset dy="2.25"/><feGaussianBlur stdDeviation="2.25"/><feComposite in2="hardAlpha" operator="out"/><feColorMatrix type="matrix" values="0 0 0 0 0.141176 0 0 0 0 0.141176 0 0 0 0 0.141176 0 0 0 0.1 0"/><feBlend in2="BackgroundImageFix" mode="normal" result="effect1_dropShadow_3051_47017"/><feBlend in="SourceGraphic" in2="effect1_dropShadow_3051_47017" mode="normal" result="shape"/></filter><linearGradient id="c" gradientUnits="userSpaceOnUse" x1="24" x2="26" y1=".000001" y2="48"><stop offset="0" stop-color="#fff" stop-opacity="0"/><stop offset="1" stop-color="#fff" stop-opacity=".12"/></linearGradient><linearGradient id="d" gradientUnits="userSpaceOnUse" x1="24" x2="24" y1="0" y2="48"><stop offset="0" stop-color="#fff" stop-opacity=".12"/><stop offset="1" stop-color="#fff" stop-opacity="0"/></linearGradient><clipPath id="e"><rect height="48" rx="12" width="48"/></clipPath><g filter="url(#a)"><g clip-path="url(#e)"><rect fill="#22262f" height="48" rx="12" width="48"/><path d="m0 0h48v48h-48z" fill="url(#c)"/><g fill="#fff" filter="url(#b)"><path d="m9 33.75h5.25v5.25h-5.25z"/><path d="m14.25 33.75h5.25v5.25h-5.25z" opacity=".6"/><path d="m19.5 33.75h5.25v5.25h-5.25z" opacity=".32"/><path d="m24.75 33.75h5.25v5.25h-5.25z" opacity=".07"/><path d="m9 28.5h5.25v5.25h-5.25z" opacity=".6"/><path d="m14.25 28.5h5.25v5.25h-5.25z" opacity=".32"/><path d="m14.25 23.25h5.25v5.25h-5.25z" opacity=".07"/><path d="m19.5 28.5h5.25v5.25h-5.25z" opacity=".07"/><path d="m9 23.25h5.25v5.25h-5.25z" opacity=".32"/><path d="m9 18h5.25v5.25h-5.25z" opacity=".07"/><path d="m33.75 9h5.25v5.25h-5.25z"/><path d="m33.75 14.25h5.25v5.25h-5.25z" opacity=".6"/><path d="m28.5 14.25h5.25v5.25h-5.25z" opacity=".32"/><path d="m23.25 14.25h5.25v5.25h-5.25z" opacity=".07"/><path d="m33.75 19.5h5.25v5.25h-5.25z" opacity=".32"/><path d="m28.5 19.5h5.25v5.25h-5.25z" opacity=".07"/><path d="m33.75 24.75h5.25v5.25h-5.25z" opacity=".07"/><path d="m28.5 9h5.25v5.25h-5.25z" opacity=".6"/><path d="m23.25 9h5.25v5.25h-5.25z" opacity=".32"/><path d="m18 9h5.25v5.25h-5.25z" opacity=".07"/></g></g><rect height="46" rx="11" stroke="url(#d)" stroke-width="2" width="46" x="1" y="1"/></g></svg>