<svg fill="none" height="48" viewBox="0 0 48 48" width="48" xmlns="http://www.w3.org/2000/svg" xmlns:xlink="http://www.w3.org/1999/xlink"><filter id="a" color-interpolation-filters="sRGB" filterUnits="userSpaceOnUse" height="54" width="48" x="0" y="-3"><feFlood flood-opacity="0" result="BackgroundImageFix"/><feBlend in="SourceGraphic" in2="BackgroundImageFix" mode="normal" result="shape"/><feColorMatrix in="SourceAlpha" result="hardAlpha" type="matrix" values="0 0 0 0 0 0 0 0 0 0 0 0 0 0 0 0 0 0 127 0"/><feOffset dy="-3"/><feGaussianBlur stdDeviation="1.5"/><feComposite in2="hardAlpha" k2="-1" k3="1" operator="arithmetic"/><feColorMatrix type="matrix" values="0 0 0 0 0 0 0 0 0 0 0 0 0 0 0 0 0 0 0.1 0"/><feBlend in2="shape" mode="normal" result="effect1_innerShadow_3051_46973"/><feColorMatrix in="SourceAlpha" result="hardAlpha" type="matrix" values="0 0 0 0 0 0 0 0 0 0 0 0 0 0 0 0 0 0 127 0"/><feOffset dy="3"/><feGaussianBlur stdDeviation="1.5"/><feComposite in2="hardAlpha" k2="-1" k3="1" operator="arithmetic"/><feColorMatrix type="matrix" values="0 0 0 0 1 0 0 0 0 1 0 0 0 0 1 0 0 0 0.1 0"/><feBlend in2="effect1_innerShadow_3051_46973" mode="normal" result="effect2_innerShadow_3051_46973"/><feColorMatrix in="SourceAlpha" result="hardAlpha" type="matrix" values="0 0 0 0 0 0 0 0 0 0 0 0 0 0 0 0 0 0 127 0"/><feMorphology in="SourceAlpha" operator="erode" radius="1" result="effect3_innerShadow_3051_46973"/><feOffset/><feComposite in2="hardAlpha" k2="-1" k3="1" operator="arithmetic"/><feColorMatrix type="matrix" values="0 0 0 0 0.0627451 0 0 0 0 0.0941176 0 0 0 0 0.156863 0 0 0 0.24 0"/><feBlend in2="effect2_innerShadow_3051_46973" mode="normal" result="effect3_innerShadow_3051_46973"/></filter><filter id="b" color-interpolation-filters="sRGB" filterUnits="userSpaceOnUse" height="42" width="39" x="4.5" y="5.25"><feFlood flood-opacity="0" result="BackgroundImageFix"/><feColorMatrix in="SourceAlpha" result="hardAlpha" type="matrix" values="0 0 0 0 0 0 0 0 0 0 0 0 0 0 0 0 0 0 127 0"/><feMorphology in="SourceAlpha" operator="erode" radius="1.5" result="effect1_dropShadow_3051_46973"/><feOffset dy="2.25"/><feGaussianBlur stdDeviation="2.25"/><feComposite in2="hardAlpha" operator="out"/><feColorMatrix type="matrix" values="0 0 0 0 0.141176 0 0 0 0 0.141176 0 0 0 0 0.141176 0 0 0 0.1 0"/><feBlend in2="BackgroundImageFix" mode="normal" result="effect1_dropShadow_3051_46973"/><feBlend in="SourceGraphic" in2="effect1_dropShadow_3051_46973" mode="normal" result="shape"/></filter><linearGradient id="c" gradientUnits="userSpaceOnUse" x1="24" x2="26" y1=".000001" y2="48"><stop offset="0" stop-color="#fff" stop-opacity="0"/><stop offset="1" stop-color="#fff" stop-opacity=".12"/></linearGradient><linearGradient id="d"><stop offset="0" stop-color="#fff" stop-opacity=".8"/><stop offset="1" stop-color="#fff" stop-opacity=".5"/></linearGradient><linearGradient id="e" gradientUnits="userSpaceOnUse" x1="24" x2="24" xlink:href="#d" y1="14.0999" y2="33.8997"/><linearGradient id="f" gradientUnits="userSpaceOnUse" x1="27.2992" x2="27.2992" xlink:href="#d" y1="27.2998" y2="33.8998"/><linearGradient id="g" gradientUnits="userSpaceOnUse" x1="25.6516" x2="25.6516" xlink:href="#d" y1="20.7002" y2="33.9001"/><linearGradient id="h" gradientUnits="userSpaceOnUse" x1="24" x2="24" y1="0" y2="48"><stop offset="0" stop-color="#fff" stop-opacity=".12"/><stop offset="1" stop-color="#fff" stop-opacity="0"/></linearGradient><clipPath id="i"><rect height="48" rx="12" width="48"/></clipPath><g filter="url(#a)"><g clip-path="url(#i)"><rect fill="#099250" height="48" rx="12" width="48"/><path d="m0 0h48v48h-48z" fill="url(#c)"/><g filter="url(#b)"><path d="m30.6 14.0999h-23.1l3.3 6.5999h19.8c3.6451 0 6.6 2.9549 6.6 6.6 0 3.645-2.9549 6.5999-6.6 6.5999 5.4676 0 9.9-4.4323 9.9-9.8999s-4.4324-9.8999-9.9-9.8999z" fill="url(#e)"/><path d="m23.0871 32.0756c-1.0971-2.1942.4985-4.7758 2.9516-4.7758h4.5605c1.8226 0 3.3 1.4775 3.3 3.3s-1.4774 3.3-3.3 3.3h-4.5605c-1.2499 0-2.3926-.7062-2.9516-1.8242z" fill="url(#f)" opacity=".3"/><path d="m30.6016 20.7002h-16.5l3.3 6.6h13.2c1.8225 0 3.3 1.4774 3.3 3.2999 0 1.8226-1.4775 3.3-3.3 3.3 3.645 0 6.6-2.9549 6.6-6.5999 0-3.6451-2.955-6.6-6.6-6.6z" fill="url(#g)" opacity=".6"/></g></g><rect height="46" rx="11" stroke="url(#h)" stroke-width="2" width="46" x="1" y="1"/></g></svg>