<svg fill="none" height="48" viewBox="0 0 220 48" width="220" xmlns="http://www.w3.org/2000/svg" xmlns:xlink="http://www.w3.org/1999/xlink"><filter id="a" color-interpolation-filters="sRGB" filterUnits="userSpaceOnUse" height="54" width="48" x="0" y="-3"><feFlood flood-opacity="0" result="BackgroundImageFix"/><feBlend in="SourceGraphic" in2="BackgroundImageFix" mode="normal" result="shape"/><feColorMatrix in="SourceAlpha" result="hardAlpha" type="matrix" values="0 0 0 0 0 0 0 0 0 0 0 0 0 0 0 0 0 0 127 0"/><feOffset dy="-3"/><feGaussianBlur stdDeviation="1.5"/><feComposite in2="hardAlpha" k2="-1" k3="1" operator="arithmetic"/><feColorMatrix type="matrix" values="0 0 0 0 0 0 0 0 0 0 0 0 0 0 0 0 0 0 0.1 0"/><feBlend in2="shape" mode="normal" result="effect1_innerShadow_3046_38787"/><feColorMatrix in="SourceAlpha" result="hardAlpha" type="matrix" values="0 0 0 0 0 0 0 0 0 0 0 0 0 0 0 0 0 0 127 0"/><feOffset dy="3"/><feGaussianBlur stdDeviation="1.5"/><feComposite in2="hardAlpha" k2="-1" k3="1" operator="arithmetic"/><feColorMatrix type="matrix" values="0 0 0 0 1 0 0 0 0 1 0 0 0 0 1 0 0 0 0.1 0"/><feBlend in2="effect1_innerShadow_3046_38787" mode="normal" result="effect2_innerShadow_3046_38787"/><feColorMatrix in="SourceAlpha" result="hardAlpha" type="matrix" values="0 0 0 0 0 0 0 0 0 0 0 0 0 0 0 0 0 0 127 0"/><feMorphology in="SourceAlpha" operator="erode" radius="1" result="effect3_innerShadow_3046_38787"/><feOffset/><feComposite in2="hardAlpha" k2="-1" k3="1" operator="arithmetic"/><feColorMatrix type="matrix" values="0 0 0 0 0.0627451 0 0 0 0 0.0941176 0 0 0 0 0.156863 0 0 0 0.24 0"/><feBlend in2="effect2_innerShadow_3046_38787" mode="normal" result="effect3_innerShadow_3046_38787"/></filter><filter id="b" color-interpolation-filters="sRGB" filterUnits="userSpaceOnUse" height="42" width="36" x="6" y="5.25"><feFlood flood-opacity="0" result="BackgroundImageFix"/><feColorMatrix in="SourceAlpha" result="hardAlpha" type="matrix" values="0 0 0 0 0 0 0 0 0 0 0 0 0 0 0 0 0 0 127 0"/><feMorphology in="SourceAlpha" operator="erode" radius="1.5" result="effect1_dropShadow_3046_38787"/><feOffset dy="2.25"/><feGaussianBlur stdDeviation="2.25"/><feComposite in2="hardAlpha" operator="out"/><feColorMatrix type="matrix" values="0 0 0 0 0.141176 0 0 0 0 0.141176 0 0 0 0 0.141176 0 0 0 0.1 0"/><feBlend in2="BackgroundImageFix" mode="normal" result="effect1_dropShadow_3046_38787"/><feBlend in="SourceGraphic" in2="effect1_dropShadow_3046_38787" mode="normal" result="shape"/></filter><linearGradient id="c" gradientUnits="userSpaceOnUse" x1="24" x2="26" y1=".000001" y2="48"><stop offset="0" stop-color="#fff" stop-opacity="0"/><stop offset="1" stop-color="#fff" stop-opacity=".12"/></linearGradient><linearGradient id="d" gradientUnits="userSpaceOnUse" x1="24" x2="24" y1="9" y2="39"><stop offset="0" stop-color="#fff" stop-opacity=".8"/><stop offset="1" stop-color="#fff" stop-opacity=".5"/></linearGradient><linearGradient id="e" gradientUnits="userSpaceOnUse" x1="24" x2="24" y1="0" y2="48"><stop offset="0" stop-color="#fff" stop-opacity=".12"/><stop offset="1" stop-color="#fff" stop-opacity="0"/></linearGradient><clipPath id="f"><rect height="48" rx="12" width="48"/></clipPath><g filter="url(#a)"><g clip-path="url(#f)"><rect fill="#1570ef" height="48" rx="12" width="48"/><path d="m0 0h48v48h-48z" fill="url(#c)"/><g fill="url(#d)" filter="url(#b)"><path d="m39 30v-12c0-4.9706-4.0294-9-9-9h-12l-9 9h16.5c2.4853 0 4.5 2.0147 4.5 4.5v16.5z" opacity=".4"/><path d="m9 18v12c0 4.9706 4.0294 9 9 9h12l9-9h-15c-3.3137 0-6-2.6863-6-6v-15z"/></g></g><rect height="46" rx="11" stroke="url(#e)" stroke-width="2" width="46" x="1" y="1"/></g><g fill="#fff"><path d="m60 33v-19.6436h7.752c4.4165 0 7.185 2.4917 7.185 6.4468s-2.8213 6.4468-7.2378 6.4468h-3.6387v6.75zm4.0605-10.1514h3.4278c2.1489 0 3.4805-1.1733 3.4805-3.0454 0-1.872-1.3316-3.0454-3.4805-3.0454h-3.4278z"/><path d="m81.1075 33.29c-3.6387 0-6.0249-2.9004-6.0249-7.2641 0-4.2715 2.4389-7.2378 5.9985-7.2378 1.8061 0 3.2695.7251 4.1265 2.1753h.0395v-1.8853h3.7969v13.9219h-3.7969v-2.083h-.0395c-.8042 1.5688-2.2676 2.373-4.1001 2.373zm1.0019-3.164c1.9644 0 3.2695-1.6084 3.2695-4.1001 0-2.4785-1.3051-4.1001-3.2695-4.1001-1.8852 0-3.1113 1.4897-3.1113 4.1001 0 2.6103 1.2261 4.1001 3.1113 4.1001z"/><path d="m97.838 38.6953c-3.9551 0-6.104-1.8061-6.4995-4.5088h3.7441c.2769 1.0547 1.3052 1.648 2.7554 1.648 1.8984 0 2.966-1.0547 2.966-3.0586v-2.1358h-.013c-.8305 1.6348-2.2939 2.3731-4.1132 2.3731-3.6387 0-6.0249-2.9268-6.0249-7.0796 0-4.1792 2.439-7.1455 5.9985-7.1455 1.8062 0 3.2564.7646 4.1396 2.3071h.013v-2.0171h3.837v13.3814c0 4.4165-2.769 6.2358-6.803 6.2358zm-.1582-8.7934c1.9643 0 3.2692-1.5821 3.2692-4.021 0-2.4258-1.3049-4.0079-3.2692-4.0079-1.8853 0-3.1114 1.4502-3.1114 4.0079 0 2.5576 1.2261 4.021 3.1114 4.021z"/><path d="m113.211 33.3164c-4.219 0-6.961-3.0322-6.961-7.2642 0-4.2451 2.834-7.2905 6.829-7.2905 4.1 0 6.855 2.9663 6.855 7.2114v1.0415h-9.901c.066 2.0567 1.253 3.3882 3.296 3.3882 1.516 0 2.558-.6987 2.914-1.7798h3.546c-.514 2.7686-3.203 4.6934-6.578 4.6934zm-3.151-8.7803h6.209c-.198-1.7402-1.358-2.8213-3.111-2.8213-1.74 0-2.887 1.0811-3.098 2.8213z"/><path d="m121.477 33v-13.9219h3.744v2.5049c.831-1.8852 2.452-2.7949 4.219-2.7949 1.872 0 3.441 1.0151 4.021 2.7158.725-1.7007 2.439-2.7158 4.456-2.7158 2.676 0 4.667 1.793 4.667 4.9834v9.2285h-3.876v-8.5166c0-1.6743-1.028-2.4917-2.36-2.4917-1.503 0-2.439 1.0679-2.439 2.6235v8.3848h-3.744v-8.6221c0-1.4502-.949-2.3862-2.307-2.3862-1.384 0-2.492 1.002-2.492 2.7949v8.2134z"/><path d="m150.218 33.29c-3.639 0-6.025-2.9004-6.025-7.2641 0-4.2715 2.439-7.2378 5.999-7.2378 1.806 0 3.269.7251 4.126 2.1753h.04v-1.8853h3.796v13.9219h-3.796v-2.083h-.04c-.804 1.5688-2.268 2.373-4.1 2.373zm1.002-3.164c1.964 0 3.269-1.6084 3.269-4.1001 0-2.4785-1.305-4.1001-3.269-4.1001-1.885 0-3.111 1.4897-3.111 4.1001 0 2.6103 1.226 4.1001 3.111 4.1001z"/><path d="m164.259 25.2612v7.7388h-3.889v-13.9219h3.823v2.1885c.936-1.582 2.347-2.4785 4.351-2.4785 2.966 0 4.878 1.9775 4.878 5.4975v8.7144h-3.876v-8.0024c0-1.8721-.936-2.8609-2.558-2.8609-1.608 0-2.729.9624-2.729 3.1245z"/><path d="m181.069 33.29c-3.639 0-6.025-2.9004-6.025-7.2641 0-4.2715 2.439-7.2378 5.998-7.2378 1.806 0 3.27.7251 4.127 2.1753h.039v-1.8853h3.797v13.9219h-3.797v-2.083h-.039c-.804 1.5688-2.268 2.373-4.1 2.373zm1.002-3.164c1.964 0 3.269-1.6084 3.269-4.1001 0-2.4785-1.305-4.1001-3.269-4.1001-1.886 0-3.112 1.4897-3.112 4.1001 0 2.6103 1.226 4.1001 3.112 4.1001z"/><path d="m197.799 38.6953c-3.955 0-6.104-1.8061-6.499-4.5088h3.744c.277 1.0547 1.305 1.648 2.755 1.648 1.899 0 2.966-1.0547 2.966-3.0586v-2.1358h-.013c-.83 1.6348-2.294 2.3731-4.113 2.3731-3.639 0-6.025-2.9268-6.025-7.0796 0-4.1792 2.439-7.1455 5.999-7.1455 1.806 0 3.256.7646 4.139 2.3071h.013v-2.0171h3.837v13.3814c0 4.4165-2.769 6.2358-6.803 6.2358zm-.158-8.7934c1.964 0 3.269-1.5821 3.269-4.021 0-2.4258-1.305-4.0079-3.269-4.0079-1.885 0-3.111 1.4502-3.111 4.0079 0 2.5576 1.226 4.021 3.111 4.021z"/><path d="m213.172 33.3164c-4.219 0-6.961-3.0322-6.961-7.2642 0-4.2451 2.834-7.2905 6.829-7.2905 4.1 0 6.855 2.9663 6.855 7.2114v1.0415h-9.901c.066 2.0567 1.253 3.3882 3.296 3.3882 1.517 0 2.558-.6987 2.914-1.7798h3.546c-.514 2.7686-3.203 4.6934-6.578 4.6934zm-3.151-8.7803h6.209c-.197-1.7402-1.358-2.8213-3.111-2.8213-1.74 0-2.887 1.0811-3.098 2.8213z"/></g></svg>