<svg fill="none" height="48" viewBox="0 0 48 48" width="48" xmlns="http://www.w3.org/2000/svg" xmlns:xlink="http://www.w3.org/1999/xlink"><filter id="a" color-interpolation-filters="sRGB" filterUnits="userSpaceOnUse" height="54" width="48" x="0" y="-3"><feFlood flood-opacity="0" result="BackgroundImageFix"/><feBlend in="SourceGraphic" in2="BackgroundImageFix" mode="normal" result="shape"/><feColorMatrix in="SourceAlpha" result="hardAlpha" type="matrix" values="0 0 0 0 0 0 0 0 0 0 0 0 0 0 0 0 0 0 127 0"/><feOffset dy="-3"/><feGaussianBlur stdDeviation="1.5"/><feComposite in2="hardAlpha" k2="-1" k3="1" operator="arithmetic"/><feColorMatrix type="matrix" values="0 0 0 0 0 0 0 0 0 0 0 0 0 0 0 0 0 0 0.1 0"/><feBlend in2="shape" mode="normal" result="effect1_innerShadow_3051_46955"/><feColorMatrix in="SourceAlpha" result="hardAlpha" type="matrix" values="0 0 0 0 0 0 0 0 0 0 0 0 0 0 0 0 0 0 127 0"/><feOffset dy="3"/><feGaussianBlur stdDeviation="1.5"/><feComposite in2="hardAlpha" k2="-1" k3="1" operator="arithmetic"/><feColorMatrix type="matrix" values="0 0 0 0 1 0 0 0 0 1 0 0 0 0 1 0 0 0 0.1 0"/><feBlend in2="effect1_innerShadow_3051_46955" mode="normal" result="effect2_innerShadow_3051_46955"/><feColorMatrix in="SourceAlpha" result="hardAlpha" type="matrix" values="0 0 0 0 0 0 0 0 0 0 0 0 0 0 0 0 0 0 127 0"/><feMorphology in="SourceAlpha" operator="erode" radius="1" result="effect3_innerShadow_3051_46955"/><feOffset/><feComposite in2="hardAlpha" k2="-1" k3="1" operator="arithmetic"/><feColorMatrix type="matrix" values="0 0 0 0 0.0627451 0 0 0 0 0.0941176 0 0 0 0 0.156863 0 0 0 0.24 0"/><feBlend in2="effect2_innerShadow_3051_46955" mode="normal" result="effect3_innerShadow_3051_46955"/></filter><filter id="b" color-interpolation-filters="sRGB" filterUnits="userSpaceOnUse" height="42" width="36.002" x="6" y="5.25"><feFlood flood-opacity="0" result="BackgroundImageFix"/><feColorMatrix in="SourceAlpha" result="hardAlpha" type="matrix" values="0 0 0 0 0 0 0 0 0 0 0 0 0 0 0 0 0 0 127 0"/><feMorphology in="SourceAlpha" operator="erode" radius="1.5" result="effect1_dropShadow_3051_46955"/><feOffset dy="2.25"/><feGaussianBlur stdDeviation="2.25"/><feComposite in2="hardAlpha" operator="out"/><feColorMatrix type="matrix" values="0 0 0 0 0.141176 0 0 0 0 0.141176 0 0 0 0 0.141176 0 0 0 0.1 0"/><feBlend in2="BackgroundImageFix" mode="normal" result="effect1_dropShadow_3051_46955"/><feBlend in="SourceGraphic" in2="effect1_dropShadow_3051_46955" mode="normal" result="shape"/></filter><linearGradient id="c" gradientUnits="userSpaceOnUse" x1="24" x2="26" y1=".000001" y2="48"><stop offset="0" stop-color="#fff" stop-opacity="0"/><stop offset="1" stop-color="#fff" stop-opacity=".12"/></linearGradient><linearGradient id="d"><stop offset="0" stop-color="#fff" stop-opacity=".8"/><stop offset="1" stop-color="#fff" stop-opacity=".5"/></linearGradient><linearGradient id="e" gradientUnits="userSpaceOnUse" x1="21.1128" x2="21.1128" xlink:href="#d" y1="14.7742" y2="39"/><linearGradient id="f" gradientUnits="userSpaceOnUse" x1="26.8883" x2="26.8883" xlink:href="#d" y1="9" y2="33.2258"/><linearGradient id="g" gradientUnits="userSpaceOnUse" x1="24" x2="24" y1="0" y2="48"><stop offset="0" stop-color="#fff" stop-opacity=".12"/><stop offset="1" stop-color="#fff" stop-opacity="0"/></linearGradient><clipPath id="h"><rect height="48" rx="12" width="48"/></clipPath><g filter="url(#a)"><g clip-path="url(#h)"><rect fill="#7839ee" height="48" rx="12" width="48"/><path d="m0 0h48v48h-48z" fill="url(#c)"/><g filter="url(#b)"><path d="m33.2256 33.0001h-.0761c-.0196.0302-.0392.0603-.059.0903-2.0704 1.3651-4.5502 2.1596-7.2155 2.1596-7.2487 0-13.125-5.8763-13.125-13.125 0-2.6654.7945-5.1451 2.1595-7.2155.0301-.0198.0603-.0395.0905-.0591v-.0762c-.0304.0449-.0606.09-.0905.1353-3.5601 2.3474-5.9095 6.3821-5.9095 10.9655 0 7.2487 5.8763 13.125 13.125 13.125 4.5834 0 8.6181-2.3494 10.9655-5.9096.0452-.0298.0903-.0599.1351-.0903z" fill="url(#e)"/><g fill="url(#f)" opacity=".5"><path d="m39.0012 22.125c0 4.5834-2.3494 8.6181-5.9095 10.9655 1.365-2.0704 2.1595-4.5502 2.1595-7.2155 0-7.2487-5.8763-13.125-13.125-13.125-2.6653 0-5.1451.7945-7.2155 2.1595 2.3474-3.5601 6.3821-5.9095 10.9655-5.9095 7.2487 0 13.125 5.8763 13.125 13.125z"/><path d="m33.0012 33.1496c.0302-.0196.0604-.0393.0905-.0591-.0299.0453-.0601.0904-.0905.1353z"/><path d="m14.8516 15c.0196-.0302.0393-.0604.0591-.0905-.0453.0299-.0904.0601-.1353.0905z"/></g></g></g><rect height="46" rx="11" stroke="url(#g)" stroke-width="2" width="46" x="1" y="1"/></g></svg>