<svg fill="none" height="48" viewBox="0 0 216 48" width="216" xmlns="http://www.w3.org/2000/svg" xmlns:xlink="http://www.w3.org/1999/xlink"><filter id="a" color-interpolation-filters="sRGB" filterUnits="userSpaceOnUse" height="54" width="48" x="0" y="-3"><feFlood flood-opacity="0" result="BackgroundImageFix"/><feBlend in="SourceGraphic" in2="BackgroundImageFix" mode="normal" result="shape"/><feColorMatrix in="SourceAlpha" result="hardAlpha" type="matrix" values="0 0 0 0 0 0 0 0 0 0 0 0 0 0 0 0 0 0 127 0"/><feOffset dy="-3"/><feGaussianBlur stdDeviation="1.5"/><feComposite in2="hardAlpha" k2="-1" k3="1" operator="arithmetic"/><feColorMatrix type="matrix" values="0 0 0 0 0 0 0 0 0 0 0 0 0 0 0 0 0 0 0.1 0"/><feBlend in2="shape" mode="normal" result="effect1_innerShadow_3046_38757"/><feColorMatrix in="SourceAlpha" result="hardAlpha" type="matrix" values="0 0 0 0 0 0 0 0 0 0 0 0 0 0 0 0 0 0 127 0"/><feOffset dy="3"/><feGaussianBlur stdDeviation="1.5"/><feComposite in2="hardAlpha" k2="-1" k3="1" operator="arithmetic"/><feColorMatrix type="matrix" values="0 0 0 0 1 0 0 0 0 1 0 0 0 0 1 0 0 0 0.1 0"/><feBlend in2="effect1_innerShadow_3046_38757" mode="normal" result="effect2_innerShadow_3046_38757"/><feColorMatrix in="SourceAlpha" result="hardAlpha" type="matrix" values="0 0 0 0 0 0 0 0 0 0 0 0 0 0 0 0 0 0 127 0"/><feMorphology in="SourceAlpha" operator="erode" radius="1" result="effect3_innerShadow_3046_38757"/><feOffset/><feComposite in2="hardAlpha" k2="-1" k3="1" operator="arithmetic"/><feColorMatrix type="matrix" values="0 0 0 0 0.0627451 0 0 0 0 0.0941176 0 0 0 0 0.156863 0 0 0 0.24 0"/><feBlend in2="effect2_innerShadow_3046_38757" mode="normal" result="effect3_innerShadow_3046_38757"/></filter><filter id="b" color-interpolation-filters="sRGB" filterUnits="userSpaceOnUse" height="42" width="36" x="6" y="5.25"><feFlood flood-opacity="0" result="BackgroundImageFix"/><feColorMatrix in="SourceAlpha" result="hardAlpha" type="matrix" values="0 0 0 0 0 0 0 0 0 0 0 0 0 0 0 0 0 0 127 0"/><feMorphology in="SourceAlpha" operator="erode" radius="1.5" result="effect1_dropShadow_3046_38757"/><feOffset dy="2.25"/><feGaussianBlur stdDeviation="2.25"/><feComposite in2="hardAlpha" operator="out"/><feColorMatrix type="matrix" values="0 0 0 0 0.141176 0 0 0 0 0.141176 0 0 0 0 0.141176 0 0 0 0.1 0"/><feBlend in2="BackgroundImageFix" mode="normal" result="effect1_dropShadow_3046_38757"/><feBlend in="SourceGraphic" in2="effect1_dropShadow_3046_38757" mode="normal" result="shape"/></filter><linearGradient id="c" gradientUnits="userSpaceOnUse" x1="24" x2="26" y1=".000001" y2="48"><stop offset="0" stop-color="#fff" stop-opacity="0"/><stop offset="1" stop-color="#fff" stop-opacity=".12"/></linearGradient><linearGradient id="d" gradientUnits="userSpaceOnUse" x1="24" x2="24" y1="9" y2="39"><stop offset="0" stop-color="#fff" stop-opacity=".8"/><stop offset="1" stop-color="#fff" stop-opacity=".5"/></linearGradient><linearGradient id="e" gradientUnits="userSpaceOnUse" x1="24" x2="24" y1="0" y2="48"><stop offset="0" stop-color="#fff" stop-opacity=".12"/><stop offset="1" stop-color="#fff" stop-opacity="0"/></linearGradient><clipPath id="f"><rect height="48" rx="12" width="48"/></clipPath><g filter="url(#a)"><g clip-path="url(#f)"><rect fill="#ff4405" height="48" rx="12" width="48"/><path d="m0 0h48v48h-48z" fill="url(#c)"/><g filter="url(#b)"><path clip-rule="evenodd" d="m19.2859 9c-1.6923 0-3.3152.67225-4.5118 1.8689l-5.7741 5.774v2.643c0 1.8673.80208 3.5472 2.0805 4.7141-1.27842 1.1668-2.0805 2.8468-2.0805 4.714v2.643l5.7741 5.7741c1.1966 1.1967 2.8195 1.8689 4.5118 1.8689 1.8673 0 3.5472-.8021 4.7141-2.0805 1.1668 1.2784 2.8468 2.0805 4.7141 2.0805 1.6923 0 3.3152-.6722 4.5118-1.8689l5.7741-5.7741v-2.643c0-1.8672-.802-3.5472-2.0805-4.714 1.2785-1.1669 2.0805-2.8468 2.0805-4.7141v-2.643l-5.7741-5.774c-1.1966-1.19665-2.8195-1.8689-4.5118-1.8689-1.8673 0-3.5473.80208-4.7141 2.0805-1.1669-1.27842-2.8468-2.0805-4.7141-2.0805zm9.0332 15c-.0719-.0656-.1425-.1331-.2116-.2022l-4.1075-4.1075-4.1074 4.1075c-.0692.0691-.1398.1366-.2117.2022.0719.0656.1425.133.2117.2022l4.1074 4.1074 4.1075-4.1074c.0691-.0692.1397-.1366.2116-.2022zm-2.6524 7.357v1.2623c0 1.683 1.3643 3.0474 3.0474 3.0474.8082 0 1.5833-.3211 2.1548-.8926l4.7978-4.7978v-1.2623c0-1.683-1.3644-3.0474-3.0474-3.0474-.8082 0-1.5833.3211-2.1548.8926zm-3.3334 0-4.7978-4.7978c-.5715-.5715-1.3466-.8926-2.1548-.8926-1.683 0-3.0474 1.3644-3.0474 3.0474v1.2623l4.7978 4.7978c.5715.5715 1.3466.8926 2.1548.8926 1.683 0 3.0474-1.3644 3.0474-3.0474zm0-15.9763v1.2622l-4.7978 4.7979c-.5715.5715-1.3466.8925-2.1548.8925-1.683 0-3.0474-1.3644-3.0474-3.0474v-1.2622l4.7978-4.7978c.5715-.5715 1.3466-.8926 2.1548-.8926 1.683 0 3.0474 1.3644 3.0474 3.0474zm8.1312 6.0601-4.7978-4.7979v-1.2622c0-1.683 1.3643-3.0474 3.0474-3.0474.8082 0 1.5833.3211 2.1548.8926l4.7978 4.7978v1.2622c0 1.683-1.3644 3.0474-3.0474 3.0474-.8082 0-1.5833-.321-2.1548-.8925z" fill="url(#d)" fill-rule="evenodd"/></g></g><rect height="46" rx="11" stroke="url(#e)" stroke-width="2" width="46" x="1" y="1"/></g><g fill="#fff"><path d="m71.425 15.45v3.425h-7.15v3.7h5.35v3.325h-5.35v7.1h-4.275v-17.55z"/><path d="m77.4469 14.5v18.5h-4.275v-18.5z"/><path d="m86.3949 33.2c-1.3666 0-2.6-.2917-3.7-.875-1.0833-.5833-1.9416-1.4167-2.575-2.5-.6166-1.0833-.925-2.35-.925-3.8 0-1.4333.3167-2.6917.95-3.775.6334-1.1 1.5-1.9417 2.6-2.525s2.3334-.875 3.7-.875c1.3667 0 2.6.2917 3.7.875s1.9667 1.425 2.6 2.525c.6334 1.0833.95 2.3417.95 3.775s-.325 2.7-.975 3.8c-.6333 1.0833-1.5083 1.9167-2.625 2.5-1.1.5833-2.3333.875-3.7.875zm0-3.7c.8167 0 1.5084-.3 2.075-.9.5834-.6.875-1.4583.875-2.575s-.2833-1.975-.85-2.575c-.55-.6-1.2333-.9-2.05-.9-.8333 0-1.525.3-2.075.9-.55.5833-.825 1.4417-.825 2.575 0 1.1167.2667 1.975.8 2.575.55.6 1.2334.9 2.05.9z"/><path d="m99.7379 21.375c.5001-.7667 1.1251-1.3667 1.8751-1.8.75-.45 1.583-.675 2.5-.675v4.525h-1.175c-1.067 0-1.867.2333-2.4.7-.533.45-.8001 1.25-.8001 2.4v6.475h-4.275v-13.95h4.275z"/><path d="m104.806 26c0-1.4333.267-2.6917.8-3.775.55-1.0833 1.292-1.9167 2.225-2.5.934-.5833 1.975-.875 3.125-.875.984 0 1.842.2 2.575.6.75.4 1.325.925 1.725 1.575v-1.975h4.275v13.95h-4.275v-1.975c-.416.65-1 1.175-1.75 1.575-.733.4-1.591.6-2.575.6-1.133 0-2.166-.2917-3.1-.875-.933-.6-1.675-1.4417-2.225-2.525-.533-1.1-.8-2.3667-.8-3.8zm10.45.025c0-1.0667-.3-1.9083-.9-2.525-.583-.6167-1.3-.925-2.15-.925s-1.575.3083-2.175.925c-.583.6-.875 1.4333-.875 2.5s.292 1.9167.875 2.55c.6.6167 1.325.925 2.175.925s1.567-.3083 2.15-.925c.6-.6167.9-1.4583.9-2.525z"/><path d="m133.149 33-1.525-2.1c-.483.6833-1.133 1.2333-1.95 1.65-.8.4167-1.7.625-2.7.625-1.133 0-2.133-.2417-3-.725-.85-.4833-1.508-1.1333-1.975-1.95-.45-.8333-.675-1.7583-.675-2.775 0-1.3667.383-2.525 1.15-3.475s1.733-1.525 2.9-1.725c-.417-.5667-.725-1.1167-.925-1.65-.2-.55-.3-1.125-.3-1.725 0-.75.2-1.4583.6-2.125s.983-1.2 1.75-1.6c.783-.4 1.717-.6 2.8-.6 1.5 0 2.683.3417 3.55 1.025.883.6833 1.425 1.5417 1.625 2.575.1.45.15.9083.15 1.375 0 .3667-.017.6417-.05.825h-4.05c.067-.3.083-.6417.05-1.025-.017-.3667-.133-.6583-.35-.875-.217-.2333-.508-.35-.875-.35-.333 0-.608.1083-.825.325-.2.2167-.3.4833-.3.8 0 .2333.05.475.15.725.117.2333.308.5333.575.9l8.725 11.875zm-6.15-3.35c.567 0 1.042-.1917 1.425-.575s.575-.8667.575-1.45c0-.5667-.192-1.0333-.575-1.4-.383-.3833-.858-.575-1.425-.575s-1.042.1917-1.425.575c-.367.3667-.55.8333-.55 1.4 0 .5833.183 1.0667.55 1.45.383.3833.858.575 1.425.575z"/><path d="m150.31 15.45v3.425h-7.15v3.7h5.35v3.325h-5.35v7.1h-4.275v-17.55z"/><path d="m151.207 26c0-1.4333.266-2.6917.8-3.775.55-1.0833 1.291-1.9167 2.225-2.5.933-.5833 1.975-.875 3.125-.875.983 0 1.841.2 2.575.6.75.4 1.325.925 1.725 1.575v-1.975h4.275v13.95h-4.275v-1.975c-.417.65-1 1.175-1.75 1.575-.734.4-1.592.6-2.575.6-1.134 0-2.167-.2917-3.1-.875-.934-.6-1.675-1.4417-2.225-2.525-.534-1.1-.8-2.3667-.8-3.8zm10.45.025c0-1.0667-.3-1.9083-.9-2.525-.584-.6167-1.3-.925-2.15-.925s-1.575.3083-2.175.925c-.584.6-.875 1.4333-.875 2.5s.291 1.9167.875 2.55c.6.6167 1.325.925 2.175.925s1.566-.3083 2.15-.925c.6-.6167.9-1.4583.9-2.525z"/><path d="m182.299 19.05v13.95h-4.275v-1.9c-.433.6167-1.025 1.1167-1.775 1.5-.733.3667-1.55.55-2.45.55-1.066 0-2.008-.2333-2.825-.7-.816-.4833-1.45-1.175-1.9-2.075s-.675-1.9583-.675-3.175v-8.15h4.25v7.575c0 .9333.242 1.6583.725 2.175.484.5167 1.134.775 1.95.775.834 0 1.492-.2583 1.975-.775.484-.5167.725-1.2417.725-2.175v-7.575z"/><path d="m193.37 18.9c1.633 0 2.933.5333 3.9 1.6.983 1.05 1.475 2.5 1.475 4.35v8.15h-4.25v-7.575c0-.9333-.242-1.6583-.725-2.175s-1.133-.775-1.95-.775-1.467.2583-1.95.775-.725 1.2417-.725 2.175v7.575h-4.275v-13.95h4.275v1.85c.433-.6167 1.017-1.1 1.75-1.45.733-.3667 1.558-.55 2.475-.55z"/><path d="m200.366 26c0-1.4333.266-2.6917.8-3.775.55-1.0833 1.291-1.9167 2.225-2.5.933-.5833 1.975-.875 3.125-.875.983 0 1.841.2 2.575.6.75.4 1.325.925 1.725 1.575v-1.975h4.275v13.95h-4.275v-1.975c-.417.65-1 1.175-1.75 1.575-.734.4-1.592.6-2.575.6-1.134 0-2.167-.2917-3.1-.875-.934-.6-1.675-1.4417-2.225-2.525-.534-1.1-.8-2.3667-.8-3.8zm10.45.025c0-1.0667-.3-1.9083-.9-2.525-.584-.6167-1.3-.925-2.15-.925s-1.575.3083-2.175.925c-.584.6-.875 1.4333-.875 2.5s.291 1.9167.875 2.55c.6.6167 1.325.925 2.175.925s1.566-.3083 2.15-.925c.6-.6167.9-1.4583.9-2.525z"/></g></svg>