<svg fill="none" height="32" viewBox="0 0 107 32" width="107" xmlns="http://www.w3.org/2000/svg"><g fill="#181d27"><path d="m43.9101 10.2372c.322.2983.7078.4474 1.1577.4474.4498 0 .8333-.1491 1.1505-.4474.322-.30306.483-.66527.483-1.08668 0-.41666-.161-.77414-.483-1.07244-.3172-.30303-.7007-.45454-1.1505-.45454-.4499 0-.8357.15151-1.1577.45454-.3173.2983-.4759.65578-.4759 1.07244 0 .42141.1586.78362.4759 1.08668z"/><path d="m21.2997 20.6846c.5066-.7954.76-1.7235.76-2.7841v-9.446h-3.0753v9.1832c0 .554-.1231 1.0464-.3693 1.4773-.2415.4309-.5848.7694-1.0299 1.0156-.4403.2463-.9588.3694-1.5554.3694-.5918 0-1.1103-.1231-1.5554-.3694-.445-.2462-.7907-.5847-1.0369-1.0156-.2415-.4309-.3622-.9233-.3622-1.4773v-9.1832h-3.0753v9.446c0 1.0606.2509 1.9887.7528 2.7841.5019.7955 1.2051 1.4157 2.1094 1.8608.9044.4404 1.9602.6605 3.1676.6605 1.2027 0 2.2562-.2201 3.1605-.6605.9044-.4451 1.6075-1.0653 2.1094-1.8608z"/><path d="m28.3589 12.5099c-.5682.3693-.973.8712-1.2145 1.5057h-.1279v-1.9247h-2.8835v10.9091h3.0256v-6.3069c.0047-.4687.0923-.8688.2628-1.2002.1752-.3362.4166-.5919.7244-.7671.3125-.1752.6724-.2628 1.0796-.2628.606 0 1.0819.1894 1.4275.5682.3457.3741.5161.8949.5114 1.5625v6.4063h3.0255v-6.9461c0-.8475-.1562-1.5767-.4687-2.1875-.3125-.6155-.7505-1.089-1.3139-1.4204-.5635-.3315-1.224-.4972-1.9816-.4972-.8096 0-1.4985.187-2.0667.5611z"/><path d="m37.3463 21.821c-.303-.4688-.4522-1.0606-.4474-1.7756v-5.6818h-1.4915v-2.2727h1.4915v-2.61367h3.0255v2.61367h2.0526v2.2727h-2.0526v5.2841c0 .2793.0426.4971.1279.6534.0852.1515.2036.258.3551.3196.1562.0615.3362.0923.5398.0923.142 0 .2841-.0118.4261-.0355.142-.0284.2509-.0497.3267-.0639l.4759 2.2514c-.1516.0474-.3646.1018-.6393.1634-.2746.0663-.6084.1065-1.0014.1207-.7291.0284-1.3683-.0687-1.9176-.2912-.5445-.2225-.9683-.5682-1.2713-1.0369z"/><path d="m49.769 21.821c-.3031-.4688-.4522-1.0606-.4475-1.7756v-5.6818h-1.4915v-2.2727h1.4915v-2.61367h3.0256v2.61367h2.0525v2.2727h-2.0525v5.2841c0 .2793.0426.4971.1278.6534.0853.1515.2036.258.3551.3196.1563.0615.3362.0923.5398.0923.1421 0 .2841-.0118.4262-.0355.142-.0284.2509-.0497.3267-.0639l.4758 2.2514c-.1515.0474-.3646.1018-.6392.1634-.2746.0663-.6084.1065-1.0014.1207-.7292.0284-1.3684-.0687-1.9176-.2912-.5445-.2225-.9683-.5682-1.2713-1.0369z"/><path clip-rule="evenodd" d="m66.2257 23.213c-1.1222 0-2.0881-.2272-2.8977-.6818-.8049-.4593-1.4252-1.1079-1.8608-1.946-.4356-.8428-.6534-1.8395-.6534-2.9901 0-1.1221.2178-2.107.6534-2.9545.4356-.8476 1.0488-1.5081 1.8395-1.9816.7954-.4734 1.7282-.7102 2.7983-.7102.7197 0 1.3896.116 2.0099.348.625.2273 1.1695.5706 1.6335 1.0299.4688.4592.8334 1.0369 1.0938 1.7329.2604.6913.3906 1.501.3906 2.429v.831h-7.429v.0071c0 .5397.0995 1.0061.2983 1.3991.2036.393.4901.696.8594.9091s.8073.3196 1.3139.3196c.3362 0 .644-.0473.9233-.142.2794-.0947.5185-.2368.7173-.4262.1989-.1894.3504-.4214.4546-.696l2.7983.1847c-.1421.6723-.4332 1.2594-.8736 1.7613-.4356.4972-.999.8854-1.6903 1.1648-.6866.2746-1.4797.4119-2.3793.4119zm-2.1165-7.8409c-.1834.3232-.2843.6807-.3025 1.0725h4.5781c0-.4356-.0947-.8215-.2841-1.1577s-.4522-.599-.7883-.7884c-.3315-.1941-.7174-.2912-1.1577-.2912-.4593 0-.8665.1066-1.2216.3196-.3504.2084-.625.4901-.8239.8452z" fill-rule="evenodd"/><path clip-rule="evenodd" d="m74.5757 22.5383c.6724.4261 1.4228.6392 2.2514.6392.5872 0 1.0843-.0971 1.4915-.2912.4119-.1941.7457-.438 1.0014-.7315.2604-.2983.4617-.599.6037-.902h.1279v1.7472h2.9829v-14.5455h-3.0184v5.4688h-.0924c-.1326-.2936-.3267-.5919-.5824-.8949-.2509-.3078-.5824-.5635-.9943-.7671-.4072-.2083-.9162-.3125-1.527-.3125-.8002 0-1.5364.2084-2.2088.625-.6676.412-1.2026 1.0346-1.6051 1.8679-.4025.8286-.6037 1.8679-.6037 3.1179 0 1.2169.1941 2.2443.5824 3.0824.393.8333.9233 1.4654 1.5909 1.8963zm4.446-2.1662c-.3361.2652-.7481.3977-1.2358.3977-.4971 0-.9161-.1349-1.2571-.4048-.3361-.2746-.5942-.6534-.7741-1.1364-.1752-.4876-.2628-1.0487-.2628-1.6832 0-.6297.0876-1.1837.2628-1.6619s.4332-.8523.7741-1.1222c.341-.2699.76-.4048 1.2571-.4048.4877 0 .902.1302 1.2429.3906.341.2604.6014.6297.7813 1.108.1799.4782.2699 1.0416.2699 1.6903s-.0924 1.2145-.277 1.6975c-.1799.4829-.4404.8593-.7813 1.1292z" fill-rule="evenodd"/><path d="m98.0229 19.115c.2462-.4309.3693-.9233.3693-1.4773v-9.1832h3.0748v9.446c0 1.0606-.253 1.9887-.759 2.7841-.502.7955-1.2055 1.4157-2.1098 1.8608-.9044.4404-1.9579.6605-3.1606.6605-1.2073 0-2.2632-.2201-3.1676-.6605-.9043-.4451-1.6075-1.0653-2.1093-1.8608-.5019-.7954-.7529-1.7235-.7529-2.7841v-9.446h3.0753v9.1832c0 .554.1207 1.0464.3622 1.4773.2462.4309.5919.7694 1.0369 1.0156.4451.2463.9636.3694 1.5554.3694.5966 0 1.1151-.1231 1.5554-.3694.4451-.2462.7884-.5847 1.0299-1.0156z"/><path d="m43.5479 12.0909v10.9091h3.0255v-10.9091z"/><path d="m59.2305 23v-14.5455h-3.0256v14.5455z"/><path d="m106.673 23v-14.5455h-3.075v14.5455z"/></g></svg>