<svg xmlns="http://www.w3.org/2000/svg" width="140" height="48" fill="#181d27" xmlns:v="https://vecta.io/nano"><path d="M50.998 18.557h6.632l.777-4.952H46.049l-3.382 21.448h12.358l.747-4.777h-6.633l.571-3.559h6.178l.717-4.659h-6.149l.541-3.501zm9.651-6.213l-3.617 22.708h5.242l3.631-22.708h-5.256zm12.789 7.442c-2.518 0-4.57.791-6.157 2.373s-2.38 3.638-2.38 6.169c0 2.315.666 4.115 1.999 5.399s3.204 1.927 5.616 1.928a10.71 10.71 0 0 0 3.685-.601c1.084-.392 2.074-1.006 2.906-1.803l-2.813-2.842a7.65 7.65 0 0 1-1.843 1.297 4.24 4.24 0 0 1-1.823.403c-.919 0-1.617-.244-2.095-.733s-.715-1.203-.711-2.145v-.337h11.084l.044-.352.089-1.113c0-2.306-.696-4.157-2.088-5.553s-3.229-2.093-5.512-2.089zm-3.26 6.109a4.2 4.2 0 0 1 1.297-1.918c.545-.45 1.232-.694 1.939-.689.801 0 1.446.236 1.933.709s.756 1.107.805 1.904l-5.974-.006zm20.754-6.18c-2.597 0-4.695.793-6.296 2.38s-2.401 3.654-2.401 6.204c0 2.18.647 3.946 1.94 5.297s2.985 2.028 5.073 2.03c.641-.002 1.28-.061 1.911-.176a13.21 13.21 0 0 0 2.016-.549l.789-4.863a6.45 6.45 0 0 1-1.619.923 4.75 4.75 0 0 1-1.69.308c-.918 0-1.646-.284-2.183-.85s-.806-1.34-.806-2.32c0-1.172.347-2.156 1.04-2.952a3.28 3.28 0 0 1 2.577-1.194 3.76 3.76 0 0 1 1.735.425c.614.333 1.166.769 1.633 1.29l.716-4.527a6.9 6.9 0 0 0-2.064-1.062c-.767-.243-1.567-.366-2.371-.363zm16.289.542h-2.649l.687-4.293h-5.213l-.658 4.293h-2.461l-.6 3.779h2.459l-1.742 11.017h5.197l1.728-11.017h2.65l.6-3.779zm10.866-.331a3.55 3.55 0 0 0-.366-.021 4.92 4.92 0 0 0-2.693.733c-.803.526-1.441 1.267-1.842 2.139l.367-2.52h-5.012l-2.343 14.796h5.155l1.053-6.752c.216-1.323.613-2.298 1.194-2.924s1.373-.941 2.379-.944a5.75 5.75 0 0 1 .791.058l.922.176 1.04-4.648-.645-.092zm5.288-1.252a2.8 2.8 0 0 0 2.621-1.747 2.82 2.82 0 0 0 .206-1.088c.01-.37-.056-.738-.195-1.081a2.67 2.67 0 0 0-.611-.912c-.265-.258-.582-.466-.929-.602a2.77 2.77 0 0 0-1.092-.189 2.79 2.79 0 0 0-1.965.818c-.521.522-.814 1.229-.816 1.966a2.77 2.77 0 0 0 .202 1.083 2.76 2.76 0 0 0 .61.917c.253.268.558.48.897.624a2.65 2.65 0 0 0 1.072.211zm-5.505 16.379h5.243l2.343-14.796h-5.257l-2.329 14.796zm19.06-14.979a7.77 7.77 0 0 0-2.374-.359c-2.595 0-4.693.793-6.294 2.38s-2.402 3.654-2.402 6.204c0 2.18.646 3.945 1.94 5.297s2.985 2.028 5.074 2.03c.641-.002 1.281-.061 1.91-.176a13.2 13.2 0 0 0 2.014-.543l.79-4.863c-.492.384-1.036.695-1.617.923a4.77 4.77 0 0 1-1.689.308c-.918 0-1.645-.283-2.182-.85s-.806-1.342-.808-2.326c0-1.172.347-2.156 1.039-2.952a3.28 3.28 0 0 1 1.153-.89 3.29 3.29 0 0 1 1.426-.303 3.76 3.76 0 0 1 1.733.425 6.06 6.06 0 0 1 1.633 1.29l.719-4.527a6.92 6.92 0 0 0-2.065-1.066zM28.132 9.438l-.986 2.833A14.9 14.9 0 0 1 14.92 38.69l-2.405 2.319a17.74 17.74 0 0 0 5.637.92c9.805 0 17.781-7.978 17.781-17.784a17.78 17.78 0 0 0-7.802-14.708zM8.811 35.756a14.89 14.89 0 0 1-5.179-8.19c-.765-3.231-.429-6.625.956-9.643s3.738-5.487 6.686-7.014 6.322-2.026 9.586-1.416l2.416-2.371a17.75 17.75 0 0 0-5.129-.758C8.341 6.363.365 14.341.365 24.146a17.77 17.77 0 0 0 1.948 8.091c1.281 2.505 3.137 4.67 5.417 6.318l1.082-2.799zm13.287-14.39L27.91 4.667 5.604 26.569h8.383L7.498 43.334l22.914-21.968h-8.314z"/></svg>