<svg xmlns="http://www.w3.org/2000/svg" width="160" height="48" fill="none" xmlns:v="https://vecta.io/nano"><g clip-path="url(#A)" fill="#181d27"><path d="M36.915 22.904H5.553c-.799 0-1.452-.653-1.452-1.452v-2.214A4.54 4.54 0 0 1 8.639 14.7h25.154a4.54 4.54 0 0 1 4.537 4.537v2.214c.036.799-.617 1.452-1.416 1.452zm-6.606-10.599H12.16c-.799 0-1.488-.653-1.488-1.488 0-3.702 3.013-6.715 6.715-6.715h7.695c3.702 0 6.715 3.013 6.715 6.715a1.47 1.47 0 0 1-1.488 1.488zM38.367 25.3H4.102C1.851 25.3 0 27.151 0 29.401s1.851 4.102 4.102 4.102h12.16a5.03 5.03 0 0 1 4.937-4.102 5.07 5.07 0 0 1 4.973 4.102h12.16c2.251 0 4.102-1.851 4.102-4.102S40.617 25.3 38.367 25.3zm-1.488 10.599H26.243v8.203h7.985c2.25 0 4.102-1.851 4.102-4.102v-2.614c.036-.798-.617-1.488-1.452-1.488zm-31.325-.001c-.799 0-1.488.653-1.488 1.488V40c0 2.25 1.851 4.102 4.102 4.102h7.985v-8.203c.036 0-10.599 0-10.599 0zm69.364-8.93c0 4.465-3.085 7.332-7.114 7.332-1.924 0-3.448-.617-4.465-1.851v1.633h-3.956V14.445h4.138v6.933c1.053-1.162 2.505-1.742 4.283-1.742 3.993 0 7.114 2.867 7.114 7.332zm-4.21 0c0-2.468-1.561-3.957-3.63-3.957s-3.63 1.488-3.63 3.957 1.561 3.956 3.63 3.956 3.63-1.488 3.63-3.956zm17.713 2.65l2.214 2.396c-1.307 1.525-3.303 2.287-5.88 2.287-4.937 0-8.131-3.085-8.131-7.332s3.23-7.332 7.623-7.332c4.029 0 7.332 2.65 7.368 7.223l-10.563 2.033c.617 1.416 1.924 2.105 3.775 2.105 1.525 0 2.613-.436 3.593-1.379zm-7.768-3.085l6.933-1.343c-.399-1.452-1.633-2.432-3.376-2.432-2.033 0-3.485 1.379-3.557 3.775zm24.465 3.085l2.214 2.396c-1.307 1.525-3.303 2.287-5.88 2.287-4.937 0-8.131-3.085-8.131-7.332s3.23-7.332 7.623-7.332c4.029 0 7.332 2.65 7.368 7.223l-10.526 2.033c.617 1.416 1.924 2.105 3.775 2.105 1.488 0 2.577-.436 3.557-1.379zm-7.768-3.085l6.933-1.343c-.399-1.452-1.633-2.432-3.376-2.432-2.032 0-3.448 1.379-3.557 3.775zm28.312-.581v8.167h-4.138v-7.55c0-2.287-1.052-3.376-2.903-3.376-1.997 0-3.412 1.234-3.412 3.848v7.042h-4.138V14.445h4.138v6.897c1.125-1.125 2.722-1.706 4.537-1.706 3.375 0 5.916 1.96 5.916 6.316zm3.231-10.418c0-1.307 1.052-2.323 2.577-2.323s2.577.944 2.577 2.214c0 1.379-1.053 2.396-2.577 2.396s-2.577-.98-2.577-2.287zm.508 4.319h4.138v14.265h-4.138V19.853zm7.477-4.319c0-1.307 1.053-2.323 2.577-2.323s2.578.944 2.578 2.214c0 1.379-1.053 2.396-2.578 2.396s-2.577-.98-2.577-2.287zm.508 4.319h4.138v14.265h-4.138V19.853zm22.106 0l-6.026 14.265h-4.283l-5.989-14.265h4.283l3.957 9.691 4.065-9.691h3.993z"/></g><defs><clipPath id="A"><path fill="#fff" transform="translate(0 4.1)" d="M0 0h159.492v40H0z"/></clipPath></defs></svg>