<svg fill="none" height="20" viewBox="0 0 16 20" width="16" xmlns="http://www.w3.org/2000/svg"><path d="m2 15.9999c0-1.6568 1.34317-3 3.00003-3h3.00003v3c0 1.6569-1.34317 3-3.00003 3s-3.00003-1.3431-3.00003-3z" fill="#24cb71"/><path d="m8 1v6.00006h3c1.6569 0 3.0001-1.34317 3.0001-3.00003s-1.3432-3.00003-3.0001-3.00003z" fill="#ff7237"/><path d="m11 13.0001c1.6569 0 3.0001-1.3432 3.0001-3.0001 0-1.65684-1.3432-3-3.0001-3-1.65684 0-3 1.34316-3 3 0 1.6569 1.34316 3.0001 3 3.0001z" fill="#00b6ff"/><path d="m2 4.00003c0 1.65686 1.34317 3.00003 3.00003 3.00003h3.00003v-6.00006h-3.00003c-1.65686 0-3.00003 1.34317-3.00003 3.00003z" fill="#ff3737"/><path d="m2 10c0 1.6569 1.34317 3.0001 3.00003 3.0001h3.00003v-6.0001h-3.00003c-1.65686 0-3.00003 1.34317-3.00003 3z" fill="#874fff"/></svg>