<svg xmlns="http://www.w3.org/2000/svg" width="137" height="48" fill="#181d27" xmlns:v="https://vecta.io/nano"><path d="M79.619 4.102V0l13.479 5.442v3.349l-13.479 5.442v-4.186l7.87-2.93-7.87-3.014zM5.191 36C2.344 36 0 34.577 0 31.395v-.168c0-3.851 3.349-5.191 7.451-5.191h1.926v-.753c0-1.591-.67-2.512-2.344-2.512-1.507 0-2.26.837-2.344 2.009H.502c.335-3.516 3.098-5.191 6.781-5.191 3.767 0 6.53 1.591 6.53 5.526v10.549h-4.27v-1.842C8.707 34.995 7.284 36 5.191 36zm4.186-5.526v-1.507H7.619c-2.177 0-3.265.586-3.265 2.009v.167c0 1.088.67 1.842 2.177 1.842 1.507-.084 2.847-.921 2.847-2.512zM23.777 36c-4.353 0-7.535-2.679-7.535-8.037v-.251c0-5.358 3.349-8.205 7.535-8.205 3.6 0 6.53 1.842 6.865 5.944h-4.186c-.251-1.507-1.088-2.512-2.595-2.512-1.842 0-3.181 1.507-3.181 4.605v.502c0 3.181 1.172 4.605 3.181 4.605 1.507 0 2.595-1.088 2.847-2.847h4.019c-.253 3.684-2.68 6.196-6.95 6.196zm16.409 0c-4.353 0-7.535-2.679-7.535-8.037v-.251c0-5.358 3.349-8.205 7.535-8.205 3.6 0 6.53 1.842 6.865 5.944h-4.186c-.251-1.507-1.088-2.512-2.595-2.512-1.842 0-3.181 1.507-3.181 4.605v.502c0 3.181 1.172 4.605 3.181 4.605 1.507 0 2.595-1.088 2.847-2.847h4.019c-.252 3.684-2.68 6.196-6.95 6.196zm16.493 0c-4.521 0-7.619-2.679-7.619-7.954v-.335c0-5.274 3.265-8.205 7.535-8.205 3.935 0 7.2 2.177 7.2 7.451v1.926H53.498c.167 2.846 1.423 3.935 3.265 3.935 1.674 0 2.595-.921 2.93-2.009h4.102C63.293 33.739 60.781 36 56.679 36zm-3.098-10.047h5.86c-.084-2.344-1.172-3.349-2.93-3.349-1.34.084-2.595.837-2.93 3.349zm12.893-6.028h4.437v2.344c.753-1.507 2.344-2.679 4.772-2.679 2.846 0 4.772 1.758 4.772 5.526v10.549h-4.437v-9.879c0-1.842-.754-2.679-2.344-2.679-1.507 0-2.763.921-2.763 2.93v9.628h-4.437v-15.74zm22.102-4.772v4.772h3.014v3.265h-3.014v7.451c0 1.172.502 1.758 1.591 1.758.67 0 1.088-.084 1.507-.251v3.433c-.502.167-1.423.335-2.512.335-3.433 0-5.023-1.591-5.023-4.772v-7.953h-1.842v-3.265h1.842v-2.93l4.437-1.842zm19.59 20.512h-4.353v-2.344c-.753 1.507-2.26 2.679-4.604 2.679-2.847 0-4.939-1.758-4.939-5.442V19.925h4.437v10.047c0 1.842.754 2.679 2.26 2.679s2.763-1.005 2.763-2.93v-9.795h4.437v15.74zm3.266-15.74h4.437v2.93c.921-2.093 2.428-3.098 4.772-3.098v4.354c-3.014 0-4.772.921-4.772 3.516v8.121h-4.437V19.925zM129.6 36c-4.521 0-7.619-2.679-7.619-7.954v-.335c0-5.274 3.266-8.205 7.535-8.205 3.935 0 7.2 2.177 7.2 7.451v1.926h-10.214c.168 2.846 1.424 3.935 3.265 3.935 1.675 0 2.596-.921 2.931-2.009h4.102c-.67 2.93-3.098 5.191-7.2 5.191zm-3.181-10.047h5.944c-.084-2.344-1.172-3.349-2.93-3.349-1.34.084-2.596.837-3.014 3.349z"/></svg>