<svg fill="none" height="20" viewBox="0 0 20 20" width="20" xmlns="http://www.w3.org/2000/svg"><path d="m10.0013 17.5-.08338-.1251c-.57887-.8683-.8683-1.3024-1.2507-1.6167-.33854-.2783-.72861-.487-1.14791-.6144-.47363-.1438-.99542-.1438-2.03899-.1438h-1.14568c-.93343 0-1.40014 0-1.75666-.1817-.3136-.1597-.56857-.4147-.72836-.7283-.18165-.3565-.18165-.8232-.18165-1.7567v-7.16663c0-.93342 0-1.40013.18165-1.75665.15979-.31361.41476-.56858.72836-.72836.35652-.18166.82323-.18166 1.75666-.18166h.33333c1.86684 0 2.80026 0 3.5133.36331.62721.31958 1.13714.82951 1.45672 1.45672.36331.71304.36331 1.64646.36331 3.5133m0 9.66667v-9.66667m0 9.66667.0834-.1251c.5788-.8683.8683-1.3024 1.2507-1.6167.3385-.2783.7286-.487 1.1479-.6144.4736-.1438.9954-.1438 2.039-.1438h1.1457c.9334 0 1.4001 0 1.7566-.1817.3136-.1597.5686-.4147.7284-.7283.1816-.3565.1816-.8232.1816-1.7567v-7.16663c0-.93342 0-1.40013-.1816-1.75665-.1598-.31361-.4148-.56858-.7284-.72836-.3565-.18166-.8232-.18166-1.7566-.18166h-.3334c-1.8668 0-2.8002 0-3.5133.36331-.6272.31958-1.1371.82951-1.4567 1.45672-.3633.71304-.3633 1.64646-.3633 3.5133" stroke="#a4a7ae" stroke-linecap="round" stroke-linejoin="round" stroke-width="1.75"/></svg>