<svg fill="none" height="24" viewBox="0 0 24 24" width="24" xmlns="http://www.w3.org/2000/svg"><path d="m0 0h24v24h-24z" fill="#000"/><g clip-rule="evenodd" fill-rule="evenodd"><path d="m11.9955 12c0-1.4176 1.1491-2.56671 2.5666-2.56671s2.5667 1.14911 2.5667 2.56671c0 1.4175-1.1492 2.5667-2.5667 2.5667s-2.5666-1.1492-2.5666-2.5667z" fill="#00b6ff"/><path d="m6.86201 17.1333c0-1.4175 1.14913-2.5666 2.56667-2.5666h2.56662v2.5666c0 1.4176-1.1491 2.5667-2.56662 2.5667-1.41754 0-2.56667-1.1491-2.56667-2.5667z" fill="#24cb71"/><path d="m11.9955 4.30002v5.13333h2.5666c1.4175 0 2.5667-1.14913 2.5667-2.56666 0-1.41754-1.1492-2.56667-2.5667-2.56667z" fill="#ff7237"/><path d="m6.86201 6.86669c0 1.41753 1.14913 2.56666 2.56667 2.56666h2.56662v-5.13333h-2.56662c-1.41754 0-2.56667 1.14913-2.56667 2.56667z" fill="#ff3737"/><path d="m6.86201 12c0 1.4175 1.14913 2.5667 2.56667 2.5667h2.56662v-5.13341h-2.56662c-1.41754 0-2.56667 1.14911-2.56667 2.56671z" fill="#874fff"/></g></svg>