<svg fill="none" height="24" viewBox="0 0 24 24" width="24" xmlns="http://www.w3.org/2000/svg"><path d="m0 0h24v24h-24z" fill="#000"/><g fill="#23b2e7"><path d="m13.5274 11.9957c0 .8443-.6845 1.5288-1.5289 1.5288s-1.5289-.6845-1.5289-1.5288c0-.8444.6845-1.5289 1.5289-1.5289s1.5289.6845 1.5289 1.5289z"/><path clip-rule="evenodd" d="m11.9985 6.07123c-.2244-.21417-.4481-.41189-.6695-.59187-.6441-.52348-1.2907-.91418-1.90149-1.11177-.61071-.19757-1.24049-.21719-1.77892.09368-.53844.31086-.83633.86608-.97059 1.49375-.13426.62773-.11922 1.38307.01209 2.20262.04514.28177.10455.57432.17783.87575-.2977.08726-.58077.18209-.84738.28388-.7754.29607-1.43706.6607-1.91356 1.09083-.47645.4301-.80833.9657-.80833 1.5874 0 .6218.33188 1.1574.80833 1.5875.4765.4301 1.13816.7948 1.91356 1.0908.26661.1018.54967.1966.84736.2839-.07326.3014-.13266.5939-.1778.8756-.1313.8196-.14635 1.5749-.01208 2.2026.13425.6277.43215 1.1829.97058 1.4938.53844.3108 1.16822.2912 1.77892.0937.61078-.1976 1.25738-.5883 1.90148-1.1118.2214-.18.4451-.3777.6695-.5919.2244.2142.448.4119.6694.5919.6441.5235 1.2908.9142 1.9015 1.1118.6107.1975 1.2405.2171 1.7789-.0937.5385-.3109.8364-.8661.9706-1.4938.1343-.6277.1192-1.383-.0121-2.2026-.0451-.2817-.1045-.5743-.1778-.8756.2977-.0873.5807-.1821.8472-.2839.7755-.296 1.4371-.6607 1.9136-1.0908s.8083-.9657.8083-1.5875c0-.6217-.3318-1.1573-.8083-1.5874-.4765-.43013-1.1381-.79476-1.9136-1.09083-.2665-.10178-.5495-.19659-.8472-.28383.0733-.30145.1327-.59401.1779-.8758.1313-.81955.1463-1.57488.012-2.20262-.1342-.62767-.4321-1.18288-.9705-1.49375-.5385-.31086-1.1683-.29124-1.779-.09367-.6107.19759-1.2573.58828-1.9014 1.11177-.2215.17998-.4451.37769-.6695.59186zm-2.87634-.7598c-.45351-.14671-.76692-.11269-.97757.00894-.21065.12162-.39683.37602-.49653.84213-.09968.46604-.09855 1.08865.02154 1.83821.04038.25208.09373.51549.15984.78846.6622-.14443 1.37706-.25502 2.12919-.32668.43817-.61556.89137-1.17939 1.34757-1.68068-.2033-.19372-.4048-.37162-.6029-.53263-.5891-.47878-1.12769-.79106-1.58114-.93775zm2.87634 2.18375c-.2475.27423-.4954.56962-.7411.88435.2444-.00817.4915-.01233.741-.01233s.4967.00417.7412.01234c-.2458-.31473-.4937-.61013-.7411-.88436zm-2.76108 2.05057c-.39541.05549-.77513.12244-1.13631.19963.11374.35142.24562.71372.39527 1.08392.11514-.2158.23513-.4319.35986-.648.12472-.21601.2519-.42797.38118-.63555zm-.22206 2.44975c.21105-.4349.44454-.8758.69998-1.3182.25543-.4424.52046-.86503.79156-1.26521.4821-.03465.9806-.05288 1.4915-.05288s1.0095.01823 1.4917.05289c.271.40018.5361.8228.7915 1.2652s.4889.8833.7 1.3182c-.2111.4348-.4445.8757-.7 1.3181-.2554.4425-.5205.8652-.7916 1.2654-.4821.0347-.9807.0529-1.4916.0529-.5108 0-1.0094-.0182-1.4914-.0529-.2711-.4002-.53622-.8229-.79167-1.2654-.25544-.4424-.48893-.8833-.69997-1.3181zm-1.0965 0c-.31401-.6872-.57567-1.3616-.78168-2.00729-.26947.07919-.52427.16479-.76279.25579-.70918.2708-1.24893.5811-1.60269.9005-.35382.3194-.48105.6078-.48105.851 0 .2433.12723.5317.48105.8511.35376.3194.89351.6297 1.60269.9005.23851.091.49331.1765.76276.2558.20602-.6458.46769-1.3202.78171-2.0074zm.18222 2.2502c.11375-.3514.24563-.7138.3953-1.084.11514.2158.23512.4319.35985.6479.12475.2161.25196.4281.38127.6358-.39545-.0555-.77521-.1225-1.13642-.1997zm-.27166.9562c-.06609.2729-.11943.5363-.15981.7883-.12009.7496-.12121 1.3722-.02153 1.8382.0997.4662.28587.7206.49652.8422.21066.1216.52407.1556.97758.0089.45344-.1467.99212-.4589 1.58112-.9377.1981-.161.3996-.3389.6029-.5326-.4562-.5013-.9094-1.0651-1.34748-1.6806-.75217-.0717-1.46706-.1822-2.1293-.3267zm4.86128 2.0073c.2034.1937.4048.3716.6029.5326.5891.4787 1.1277.791 1.5812.9377s.7669.1127.9775-.0089c.2107-.1216.3969-.376.4966-.8422.0996-.466.0985-1.0886-.0216-1.8382-.0403-.252-.0937-.5154-.1598-.7883-.6622.1444-1.3771.255-2.1293.3267-.4381.6155-.8913 1.1793-1.3475 1.6806zm.0488-1.5976c-.2458.3146-.4936.61-.741.8842-.2475-.2742-.4953-.5696-.741-.8842.2443.0081.4915.0123.7409.0123.2495 0 .4967-.0042.7411-.0123zm2.02-1.1663c.3954-.0555.7752-.1224 1.1364-.1996-.1138-.3514-.2457-.7138-.3953-1.084-.1152.2158-.2352.4319-.3599.648-.1247.216-.2519.428-.3812.6356zm1.3186-2.4498c.314.6872.5757 1.3616.7817 2.0073.2694-.0792.5241-.1647.7626-.2557.7092-.2708 1.2489-.5811 1.6027-.9005s.481-.6078.481-.8511c0-.2432-.1272-.5316-.481-.851s-.8935-.6297-1.6027-.9005c-.2385-.091-.4932-.1765-.7626-.25575-.2061.64565-.4677 1.32005-.7817 2.00725zm.0894-3.2063c-.6622-.14443-1.377-.25502-2.1292-.32669-.4381-.61557-.8913-1.1794-1.3476-1.6807.2034-.19372.4048-.37161.6029-.53262.5891-.47878 1.1277-.79106 1.5812-.93775.4535-.14672.7669-.11269.9776.00893.2106.12162.3968.37603.4965.84214.0997.46604.0985 1.08864-.0216 1.8382-.0403.2521-.0937.51552-.1598.78849zm-.2717.95621c-.1137.35139-.2456.71369-.3952 1.08389-.1152-.2158-.2352-.4319-.3599-.648-.1247-.21601-.2519-.42796-.3812-.63553.3955.05549.7752.12245 1.1363.19964z" fill-rule="evenodd"/></g></svg>